<svg width="60" height="60" shape-rendering="crispEdges" xmlns="http://www.w3.org/2000/svg"><path d="M20 20v20h1V20Zm1 20v1h1v-1zm1 1v1h1v-1zm1 1v1h1v-1zm1 1v1h12v-1zm12 0h1v-1h-1zm1-1h1v-1h-1zm1-1h1v-1h-1zm1-1h1V30h-1v1zm0-10v-1h-1v1zm-1-1v-1h-1v1zm-1-1v-1h-1v1zm-1-1v-1h-9v-3h-1v4zm-9-4h10v-1H27Zm10-1h1v-2h-1zm-10 9v1h6v-1zm6 1v6h1v-6zm0 6h-6v1h6zm-6 0v-6h-1v6z" style="fill:#d95763;fill-opacity:1"/><path d="M22 20v1h-1v19h1v1h1v1h1v1h12v-1h1v-1h1v-1h1v-9h-1v-1h-1v-1h-1v-1H26v-5h1v-1h10v-2H22zM1 23v1h1v-1zm5 3v1H5v1h1v1h1v-1h1v-1H7v-1zm21 5h6v1h1v7h-1v1h-6v-1h-1v-7h1zm25 19v1h-1v1h-1v1h1v1h1v1h1v-1h1v-1h1v-1h-1v-1h-1v-1z" style="fill:#f4f4f4;fill-opacity:1"/><path d="M1 0v1H0v22h1v-1h1v1h1v-3h3v5h1v1h1v1h1V16h2v3h1v1h37v-1h1v-3h1v33h1v-1h1v1h1V20h3v29h-1v1h1v1h-1v1h1v1h-1v1h-1v1h1v1h1v-1h1v-1h1v-1h1V1h-1V0Zm55 56h-1v-1h-1v1h-1v1h-1v-1h-1v1h-1v-1h-1v1H8v-1H7v-1H6v-1H5v-1H4v-1H3V28h1v-1H3v-3H2v1H1v-1H0v29h1v1h1v1h1v1h1v1h1v1h1v1h1v1h46v-1h-1v-1h1v1h1v-1h1v-1h1zM3 24h1v-1H3Zm1 3h1v-1H4Zm1-1h1v-1H5Zm-1 2v1h1v-1zm1 1v1h1v-1zm1 1v20h1v1h1v1h1v1h1v1h39v-1h-1v-1h1v-1H11v-1h-1v-1H9V28H8v1H7v1zm3-2h1v-1H9Zm40 23h1v-1h-1zm0-1v-1h-1v1zm0-1h1v-1h-1zm1 0v1h1v-1zm-1 5v1h1v-1zm1 1v1h1v-1zm-1 0h-1v1h1zm7-4v-1h-1v1zm-1-1v-1h-1v1zm0-1h1v-1h-1ZM3 2h7v1h1v10h-1v1H6v4H3Zm11 0h7v1h1v8h-1v1h1v6h-3v-3h-1v-2h-1v5h-3zm11 0h7v5h-4v1h4v10h-7zm10 0h7v5h-4v1h4v10h-7zm9 0h4v1h1v2h1v2h2V5h1V3h1V2h4v16h-4v-6h-1v1h-1v1h-2v-1h-1v-1h-1v6h-4ZM6 7v2h2V7Zm11 0v1h2V7h-1zm35 39h1v1h-1zm-6 6h1v1h-1z"/><path d="M3 2v13h3v-4h4v-1h1V3h-1V2Zm11 0v13h3v-5h1v2h1v3h3v-3h-1v-2h-1V9h1V8h1V3h-1V2Zm11 0v13h7v-2h-4v-3h4V8h-4V4h4V2Zm10 0v13h7v-2h-4v-3h4V8h-4V4h4V2Zm9 0v13h4V9h1v1h1v1h2v-1h1V9h1v6h4V2h-4v1h-1v2h-1v2h-2V5h-1V3h-1V2ZM6 4h2v5H6Zm11 0h2v4h-2z" style="fill:#fbf236;fill-opacity:1"/><path d="M6 4v1h2V4Zm11 0v1h2V4Zm11 0v1h4V4Zm10 0v1h4V4ZM21 8v1h1V8Zm0 1h-1v1h1zm27 0v1h1V9Zm1 1v1h1v-1zm1 1v1h2v-1zm2 0h1v-1h-1zm1-1h1V9h-1zm-43 0v1h1v-1zm0 1H6v1h4zm7-1v1h1v-1zm11 0v1h4v-1zm10 0v1h4v-1zm-20 2v1h1v-1ZM3 15v1h3v-1zm11 0v1h3v-1zm5 0v1h3v-1zm6 0v1h7v-1zm10 0v1h7v-1zm9 0v1h4v-1zm10 0v1h4v-1ZM4 20v6h1v-6zm51 0v28h1V20ZM4 29v22h1V29Zm1 22v1h1v-1zm1 1v1h1v-1zm1 1v1h1v-1zm1 1v1h1v-1zm1 1v1h39v-1z" style="fill:#df7126;fill-opacity:1"/><path d="M6 5v1h2V5Zm11 0v1h2V5Zm11 0v1h4V5Zm10 0v1h4V5ZM21 9v1h1V9Zm27 1v1h1v-1zm1 1v1h1v-1zm1 1v1h2v-1zm2 0h1v-1h-1zm1-1h1v-1h-1zm-43 0v1h1v-1zm0 1H6v1h4zm7-1v1h1v-1zm11 0v1h4v-1zm10 0v1h4v-1zm-20 2v1h1v-1ZM3 16v1h3v-1zm11 0v1h3v-1zm5 0v1h3v-1zm6 0v1h7v-1zm10 0v1h7v-1zm9 0v1h4v-1zm10 0v1h4v-1ZM4 51v1h1v-1zm1 1v1h1v-1zm1 1v1h1v-1zm1 1v1h1v-1zm1 1v1h1v-1z" style="fill:#8f563b;fill-opacity:1"/><path style="fill:#663931;fill-opacity:1" d="M6 6v1h2V6Zm11 0v1h2V6Zm11 0v1h4V6Zm10 0v1h4V6Zm-17 4v1h1v-1zm27 1v1h1v-1zm1 1v1h1v-1zm1 1v1h2v-1zm2 0h1v-1h-1zm1-1h1v-1h-1zm-43 0v1h1v-1zm0 1H6v1h4zm7-1v1h1v-1zm11 0v1h4v-1zm10 0v1h4v-1zm-20 2v1h1v-1ZM3 17v1h3v-1zm11 0v1h3v-1zm5 0v1h3v-1zm6 0v1h7v-1zm10 0v1h7v-1zm9 0v1h4v-1zm10 0v1h4v-1ZM3 20v3h1v-3zm53 0v29h1V20ZM3 24v3h1v-3zm0 4v24h1V28Zm1 24v1h1v-1zm1 1v1h1v-1zm1 1v1h1v-1zm1 1v1h1v-1zm1 1v1h41v-1zm48-6v1h1v-1zm-6 6v1h1v-1z"/><path d="M9 16v11h1v1H9v21h1v1h1v1h38v-1h-1v-1h1v-1h1v1h1V16h-1v3h-1v1H38v2h-1v1H27v3h9v1h1v1h1v1h1v1h1v10h-1v1h-1v1h-1v1h-1v1H24v-1h-1v-1h-1v-1h-1v-1h-1V20h-8v-1h-1v-3h-1zm18 16v6h6v-6z" style="fill:#ac3232;fill-opacity:1"/><path d="M5 20v5h1v-5zm1 5v1h1v-1zm1 1v1h1v-1zm1 1v1h1v-1zm0 1H7v1h1Zm-1 1H6v1h1Zm-1 1H5v21h1v1h1v1h1v1h1v1h40v-1H10v-1H9v-1H8v-1H7v-1H6Zm43 24h1v1h1v1h1v1h1v-1h1v-1h1v-1h1v-1h1v-1h-1v-1h-1v-1h-1v-1h-1v-1h-1v1h-1v1h-1v1h-1v1h-1v1h1zm1-4v-1h-1v1zm4-1h1V20h-1zm1 0v1h1v-1zm0 6v1h1v-1zm-5 0h-1v1h1zM6 29v-1H5v1zm-1-1v-1H4v1zm0-1h1v-1H5Zm-4-5v1h1v-1zm1 1v1h1v-1zm0 1H1v1h1Zm-1 0v-1H0v1zm51 22v1h1v-1zm0 4h1v1h1v1h1v1h-1v1h-1v1h-1v-1h-1v-1h-1v-1h1v-1h1zm-6 2v1h1v-1zm12 0v1h1v-1zm-6 6v1h1v-1z" style="fill:#fbf236;fill-opacity:1"/><path d="M21 20v1h1v-1zm5 7v1h10v-1zm10 1v1h1v-1zm1 1v1h1v-1zm1 1v1h1v-1zm-12 8v1h1v-1zm1 1v1h6v-1zm6 0h1v-1h-1z" style="fill:#9badb7;fill-opacity:1"/></svg>