<svg width="512" height="512" xmlns="http://www.w3.org/2000/svg"><g style="fill:#000"><path style="fill:#fff;fill-opacity:1;stroke:none;stroke-width:77.9599;stroke-linejoin:round;stroke-miterlimit:4;stroke-dasharray:none;stroke-opacity:1;paint-order:markers stroke fill" d="m299.933 22.883-73.436 1.444 44.527 98.465zm65.061 2.177-35.74 109.421 92.536-60.557zm-193.108 4.312-63.435 9.311 98.787 97.013zm3.634 117.611-.789 63.856 53.366 31.784-16.019 7.236-53.615-18.087-9.431 18.087 13.687 10.339-4.39 15.493-25.834-8.774-18.087 32.027 42.504 30.493 31.392-12.333 11.733-36.248 12.041 5.177v11.368l64.078-4.136 10.334-28.933v-32.018l-49.606-15.536 16.534-23.494 20.155-31.795-31.405-13.948zm122.338 2.552-38.76 58.467 45.223 14.156-2.326 46.3 17.594 6.557 26.866-40.312 3.082-76.824zm-140.946 8.727-73.501 28.56-14.992 25.829 49.615 21.704H54.985c-3.108 0-6.206 51.678-6.206 51.678h59.94l32.051-62.008-34.12-20.511 50.262-.676zm221.57 24.421-14.473 13.7 2.06 35.389-16.532 21.18v27.904h28.945l51.658-43.41zm53.728 77.515-57.887 42.365-54.763-16.53-54.774 32.036-62.008-2.068-3.106 27.909 41.34 16.019-4.128 16.025-32.035-10.342-51.681-21.702-20.673 11.368v35.14l32.04 21.702h99.22l18.597-41.336-21.18-26.48 59.422 2.708-26.48 25.19 30.619 1.163 39.276-14.985 27.762 23.9 61.381-.364 5.242-57.787-66.476 2.206-5.182 16.53 23.781 11.379-34.106-4.139 12.405-32.036 74.405-5.161zM50.13 298.944l64.604 53.526 36.172-14.473-56.856-39.053zm241.651 84.882-10.976 27.91 31.002 27.898L381.693 424v-40.174zm-18.827 37.594s-32.045 9.3-39.277 9.3l55.956 58.397 31.01-14.461z"/></g></svg>