<svg width="512" height="512" xmlns="http://www.w3.org/2000/svg"><g style="fill:#000;fill-opacity:1;stroke:#fff;stroke-width:100;stroke-miterlimit:4;stroke-dasharray:none;stroke-opacity:1;paint-order:markers stroke fill"><path style="mix-blend-mode:normal;fill:#fff;fill-opacity:1;stroke:none;stroke-width:69.9766;stroke-linecap:butt;stroke-linejoin:round;stroke-miterlimit:4;stroke-dasharray:none;stroke-opacity:1;paint-order:markers stroke fill" d="M121.904 69.691a49.26 49.26 0 0 0-6.874.442c-38.67 8.613-52.555 46.855-50.479 58.952 3.432 15.406 15.798 35.029 33.994 40.623 18.64 36.772 100.7 83.956 119.028 86.074 0 0-.8 43.476 4.968 53.484 3.923 5.86 52.881 24.126 86.92 24.548 2.913.036 60.485 30.554 84.549 41.297.093 11.18 3.068 20.917 6.749 30.3-7.036 20.127 4.969 24.425 8.479 45.113 2.249 7.41 14.436 3.952 14.195-8.047-6.388-16.278-5.402-31.796 1.842-31.313l22.557 19.602L481.78 461.4c3.923 2.53 15.273-2.455 10.624-9.597l-29.856-33.975 1.747-1.836 49.944 33.882c4.043 2.668 13.303-7.495 8.836-11.37l-46.814-31.845 1.82-1.501 41.484 15.954c4.768 1.976 11.128-8.369 4.72-11.113l-40.89-19.937 26.477 6.65c3.595.399 5.63-7.151 1.631-7.96l-31.622-11.527c-16.95-8.411-38.898-24.284-58.942-24.016-23.523-22.652-58.004-62.047-70.218-68.265l-80.607-3.386 2.69-80.116c-35.099-51.948-64.037-66.567-102.198-95.981-11.27-27.279-31.994-35.685-48.701-35.77Zm196.811 51.085-16.444 94.517c.749.184 60.86-68.784 60.486-69.4-.325-.537-44.042-25.117-44.042-25.117zm98.307 82.599-68.186 52.403 81.036-3.696c.811-.492-11.923-48.76-12.85-48.707zm-181.44 143.837-77.181 45.425 35.77 31.476z" transform="translate(-39.671 -9.879)" stroke="none"/></g></svg>