<svg width="512" height="512" xmlns="http://www.w3.org/2000/svg"><g style="fill:#fff;fill-opacity:1;stroke:none"><g style="fill:#fff;fill-opacity:1;stroke:none;stroke-width:140.628;stroke-miterlimit:4;stroke-dasharray:none;paint-order:markers stroke fill"><g style="fill:#fff;fill-opacity:1;stroke:none"><g style="fill:#fff;fill-opacity:1;stroke:none;stroke-width:140.628;stroke-miterlimit:4;stroke-dasharray:none;paint-order:markers stroke fill"><path style="fill:#fff;fill-opacity:1;stroke:none;stroke-width:140.628;stroke-linecap:round;stroke-linejoin:round;stroke-miterlimit:4;stroke-dasharray:none;stroke-opacity:1;paint-order:markers stroke fill" d="M1689.434 533.572c-.461-.303-72.356 20.18-72.356 20.18l48.862 107.564s24.08-127.358 23.494-127.744zm-122.616 42.678-52.636 55.455 125.67 51.203zm210.329 2.309-6.76 6.373 10.623 11.267 6.76-6.373zm-25.153 10.943-36.056 33.994 26.2 27.793 36.06-33.994zm37.533 39.812-36.056 33.993 11.33 12.02 36.056-33.995zm-81.498 9.872 6.733 95.257-48.658-15.097 19.187 97.424c.727-.297 2.03-.824 2.652-1.079l7.852 5.621 4.234-10.56c34.976-14.175 80.14-32.379 92.012-36.732l183.39 176.615 13.882-13.086zm104.16 14.166-36.058 33.992 11.332 12.021 36.059-33.994zm-324.363 12.921-9.324 53.711 134.473-5.443zm347.024 11.116-36.057 33.992 11.332 12.021 36.057-33.994zm22.664 24.039-36.057 33.99 179.875 190.799 36.057-33.992zm-312.504 54.129-10.488 5.164c-6.015 11.016-10.853 22.433 7.966 13.166 14.615-7.197 37.343 4.96 42.446 16.258 14.823 32.815-8.687 142.203 10.857 181.613 3.534 7.177 32.094 3.056 32.094 3.056l89.838-44.236s-1.618-14.97-4.78-49.432l6.108-6.298-7.6-7.178c-.784-8.662-2.459-27.705-3.388-38.174l-98.76-10.3 28.734-42.071zm243.084 37.603a1816.932 1816.932 0 0 0-9.242 3.635c-.705 11.518-.657 29.01 4.668 37.668 2.442-13.468 9.67-23.39 16.35-29.97zm-45.385 18.258c-5.214 1.994-11.201 4.672-16.437 6.643l81.44 86.386 48.49-45.713-11.911-11.474-35.89 33.836zm300.086 48.754-6.842 6.451 10.252 10.875zm-323.332 87.959-82.43 40.59 7.297 14.818 82.43-40.59z" transform="translate(-1206.822 -381.93) scale(.83004)"/></g></g></g></g></svg>