<svg width="512" height="512" xmlns="http://www.w3.org/2000/svg"><g style="fill:#000"><g style="stroke:none;stroke-opacity:1;stroke-width:1.00006804;stroke-miterlimit:4;stroke-dasharray:none;fill:#fff;fill-opacity:1"><g style="stroke:none;stroke-opacity:1;stroke-width:1.16198292;stroke-miterlimit:4;stroke-dasharray:none;fill:#fff;fill-opacity:1"><path style="stroke:none;stroke-width:1.00006801;stroke-linejoin:round;stroke-miterlimit:4;stroke-dasharray:none;stroke-opacity:1;paint-order:markers stroke fill;fill:#fff;fill-opacity:1" d="M-245.11 4.91c-23.056-.737-45.849 11.082-56.609 41.277 40.62 75.463 28.352 118.624-12.5 143.643l-.677 13.488-16.72 18.018 12.065 11.17-30.883 23.066 2.909 3.893c49.533-20.215 102.876-37.05 150.322-47.639-29.259-77.106-25.164-120.933 9.6-174.02-6.45-10.404-16.025-18.893-27.002-24.654h-.004c-9.485-4.977-20.02-7.907-30.5-8.242zm-319.635 37.48c-1.965.137-4.196.683-6.633 1.841-4.588 2.183-9.3 6.244-12.244 10.66-2.944 4.416-4.012 8.837-3.277 12.223.734 3.385 2.982 6.96 10.746 10.407 8.338 3.702 12.278 3.191 12.543 3.072.131-.059.021.122.334-.504.31-.626.743-2.083.937-4.201.662-7.225-1.634-20.433-2.406-33.498zm31.334 21.187c-2.859.001-4.904.815-6.59 1.934-2.996 1.99-5.371 5.925-6.412 11.097-1.04 5.17-.579 11.256 1.127 15.899 1.706 4.643 4.326 7.448 7.045 8.418 2.599.925 6.541.44 10.953-2.082 4.412-2.523 8.786-6.949 11.389-11.574 2.601-4.625 3.322-9.094 2.334-12.413-.124-.415-.27-.83-.446-1.248a9.565 9.565 0 0 0-.62-1.252c-1.499-2.49-4.422-4.93-10.423-7.07-3.42-1.22-6.134-1.71-8.357-1.709zm-63.432 18.381c-10.675 32.342 4.904 70.986 26.362 106.578 39.089 2.253 86.917 12.377 135.5 27.018l.187-4.856 38.518 1.49-2.356-16.273 24.33-3.492 9.01-10.06c-5.095-.67-10.31-1.701-15.643-3.077-4.282 3.217-9.083 5.709-14.13 7.266-7.91 2.441-16.904 2.658-24.473-2.115-7.605-4.795-11.303-13.052-12.389-21.23-.067-.512-.116-1.035-.166-1.548-7.199 3.85-15.828 5.75-24.072 2.631-8.408-3.18-13.694-10.533-16.39-18.332a44.05 44.05 0 0 1-1.907-7.758c-.471.293-.925.598-1.406.871-7.186 4.109-15.92 6.265-24.35 3.26-8.467-3.02-13.895-10.252-16.74-17.998a43.416 43.416 0 0 1-1.941-7.178c-7.497 3.031-16.944 1.988-25.457-3.38-7.264-4.58-12.236-10.848-14.838-17.706-6.84 2.122-14.343.204-23.489-3.859-5.943-2.638-10.715-6.164-14.16-10.252zm106.873 7.893c-2.858.001-4.903.815-6.59 1.933-2.996 1.991-5.37 5.927-6.412 11.1-1.04 5.17-.578 11.256 1.127 15.898 1.706 4.643 4.327 7.446 7.045 8.416 2.6.925 6.542.443 10.953-2.08 4.412-2.523 8.787-6.95 11.389-11.576 2.602-4.625 3.322-9.093 2.334-12.412a12.132 12.132 0 0 0-.447-1.246 9.574 9.574 0 0 0-.621-1.254c-1.498-2.49-4.42-4.931-10.42-7.07-3.42-1.22-6.135-1.71-8.358-1.71zm45.055 22.127c-2.861-.055-4.925.717-6.633 1.804-3.034 1.931-5.496 5.842-6.635 10.992-1.138 5.15-.779 11.236.836 15.91 1.618 4.676 4.173 7.534 6.873 8.555 2.58.977 6.522.55 10.98-1.888 4.46-2.437 8.954-6.759 11.645-11.332 2.691-4.576 3.486-9.032 2.563-12.37a11.627 11.627 0 0 0-.684-1.906c-.1-.21-.216-.405-.338-.615-1.448-2.519-4.32-5.028-10.279-7.281-3.396-1.285-6.103-1.827-8.328-1.87zm44.244 23.134c-1.608-.029-2.992.286-4.252.768-3.359 1.288-6.549 4.623-8.693 9.443-2.144 4.818-3.01 10.856-2.36 15.758.652 4.904 2.578 8.207 5.02 9.746 2.333 1.472 6.29 1.867 11.145.367 4.854-1.497 10.123-4.85 13.673-8.795 3.55-3.946 5.213-8.146 4.975-11.601a10.842 10.842 0 0 0-.508-2.692 10.7 10.7 0 0 0-.416-1.054v.004c-1.131-2.471-3.497-5.154-8.213-8.127-4.386-2.766-7.69-3.768-10.37-3.817zm-47.14 92.46-95.098 40.663 26.18 37.715zm31.167 27.464-65.568 71.225 45.848 26.584zm52.963 21.272-40.138 86.74 52.476 4.31z" transform="translate(708.223 42.352) scale(1.14792)"/></g></g></g></svg>