<svg width="512" height="512" xmlns="http://www.w3.org/2000/svg"><g style="fill:#000"><path d="M797.27-33.707c17.4 39.04 44.6 77.48 81.181 118.639 16.482 20.535 17.419 20.652 28.969 32.902 10.05 10.35 13.55 13.949 19.4 27.049-3.15 13.6-7.85 18.401-14.4 35.601-8.854 16.342-10.261 39.507-18.115 40.782l-78.983 12.818c-7.6 43.6-13.499 92.6-36.699 133-6.7 18.7-10.502 34.298-9.102 40.398.7 3.1 1.402 4.201 5.102 5.801 3.7 1.5 11 2.6 22.2 1.7h163.099c2.7-5.3 5.101-9.2 5.201-9.7 0-.4.398.001-1.102-1.699-1.4-1.7-5.098-4.7-11.798-8.3-17.2-9.3-30.502-13.4-46.202-17.7-15.7-4.3-33.7-8.702-58.5-18.602l-9.5-3.798 4.9-9c11.753-26.644 18.23-53.27 18.23-53.27s105.816-33.505 114.415-46.723c8.84-13.587 15.18-29.396 23.553-44.857 9.45-16.95 13.45-23.75 25.775-54.725 4.476-25.325 1.475-38.525-14.3-74.4-8.225-25.225-14.525-37.226-25.975-56.916-13.55-22.15-23.05-36.09-32.85-49zm-16.893 164.713-38.846 33.543 59.12 46.287zm-59.736 74.264-7.983 42.697 73.322 10.758zM929.156 307.1l67.914 57.466 21.977-47.45z" transform="translate(-650.05 57.23) scale(1.04177)" style="fill:#fff;fill-opacity:1;stroke:none;stroke-width:100;stroke-linejoin:round;stroke-miterlimit:4;stroke-dasharray:none;stroke-opacity:1;paint-order:markers stroke fill"/></g></svg>