<svg width="512" height="512" xmlns="http://www.w3.org/2000/svg"><path d="m19.455 17.016 1.717 345.656c15.677 8.52 35.932 6.66 49.75-1.625 16.377-10.994 19.86-25.201 11.346-39.719C23.28 223.543 36.424 131.91 87.955 80.486c51.53-51.424 140.25-61.074 224.688-1.627 13.64 9.602 20.365 9.61 24.593 7.657 18.702-19.697 21.81-43.01 26.063-68.813zM192.08 56.295c-4.418.057-8.754.3-13.033.75l98.97 66.691 16.53-34.595C261.985 71.343 224.73 56.293 192.08 56.295Zm-71.123 33.271-3.73 17.61c57.04 18.075 102.46 11.942 144.98 59.682 15.383 17.271 33.365 57.686 53.016 69.8 32.681 12.43 53.701-6.904 81.691-12.902 37.77-.187 56.574 56.11 65.28 86.252l17.353-4.781c-14.027-43.894-48.127-105.21-86.27-99.1-21.857 3.607-51.379 24.162-68.85 15.064-12.645-16.527-33.477-59.212-45.416-71.924-54.314-42.71-91.503-45.302-158.054-59.7zm-31.658 31.842-7.338 16.436c49.115 25.31 108.604 49.194 151.504 88.33 20.722 23.473 27.135 60.83 51.875 75.26 20.624 13.592 58.792-6.191 75.812 3.017 29.144 25.403 43.935 56.729 57.233 92.516l16.94-6.086c-16.039-34.888-32.092-81.84-65.151-102.006-20.793-14.056-58.732 5.845-76.078-3.168-24.742-18.789-28.585-53.611-48.334-72.678-50.073-39.844-98.611-65.607-156.463-91.62zm-9.783 40.252L68 175.494s78.82 66.142 107.45 104.465c16.519 26.386 20.846 65.049 44.046 81.766 26.927 20.17 81.684-3.604 102.795 12.418 22.115 27.829 28.526 61.222 32.219 96.017l17.92-1.685c-6.519-35.668-11.242-84.852-38.825-108.332-27.252-22.923-80.876 1.677-103.87-13.223-23.15-20.998-23.657-55.409-39.866-77.734C157.864 226.344 79.516 161.66 79.516 161.66Zm-17.782 32.856.002.004v-.004zm.002.004c.081 32.477 9.462 69.047 31.094 107.84l22.125-13.126z" fill="#fff"/></svg>