<svg width="512" height="512" xmlns="http://www.w3.org/2000/svg"><g style="fill:#000"><g style="fill:#fff;fill-opacity:1;stroke:none"><path d="M823.189 135.383c-12.19 0-22.837 9.918-31.088 26.305-8.251 16.387-12.801 37.93-12.801 53.595V431.35c0 13.786 8.965 28.261 24.863 41.814 15.898 13.552 38.116 25.567 60.91 34.253 22.794 8.683 46.263 14.044 64.213 15.086 8.977.52 16.567-.094 21.595-1.477 5.025-1.381 6.763-3.156 7.277-4.184 7.112-14.225 12.21-50.853 12.098-93.299-.026-9.606-35.802-34.802-36.269-44.937-1.276-27.736-9.56-25.2-14.003-52.711-1.107-6.855 38.593-30.052 37.297-36.656-6.288-32.032-32.248-71.886-61.156-102.62-14.455-15.364-29.593-28.555-42.904-37.664-13.311-9.104-25.301-13.572-30.032-13.572zm209.61 83.88L971.046 324.47l99.024-56.96zm48.031 95.497-105.618 41.042 101.954 10.722zm-99.66 75.26 48.843 82.753 34.115-49.331z" style="fill:#fff;fill-opacity:1;stroke:none;stroke-width:90.028;stroke-linejoin:round;stroke-miterlimit:4;stroke-dasharray:none;stroke-opacity:1;paint-order:markers stroke fill" transform="translate(-878.428 -146.361) scale(1.21973)"/></g></g></svg>