<svg width="512" height="512" xmlns="http://www.w3.org/2000/svg"><g style="fill:#000"><path style="fill:#fff;fill-opacity:1;stroke:none;stroke-width:86.1686;stroke-linejoin:round;stroke-miterlimit:4;stroke-dasharray:none;stroke-opacity:1;paint-order:markers stroke fill" d="M160.16 21.556c-5.593-.274-11.907 1.857-17.136 2.787-9.28 1.598-30.26 10.422-40.107 16.868-10.271 6.694-20.106 14.034-28.76 23.835-24.37 27.232-36.304 57.831-36.179 92.764.03 8.215.202 15.712.382 16.66 1.214 5.896 3.92 9.614 10.023 9.621 6.482-.303 10.278-5.983 10.364-7.767.034-.704.013-7.486-.044-15.069-.258-33.994 11.234-62.54 34.5-85.714 8.281-8.247 21.002-17.6 28.307-20.813 10.344-4.582 17.501-7.309 31.169-10.751 8.386-1.247 9.612-1.531 12.872-2.974 6.663-2.95 6.595-14.652-.106-18.238-1.637-.759-3.42-1.118-5.285-1.21zm25.958 47.694c-4.296-.456-10.912.522-19.435 2.897-4.985 1.477-9.818 3.394-16.086 6.308-2.248.441-14.354 8.392-19.709 12.942-24.03 20.422-38.814 54.627-36.123 83.575.8 8.609 2.752 12.773 6.783 14.466 3.76 1.58 8.814.326 11.834-2.932 2.467-2.662 2.647-3.69 2.248-12.922-1.267-29.298 13.099-56.686 37.808-72.087 10.011-6.24 19.543-9.764 31.572-11.67 5.955-.944 9.083-3.512 9.959-8.178.915-4.88-1.12-9.249-5.342-11.461-.9-.472-2.077-.785-3.509-.938zm89.593 50.072c-9.35 0-16.953 7.605-16.953 16.96v197.163c0 .218-.14.437-.14.678 0 .879.14 1.743.14 2.594v45.361h.01c.303 15.856 12.34 26.63 27.113 26.63 14.413 0 26.239-11.268 27.088-25.468a35.7 35.7 0 0 0 6.832.687c19.952 0 36.182-16.225 36.182-36.172 0-3.065-.4-6.083-1.151-9.017 21.479-6.386 37.192-26.299 37.192-49.823 0-14.411-5.9-27.47-15.413-36.897a56.616 56.616 0 0 0 6.584-26.445c0-24.731-16.172-46.629-39.585-54.005a42.344 42.344 0 0 0 1.047-9.281c0-23.685-19.27-42.956-42.958-42.956zm-47.498.497-25.99.009c-23.683 0-42.951 19.266-42.951 42.95 0 3.065.352 6.179 1.048 9.284-23.414 7.379-39.58 29.272-39.58 54.002a56.7 56.7 0 0 0 6.576 26.453c-9.508 9.422-15.41 22.48-15.41 36.894 0 23.525 15.713 43.438 37.194 49.821a36.157 36.157 0 0 0-1.156 9.021c0 19.953 16.232 36.182 36.182 36.182 2.266 0 4.552-.227 6.835-.67.848 14.202 12.667 25.496 27.08 25.496 14.878 0 27.128-12.034 27.128-26.874V136.774c-.002-9.35-7.603-16.956-16.956-16.956zM408.53 328.137c-8.918.043-10.612 7.013-11.31 16.414-2.754 38.81-33.932 70.902-71.988 74.098-11.903 1-13.675 1.586-15.507 5.128-3.105 6.004-1.355 12.605 4.144 15.622 4.491 2.463 26.802-.054 36.065-4.07 19.622-8.505 24.9-11.821 36.592-22.988 13.494-12.889 21.027-24.589 26.452-41.08 2.175-6.793 12.04-42.469-4.448-43.124zm58.066 14.562c-8.47-1.252-13.038 8.043-14.21 19.618-2.524 26.484-10.998 46.41-28.701 67.479-5.91 7.035-19.042 17.813-27.793 22.812-17.66 10.089-29.2 13.591-51.129 15.524-13.023 1.147-17.232 4.07-17.232 11.96.285 16.986 30.649 8.572 41.627 6.143.563-.347 2.662-.891 4.664-1.207 7.376-1.162 31.365-12.11 38.46-17.553 19.189-14.718 30.093-25.518 37.283-36.924 1.04-1.65 2.573-3.718 3.406-4.597 2.463-2.596 10.044-18.785 13.59-29.019 3.814-11.007 8.172-25.986 7.364-39.529-.31-5.183.116-9.417-3.46-13.5-1.37-.633-2.66-1.028-3.87-1.207z"/></g></svg>