<svg width="512" height="512" xmlns="http://www.w3.org/2000/svg"><g style="stroke:none;stroke-width:60;stroke-linejoin:round;stroke-miterlimit:4;stroke-dasharray:none;stroke-opacity:1;paint-order:markers stroke fill"><g style="stroke:none"><path style="fill:#fff;fill-opacity:1;stroke:none;stroke-width:66.5471;stroke-linejoin:round;stroke-miterlimit:4;stroke-dasharray:none;stroke-opacity:1;paint-order:markers stroke fill" d="M222.317-.176v.002l-4.506 38.297 36.254 28.424 26.342-55.491C260.282.916 241.287.28 222.317-.176ZM156.532 40.76c-26.894 3.25-47.636 17.63-65.298 37.5h.032l106.927 69.424Zm148.76 30.673 20.693 94.83-101.032-26.48 44.987 92.68-155.936-99.126a215.473 215.473 0 0 0-12.444 16.948c-31.935 48.207-46.642 112.135-47.588 173.82 44.5 21.769 70.81 44.52 82.112 68.279 10.156 21.35 6.072 43.321-7.035 60.169 27.965 25.933 76.128 41.736 125.502 42.528 49.703.795 99.79-13.401 131.568-43.014-6.692-7.694-11.547-15.912-13.863-24.885-3.106-12.034-1.057-25.016 5.753-36.913 13.04-22.783 41.755-43.548 88.8-66.203-.976-58.41-15.369-122.264-47.14-171.253-25.953-40.023-62.718-70.331-114.377-81.381ZM172.996 258.699c30.778 0 55.735 24.957 55.735 55.735s-24.957 55.733-55.735 55.733c-30.78 0-55.733-24.955-55.733-55.733s24.953-55.735 55.733-55.735zm165.779 0c30.778 0 55.733 24.957 55.733 55.735s-24.955 55.733-55.733 55.733-55.733-24.955-55.733-55.733 24.955-55.735 55.733-55.735zm-164.609 30.048a26.882 27.031 0 0 0-26.88 27.032 26.882 27.031 0 0 0 26.88 27.03 26.882 27.031 0 0 0 26.881-27.03 26.882 27.031 0 0 0-26.88-27.032zm162.815.805a24.846 25.423 0 0 0-24.845 25.422 24.846 25.423 0 0 0 24.845 25.423 24.846 25.423 0 0 0 24.846-25.423 24.846 25.423 0 0 0-24.846-25.422zm-81.113 64.67c15.24 32.17 27.341 64.356 33.341 96.528-16.389 14.302-45.761 16.377-66.685 0 8.114-32.172 17.88-64.358 33.344-96.528z" transform="translate(13.531 25.564) scale(.93117)"/></g></g></svg>