<svg width="512" height="512" xmlns="http://www.w3.org/2000/svg"><g style="fill:#fff;fill-opacity:1;stroke:none;stroke-width:160.039;stroke-miterlimit:4;stroke-dasharray:none"><g style="fill:#fff;fill-opacity:1;stroke:none;stroke-width:137.837;stroke-miterlimit:4;stroke-dasharray:none"><path d="M-276.377-275.451c-20.705 0-37.49 14.234-37.49 31.806l-.31 43.696c0-17.58-16.788-31.82-37.491-31.82s-37.488 14.24-37.488 31.82l-.166 92.535 82.578 43.107-82.695 22.024-.114 62.888c-.016-17.572-16.803-31.807-37.504-31.8-20.713.007-37.49 14.25-37.482 31.814l.09 212.01c2.387 28.197 72.479 119.437 105.408 124.26l.61 72.611c0 22.87 21.847 41.42 48.804 41.42h116.564c26.957 0 43.233-18.55 43.233-41.42v-78.707c52.72-33.518 59.715-161.22 59.715-164.09l-2.62-79.064-102.822-37.815L-95.699 18.2l-4.043-121.967c0-17.57-8.097-34.495-32.29-34.55-21.114-.056-27.96 10.917-31.96 24.853l.025-93.11c0-17.557-16.795-31.798-37.498-31.798-20.226 0-36.658 13.592-37.414 30.592l-.01-35.864c.001-17.572-16.777-31.806-37.488-31.806zm-268.64.312-62.885 93.444 185.02 76.82zM-634.71-72.717l5.305 108.262 201.025-97.772zM151.87-35.16-77.52 77.078l234.863 11.84Z" transform="translate(393.709 199.612) scale(.57695)" style="fill:#fff;fill-opacity:1;stroke:none;stroke-width:137.837;stroke-linejoin:round;stroke-miterlimit:4;stroke-dasharray:none;stroke-opacity:1;paint-order:markers stroke fill"/></g></g></svg>