<svg width="512" height="512" xmlns="http://www.w3.org/2000/svg"><g style="fill:#000"><g style="fill:#fff;fill-opacity:1;stroke:none"><path style="fill:#fff;fill-opacity:1;stroke:none;stroke-width:60;stroke-linejoin:round;stroke-miterlimit:4;stroke-dasharray:none;stroke-opacity:1;paint-order:markers stroke fill" d="M-485.2-.137s-115.885 6.663-99.753 137.11c0 0 2.168 7.94-7.49 7.677-11.9-.314-13.011 28.672 12.726 48.48 0 0 5.993 33.584 21.559 46.249 0 0 10.715 51.725-8.035 78.709 0 0-12.277 28.598-100.844 41.775 0 0-87.73.86-99.66 119.721l580.658.031c-12.12-118.861-99.703-119.72-99.703-119.72-88.526-13.178-100.844-41.776-100.844-41.776-18.75-26.984-8.035-78.709-8.035-78.709 15.555-12.654 21.558-46.248 21.558-46.248 25.832-19.808 24.565-48.793 12.633-48.478-9.574.251-7.406-7.68-7.406-7.68C-351.683 6.525-467.518-.136-467.518-.136Zm20.866 242.03c4.011.24 7.183 2.494 9.135 6.587.754 12.357-13.425 33.086-18.729 42.817-2.425 2.625-.678 5.434 7.889 12.685 15.86 13.425 16.248 13.907 16.248 20.116 0 6.659-.032 6.688-22.248 20.449-9.27 5.742-15.57 10.437-15.354 11.441.201.937 10.304 6.657 22.452 12.715 24.131 12.034 26.657 14.318 24.431 22.08-1.435 5.006-5.67 7.967-14.96 10.467-18.778 5.419-35.412 9.84-56.17 15.96-7.425 2.19-15.581 2.465-17.938.608-3.513-2.768-5.044-8.244-3.555-12.72 1.31-3.94 7.197-8.336 11.18-8.346 3.106-1.667 33.36-8.25 35.398-10.531 2.024-2.439-.339-4.08-19.22-13.358-13.963-6.86-16.465-8.551-17.96-12.127-3.016-7.22-.692-10.802 12.21-18.82 4.332-3.153 29.916-15.848 30.166-19.602-4.292-8.643-14.978-11.96-18.674-21.322 0 0 11.096-27.608 23.41-50.654 3.016-5.648 4.51-7.142 8.012-8.008 1.51-.374 2.94-.518 4.277-.437z" transform="translate(633.874 65.83) scale(.79324)"/></g></g></svg>