<svg width="512" height="512" xmlns="http://www.w3.org/2000/svg"><g style="fill:#000"><path style="fill:#fff;fill-opacity:1;stroke:none;stroke-width:99.8905;stroke-linejoin:round;stroke-miterlimit:4;stroke-dasharray:none;stroke-opacity:1;paint-order:markers stroke fill" d="M24.391 293.206c66.283-72.048 155.325-123.821 232.806-124.744 79.16 0 172.104 50.673 229.877 124.744-64.785 85.263-148.54 125.242-230.05 125.242-105.785 0-185.473-71.984-232.633-125.242zm318.01 8.18c.812-6.866.192-18.021-1.595-28.652-6.312-24.1-20.3-42.339-41.401-54.892-16.474-9.51-34.699-12.894-56.066-10.41-19.482 1.499-33.045 11.598-47.467 21.925l-13.194-14.929c-46.44 14.384-86.014 48.952-115.503 78.77 26.514 28.376 66.548 60.175 111.176 77.828 2.873 2.231 1.098-.741-3.901-6.537-21.413-24.82-29.517-61.059-24.368-94.165l20.1 3.322c-.69 69.911 38.782 103.849 86.557 107.846 50.663-3.937 81.169-42.35 85.662-80.105zm-144.618-16.821c.702-6.344 2.175-7.36 2.175-7.36l40.729 5.148-26.12-30.493c14.422-16.44 43.18-19.034 60.103-13.603 18.744 7.034 30.91 21.175 36.415 36.619 11.422 42.629-19.007 75.937-55.353 76.533-42.094.164-57.95-37.415-57.95-66.844zm246.506 8.633c-50.228-50.71-84.128-66.166-112.514-77.179 6.336 8.324 14.576 18.222 18.064 24.63 3.973 7.301 9.495 20.637 10.315 24.908 4.327 22.545 4.565 29.516 1.6 46.86-3.265 19.101-11.81 37.086-24.739 52.072-5 5.796-6.774 8.768-3.901 6.537 37.152-13.928 87.363-52.938 111.175-77.828zm-54.162-110.905 44.57-91.522 38.407 39.339ZM268.23 32.261l63.52-6.479L268.837 144.8Zm110.543 7.247 37.077 31.301-84.687 73.937z"/></g></svg>