<svg width="512" height="512" xmlns="http://www.w3.org/2000/svg"><g style="fill:#000"><g style="stroke:none"><g style="fill:#fff;fill-opacity:1;stroke:none"><path style="fill:#fff;fill-opacity:1;stroke:none;stroke-width:100;stroke-linejoin:round;stroke-miterlimit:4;stroke-dasharray:none;stroke-opacity:1;paint-order:markers stroke fill" d="M757.772 517.943c1.656-5.998 8.998-12.624 15.297-13.805 9.783-1.836 20.42 5.113 22.72 14.841 1.993 8.431 10.364 22.059 17.627 28.697 13.802 12.615 29.194 18.09 47.36 16.844 8.984-.616 12.454-1.605 21.698-6.186 14.42-7.145 21.495-14.19 28.55-28.428 5.43-10.958 5.712-12.141 6.866-28.82 1.509-21.794 5.746-38.789 13.529-54.266 11.59-23.05 23.93-36.89 62.184-69.746 40.815-35.053 51.682-46.624 65.702-69.95 12.484-20.772 18.84-42.849 20.965-72.826 2.316-32.669-1.679-54.986-14.453-80.734-22.85-46.058-63.268-73.983-114.725-79.264-22.95-2.355-51.058 1.889-70.301 10.614-45.08 20.44-74.648 57.375-84.454 105.497-1.533 7.52-3.733 15.275-4.89 17.233-6.65 11.259-25.474 10.982-32.46-.478-8.22-13.48 4.536-58.099 26.038-91.087 9.857-15.122 32.563-38.316 47.578-48.6 20.957-14.353 46.686-25.215 71.449-30.161 15.774-3.151 51.14-3.162 66.988-.02 37.003 7.335 68.835 24.459 95.98 51.633 21.218 21.24 35.517 44.624 44.415 72.633 6.877 21.648 8.25 31.501 8.179 58.667-.128 48.748-9.538 81.87-33.465 117.798-13.026 19.56-30.498 37.67-62.442 64.72-29.88 25.301-42.371 37.67-50.71 50.214-10.785 16.222-14.376 28.02-15.955 52.41-1.449 22.39-6.982 38.651-19.347 56.858-11.995 17.66-34.593 33.024-57.01 38.758-48.272 18.172-132.004-28.089-122.913-83.046zm310.235-33.406 107.988 64.671-42.055 43.635zm54.056-76.44 118.474 25.546-15.684 45.456zm-273.69-9.474c-3.109-1.137-8.061-6.023-10.126-9.992-4.133-7.943-.896-19.24 6.994-24.41 1.918-1.256 7.644-2.806 12.725-3.444 11.96-1.502 19.543-4.945 26.74-12.14 8.796-8.798 12.248-16.984 12.259-29.073.01-12.543-3.532-21.083-12.332-29.727-7.69-7.553-15.47-11.037-27.344-12.245-7.453-.759-9.906-1.645-13.65-4.933-6.989-6.136-7.628-10.206-6.994-44.544.538-29.142.734-31.042 4.247-41.217 12.27-35.534 37.043-58.672 73.08-68.254 11.427-3.04 36.074-2.989 47.735.097 43.532 11.521 75.537 51.03 76.451 94.375.234 11.105-1.335 14.67-8.965 20.366-5.029 3.755-15.277 3.755-20.306 0-6.88-5.136-8.556-8.741-9.837-21.151-3.468-33.62-28.482-56.767-61.343-56.767-26.99 0-49.05 15.377-58.65 40.88-2.279 6.056-3.092 11.79-3.657 25.787l-.727 18 10.823 4.421c13.81 5.642 24.481 13.523 33.28 24.58 13.14 16.515 18.314 32.627 17.23 53.657-1.201 23.302-8.822 39.56-25.996 55.455-10.575 9.788-22.153 16.117-35.04 19.155-8.403 1.98-22.61 2.58-26.597 1.124zm296-80.375 123.502-34.107-5.128 65.457z" transform="translate(-561.652 -2.483) scale(.80782)"/></g></g></g></svg>