<svg width="512" height="512" xmlns="http://www.w3.org/2000/svg"><g style="fill:#fff;fill-opacity:1;stroke:none"><path style="fill:#fff;fill-opacity:1;stroke:none;stroke-width:15.9241;stroke-linejoin:round;stroke-miterlimit:4;stroke-dasharray:none;stroke-opacity:1;paint-order:markers stroke fill" d="M389.785 69.632c-.019.345-.026.689-.022 1.032.017 1.568.255 3.142.565 4.9 1.938 10.972 9.434 21.892 9.434 21.892a54.485 54.485 0 0 1 4.375 8.114l1.54-5.636 4.526 4.608 1.433-8.048 2.976 6.636.92-.692c-1.002-4.593-1.707-12.906-1.707-12.906-.21-7.294-1.701-10.705-2.638-13.778-.78-2.553-3.14-7.751-3.14-7.751h-18.009s-.275 2.66-.253 1.63zm57.684 29.438c-4.145-.003-10.685 1.66-14.668 2.994-3.17 1.064-7.378 2.392-9.598 2.414-.534-.001-1.218-.065-1.994-.17l.335 1.1-7.254.527 7.072 4.1-5.878 2.676 4.769 3.376c4.114-.252 6.934.041 7.234.15 2.006.731 6.703 2.939 6.703 2.939l4.292 1.364c1.106.314 5.035 1.057 6.792 1.808 10.77 4.73 9.333 2.223 9.333 2.223.539-1.479-7.746-6.336-7.746-6.336 2.289.833 8.938 3.888 11.972 3.595 3.621-.355.405-2.757-.313-3.04-13.902-5.505-9.915-5.009-9.915-5.009 11.692 3.328 14.633 3.256 14.402 1.121-.155-1.61-13.63-5.096-13.63-5.096 8.589.467 10.469-.865 10.469-.865 4.132-2.885-4.257-3.226-5.942-3.229-8.953-.012-11.726-.921-11.726-.921 8.411-.996 9.131-3.792 9.131-3.792.056-1.402-1.515-1.928-3.84-1.93zm-42.696 9.726-11.502 4.368 2.29 3.312zm3.156 4.155s-10.274 5.762-10.373 5.895c-.082.11 4.523 3.086 4.717 3.047zm4.214 1.004-3.365 10.291 5.134.227z" transform="translate(-2435.79 -353.952) scale(6.31297)"/></g></svg>