<svg width="512" height="512" xmlns="http://www.w3.org/2000/svg"><g style="fill:#000"><g style="stroke:#fff;stroke-width:4.82208;stroke-linejoin:round;stroke-miterlimit:4;stroke-dasharray:none;stroke-opacity:1;paint-order:markers stroke fill"><path style="fill:#fff;fill-opacity:1;stroke:none;stroke-width:5.25895;stroke-linejoin:round;stroke-miterlimit:4;stroke-dasharray:none;stroke-opacity:1;paint-order:markers stroke fill" d="M110.31 1.392s-12.066.693-10.387 14.275c0 0 .226.826-.78.799-1.238-.033-1.354 2.985 1.326 5.047 0 0 .623 3.497 2.244 4.815 0 0 1.116 5.386-.836 8.195 0 0-.695 1.619-4.757 3.019l28.273.023c-4.113-1.405-4.817-3.039-4.817-3.039-1.952-2.81-.837-8.195-.837-8.195 1.62-1.317 2.245-4.815 2.245-4.815 2.69-2.062 2.557-5.08 1.315-5.047-.997.026-.77-.8-.77-.8 1.68-13.584-10.38-14.277-10.38-14.277Zm.806 5.554c2.023 0 3.644.533 4.865 1.6 1.231 1.066 1.847 2.473 1.847 4.22a5.1 5.1 0 0 1-.594 2.392c-.396.747-1.088 1.594-2.078 2.54l-1.451 1.418c-.517.516-.885.923-1.105 1.22a2.978 2.978 0 0 0-.445.841 4.87 4.87 0 0 0-.149.841c-.032.33-.05.78-.05 1.352v2.028h-3.149V22.86c0-1.11.154-2.023.462-2.737.308-.715.957-1.545 1.946-2.49l1.484-1.468c.627-.583 1.077-1.133 1.352-1.65a3.234 3.234 0 0 0 .43-1.582c0-.979-.364-1.77-1.09-2.375-.714-.605-1.665-.907-2.852-.907-.869 0-1.798.193-2.787.577-.979.385-2.001.946-3.067 1.682v-3.1a13.14 13.14 0 0 1 3.133-1.402 11.833 11.833 0 0 1 3.298-.461zm-2.408 20.877h3.348v4.188h-3.348z" transform="translate(-1151.714 9.54) scale(12.6529)" stroke="none"/></g></g></svg>