<svg width="512" height="512" xmlns="http://www.w3.org/2000/svg"><g style="fill:#000"><g style="stroke:none;stroke-width:12.6325;stroke-linejoin:round;stroke-miterlimit:4;stroke-dasharray:none;stroke-opacity:1;paint-order:markers stroke fill;fill:#fff;fill-opacity:1"><path style="fill:#fff;fill-opacity:1;stroke:none;stroke-width:14.3302;stroke-linejoin:round;stroke-miterlimit:4;stroke-dasharray:none;stroke-opacity:1;paint-order:markers stroke fill" d="M102.193-6.032s-12.55.721-10.803 14.848c-.004-.019.165.654-.81.831-1.29-.034-1.41 3.105 1.377 5.25 0 0 .65 3.637 2.335 5.009 0 0 1.16 5.601-.87 8.524 0 0-1.33 3.096-10.92 4.523 0 0-9.501.093-10.793 12.965l-.18 18.87s-.69 11.178-4.449 17.17c0 0-2.272 4.992-2.524 13.847H76.2c1.894-4.174 4.318-10.877 4.057-15.562 0 0-.093-7.42 2.608-11.622 0 0 1.824 21.284.526 27.184h39.49c-1.319-5.899.559-27.18.559-27.18 2.701 4.202 2.598 11.62 2.598 11.62-.27 4.887 2.278 11.394 4.211 15.56h11.758c-.256-8.856-2.804-13.844-2.804-13.844-3.743-5.992-4.447-17.169-4.447-17.169l-.166-18.87c-1.313-12.872-10.797-12.965-10.797-12.965-9.587-1.428-10.921-4.524-10.921-4.524-2.03-2.922-.87-8.524-.87-8.524 1.684-1.37 2.334-5.008 2.334-5.008 2.798-2.145 2.661-5.284 1.369-5.25-1.028.013-.595-1.147-.802-.832 1.749-14.13-10.795-14.851-10.795-14.851zm.847 47.354c3.492 0 6.292.92 8.399 2.762 2.126 1.841 3.188 4.27 3.188 7.288a8.806 8.806 0 0 1-1.025 4.129c-.683 1.29-1.879 2.752-3.587 4.384l-2.506 2.45c-.892.891-1.528 1.593-1.907 2.106-.36.493-.617.977-.769 1.452a8.501 8.501 0 0 0-.256 1.452c-.057.57-.085 1.348-.085 2.335v3.502h-5.438v-4.385c0-1.917.265-3.492.797-4.726.531-1.234 1.651-2.667 3.36-4.3l2.562-2.533c1.082-1.006 1.86-1.955 2.334-2.847.494-.892.74-1.804.74-2.734 0-1.69-.626-3.056-1.878-4.1-1.234-1.043-2.876-1.565-4.926-1.565-1.5 0-3.103.332-4.812.996-1.689.664-3.454 1.632-5.295 2.904V44.54c1.784-1.082 3.587-1.889 5.41-2.42a20.43 20.43 0 0 1 5.694-.798zm-4.157 36.045h5.78v7.232h-5.78z" transform="translate(-220.565 48.884) scale(4.61423)"/></g></g></svg>