<svg width="512" height="512" xmlns="http://www.w3.org/2000/svg"><g style="fill:#000"><g style="fill:#fff;fill-opacity:1;stroke:none"><path style="fill:#fff;fill-opacity:1;stroke:none;stroke-width:100;stroke-linejoin:round;stroke-miterlimit:4;stroke-dasharray:none;stroke-opacity:1;paint-order:markers stroke fill" d="M152.81 526.997c-31.828-8.27-53.756-28.892-63.942-60.135-6.72-20.612-4.465-51.403 4.266-58.271 10.656-8.383 27.218-1.818 27.458 10.884.045 2.38-.461 8.227-1.125 12.994-.664 4.766-.748 12.145-.187 16.396 3.823 28.97 33.384 51.255 61.754 46.554 18.236-3.022 30.395-11.663 42.697-30.344 21.093-32.03 48.282-47.436 99.922-56.62 32.404-5.763 55.705-10.844 64.85-14.143 5.162-1.862 9.586-3.185 9.831-2.94.246.245 2.23 7.504 4.41 16.132 3.677 14.549 3.799 15.775 1.678 16.91-4.333 2.32-32.817 9.289-52.102 12.748-69.183 12.412-82.248 18.94-104.407 52.169-14.55 21.818-35.158 34.931-61.486 39.125-12.052 1.92-22.33 1.473-33.617-1.46zm318.537-139.333 108.922 59.769-49.356 68.269zM232.653 367.27c-6.05-2.106-12.55-4.844-14.445-6.085-3.644-2.389-7.221-9.391-7.221-14.139 0-5.346 4.245-11.982 9.321-14.572 5.862-2.99 10.974-2.603 18.878 1.43 3.27 1.668 9.324 3.208 14.13 3.594 7.628.612 9.3.239 18.04-4.028 9.415-4.598 10.072-4.717 29.297-5.325 10.817-.342 19.661-.259 19.654.184-.045 2.93-9.675 16.698-16.116 23.039-18.583 18.297-46.702 24.547-71.538 15.902zM63.731 242.002l99.526 39.93-101.215 36.8Zm454.93 39.629-11.33-12.28 5.656-8.774c7.932-12.308 11.83-20.444 15.736-32.834 4.924-15.625 6.394-25.42 6.869-45.768.676-29.026-1.923-41.664-13.361-64.96-16.869-34.355-52.37-61.065-90.148-67.824-14.766-2.642-40.775-1.778-54.694 1.816-46.645 12.044-84.002 51.695-93.146 98.861-3.073 15.854-4.915 19.074-12.589 22.004-7.202 2.751-13.583 1.063-18.624-4.928-4.914-5.84-4.929-11.988-.08-31.968 17.144-70.632 82.611-121.543 156.076-121.372 44.094.103 84.077 16.999 114.822 48.521 26.901 27.582 40.302 55.9 45.22 95.562 3.086 24.881.008 54.538-8.384 80.782-5.281 16.518-9.783 26.081-19.198 40.784-7.32 13.966-11.336 12.51-22.825 2.378zm-179.674-53.907c-9.197-1.154-15.341-4.779-17.216-10.157-2.216-6.358-1.858-50.988.499-62.193 5.46-25.954 23.061-48.605 46.77-60.188 13.87-6.777 24.848-9.345 39.947-9.345 38.704 0 71.452 23.39 84.26 60.181 4.606 13.232 5.75 30.412 2.434 36.568-5.027 9.335-18.708 11.147-26.363 3.492-3.308-3.308-4.094-5.454-5.043-13.766-3.071-26.877-16.71-43.774-41.197-51.034-19.984-5.924-43.065 1.673-56.897 18.728-8.499 10.48-11.326 19.475-12.187 38.78l-.728 16.32c18.388 7.563 36.84 20.254 45.334 34.739 3.51 6.183 8.717 18.24 8.387 22.765l-34 22.335c2.884-25.912-9.837-43.808-34-47.225zM82.32 152.843l50-77.636 86.909 139.826Z" transform="translate(-40.283 5.426) scale(.92255)"/></g></g></svg>