<svg width="512" height="512" xmlns="http://www.w3.org/2000/svg"><g style="fill:#000"><g style="fill:#fff;fill-opacity:1;stroke:none"><path d="m457.868 428.021-14.826-11.36a228.333 228.333 0 0 0 23.613-38.057l16.762 8.238a247 247 0 0 1-25.55 41.179zm50.663-149.66c0-1.821-.02-3.637-.059-5.45l-18.673.409c.036 1.677.055 3.358.055 5.041 0 27.888-4.981 55.117-14.804 80.936l17.455 6.644c10.633-27.949 16.026-57.415 16.026-87.58zm-1.594-28.164c-3.61-31.713-13.207-61.984-28.523-89.968l-16.383 8.967c14.15 25.852 23.013 53.817 26.348 83.115zM466.56 140.768c-17.833-26.442-40.278-48.899-66.709-66.745L389.4 89.503c24.436 16.5 45.187 37.261 61.674 61.709zM380.4 62.162c-27.973-15.332-58.236-24.946-89.947-28.574l-2.123 18.557c29.295 3.351 57.251 12.233 83.091 26.396zM262.142 50.654c1.73 0 3.458.02 5.179.059l.419-18.672a248.804 248.804 0 0 0-5.592-.064c-30.117 0-59.538 5.373-87.446 15.973l6.631 17.46c25.782-9.79 52.971-14.756 80.81-14.756zM161.897 73.856l-8.235-16.764a246.843 246.843 0 0 0-41.177 25.55l11.36 14.827a227.985 227.985 0 0 1 38.052-23.613Zm263.958 202.515s.296-5.814-.59-15.406v-.08c-4.913-38.376-22.744-72.757-48.998-98.635l-51.75 56.612-234.67 86.958 15.074 40.66 234.051-86.727zm-94.43-87.213c-32.562-33.493-91.27-47.303-140.133-29.19-53.865 19.97-86.327 71.195-86.874 124.519l211.513-78.377ZM122.552 355.882c16.335 27.447 42.297 47.73 73.684 57.815v96.45h160.752l-.13-77.914 18.316-7.487c26.303-9.738 41.282-39.214 30.897-67.27l-13.008-35.043 15.503-5.738c9.011-3.336 11.354-14.994 4.328-21.55l-7.562-7.057-65.118-12.861z" style="fill:#fff;fill-opacity:1;stroke:none;stroke-width:81.7886;stroke-linejoin:round;stroke-miterlimit:4;stroke-dasharray:none;stroke-opacity:1;paint-order:markers stroke fill" transform="translate(-43.19 -15.062)"/></g></g></svg>