<svg height="512" width="512" viewBox="0 0 511.999 511.999" style="enable-background:new 0 0 511.999 511.999" xml:space="preserve" xmlns="http://www.w3.org/2000/svg"><path d="M255.999 219.038c-29.155 0-52.877 23.72-52.877 52.877 0 29.157 23.72 52.877 52.877 52.877 29.157 0 52.878-23.72 52.877-52.877 0-29.157-23.721-52.877-52.877-52.877zM384.011 50.27c-78.959-45.767-177.061-45.768-256.023 0-8.814 5.108-11.826 16.389-6.732 25.211l75.281 130.372c5.104 8.838 16.419 11.858 25.247 6.747 21.105-12.221 47.326-12.22 68.431 0 8.823 5.108 20.141 2.095 25.248-6.747l75.281-130.372c5.092-8.821 2.081-20.102-6.733-25.211z" style="fill:#fff"/><path d="M221.775 331.228c-21.124-12.216-34.246-34.944-34.246-59.312 0-10.199-8.268-18.467-18.467-18.467H18.467C8.268 253.449 0 261.718 0 271.916c0 92.285 49.567 176.192 127.989 221.647 8.796 5.099 20.128 2.131 25.253-6.743l75.281-130.372c5.097-8.828 2.077-20.116-6.748-25.22zm271.757-77.779H342.936c-10.199 0-18.467 8.268-18.467 18.467 0 24.368-13.122 47.095-34.246 59.312-8.825 5.104-11.845 16.392-6.747 25.221l75.281 130.372c5.118 8.859 16.439 11.851 25.253 6.743 78.475-45.487 127.989-129.427 127.989-221.647 0-10.199-8.268-18.468-18.467-18.468z" style="fill:#fff"/></svg>