<svg height="512" width="512" viewBox="0 0 297.001 297.001" style="enable-background:new 0 0 297.001 297.001" xml:space="preserve" xmlns="http://www.w3.org/2000/svg"><path d="M294.084 150.689a9.904 9.904 0 0 0-7.05-2.921h-96.71a42.715 42.715 0 0 0-12.309-21.229l48.381-83.799a9.965 9.965 0 0 0-3.656-13.617c-45.829-26.402-102.724-26.395-148.481.022a9.963 9.963 0 0 0-3.647 13.612l48.473 83.957c-5.845 5.55-10.015 12.644-12.012 20.653-.033.133-.058.267-.09.401H9.965c-5.499-.001-9.96 4.455-9.965 9.955-.024 25.968 6.861 51.644 19.912 74.25 13.051 22.605 31.843 41.405 54.345 54.368a9.965 9.965 0 0 0 13.605-3.651l48.472-83.954a43.14 43.14 0 0 0 12.387 1.84c4.016 0 8.056-.583 12.002-1.742l48.405 83.839a9.963 9.963 0 0 0 13.613 3.647c45.755-26.416 74.21-75.684 74.26-128.578a9.97 9.97 0 0 0-2.917-7.053zM75.776 263.762c-15.746-10.798-28.976-25.08-38.604-41.755-9.627-16.676-15.38-35.275-16.86-54.31h86.65a42.981 42.981 0 0 0 4.958 12.106 42.773 42.773 0 0 0 7.163 8.949l-43.307 75.01zM93.05 41.76c34.945-16.681 75.903-16.684 110.905-.009l-43.239 74.893c-7.848-2.301-16.332-2.373-24.402.052L93.05 41.76zm67.406 135.621a22.786 22.786 0 0 1-17.35 2.592 22.773 22.773 0 0 1-14.102-10.434 22.765 22.765 0 0 1-2.592-17.349 22.774 22.774 0 0 1 10.435-14.102 22.778 22.778 0 0 1 17.35-2.592 22.766 22.766 0 0 1 14.1 10.434c6.509 10.833 2.991 24.942-7.841 31.451zm60.754 86.358-43.191-74.809c6.187-5.823 10.368-13.252 12.278-21.233l86.373-.001c-3.059 38.65-23.541 74.119-55.46 96.043z" style="fill:#fff"/></svg>