<svg width="512" height="512" xmlns="http://www.w3.org/2000/svg"><g style="fill:#000;fill-opacity:1"><g style="fill:#fff;fill-opacity:1;stroke:#fff;stroke-width:8.14824;stroke-linejoin:round;stroke-miterlimit:4;stroke-dasharray:none;stroke-opacity:1;paint-order:markers stroke fill"><path d="m208.242 24.629-52.058 95.205 95.207 52.059 17.271-31.586-42.424-23.198A143.26 143.26 0 0 1 256 114c78.638 0 142 63.362 142 142s-63.362 142-142 142-142-63.362-142-142c0-16.46 2.785-32.247 7.896-46.928l-32.32-16.16C82.106 212.535 78 233.798 78 256c0 98.093 79.907 178 178 178s178-79.907 178-178S354.093 78 256 78c-13.103 0-25.875 1.44-38.18 4.148l22.008-40.25-31.586-17.27zm104.27 130.379L247 253.275V368h18V258.725l62.488-93.733z" fill="#000" stroke-width="0" style="fill:#fff;fill-opacity:1;stroke:#fff;stroke-width:5.17092;stroke-linejoin:round;stroke-miterlimit:4;stroke-dasharray:none;stroke-opacity:1;paint-order:markers stroke fill" transform="translate(-35.427 -5.048) scale(1.13839)"/></g></g></svg>