<svg width="512" height="512" xmlns="http://www.w3.org/2000/svg"><g style="fill:#000"><path style="fill:#fff;fill-opacity:1;stroke:none;stroke-width:80.1553;stroke-linejoin:round;stroke-miterlimit:4;stroke-dasharray:none;stroke-opacity:1;paint-order:markers stroke fill" d="m143.262 449.6-3.106-.355.713-22.92c.605-19.484.48-23.009-.836-23.514-.851-.326-6.477 1.85-12.5 4.839-11.303 5.605-13.562 6.187-16.966 4.365-1.816-.972-14.199-22.607-16.437-28.718-1.152-3.148-14.904-28.742-16.977-31.598-1.478-2.036-1.754-2.022-17.678.857-17.21 3.111-19.897-3.53-22.455-8.05-2.861-5.055-.33-9.727-.124-43.506l.291-47.694-2.75-6.412c-6.242-14.56-11.443-38.828-12.252-57.178-.687-15.571.854-25.691 6.803-44.66 3.203-10.213 5.085-14.016 12.271-24.79 12.609-18.905 30.815-34.772 50.154-43.71 130.319-49.392 235.369 33.656 175.63 158.047.87 10.287 1.854 25.196 2.186 33.131.883 21.06 2.41 31.674 7.223 50.23 2.363 9.112 4.73 19.452 5.258 22.978.528 3.527 2.824 13.627 5.1 22.444 4.138 16.018 6.22 24.953 7.225 30.993.293 1.764 3.355 14.507 6.804 28.32 3.45 13.811 5.867 25.517 5.372 26.013-.834.834-156.009 1.68-162.949.887zm176.086-38.655 72.57-13.01-16.223-36.573c-.4-.422 114.272 22.535 114.272 22.535l-73.46 15.634 21.857 38.666zm27.408-74.792 55.575-50.698-32.324-21.292 111.223-46.895-57.525 56.159c9.68 6.182 37.061 19.042 37.061 19.042zM300.8 295.189l27.788-77.998-37.406-1.336 70.355-93.837-20.124 72.645 42.118-3.018z"/></g></svg>