<svg width="512" height="512" xmlns="http://www.w3.org/2000/svg"><path d="M371.28 18.906c-40.78.092-82.526 21.026-110.624 65.813-35.57-51.667-93.288-71.73-143.5-61.47-54.427 11.12-99.783 58.946-97.47 134.688 2.17 70.978 43.028 120.858 91.25 168.53 48.225 47.674 104.27 94.2 141.97 159.5L261 500l8.094-14.03c37.55-65.042 95.404-109.375 144.625-156.064 49.22-46.69 90.167-97.202 87.905-172.53C499.49 86.238 455.06 36.64 401.875 22.81c-9.972-2.593-20.252-3.93-30.594-3.906Zm-.06 18.532c8.754.06 17.462 1.233 25.936 3.437 45.197 11.753 83.9 53.345 85.813 117.063 2.054 68.423-33.94 112.727-82.095 158.406-44.992 42.678-100.275 85.296-139.844 147-39.266-61.85-92.684-106.41-136.936-150.156-47.363-46.823-83.76-91.68-85.72-155.813C36.29 89.075 74.47 51.05 120.907 41.562c46.437-9.487 101.338 10.72 131.938 65.844l8.5 15.375 8-15.655C294.42 57.898 333.28 37.17 371.22 37.437Z" fill="#fff"/><path d="M260.947 148.06c-45.552 0-91.103 22.776-91.103 56.94 0 22.775 17.082 34.162 17.082 56.938 0 17.082-5.694 17.082-5.694 28.47 0 5.693 18.225 12.148 34.163 17.081v22.776h91.103V307.49s34.379-10.612 34.164-17.082c-.355-10.608-5.694-11.388-5.694-28.469 0-11.388 17.325-34.703 17.08-56.939 0-34.164-45.55-56.939-91.101-56.939zm-34.164 68.327c12.579 0 22.776 10.197 22.776 22.776 0 12.578-10.197 22.776-22.776 22.776-12.578 0-22.775-10.198-22.775-22.777 0-12.578 10.197-22.776 22.775-22.776zm68.327 0c12.578 0 22.776 10.197 22.776 22.776 0 12.578-10.198 22.776-22.776 22.776-12.579 0-22.776-10.198-22.776-22.776 0-12.579 10.197-22.776 22.776-22.776zm-34.163 39.858c5.694 0 17.082 22.776 17.082 28.47 0 11.387 0 11.387-5.694 11.387h-22.776c-5.694 0-5.694 0-5.694-11.388 0-5.694 11.388-28.47 17.082-28.47z" fill="#fff" style="stroke-width:.379599"/></svg>