<svg width="512" height="512" xmlns="http://www.w3.org/2000/svg"><path d="M371.28 18.906c-40.78.092-82.526 21.026-110.624 65.813-35.57-51.667-93.288-71.73-143.5-61.47-54.427 11.12-99.783 58.946-97.47 134.688 2.17 70.978 43.028 120.858 91.25 168.53 48.225 47.674 104.27 94.2 141.97 159.5L261 500l8.094-14.03c37.55-65.042 95.404-109.375 144.625-156.064 49.22-46.69 90.167-97.202 87.905-172.53C499.49 86.238 455.06 36.64 401.875 22.81c-9.972-2.593-20.252-3.93-30.594-3.906Zm-.06 18.532c8.754.06 17.462 1.233 25.936 3.437 45.197 11.753 83.9 53.345 85.813 117.063 2.054 68.423-33.94 112.727-82.095 158.406-44.992 42.678-100.275 85.296-139.844 147-39.266-61.85-92.684-106.41-136.936-150.156-47.363-46.823-83.76-91.68-85.72-155.813C36.29 89.075 74.47 51.05 120.907 41.562c46.437-9.487 101.338 10.72 131.938 65.844l8.5 15.375 8-15.655C294.42 57.898 333.28 37.17 371.22 37.437Zm109.05 201.597-431.713-.21c4.059 29.073-.409-1.779 68.061 74.47 48.288 53.773 115.632 105.821 144.412 150.049 28.976-43.9 118.415-111.229 139.844-147 43.418-22.815 72.945-47.549 79.396-77.309z" fill="#fff" style="fill:#fff"/></svg>