<svg viewBox="0 0 512 512" style="height:512px;width:512px" xmlns="http://www.w3.org/2000/svg"><defs><filter style="color-interpolation-filters:sRGB" id="a" x="-.178" y="-.101" width="1.356" height="1.201"><feFlood flood-opacity="1" flood-color="#3A3F5E" result="flood"/><feComposite in="flood" in2="SourceGraphic" operator="out" result="composite1"/><feGaussianBlur in="composite1" stdDeviation="15" result="blur"/><feOffset result="offset"/><feComposite in="offset" in2="SourceGraphic" operator="atop" result="composite2"/></filter></defs><path d="M0 0h512v512H0z" fill="#1b1f21"/><g style="fill:#e64539;fill-opacity:1;filter:url(#a)"><path d="M154.845 133c44.93 237.997-.094.02 44.623 238H215v-23c0-22 20.5-33 41-33s41 11 41 33v23h15.532c44.408-237.792-.344 1.484 44.623-238zM256 143.81l44.538 89.076H256v62.354l-44.538-89.076H256ZM256 333c-11.5 0-23 4.998-23 14.999v7h46v-7c0-10.001-11.5-15-23-15zm-23 40v30h46v-30zm-33 21v36h15v-36zm97 0v36h15v-36zm-64 27v30h46v-30zm0 48v7c0 20 46 20 46 0v-7z" style="fill:#e64539;fill-opacity:1" transform="rotate(45 399.294 243.516) scale(1.23275)"/></g></svg>