<svg viewBox="0 0 512 512" style="height:512px;width:512px" version="1.1" id="svg21" xml:space="preserve" xmlns="http://www.w3.org/2000/svg"><defs id="defs13"><filter id="shadow-1" height="1.217" width="1.152" x="-.076" y="-.108"><feFlood flood-color="rgba(58, 63, 94, 1)" result="flood" id="feFlood2"/><feComposite in="flood" in2="SourceGraphic" operator="out" result="composite" id="feComposite4"/><feGaussianBlur in="composite" stdDeviation="15" result="blur" id="feGaussianBlur6"/><feOffset dx="0" dy="0" result="offset" id="feOffset8"/><feComposite in2="SourceGraphic" in="offset" operator="atop" id="feComposite10"/></filter><filter id="shadow-1-5" height="1.154" width="1.184" x="-.092" y="-.077"><feFlood flood-color="rgba(58, 63, 94, 1)" result="flood" id="feFlood2-3"/><feComposite in="flood" in2="SourceGraphic" operator="out" result="composite" id="feComposite4-5"/><feGaussianBlur in="composite" stdDeviation="15" result="blur" id="feGaussianBlur6-6"/><feOffset dx="0" dy="0" result="offset" id="feOffset8-2"/><feComposite in2="SourceGraphic" in="offset" operator="atop" id="feComposite10-9"/></filter><filter style="color-interpolation-filters:sRGB" id="filter1251" x="-.06" y="-.06" width="1.12" height="1.12"><feFlood flood-opacity="1" flood-color="#3A3F5E" result="flood" id="feFlood1241"/><feComposite in="flood" in2="SourceGraphic" operator="out" result="composite1" id="feComposite1243"/><feGaussianBlur in="composite1" stdDeviation=".8" result="blur" id="feGaussianBlur1245"/><feOffset dx="0" dy="0" result="offset" id="feOffset1247"/><feComposite in="offset" in2="SourceGraphic" operator="atop" result="composite2" id="feComposite1249"/></filter><filter style="color-interpolation-filters:sRGB" id="filter1501" x="-.064" y="-.076" width="1.129" height="1.151"><feFlood flood-opacity="1" flood-color="#3A3F5E" result="flood" id="feFlood1491"/><feComposite in="flood" in2="SourceGraphic" operator="out" result="composite1" id="feComposite1493"/><feGaussianBlur in="composite1" stdDeviation="11.491" result="blur" id="feGaussianBlur1495"/><feOffset dx="0" dy="0" result="offset" id="feOffset1497"/><feComposite in="offset" in2="SourceGraphic" operator="atop" result="composite2" id="feComposite1499"/></filter><filter style="color-interpolation-filters:sRGB" id="filter1235" x="-.893" y="-1.088" width="2.787" height="3.175"><feFlood flood-opacity="1" flood-color="#3A3F5E" result="flood" id="feFlood1225"/><feComposite in="flood" in2="SourceGraphic" operator="out" result="composite1" id="feComposite1227"/><feGaussianBlur in="composite1" stdDeviation="10.424" result="blur" id="feGaussianBlur1229"/><feOffset dx="0" dy="0" result="offset" id="feOffset1231"/><feComposite in="offset" in2="SourceGraphic" operator="atop" result="composite2" id="feComposite1233"/></filter><filter style="color-interpolation-filters:sRGB" id="filter1805" x="-.035" y="-.047" width="1.07" height="1.094"><feFlood flood-opacity="1" flood-color="#3A3F5E" result="flood" id="feFlood1795"/><feComposite in="flood" in2="SourceGraphic" operator="out" result="composite1" id="feComposite1797"/><feGaussianBlur in="composite1" stdDeviation="6.902" result="blur" id="feGaussianBlur1799"/><feOffset dx="0" dy="0" result="offset" id="feOffset1801"/><feComposite in="offset" in2="SourceGraphic" operator="atop" result="composite2" id="feComposite1803"/></filter></defs><path d="M0 0h512v512H0z" fill="#1b1f21" fill-opacity="1" id="path15"/><style type="text/css" id="style361">.st0{fill:#000}</style><g id="g1793" style="filter:url(#filter1805)"><g id="g630" style="fill:#e64539;fill-opacity:1"><g id="g377" transform="translate(22.374 22.373) scale(.9126)" style="fill:#e64539;fill-opacity:1"><path class="st0" d="m274.326 147.552 62.35 6.409a7.012 7.012 0 0 0 7.621-5.775l2.62-15.214a6.996 6.996 0 0 0-1.546-5.701 6.996 6.996 0 0 0-5.354-2.497H275.04a7.004 7.004 0 0 0-7.003 7.003v8.806a6.998 6.998 0 0 0 6.289 6.969z" id="path363" style="fill:#e64539;fill-opacity:1"/><path class="st0" d="M411.116 334.266c11.673 0 21.136-9.46 21.136-21.136 0-11.683-9.463-21.13-21.136-21.13-11.67 0-21.133 9.447-21.133 21.13.001 11.676 9.464 21.136 21.133 21.136z" id="path365" style="fill:#e64539;fill-opacity:1"/><path class="st0" d="M100.884 334.266c11.67 0 21.133-9.46 21.133-21.136 0-11.683-9.463-21.13-21.133-21.13-11.673 0-21.136 9.447-21.136 21.13 0 11.676 9.463 21.136 21.136 21.136z" id="path367" style="fill:#e64539;fill-opacity:1"/><path class="st0" d="m151.822 225.368-9.857 30.382c2.974 2.163 5.815 4.493 8.418 7.09 12.692 12.718 20.492 30.116 20.502 49.496-.01 19.38-7.811 36.791-20.502 49.502-12.717 12.691-30.118 20.495-49.499 20.502-19.38-.007-36.781-7.811-49.499-20.502-12.69-12.711-20.495-30.122-20.502-49.502.007-19.381 7.811-36.778 20.502-49.496 12.711-12.684 30.105-20.488 49.476-20.502l9.861-30.382a101.865 101.865 0 0 0-9.838-.501C45.16 211.468.01 256.618 0 312.336c.01 55.73 45.16 100.873 100.884 100.887 55.725-.014 100.874-45.156 100.881-100.887-.004-37.113-20.095-69.451-49.943-86.968z" id="path369" style="fill:#e64539;fill-opacity:1"/><path class="st0" d="M344.263 291.513c1.158-3.732 2.684-7.304 4.426-10.742l-22.498-22.738c-6.466 10.094-11.235 21.363-13.779 33.48z" id="path371" style="fill:#e64539;fill-opacity:1"/><path id="path373" style="fill:#e64539;fill-opacity:1" class="st0" d="M411.115 211.455c-20.038.007-38.664 5.922-54.36 15.996l22.412 22.65c9.574-4.934 20.395-7.763 31.948-7.763 19.38.007 36.78 7.81 49.498 20.5 9.592 9.612 16.387 21.9 19.14 35.694 9.97 4.671 20.761 9.353 32.241 14.04 0-.08.007-.157.007-.236-.01-55.718-45.16-100.867-100.886-100.881zm-98.293 123.297a100.4 100.4 0 0 0 10.23 26.645 254.185 254.185 0 0 1-2.282-26.645h-7.948z"/><path id="path375" style="fill:#e64539;fill-opacity:1" class="st0" d="M102.3 98.777v18.534h31.132c4.876 0 9.466 2.335 12.334 6.275a15.251 15.251 0 0 1 2.17 13.671L100.74 282.755c.051-.007.096-.022.146-.022 6.533 0 12.554 2.117 17.513 5.642l35.33-108.911 91.124 138.753a9.239 9.239 0 0 0 7.743 4.178h68.629a11.337 11.337 0 0 1 6.525-7.525 766.692 766.692 0 0 0 26.136-11H265.87l31.827-92.197 80.104 80.959a432.318 432.318 0 0 0 17.115-9.053l-90.471-91.445 9.693-28.073-18.934-1.95-7.153 20.715-125.6-30.254 3.11-9.594a33.752 33.752 0 0 0-4.809-30.288 33.795 33.795 0 0 0-27.32-13.913H102.3zm70.01 75.225 109.67 26.423-31.808 92.142-77.861-118.565z"/></g></g><path d="M12 22c-1.148 0-3.418-1.362-5.13-3.34C4.44 15.854 3 11.967 3 7a1 1 0 0 1 .629-.929c3.274-1.31 5.88-2.613 7.816-3.903a1 1 0 0 1 1.11 0c1.935 1.29 4.543 2.594 7.816 3.903A1 1 0 0 1 21 7c0 4.968-1.44 8.855-3.87 11.66C15.419 20.637 13.149 22 12 22Z" fill="#000" id="path571" style="fill:#e64539;fill-opacity:1" transform="translate(296.558 259.228) scale(9.40212)"/></g></svg>