<svg viewBox="0 0 512 512" style="height:512px;width:512px" version="1.1" id="svg21" xml:space="preserve" xmlns="http://www.w3.org/2000/svg"><defs id="defs13"><symbol id="o" overflow="visible"><path d="M29.312-1.75A20.895 20.895 0 0 1 24.578.016a21.15 21.15 0 0 1-5.11.609c-5.312 0-9.527-1.484-12.64-4.453-3.106-2.969-4.657-7-4.657-12.094s1.55-9.125 4.656-12.094c3.113-2.969 7.328-4.453 12.641-4.453 1.77 0 3.473.199 5.11.594 1.644.398 3.222.992 4.734 1.78v6.595c-1.531-1.04-3.04-1.801-4.516-2.282a14.826 14.826 0 0 0-4.671-.734c-2.938 0-5.247.945-6.922 2.828-1.68 1.875-2.516 4.465-2.516 7.766 0 3.293.836 5.882 2.516 7.765 1.675 1.875 3.984 2.813 6.922 2.813 1.632 0 3.19-.239 4.671-.719 1.477-.488 2.985-1.254 4.516-2.297z" id="path2704"/></symbol><symbol id="c" overflow="visible"><path d="M21.453-17.406a10.04 10.04 0 0 0-2.016-.688 8.556 8.556 0 0 0-1.984-.234c-1.969 0-3.484.633-4.547 1.89-1.055 1.262-1.578 3.071-1.578 5.423V0H3.672v-23.922h7.656V-20c.977-1.563 2.102-2.704 3.375-3.422 1.281-.72 2.813-1.078 4.594-1.078.25 0 .523.011.828.03.3.024.734.071 1.297.141z" id="path2707"/></symbol><symbol id="b" overflow="visible"><path d="M27.562-12.031v2.188H9.671c.188 1.792.832 3.136 1.938 4.03 1.113.9 2.671 1.344 4.671 1.344 1.602 0 3.25-.234 4.938-.703 1.687-.476 3.422-1.203 5.203-2.172v5.891A31.913 31.913 0 0 1 20.999.094a28.432 28.432 0 0 1-5.422.531c-4.336 0-7.703-1.097-10.109-3.297-2.398-2.207-3.594-5.297-3.594-9.265 0-3.906 1.176-6.973 3.532-9.203 2.363-2.239 5.609-3.36 9.734-3.36 3.758 0 6.77 1.137 9.031 3.406 2.258 2.262 3.39 5.282 3.39 9.063zm-7.86-2.531c0-1.457-.43-2.63-1.28-3.516-.844-.894-1.95-1.344-3.313-1.344-1.492 0-2.7.418-3.625 1.25-.918.836-1.492 2.04-1.719 3.61z" id="path2710"/></symbol><symbol id="a" overflow="visible"><path d="M14.391-10.766c-1.594 0-2.793.273-3.594.813-.804.542-1.203 1.34-1.203 2.39 0 .969.32 1.73.969 2.281.644.543 1.547.813 2.703.813 1.437 0 2.644-.516 3.625-1.547.988-1.031 1.484-2.32 1.484-3.875v-.875zm11.688-2.89V-.002h-7.703v-3.547c-1.031 1.45-2.188 2.508-3.469 3.172s-2.84 1-4.672 1c-2.48 0-4.496-.722-6.047-2.172-1.543-1.445-2.312-3.32-2.312-5.625 0-2.812.96-4.867 2.89-6.171 1.938-1.313 4.97-1.97 9.094-1.97h4.516v-.609c0-1.207-.48-2.093-1.438-2.656-.949-.562-2.437-.844-4.468-.844-1.637 0-3.157.168-4.563.5a15.698 15.698 0 0 0-3.937 1.47v-5.829a41.147 41.147 0 0 1 4.937-.906 39.87 39.87 0 0 1 4.953-.313c4.32 0 7.438.856 9.344 2.563 1.914 1.7 2.875 4.46 2.875 8.281z" id="path2713"/></symbol><symbol id="h" overflow="visible"><path d="M12.031-30.719v6.797h7.875v5.469h-7.875v10.14c0 1.118.219 1.872.656 2.266.438.387 1.313.578 2.625.578h3.938v5.47h-6.563C9.664 0 7.523-.63 6.265-1.89c-1.261-1.258-1.89-3.399-1.89-6.422v-10.141H.578v-5.47h3.797v-6.796z" id="path2716"/></symbol><symbol id="g" overflow="visible"><path d="M19.953-20.422v-12.812h7.688V0h-7.688v-3.453c-1.055 1.406-2.215 2.437-3.484 3.094-1.274.656-2.743.984-4.407.984-2.949 0-5.37-1.172-7.265-3.516C2.91-5.234 1.969-8.25 1.969-11.937s.941-6.704 2.828-9.047C6.69-23.328 9.113-24.5 12.062-24.5c1.657 0 3.118.336 4.391 1 1.281.656 2.445 1.684 3.5 3.078zM14.906-4.938c1.645 0 2.895-.598 3.75-1.797.863-1.195 1.297-2.93 1.297-5.203 0-2.281-.434-4.02-1.297-5.219-.855-1.195-2.105-1.797-3.75-1.797-1.625 0-2.871.602-3.734 1.797-.856 1.2-1.282 2.938-1.282 5.219 0 2.273.426 4.008 1.282 5.203.863 1.2 2.11 1.797 3.734 1.797z" id="path2719"/></symbol><symbol id="f" overflow="visible"><path d="M16.406-4.938c1.633 0 2.883-.597 3.75-1.796.863-1.196 1.297-2.93 1.297-5.204 0-2.28-.434-4.019-1.297-5.218-.867-1.196-2.117-1.797-3.75-1.797-1.637 0-2.89.605-3.766 1.812-.875 1.2-1.312 2.934-1.312 5.203 0 2.262.437 3.996 1.312 5.203.875 1.2 2.13 1.797 3.766 1.797zM11.328-20.42c1.05-1.395 2.219-2.422 3.5-3.079 1.281-.664 2.754-1 4.422-1 2.945 0 5.367 1.172 7.265 3.516 1.895 2.344 2.844 5.36 2.844 9.047s-.949 6.703-2.844 9.047C24.617-.546 22.195.625 19.25.625c-1.668 0-3.14-.336-4.422-1s-2.45-1.691-3.5-3.078V0H3.672v-33.234h7.656z" id="path2722"/></symbol><symbol id="e" overflow="visible"><path d="M.531-23.922h7.656L14.61-7.688l5.47-16.234h7.655L17.672 2.266c-1.011 2.664-2.195 4.523-3.547 5.578-1.343 1.063-3.12 1.594-5.328 1.594H4.375V4.422h2.391c1.3 0 2.242-.21 2.828-.625.594-.406 1.055-1.148 1.39-2.219l.204-.656z" id="path2725"/></symbol><symbol id="d" overflow="visible"><path d="M4.016-31.891h8.218V0H4.016z" id="path2728"/></symbol><symbol id="n" overflow="visible"><path d="M2.5-23.922h20.875v5.344L10.766-5.47h12.609V0H1.969v-5.344l12.594-13.11H2.501z" id="path2731"/></symbol><symbol id="m" overflow="visible"><path d="M1.531-23.922H8.97l4.015 16.484 4.047-16.484h6.375L27.422-7.61l4.047-16.312h7.437L32.594 0H24.25l-4.047-16.453L16.187 0H7.844z" id="path2734"/></symbol><symbol id="l" overflow="visible"><path d="M4.016-31.891h10.469l7.265 17.062 7.297-17.062H39.5V0h-7.78v-23.328L24.375-6.125h-5.219l-7.343-17.203V0H4.016z" id="path2737"/></symbol><symbol id="k" overflow="visible"><path d="M3.422-9.313V-23.92h7.687v2.39c0 1.293-.011 2.918-.03 4.875a626.374 626.374 0 0 0-.016 3.922c0 1.93.046 3.312.14 4.156.102.844.281 1.461.531 1.844.313.5.72.887 1.22 1.156.507.274 1.093.406 1.75.406 1.593 0 2.843-.609 3.75-1.828.913-1.226 1.374-2.93 1.374-5.11V-23.92h7.64V0h-7.64v-3.453c-1.156 1.387-2.383 2.414-3.672 3.078-1.28.664-2.699 1-4.25 1-2.773 0-4.883-.848-6.328-2.547-1.437-1.695-2.156-4.16-2.156-7.39z" id="path2740"/></symbol><symbol id="j" overflow="visible"><path d="M3.672-23.922h7.656V0H3.672zm0-9.313h7.656V-27H3.672z" id="path2743"/></symbol><symbol id="i" overflow="visible"><path d="M22.359-23.172v5.797c-1.637-.676-3.215-1.188-4.734-1.531-1.524-.344-2.961-.516-4.313-.516-1.46 0-2.543.184-3.25.547-.7.367-1.047.922-1.047 1.672 0 .617.266 1.09.797 1.422.531.324 1.488.562 2.875.719l1.344.187c3.914.5 6.55 1.324 7.906 2.469 1.352 1.137 2.031 2.922 2.031 5.36 0 2.554-.945 4.468-2.828 5.75-1.875 1.279-4.68 1.92-8.406 1.92C11.148.625 9.515.5 7.828.25S4.406-.375 2.625-.875v-5.812a22.1 22.1 0 0 0 4.687 1.672c1.602.367 3.235.546 4.89.546 1.49 0 2.61-.203 3.36-.609.758-.414 1.14-1.031 1.14-1.844 0-.687-.26-1.195-.78-1.531-.524-.332-1.56-.594-3.11-.781l-1.344-.172c-3.406-.426-5.793-1.211-7.156-2.36-1.367-1.156-2.047-2.91-2.047-5.265 0-2.531.867-4.406 2.61-5.625 1.738-1.227 4.398-1.844 7.984-1.844 1.406 0 2.883.11 4.438.328 1.55.211 3.238.543 5.062 1z" id="path2746"/></symbol><filter id="shadow-1" height="1.217" width="1.152" x="-.076" y="-.108"><feFlood flood-color="rgba(58, 63, 94, 1)" result="flood" id="feFlood2"/><feComposite in="flood" in2="SourceGraphic" operator="out" result="composite" id="feComposite4"/><feGaussianBlur in="composite" stdDeviation="15" result="blur" id="feGaussianBlur6"/><feOffset dx="0" dy="0" result="offset" id="feOffset8"/><feComposite in2="SourceGraphic" in="offset" operator="atop" id="feComposite10"/></filter><filter id="shadow-1-5" height="1.154" width="1.184" x="-.092" y="-.077"><feFlood flood-color="rgba(58, 63, 94, 1)" result="flood" id="feFlood2-3"/><feComposite in="flood" in2="SourceGraphic" operator="out" result="composite" id="feComposite4-5"/><feGaussianBlur in="composite" stdDeviation="15" result="blur" id="feGaussianBlur6-6"/><feOffset dx="0" dy="0" result="offset" id="feOffset8-2"/><feComposite in2="SourceGraphic" in="offset" operator="atop" id="feComposite10-9"/></filter><filter style="color-interpolation-filters:sRGB" id="filter1251" x="-.06" y="-.06" width="1.12" height="1.12"><feFlood flood-opacity="1" flood-color="#3A3F5E" result="flood" id="feFlood1241"/><feComposite in="flood" in2="SourceGraphic" operator="out" result="composite1" id="feComposite1243"/><feGaussianBlur in="composite1" stdDeviation=".8" result="blur" id="feGaussianBlur1245"/><feOffset dx="0" dy="0" result="offset" id="feOffset1247"/><feComposite in="offset" in2="SourceGraphic" operator="atop" result="composite2" id="feComposite1249"/></filter><filter style="color-interpolation-filters:sRGB" id="filter1501" x="-.064" y="-.076" width="1.129" height="1.151"><feFlood flood-opacity="1" flood-color="#3A3F5E" result="flood" id="feFlood1491"/><feComposite in="flood" in2="SourceGraphic" operator="out" result="composite1" id="feComposite1493"/><feGaussianBlur in="composite1" stdDeviation="11.491" result="blur" id="feGaussianBlur1495"/><feOffset dx="0" dy="0" result="offset" id="feOffset1497"/><feComposite in="offset" in2="SourceGraphic" operator="atop" result="composite2" id="feComposite1499"/></filter><filter style="color-interpolation-filters:sRGB" id="filter1235" x="-.893" y="-1.088" width="2.787" height="3.175"><feFlood flood-opacity="1" flood-color="#3A3F5E" result="flood" id="feFlood1225"/><feComposite in="flood" in2="SourceGraphic" operator="out" result="composite1" id="feComposite1227"/><feGaussianBlur in="composite1" stdDeviation="10.424" result="blur" id="feGaussianBlur1229"/><feOffset dx="0" dy="0" result="offset" id="feOffset1231"/><feComposite in="offset" in2="SourceGraphic" operator="atop" result="composite2" id="feComposite1233"/></filter><filter style="color-interpolation-filters:sRGB" id="filter2302" x="-.035" y="-.047" width="1.069" height="1.094"><feFlood flood-opacity="1" flood-color="#3A3F5E" result="flood" id="feFlood2292"/><feComposite in="flood" in2="SourceGraphic" operator="out" result="composite1" id="feComposite2294"/><feGaussianBlur in="composite1" stdDeviation="6.902" result="blur" id="feGaussianBlur2296"/><feOffset dx="0" dy="0" result="offset" id="feOffset2298"/><feComposite in="offset" in2="SourceGraphic" operator="atop" result="composite2" id="feComposite2300"/></filter><filter style="color-interpolation-filters:sRGB" id="filter2970" x="-.044" y="-.044" width="1.088" height="1.088"><feFlood flood-opacity="1" flood-color="#3A3F5E" result="flood" id="feFlood2960"/><feComposite in="flood" in2="SourceGraphic" operator="out" result="composite1" id="feComposite2962"/><feGaussianBlur in="composite1" stdDeviation="6.902" result="blur" id="feGaussianBlur2964"/><feOffset dx="0" dy="0" result="offset" id="feOffset2966"/><feComposite in="offset" in2="SourceGraphic" operator="atop" result="composite2" id="feComposite2968"/></filter></defs><path d="M0 0h512v512H0z" fill="#1b1f21" fill-opacity="1" id="path15"/><style type="text/css" id="style361">.st0{fill:#000}</style><g id="g2958" style="fill:#e64539;fill-opacity:1;filter:url(#filter2970)" transform="translate(-24.255 -22.23) scale(1.0881)"><path id="path2751" style="fill:#e64539;fill-opacity:1;stroke-width:.674389" d="M256.533 232.754c-6.301 0-12.235 2.454-16.69 6.914-4.46 4.463-6.913 10.388-6.913 16.69 0 6.3 2.454 12.224 6.914 16.687l182.93 183.05c8.909 8.923 24.463 8.923 33.372 0 4.463-4.454 6.918-10.38 6.918-16.689 0-6.309-2.454-12.225-6.914-16.687L273.22 239.668c-4.454-4.46-10.385-6.914-16.687-6.914zm72.72 76.795 45.42 46.818-37.148-18.084-2.005 16.156-45.944-44.841 37.596 16.718z"/><path d="M274.588 378.393a5.892 5.892 0 0 1-4.726-1.362 5.89 5.89 0 0 1-2.055-4.473V317.87l-36.827-36.828c-6.692-6.688-10.375-15.574-10.375-25.034 0-9.46 3.683-18.345 10.375-25.031 6.68-6.691 15.566-10.374 25.03-10.374 9.466 0 18.352 3.683 25.032 10.374L303.065 253a49.727 49.727 0 0 0-.68-5.617 5.906 5.906 0 0 1 2.85-6.172l57.653-33.287a5.873 5.873 0 0 1 4.903-.453 5.924 5.924 0 0 1 3.545 3.417c5.701 14.557 8.585 29.733 8.585 45.118 0 15.39-2.892 30.58-8.59 45.118a5.866 5.866 0 0 1-3.54 3.411 5.875 5.875 0 0 1-4.903-.453l-20.677-11.93 53.84 53.84c2.567-.224 6.231-1.09 8.149-4.407 3.474-6.02-1.952-12.924-8.823-21.662-1.38-1.76-2.797-3.56-4.025-5.23a132.97 132.97 0 0 0 1.87-4.467c2.047-.314 4.308-.585 6.526-.851 11.035-1.323 19.75-2.36 21.533-9.07 1.805-6.71-5.221-11.968-14.11-18.622-1.804-1.351-3.64-2.732-5.276-4.036.237-1.58.442-3.169.624-4.763 1.9-.837 4.041-1.688 6.125-2.526 10.316-4.13 18.464-7.395 18.464-14.352 0-6.944-8.142-10.203-18.45-14.333-2.09-.838-4.226-1.689-6.13-2.527-.182-1.58-.39-3.169-.633-4.778 1.628-1.304 3.47-2.68 5.277-4.036 8.886-6.657 15.909-11.92 14.115-18.606-1.794-6.729-10.503-7.767-21.534-9.09-2.212-.265-4.478-.537-6.52-.85a155.181 155.181 0 0 0-1.875-4.478c1.227-1.67 2.645-3.47 4.03-5.235 6.863-8.727 12.287-15.619 8.81-21.62-2.598-4.508-8.433-4.508-10.351-4.508-3.694 0-8.328.662-12.81 1.304-2.224.324-4.503.649-6.568.875a159.09 159.09 0 0 0-2.917-3.825c.756-1.942 1.657-4.06 2.55-6.125 4.373-10.208 7.825-18.274 2.909-23.161-1.094-1.078-3.082-2.392-6.328-2.392-4.444 0-10.203 2.466-16.865 5.316-2.06.88-4.16 1.78-6.096 2.537a153.827 153.827 0 0 0-3.83-2.922c.229-2.075.556-4.349.874-6.58 1.581-10.999 2.827-19.692-3.18-23.132-1.214-.704-2.584-1.067-4.064-1.067-4.792 0-9.808 3.759-17.598 9.878-1.751 1.375-3.545 2.793-5.21 4.012a142.247 142.247 0 0 0-4.492-1.875c-.313-2.055-.585-4.32-.85-6.539-1.323-11.022-2.361-19.734-9.058-21.504-.5-.13-1.504-.266-2.023-.266-5.835 0-10.355 6.025-16.599 14.368-1.351 1.799-2.726 3.635-4.025 5.263a143.275 143.275 0 0 0-4.792-.632c-.838-1.9-1.689-4.036-2.526-6.12-4.13-10.329-7.387-18.477-14.345-18.477-6.938 0-10.202 8.133-14.32 18.422-.843 2.1-1.704 4.255-2.55 6.172-1.57.177-3.156.385-4.768.625-1.304-1.628-2.679-3.475-4.03-5.277-6.254-8.35-10.77-14.386-16.604-14.386-.514 0-1.518.13-2.013.266-6.72 1.794-7.761 10.503-9.08 21.539-.267 2.218-.538 4.483-.852 6.525a163.617 163.617 0 0 0-4.473 1.87c-1.67-1.233-3.474-2.65-5.24-4.035-7.784-6.12-12.805-9.874-17.583-9.874-1.476 0-2.832.353-4.06 1.056-6.014 3.47-4.768 12.145-3.193 23.127.324 2.242.648 4.539.88 6.62a159.45 159.45 0 0 0-3.812 2.908c-1.941-.756-4.06-1.657-6.125-2.55-6.667-2.85-12.426-5.31-16.87-5.31-3.235 0-5.221 1.309-6.31 2.394-4.92 4.916-1.47 12.977 2.904 23.19.885 2.071 1.794 4.184 2.555 6.125a137.07 137.07 0 0 0-2.921 3.825c-2.076-.229-4.355-.56-6.586-.874-4.492-.643-9.128-1.317-12.816-1.317-1.913 0-7.738 0-10.327 4.483-3.493 6.025 1.937 12.93 8.81 21.676 1.38 1.76 2.802 3.559 4.03 5.229a128.68 128.68 0 0 0-1.87 4.473c-2.055.314-4.32.585-6.539.85-11.03 1.323-19.74 2.361-21.514 9.047-1.823 6.728 5.21 11.992 14.11 18.654 1.798 1.351 3.64 2.732 5.268 4.03-.237 1.581-.443 3.17-.624 4.763-1.908.843-4.05 1.694-6.139 2.537-10.308 4.125-18.45 7.387-18.45 14.328 0 6.957 8.156 10.221 18.482 14.363 2.09.837 4.212 1.688 6.12 2.518.176 1.575.384 3.164.624 4.763-1.628 1.304-3.47 2.68-5.269 4.03-8.909 6.668-15.943 11.926-14.133 18.617 1.794 6.72 10.503 7.766 21.539 9.089 2.218.266 4.491.537 6.533.85a166.17 166.17 0 0 0 1.865 4.469c-1.233 1.68-2.655 3.493-4.054 5.263-6.863 8.727-12.279 15.619-8.799 21.604 2.59 4.526 8.443 4.526 10.36 4.526 3.689 0 8.32-.667 12.793-1.31 2.237-.323 4.526-.647 6.597-.88.966 1.31 1.941 2.585 2.908 3.813-.756 1.941-1.665 4.06-2.555 6.138-4.373 10.213-7.83 18.287-2.927 23.15 1.104 1.11 3.093 2.432 6.349 2.432 4.45 0 10.203-2.466 16.87-5.322 2.066-.88 4.173-1.788 6.107-2.542 1.222.967 2.49 1.936 3.817 2.916-.23 2.076-.561 4.35-.875 6.586-1.588 11.006-2.832 19.702 3.17 23.15 1.222.704 2.584 1.068 4.072 1.068 4.792 0 9.802-3.754 17.584-9.866 1.765-1.386 3.57-2.808 5.253-4.041 1.517.661 2.998 1.285 4.455 1.865.313 2.055.584 4.32.85 6.544 1.323 11.03 2.36 19.739 9.034 21.514.508.137 1.528.271 2.06.271 5.843 0 10.369-6.03 16.618-14.386 1.351-1.804 2.726-3.64 4.03-5.276 1.6.242 3.193.447 4.755.624.843 1.918 1.705 4.065 2.55 6.167 4.12 10.292 7.381 18.422 14.32 18.422 6.957 0 10.214-8.148 14.352-18.465.832-2.089 1.68-4.22 2.518-6.12 1.576-.18 3.156-.389 4.769-.623 1.304 1.622 2.684 3.474 4.04 5.281 6.25 8.343 10.76 14.376 16.6 14.376.518 0 1.522-.13 2.023-.266 6.71-1.805 7.747-10.509 9.07-21.534.265-2.218.537-4.491.85-6.533 1.48-.59 2.961-1.209 4.473-1.87 1.67 1.227 3.47 2.645 5.23 4.03 7.79 6.125 12.81 9.879 17.597 9.879 1.475 0 2.837-.353 4.065-1.062 2.85-1.651 4.036-4.515 4.354-8.208l-31.127-31.128c-12.429 6.692-25.967 11.36-40.221 13.515zm-6.78-238.936c0-1.718.747-3.351 2.054-4.473a5.954 5.954 0 0 1 4.731-1.362c30.867 4.662 58.632 20.664 78.162 45.07a5.853 5.853 0 0 1 1.19 4.78 5.895 5.895 0 0 1-2.844 4.024l-57.658 33.288a5.86 5.86 0 0 1-2.95.79 5.866 5.866 0 0 1-3.836-1.417c-4.384-3.76-9.4-6.65-14.91-8.604a5.905 5.905 0 0 1-3.93-5.559v-66.538zm-108.544 39.222c19.526-24.4 47.278-40.403 78.155-45.065a5.97 5.97 0 0 1 4.731 1.362 5.89 5.89 0 0 1 2.055 4.473v66.522a5.9 5.9 0 0 1-3.925 5.559 46.936 46.936 0 0 0-14.91 8.598 5.912 5.912 0 0 1-6.78.62l-57.659-33.283a5.905 5.905 0 0 1-2.845-4.018 5.857 5.857 0 0 1 1.18-4.768zm-13.082 126.199a5.924 5.924 0 0 1-5.498-3.754c-5.706-14.576-8.598-29.758-8.598-45.124 0-15.366 2.892-30.542 8.598-45.118a5.914 5.914 0 0 1 8.448-2.964l57.64 33.275a5.898 5.898 0 0 1 2.85 6.172c-.555 3.04-.827 5.86-.827 8.633 0 2.774.272 5.596.827 8.633a5.906 5.906 0 0 1-2.85 6.172l-57.64 33.288a5.916 5.916 0 0 1-2.95.787zm98.023 67.675c0 1.718-.748 3.35-2.055 4.473a5.912 5.912 0 0 1-4.726 1.362c-30.874-4.663-58.638-20.672-78.155-45.07a5.889 5.889 0 0 1-1.186-4.788 5.907 5.907 0 0 1 2.846-4.017l57.657-33.287a5.912 5.912 0 0 1 6.786.624c4.384 3.76 9.4 6.644 14.895 8.585a5.916 5.916 0 0 1 3.935 5.564v66.554z" id="path2761" style="fill:#e64539;fill-opacity:1;stroke-width:.674389"/></g></svg>