<svg viewBox="0 0 512 512" style="height:512px;width:512px" version="1.1" id="svg21" xml:space="preserve" xmlns="http://www.w3.org/2000/svg"><defs id="defs13"><symbol id="v" overflow="visible"><path d="M4.797-.281A3.27 3.27 0 0 1 4.03 0a3.775 3.775 0 0 1-.843.094c-.868 0-1.555-.239-2.063-.719C.613-1.113.359-1.773.359-2.609c0-.832.254-1.493.766-1.985.508-.488 1.195-.734 2.063-.734.289 0 .57.039.843.11.27.062.524.155.766.28v1.079a2.662 2.662 0 0 0-.734-.36 2.366 2.366 0 0 0-.766-.125c-.48 0-.86.156-1.14.469-.274.305-.407.726-.407 1.266 0 .542.133.968.406 1.28.282.305.66.454 1.14.454.27 0 .524-.035.767-.11.25-.082.492-.21.734-.39z" id="path1288"/></symbol><symbol id="d" overflow="visible"><path d="M3.516-2.86a1.899 1.899 0 0 0-.329-.109A1.798 1.798 0 0 0 2.86-3c-.324 0-.574.105-.75.312-.168.2-.25.493-.25.875V0H.61v-3.922h1.25v.64c.157-.25.336-.429.547-.546.207-.125.457-.188.75-.188.04 0 .086.008.14.016.052 0 .126.008.22.016z" id="path1291"/></symbol><symbol id="b" overflow="visible"><path d="M4.516-1.969v.36H1.594c.02.293.117.511.297.656.187.148.445.219.78.219.259 0 .524-.036.798-.11a4.53 4.53 0 0 0 .86-.36v.97c-.294.117-.59.199-.892.25-.293.05-.59.078-.89.078-.711 0-1.262-.176-1.656-.532C.504-.8.313-1.305.313-1.953c0-.645.19-1.149.578-1.516.382-.363.914-.547 1.593-.547.614 0 1.102.188 1.47.563.374.367.562.86.562 1.484zM3.234-2.39a.793.793 0 0 0-.218-.578.72.72 0 0 0-.547-.219.882.882 0 0 0-.594.204c-.148.136-.242.336-.281.593z" id="path1294"/></symbol><symbol id="l" overflow="visible"><path d="M2.36-1.766c-.262 0-.462.047-.594.141-.125.086-.188.215-.188.39 0 .157.05.282.156.376.102.086.25.125.438.125a.776.776 0 0 0 .594-.25.871.871 0 0 0 .25-.641v-.14zm1.921-.468V0H3.016v-.578c-.168.242-.36.414-.578.516a1.757 1.757 0 0 1-.766.156C1.266.094.938-.02.688-.25.438-.488.313-.797.313-1.172c0-.457.156-.797.468-1.015s.805-.329 1.485-.329h.75v-.093c0-.196-.078-.344-.235-.438s-.402-.14-.734-.14c-.273 0-.523.03-.75.093-.23.055-.445.133-.64.235v-.953c.257-.07.523-.125.796-.157.27-.03.54-.047.813-.047.707 0 1.219.141 1.53.422.321.274.485.727.485 1.36z" id="path1297"/></symbol><symbol id="a" overflow="visible"><path d="M1.969-5.031v1.11h1.297v.89H1.969v1.672c0 .18.035.304.11.375.07.062.218.093.437.093h.64V0H2.078c-.492 0-.84-.101-1.047-.312C.821-.52.72-.867.72-1.36v-1.672H.094v-.89h.625v-1.11z" id="path1300"/></symbol><symbol id="f" overflow="visible"><path d="M3.266-3.344v-2.11H4.53V0H3.266v-.563c-.168.23-.356.399-.563.5-.21.102-.45.157-.719.157-.492 0-.89-.188-1.203-.563C.477-.852.328-1.348.328-1.953c0-.602.149-1.098.453-1.485a1.487 1.487 0 0 1 1.203-.578c.27 0 .508.059.72.172.206.106.394.274.562.5zM2.437-.813c.27 0 .473-.093.61-.28.144-.196.219-.485.219-.86s-.075-.66-.22-.86c-.136-.195-.339-.296-.609-.296a.717.717 0 0 0-.609.296c-.137.2-.203.485-.203.86s.066.664.203.86c.145.187.348.28.61.28z" id="path1303"/></symbol><symbol id="k" overflow="visible"><path d="M2.688-.813c.269 0 .472-.093.609-.28.144-.196.219-.485.219-.86s-.075-.66-.22-.86c-.136-.195-.339-.296-.609-.296-.273 0-.48.101-.624.296-.137.2-.204.485-.204.86 0 .367.067.648.204.844.144.199.351.296.624.296zm-.829-2.53c.164-.227.352-.395.563-.5.219-.114.46-.173.734-.173.477 0 .875.196 1.188.579.312.386.469.882.469 1.484 0 .605-.157 1.102-.47 1.484-.312.375-.71.563-1.187.563-.273 0-.515-.055-.734-.156a1.501 1.501 0 0 1-.563-.5V0H.61v-5.453h1.25z" id="path1306"/></symbol><symbol id="e" overflow="visible"><path d="M.094-3.922h1.25L2.39-1.266l.906-2.656h1.25L2.89.375c-.168.438-.36.738-.578.906-.22.176-.512.266-.875.266h-.72V.719h.391c.207 0 .36-.04.454-.11.101-.062.18-.18.234-.343l.031-.11z" id="path1309"/></symbol><symbol id="j" overflow="visible"><path d="M3.828-.953h-2.11L1.392 0H.03l1.94-5.234h1.61L5.515 0h-1.36zm-1.765-.969h1.421L2.781-4z" id="path1312"/></symbol><symbol id="i" overflow="visible"><path d="M4.234-3.266c.157-.25.344-.437.563-.562s.457-.188.719-.188c.457 0 .8.141 1.03.422.24.274.36.672.36 1.203V0H5.641v-2.047a.392.392 0 0 0 .015-.094v-.14c0-.282-.043-.485-.125-.61-.086-.125-.215-.187-.39-.187a.644.644 0 0 0-.563.297c-.125.199-.195.484-.203.86V0h-1.25v-2.047c0-.437-.043-.719-.125-.844-.074-.125-.203-.187-.39-.187a.644.644 0 0 0-.563.297c-.125.199-.188.484-.188.86V0H.594v-3.922h1.265v.578c.157-.226.332-.394.532-.5.195-.113.414-.172.656-.172.27 0 .508.07.719.203.207.125.363.309.468.547z" id="path1315"/></symbol><symbol id="h" overflow="visible"><path d="M4.547-2.39V0H3.28v-1.828c0-.332-.011-.563-.031-.688a.896.896 0 0 0-.062-.296A.548.548 0 0 0 2.984-3a.545.545 0 0 0-.28-.078.715.715 0 0 0-.626.312c-.148.2-.219.48-.219.844V0H.61v-5.453h1.25v2.11c.188-.227.383-.395.594-.5.219-.114.453-.173.703-.173.457 0 .801.141 1.031.422.239.274.36.672.36 1.203z" id="path1318"/></symbol><symbol id="u" overflow="visible"><path d="M3.672-3.797v.953a4.612 4.612 0 0 0-.781-.25 2.907 2.907 0 0 0-.703-.094c-.243 0-.418.032-.532.094a.298.298 0 0 0-.172.281c0 .094.04.172.125.235.082.055.239.09.47.11l.218.03c.644.086 1.078.22 1.297.407s.328.48.328.875c0 .418-.156.73-.469.937-.305.211-.758.313-1.36.313-.26 0-.53-.024-.812-.063A4.904 4.904 0 0 1 .438-.14v-.953c.25.125.503.219.765.281.258.055.524.079.797.079.25 0 .43-.032.547-.094a.34.34 0 0 0 .187-.313.267.267 0 0 0-.125-.234c-.086-.063-.257-.11-.515-.14l-.219-.032C1.32-1.609.93-1.734.703-1.922.484-2.117.375-2.41.375-2.797c0-.414.14-.723.422-.922.281-.195.719-.297 1.312-.297.227 0 .47.024.72.063.257.031.538.086.843.156z" id="path1321"/></symbol><symbol id="t" overflow="visible"><path d="M4.297-5.063v1.11a4.56 4.56 0 0 0-.844-.297 3.438 3.438 0 0 0-.765-.094c-.325 0-.563.047-.72.14a.429.429 0 0 0-.234.407c0 .137.051.246.157.328.101.074.289.14.562.203l.578.11c.582.117.992.293 1.235.531.25.242.375.578.375 1.016 0 .574-.172 1-.516 1.28s-.867.423-1.562.423c-.336 0-.668-.032-1-.094a6.636 6.636 0 0 1-1-.266v-1.14c.332.18.656.312.968.406.313.086.614.125.907.125.289 0 .515-.047.671-.14a.478.478 0 0 0 .235-.423.443.443 0 0 0-.172-.375c-.106-.093-.313-.175-.625-.25l-.516-.109c-.53-.113-.918-.289-1.156-.531-.242-.25-.36-.582-.36-1 0-.52.165-.922.5-1.203.333-.282.817-.422 1.454-.422.289 0 .586.027.89.078.301.043.614.105.938.187z" id="path1324"/></symbol><symbol id="g" overflow="visible"><path d="M.563-1.531v-2.39h1.265v.39c0 .21-.008.476-.016.797v.64c0 .325.004.555.016.688.02.137.05.234.094.297.05.086.117.152.203.203a.596.596 0 0 0 .281.062.717.717 0 0 0 .61-.297c.156-.207.234-.488.234-.843v-1.938H4.5V0H3.25v-.562a1.75 1.75 0 0 1-.61.5 1.56 1.56 0 0 1-.687.156c-.46 0-.808-.133-1.047-.406C.676-.594.562-1 .562-1.532z" id="path1327"/></symbol><symbol id="s" overflow="visible"><path d="M.61-3.922h1.25V0H.61zm0-1.531h1.25v1.031H.61z" id="path1330"/></symbol><symbol id="c" overflow="visible"><path d="M2.469-3.125c-.281 0-.496.105-.64.313-.15.199-.22.484-.22.859s.07.664.22.86c.144.198.359.296.64.296.27 0 .476-.098.625-.297.144-.195.219-.484.219-.86s-.075-.66-.22-.859a.725.725 0 0 0-.624-.312zm0-.89c.676 0 1.203.183 1.578.546.383.367.578.871.578 1.516 0 .648-.195 1.152-.578 1.515-.375.356-.902.532-1.578.532-.68 0-1.211-.176-1.594-.532C.5-.8.312-1.305.312-1.953c0-.645.188-1.149.563-1.516.383-.363.914-.547 1.594-.547z" id="path1333"/></symbol><symbol id="r" overflow="visible"><path d="M3.188-5.453v.828h-.704c-.18 0-.304.031-.375.094-.062.062-.093.18-.093.344v.265h1.062v.89H2.016V0H.766v-3.031H.14v-.89h.625v-.266c0-.438.113-.754.343-.954.239-.207.61-.312 1.11-.312z" id="path1336"/></symbol><symbol id="q" overflow="visible"><path d="M.656-5.234h1.516l1.89 3.593v-3.593h1.282V0h-1.5L1.937-3.594V0H.657z" id="path1339"/></symbol><symbol id="p" overflow="visible"><path d="M4.547-2.39V0H3.28v-1.828c0-.332-.011-.563-.031-.688a.896.896 0 0 0-.062-.296A.548.548 0 0 0 2.984-3a.545.545 0 0 0-.28-.078.715.715 0 0 0-.626.312c-.148.2-.219.48-.219.844V0H.61v-3.922h1.25v.578c.188-.226.383-.394.594-.5.219-.113.453-.172.703-.172.457 0 .801.141 1.031.422.239.274.36.672.36 1.203z" id="path1342"/></symbol><symbol id="o" overflow="visible"><path d="M.656-5.234h2.235c.664 0 1.175.152 1.53.453.364.293.548.715.548 1.265 0 .543-.184.965-.547 1.266-.356.293-.867.437-1.531.437H2V0H.656zM2-4.25v1.453h.75c.258 0 .461-.062.61-.187.144-.125.218-.301.218-.532 0-.238-.074-.422-.219-.547-.148-.125-.351-.187-.609-.187z" id="path1345"/></symbol><symbol id="n" overflow="visible"><path d="M.61-3.922h1.25v3.86c0 .519-.133.914-.391 1.187-.25.281-.617.422-1.094.422h-.61V.719h.22C.222.719.382.664.468.563.562.457.609.25.609-.062zm0-1.531h1.25v1.031H.61z" id="path1348"/></symbol><symbol id="m" overflow="visible"><path d="M3.766-3.797v1.016a1.96 1.96 0 0 0-.516-.25 1.506 1.506 0 0 0-.531-.094c-.344 0-.617.105-.813.312-.199.211-.297.497-.297.86 0 .367.098.652.297.86.196.198.469.296.813.296.195 0 .383-.023.562-.078.176-.063.336-.148.485-.266v1.032a2.71 2.71 0 0 1-.594.156c-.2.031-.402.047-.61.047-.71 0-1.261-.176-1.656-.532C.508-.8.313-1.305.313-1.953c0-.645.195-1.149.593-1.516.395-.363.946-.547 1.656-.547.208 0 .41.024.61.063.195.031.394.086.594.156z" id="path1351"/></symbol><symbol id="q-3" overflow="visible"><path d="M29.312-1.75A20.895 20.895 0 0 1 24.578.016a21.15 21.15 0 0 1-5.11.609c-5.312 0-9.527-1.484-12.64-4.453-3.106-2.969-4.657-7-4.657-12.094s1.55-9.125 4.656-12.094c3.113-2.969 7.328-4.453 12.641-4.453 1.77 0 3.473.199 5.11.594 1.644.398 3.222.992 4.734 1.78v6.595c-1.531-1.04-3.04-1.801-4.516-2.282a14.826 14.826 0 0 0-4.671-.734c-2.938 0-5.247.945-6.922 2.828-1.68 1.875-2.516 4.465-2.516 7.766 0 3.293.836 5.882 2.516 7.765 1.675 1.875 3.984 2.813 6.922 2.813 1.632 0 3.19-.239 4.671-.719 1.477-.488 2.985-1.254 4.516-2.297z" id="path2220"/></symbol><symbol id="d-6" overflow="visible"><path d="M21.453-17.406a10.04 10.04 0 0 0-2.016-.688 8.556 8.556 0 0 0-1.984-.234c-1.969 0-3.484.633-4.547 1.89-1.055 1.262-1.578 3.071-1.578 5.423V0H3.672v-23.922h7.656V-20c.977-1.563 2.102-2.704 3.375-3.422 1.281-.72 2.813-1.078 4.594-1.078.25 0 .523.011.828.03.3.024.734.071 1.297.141z" id="path2223"/></symbol><symbol id="a-7" overflow="visible"><path d="M27.562-12.031v2.188H9.671c.188 1.792.832 3.136 1.938 4.03 1.113.9 2.671 1.344 4.671 1.344 1.602 0 3.25-.234 4.938-.703 1.687-.476 3.422-1.203 5.203-2.172v5.891A31.913 31.913 0 0 1 20.999.094a28.432 28.432 0 0 1-5.422.531c-4.336 0-7.703-1.097-10.109-3.297-2.398-2.207-3.594-5.297-3.594-9.265 0-3.906 1.176-6.973 3.532-9.203 2.363-2.239 5.609-3.36 9.734-3.36 3.758 0 6.77 1.137 9.031 3.406 2.258 2.262 3.39 5.282 3.39 9.063zm-7.86-2.531c0-1.457-.43-2.63-1.28-3.516-.844-.894-1.95-1.344-3.313-1.344-1.492 0-2.7.418-3.625 1.25-.918.836-1.492 2.04-1.719 3.61z" id="path2226"/></symbol><symbol id="c-5" overflow="visible"><path d="M14.391-10.766c-1.594 0-2.793.273-3.594.813-.804.542-1.203 1.34-1.203 2.39 0 .969.32 1.73.969 2.281.644.543 1.547.813 2.703.813 1.437 0 2.644-.516 3.625-1.547.988-1.031 1.484-2.32 1.484-3.875v-.875zm11.688-2.89V-.002h-7.703v-3.547c-1.031 1.45-2.188 2.508-3.469 3.172s-2.84 1-4.672 1c-2.48 0-4.496-.722-6.047-2.172-1.543-1.445-2.312-3.32-2.312-5.625 0-2.812.96-4.867 2.89-6.171 1.938-1.313 4.97-1.97 9.094-1.97h4.516v-.609c0-1.207-.48-2.093-1.438-2.656-.949-.562-2.437-.844-4.468-.844-1.637 0-3.157.168-4.563.5a15.698 15.698 0 0 0-3.937 1.47v-5.829a41.147 41.147 0 0 1 4.937-.906 39.87 39.87 0 0 1 4.953-.313c4.32 0 7.438.856 9.344 2.563 1.914 1.7 2.875 4.46 2.875 8.281z" id="path2229"/></symbol><symbol id="b-3" overflow="visible"><path d="M12.031-30.719v6.797h7.875v5.469h-7.875v10.14c0 1.118.219 1.872.656 2.266.438.387 1.313.578 2.625.578h3.938v5.47h-6.563C9.664 0 7.523-.63 6.265-1.89c-1.261-1.258-1.89-3.399-1.89-6.422v-10.141H.578v-5.47h3.797v-6.796z" id="path2232"/></symbol><symbol id="h-5" overflow="visible"><path d="M19.953-20.422v-12.812h7.688V0h-7.688v-3.453c-1.055 1.406-2.215 2.437-3.484 3.094-1.274.656-2.743.984-4.407.984-2.949 0-5.37-1.172-7.265-3.516C2.91-5.234 1.969-8.25 1.969-11.937s.941-6.704 2.828-9.047C6.69-23.328 9.113-24.5 12.062-24.5c1.657 0 3.118.336 4.391 1 1.281.656 2.445 1.684 3.5 3.078zM14.906-4.938c1.645 0 2.895-.598 3.75-1.797.863-1.195 1.297-2.93 1.297-5.203 0-2.281-.434-4.02-1.297-5.219-.855-1.195-2.105-1.797-3.75-1.797-1.625 0-2.871.602-3.734 1.797-.856 1.2-1.282 2.938-1.282 5.219 0 2.273.426 4.008 1.282 5.203.863 1.2 2.11 1.797 3.734 1.797z" id="path2235"/></symbol><symbol id="g-6" overflow="visible"><path d="M16.406-4.938c1.633 0 2.883-.597 3.75-1.796.863-1.196 1.297-2.93 1.297-5.204 0-2.28-.434-4.019-1.297-5.218-.867-1.196-2.117-1.797-3.75-1.797-1.637 0-2.89.605-3.766 1.812-.875 1.2-1.312 2.934-1.312 5.203 0 2.262.437 3.996 1.312 5.203.875 1.2 2.13 1.797 3.766 1.797zM11.328-20.42c1.05-1.395 2.219-2.422 3.5-3.079 1.281-.664 2.754-1 4.422-1 2.945 0 5.367 1.172 7.265 3.516 1.895 2.344 2.844 5.36 2.844 9.047s-.949 6.703-2.844 9.047C24.617-.546 22.195.625 19.25.625c-1.668 0-3.14-.336-4.422-1s-2.45-1.691-3.5-3.078V0H3.672v-33.234h7.656z" id="path2238"/></symbol><symbol id="f-2" overflow="visible"><path d="M.531-23.922h7.656L14.61-7.688l5.47-16.234h7.655L17.672 2.266c-1.011 2.664-2.195 4.523-3.547 5.578-1.343 1.063-3.12 1.594-5.328 1.594H4.375V4.422h2.391c1.3 0 2.242-.21 2.828-.625.594-.406 1.055-1.148 1.39-2.219l.204-.656z" id="path2241"/></symbol><symbol id="e-9" overflow="visible"><path d="M15.703-17.75c1.719 0 2.953-.316 3.703-.953.75-.645 1.125-1.703 1.125-3.172 0-1.445-.375-2.484-1.125-3.11-.75-.632-1.984-.953-3.703-.953h-3.469v8.188zm-3.469 5.688v12.06H4.015v-31.89h12.562c4.196 0 7.274.703 9.235 2.109 1.957 1.406 2.937 3.637 2.937 6.687 0 2.106-.511 3.836-1.53 5.188-1.013 1.355-2.544 2.355-4.595 3 1.125.25 2.13.828 3.016 1.734.894.907 1.797 2.278 2.703 4.11l4.469 9.062h-8.766l-3.875-7.922c-.793-1.593-1.59-2.68-2.39-3.265-.805-.582-1.875-.875-3.22-.875z" id="path2244"/></symbol><symbol id="p-1" overflow="visible"><path d="M3.672-33.234h7.656V0H3.672z" id="path2247"/></symbol><symbol id="o-2" overflow="visible"><path d="M19.422-33.234v5.016h-4.234c-1.086 0-1.84.199-2.266.593-.43.387-.64 1.063-.64 2.032v1.671h6.53v5.47h-6.53V0H4.64v-18.453H.828v-5.469h3.813v-1.671c0-2.602.722-4.524 2.172-5.766 1.457-1.25 3.707-1.875 6.75-1.875z" id="path2250"/></symbol><symbol id="n-7" overflow="visible"><path d="M26.219-30.891v6.75a29.845 29.845 0 0 0-5.14-1.766c-1.669-.406-3.243-.609-4.72-.609-1.96 0-3.414.273-4.359.813-.937.542-1.406 1.386-1.406 2.53 0 .856.316 1.524.953 2 .633.47 1.785.876 3.453 1.22l3.5.703c3.54.718 6.063 1.804 7.563 3.25 1.5 1.449 2.25 3.511 2.25 6.187 0 3.524-1.047 6.14-3.14 7.86C23.085-.235 19.898.625 15.61.625A32.97 32.97 0 0 1 9.516.047a36.704 36.704 0 0 1-6.094-1.72V-8.61c2.031 1.086 3.992 1.903 5.89 2.453 1.907.543 3.743.813 5.516.813 1.79 0 3.16-.297 4.11-.89.957-.602 1.437-1.458 1.437-2.563 0-1-.324-1.77-.969-2.313-.648-.539-1.937-1.023-3.875-1.453l-3.187-.703c-3.188-.688-5.524-1.773-7-3.266-1.469-1.5-2.203-3.515-2.203-6.047 0-3.175 1.023-5.617 3.078-7.328 2.05-1.707 5-2.562 8.844-2.562 1.75 0 3.55.133 5.406.39 1.851.262 3.77.657 5.75 1.188z" id="path2253"/></symbol><symbol id="m-0" overflow="visible"><path d="M23-23.172v6.234c-1.031-.718-2.074-1.242-3.125-1.578a10.31 10.31 0 0 0-3.25-.515c-2.137 0-3.805.625-5 1.875-1.188 1.242-1.781 2.98-1.781 5.218 0 2.231.594 3.97 1.781 5.22 1.195 1.25 2.863 1.874 5 1.874 1.195 0 2.332-.175 3.406-.531A10.2 10.2 0 0 0 23-6.969v6.266a21.168 21.168 0 0 1-3.64.984 20.383 20.383 0 0 1-3.704.344c-4.312 0-7.687-1.11-10.125-3.328S1.875-8 1.875-11.938c0-3.945 1.219-7.023 3.656-9.234C7.97-23.39 11.344-24.5 15.656-24.5c1.25 0 2.485.11 3.703.328s2.43.555 3.641 1z" id="path2256"/></symbol><symbol id="l-9" overflow="visible"><path d="M27.734-14.562V0h-7.703v-11.109c0-2.094-.047-3.531-.14-4.313-.087-.78-.243-1.359-.47-1.734a3.15 3.15 0 0 0-1.218-1.156c-.512-.281-1.094-.422-1.75-.422-1.594 0-2.852.617-3.766 1.844-.906 1.23-1.36 2.937-1.36 5.125V0H3.673v-33.234h7.656v12.812c1.144-1.395 2.363-2.422 3.656-3.078 1.3-.664 2.738-1 4.312-1 2.758 0 4.852.851 6.282 2.547 1.437 1.687 2.156 4.152 2.156 7.39z" id="path2259"/></symbol><symbol id="k-3" overflow="visible"><path d="M25.844-19.953c.969-1.477 2.117-2.602 3.453-3.375 1.332-.781 2.797-1.172 4.39-1.172 2.75 0 4.845.852 6.282 2.547 1.437 1.688 2.156 4.152 2.156 7.39V0h-7.687v-12.47c.007-.187.02-.378.03-.578.009-.195.016-.484.016-.859 0-1.695-.25-2.926-.75-3.687-.5-.758-1.308-1.141-2.421-1.141-1.45 0-2.57.602-3.36 1.797-.793 1.2-1.203 2.93-1.234 5.187V0H19.03v-12.47c0-2.656-.23-4.363-.687-5.125-.45-.757-1.258-1.14-2.422-1.14-1.469 0-2.606.605-3.406 1.812-.793 1.2-1.188 2.918-1.188 5.156V0H3.625v-23.922h7.703v3.5c.938-1.352 2.016-2.368 3.235-3.047 1.218-.688 2.554-1.032 4.015-1.032 1.656 0 3.113.403 4.375 1.204 1.27.792 2.235 1.906 2.89 3.343z" id="path2262"/></symbol><symbol id="j-6" overflow="visible"><path d="M3.672-23.922h7.656V0H3.672zm0-9.313h7.656V-27H3.672z" id="path2265"/></symbol><symbol id="i-0" overflow="visible"><path d="M2.5-23.922h20.875v5.344L10.766-5.47h12.609V0H1.969v-5.344l12.594-13.11H2.501z" id="path2268"/></symbol><symbol id="w" overflow="visible"><path d="M18.766-1.125c-.969.5-1.98.875-3.031 1.125a13.62 13.62 0 0 1-3.281.39c-3.399 0-6.09-.945-8.079-2.843-1.992-1.906-2.984-4.485-2.984-7.735 0-3.257.992-5.835 2.984-7.734 1.989-1.906 4.68-2.86 8.079-2.86 1.144 0 2.238.133 3.28.391 1.052.25 2.063.625 3.032 1.125v4.219c-.98-.656-1.945-1.14-2.89-1.453a9.532 9.532 0 0 0-3-.469c-1.876 0-3.352.606-4.423 1.813-1.074 1.199-1.609 2.855-1.609 4.968 0 2.106.535 3.762 1.61 4.97C9.523-4.02 11-3.423 12.874-3.423a9.743 9.743 0 0 0 3-.453c.946-.312 1.91-.8 2.891-1.469z" id="path2843"/></symbol><symbol id="d-62" overflow="visible"><path d="M13.734-11.141a6.765 6.765 0 0 0-1.297-.438 5.346 5.346 0 0 0-1.265-.156c-1.262 0-2.231.406-2.907 1.219-.68.805-1.015 1.953-1.015 3.453V0H2.36v-15.312h4.89v2.515c.625-1 1.344-1.726 2.156-2.187.82-.469 1.8-.703 2.937-.703.164 0 .344.011.532.03.195.013.476.04.843.079z" id="path2846"/></symbol><symbol id="a-6" overflow="visible"><path d="M17.641-7.703v1.406H6.188c.125 1.148.54 2.008 1.25 2.578.707.574 1.703.86 2.984.86a11.52 11.52 0 0 0 3.157-.454 16.707 16.707 0 0 0 3.328-1.39v3.765a20.629 20.629 0 0 1-3.47.985A18.006 18.006 0 0 1 9.97.39C7.196.39 5.04-.313 3.5-1.72 1.97-3.125 1.203-5.098 1.203-7.64c0-2.5.754-4.46 2.266-5.89 1.508-1.438 3.582-2.157 6.219-2.157 2.406 0 4.332.731 5.781 2.188 1.445 1.45 2.172 3.383 2.172 5.797zM12.61-9.328c0-.926-.274-1.672-.813-2.234-.543-.57-1.25-.86-2.125-.86-.949 0-1.719.266-2.312.797s-.965 1.297-1.11 2.297z" id="path2849"/></symbol><symbol id="h-1" overflow="visible"><path d="M9.219-6.89c-1.024 0-1.793.171-2.313.515-.511.344-.765.855-.765 1.531 0 .625.207 1.117.625 1.469.414.344.988.516 1.718.516.926 0 1.704-.328 2.329-.985.632-.664.953-1.492.953-2.484v-.563zm7.469-1.844V0h-4.922v-2.266c-.657.93-1.399 1.606-2.22 2.032-.823.414-1.823.625-3 .625-1.585 0-2.87-.457-3.859-1.375-.992-.926-1.484-2.13-1.484-3.61 0-1.789.613-3.101 1.844-3.937 1.238-.844 3.18-1.266 5.828-1.266h2.89v-.39c0-.77-.308-1.333-.921-1.688-.617-.363-1.57-.547-2.86-.547-1.054 0-2.03.106-2.937.313-.899.21-1.73.523-2.5.937v-3.734a29.612 29.612 0 0 1 3.14-.578 25.68 25.68 0 0 1 3.188-.204c2.758 0 4.75.547 5.969 1.641 1.226 1.086 1.844 2.856 1.844 5.313z" id="path2852"/></symbol><symbol id="b-8" overflow="visible"><path d="M7.703-19.656v4.344h5.047v3.5H7.703v6.5c0 .71.14 1.187.422 1.437s.836.375 1.672.375h2.515V0H8.125C6.187 0 4.812-.398 4-1.203c-.805-.812-1.203-2.18-1.203-4.11v-6.5H.375v-3.5h2.422v-4.343z" id="path2855"/></symbol><symbol id="g-7" overflow="visible"><path d="M12.766-13.078v-8.203h4.922v21.28h-4.922v-2.218c-.668.906-1.406 1.57-2.219 1.985S8.79.39 7.72.39c-1.887 0-3.434-.75-4.64-2.25-1.211-1.5-1.813-3.426-1.813-5.782 0-2.363.602-4.297 1.812-5.797 1.207-1.5 2.754-2.25 4.641-2.25 1.063 0 2 .215 2.813.641.82.43 1.566 1.086 2.234 1.969zM9.547-3.156c1.04 0 1.836-.379 2.39-1.14.552-.77.829-1.883.829-3.344 0-1.457-.277-2.567-.828-3.329-.555-.77-1.352-1.156-2.39-1.156-1.044 0-1.84.387-2.391 1.156-.555.762-.829 1.872-.829 3.329 0 1.46.274 2.574.829 3.343.55.762 1.347 1.14 2.39 1.14z" id="path2858"/></symbol><symbol id="l-92" overflow="visible"><path d="M10.5-3.156c1.05 0 1.852-.38 2.406-1.14.551-.77.828-1.884.828-3.345 0-1.457-.277-2.566-.828-3.328-.554-.77-1.355-1.156-2.406-1.156-1.055 0-1.86.387-2.422 1.156-.555.774-.828 1.883-.828 3.328 0 1.45.273 2.559.828 3.329.563.773 1.367 1.156 2.422 1.156zm-3.25-9.922c.676-.883 1.422-1.54 2.234-1.969.82-.426 1.766-.64 2.829-.64 1.894 0 3.445.75 4.656 2.25 1.207 1.5 1.812 3.433 1.812 5.796 0 2.356-.605 4.282-1.812 5.782C15.758-.36 14.207.39 12.312.39c-1.062 0-2.007-.21-2.828-.624C8.672-.66 7.926-1.32 7.25-2.22V0H2.36v-21.281h4.89z" id="path2861"/></symbol><symbol id="f-0" overflow="visible"><path d="M.344-15.312h4.89L9.36-4.921l3.5-10.391h4.89L11.313 1.454c-.648 1.695-1.402 2.883-2.265 3.562-.867.688-2 1.032-3.406 1.032H2.797v-3.22h1.531c.832 0 1.438-.136 1.813-.405.382-.262.68-.73.89-1.407l.14-.421z" id="path2864"/></symbol><symbol id="k-2" overflow="visible"><path d="M16.781-19.766v4.313a18.502 18.502 0 0 0-3.297-1.125c-1.062-.258-2.07-.391-3.016-.391-1.25 0-2.18.18-2.78.531-.606.344-.907.883-.907 1.61 0 .543.203.968.61 1.28.406.305 1.14.563 2.203.782l2.25.453c2.269.45 3.878 1.14 4.828 2.078.957.93 1.437 2.246 1.437 3.953 0 2.25-.668 3.93-2 5.032C14.773-.157 12.738.39 10 .39 8.696.39 7.395.265 6.095.015a23.383 23.383 0 0 1-3.907-1.078v-4.453c1.301.7 2.563 1.227 3.782 1.578 1.218.344 2.39.516 3.515.516 1.156 0 2.035-.188 2.64-.563.614-.383.923-.937.923-1.656 0-.633-.211-1.125-.625-1.469-.418-.344-1.246-.656-2.485-.937l-2.031-.438c-2.043-.437-3.54-1.133-4.484-2.094-.938-.957-1.407-2.25-1.407-3.875 0-2.03.657-3.593 1.97-4.687s3.195-1.64 5.655-1.64c1.125 0 2.274.085 3.454.25 1.187.167 2.414.421 3.687.765z" id="path2867"/></symbol><symbol id="v-3" overflow="visible"><path d="M7.25-2.219v8.047H2.36v-21.14h4.89v2.234c.676-.883 1.422-1.54 2.234-1.97.82-.425 1.766-.64 2.829-.64 1.894 0 3.445.75 4.656 2.25 1.207 1.5 1.812 3.434 1.812 5.797 0 2.355-.605 4.281-1.812 5.781C15.758-.36 14.207.39 12.312.39c-1.062 0-2.007-.21-2.828-.625C8.672-.66 7.926-1.32 7.25-2.219zm3.25-9.906c-1.055 0-1.86.387-2.422 1.156-.555.774-.828 1.883-.828 3.328 0 1.45.273 2.559.828 3.328.563.774 1.367 1.157 2.422 1.157 1.05 0 1.852-.38 2.406-1.141.551-.77.828-1.883.828-3.344 0-1.457-.277-2.566-.828-3.328-.554-.77-1.355-1.156-2.406-1.156z" id="path2870"/></symbol><symbol id="j-7" overflow="visible"><path d="M17.75-9.328V0h-4.922v-7.11c0-1.343-.031-2.265-.094-2.765s-.168-.867-.312-1.11a1.994 1.994 0 0 0-.781-.734 2.295 2.295 0 0 0-1.11-.265c-1.023 0-1.824.398-2.406 1.187-.586.781-.875 1.871-.875 3.266v7.53H2.36v-21.28h4.89v8.203c.738-.883 1.52-1.54 2.344-1.969.832-.426 1.75-.64 2.75-.64 1.77 0 3.113.546 4.031 1.64.914 1.086 1.375 2.656 1.375 4.719z" id="path2873"/></symbol><symbol id="c-59" overflow="visible"><path d="M17.75-9.328V0h-4.922v-7.14c0-1.32-.031-2.235-.094-2.735s-.168-.867-.312-1.11a1.994 1.994 0 0 0-.781-.734 2.295 2.295 0 0 0-1.11-.265c-1.023 0-1.824.398-2.406 1.187-.586.781-.875 1.871-.875 3.266v7.53H2.36v-15.311h4.89v2.234c.738-.883 1.52-1.539 2.344-1.969a5.962 5.962 0 0 1 2.75-.64c1.77 0 3.113.547 4.031 1.64.914 1.086 1.375 2.657 1.375 4.72z" id="path2876"/></symbol><symbol id="u-2" overflow="visible"><path d="M2.578-20.406h5.25v18.422c0 2.54-.695 4.441-2.078 5.703C4.375 4.977 2.29 5.61-.5 5.61h-1.078V1.626h.828c1.094 0 1.922-.308 2.484-.922.563-.605.844-1.5.844-2.687z" id="path2879"/></symbol><symbol id="i-2" overflow="visible"><path d="M16.547-12.766c.613-.945 1.348-1.672 2.203-2.172.852-.5 1.79-.75 2.813-.75 1.757 0 3.097.547 4.015 1.64.926 1.087 1.39 2.657 1.39 4.72V0h-4.921v-8.345c.008-.132.016-.32.016-.562 0-1.082-.165-1.863-.485-2.343-.312-.489-.824-.735-1.531-.735-.93 0-1.648.387-2.156 1.156-.512.762-.774 1.868-.782 3.313v7.515h-4.921v-7.984c0-1.695-.149-2.785-.438-3.266-.293-.488-.812-.734-1.562-.734-.938 0-1.665.387-2.172 1.156-.512.762-.766 1.86-.766 3.297V0H2.328v-15.312H7.25v2.235c.602-.864 1.29-1.516 2.063-1.953a5.186 5.186 0 0 1 2.578-.657c1.062 0 2 .258 2.812.766.813.512 1.426 1.23 1.844 2.156z" id="path2882"/></symbol><symbol id="t-8" overflow="visible"><path d="M14.312-14.828v3.719a18.075 18.075 0 0 0-3.031-.985 12.73 12.73 0 0 0-2.766-.328c-.93 0-1.62.117-2.078.344-.45.23-.672.59-.672 1.078 0 .387.172.684.516.89.344.212.957.368 1.844.47l.859.125c2.508.324 4.195.851 5.063 1.578.863.73 1.296 1.87 1.296 3.422 0 1.636-.605 2.867-1.812 3.687-1.2.813-2.992 1.219-5.375 1.219A22.104 22.104 0 0 1 5 .156a25.26 25.26 0 0 1-3.313-.718v-3.72c.969.481 1.961.84 2.985 1.079 1.03.23 2.078.344 3.14.344.957 0 1.676-.13 2.156-.39.477-.27.72-.665.72-1.188 0-.438-.169-.758-.5-.97-.337-.218-.997-.382-1.985-.5l-.86-.109c-2.18-.269-3.703-.773-4.578-1.515-.875-.738-1.312-1.86-1.312-3.36 0-1.625.55-2.828 1.656-3.609 1.113-.789 2.82-1.187 5.125-1.187.895 0 1.836.074 2.828.218 1 .137 2.082.352 3.25.641z" id="path2885"/></symbol><symbol id="s-9" overflow="visible"><path d="M2.578-20.406h5.25v7.438l7.594-7.438h6.11l-9.829 9.656L22.547 0h-6.594L7.828-8.047V0h-5.25z" id="path2888"/></symbol><symbol id="r-7" overflow="visible"><path d="M12.422-21.281v3.219H9.719c-.688 0-1.172.125-1.453.375-.274.25-.406.687-.406 1.312v1.063h4.187v3.5H7.86V0H2.969v-11.812H.531v-3.5H2.97v-1.063c0-1.664.46-2.898 1.39-3.703.926-.8 2.368-1.203 4.329-1.203z" id="path2891"/></symbol><symbol id="e-3" overflow="visible"><path d="M9.64-12.188c-1.085 0-1.914.39-2.484 1.172-.574.781-.86 1.906-.86 3.375s.286 2.594.86 3.375c.57.773 1.399 1.156 2.485 1.156 1.062 0 1.875-.383 2.437-1.156.57-.781.86-1.906.86-3.375s-.29-2.594-.86-3.375c-.562-.781-1.375-1.172-2.437-1.172zm0-3.5c2.633 0 4.692.715 6.172 2.14 1.477 1.419 2.22 3.387 2.22 5.907 0 2.512-.743 4.48-2.22 5.906C14.333-.317 12.274.39 9.642.39c-2.649 0-4.715-.707-6.203-2.125-1.493-1.426-2.235-3.394-2.235-5.906 0-2.52.742-4.488 2.235-5.906 1.488-1.426 3.554-2.141 6.203-2.141z" id="path2894"/></symbol><symbol id="q-6" overflow="visible"><path d="M2.578-20.406h5.875l7.422 14v-14h4.984V0h-5.875L7.563-14V0H2.578z" id="path2897"/></symbol><symbol id="p-12" overflow="visible"><path d="M2.188-5.969v-9.344h4.921v1.532c0 .836-.007 1.875-.015 3.125-.012 1.25-.016 2.086-.016 2.5 0 1.242.031 2.132.094 2.672.07.542.18.933.328 1.171.207.325.473.575.797.75.32.168.691.25 1.11.25 1.019 0 1.82-.39 2.406-1.171.582-.782.875-1.868.875-3.266v-7.563h4.89V0h-4.89v-2.218c-.743.898-1.524 1.558-2.344 1.984C9.519.179 8.609.39 7.609.39c-1.761 0-3.105-.54-4.03-1.625-.93-1.082-1.391-2.66-1.391-4.734z" id="path2900"/></symbol><symbol id="o-9" overflow="visible"><path d="M2.578-20.406h8.735c2.593 0 4.581.578 5.968 1.734 1.395 1.149 2.094 2.79 2.094 4.922 0 2.137-.7 3.782-2.094 4.938-1.386 1.156-3.375 1.734-5.968 1.734H7.828V0h-5.25zm5.25 3.813v5.703h2.922c1.02 0 1.805-.25 2.36-.75.562-.5.843-1.203.843-2.11 0-.914-.281-1.617-.844-2.11-.554-.487-1.34-.734-2.359-.734z" id="path2903"/></symbol><symbol id="n-3" overflow="visible"><path d="M2.36-15.312h4.89V-.281c0 2.05-.496 3.617-1.484 4.703-.98 1.082-2.407 1.625-4.282 1.625H-.937V2.828h.859c.926 0 1.562-.21 1.906-.625.352-.418.531-1.246.531-2.484zm0-5.969h4.89v4H2.36z" id="path2906"/></symbol><symbol id="m-1" overflow="visible"><path d="M14.719-14.828v3.984a7.612 7.612 0 0 0-2-1.015 6.629 6.629 0 0 0-2.078-.328c-1.367 0-2.434.402-3.203 1.203-.762.793-1.14 1.906-1.14 3.344 0 1.43.378 2.543 1.14 3.343.77.793 1.836 1.188 3.203 1.188.758 0 1.484-.11 2.172-.328a6.412 6.412 0 0 0 1.906-1.016v4a13.31 13.31 0 0 1-2.328.625 13.04 13.04 0 0 1-2.375.219C7.254.39 5.094-.316 3.53-1.734 1.977-3.148 1.203-5.117 1.203-7.64c0-2.531.774-4.504 2.328-5.922 1.563-1.414 3.723-2.125 6.485-2.125.8 0 1.594.074 2.375.219.781.136 1.555.351 2.328.64z" id="path2909"/></symbol><filter id="shadow-1" height="1.217" width="1.152" x="-.076" y="-.108"><feFlood flood-color="rgba(58, 63, 94, 1)" result="flood" id="feFlood2"/><feComposite in="flood" in2="SourceGraphic" operator="out" result="composite" id="feComposite4"/><feGaussianBlur in="composite" stdDeviation="15" result="blur" id="feGaussianBlur6"/><feOffset dx="0" dy="0" result="offset" id="feOffset8"/><feComposite in2="SourceGraphic" in="offset" operator="atop" id="feComposite10"/></filter><filter id="shadow-1-5" height="1.154" width="1.184" x="-.092" y="-.077"><feFlood flood-color="rgba(58, 63, 94, 1)" result="flood" id="feFlood2-3"/><feComposite in="flood" in2="SourceGraphic" operator="out" result="composite" id="feComposite4-5"/><feGaussianBlur in="composite" stdDeviation="15" result="blur" id="feGaussianBlur6-6"/><feOffset dx="0" dy="0" result="offset" id="feOffset8-2"/><feComposite in2="SourceGraphic" in="offset" operator="atop" id="feComposite10-9"/></filter><filter style="color-interpolation-filters:sRGB" id="filter1251" x="-.06" y="-.06" width="1.12" height="1.12"><feFlood flood-opacity="1" flood-color="#3A3F5E" result="flood" id="feFlood1241"/><feComposite in="flood" in2="SourceGraphic" operator="out" result="composite1" id="feComposite1243"/><feGaussianBlur in="composite1" stdDeviation=".8" result="blur" id="feGaussianBlur1245"/><feOffset dx="0" dy="0" result="offset" id="feOffset1247"/><feComposite in="offset" in2="SourceGraphic" operator="atop" result="composite2" id="feComposite1249"/></filter><filter style="color-interpolation-filters:sRGB" id="filter1501" x="-.064" y="-.076" width="1.129" height="1.151"><feFlood flood-opacity="1" flood-color="#3A3F5E" result="flood" id="feFlood1491"/><feComposite in="flood" in2="SourceGraphic" operator="out" result="composite1" id="feComposite1493"/><feGaussianBlur in="composite1" stdDeviation="11.491" result="blur" id="feGaussianBlur1495"/><feOffset dx="0" dy="0" result="offset" id="feOffset1497"/><feComposite in="offset" in2="SourceGraphic" operator="atop" result="composite2" id="feComposite1499"/></filter><filter style="color-interpolation-filters:sRGB" id="filter1235" x="-.893" y="-1.088" width="2.787" height="3.175"><feFlood flood-opacity="1" flood-color="#3A3F5E" result="flood" id="feFlood1225"/><feComposite in="flood" in2="SourceGraphic" operator="out" result="composite1" id="feComposite1227"/><feGaussianBlur in="composite1" stdDeviation="10.424" result="blur" id="feGaussianBlur1229"/><feOffset dx="0" dy="0" result="offset" id="feOffset1231"/><feComposite in="offset" in2="SourceGraphic" operator="atop" result="composite2" id="feComposite1233"/></filter><filter style="color-interpolation-filters:sRGB" id="filter1617" x="-.035" y="-.058" width="1.071" height="1.115"><feFlood flood-opacity="1" flood-color="#3A3F5E" result="flood" id="feFlood1607"/><feComposite in="flood" in2="SourceGraphic" operator="out" result="composite1" id="feComposite1609"/><feGaussianBlur in="composite1" stdDeviation="6.902" result="blur" id="feGaussianBlur1611"/><feOffset dx="0" dy="0" result="offset" id="feOffset1613"/><feComposite in="offset" in2="SourceGraphic" operator="atop" result="composite2" id="feComposite1615"/></filter><filter style="color-interpolation-filters:sRGB" id="filter982" x="-.052" y="-.087" width="1.105" height="1.175"><feFlood flood-opacity="1" flood-color="#3A3F5E" result="flood" id="feFlood972"/><feComposite in="flood" in2="SourceGraphic" operator="out" result="composite1" id="feComposite974"/><feGaussianBlur in="composite1" stdDeviation="10.372" result="blur" id="feGaussianBlur976"/><feOffset dx="0" dy="0" result="offset" id="feOffset978"/><feComposite in="offset" in2="SourceGraphic" operator="atop" result="composite2" id="feComposite980"/></filter><filter style="color-interpolation-filters:sRGB" id="filter1737" x="-.049" y="-.171" width="1.098" height="1.342"><feFlood flood-opacity="1" flood-color="#3A3F5E" result="flood" id="feFlood1727"/><feComposite in="flood" in2="SourceGraphic" operator="out" result="composite1" id="feComposite1729"/><feGaussianBlur in="composite1" stdDeviation="26.157" result="blur" id="feGaussianBlur1731"/><feOffset dx="0" dy="0" result="offset" id="feOffset1733"/><feComposite in="offset" in2="SourceGraphic" operator="atop" result="composite2" id="feComposite1735"/></filter><filter style="color-interpolation-filters:sRGB" id="filter2473" x="-.071" y="-.071" width="1.142" height="1.142"><feFlood flood-opacity="1" flood-color="#3A3F5E" result="flood" id="feFlood2463"/><feComposite in="flood" in2="SourceGraphic" operator="out" result="composite1" id="feComposite2465"/><feGaussianBlur in="composite1" stdDeviation="17.344" result="blur" id="feGaussianBlur2467"/><feOffset dx="0" dy="0" result="offset" id="feOffset2469"/><feComposite in="offset" in2="SourceGraphic" operator="atop" result="composite2" id="feComposite2471"/></filter><filter style="color-interpolation-filters:sRGB" id="filter3266" x="-.031" y="-.038" width="1.062" height="1.076"><feFlood flood-opacity="1" flood-color="#3A3F5E" result="flood" id="feFlood3256"/><feComposite in="flood" in2="SourceGraphic" operator="out" result="composite1" id="feComposite3258"/><feGaussianBlur in="composite1" stdDeviation="5.859" result="blur" id="feGaussianBlur3260"/><feOffset dx="0" dy="0" result="offset" id="feOffset3262"/><feComposite in="offset" in2="SourceGraphic" operator="atop" result="composite2" id="feComposite3264"/></filter></defs><path d="M0 0h512v512H0z" fill="#1b1f21" fill-opacity="1" id="path15"/><style type="text/css" id="style361">.st0{fill:#000}</style><g id="g3182" transform="matrix(-1 0 0 1 512.85 -23.069)" style="fill:#e64539;fill-opacity:1;filter:url(#filter3266)"><path d="M417.544 320.516c-4.248 0-7.926.411-11.951 1.16-26.338-84.697-16.254-79.157-66.511-79.634v13.539c36.552-.07 30.293-4.548 38.228 27.434H259.504l-4.611-13.711c26.407-5.852 33.735-4.564 28.52-13.701h-58.556v12.939l15.308.287 4.34 12.678c-6.03 13.417-36.806 81.021-46.794 104.564l-33.659.108c-4.15-33.623-32.795-59.675-67.543-59.675-37.598 0-68.095 30.484-68.095 68.082 0 37.598 30.472 69.073 68.073 69.073 35.832.007 65.127-29.869 67.804-61.852h33.403c5.303 0 19.19-.095 56.3-.127 0 0 16.776-.434 17.028-.434 53.332-2.116 16.155 14.584 115.26-89.951 1.705 5.29 3.286 10.119 4.755 14.753-24.222 10.329-41.24 34.32-41.24 62.272 0 37.355 30.392 67.715 67.747 67.715 37.362 0 67.744-30.408 67.744-67.764 0-37.345-30.389-67.753-67.744-67.753zM96.476 446.962c-28.875 0-52.37-23.495-52.37-52.37 0-28.875 23.495-52.37 52.37-52.37 26.025 0 47.618 19.107 51.64 44.016l-53.402.182c-3.857.01-6.974 4.232-6.964 8.086.01 3.846 3.133 7.301 6.98 7.301h.019l53.832-1c-2.633 26.43-24.996 46.154-52.105 46.154zM259.8 388.056c-1.032-.66-2.208.045-3.486.045h-.02l-43.117-.972 38.363-85.554 32.709 86.125zm38.959-3.024-33.32-89.528 115.284.208zm118.785 55.126c-28.62 0-51.898-23.285-51.898-51.898 0-20.872 12.392-38.892 30.201-47.114 16.856 53.718 15.333 52.603 22.077 53.285 3.764-.255 6.757-3.194 6.68-6.903-.102-4.402 1.877 1.539-14.647-50.589a51.4 51.4 0 0 1 7.588-.567c28.62 0 51.898 23.278 51.898 51.889 0 28.616-23.282 51.898-51.898 51.898z" id="path2914" style="fill:#e64539;fill-opacity:1;stroke-width:.815885"/><path d="M185.54 359.714c.008.007.015.02.024.025l10.356-9.365c-46.306-51.197-37.392-80.896-32.068-98.643 2.446-8.164 4.762-15.871-1.266-21.678l-55.345-47.409-23.853 64.203z" id="path2916" style="fill:#e64539;fill-opacity:1;stroke-width:.815885"/><path d="m165.85 150.677 2.827 67.07c.094 2.312 169.08 5.494 169.08 5.494s65.714-42.21 94.891-61.984l.52.28-43.24-38.692-232.294-28.367-41.984 77.804 25.345 22.328zm19.734 36.298 27.298-55.033 55.88 2.957zm62.816 5.988 43.787-53.567 60.159 2.656z" id="path2918" style="fill:#e64539;fill-opacity:1;stroke-width:.815885"/></g></svg>