<svg viewBox="0 0 512 512" style="height:512px;width:512px" version="1.1" id="svg21" xml:space="preserve" xmlns="http://www.w3.org/2000/svg"><defs id="defs13"><symbol id="v" overflow="visible"><path d="M4.797-.281A3.27 3.27 0 0 1 4.03 0a3.775 3.775 0 0 1-.843.094c-.868 0-1.555-.239-2.063-.719C.613-1.113.359-1.773.359-2.609c0-.832.254-1.493.766-1.985.508-.488 1.195-.734 2.063-.734.289 0 .57.039.843.11.27.062.524.155.766.28v1.079a2.662 2.662 0 0 0-.734-.36 2.366 2.366 0 0 0-.766-.125c-.48 0-.86.156-1.14.469-.274.305-.407.726-.407 1.266 0 .542.133.968.406 1.28.282.305.66.454 1.14.454.27 0 .524-.035.767-.11.25-.082.492-.21.734-.39z" id="path1288"/></symbol><symbol id="d" overflow="visible"><path d="M3.516-2.86a1.899 1.899 0 0 0-.329-.109A1.798 1.798 0 0 0 2.86-3c-.324 0-.574.105-.75.312-.168.2-.25.493-.25.875V0H.61v-3.922h1.25v.64c.157-.25.336-.429.547-.546.207-.125.457-.188.75-.188.04 0 .086.008.14.016.052 0 .126.008.22.016z" id="path1291"/></symbol><symbol id="b" overflow="visible"><path d="M4.516-1.969v.36H1.594c.02.293.117.511.297.656.187.148.445.219.78.219.259 0 .524-.036.798-.11a4.53 4.53 0 0 0 .86-.36v.97c-.294.117-.59.199-.892.25-.293.05-.59.078-.89.078-.711 0-1.262-.176-1.656-.532C.504-.8.313-1.305.313-1.953c0-.645.19-1.149.578-1.516.382-.363.914-.547 1.593-.547.614 0 1.102.188 1.47.563.374.367.562.86.562 1.484zM3.234-2.39a.793.793 0 0 0-.218-.578.72.72 0 0 0-.547-.219.882.882 0 0 0-.594.204c-.148.136-.242.336-.281.593z" id="path1294"/></symbol><symbol id="l" overflow="visible"><path d="M2.36-1.766c-.262 0-.462.047-.594.141-.125.086-.188.215-.188.39 0 .157.05.282.156.376.102.086.25.125.438.125a.776.776 0 0 0 .594-.25.871.871 0 0 0 .25-.641v-.14zm1.921-.468V0H3.016v-.578c-.168.242-.36.414-.578.516a1.757 1.757 0 0 1-.766.156C1.266.094.938-.02.688-.25.438-.488.313-.797.313-1.172c0-.457.156-.797.468-1.015s.805-.329 1.485-.329h.75v-.093c0-.196-.078-.344-.235-.438s-.402-.14-.734-.14c-.273 0-.523.03-.75.093-.23.055-.445.133-.64.235v-.953c.257-.07.523-.125.796-.157.27-.03.54-.047.813-.047.707 0 1.219.141 1.53.422.321.274.485.727.485 1.36z" id="path1297"/></symbol><symbol id="a" overflow="visible"><path d="M1.969-5.031v1.11h1.297v.89H1.969v1.672c0 .18.035.304.11.375.07.062.218.093.437.093h.64V0H2.078c-.492 0-.84-.101-1.047-.312C.821-.52.72-.867.72-1.36v-1.672H.094v-.89h.625v-1.11z" id="path1300"/></symbol><symbol id="f" overflow="visible"><path d="M3.266-3.344v-2.11H4.53V0H3.266v-.563c-.168.23-.356.399-.563.5-.21.102-.45.157-.719.157-.492 0-.89-.188-1.203-.563C.477-.852.328-1.348.328-1.953c0-.602.149-1.098.453-1.485a1.487 1.487 0 0 1 1.203-.578c.27 0 .508.059.72.172.206.106.394.274.562.5zM2.437-.813c.27 0 .473-.093.61-.28.144-.196.219-.485.219-.86s-.075-.66-.22-.86c-.136-.195-.339-.296-.609-.296a.717.717 0 0 0-.609.296c-.137.2-.203.485-.203.86s.066.664.203.86c.145.187.348.28.61.28z" id="path1303"/></symbol><symbol id="k" overflow="visible"><path d="M2.688-.813c.269 0 .472-.093.609-.28.144-.196.219-.485.219-.86s-.075-.66-.22-.86c-.136-.195-.339-.296-.609-.296-.273 0-.48.101-.624.296-.137.2-.204.485-.204.86 0 .367.067.648.204.844.144.199.351.296.624.296zm-.829-2.53c.164-.227.352-.395.563-.5.219-.114.46-.173.734-.173.477 0 .875.196 1.188.579.312.386.469.882.469 1.484 0 .605-.157 1.102-.47 1.484-.312.375-.71.563-1.187.563-.273 0-.515-.055-.734-.156a1.501 1.501 0 0 1-.563-.5V0H.61v-5.453h1.25z" id="path1306"/></symbol><symbol id="e" overflow="visible"><path d="M.094-3.922h1.25L2.39-1.266l.906-2.656h1.25L2.89.375c-.168.438-.36.738-.578.906-.22.176-.512.266-.875.266h-.72V.719h.391c.207 0 .36-.04.454-.11.101-.062.18-.18.234-.343l.031-.11z" id="path1309"/></symbol><symbol id="j" overflow="visible"><path d="M3.828-.953h-2.11L1.392 0H.03l1.94-5.234h1.61L5.515 0h-1.36zm-1.765-.969h1.421L2.781-4z" id="path1312"/></symbol><symbol id="i" overflow="visible"><path d="M4.234-3.266c.157-.25.344-.437.563-.562s.457-.188.719-.188c.457 0 .8.141 1.03.422.24.274.36.672.36 1.203V0H5.641v-2.047a.392.392 0 0 0 .015-.094v-.14c0-.282-.043-.485-.125-.61-.086-.125-.215-.187-.39-.187a.644.644 0 0 0-.563.297c-.125.199-.195.484-.203.86V0h-1.25v-2.047c0-.437-.043-.719-.125-.844-.074-.125-.203-.187-.39-.187a.644.644 0 0 0-.563.297c-.125.199-.188.484-.188.86V0H.594v-3.922h1.265v.578c.157-.226.332-.394.532-.5.195-.113.414-.172.656-.172.27 0 .508.07.719.203.207.125.363.309.468.547z" id="path1315"/></symbol><symbol id="h" overflow="visible"><path d="M4.547-2.39V0H3.28v-1.828c0-.332-.011-.563-.031-.688a.896.896 0 0 0-.062-.296A.548.548 0 0 0 2.984-3a.545.545 0 0 0-.28-.078.715.715 0 0 0-.626.312c-.148.2-.219.48-.219.844V0H.61v-5.453h1.25v2.11c.188-.227.383-.395.594-.5.219-.114.453-.173.703-.173.457 0 .801.141 1.031.422.239.274.36.672.36 1.203z" id="path1318"/></symbol><symbol id="u" overflow="visible"><path d="M3.672-3.797v.953a4.612 4.612 0 0 0-.781-.25 2.907 2.907 0 0 0-.703-.094c-.243 0-.418.032-.532.094a.298.298 0 0 0-.172.281c0 .094.04.172.125.235.082.055.239.09.47.11l.218.03c.644.086 1.078.22 1.297.407s.328.48.328.875c0 .418-.156.73-.469.937-.305.211-.758.313-1.36.313-.26 0-.53-.024-.812-.063A4.904 4.904 0 0 1 .438-.14v-.953c.25.125.503.219.765.281.258.055.524.079.797.079.25 0 .43-.032.547-.094a.34.34 0 0 0 .187-.313.267.267 0 0 0-.125-.234c-.086-.063-.257-.11-.515-.14l-.219-.032C1.32-1.609.93-1.734.703-1.922.484-2.117.375-2.41.375-2.797c0-.414.14-.723.422-.922.281-.195.719-.297 1.312-.297.227 0 .47.024.72.063.257.031.538.086.843.156z" id="path1321"/></symbol><symbol id="t" overflow="visible"><path d="M4.297-5.063v1.11a4.56 4.56 0 0 0-.844-.297 3.438 3.438 0 0 0-.765-.094c-.325 0-.563.047-.72.14a.429.429 0 0 0-.234.407c0 .137.051.246.157.328.101.074.289.14.562.203l.578.11c.582.117.992.293 1.235.531.25.242.375.578.375 1.016 0 .574-.172 1-.516 1.28s-.867.423-1.562.423c-.336 0-.668-.032-1-.094a6.636 6.636 0 0 1-1-.266v-1.14c.332.18.656.312.968.406.313.086.614.125.907.125.289 0 .515-.047.671-.14a.478.478 0 0 0 .235-.423.443.443 0 0 0-.172-.375c-.106-.093-.313-.175-.625-.25l-.516-.109c-.53-.113-.918-.289-1.156-.531-.242-.25-.36-.582-.36-1 0-.52.165-.922.5-1.203.333-.282.817-.422 1.454-.422.289 0 .586.027.89.078.301.043.614.105.938.187z" id="path1324"/></symbol><symbol id="g" overflow="visible"><path d="M.563-1.531v-2.39h1.265v.39c0 .21-.008.476-.016.797v.64c0 .325.004.555.016.688.02.137.05.234.094.297.05.086.117.152.203.203a.596.596 0 0 0 .281.062.717.717 0 0 0 .61-.297c.156-.207.234-.488.234-.843v-1.938H4.5V0H3.25v-.562a1.75 1.75 0 0 1-.61.5 1.56 1.56 0 0 1-.687.156c-.46 0-.808-.133-1.047-.406C.676-.594.562-1 .562-1.532z" id="path1327"/></symbol><symbol id="s" overflow="visible"><path d="M.61-3.922h1.25V0H.61zm0-1.531h1.25v1.031H.61z" id="path1330"/></symbol><symbol id="c" overflow="visible"><path d="M2.469-3.125c-.281 0-.496.105-.64.313-.15.199-.22.484-.22.859s.07.664.22.86c.144.198.359.296.64.296.27 0 .476-.098.625-.297.144-.195.219-.484.219-.86s-.075-.66-.22-.859a.725.725 0 0 0-.624-.312zm0-.89c.676 0 1.203.183 1.578.546.383.367.578.871.578 1.516 0 .648-.195 1.152-.578 1.515-.375.356-.902.532-1.578.532-.68 0-1.211-.176-1.594-.532C.5-.8.312-1.305.312-1.953c0-.645.188-1.149.563-1.516.383-.363.914-.547 1.594-.547z" id="path1333"/></symbol><symbol id="r" overflow="visible"><path d="M3.188-5.453v.828h-.704c-.18 0-.304.031-.375.094-.062.062-.093.18-.093.344v.265h1.062v.89H2.016V0H.766v-3.031H.14v-.89h.625v-.266c0-.438.113-.754.343-.954.239-.207.61-.312 1.11-.312z" id="path1336"/></symbol><symbol id="q" overflow="visible"><path d="M.656-5.234h1.516l1.89 3.593v-3.593h1.282V0h-1.5L1.937-3.594V0H.657z" id="path1339"/></symbol><symbol id="p" overflow="visible"><path d="M4.547-2.39V0H3.28v-1.828c0-.332-.011-.563-.031-.688a.896.896 0 0 0-.062-.296A.548.548 0 0 0 2.984-3a.545.545 0 0 0-.28-.078.715.715 0 0 0-.626.312c-.148.2-.219.48-.219.844V0H.61v-3.922h1.25v.578c.188-.226.383-.394.594-.5.219-.113.453-.172.703-.172.457 0 .801.141 1.031.422.239.274.36.672.36 1.203z" id="path1342"/></symbol><symbol id="o" overflow="visible"><path d="M.656-5.234h2.235c.664 0 1.175.152 1.53.453.364.293.548.715.548 1.265 0 .543-.184.965-.547 1.266-.356.293-.867.437-1.531.437H2V0H.656zM2-4.25v1.453h.75c.258 0 .461-.062.61-.187.144-.125.218-.301.218-.532 0-.238-.074-.422-.219-.547-.148-.125-.351-.187-.609-.187z" id="path1345"/></symbol><symbol id="n" overflow="visible"><path d="M.61-3.922h1.25v3.86c0 .519-.133.914-.391 1.187-.25.281-.617.422-1.094.422h-.61V.719h.22C.222.719.382.664.468.563.562.457.609.25.609-.062zm0-1.531h1.25v1.031H.61z" id="path1348"/></symbol><symbol id="m" overflow="visible"><path d="M3.766-3.797v1.016a1.96 1.96 0 0 0-.516-.25 1.506 1.506 0 0 0-.531-.094c-.344 0-.617.105-.813.312-.199.211-.297.497-.297.86 0 .367.098.652.297.86.196.198.469.296.813.296.195 0 .383-.023.562-.078.176-.063.336-.148.485-.266v1.032a2.71 2.71 0 0 1-.594.156c-.2.031-.402.047-.61.047-.71 0-1.261-.176-1.656-.532C.508-.8.313-1.305.313-1.953c0-.645.195-1.149.593-1.516.395-.363.946-.547 1.656-.547.208 0 .41.024.61.063.195.031.394.086.594.156z" id="path1351"/></symbol><filter id="shadow-1" height="1.217" width="1.152" x="-.076" y="-.108"><feFlood flood-color="rgba(58, 63, 94, 1)" result="flood" id="feFlood2"/><feComposite in="flood" in2="SourceGraphic" operator="out" result="composite" id="feComposite4"/><feGaussianBlur in="composite" stdDeviation="15" result="blur" id="feGaussianBlur6"/><feOffset dx="0" dy="0" result="offset" id="feOffset8"/><feComposite in2="SourceGraphic" in="offset" operator="atop" id="feComposite10"/></filter><filter id="shadow-1-5" height="1.154" width="1.184" x="-.092" y="-.077"><feFlood flood-color="rgba(58, 63, 94, 1)" result="flood" id="feFlood2-3"/><feComposite in="flood" in2="SourceGraphic" operator="out" result="composite" id="feComposite4-5"/><feGaussianBlur in="composite" stdDeviation="15" result="blur" id="feGaussianBlur6-6"/><feOffset dx="0" dy="0" result="offset" id="feOffset8-2"/><feComposite in2="SourceGraphic" in="offset" operator="atop" id="feComposite10-9"/></filter><filter style="color-interpolation-filters:sRGB" id="filter1251" x="-.06" y="-.06" width="1.12" height="1.12"><feFlood flood-opacity="1" flood-color="#3A3F5E" result="flood" id="feFlood1241"/><feComposite in="flood" in2="SourceGraphic" operator="out" result="composite1" id="feComposite1243"/><feGaussianBlur in="composite1" stdDeviation=".8" result="blur" id="feGaussianBlur1245"/><feOffset dx="0" dy="0" result="offset" id="feOffset1247"/><feComposite in="offset" in2="SourceGraphic" operator="atop" result="composite2" id="feComposite1249"/></filter><filter style="color-interpolation-filters:sRGB" id="filter1501" x="-.064" y="-.076" width="1.129" height="1.151"><feFlood flood-opacity="1" flood-color="#3A3F5E" result="flood" id="feFlood1491"/><feComposite in="flood" in2="SourceGraphic" operator="out" result="composite1" id="feComposite1493"/><feGaussianBlur in="composite1" stdDeviation="11.491" result="blur" id="feGaussianBlur1495"/><feOffset dx="0" dy="0" result="offset" id="feOffset1497"/><feComposite in="offset" in2="SourceGraphic" operator="atop" result="composite2" id="feComposite1499"/></filter><filter style="color-interpolation-filters:sRGB" id="filter1235" x="-.893" y="-1.088" width="2.787" height="3.175"><feFlood flood-opacity="1" flood-color="#3A3F5E" result="flood" id="feFlood1225"/><feComposite in="flood" in2="SourceGraphic" operator="out" result="composite1" id="feComposite1227"/><feGaussianBlur in="composite1" stdDeviation="10.424" result="blur" id="feGaussianBlur1229"/><feOffset dx="0" dy="0" result="offset" id="feOffset1231"/><feComposite in="offset" in2="SourceGraphic" operator="atop" result="composite2" id="feComposite1233"/></filter><filter style="color-interpolation-filters:sRGB" id="filter1617" x="-.035" y="-.058" width="1.071" height="1.115"><feFlood flood-opacity="1" flood-color="#3A3F5E" result="flood" id="feFlood1607"/><feComposite in="flood" in2="SourceGraphic" operator="out" result="composite1" id="feComposite1609"/><feGaussianBlur in="composite1" stdDeviation="6.902" result="blur" id="feGaussianBlur1611"/><feOffset dx="0" dy="0" result="offset" id="feOffset1613"/><feComposite in="offset" in2="SourceGraphic" operator="atop" result="composite2" id="feComposite1615"/></filter><filter style="color-interpolation-filters:sRGB" id="filter982" x="-.052" y="-.087" width="1.105" height="1.175"><feFlood flood-opacity="1" flood-color="#3A3F5E" result="flood" id="feFlood972"/><feComposite in="flood" in2="SourceGraphic" operator="out" result="composite1" id="feComposite974"/><feGaussianBlur in="composite1" stdDeviation="10.372" result="blur" id="feGaussianBlur976"/><feOffset dx="0" dy="0" result="offset" id="feOffset978"/><feComposite in="offset" in2="SourceGraphic" operator="atop" result="composite2" id="feComposite980"/></filter><filter style="color-interpolation-filters:sRGB" id="filter1737" x="-.049" y="-.171" width="1.098" height="1.342"><feFlood flood-opacity="1" flood-color="#3A3F5E" result="flood" id="feFlood1727"/><feComposite in="flood" in2="SourceGraphic" operator="out" result="composite1" id="feComposite1729"/><feGaussianBlur in="composite1" stdDeviation="26.157" result="blur" id="feGaussianBlur1731"/><feOffset dx="0" dy="0" result="offset" id="feOffset1733"/><feComposite in="offset" in2="SourceGraphic" operator="atop" result="composite2" id="feComposite1735"/></filter></defs><path d="M0 0h512v512H0z" fill="#1b1f21" fill-opacity="1" id="path15"/><style type="text/css" id="style361">.st0{fill:#000}</style><g id="g1581" transform="matrix(-.36521 0 0 .36521 324.647 169.372)" style="fill:#e64539;fill-opacity:1;filter:url(#filter1737)"><path d="M566.934 350.81c-12.162 12.155-28.287 18.849-45.396 18.849H-95.915c-.13.13-.265.25-.395.38-13.375 13.036-27.938 24.286-43.36 33.636h682.625c19.016 0 37.552-7.89 50.855-21.64l107.74-111.37c-20.604 4.672-42.626 8.308-65.484 11.073z" id="path1356" style="fill:#e64539;fill-opacity:1;stroke-width:1.33333"/><path d="M817.12 131.516c-9-12.974-23.098-21.15-38.672-22.437L-228.777 54.297c-106.074-8.76-202.334 66.386-219.107 171.067-6.401 39.959-.953 77.35 15.76 108.125 34.375 63.307 111.833 89.396 173.347 87.178 24.588-.891 48.822-6.454 71.693-16.214a5.72 5.72 0 0 1 .672-.286c24.281-10.464 47.005-25.667 66.932-45.094.807-.791 1.64-1.557 2.458-2.333.12-.125.245-.24.375-.354 57.907-54.932 481-85.167 562.493-82.995 221.733 5.875 355.933-28.25 377.906-96.093.26-.797.505-1.615.74-2.443 4.177-14.776 1.49-30.578-7.37-43.344z" id="path1358" style="fill:#e64539;fill-opacity:1;stroke-width:1.33333"/></g></svg>