<svg viewBox="0 0 512 512" style="height:512px;width:512px" version="1.1" id="svg21" xml:space="preserve" xmlns="http://www.w3.org/2000/svg"><defs id="defs13"><filter id="shadow-1" height="1.217" width="1.152" x="-.076" y="-.108"><feFlood flood-color="rgba(58, 63, 94, 1)" result="flood" id="feFlood2"/><feComposite in="flood" in2="SourceGraphic" operator="out" result="composite" id="feComposite4"/><feGaussianBlur in="composite" stdDeviation="15" result="blur" id="feGaussianBlur6"/><feOffset dx="0" dy="0" result="offset" id="feOffset8"/><feComposite in2="SourceGraphic" in="offset" operator="atop" id="feComposite10"/></filter><filter id="shadow-1-5" height="1.154" width="1.184" x="-.092" y="-.077"><feFlood flood-color="rgba(58, 63, 94, 1)" result="flood" id="feFlood2-3"/><feComposite in="flood" in2="SourceGraphic" operator="out" result="composite" id="feComposite4-5"/><feGaussianBlur in="composite" stdDeviation="15" result="blur" id="feGaussianBlur6-6"/><feOffset dx="0" dy="0" result="offset" id="feOffset8-2"/><feComposite in2="SourceGraphic" in="offset" operator="atop" id="feComposite10-9"/></filter><filter style="color-interpolation-filters:sRGB" id="filter1251" x="-.06" y="-.06" width="1.12" height="1.12"><feFlood flood-opacity="1" flood-color="#3A3F5E" result="flood" id="feFlood1241"/><feComposite in="flood" in2="SourceGraphic" operator="out" result="composite1" id="feComposite1243"/><feGaussianBlur in="composite1" stdDeviation=".8" result="blur" id="feGaussianBlur1245"/><feOffset dx="0" dy="0" result="offset" id="feOffset1247"/><feComposite in="offset" in2="SourceGraphic" operator="atop" result="composite2" id="feComposite1249"/></filter><filter style="color-interpolation-filters:sRGB" id="filter1501" x="-.064" y="-.076" width="1.129" height="1.151"><feFlood flood-opacity="1" flood-color="#3A3F5E" result="flood" id="feFlood1491"/><feComposite in="flood" in2="SourceGraphic" operator="out" result="composite1" id="feComposite1493"/><feGaussianBlur in="composite1" stdDeviation="11.491" result="blur" id="feGaussianBlur1495"/><feOffset dx="0" dy="0" result="offset" id="feOffset1497"/><feComposite in="offset" in2="SourceGraphic" operator="atop" result="composite2" id="feComposite1499"/></filter><filter style="color-interpolation-filters:sRGB" id="filter1235" x="-.893" y="-1.088" width="2.787" height="3.175"><feFlood flood-opacity="1" flood-color="#3A3F5E" result="flood" id="feFlood1225"/><feComposite in="flood" in2="SourceGraphic" operator="out" result="composite1" id="feComposite1227"/><feGaussianBlur in="composite1" stdDeviation="10.424" result="blur" id="feGaussianBlur1229"/><feOffset dx="0" dy="0" result="offset" id="feOffset1231"/><feComposite in="offset" in2="SourceGraphic" operator="atop" result="composite2" id="feComposite1233"/></filter><filter style="color-interpolation-filters:sRGB" id="filter1617" x="-.035" y="-.058" width="1.071" height="1.115"><feFlood flood-opacity="1" flood-color="#3A3F5E" result="flood" id="feFlood1607"/><feComposite in="flood" in2="SourceGraphic" operator="out" result="composite1" id="feComposite1609"/><feGaussianBlur in="composite1" stdDeviation="6.902" result="blur" id="feGaussianBlur1611"/><feOffset dx="0" dy="0" result="offset" id="feOffset1613"/><feComposite in="offset" in2="SourceGraphic" operator="atop" result="composite2" id="feComposite1615"/></filter><filter style="color-interpolation-filters:sRGB" id="filter982" x="-.052" y="-.087" width="1.105" height="1.175"><feFlood flood-opacity="1" flood-color="#3A3F5E" result="flood" id="feFlood972"/><feComposite in="flood" in2="SourceGraphic" operator="out" result="composite1" id="feComposite974"/><feGaussianBlur in="composite1" stdDeviation="10.372" result="blur" id="feGaussianBlur976"/><feOffset dx="0" dy="0" result="offset" id="feOffset978"/><feComposite in="offset" in2="SourceGraphic" operator="atop" result="composite2" id="feComposite980"/></filter></defs><path d="M0 0h512v512H0z" fill="#1b1f21" fill-opacity="1" id="path15"/><style type="text/css" id="style361">.st0{fill:#000}</style><path d="M427.01 265.423a65.927 65.927 0 0 0-23.734 4.556 492.011 492.011 0 0 1-23.733-118.475h9.303c5.242 0 9.493-4.25 9.493-9.493 0-5.242-4.25-9.493-9.493-9.493h-18.987c-5.242 0-9.493 4.25-9.493 9.493a421.888 421.888 0 0 0 15.38 102.527l-118.28-17.088h-4.364l-47.466 15.756-31.9-110.685h6.455c5.242 0 9.493-4.25 9.493-9.493 0-5.242-4.25-9.493-9.493-9.493h-37.973c-5.242 0-9.493 4.25-9.493 9.493s4.25 9.493 9.493 9.493h11.774l34.175 119.42-53.729 35.691-.004.004a66.453 66.453 0 0 0-53.594-21.948 66.462 66.462 0 0 0-50.458 28.433 66.44 66.44 0 0 0-8.989 57.213 66.443 66.443 0 0 0 39.304 42.537 66.443 66.443 0 0 0 57.744-4.45 66.458 66.458 0 0 0 32.323-48.055h40.63a28.483 28.483 0 0 0 43.008 14.596 28.468 28.468 0 0 0 12.46-22.089 28.476 28.476 0 0 0-10.091-23.266l25.25-63.222 119.418 17.087c1.517 5.315 3.23 10.634 4.747 15.38h.004a66.086 66.086 0 0 0-24.81 54.2 66.077 66.077 0 0 0 88.045 59.735 66.074 66.074 0 0 0 41.198-43.08 66.063 66.063 0 0 0-10.256-58.717 66.072 66.072 0 0 0-53.357-26.568zm-216.445-3.229 29.238-9.684-18.987 48.606zm-17.279 9.112 9.302 36.832v.004a28.501 28.501 0 0 0-11.01 14.24h-40.82a65.453 65.453 0 0 0-5.696-18.986zM85.255 360.355a28.484 28.484 0 0 1-24.665-14.24 28.488 28.488 0 0 1 0-28.48 28.485 28.485 0 0 1 24.665-14.239 28.274 28.274 0 0 1 16.897 5.696l-22.217 14.807h.004a9.49 9.49 0 0 0-3.932 10.743 9.488 9.488 0 0 0 9.247 6.726h26.772a28.468 28.468 0 0 1-10.375 13.735 28.496 28.496 0 0 1-16.397 5.251zm132.904-18.986a9.488 9.488 0 0 1-8.768-5.861 9.487 9.487 0 0 1 12.4-12.4 9.488 9.488 0 0 1 3.081 15.48 9.495 9.495 0 0 1-6.713 2.78zm208.85 18.986c-7.552 0-14.8-3-20.138-8.34a28.49 28.49 0 0 1-8.34-20.139c.025-4.213 1-8.366 2.847-12.15l18.986 18.986c3.721 3.721 9.756 3.721 13.482 0 3.72-3.725 3.72-9.76 0-13.481l-17.655-17.655v-1.708l-.004-.004a28.485 28.485 0 0 1 39.511 20.473 28.484 28.484 0 0 1-6.162 23.911 28.489 28.489 0 0 1-22.526 10.108z" id="path319" style="fill:#e64539;fill-opacity:1;stroke-width:1.08493;filter:url(#filter982)" transform="matrix(-1 0 0 1 512 0)"/></svg>