<svg viewBox="0 0 512 512" style="height:512px;width:512px" version="1.1" id="svg21" xml:space="preserve" xmlns="http://www.w3.org/2000/svg"><defs id="defs13"><symbol id="v" overflow="visible"><path d="M4.797-.281A3.27 3.27 0 0 1 4.03 0a3.775 3.775 0 0 1-.843.094c-.868 0-1.555-.239-2.063-.719C.613-1.113.359-1.773.359-2.609c0-.832.254-1.493.766-1.985.508-.488 1.195-.734 2.063-.734.289 0 .57.039.843.11.27.062.524.155.766.28v1.079a2.662 2.662 0 0 0-.734-.36 2.366 2.366 0 0 0-.766-.125c-.48 0-.86.156-1.14.469-.274.305-.407.726-.407 1.266 0 .542.133.968.406 1.28.282.305.66.454 1.14.454.27 0 .524-.035.767-.11.25-.082.492-.21.734-.39z" id="path1288"/></symbol><symbol id="d" overflow="visible"><path d="M3.516-2.86a1.899 1.899 0 0 0-.329-.109A1.798 1.798 0 0 0 2.86-3c-.324 0-.574.105-.75.312-.168.2-.25.493-.25.875V0H.61v-3.922h1.25v.64c.157-.25.336-.429.547-.546.207-.125.457-.188.75-.188.04 0 .086.008.14.016.052 0 .126.008.22.016z" id="path1291"/></symbol><symbol id="b" overflow="visible"><path d="M4.516-1.969v.36H1.594c.02.293.117.511.297.656.187.148.445.219.78.219.259 0 .524-.036.798-.11a4.53 4.53 0 0 0 .86-.36v.97c-.294.117-.59.199-.892.25-.293.05-.59.078-.89.078-.711 0-1.262-.176-1.656-.532C.504-.8.313-1.305.313-1.953c0-.645.19-1.149.578-1.516.382-.363.914-.547 1.593-.547.614 0 1.102.188 1.47.563.374.367.562.86.562 1.484zM3.234-2.39a.793.793 0 0 0-.218-.578.72.72 0 0 0-.547-.219.882.882 0 0 0-.594.204c-.148.136-.242.336-.281.593z" id="path1294"/></symbol><symbol id="l" overflow="visible"><path d="M2.36-1.766c-.262 0-.462.047-.594.141-.125.086-.188.215-.188.39 0 .157.05.282.156.376.102.086.25.125.438.125a.776.776 0 0 0 .594-.25.871.871 0 0 0 .25-.641v-.14zm1.921-.468V0H3.016v-.578c-.168.242-.36.414-.578.516a1.757 1.757 0 0 1-.766.156C1.266.094.938-.02.688-.25.438-.488.313-.797.313-1.172c0-.457.156-.797.468-1.015s.805-.329 1.485-.329h.75v-.093c0-.196-.078-.344-.235-.438s-.402-.14-.734-.14c-.273 0-.523.03-.75.093-.23.055-.445.133-.64.235v-.953c.257-.07.523-.125.796-.157.27-.03.54-.047.813-.047.707 0 1.219.141 1.53.422.321.274.485.727.485 1.36z" id="path1297"/></symbol><symbol id="a" overflow="visible"><path d="M1.969-5.031v1.11h1.297v.89H1.969v1.672c0 .18.035.304.11.375.07.062.218.093.437.093h.64V0H2.078c-.492 0-.84-.101-1.047-.312C.821-.52.72-.867.72-1.36v-1.672H.094v-.89h.625v-1.11z" id="path1300"/></symbol><symbol id="f" overflow="visible"><path d="M3.266-3.344v-2.11H4.53V0H3.266v-.563c-.168.23-.356.399-.563.5-.21.102-.45.157-.719.157-.492 0-.89-.188-1.203-.563C.477-.852.328-1.348.328-1.953c0-.602.149-1.098.453-1.485a1.487 1.487 0 0 1 1.203-.578c.27 0 .508.059.72.172.206.106.394.274.562.5zM2.437-.813c.27 0 .473-.093.61-.28.144-.196.219-.485.219-.86s-.075-.66-.22-.86c-.136-.195-.339-.296-.609-.296a.717.717 0 0 0-.609.296c-.137.2-.203.485-.203.86s.066.664.203.86c.145.187.348.28.61.28z" id="path1303"/></symbol><symbol id="k" overflow="visible"><path d="M2.688-.813c.269 0 .472-.093.609-.28.144-.196.219-.485.219-.86s-.075-.66-.22-.86c-.136-.195-.339-.296-.609-.296-.273 0-.48.101-.624.296-.137.2-.204.485-.204.86 0 .367.067.648.204.844.144.199.351.296.624.296zm-.829-2.53c.164-.227.352-.395.563-.5.219-.114.46-.173.734-.173.477 0 .875.196 1.188.579.312.386.469.882.469 1.484 0 .605-.157 1.102-.47 1.484-.312.375-.71.563-1.187.563-.273 0-.515-.055-.734-.156a1.501 1.501 0 0 1-.563-.5V0H.61v-5.453h1.25z" id="path1306"/></symbol><symbol id="e" overflow="visible"><path d="M.094-3.922h1.25L2.39-1.266l.906-2.656h1.25L2.89.375c-.168.438-.36.738-.578.906-.22.176-.512.266-.875.266h-.72V.719h.391c.207 0 .36-.04.454-.11.101-.062.18-.18.234-.343l.031-.11z" id="path1309"/></symbol><symbol id="j" overflow="visible"><path d="M3.828-.953h-2.11L1.392 0H.03l1.94-5.234h1.61L5.515 0h-1.36zm-1.765-.969h1.421L2.781-4z" id="path1312"/></symbol><symbol id="i" overflow="visible"><path d="M4.234-3.266c.157-.25.344-.437.563-.562s.457-.188.719-.188c.457 0 .8.141 1.03.422.24.274.36.672.36 1.203V0H5.641v-2.047a.392.392 0 0 0 .015-.094v-.14c0-.282-.043-.485-.125-.61-.086-.125-.215-.187-.39-.187a.644.644 0 0 0-.563.297c-.125.199-.195.484-.203.86V0h-1.25v-2.047c0-.437-.043-.719-.125-.844-.074-.125-.203-.187-.39-.187a.644.644 0 0 0-.563.297c-.125.199-.188.484-.188.86V0H.594v-3.922h1.265v.578c.157-.226.332-.394.532-.5.195-.113.414-.172.656-.172.27 0 .508.07.719.203.207.125.363.309.468.547z" id="path1315"/></symbol><symbol id="h" overflow="visible"><path d="M4.547-2.39V0H3.28v-1.828c0-.332-.011-.563-.031-.688a.896.896 0 0 0-.062-.296A.548.548 0 0 0 2.984-3a.545.545 0 0 0-.28-.078.715.715 0 0 0-.626.312c-.148.2-.219.48-.219.844V0H.61v-5.453h1.25v2.11c.188-.227.383-.395.594-.5.219-.114.453-.173.703-.173.457 0 .801.141 1.031.422.239.274.36.672.36 1.203z" id="path1318"/></symbol><symbol id="u" overflow="visible"><path d="M3.672-3.797v.953a4.612 4.612 0 0 0-.781-.25 2.907 2.907 0 0 0-.703-.094c-.243 0-.418.032-.532.094a.298.298 0 0 0-.172.281c0 .094.04.172.125.235.082.055.239.09.47.11l.218.03c.644.086 1.078.22 1.297.407s.328.48.328.875c0 .418-.156.73-.469.937-.305.211-.758.313-1.36.313-.26 0-.53-.024-.812-.063A4.904 4.904 0 0 1 .438-.14v-.953c.25.125.503.219.765.281.258.055.524.079.797.079.25 0 .43-.032.547-.094a.34.34 0 0 0 .187-.313.267.267 0 0 0-.125-.234c-.086-.063-.257-.11-.515-.14l-.219-.032C1.32-1.609.93-1.734.703-1.922.484-2.117.375-2.41.375-2.797c0-.414.14-.723.422-.922.281-.195.719-.297 1.312-.297.227 0 .47.024.72.063.257.031.538.086.843.156z" id="path1321"/></symbol><symbol id="t" overflow="visible"><path d="M4.297-5.063v1.11a4.56 4.56 0 0 0-.844-.297 3.438 3.438 0 0 0-.765-.094c-.325 0-.563.047-.72.14a.429.429 0 0 0-.234.407c0 .137.051.246.157.328.101.074.289.14.562.203l.578.11c.582.117.992.293 1.235.531.25.242.375.578.375 1.016 0 .574-.172 1-.516 1.28s-.867.423-1.562.423c-.336 0-.668-.032-1-.094a6.636 6.636 0 0 1-1-.266v-1.14c.332.18.656.312.968.406.313.086.614.125.907.125.289 0 .515-.047.671-.14a.478.478 0 0 0 .235-.423.443.443 0 0 0-.172-.375c-.106-.093-.313-.175-.625-.25l-.516-.109c-.53-.113-.918-.289-1.156-.531-.242-.25-.36-.582-.36-1 0-.52.165-.922.5-1.203.333-.282.817-.422 1.454-.422.289 0 .586.027.89.078.301.043.614.105.938.187z" id="path1324"/></symbol><symbol id="g" overflow="visible"><path d="M.563-1.531v-2.39h1.265v.39c0 .21-.008.476-.016.797v.64c0 .325.004.555.016.688.02.137.05.234.094.297.05.086.117.152.203.203a.596.596 0 0 0 .281.062.717.717 0 0 0 .61-.297c.156-.207.234-.488.234-.843v-1.938H4.5V0H3.25v-.562a1.75 1.75 0 0 1-.61.5 1.56 1.56 0 0 1-.687.156c-.46 0-.808-.133-1.047-.406C.676-.594.562-1 .562-1.532z" id="path1327"/></symbol><symbol id="s" overflow="visible"><path d="M.61-3.922h1.25V0H.61zm0-1.531h1.25v1.031H.61z" id="path1330"/></symbol><symbol id="c" overflow="visible"><path d="M2.469-3.125c-.281 0-.496.105-.64.313-.15.199-.22.484-.22.859s.07.664.22.86c.144.198.359.296.64.296.27 0 .476-.098.625-.297.144-.195.219-.484.219-.86s-.075-.66-.22-.859a.725.725 0 0 0-.624-.312zm0-.89c.676 0 1.203.183 1.578.546.383.367.578.871.578 1.516 0 .648-.195 1.152-.578 1.515-.375.356-.902.532-1.578.532-.68 0-1.211-.176-1.594-.532C.5-.8.312-1.305.312-1.953c0-.645.188-1.149.563-1.516.383-.363.914-.547 1.594-.547z" id="path1333"/></symbol><symbol id="r" overflow="visible"><path d="M3.188-5.453v.828h-.704c-.18 0-.304.031-.375.094-.062.062-.093.18-.093.344v.265h1.062v.89H2.016V0H.766v-3.031H.14v-.89h.625v-.266c0-.438.113-.754.343-.954.239-.207.61-.312 1.11-.312z" id="path1336"/></symbol><symbol id="q" overflow="visible"><path d="M.656-5.234h1.516l1.89 3.593v-3.593h1.282V0h-1.5L1.937-3.594V0H.657z" id="path1339"/></symbol><symbol id="p" overflow="visible"><path d="M4.547-2.39V0H3.28v-1.828c0-.332-.011-.563-.031-.688a.896.896 0 0 0-.062-.296A.548.548 0 0 0 2.984-3a.545.545 0 0 0-.28-.078.715.715 0 0 0-.626.312c-.148.2-.219.48-.219.844V0H.61v-3.922h1.25v.578c.188-.226.383-.394.594-.5.219-.113.453-.172.703-.172.457 0 .801.141 1.031.422.239.274.36.672.36 1.203z" id="path1342"/></symbol><symbol id="o" overflow="visible"><path d="M.656-5.234h2.235c.664 0 1.175.152 1.53.453.364.293.548.715.548 1.265 0 .543-.184.965-.547 1.266-.356.293-.867.437-1.531.437H2V0H.656zM2-4.25v1.453h.75c.258 0 .461-.062.61-.187.144-.125.218-.301.218-.532 0-.238-.074-.422-.219-.547-.148-.125-.351-.187-.609-.187z" id="path1345"/></symbol><symbol id="n" overflow="visible"><path d="M.61-3.922h1.25v3.86c0 .519-.133.914-.391 1.187-.25.281-.617.422-1.094.422h-.61V.719h.22C.222.719.382.664.468.563.562.457.609.25.609-.062zm0-1.531h1.25v1.031H.61z" id="path1348"/></symbol><symbol id="m" overflow="visible"><path d="M3.766-3.797v1.016a1.96 1.96 0 0 0-.516-.25 1.506 1.506 0 0 0-.531-.094c-.344 0-.617.105-.813.312-.199.211-.297.497-.297.86 0 .367.098.652.297.86.196.198.469.296.813.296.195 0 .383-.023.562-.078.176-.063.336-.148.485-.266v1.032a2.71 2.71 0 0 1-.594.156c-.2.031-.402.047-.61.047-.71 0-1.261-.176-1.656-.532C.508-.8.313-1.305.313-1.953c0-.645.195-1.149.593-1.516.395-.363.946-.547 1.656-.547.208 0 .41.024.61.063.195.031.394.086.594.156z" id="path1351"/></symbol><symbol id="q-3" overflow="visible"><path d="M29.312-1.75A20.895 20.895 0 0 1 24.578.016a21.15 21.15 0 0 1-5.11.609c-5.312 0-9.527-1.484-12.64-4.453-3.106-2.969-4.657-7-4.657-12.094s1.55-9.125 4.656-12.094c3.113-2.969 7.328-4.453 12.641-4.453 1.77 0 3.473.199 5.11.594 1.644.398 3.222.992 4.734 1.78v6.595c-1.531-1.04-3.04-1.801-4.516-2.282a14.826 14.826 0 0 0-4.671-.734c-2.938 0-5.247.945-6.922 2.828-1.68 1.875-2.516 4.465-2.516 7.766 0 3.293.836 5.882 2.516 7.765 1.675 1.875 3.984 2.813 6.922 2.813 1.632 0 3.19-.239 4.671-.719 1.477-.488 2.985-1.254 4.516-2.297z" id="path2220"/></symbol><symbol id="d-6" overflow="visible"><path d="M21.453-17.406a10.04 10.04 0 0 0-2.016-.688 8.556 8.556 0 0 0-1.984-.234c-1.969 0-3.484.633-4.547 1.89-1.055 1.262-1.578 3.071-1.578 5.423V0H3.672v-23.922h7.656V-20c.977-1.563 2.102-2.704 3.375-3.422 1.281-.72 2.813-1.078 4.594-1.078.25 0 .523.011.828.03.3.024.734.071 1.297.141z" id="path2223"/></symbol><symbol id="a-7" overflow="visible"><path d="M27.562-12.031v2.188H9.671c.188 1.792.832 3.136 1.938 4.03 1.113.9 2.671 1.344 4.671 1.344 1.602 0 3.25-.234 4.938-.703 1.687-.476 3.422-1.203 5.203-2.172v5.891A31.913 31.913 0 0 1 20.999.094a28.432 28.432 0 0 1-5.422.531c-4.336 0-7.703-1.097-10.109-3.297-2.398-2.207-3.594-5.297-3.594-9.265 0-3.906 1.176-6.973 3.532-9.203 2.363-2.239 5.609-3.36 9.734-3.36 3.758 0 6.77 1.137 9.031 3.406 2.258 2.262 3.39 5.282 3.39 9.063zm-7.86-2.531c0-1.457-.43-2.63-1.28-3.516-.844-.894-1.95-1.344-3.313-1.344-1.492 0-2.7.418-3.625 1.25-.918.836-1.492 2.04-1.719 3.61z" id="path2226"/></symbol><symbol id="c-5" overflow="visible"><path d="M14.391-10.766c-1.594 0-2.793.273-3.594.813-.804.542-1.203 1.34-1.203 2.39 0 .969.32 1.73.969 2.281.644.543 1.547.813 2.703.813 1.437 0 2.644-.516 3.625-1.547.988-1.031 1.484-2.32 1.484-3.875v-.875zm11.688-2.89V-.002h-7.703v-3.547c-1.031 1.45-2.188 2.508-3.469 3.172s-2.84 1-4.672 1c-2.48 0-4.496-.722-6.047-2.172-1.543-1.445-2.312-3.32-2.312-5.625 0-2.812.96-4.867 2.89-6.171 1.938-1.313 4.97-1.97 9.094-1.97h4.516v-.609c0-1.207-.48-2.093-1.438-2.656-.949-.562-2.437-.844-4.468-.844-1.637 0-3.157.168-4.563.5a15.698 15.698 0 0 0-3.937 1.47v-5.829a41.147 41.147 0 0 1 4.937-.906 39.87 39.87 0 0 1 4.953-.313c4.32 0 7.438.856 9.344 2.563 1.914 1.7 2.875 4.46 2.875 8.281z" id="path2229"/></symbol><symbol id="b-3" overflow="visible"><path d="M12.031-30.719v6.797h7.875v5.469h-7.875v10.14c0 1.118.219 1.872.656 2.266.438.387 1.313.578 2.625.578h3.938v5.47h-6.563C9.664 0 7.523-.63 6.265-1.89c-1.261-1.258-1.89-3.399-1.89-6.422v-10.141H.578v-5.47h3.797v-6.796z" id="path2232"/></symbol><symbol id="h-5" overflow="visible"><path d="M19.953-20.422v-12.812h7.688V0h-7.688v-3.453c-1.055 1.406-2.215 2.437-3.484 3.094-1.274.656-2.743.984-4.407.984-2.949 0-5.37-1.172-7.265-3.516C2.91-5.234 1.969-8.25 1.969-11.937s.941-6.704 2.828-9.047C6.69-23.328 9.113-24.5 12.062-24.5c1.657 0 3.118.336 4.391 1 1.281.656 2.445 1.684 3.5 3.078zM14.906-4.938c1.645 0 2.895-.598 3.75-1.797.863-1.195 1.297-2.93 1.297-5.203 0-2.281-.434-4.02-1.297-5.219-.855-1.195-2.105-1.797-3.75-1.797-1.625 0-2.871.602-3.734 1.797-.856 1.2-1.282 2.938-1.282 5.219 0 2.273.426 4.008 1.282 5.203.863 1.2 2.11 1.797 3.734 1.797z" id="path2235"/></symbol><symbol id="g-6" overflow="visible"><path d="M16.406-4.938c1.633 0 2.883-.597 3.75-1.796.863-1.196 1.297-2.93 1.297-5.204 0-2.28-.434-4.019-1.297-5.218-.867-1.196-2.117-1.797-3.75-1.797-1.637 0-2.89.605-3.766 1.812-.875 1.2-1.312 2.934-1.312 5.203 0 2.262.437 3.996 1.312 5.203.875 1.2 2.13 1.797 3.766 1.797zM11.328-20.42c1.05-1.395 2.219-2.422 3.5-3.079 1.281-.664 2.754-1 4.422-1 2.945 0 5.367 1.172 7.265 3.516 1.895 2.344 2.844 5.36 2.844 9.047s-.949 6.703-2.844 9.047C24.617-.546 22.195.625 19.25.625c-1.668 0-3.14-.336-4.422-1s-2.45-1.691-3.5-3.078V0H3.672v-33.234h7.656z" id="path2238"/></symbol><symbol id="f-2" overflow="visible"><path d="M.531-23.922h7.656L14.61-7.688l5.47-16.234h7.655L17.672 2.266c-1.011 2.664-2.195 4.523-3.547 5.578-1.343 1.063-3.12 1.594-5.328 1.594H4.375V4.422h2.391c1.3 0 2.242-.21 2.828-.625.594-.406 1.055-1.148 1.39-2.219l.204-.656z" id="path2241"/></symbol><symbol id="e-9" overflow="visible"><path d="M15.703-17.75c1.719 0 2.953-.316 3.703-.953.75-.645 1.125-1.703 1.125-3.172 0-1.445-.375-2.484-1.125-3.11-.75-.632-1.984-.953-3.703-.953h-3.469v8.188zm-3.469 5.688v12.06H4.015v-31.89h12.562c4.196 0 7.274.703 9.235 2.109 1.957 1.406 2.937 3.637 2.937 6.687 0 2.106-.511 3.836-1.53 5.188-1.013 1.355-2.544 2.355-4.595 3 1.125.25 2.13.828 3.016 1.734.894.907 1.797 2.278 2.703 4.11l4.469 9.062h-8.766l-3.875-7.922c-.793-1.593-1.59-2.68-2.39-3.265-.805-.582-1.875-.875-3.22-.875z" id="path2244"/></symbol><symbol id="p-1" overflow="visible"><path d="M3.672-33.234h7.656V0H3.672z" id="path2247"/></symbol><symbol id="o-2" overflow="visible"><path d="M19.422-33.234v5.016h-4.234c-1.086 0-1.84.199-2.266.593-.43.387-.64 1.063-.64 2.032v1.671h6.53v5.47h-6.53V0H4.64v-18.453H.828v-5.469h3.813v-1.671c0-2.602.722-4.524 2.172-5.766 1.457-1.25 3.707-1.875 6.75-1.875z" id="path2250"/></symbol><symbol id="n-7" overflow="visible"><path d="M26.219-30.891v6.75a29.845 29.845 0 0 0-5.14-1.766c-1.669-.406-3.243-.609-4.72-.609-1.96 0-3.414.273-4.359.813-.937.542-1.406 1.386-1.406 2.53 0 .856.316 1.524.953 2 .633.47 1.785.876 3.453 1.22l3.5.703c3.54.718 6.063 1.804 7.563 3.25 1.5 1.449 2.25 3.511 2.25 6.187 0 3.524-1.047 6.14-3.14 7.86C23.085-.235 19.898.625 15.61.625A32.97 32.97 0 0 1 9.516.047a36.704 36.704 0 0 1-6.094-1.72V-8.61c2.031 1.086 3.992 1.903 5.89 2.453 1.907.543 3.743.813 5.516.813 1.79 0 3.16-.297 4.11-.89.957-.602 1.437-1.458 1.437-2.563 0-1-.324-1.77-.969-2.313-.648-.539-1.937-1.023-3.875-1.453l-3.187-.703c-3.188-.688-5.524-1.773-7-3.266-1.469-1.5-2.203-3.515-2.203-6.047 0-3.175 1.023-5.617 3.078-7.328 2.05-1.707 5-2.562 8.844-2.562 1.75 0 3.55.133 5.406.39 1.851.262 3.77.657 5.75 1.188z" id="path2253"/></symbol><symbol id="m-0" overflow="visible"><path d="M23-23.172v6.234c-1.031-.718-2.074-1.242-3.125-1.578a10.31 10.31 0 0 0-3.25-.515c-2.137 0-3.805.625-5 1.875-1.188 1.242-1.781 2.98-1.781 5.218 0 2.231.594 3.97 1.781 5.22 1.195 1.25 2.863 1.874 5 1.874 1.195 0 2.332-.175 3.406-.531A10.2 10.2 0 0 0 23-6.969v6.266a21.168 21.168 0 0 1-3.64.984 20.383 20.383 0 0 1-3.704.344c-4.312 0-7.687-1.11-10.125-3.328S1.875-8 1.875-11.938c0-3.945 1.219-7.023 3.656-9.234C7.97-23.39 11.344-24.5 15.656-24.5c1.25 0 2.485.11 3.703.328s2.43.555 3.641 1z" id="path2256"/></symbol><symbol id="l-9" overflow="visible"><path d="M27.734-14.562V0h-7.703v-11.109c0-2.094-.047-3.531-.14-4.313-.087-.78-.243-1.359-.47-1.734a3.15 3.15 0 0 0-1.218-1.156c-.512-.281-1.094-.422-1.75-.422-1.594 0-2.852.617-3.766 1.844-.906 1.23-1.36 2.937-1.36 5.125V0H3.673v-33.234h7.656v12.812c1.144-1.395 2.363-2.422 3.656-3.078 1.3-.664 2.738-1 4.312-1 2.758 0 4.852.851 6.282 2.547 1.437 1.687 2.156 4.152 2.156 7.39z" id="path2259"/></symbol><symbol id="k-3" overflow="visible"><path d="M25.844-19.953c.969-1.477 2.117-2.602 3.453-3.375 1.332-.781 2.797-1.172 4.39-1.172 2.75 0 4.845.852 6.282 2.547 1.437 1.688 2.156 4.152 2.156 7.39V0h-7.687v-12.47c.007-.187.02-.378.03-.578.009-.195.016-.484.016-.859 0-1.695-.25-2.926-.75-3.687-.5-.758-1.308-1.141-2.421-1.141-1.45 0-2.57.602-3.36 1.797-.793 1.2-1.203 2.93-1.234 5.187V0H19.03v-12.47c0-2.656-.23-4.363-.687-5.125-.45-.757-1.258-1.14-2.422-1.14-1.469 0-2.606.605-3.406 1.812-.793 1.2-1.188 2.918-1.188 5.156V0H3.625v-23.922h7.703v3.5c.938-1.352 2.016-2.368 3.235-3.047 1.218-.688 2.554-1.032 4.015-1.032 1.656 0 3.113.403 4.375 1.204 1.27.792 2.235 1.906 2.89 3.343z" id="path2262"/></symbol><symbol id="j-6" overflow="visible"><path d="M3.672-23.922h7.656V0H3.672zm0-9.313h7.656V-27H3.672z" id="path2265"/></symbol><symbol id="i-0" overflow="visible"><path d="M2.5-23.922h20.875v5.344L10.766-5.47h12.609V0H1.969v-5.344l12.594-13.11H2.501z" id="path2268"/></symbol><filter id="shadow-1" height="1.217" width="1.152" x="-.076" y="-.108"><feFlood flood-color="rgba(58, 63, 94, 1)" result="flood" id="feFlood2"/><feComposite in="flood" in2="SourceGraphic" operator="out" result="composite" id="feComposite4"/><feGaussianBlur in="composite" stdDeviation="15" result="blur" id="feGaussianBlur6"/><feOffset dx="0" dy="0" result="offset" id="feOffset8"/><feComposite in2="SourceGraphic" in="offset" operator="atop" id="feComposite10"/></filter><filter id="shadow-1-5" height="1.154" width="1.184" x="-.092" y="-.077"><feFlood flood-color="rgba(58, 63, 94, 1)" result="flood" id="feFlood2-3"/><feComposite in="flood" in2="SourceGraphic" operator="out" result="composite" id="feComposite4-5"/><feGaussianBlur in="composite" stdDeviation="15" result="blur" id="feGaussianBlur6-6"/><feOffset dx="0" dy="0" result="offset" id="feOffset8-2"/><feComposite in2="SourceGraphic" in="offset" operator="atop" id="feComposite10-9"/></filter><filter style="color-interpolation-filters:sRGB" id="filter1251" x="-.06" y="-.06" width="1.12" height="1.12"><feFlood flood-opacity="1" flood-color="#3A3F5E" result="flood" id="feFlood1241"/><feComposite in="flood" in2="SourceGraphic" operator="out" result="composite1" id="feComposite1243"/><feGaussianBlur in="composite1" stdDeviation=".8" result="blur" id="feGaussianBlur1245"/><feOffset dx="0" dy="0" result="offset" id="feOffset1247"/><feComposite in="offset" in2="SourceGraphic" operator="atop" result="composite2" id="feComposite1249"/></filter><filter style="color-interpolation-filters:sRGB" id="filter1501" x="-.064" y="-.076" width="1.129" height="1.151"><feFlood flood-opacity="1" flood-color="#3A3F5E" result="flood" id="feFlood1491"/><feComposite in="flood" in2="SourceGraphic" operator="out" result="composite1" id="feComposite1493"/><feGaussianBlur in="composite1" stdDeviation="11.491" result="blur" id="feGaussianBlur1495"/><feOffset dx="0" dy="0" result="offset" id="feOffset1497"/><feComposite in="offset" in2="SourceGraphic" operator="atop" result="composite2" id="feComposite1499"/></filter><filter style="color-interpolation-filters:sRGB" id="filter1235" x="-.893" y="-1.088" width="2.787" height="3.175"><feFlood flood-opacity="1" flood-color="#3A3F5E" result="flood" id="feFlood1225"/><feComposite in="flood" in2="SourceGraphic" operator="out" result="composite1" id="feComposite1227"/><feGaussianBlur in="composite1" stdDeviation="10.424" result="blur" id="feGaussianBlur1229"/><feOffset dx="0" dy="0" result="offset" id="feOffset1231"/><feComposite in="offset" in2="SourceGraphic" operator="atop" result="composite2" id="feComposite1233"/></filter><filter style="color-interpolation-filters:sRGB" id="filter1617" x="-.035" y="-.058" width="1.071" height="1.115"><feFlood flood-opacity="1" flood-color="#3A3F5E" result="flood" id="feFlood1607"/><feComposite in="flood" in2="SourceGraphic" operator="out" result="composite1" id="feComposite1609"/><feGaussianBlur in="composite1" stdDeviation="6.902" result="blur" id="feGaussianBlur1611"/><feOffset dx="0" dy="0" result="offset" id="feOffset1613"/><feComposite in="offset" in2="SourceGraphic" operator="atop" result="composite2" id="feComposite1615"/></filter><filter style="color-interpolation-filters:sRGB" id="filter982" x="-.052" y="-.087" width="1.105" height="1.175"><feFlood flood-opacity="1" flood-color="#3A3F5E" result="flood" id="feFlood972"/><feComposite in="flood" in2="SourceGraphic" operator="out" result="composite1" id="feComposite974"/><feGaussianBlur in="composite1" stdDeviation="10.372" result="blur" id="feGaussianBlur976"/><feOffset dx="0" dy="0" result="offset" id="feOffset978"/><feComposite in="offset" in2="SourceGraphic" operator="atop" result="composite2" id="feComposite980"/></filter><filter style="color-interpolation-filters:sRGB" id="filter1737" x="-.049" y="-.171" width="1.098" height="1.342"><feFlood flood-opacity="1" flood-color="#3A3F5E" result="flood" id="feFlood1727"/><feComposite in="flood" in2="SourceGraphic" operator="out" result="composite1" id="feComposite1729"/><feGaussianBlur in="composite1" stdDeviation="26.157" result="blur" id="feGaussianBlur1731"/><feOffset dx="0" dy="0" result="offset" id="feOffset1733"/><feComposite in="offset" in2="SourceGraphic" operator="atop" result="composite2" id="feComposite1735"/></filter><filter style="color-interpolation-filters:sRGB" id="filter2473" x="-.071" y="-.071" width="1.142" height="1.142"><feFlood flood-opacity="1" flood-color="#3A3F5E" result="flood" id="feFlood2463"/><feComposite in="flood" in2="SourceGraphic" operator="out" result="composite1" id="feComposite2465"/><feGaussianBlur in="composite1" stdDeviation="17.344" result="blur" id="feGaussianBlur2467"/><feOffset dx="0" dy="0" result="offset" id="feOffset2469"/><feComposite in="offset" in2="SourceGraphic" operator="atop" result="composite2" id="feComposite2471"/></filter></defs><path d="M0 0h512v512H0z" fill="#1b1f21" fill-opacity="1" id="path15"/><style type="text/css" id="style361">.st0{fill:#000}</style><g id="g2437" transform="translate(35.937 242.173) scale(.68283)" style="fill:#e64539;fill-opacity:1;filter:url(#filter2473)"><path d="M611.016-235.487c-4.563-4.562-11.937-4.562-16.495 0l-24.754 24.755-16.495-16.51 24.745-24.746c4.563-4.563 4.563-11.937 0-16.495-4.562-4.562-11.937-4.562-16.494 0l-24.746 24.746-8.25-8.25a11.638 11.638 0 0 0-8.25-3.417 11.62 11.62 0 0 0-8.25 3.417L50.041 209.999a11.638 11.638 0 0 0-3.417 8.25 11.62 11.62 0 0 0 3.417 8.25l8.25 8.25-24.746 24.746c-4.562 4.562-4.562 11.937 0 16.494a11.63 11.63 0 0 0 8.25 3.417 11.66 11.66 0 0 0 8.25-3.417l24.746-24.745 16.51 16.495-24.754 24.754c-4.563 4.563-4.563 11.938 0 16.495a11.63 11.63 0 0 0 8.25 3.417 11.66 11.66 0 0 0 8.25-3.417l24.754-24.755 8.25 8.25a11.63 11.63 0 0 0 8.25 3.417 11.66 11.66 0 0 0 8.25-3.417L594.525-169.49c4.562-4.563 4.562-11.937 0-16.495l-8.25-8.25 24.754-24.754c4.547-4.547 4.547-11.933-.015-16.495zM144.203 238.167a11.63 11.63 0 0 1-8.25 3.416 11.66 11.66 0 0 1-8.25-3.416l-23.334-23.334c-4.562-4.562-4.562-11.937 0-16.494 4.563-4.563 11.938-4.563 16.495 0l23.333 23.333c4.552 4.547 4.552 11.932.005 16.495zM540.189-157.82a11.63 11.63 0 0 1-8.25 3.417 11.66 11.66 0 0 1-8.25-3.417l-23.333-23.333c-4.563-4.552-4.563-11.938 0-16.495 4.563-4.563 11.937-4.563 16.495 0l23.333 23.333c4.552 4.547 4.552 11.933.005 16.495z" id="path2273" style="stroke-width:1.33333;fill:#e64539;fill-opacity:1"/><path d="M215.043-70.488a11.63 11.63 0 0 0 8.25 3.417 11.66 11.66 0 0 0 8.25-3.417c4.562-4.563 4.562-11.937 0-16.495l-32.995-32.994c-4.563-4.563-11.937-4.563-16.495 0-4.562 4.562-4.562 11.937 0 16.494z" id="path2275" style="stroke-width:1.33333;fill:#e64539;fill-opacity:1"/><path d="M311.216-141.048a11.676 11.676 0 0 0 11.073 7.98 11.73 11.73 0 0 0 3.687-.605c6.115-2.042 9.417-8.646 7.375-14.76l-16.494-49.49a11.645 11.645 0 0 0-14.76-7.374c-6.115 2.041-9.417 8.646-7.375 14.76z" id="path2277" style="stroke-width:1.33333;fill:#e64539;fill-opacity:1"/><path d="m104.11 14.832 49.489 16.495c1.224.411 2.474.599 3.687.599 4.89 0 9.438-3.094 11.073-7.98 2.042-6.114-1.26-12.718-7.375-14.76l-49.49-16.494c-6.135-2.063-12.728 1.27-14.76 7.375-2.04 6.109 1.261 12.724 7.376 14.765Z" id="path2279" style="stroke-width:1.33333;fill:#e64539;fill-opacity:1"/><path d="M429.523 111.005c-4.563-4.562-11.938-4.562-16.495 0-4.563 4.563-4.563 11.938 0 16.495l32.995 32.995a11.63 11.63 0 0 0 8.25 3.416 11.66 11.66 0 0 0 8.25-3.416c4.562-4.563 4.562-11.938 0-16.495z" id="path2281" style="stroke-width:1.33333;fill:#e64539;fill-opacity:1"/><path d="M333.35 181.565c-2.032-6.104-8.62-9.448-14.76-7.375-6.115 2.032-9.417 8.636-7.376 14.76l16.495 49.49a11.676 11.676 0 0 0 11.073 7.979 11.73 11.73 0 0 0 3.687-.604c6.105-2.031 9.417-8.636 7.375-14.76z" id="path2283" style="stroke-width:1.33333;fill:#e64539;fill-opacity:1"/><path d="m540.456 25.685-49.49-16.494c-6.145-2.063-12.718 1.27-14.76 7.375-2.04 6.114 1.261 12.718 7.376 14.76L533.07 47.82a11.73 11.73 0 0 0 3.687.604c4.891 0 9.438-3.093 11.063-7.979 2.052-6.12-1.25-12.719-7.365-14.76z" id="path2285" style="stroke-width:1.33333;fill:#e64539;fill-opacity:1"/></g></svg>