<svg viewBox="0 0 512 512" style="height:512px;width:512px" version="1.1" id="svg21" xml:space="preserve" xmlns="http://www.w3.org/2000/svg"><defs id="defs13"><filter id="shadow-1" height="1.217" width="1.152" x="-.076" y="-.108"><feFlood flood-color="rgba(58, 63, 94, 1)" result="flood" id="feFlood2"/><feComposite in="flood" in2="SourceGraphic" operator="out" result="composite" id="feComposite4"/><feGaussianBlur in="composite" stdDeviation="15" result="blur" id="feGaussianBlur6"/><feOffset dx="0" dy="0" result="offset" id="feOffset8"/><feComposite in2="SourceGraphic" in="offset" operator="atop" id="feComposite10"/></filter><filter id="shadow-1-5" height="1.154" width="1.184" x="-.092" y="-.077"><feFlood flood-color="rgba(58, 63, 94, 1)" result="flood" id="feFlood2-3"/><feComposite in="flood" in2="SourceGraphic" operator="out" result="composite" id="feComposite4-5"/><feGaussianBlur in="composite" stdDeviation="15" result="blur" id="feGaussianBlur6-6"/><feOffset dx="0" dy="0" result="offset" id="feOffset8-2"/><feComposite in2="SourceGraphic" in="offset" operator="atop" id="feComposite10-9"/></filter><filter style="color-interpolation-filters:sRGB" id="filter1251" x="-.06" y="-.06" width="1.12" height="1.12"><feFlood flood-opacity="1" flood-color="#3A3F5E" result="flood" id="feFlood1241"/><feComposite in="flood" in2="SourceGraphic" operator="out" result="composite1" id="feComposite1243"/><feGaussianBlur in="composite1" stdDeviation=".8" result="blur" id="feGaussianBlur1245"/><feOffset dx="0" dy="0" result="offset" id="feOffset1247"/><feComposite in="offset" in2="SourceGraphic" operator="atop" result="composite2" id="feComposite1249"/></filter><filter style="color-interpolation-filters:sRGB" id="filter1501" x="-.064" y="-.076" width="1.129" height="1.151"><feFlood flood-opacity="1" flood-color="#3A3F5E" result="flood" id="feFlood1491"/><feComposite in="flood" in2="SourceGraphic" operator="out" result="composite1" id="feComposite1493"/><feGaussianBlur in="composite1" stdDeviation="11.491" result="blur" id="feGaussianBlur1495"/><feOffset dx="0" dy="0" result="offset" id="feOffset1497"/><feComposite in="offset" in2="SourceGraphic" operator="atop" result="composite2" id="feComposite1499"/></filter><filter style="color-interpolation-filters:sRGB" id="filter1235" x="-.893" y="-1.088" width="2.787" height="3.175"><feFlood flood-opacity="1" flood-color="#3A3F5E" result="flood" id="feFlood1225"/><feComposite in="flood" in2="SourceGraphic" operator="out" result="composite1" id="feComposite1227"/><feGaussianBlur in="composite1" stdDeviation="10.424" result="blur" id="feGaussianBlur1229"/><feOffset dx="0" dy="0" result="offset" id="feOffset1231"/><feComposite in="offset" in2="SourceGraphic" operator="atop" result="composite2" id="feComposite1233"/></filter><filter style="color-interpolation-filters:sRGB" id="filter2302" x="-.035" y="-.047" width="1.069" height="1.094"><feFlood flood-opacity="1" flood-color="#3A3F5E" result="flood" id="feFlood2292"/><feComposite in="flood" in2="SourceGraphic" operator="out" result="composite1" id="feComposite2294"/><feGaussianBlur in="composite1" stdDeviation="6.902" result="blur" id="feGaussianBlur2296"/><feOffset dx="0" dy="0" result="offset" id="feOffset2298"/><feComposite in="offset" in2="SourceGraphic" operator="atop" result="composite2" id="feComposite2300"/></filter></defs><path d="M0 0h512v512H0z" fill="#1b1f21" fill-opacity="1" id="path15"/><style type="text/css" id="style361">.st0{fill:#000}</style><g id="g2290" style="fill:#e64539;fill-opacity:1;filter:url(#filter2302)"><g id="g630" style="fill:#e64539;fill-opacity:1"><g id="g377" transform="translate(22.374 22.373) scale(.9126)" style="fill:#e64539;fill-opacity:1"><path class="st0" d="m274.326 147.552 62.35 6.409a7.012 7.012 0 0 0 7.621-5.775l2.62-15.214a6.996 6.996 0 0 0-1.546-5.701 6.996 6.996 0 0 0-5.354-2.497H275.04a7.004 7.004 0 0 0-7.003 7.003v8.806a6.998 6.998 0 0 0 6.289 6.969z" id="path363" style="fill:#e64539;fill-opacity:1"/><path class="st0" d="M100.884 334.266c11.67 0 21.133-9.46 21.133-21.136 0-11.683-9.463-21.13-21.133-21.13-11.673 0-21.136 9.447-21.136 21.13 0 11.676 9.463 21.136 21.136 21.136z" id="path367" style="fill:#e64539;fill-opacity:1"/><path class="st0" d="m151.822 225.368-9.857 30.382c2.974 2.163 5.815 4.493 8.418 7.09 12.692 12.718 20.492 30.116 20.502 49.496-.01 19.38-7.811 36.791-20.502 49.502-12.717 12.691-30.118 20.495-49.499 20.502-19.38-.007-36.781-7.811-49.499-20.502-12.69-12.711-20.495-30.122-20.502-49.502.007-19.381 7.811-36.778 20.502-49.496 12.711-12.684 30.105-20.488 49.476-20.502l9.861-30.382a101.865 101.865 0 0 0-9.838-.501C45.16 211.468.01 256.618 0 312.336c.01 55.73 45.16 100.873 100.884 100.887 55.725-.014 100.874-45.156 100.881-100.887-.004-37.113-20.095-69.451-49.943-86.968z" id="path369" style="fill:#e64539;fill-opacity:1"/><path class="st0" d="M344.263 291.513c1.158-3.732 2.684-7.304 4.426-10.742l-22.498-22.738c-6.466 10.094-11.235 21.363-13.779 33.48z" id="path371" style="fill:#e64539;fill-opacity:1"/><path id="path373" style="fill:#e64539;fill-opacity:1" class="st0" d="M411.115 211.455c-20.038.007-38.664 5.922-54.36 15.996l22.412 22.65c9.574-4.934 20.395-7.763 31.948-7.763 19.38.007 36.78 7.81 49.498 20.5 12.691 12.718 20.497 30.116 20.503 49.496a70.532 70.532 0 0 1-1.55 14.682c2.444-.12 4.46-.243 7.774-.309 6.177 0 11.588 4.509 13.215 11.012l3.486 13.95c5.122-12.086 7.957-25.377 7.96-39.333-.01-55.718-45.16-100.867-100.886-100.881zm-98.293 123.297c3.756 16.534 11.57 31.517 22.328 43.863l10.228-40.896c.064-.258.221-.458.297-.709-.282-.75-.579-1.495-.837-2.258h-32.016z"/><path id="path375" style="fill:#e64539;fill-opacity:1" class="st0" d="M102.3 98.777v18.534h31.132c4.876 0 9.466 2.335 12.334 6.275a15.251 15.251 0 0 1 2.17 13.671L100.74 282.755c.051-.007.096-.022.146-.022 6.533 0 12.554 2.117 17.513 5.642l35.33-108.911 91.124 138.753a9.239 9.239 0 0 0 7.743 4.178h126.917c.485-1.004.225-3.37.225-3.37s.244-3.984.244-5.895c0-3.245 1.382-6.322 2.334-9.26H265.87l31.827-92.197 86.574 87.497c.026-.05.063-.093.09-.144 2.184-6.031 5.75-11.366 10.3-15.706l-90.216-91.186 9.693-28.073-18.934-1.95-7.153 20.715-125.6-30.254 3.11-9.594a33.752 33.752 0 0 0-4.809-30.288 33.795 33.795 0 0 0-27.32-13.913zm70.01 75.225 109.67 26.423-31.808 92.142z"/></g></g><g style="fill:#e64539;fill-opacity:1" id="g2060" transform="translate(314.414 278.729) scale(.36501)"><path d="m513.252 445.86-73.03-292.13c-3.8-15.19-16.44-25.72-30.87-25.72h-60.25c3.57-10.05 5.88-20.72 5.88-32 0-53.02-42.98-96-96-96s-96 42.98-96 96c0 11.28 2.3 21.95 5.88 32h-60.25c-14.43 0-27.08 10.54-30.87 25.72L4.692 445.86c-8.33 33.31 14.66 66.14 46.31 66.14h415.95c31.64 0 54.63-32.83 46.3-66.14zM258.972 128c-17.64 0-32-14.36-32-32s14.36-32 32-32 32 14.36 32 32-14.36 32-32 32z" id="path2051" style="fill:#e64539;fill-opacity:1"/></g></g></svg>