<svg viewBox="0 0 512 512" style="height:512px;width:512px" xml:space="preserve" xmlns="http://www.w3.org/2000/svg"><defs><filter style="color-interpolation-filters:sRGB" id="a" x="-.06" y="-.06" width="1.12" height="1.12"><feFlood flood-opacity="1" flood-color="#3A3F5E" result="flood"/><feComposite in="flood" in2="SourceGraphic" operator="out" result="composite1"/><feGaussianBlur in="composite1" stdDeviation=".8" result="blur"/><feOffset result="offset"/><feComposite in="offset" in2="SourceGraphic" operator="atop" result="composite2"/></filter></defs><path d="M0 0h512v512H0z" fill="#1b1f21"/><g style="fill:#e64539;fill-opacity:1;filter:url(#a)" transform="translate(35.379 35.379) scale(13.78882)"><path d="M16 0C7.2 0 0 7.2 0 16s7.2 16 16 16 16-7.2 16-16S24.8 0 16 0Zm0 28C9.4 28 4 22.6 4 16S9.4 4 16 4s12 5.4 12 12-5.4 12-12 12z" style="fill:#e64539;fill-opacity:1"/><path d="M16 6C10.5 6 6 10.5 6 16s4.5 10 10 10 10-4.5 10-10S21.5 6 16 6Zm6.3 6.9 1-.3c.5-.2 1.1.1 1.3.6.2.5-.1 1.1-.6 1.3l-1 .3h-.3c-.4 0-.8-.3-1-.7-.2-.5.1-1 .6-1.2zm-3-3.2.6-.8c.3-.4.9-.5 1.4-.2.4.3.5 1 .2 1.4l-.6.8c-.2.3-.5.4-.8.4-.2 0-.4-.1-.6-.2-.4-.3-.5-.9-.2-1.4ZM15 8c0-.6.4-1 1-1s1 .4 1 1v1c0 .6-.4 1-1 1s-1-.4-1-1zm1 8c.6 0 1-.4 1-1v-3.9c2.3.5 4 2.5 4 4.9 0 2.8-2.2 5-5 5s-5-2.2-5-5c0-2.4 1.7-4.4 4-4.9V15c0 .6.4 1 1 1zm-5.3-7.3c.4-.3 1.1-.2 1.4.2l.6.8c.3.4.2 1.1-.2 1.4-.2.1-.4.2-.6.2-.3 0-.6-.1-.8-.4l-.6-.8c-.3-.4-.2-1.1.2-1.4Zm-3.3 4.5c.2-.5.7-.8 1.3-.6l1 .3c.5.2.8.7.6 1.3-.1.4-.5.7-1 .7H9l-1-.3c-.4-.3-.7-.9-.6-1.4Zm2.3 5.9-1 .3h-.3c-.4 0-.8-.3-1-.7-.2-.5.1-1.1.6-1.3l1-.3c.5-.2 1.1.1 1.3.6.2.7-.1 1.2-.6 1.4zm3 3.2-.6.8c-.2.3-.5.4-.8.4-.2 0-.4-.1-.6-.2-.4-.3-.5-1-.2-1.4l.6-.8c.3-.4.9-.5 1.4-.2.4.3.5.9.2 1.4zM17 24c0 .6-.4 1-1 1s-1-.4-1-1v-1c0-.6.4-1 1-1s1 .4 1 1zm4.3-.7c-.2.1-.4.2-.6.2-.3 0-.6-.1-.8-.4l-.6-.8c-.3-.4-.2-1.1.2-1.4.4-.3 1.1-.2 1.4.2l.6.8c.3.4.2 1.1-.2 1.4zm3.3-4.5c-.1.4-.5.7-1 .7h-.3l-1-.3c-.5-.2-.8-.7-.6-1.3.2-.5.7-.8 1.3-.6l1 .3c.4.1.7.7.6 1.2z" style="fill:#e64539;fill-opacity:1"/></g></svg>