<svg viewBox="0 0 512 512" style="height:512px;width:512px" version="1.1" id="svg21" xml:space="preserve" xmlns="http://www.w3.org/2000/svg"><defs id="defs13"><filter id="shadow-1" height="1.217" width="1.152" x="-.076" y="-.108"><feFlood flood-color="rgba(58, 63, 94, 1)" result="flood" id="feFlood2"/><feComposite in="flood" in2="SourceGraphic" operator="out" result="composite" id="feComposite4"/><feGaussianBlur in="composite" stdDeviation="15" result="blur" id="feGaussianBlur6"/><feOffset dx="0" dy="0" result="offset" id="feOffset8"/><feComposite in2="SourceGraphic" in="offset" operator="atop" id="feComposite10"/></filter><filter id="shadow-1-5" height="1.154" width="1.184" x="-.092" y="-.077"><feFlood flood-color="rgba(58, 63, 94, 1)" result="flood" id="feFlood2-3"/><feComposite in="flood" in2="SourceGraphic" operator="out" result="composite" id="feComposite4-5"/><feGaussianBlur in="composite" stdDeviation="15" result="blur" id="feGaussianBlur6-6"/><feOffset dx="0" dy="0" result="offset" id="feOffset8-2"/><feComposite in2="SourceGraphic" in="offset" operator="atop" id="feComposite10-9"/></filter><filter style="color-interpolation-filters:sRGB" id="filter1251" x="-.06" y="-.06" width="1.12" height="1.12"><feFlood flood-opacity="1" flood-color="#3A3F5E" result="flood" id="feFlood1241"/><feComposite in="flood" in2="SourceGraphic" operator="out" result="composite1" id="feComposite1243"/><feGaussianBlur in="composite1" stdDeviation=".8" result="blur" id="feGaussianBlur1245"/><feOffset dx="0" dy="0" result="offset" id="feOffset1247"/><feComposite in="offset" in2="SourceGraphic" operator="atop" result="composite2" id="feComposite1249"/></filter><filter style="color-interpolation-filters:sRGB" id="filter1501" x="-.064" y="-.076" width="1.129" height="1.151"><feFlood flood-opacity="1" flood-color="#3A3F5E" result="flood" id="feFlood1491"/><feComposite in="flood" in2="SourceGraphic" operator="out" result="composite1" id="feComposite1493"/><feGaussianBlur in="composite1" stdDeviation="11.491" result="blur" id="feGaussianBlur1495"/><feOffset dx="0" dy="0" result="offset" id="feOffset1497"/><feComposite in="offset" in2="SourceGraphic" operator="atop" result="composite2" id="feComposite1499"/></filter><filter style="color-interpolation-filters:sRGB" id="filter1235" x="-.893" y="-1.088" width="2.787" height="3.175"><feFlood flood-opacity="1" flood-color="#3A3F5E" result="flood" id="feFlood1225"/><feComposite in="flood" in2="SourceGraphic" operator="out" result="composite1" id="feComposite1227"/><feGaussianBlur in="composite1" stdDeviation="10.424" result="blur" id="feGaussianBlur1229"/><feOffset dx="0" dy="0" result="offset" id="feOffset1231"/><feComposite in="offset" in2="SourceGraphic" operator="atop" result="composite2" id="feComposite1233"/></filter><filter style="color-interpolation-filters:sRGB" id="filter1617" x="-.035" y="-.058" width="1.071" height="1.115"><feFlood flood-opacity="1" flood-color="#3A3F5E" result="flood" id="feFlood1607"/><feComposite in="flood" in2="SourceGraphic" operator="out" result="composite1" id="feComposite1609"/><feGaussianBlur in="composite1" stdDeviation="6.902" result="blur" id="feGaussianBlur1611"/><feOffset dx="0" dy="0" result="offset" id="feOffset1613"/><feComposite in="offset" in2="SourceGraphic" operator="atop" result="composite2" id="feComposite1615"/></filter><filter style="color-interpolation-filters:sRGB" id="filter3747" x="-.175" y="-.186" width="1.351" height="1.372"><feFlood flood-opacity="1" flood-color="#3A3F5E" result="flood" id="feFlood3737"/><feComposite in="flood" in2="SourceGraphic" operator="out" result="composite1" id="feComposite3739"/><feGaussianBlur in="composite1" stdDeviation="3.34" result="blur" id="feGaussianBlur3741"/><feOffset dx="0" dy="0" result="offset" id="feOffset3743"/><feComposite in="offset" in2="SourceGraphic" operator="atop" result="composite2" id="feComposite3745"/></filter><filter style="color-interpolation-filters:sRGB" id="filter354" x="-.052" y="-.056" width="1.105" height="1.112"><feFlood flood-opacity="1" flood-color="#3A3F5E" result="flood" id="feFlood344"/><feComposite in="flood" in2="SourceGraphic" operator="out" result="composite1" id="feComposite346"/><feGaussianBlur in="composite1" stdDeviation="1" result="blur" id="feGaussianBlur348"/><feOffset dx="0" dy="0" result="offset" id="feOffset350"/><feComposite in="offset" in2="SourceGraphic" operator="atop" result="composite2" id="feComposite352"/></filter></defs><path d="M0 0h512v512H0z" fill="#1b1f21" fill-opacity="1" id="path15"/><style type="text/css" id="style361">.st0{fill:#000}</style><g style="fill:#e64539;fill-opacity:1;filter:url(#filter354)" id="g3288" transform="matrix(-8.92939 0 0 8.92939 479.318 28.014)"><path d="M10.816 4.008a2.016 2.016 0 0 0-1.539.687l-6.634 7.57a1.994 1.994 0 0 0-.46 1.692L5.716 32.5a2 2 0 0 0 1.806 1.62l2.497.196 2.002.159a9.473 9.473 0 0 0-.506 3.039c0 5.262 4.28 9.543 9.543 9.543 5.262 0 9.543-4.281 9.543-9.543a9.51 9.51 0 0 0-.145-1.584l2.004.158 10.436.824a2 2 0 0 0 1.763-.803l2.819-3.804a1.996 1.996 0 0 0 .347-1.621c-1.037-4.736-7.37-26.234-37.009-26.676zm5.448 2.254c2.183.318 4.315.738 6.38 1.304.347.093.682.198 1.022.3a39.605 39.605 0 0 1 3.021 1.046 34.698 34.698 0 0 1 2.594 1.149 32.84 32.84 0 0 1 1.637.867c.21.12.423.233.629.357.648.388 1.28.811 1.906 1.252.176.125.355.246.53.375a29.898 29.898 0 0 1 2.341 1.928 31.21 31.21 0 0 1 1.703 1.66c.118.125.23.258.346.385.248.27.5.535.742.818 1.046 1.224 1.67 2.03 2.537 3.451a32.335 32.335 0 0 1 1.416 2.457c.205.367.423.758.66 1.19l-26.886-5.639a5.638 5.638 0 0 1-3.729-3.139c-.709-1.563-.675-3.34.037-4.775zm4.793 23.71c4.159 0 7.543 3.385 7.543 7.544s-3.384 7.543-7.543 7.543c-4.16 0-7.543-3.384-7.543-7.543 0-4.16 3.384-7.543 7.543-7.543zm0 5.571a1.971 1.971 0 0 0-1.971 1.97 1.971 1.971 0 0 0 1.97 1.971 1.971 1.971 0 0 0 1.971-1.97 1.971 1.971 0 0 0-1.97-1.971z" id="path3279" style="fill:#e64539;fill-opacity:1"/></g></svg>