<svg version="1.2" id="Layer_1" x="0" y="0" viewBox="-421 153 512 512" xml:space="preserve" width="512" height="512" xmlns:xlink="http://www.w3.org/1999/xlink" xmlns="http://www.w3.org/2000/svg"><defs id="defs7"><filter style="color-interpolation-filters:sRGB" id="filter980" x="-.192" y="-.155" width="1.374" height="1.301"><feFlood flood-opacity="1" flood-color="#3A3F5E" result="flood" id="feFlood970"/><feComposite in="flood" in2="SourceGraphic" operator="out" result="composite1" id="feComposite972"/><feGaussianBlur in="composite1" stdDeviation="15" result="blur" id="feGaussianBlur974"/><feOffset dx="0" dy="0" result="offset" id="feOffset976"/><feComposite in="offset" in2="SourceGraphic" operator="atop" result="composite2" id="feComposite978"/></filter><filter style="color-interpolation-filters:sRGB" id="filter1066" x="-.059" y="-.048" width="1.119" height="1.096"><feFlood flood-opacity="1" flood-color="#3A3F5E" result="flood" id="feFlood1056"/><feComposite in="flood" in2="SourceGraphic" operator="out" result="composite1" id="feComposite1058"/><feGaussianBlur in="composite1" stdDeviation="9.788" result="blur" id="feGaussianBlur1060"/><feOffset dx="0" dy="0" result="offset" id="feOffset1062"/><feComposite in="offset" in2="SourceGraphic" operator="atop" result="composite2" id="feComposite1064"/></filter><filter style="color-interpolation-filters:sRGB" id="filter3800" x="-.061" y="-.061" width="1.123" height="1.123"><feFlood flood-opacity="1" flood-color="#3A3F5E" result="flood" id="feFlood3790"/><feComposite in="flood" in2="SourceGraphic" operator="out" result="composite1" id="feComposite3792"/><feGaussianBlur in="composite1" stdDeviation="12.098" result="blur" id="feGaussianBlur3794"/><feOffset dx="0" dy="0" result="offset" id="feOffset3796"/><feComposite in="offset" in2="SourceGraphic" operator="atop" result="composite2" id="feComposite3798"/></filter><filter style="color-interpolation-filters:sRGB" id="filter4260" x="-.057" y="-.057" width="1.113" height="1.113"><feFlood flood-opacity="1" flood-color="#3A3F5E" result="flood" id="feFlood4250"/><feComposite in="flood" in2="SourceGraphic" operator="out" result="composite1" id="feComposite4252"/><feGaussianBlur in="composite1" stdDeviation="12.1" result="blur" id="feGaussianBlur4254"/><feOffset dx="0" dy="0" result="offset" id="feOffset4256"/><feComposite in="offset" in2="SourceGraphic" operator="atop" result="composite2" id="feComposite4258"/></filter><filter style="color-interpolation-filters:sRGB" id="filter893" x="-.099" y="-.077" width="1.198" height="1.153"><feFlood flood-opacity="1" flood-color="#3A3F5E" result="flood" id="feFlood883"/><feComposite in="flood" in2="SourceGraphic" operator="out" result="composite1" id="feComposite885"/><feGaussianBlur in="composite1" stdDeviation="15" result="blur" id="feGaussianBlur887"/><feOffset dx="0" dy="0" result="offset" id="feOffset889"/><feComposite in="offset" in2="SourceGraphic" operator="atop" result="composite2" id="feComposite891"/></filter><filter style="color-interpolation-filters:sRGB" id="filter911" x="-.165" y="-.173" width="1.321" height="1.336"><feFlood flood-opacity="1" flood-color="#3A3F5E" result="flood" id="feFlood901"/><feComposite in="flood" in2="SourceGraphic" operator="out" result="composite1" id="feComposite903"/><feGaussianBlur in="composite1" stdDeviation="15" result="blur" id="feGaussianBlur905"/><feOffset dx="0" dy="0" result="offset" id="feOffset907"/><feComposite in="offset" in2="SourceGraphic" operator="atop" result="composite2" id="feComposite909"/></filter><filter style="color-interpolation-filters:sRGB" id="filter937" x="-.064" y="-.067" width="1.129" height="1.135"><feFlood flood-opacity="1" flood-color="#3A3F5E" result="flood" id="feFlood927"/><feComposite in="flood" in2="SourceGraphic" operator="out" result="composite1" id="feComposite929"/><feGaussianBlur in="composite1" stdDeviation="12.382" result="blur" id="feGaussianBlur931"/><feOffset dx="0" dy="0" result="offset" id="feOffset933"/><feComposite in="offset" in2="SourceGraphic" operator="atop" result="composite2" id="feComposite935"/></filter><filter style="color-interpolation-filters:sRGB" id="filter980-0" x="-.192" y="-.155" width="1.374" height="1.301"><feFlood flood-opacity="1" flood-color="#3A3F5E" result="flood" id="feFlood970-0"/><feComposite in="flood" in2="SourceGraphic" operator="out" result="composite1" id="feComposite972-4"/><feGaussianBlur in="composite1" stdDeviation="15" result="blur" id="feGaussianBlur974-6"/><feOffset dx="0" dy="0" result="offset" id="feOffset976-2"/><feComposite in="offset" in2="SourceGraphic" operator="atop" result="composite2" id="feComposite978-6"/></filter><filter style="color-interpolation-filters:sRGB" id="filter1066-7" x="-.059" y="-.048" width="1.119" height="1.096"><feFlood flood-opacity="1" flood-color="#3A3F5E" result="flood" id="feFlood1056-5"/><feComposite in="flood" in2="SourceGraphic" operator="out" result="composite1" id="feComposite1058-6"/><feGaussianBlur in="composite1" stdDeviation="9.788" result="blur" id="feGaussianBlur1060-9"/><feOffset dx="0" dy="0" result="offset" id="feOffset1062-8"/><feComposite in="offset" in2="SourceGraphic" operator="atop" result="composite2" id="feComposite1064-7"/></filter><filter style="color-interpolation-filters:sRGB" id="filter3800-2" x="-.061" y="-.061" width="1.123" height="1.123"><feFlood flood-opacity="1" flood-color="#3A3F5E" result="flood" id="feFlood3790-8"/><feComposite in="flood" in2="SourceGraphic" operator="out" result="composite1" id="feComposite3792-2"/><feGaussianBlur in="composite1" stdDeviation="12.098" result="blur" id="feGaussianBlur3794-9"/><feOffset dx="0" dy="0" result="offset" id="feOffset3796-9"/><feComposite in="offset" in2="SourceGraphic" operator="atop" result="composite2" id="feComposite3798-6"/></filter><filter style="color-interpolation-filters:sRGB" id="filter4260-0" x="-.057" y="-.057" width="1.113" height="1.113"><feFlood flood-opacity="1" flood-color="#3A3F5E" result="flood" id="feFlood4250-2"/><feComposite in="flood" in2="SourceGraphic" operator="out" result="composite1" id="feComposite4252-7"/><feGaussianBlur in="composite1" stdDeviation="12.1" result="blur" id="feGaussianBlur4254-6"/><feOffset dx="0" dy="0" result="offset" id="feOffset4256-1"/><feComposite in="offset" in2="SourceGraphic" operator="atop" result="composite2" id="feComposite4258-3"/></filter><filter style="color-interpolation-filters:sRGB" id="filter893-2" x="-.099" y="-.077" width="1.198" height="1.153"><feFlood flood-opacity="1" flood-color="#3A3F5E" result="flood" id="feFlood883-1"/><feComposite in="flood" in2="SourceGraphic" operator="out" result="composite1" id="feComposite885-5"/><feGaussianBlur in="composite1" stdDeviation="15" result="blur" id="feGaussianBlur887-9"/><feOffset dx="0" dy="0" result="offset" id="feOffset889-9"/><feComposite in="offset" in2="SourceGraphic" operator="atop" result="composite2" id="feComposite891-1"/></filter><filter style="color-interpolation-filters:sRGB" id="filter1024" x="-.167" y="-.347" width="1.325" height="1.676"><feFlood flood-opacity="1" flood-color="#3A3F5E" result="flood" id="feFlood1014"/><feComposite in="flood" in2="SourceGraphic" operator="out" result="composite1" id="feComposite1016"/><feGaussianBlur in="composite1" stdDeviation="15" result="blur" id="feGaussianBlur1018"/><feOffset dx="0" dy="0" result="offset" id="feOffset1020"/><feComposite in="offset" in2="SourceGraphic" operator="atop" result="composite2" id="feComposite1022"/></filter><filter style="color-interpolation-filters:sRGB" id="filter1157" x="-.054" y="-.113" width="1.109" height="1.227"><feFlood flood-opacity="1" flood-color="#3A3F5E" result="flood" id="feFlood1147"/><feComposite in="flood" in2="SourceGraphic" operator="out" result="composite1" id="feComposite1149"/><feGaussianBlur in="composite1" stdDeviation="10.341" result="blur" id="feGaussianBlur1151"/><feOffset dx="0" dy="0" result="offset" id="feOffset1153"/><feComposite in="offset" in2="SourceGraphic" operator="atop" result="composite2" id="feComposite1155"/></filter><filter style="color-interpolation-filters:sRGB" id="filter6484" x="-.061" y="-.078" width="1.122" height="1.156"><feFlood flood-opacity="1" flood-color="#3A3F5E" result="flood" id="feFlood6474"/><feComposite in="flood" in2="SourceGraphic" operator="out" result="composite1" id="feComposite6476"/><feGaussianBlur in="composite1" stdDeviation="13" result="blur" id="feGaussianBlur6478"/><feOffset dx="0" dy="0" result="offset" id="feOffset6480"/><feComposite in="offset" in2="SourceGraphic" operator="atop" result="composite2" id="feComposite6482"/></filter><filter style="color-interpolation-filters:sRGB" id="filter1024-1" x="-.167" y="-.347" width="1.325" height="1.676"><feFlood flood-opacity="1" flood-color="#3A3F5E" result="flood" id="feFlood1014-2"/><feComposite in="flood" in2="SourceGraphic" operator="out" result="composite1" id="feComposite1016-0"/><feGaussianBlur in="composite1" stdDeviation="15" result="blur" id="feGaussianBlur1018-7"/><feOffset dx="0" dy="0" result="offset" id="feOffset1020-3"/><feComposite in="offset" in2="SourceGraphic" operator="atop" result="composite2" id="feComposite1022-1"/></filter><filter style="color-interpolation-filters:sRGB" id="filter1157-1" x="-.054" y="-.113" width="1.109" height="1.227"><feFlood flood-opacity="1" flood-color="#3A3F5E" result="flood" id="feFlood1147-9"/><feComposite in="flood" in2="SourceGraphic" operator="out" result="composite1" id="feComposite1149-0"/><feGaussianBlur in="composite1" stdDeviation="10.341" result="blur" id="feGaussianBlur1151-5"/><feOffset dx="0" dy="0" result="offset" id="feOffset1153-6"/><feComposite in="offset" in2="SourceGraphic" operator="atop" result="composite2" id="feComposite1155-7"/></filter><linearGradient id="linearGradient6446"><stop style="stop-color:#000;stop-opacity:1" offset="0" id="stop6442"/><stop style="stop-color:#000;stop-opacity:0" offset="1" id="stop6444"/></linearGradient><linearGradient xlink:href="#linearGradient6446" id="linearGradient6448" x1=".001" y1="256" x2="511.999" y2="256" gradientUnits="userSpaceOnUse"/></defs><g id="g439" transform="translate(-421 153)" style="fill:#1b1f21;fill-opacity:1"><g id="g1182" transform="translate(131.265 78.461)" style="fill:#1b1f21;fill-opacity:1"><g id="g541" transform="translate(26.047 -8.003)" style="fill:#1b1f21;fill-opacity:1"><g id="g319" transform="translate(-157.313 -70.459)" style="fill:#1b1f21;fill-opacity:1"><g id="g949" style="fill:#1b1f21;fill-opacity:1"><path d="M0 0h512v512H0Z" fill="#b90202" fill-opacity="1" id="path902" style="fill:#1b1f21;fill-opacity:1"/></g></g></g></g></g><style type="text/css" id="style4077">.st0{fill:#000}</style><g id="g4113" transform="translate(-403.478 170.522) scale(.93156)" style="fill:#e64539;fill-opacity:1;filter:url(#filter4260)"><path class="st0" d="M167.314 14.993C167.314 6.712 160.603 0 152.332 0h-5.514c-8.27 0-14.982 6.712-14.982 14.993V56.46h35.478z" id="path4079" style="fill:#e64539;fill-opacity:1"/><path class="st0" d="M238.261 14.993C238.261 6.712 231.549 0 223.279 0h-5.504c-8.271 0-14.982 6.712-14.982 14.993V56.46h35.468V14.993Z" id="path4081" style="fill:#e64539;fill-opacity:1"/><path class="st0" d="M309.207 14.993C309.207 6.712 302.496 0 294.225 0h-5.504c-8.271 0-14.982 6.712-14.982 14.993V56.46h35.468z" id="path4083" style="fill:#e64539;fill-opacity:1"/><path class="st0" d="M380.164 14.993C380.164 6.712 373.452 0 365.182 0h-5.514c-8.271 0-14.982 6.712-14.982 14.993V56.46h35.478V14.993Z" id="path4085" style="fill:#e64539;fill-opacity:1"/><path class="st0" d="M131.836 497.007c0 8.281 6.712 14.993 14.982 14.993h5.514c8.27 0 14.982-6.712 14.982-14.993V455.55h-35.478z" id="path4087" style="fill:#e64539;fill-opacity:1"/><path class="st0" d="M202.793 497.007c0 8.281 6.711 14.993 14.982 14.993h5.504c8.271 0 14.982-6.712 14.982-14.993V455.55h-35.468z" id="path4089" style="fill:#e64539;fill-opacity:1"/><path class="st0" d="M273.739 497.007c0 8.281 6.711 14.993 14.982 14.993h5.504c8.271 0 14.982-6.712 14.982-14.993V455.55h-35.468z" id="path4091" style="fill:#e64539;fill-opacity:1"/><path class="st0" d="M344.685 497.007c0 8.281 6.712 14.993 14.982 14.993h5.514c8.27 0 14.982-6.712 14.982-14.993V455.55h-35.478z" id="path4093" style="fill:#e64539;fill-opacity:1"/><path class="st0" d="M497.017 131.836h-41.466v35.478h41.466c8.272 0 14.982-6.711 14.982-14.992v-5.494c0-8.281-6.71-14.992-14.982-14.992z" id="path4095" style="fill:#e64539;fill-opacity:1"/><path class="st0" d="M497.017 202.792h-41.466v35.468h41.466c8.272 0 14.982-6.712 14.982-14.982v-5.493c0-8.281-6.71-14.993-14.982-14.993z" id="path4097" style="fill:#e64539;fill-opacity:1"/><path class="st0" d="M497.017 273.739h-41.466v35.468h41.466c8.272 0 14.982-6.712 14.982-14.993v-5.493c0-8.271-6.71-14.982-14.982-14.982z" id="path4099" style="fill:#e64539;fill-opacity:1"/><path class="st0" d="M497.017 344.685h-41.466v35.478h41.466c8.272 0 14.982-6.712 14.982-14.993v-5.493c0-8.28-6.71-14.992-14.982-14.992z" id="path4101" style="fill:#e64539;fill-opacity:1"/><path class="st0" d="M.001 146.828v5.494c0 8.281 6.712 14.992 14.982 14.992H56.46v-35.478H14.983c-8.27 0-14.982 6.711-14.982 14.992z" id="path4103" style="fill:#e64539;fill-opacity:1"/><path class="st0" d="M.001 217.786v5.493c0 8.27 6.712 14.982 14.982 14.982H56.46v-35.468H14.983c-8.27-.001-14.982 6.711-14.982 14.993z" id="path4105" style="fill:#e64539;fill-opacity:1"/><path class="st0" d="M.001 288.722v5.493c0 8.281 6.712 14.993 14.982 14.993H56.46V273.74H14.983c-8.27-.001-14.982 6.71-14.982 14.982z" id="path4107" style="fill:#e64539;fill-opacity:1"/><path class="st0" d="M.001 359.678v5.493c0 8.281 6.712 14.993 14.982 14.993H56.46v-35.478H14.983c-8.27-.001-14.982 6.711-14.982 14.992z" id="path4109" style="fill:#e64539;fill-opacity:1"/><path id="path4111" style="fill:#e64539;fill-opacity:1" class="st0" d="M78.627 78.627v354.754h354.754V78.627H78.627zM256 182c43.615 0 87.23 3.607 130.832 10.82l3.935.65.975 3.868c.125.5.242.99.365 1.487h7.256l10.82 42.962h-10.759c1.774 23.518-.785 45.694-7.684 73.088l-.726 2.883-2.719 1.2c-33.374 14.723-58.098 14.723-91.472 0-15.072-6.65-22.313-19.066-27.614-28.414-2.651-4.674-4.94-8.627-7.05-10.942-2.108-2.316-3.412-3.089-6.159-3.089s-4.048.773-6.158 3.089c-2.11 2.315-4.4 6.268-7.05 10.942-5.303 9.348-12.543 21.764-27.615 28.414-33.374 14.723-58.098 14.723-91.472 0l-2.43-1.072-.866-2.51c-9.504-27.515-12.46-49.94-9.984-73.589h-8.609l10.82-42.964h7.16c.186-.604.365-1.203.554-1.812l1.118-3.576 3.7-.615a814.989 814.989 0 0 1 35.897-5.113c.086-.17.168-.34.253-.51l.776.388a804.71 804.71 0 0 1 28.921-2.914l.065-.166h2.088A793.537 793.537 0 0 1 256 182zm0 12.168c-8.674 0-17.35.158-26.025.453-15.584 37.085-26.112 75.619-27.976 116.631a194.564 194.564 0 0 0 8.265-3.43c11.327-4.997 16.71-14.063 21.94-23.285 2.614-4.61 5.069-9.215 8.64-13.135 3.57-3.92 8.887-7.062 15.156-7.062 6.27 0 11.586 3.142 15.157 7.062 3.57 3.92 6.024 8.525 8.64 13.135 5.23 9.222 10.614 18.286 21.94 23.283 30.58 13.49 49.053 13.783 78.882 1.12 9.57-39.25 9.633-65.663.225-104.689-41.622-6.673-83.233-10.083-124.844-10.083zm-69.778 3.17a791.892 791.892 0 0 0-17.148 1.74c-16.998 36.138-24.78 74.376-26.005 114.338 5.807 1.948 11.246 3.301 16.536 4.057 4.364-41.834 12.873-82.024 26.617-120.135zm-31.286 3.454a822.772 822.772 0 0 0-24.02 3.493c-11.849 39.24-12.943 65.2.148 104.397 1.581-37.268 8.837-73.443 23.874-107.888l-.002-.002zm177.738 2.981c13.925 0 27.39 2.89 40.02 8.59.35.158.63.438.788.788a97.336 97.336 0 0 1 0 80.052c-.158.35-.438.63-.788.788-12.63 5.7-26.094 8.591-40.029 8.592-13.925 0-27.39-2.892-40.02-8.592a1.576 1.576 0 0 1-.788-.788 97.337 97.337 0 0 1 0-80.052c.158-.35.438-.63.788-.788 12.63-5.7 26.094-8.59 40.029-8.59zm-1.581 3.166a94.492 94.492 0 0 0-15.153 1.463c-1.746 6.514-3.088 13.368-4.02 20.413a190.252 190.252 0 0 1 19.173-1.122V206.94zm3.153 0v20.754c6.465.053 12.893.432 19.176 1.122-.938-7.1-2.286-13.931-4.024-20.413a94.464 94.464 0 0 0-15.152-1.463zm-21.748 2.149a93.585 93.585 0 0 0-18.012 5.906 94.045 94.045 0 0 0-5.9 18.01c6.395-1.64 13.148-2.918 20.106-3.807.885-6.923 2.153-13.671 3.806-20.109zm40.341 0c1.647 6.408 2.92 13.135 3.81 20.109 6.957.89 13.71 2.166 20.104 3.807a94.053 94.053 0 0 0-5.902-18.01 93.571 93.571 0 0 0-18.012-5.906zm-21.746 21.799c-6.575.053-13.14.44-19.572 1.165a186.801 186.801 0 0 0-1.179 19.547h20.75v-20.712zm3.153 0v20.712h20.748a192.24 192.24 0 0 0-.165-6.51 1.579 1.579 0 0 1 1.51-1.644c.874-.04 1.604.64 1.64 1.51.095 2.218.15 4.434.169 6.644h20.777a94.239 94.239 0 0 0-1.484-15.15c-6.506-1.743-13.36-3.075-20.405-4 .223 2.034.413 4.086.57 6.157a1.577 1.577 0 0 1-3.144.24 184.007 184.007 0 0 0-.646-6.794 188.694 188.694 0 0 0-19.57-1.165zm-25.944 1.562c-7.044.925-13.898 2.259-20.404 4.002a94.213 94.213 0 0 0-1.484 15.148h20.777a190.42 190.42 0 0 1 1.111-19.15zm-21.888 22.306a94.213 94.213 0 0 0 1.484 15.148c6.508 1.743 13.366 3.08 20.413 4.004a190.29 190.29 0 0 1-1.122-19.152h-20.775zm23.926 0c.055 6.546.448 13.098 1.183 19.546a188.751 188.751 0 0 0 19.57 1.166v-20.712H310.34zm23.906 0v20.712a188.77 188.77 0 0 0 19.58-1.168 186.112 186.112 0 0 0 1.17-19.544h-20.75zm23.904 0a189.746 189.746 0 0 1-1.107 19.15c7.042-.925 13.894-2.26 20.398-4.002a94.213 94.213 0 0 0 1.484-15.148H358.15zm-69.564 18.595a94.04 94.04 0 0 0 5.9 18.01 93.605 93.605 0 0 0 18.014 5.906 156.122 156.122 0 0 1-1.464-6.238 1.578 1.578 0 0 1 3.084-.658 151.06 151.06 0 0 0 1.818 7.58 94.466 94.466 0 0 0 15.155 1.463V278.66a190.406 190.406 0 0 1-19.17-1.121c.298 2.249.636 4.484 1.02 6.698a1.577 1.577 0 0 1-3.108.537 176.133 176.133 0 0 1-1.143-7.619c-6.958-.89-13.71-2.164-20.106-3.805zm88.167 0c-6.392 1.64-13.141 2.915-20.096 3.805-.887 6.937-2.162 13.677-3.816 20.11a93.566 93.566 0 0 0 18.01-5.905 94.059 94.059 0 0 0 5.902-18.01zm-23.327 4.187a190.36 190.36 0 0 1-19.18 1.123v20.753a94.49 94.49 0 0 0 15.155-1.464c1.745-6.507 3.09-13.353 4.025-20.412z"/></g></svg>