<svg version="1.2" id="Layer_1" x="0" y="0" viewBox="-421 153 512 512" xml:space="preserve" width="512" height="512" xmlns="http://www.w3.org/2000/svg"><defs id="defs7"><filter style="color-interpolation-filters:sRGB" id="filter980" x="-.192" y="-.155" width="1.374" height="1.301"><feFlood flood-opacity="1" flood-color="#3A3F5E" result="flood" id="feFlood970"/><feComposite in="flood" in2="SourceGraphic" operator="out" result="composite1" id="feComposite972"/><feGaussianBlur in="composite1" stdDeviation="15" result="blur" id="feGaussianBlur974"/><feOffset dx="0" dy="0" result="offset" id="feOffset976"/><feComposite in="offset" in2="SourceGraphic" operator="atop" result="composite2" id="feComposite978"/></filter><filter style="color-interpolation-filters:sRGB" id="filter1066" x="-.059" y="-.048" width="1.119" height="1.096"><feFlood flood-opacity="1" flood-color="#3A3F5E" result="flood" id="feFlood1056"/><feComposite in="flood" in2="SourceGraphic" operator="out" result="composite1" id="feComposite1058"/><feGaussianBlur in="composite1" stdDeviation="9.788" result="blur" id="feGaussianBlur1060"/><feOffset dx="0" dy="0" result="offset" id="feOffset1062"/><feComposite in="offset" in2="SourceGraphic" operator="atop" result="composite2" id="feComposite1064"/></filter><filter style="color-interpolation-filters:sRGB" id="filter3800" x="-.061" y="-.061" width="1.123" height="1.123"><feFlood flood-opacity="1" flood-color="#3A3F5E" result="flood" id="feFlood3790"/><feComposite in="flood" in2="SourceGraphic" operator="out" result="composite1" id="feComposite3792"/><feGaussianBlur in="composite1" stdDeviation="12.098" result="blur" id="feGaussianBlur3794"/><feOffset dx="0" dy="0" result="offset" id="feOffset3796"/><feComposite in="offset" in2="SourceGraphic" operator="atop" result="composite2" id="feComposite3798"/></filter><filter style="color-interpolation-filters:sRGB" id="filter4260" x="-.057" y="-.057" width="1.113" height="1.113"><feFlood flood-opacity="1" flood-color="#3A3F5E" result="flood" id="feFlood4250"/><feComposite in="flood" in2="SourceGraphic" operator="out" result="composite1" id="feComposite4252"/><feGaussianBlur in="composite1" stdDeviation="12.1" result="blur" id="feGaussianBlur4254"/><feOffset dx="0" dy="0" result="offset" id="feOffset4256"/><feComposite in="offset" in2="SourceGraphic" operator="atop" result="composite2" id="feComposite4258"/></filter><filter style="color-interpolation-filters:sRGB" id="filter893" x="-.099" y="-.077" width="1.198" height="1.153"><feFlood flood-opacity="1" flood-color="#3A3F5E" result="flood" id="feFlood883"/><feComposite in="flood" in2="SourceGraphic" operator="out" result="composite1" id="feComposite885"/><feGaussianBlur in="composite1" stdDeviation="15" result="blur" id="feGaussianBlur887"/><feOffset dx="0" dy="0" result="offset" id="feOffset889"/><feComposite in="offset" in2="SourceGraphic" operator="atop" result="composite2" id="feComposite891"/></filter><filter style="color-interpolation-filters:sRGB" id="filter893-7" x="-.16" y="-.161" width="1.312" height="1.314"><feFlood flood-opacity="1" flood-color="#3A3F5E" result="flood" id="feFlood883-7"/><feComposite in="flood" in2="SourceGraphic" operator="out" result="composite1" id="feComposite885-5"/><feGaussianBlur in="composite1" stdDeviation="15" result="blur" id="feGaussianBlur887-4"/><feOffset dx="0" dy="0" result="offset" id="feOffset889-8"/><feComposite in="offset" in2="SourceGraphic" operator="atop" result="composite2" id="feComposite891-1"/></filter><filter style="color-interpolation-filters:sRGB" id="filter937" x="-.075" y="-.075" width="1.149" height="1.15"><feFlood flood-opacity="1" flood-color="#3A3F5E" result="flood" id="feFlood927"/><feComposite in="flood" in2="SourceGraphic" operator="out" result="composite1" id="feComposite929"/><feGaussianBlur in="composite1" stdDeviation="14.772" result="blur" id="feGaussianBlur931"/><feOffset dx="0" dy="0" result="offset" id="feOffset933"/><feComposite in="offset" in2="SourceGraphic" operator="atop" result="composite2" id="feComposite935"/></filter><filter style="color-interpolation-filters:sRGB" id="filter887" x="-.161" y="-.162" width="1.313" height="1.316"><feFlood flood-opacity="1" flood-color="#3A3F5E" result="flood" id="feFlood877"/><feComposite in="flood" in2="SourceGraphic" operator="out" result="composite1" id="feComposite879"/><feGaussianBlur in="composite1" stdDeviation="15" result="blur" id="feGaussianBlur881"/><feOffset dx="0" dy="0" result="offset" id="feOffset883"/><feComposite in="offset" in2="SourceGraphic" operator="atop" result="composite2" id="feComposite885-2"/></filter><filter style="color-interpolation-filters:sRGB" id="filter937-8" x="-.059" y="-.06" width="1.119" height="1.12"><feFlood flood-opacity="1" flood-color="#3A3F5E" result="flood" id="feFlood927-9"/><feComposite in="flood" in2="SourceGraphic" operator="out" result="composite1" id="feComposite929-3"/><feGaussianBlur in="composite1" stdDeviation="11.723" result="blur" id="feGaussianBlur931-6"/><feOffset dx="0" dy="0" result="offset" id="feOffset933-8"/><feComposite in="offset" in2="SourceGraphic" operator="atop" result="composite2" id="feComposite935-0"/></filter><filter style="color-interpolation-filters:sRGB" id="filter893-1" x="-.162" y="-.161" width="1.315" height="1.314"><feFlood flood-opacity="1" flood-color="#3A3F5E" result="flood" id="feFlood883-0"/><feComposite in="flood" in2="SourceGraphic" operator="out" result="composite1" id="feComposite885-51"/><feGaussianBlur in="composite1" stdDeviation="15" result="blur" id="feGaussianBlur887-1"/><feOffset dx="0" dy="0" result="offset" id="feOffset889-0"/><feComposite in="offset" in2="SourceGraphic" operator="atop" result="composite2" id="feComposite891-8"/></filter><filter style="color-interpolation-filters:sRGB" id="filter937-5" x="-.063" y="-.063" width="1.127" height="1.126"><feFlood flood-opacity="1" flood-color="#3A3F5E" result="flood" id="feFlood927-0"/><feComposite in="flood" in2="SourceGraphic" operator="out" result="composite1" id="feComposite929-6"/><feGaussianBlur in="composite1" stdDeviation="12.382" result="blur" id="feGaussianBlur931-4"/><feOffset dx="0" dy="0" result="offset" id="feOffset933-6"/><feComposite in="offset" in2="SourceGraphic" operator="atop" result="composite2" id="feComposite935-2"/></filter><filter style="color-interpolation-filters:sRGB" id="filter893-8" x="-.157" y="-.157" width="1.305" height="1.305"><feFlood flood-opacity="1" flood-color="#3A3F5E" result="flood" id="feFlood883-6"/><feComposite in="flood" in2="SourceGraphic" operator="out" result="composite1" id="feComposite885-28"/><feGaussianBlur in="composite1" stdDeviation="15" result="blur" id="feGaussianBlur887-47"/><feOffset dx="0" dy="0" result="offset" id="feOffset889-2"/><feComposite in="offset" in2="SourceGraphic" operator="atop" result="composite2" id="feComposite891-4"/></filter><filter style="color-interpolation-filters:sRGB" id="filter1451" x="-.074" y="-.074" width="1.148" height="1.148"><feFlood flood-opacity="1" flood-color="#3A3F5E" result="flood" id="feFlood1441"/><feComposite in="flood" in2="SourceGraphic" operator="out" result="composite1" id="feComposite1443"/><feGaussianBlur in="composite1" stdDeviation="14.95" result="blur" id="feGaussianBlur1445"/><feOffset dx="0" dy="0" result="offset" id="feOffset1447"/><feComposite in="offset" in2="SourceGraphic" operator="atop" result="composite2" id="feComposite1449"/></filter><filter style="color-interpolation-filters:sRGB" id="filter893-6" x="-.19" y="-.16" width="1.37" height="1.312"><feFlood flood-opacity="1" flood-color="#3A3F5E" result="flood" id="feFlood883-2"/><feComposite in="flood" in2="SourceGraphic" operator="out" result="composite1" id="feComposite885-9"/><feGaussianBlur in="composite1" stdDeviation="15" result="blur" id="feGaussianBlur887-9"/><feOffset dx="0" dy="0" result="offset" id="feOffset889-08"/><feComposite in="offset" in2="SourceGraphic" operator="atop" result="composite2" id="feComposite891-13"/></filter><filter style="color-interpolation-filters:sRGB" id="filter937-1" x="-.057" y="-.048" width="1.114" height="1.096"><feFlood flood-opacity="1" flood-color="#3A3F5E" result="flood" id="feFlood927-1"/><feComposite in="flood" in2="SourceGraphic" operator="out" result="composite1" id="feComposite929-0"/><feGaussianBlur in="composite1" stdDeviation="9.472" result="blur" id="feGaussianBlur931-3"/><feOffset dx="0" dy="0" result="offset" id="feOffset933-4"/><feComposite in="offset" in2="SourceGraphic" operator="atop" result="composite2" id="feComposite935-03"/></filter><filter style="color-interpolation-filters:sRGB" id="filter893-19" x="-.161" y="-.159" width="1.313" height="1.31"><feFlood flood-opacity="1" flood-color="#3A3F5E" result="flood" id="feFlood883-69"/><feComposite in="flood" in2="SourceGraphic" operator="out" result="composite1" id="feComposite885-3"/><feGaussianBlur in="composite1" stdDeviation="15" result="blur" id="feGaussianBlur887-3"/><feOffset dx="0" dy="0" result="offset" id="feOffset889-80"/><feComposite in="offset" in2="SourceGraphic" operator="atop" result="composite2" id="feComposite891-5"/></filter><filter style="color-interpolation-filters:sRGB" id="filter1027" x="-.06" y="-.059" width="1.119" height="1.118"><feFlood flood-opacity="1" flood-color="#3A3F5E" result="flood" id="feFlood1017"/><feComposite in="flood" in2="SourceGraphic" operator="out" result="composite1" id="feComposite1019"/><feGaussianBlur in="composite1" stdDeviation="11.723" result="blur" id="feGaussianBlur1021"/><feOffset dx="0" dy="0" result="offset" id="feOffset1023"/><feComposite in="offset" in2="SourceGraphic" operator="atop" result="composite2" id="feComposite1025"/></filter></defs><g id="g439" transform="translate(-421 153)" style="fill:#1b1f21;fill-opacity:1"><g id="g1182" transform="translate(131.265 78.461)" style="fill:#1b1f21;fill-opacity:1"><g id="g541" transform="translate(26.047 -8.003)" style="fill:#1b1f21;fill-opacity:1"><g id="g319" transform="translate(-157.313 -70.459)" style="fill:#1b1f21;fill-opacity:1"><g id="g949" style="fill:#1b1f21;fill-opacity:1"><path d="M0 0h512v512H0Z" fill="#b90202" fill-opacity="1" id="path902" style="fill:#1b1f21;fill-opacity:1"/></g></g></g></g></g><style type="text/css" id="style4077">.st0{fill:#000}</style><g id="g4113" transform="translate(-403.478 170.522) scale(.93156)" style="fill:#e64539;fill-opacity:1;filter:url(#filter4260)"><path class="st0" d="M167.314 14.993C167.314 6.712 160.603 0 152.332 0h-5.514c-8.27 0-14.982 6.712-14.982 14.993V56.46h35.478z" id="path4079" style="fill:#e64539;fill-opacity:1"/><path class="st0" d="M238.261 14.993C238.261 6.712 231.549 0 223.279 0h-5.504c-8.271 0-14.982 6.712-14.982 14.993V56.46h35.468V14.993Z" id="path4081" style="fill:#e64539;fill-opacity:1"/><path class="st0" d="M309.207 14.993C309.207 6.712 302.496 0 294.225 0h-5.504c-8.271 0-14.982 6.712-14.982 14.993V56.46h35.468z" id="path4083" style="fill:#e64539;fill-opacity:1"/><path class="st0" d="M380.164 14.993C380.164 6.712 373.452 0 365.182 0h-5.514c-8.271 0-14.982 6.712-14.982 14.993V56.46h35.478V14.993Z" id="path4085" style="fill:#e64539;fill-opacity:1"/><path class="st0" d="M131.836 497.007c0 8.281 6.712 14.993 14.982 14.993h5.514c8.27 0 14.982-6.712 14.982-14.993V455.55h-35.478z" id="path4087" style="fill:#e64539;fill-opacity:1"/><path class="st0" d="M202.793 497.007c0 8.281 6.711 14.993 14.982 14.993h5.504c8.271 0 14.982-6.712 14.982-14.993V455.55h-35.468z" id="path4089" style="fill:#e64539;fill-opacity:1"/><path class="st0" d="M273.739 497.007c0 8.281 6.711 14.993 14.982 14.993h5.504c8.271 0 14.982-6.712 14.982-14.993V455.55h-35.468z" id="path4091" style="fill:#e64539;fill-opacity:1"/><path class="st0" d="M344.685 497.007c0 8.281 6.712 14.993 14.982 14.993h5.514c8.27 0 14.982-6.712 14.982-14.993V455.55h-35.478z" id="path4093" style="fill:#e64539;fill-opacity:1"/><path class="st0" d="M497.017 131.836h-41.466v35.478h41.466c8.272 0 14.982-6.711 14.982-14.992v-5.494c0-8.281-6.71-14.992-14.982-14.992z" id="path4095" style="fill:#e64539;fill-opacity:1"/><path class="st0" d="M497.017 202.792h-41.466v35.468h41.466c8.272 0 14.982-6.712 14.982-14.982v-5.493c0-8.281-6.71-14.993-14.982-14.993z" id="path4097" style="fill:#e64539;fill-opacity:1"/><path class="st0" d="M497.017 273.739h-41.466v35.468h41.466c8.272 0 14.982-6.712 14.982-14.993v-5.493c0-8.271-6.71-14.982-14.982-14.982z" id="path4099" style="fill:#e64539;fill-opacity:1"/><path class="st0" d="M497.017 344.685h-41.466v35.478h41.466c8.272 0 14.982-6.712 14.982-14.993v-5.493c0-8.28-6.71-14.992-14.982-14.992z" id="path4101" style="fill:#e64539;fill-opacity:1"/><path class="st0" d="M.001 146.828v5.494c0 8.281 6.712 14.992 14.982 14.992H56.46v-35.478H14.983c-8.27 0-14.982 6.711-14.982 14.992z" id="path4103" style="fill:#e64539;fill-opacity:1"/><path class="st0" d="M.001 217.786v5.493c0 8.27 6.712 14.982 14.982 14.982H56.46v-35.468H14.983c-8.27-.001-14.982 6.711-14.982 14.993z" id="path4105" style="fill:#e64539;fill-opacity:1"/><path class="st0" d="M.001 288.722v5.493c0 8.281 6.712 14.993 14.982 14.993H56.46V273.74H14.983c-8.27-.001-14.982 6.71-14.982 14.982z" id="path4107" style="fill:#e64539;fill-opacity:1"/><path class="st0" d="M.001 359.678v5.493c0 8.281 6.712 14.993 14.982 14.993H56.46v-35.478H14.983c-8.27-.001-14.982 6.711-14.982 14.992z" id="path4109" style="fill:#e64539;fill-opacity:1"/><path id="path4111" style="fill:#e64539;fill-opacity:1" class="st0" d="M78.627 78.627v354.754h354.754V78.627H78.627zm78.146 17.287h.002c7.952.074 15.631 4.276 22.247 13.45.413.572.8 1.123 1.153 1.675 8.58-9.435 20.01-12.542 32.915-7.395 4.948 1.973 7.929 4.087 9.387 6.622 5.235-6.453 12.861-8.86 23.088-5.993 5.137 1.442 8.471 3.74 10.433 7.018 1.96-3.283 5.29-5.576 10.433-7.018 10.24-2.87 17.875-.456 23.109 6.013 1.455-2.54 4.406-4.664 9.365-6.642 12.905-5.147 24.356-2.04 32.936 7.395.354-.552.74-1.103 1.151-1.675 42.347-58.717 128.343 86.294 49.152 213.011 14.32-105.179-14.42-147.365-35.136-171.863 3.51 29.616-2.66 70.156-23.59 114.854 2.605-66.717-14.075-104.124-25.31-126.65 1.714 26.978-6.064 66.16-21.62 106.453-4.272-50.492-15.612-84.938-20.49-107.333-4.879 22.395-16.218 56.844-20.49 107.333-15.544-40.262-23.341-79.414-21.644-106.39-11.235 22.533-27.87 59.934-25.266 126.587-20.931-44.699-27.1-85.238-23.59-114.854-20.716 24.5-49.479 66.68-35.158 171.86-66.817-106.916-16.018-226.856 26.923-226.458zm8.254 170.311h.002c10.526 73.27 38.628 104.431 51.183 121.999-6.131-23.38-2.556-63.232 9.532-109.658 9.34 53.335 25.52 86.918 30.254 106.976 4.732-20.057 20.911-53.636 30.252-106.976 12.088 46.426 15.686 86.279 9.554 109.66 12.556-17.568 40.639-48.729 51.164-121.999 25.665 99.875-12.338 168.67-49.57 145.274-5.069-3.186-7.424-6.095-7.772-9.324-5.527 7.505-13.63 10.155-24.451 6.663-4.711-1.52-7.64-3.799-9.177-6.957-1.539 3.157-4.467 5.436-9.177 6.957-10.82 3.492-18.925.842-24.45-6.663-.35 3.228-2.705 6.139-7.773 9.324-37.232 23.396-75.235-45.401-49.57-145.276z"/></g></svg>