<svg version="1.2" id="Layer_1" x="0" y="0" viewBox="-421 153 512 512" xml:space="preserve" width="512" height="512" xmlns="http://www.w3.org/2000/svg"><defs id="defs7"><filter style="color-interpolation-filters:sRGB" id="filter980" x="-.192" y="-.155" width="1.374" height="1.301"><feFlood flood-opacity="1" flood-color="#3A3F5E" result="flood" id="feFlood970"/><feComposite in="flood" in2="SourceGraphic" operator="out" result="composite1" id="feComposite972"/><feGaussianBlur in="composite1" stdDeviation="15" result="blur" id="feGaussianBlur974"/><feOffset dx="0" dy="0" result="offset" id="feOffset976"/><feComposite in="offset" in2="SourceGraphic" operator="atop" result="composite2" id="feComposite978"/></filter><filter style="color-interpolation-filters:sRGB" id="filter1066" x="-.059" y="-.048" width="1.119" height="1.096"><feFlood flood-opacity="1" flood-color="#3A3F5E" result="flood" id="feFlood1056"/><feComposite in="flood" in2="SourceGraphic" operator="out" result="composite1" id="feComposite1058"/><feGaussianBlur in="composite1" stdDeviation="9.788" result="blur" id="feGaussianBlur1060"/><feOffset dx="0" dy="0" result="offset" id="feOffset1062"/><feComposite in="offset" in2="SourceGraphic" operator="atop" result="composite2" id="feComposite1064"/></filter><filter style="color-interpolation-filters:sRGB" id="filter3800" x="-.061" y="-.061" width="1.123" height="1.123"><feFlood flood-opacity="1" flood-color="#3A3F5E" result="flood" id="feFlood3790"/><feComposite in="flood" in2="SourceGraphic" operator="out" result="composite1" id="feComposite3792"/><feGaussianBlur in="composite1" stdDeviation="12.098" result="blur" id="feGaussianBlur3794"/><feOffset dx="0" dy="0" result="offset" id="feOffset3796"/><feComposite in="offset" in2="SourceGraphic" operator="atop" result="composite2" id="feComposite3798"/></filter><filter style="color-interpolation-filters:sRGB" id="filter4260" x="-.057" y="-.057" width="1.113" height="1.113"><feFlood flood-opacity="1" flood-color="#3A3F5E" result="flood" id="feFlood4250"/><feComposite in="flood" in2="SourceGraphic" operator="out" result="composite1" id="feComposite4252"/><feGaussianBlur in="composite1" stdDeviation="12.1" result="blur" id="feGaussianBlur4254"/><feOffset dx="0" dy="0" result="offset" id="feOffset4256"/><feComposite in="offset" in2="SourceGraphic" operator="atop" result="composite2" id="feComposite4258"/></filter><filter style="color-interpolation-filters:sRGB" id="filter893" x="-.099" y="-.077" width="1.198" height="1.153"><feFlood flood-opacity="1" flood-color="#3A3F5E" result="flood" id="feFlood883"/><feComposite in="flood" in2="SourceGraphic" operator="out" result="composite1" id="feComposite885"/><feGaussianBlur in="composite1" stdDeviation="15" result="blur" id="feGaussianBlur887"/><feOffset dx="0" dy="0" result="offset" id="feOffset889"/><feComposite in="offset" in2="SourceGraphic" operator="atop" result="composite2" id="feComposite891"/></filter><filter style="color-interpolation-filters:sRGB" id="filter893-7" x="-.16" y="-.161" width="1.312" height="1.314"><feFlood flood-opacity="1" flood-color="#3A3F5E" result="flood" id="feFlood883-7"/><feComposite in="flood" in2="SourceGraphic" operator="out" result="composite1" id="feComposite885-5"/><feGaussianBlur in="composite1" stdDeviation="15" result="blur" id="feGaussianBlur887-4"/><feOffset dx="0" dy="0" result="offset" id="feOffset889-8"/><feComposite in="offset" in2="SourceGraphic" operator="atop" result="composite2" id="feComposite891-1"/></filter><filter style="color-interpolation-filters:sRGB" id="filter937" x="-.075" y="-.075" width="1.149" height="1.15"><feFlood flood-opacity="1" flood-color="#3A3F5E" result="flood" id="feFlood927"/><feComposite in="flood" in2="SourceGraphic" operator="out" result="composite1" id="feComposite929"/><feGaussianBlur in="composite1" stdDeviation="14.772" result="blur" id="feGaussianBlur931"/><feOffset dx="0" dy="0" result="offset" id="feOffset933"/><feComposite in="offset" in2="SourceGraphic" operator="atop" result="composite2" id="feComposite935"/></filter></defs><g id="g439" transform="translate(-421 153)" style="fill:#1b1f21;fill-opacity:1"><g id="g1182" transform="translate(131.265 78.461)" style="fill:#1b1f21;fill-opacity:1"><g id="g541" transform="translate(26.047 -8.003)" style="fill:#1b1f21;fill-opacity:1"><g id="g319" transform="translate(-157.313 -70.459)" style="fill:#1b1f21;fill-opacity:1"><g id="g949" style="fill:#1b1f21;fill-opacity:1"><path d="M0 0h512v512H0Z" fill="#b90202" fill-opacity="1" id="path902" style="fill:#1b1f21;fill-opacity:1"/></g></g></g></g></g><style type="text/css" id="style4077">.st0{fill:#000}</style><g id="g4113" transform="translate(-403.478 170.522) scale(.93156)" style="fill:#e64539;fill-opacity:1;filter:url(#filter4260)"><path class="st0" d="M167.314 14.993C167.314 6.712 160.603 0 152.332 0h-5.514c-8.27 0-14.982 6.712-14.982 14.993V56.46h35.478z" id="path4079" style="fill:#e64539;fill-opacity:1"/><path class="st0" d="M238.261 14.993C238.261 6.712 231.549 0 223.279 0h-5.504c-8.271 0-14.982 6.712-14.982 14.993V56.46h35.468V14.993Z" id="path4081" style="fill:#e64539;fill-opacity:1"/><path class="st0" d="M309.207 14.993C309.207 6.712 302.496 0 294.225 0h-5.504c-8.271 0-14.982 6.712-14.982 14.993V56.46h35.468z" id="path4083" style="fill:#e64539;fill-opacity:1"/><path class="st0" d="M380.164 14.993C380.164 6.712 373.452 0 365.182 0h-5.514c-8.271 0-14.982 6.712-14.982 14.993V56.46h35.478V14.993Z" id="path4085" style="fill:#e64539;fill-opacity:1"/><path class="st0" d="M131.836 497.007c0 8.281 6.712 14.993 14.982 14.993h5.514c8.27 0 14.982-6.712 14.982-14.993V455.55h-35.478z" id="path4087" style="fill:#e64539;fill-opacity:1"/><path class="st0" d="M202.793 497.007c0 8.281 6.711 14.993 14.982 14.993h5.504c8.271 0 14.982-6.712 14.982-14.993V455.55h-35.468z" id="path4089" style="fill:#e64539;fill-opacity:1"/><path class="st0" d="M273.739 497.007c0 8.281 6.711 14.993 14.982 14.993h5.504c8.271 0 14.982-6.712 14.982-14.993V455.55h-35.468z" id="path4091" style="fill:#e64539;fill-opacity:1"/><path class="st0" d="M344.685 497.007c0 8.281 6.712 14.993 14.982 14.993h5.514c8.27 0 14.982-6.712 14.982-14.993V455.55h-35.478z" id="path4093" style="fill:#e64539;fill-opacity:1"/><path class="st0" d="M497.017 131.836h-41.466v35.478h41.466c8.272 0 14.982-6.711 14.982-14.992v-5.494c0-8.281-6.71-14.992-14.982-14.992z" id="path4095" style="fill:#e64539;fill-opacity:1"/><path class="st0" d="M497.017 202.792h-41.466v35.468h41.466c8.272 0 14.982-6.712 14.982-14.982v-5.493c0-8.281-6.71-14.993-14.982-14.993z" id="path4097" style="fill:#e64539;fill-opacity:1"/><path class="st0" d="M497.017 273.739h-41.466v35.468h41.466c8.272 0 14.982-6.712 14.982-14.993v-5.493c0-8.271-6.71-14.982-14.982-14.982z" id="path4099" style="fill:#e64539;fill-opacity:1"/><path class="st0" d="M497.017 344.685h-41.466v35.478h41.466c8.272 0 14.982-6.712 14.982-14.993v-5.493c0-8.28-6.71-14.992-14.982-14.992z" id="path4101" style="fill:#e64539;fill-opacity:1"/><path class="st0" d="M.001 146.828v5.494c0 8.281 6.712 14.992 14.982 14.992H56.46v-35.478H14.983c-8.27 0-14.982 6.711-14.982 14.992z" id="path4103" style="fill:#e64539;fill-opacity:1"/><path class="st0" d="M.001 217.786v5.493c0 8.27 6.712 14.982 14.982 14.982H56.46v-35.468H14.983c-8.27-.001-14.982 6.711-14.982 14.993z" id="path4105" style="fill:#e64539;fill-opacity:1"/><path class="st0" d="M.001 288.722v5.493c0 8.281 6.712 14.993 14.982 14.993H56.46V273.74H14.983c-8.27-.001-14.982 6.71-14.982 14.982z" id="path4107" style="fill:#e64539;fill-opacity:1"/><path class="st0" d="M.001 359.678v5.493c0 8.281 6.712 14.993 14.982 14.993H56.46v-35.478H14.983c-8.27-.001-14.982 6.711-14.982 14.992z" id="path4109" style="fill:#e64539;fill-opacity:1"/><path id="path4111" style="fill:#e64539;fill-opacity:1" class="st0" d="M78.627 78.627v354.754h354.754V78.627H78.627zm137.155 36.356c10.534 18.692 22.805 33.547 50.336 46.9-11.012-1.664-23.224.521-29.927 4.885-17.656-18.423-23.58-35.715-20.409-51.785zm-95.528 3.736c32.547 26.526 70.511 47.629 115.759 61.454 11.79-1.316 26.513-11.671 40.578-5.566 24.599 11.192 74.814 58.774 82.355 55.841 12.39-6.404 21.248-26.573 20.23-48.3 18.375 20.769 19.753 65.777 18.556 85.528-.599 9.816-2.993 20.65-13.647 28.491-2.454-10.175-2.933-10.475-7.422-19.752-2.633 4.968-6.763 9.097-11.85 12.808-1.137-8.14-2.992-12.269-6.403-18.314-4.07 7.96-4.67 8.619-10.236 14.245-1.017-6.285-3.59-13.707-9.036-18.795-2.873 2.813-5.746 5.148-14.125 9.517.778-17.297-45.069-14.423-56.92-4.248 11.612 13.646 22.982 24.12 40.698 12.748 2.394 6.224 2.216 11.67 2.455 18.194 6.524-.658 10.234-2.214 18.014-6.464-.419 4.669-.957 11.79-2.214 16.34 5.866-.36 12.27-2.035 18.434-7.062 2.155 9.696 1.797 11.133 1.797 17.178 9.636-1.138 11.13-1.198 18.672-4.909.06 14.784-6.583 30.404-21.247 32.559 2.454 12.03-.838 24.66-5.806 36.091-3.53-14.843-10.055-30.944-20.469-44.171-26.514-13.946-48.418-32.438-64.04-51.112-7.002 16.1-21.488 25.496-35.613 35.192-2.873 2.155-5.864 4.25-8.917 6.344a1060.71 1060.71 0 0 0 3.412-7.96c5.087-14.724 12.03-31.841 6.044-46.565-27.113 13.108-68.082 22.206-99.959 19.692 12.922-6.464 62.493-25.198 73.206-46.086-14.244 4.908-45.906 11.072-78.609-.42 28.927-1.795 46.965-12.567 61.91-23.16-23.444-8.021-46.912-18.616-61.85-39.684 18.655 6.045 44.738 13.766 66.338 15.142-29.034-23.641-51.494-56.989-60.095-84.796zm159.748 75.52c-6.284 5.806-13.825 13.825-10.533 18.554 7.122 10.354 34.894 16.1 46.505 14.364-16.699-10.833-28.012-20.408-35.972-32.917zm-69.128 99.534c-.538 4.968-1.855 10.654-3.83 16.52-7.542 2.513-17.537 1.494-26.395-1.678a212.972 212.972 0 0 1 4.011-6.284c8.738-2.035 17.596-4.847 26.214-8.558zm-40.7 11.43c-23.246 39.682-20.006 69.25-13.35 91.814h-21.625c-8.176-29.148 9.833-69.01 28.872-90.916l6.104-.897zm5.09 12.87c8.498 3.351 18.074 5.266 27.29 4.189-2.872 6.883-5.985 13.646-8.738 19.93-9.397.42-19.093-.898-26.814-4.908 2.035-5.985 4.73-12.388 8.261-19.211zm66.674 3.95c14.185 31.123 36.568 55.961 70.803 74.994h-49.856c-24.24-19.332-40.04-36.928-44.23-57.278 8.2-5.566 16.1-11.432 23.283-17.716zm-77.808 25.855c13.287 6.225 26.873 8.44 46.444 2.814 2.335 6.763 5.807 13.166 10.117 19.331-20.948 5.626-36.031 6.046-58.356-2.453-.18-6.105.299-12.63 1.795-19.692zm63.802 31.362c5.208 6.045 11.251 11.912 18.015 17.777H168.08c-1.796-5.566-3.412-11.372-4.489-17.597 23.163 7.72 41.538 6.344 64.341-.18z"/></g></svg>