<svg version="1.2" id="Layer_1" x="0" y="0" viewBox="-421 153 512 512" xml:space="preserve" width="512" height="512" xmlns="http://www.w3.org/2000/svg"><defs id="defs7"><filter style="color-interpolation-filters:sRGB" id="filter980" x="-.192" y="-.155" width="1.374" height="1.301"><feFlood flood-opacity="1" flood-color="#3A3F5E" result="flood" id="feFlood970"/><feComposite in="flood" in2="SourceGraphic" operator="out" result="composite1" id="feComposite972"/><feGaussianBlur in="composite1" stdDeviation="15" result="blur" id="feGaussianBlur974"/><feOffset dx="0" dy="0" result="offset" id="feOffset976"/><feComposite in="offset" in2="SourceGraphic" operator="atop" result="composite2" id="feComposite978"/></filter><filter style="color-interpolation-filters:sRGB" id="filter1066" x="-.059" y="-.048" width="1.119" height="1.096"><feFlood flood-opacity="1" flood-color="#3A3F5E" result="flood" id="feFlood1056"/><feComposite in="flood" in2="SourceGraphic" operator="out" result="composite1" id="feComposite1058"/><feGaussianBlur in="composite1" stdDeviation="9.788" result="blur" id="feGaussianBlur1060"/><feOffset dx="0" dy="0" result="offset" id="feOffset1062"/><feComposite in="offset" in2="SourceGraphic" operator="atop" result="composite2" id="feComposite1064"/></filter><filter style="color-interpolation-filters:sRGB" id="filter3800" x="-.061" y="-.061" width="1.123" height="1.123"><feFlood flood-opacity="1" flood-color="#3A3F5E" result="flood" id="feFlood3790"/><feComposite in="flood" in2="SourceGraphic" operator="out" result="composite1" id="feComposite3792"/><feGaussianBlur in="composite1" stdDeviation="12.098" result="blur" id="feGaussianBlur3794"/><feOffset dx="0" dy="0" result="offset" id="feOffset3796"/><feComposite in="offset" in2="SourceGraphic" operator="atop" result="composite2" id="feComposite3798"/></filter><filter style="color-interpolation-filters:sRGB" id="filter4260" x="-.057" y="-.057" width="1.113" height="1.113"><feFlood flood-opacity="1" flood-color="#3A3F5E" result="flood" id="feFlood4250"/><feComposite in="flood" in2="SourceGraphic" operator="out" result="composite1" id="feComposite4252"/><feGaussianBlur in="composite1" stdDeviation="12.1" result="blur" id="feGaussianBlur4254"/><feOffset dx="0" dy="0" result="offset" id="feOffset4256"/><feComposite in="offset" in2="SourceGraphic" operator="atop" result="composite2" id="feComposite4258"/></filter><filter style="color-interpolation-filters:sRGB" id="filter893" x="-.099" y="-.077" width="1.198" height="1.153"><feFlood flood-opacity="1" flood-color="#3A3F5E" result="flood" id="feFlood883"/><feComposite in="flood" in2="SourceGraphic" operator="out" result="composite1" id="feComposite885"/><feGaussianBlur in="composite1" stdDeviation="15" result="blur" id="feGaussianBlur887"/><feOffset dx="0" dy="0" result="offset" id="feOffset889"/><feComposite in="offset" in2="SourceGraphic" operator="atop" result="composite2" id="feComposite891"/></filter><filter style="color-interpolation-filters:sRGB" id="filter893-7" x="-.16" y="-.161" width="1.312" height="1.314"><feFlood flood-opacity="1" flood-color="#3A3F5E" result="flood" id="feFlood883-7"/><feComposite in="flood" in2="SourceGraphic" operator="out" result="composite1" id="feComposite885-5"/><feGaussianBlur in="composite1" stdDeviation="15" result="blur" id="feGaussianBlur887-4"/><feOffset dx="0" dy="0" result="offset" id="feOffset889-8"/><feComposite in="offset" in2="SourceGraphic" operator="atop" result="composite2" id="feComposite891-1"/></filter><filter style="color-interpolation-filters:sRGB" id="filter937" x="-.075" y="-.075" width="1.149" height="1.15"><feFlood flood-opacity="1" flood-color="#3A3F5E" result="flood" id="feFlood927"/><feComposite in="flood" in2="SourceGraphic" operator="out" result="composite1" id="feComposite929"/><feGaussianBlur in="composite1" stdDeviation="14.772" result="blur" id="feGaussianBlur931"/><feOffset dx="0" dy="0" result="offset" id="feOffset933"/><feComposite in="offset" in2="SourceGraphic" operator="atop" result="composite2" id="feComposite935"/></filter><filter style="color-interpolation-filters:sRGB" id="filter887" x="-.161" y="-.162" width="1.313" height="1.316"><feFlood flood-opacity="1" flood-color="#3A3F5E" result="flood" id="feFlood877"/><feComposite in="flood" in2="SourceGraphic" operator="out" result="composite1" id="feComposite879"/><feGaussianBlur in="composite1" stdDeviation="15" result="blur" id="feGaussianBlur881"/><feOffset dx="0" dy="0" result="offset" id="feOffset883"/><feComposite in="offset" in2="SourceGraphic" operator="atop" result="composite2" id="feComposite885-2"/></filter><filter style="color-interpolation-filters:sRGB" id="filter937-8" x="-.059" y="-.06" width="1.119" height="1.12"><feFlood flood-opacity="1" flood-color="#3A3F5E" result="flood" id="feFlood927-9"/><feComposite in="flood" in2="SourceGraphic" operator="out" result="composite1" id="feComposite929-3"/><feGaussianBlur in="composite1" stdDeviation="11.723" result="blur" id="feGaussianBlur931-6"/><feOffset dx="0" dy="0" result="offset" id="feOffset933-8"/><feComposite in="offset" in2="SourceGraphic" operator="atop" result="composite2" id="feComposite935-0"/></filter><filter style="color-interpolation-filters:sRGB" id="filter893-1" x="-.162" y="-.161" width="1.315" height="1.314"><feFlood flood-opacity="1" flood-color="#3A3F5E" result="flood" id="feFlood883-0"/><feComposite in="flood" in2="SourceGraphic" operator="out" result="composite1" id="feComposite885-51"/><feGaussianBlur in="composite1" stdDeviation="15" result="blur" id="feGaussianBlur887-1"/><feOffset dx="0" dy="0" result="offset" id="feOffset889-0"/><feComposite in="offset" in2="SourceGraphic" operator="atop" result="composite2" id="feComposite891-8"/></filter><filter style="color-interpolation-filters:sRGB" id="filter937-5" x="-.063" y="-.063" width="1.127" height="1.126"><feFlood flood-opacity="1" flood-color="#3A3F5E" result="flood" id="feFlood927-0"/><feComposite in="flood" in2="SourceGraphic" operator="out" result="composite1" id="feComposite929-6"/><feGaussianBlur in="composite1" stdDeviation="12.382" result="blur" id="feGaussianBlur931-4"/><feOffset dx="0" dy="0" result="offset" id="feOffset933-6"/><feComposite in="offset" in2="SourceGraphic" operator="atop" result="composite2" id="feComposite935-2"/></filter></defs><g id="g439" transform="translate(-421 153)" style="fill:#1b1f21;fill-opacity:1"><g id="g1182" transform="translate(131.265 78.461)" style="fill:#1b1f21;fill-opacity:1"><g id="g541" transform="translate(26.047 -8.003)" style="fill:#1b1f21;fill-opacity:1"><g id="g319" transform="translate(-157.313 -70.459)" style="fill:#1b1f21;fill-opacity:1"><g id="g949" style="fill:#1b1f21;fill-opacity:1"><path d="M0 0h512v512H0Z" fill="#b90202" fill-opacity="1" id="path902" style="fill:#1b1f21;fill-opacity:1"/></g></g></g></g></g><style type="text/css" id="style4077">.st0{fill:#000}</style><g id="g4113" transform="translate(-403.478 170.522) scale(.93156)" style="fill:#e64539;fill-opacity:1;filter:url(#filter4260)"><path class="st0" d="M167.314 14.993C167.314 6.712 160.603 0 152.332 0h-5.514c-8.27 0-14.982 6.712-14.982 14.993V56.46h35.478z" id="path4079" style="fill:#e64539;fill-opacity:1"/><path class="st0" d="M238.261 14.993C238.261 6.712 231.549 0 223.279 0h-5.504c-8.271 0-14.982 6.712-14.982 14.993V56.46h35.468V14.993Z" id="path4081" style="fill:#e64539;fill-opacity:1"/><path class="st0" d="M309.207 14.993C309.207 6.712 302.496 0 294.225 0h-5.504c-8.271 0-14.982 6.712-14.982 14.993V56.46h35.468z" id="path4083" style="fill:#e64539;fill-opacity:1"/><path class="st0" d="M380.164 14.993C380.164 6.712 373.452 0 365.182 0h-5.514c-8.271 0-14.982 6.712-14.982 14.993V56.46h35.478V14.993Z" id="path4085" style="fill:#e64539;fill-opacity:1"/><path class="st0" d="M131.836 497.007c0 8.281 6.712 14.993 14.982 14.993h5.514c8.27 0 14.982-6.712 14.982-14.993V455.55h-35.478z" id="path4087" style="fill:#e64539;fill-opacity:1"/><path class="st0" d="M202.793 497.007c0 8.281 6.711 14.993 14.982 14.993h5.504c8.271 0 14.982-6.712 14.982-14.993V455.55h-35.468z" id="path4089" style="fill:#e64539;fill-opacity:1"/><path class="st0" d="M273.739 497.007c0 8.281 6.711 14.993 14.982 14.993h5.504c8.271 0 14.982-6.712 14.982-14.993V455.55h-35.468z" id="path4091" style="fill:#e64539;fill-opacity:1"/><path class="st0" d="M344.685 497.007c0 8.281 6.712 14.993 14.982 14.993h5.514c8.27 0 14.982-6.712 14.982-14.993V455.55h-35.478z" id="path4093" style="fill:#e64539;fill-opacity:1"/><path class="st0" d="M497.017 131.836h-41.466v35.478h41.466c8.272 0 14.982-6.711 14.982-14.992v-5.494c0-8.281-6.71-14.992-14.982-14.992z" id="path4095" style="fill:#e64539;fill-opacity:1"/><path class="st0" d="M497.017 202.792h-41.466v35.468h41.466c8.272 0 14.982-6.712 14.982-14.982v-5.493c0-8.281-6.71-14.993-14.982-14.993z" id="path4097" style="fill:#e64539;fill-opacity:1"/><path class="st0" d="M497.017 273.739h-41.466v35.468h41.466c8.272 0 14.982-6.712 14.982-14.993v-5.493c0-8.271-6.71-14.982-14.982-14.982z" id="path4099" style="fill:#e64539;fill-opacity:1"/><path class="st0" d="M497.017 344.685h-41.466v35.478h41.466c8.272 0 14.982-6.712 14.982-14.993v-5.493c0-8.28-6.71-14.992-14.982-14.992z" id="path4101" style="fill:#e64539;fill-opacity:1"/><path class="st0" d="M.001 146.828v5.494c0 8.281 6.712 14.992 14.982 14.992H56.46v-35.478H14.983c-8.27 0-14.982 6.711-14.982 14.992z" id="path4103" style="fill:#e64539;fill-opacity:1"/><path class="st0" d="M.001 217.786v5.493c0 8.27 6.712 14.982 14.982 14.982H56.46v-35.468H14.983c-8.27-.001-14.982 6.711-14.982 14.993z" id="path4105" style="fill:#e64539;fill-opacity:1"/><path class="st0" d="M.001 288.722v5.493c0 8.281 6.712 14.993 14.982 14.993H56.46V273.74H14.983c-8.27-.001-14.982 6.71-14.982 14.982z" id="path4107" style="fill:#e64539;fill-opacity:1"/><path class="st0" d="M.001 359.678v5.493c0 8.281 6.712 14.993 14.982 14.993H56.46v-35.478H14.983c-8.27-.001-14.982 6.711-14.982 14.992z" id="path4109" style="fill:#e64539;fill-opacity:1"/><path id="path4111" style="fill:#e64539;fill-opacity:1" class="st0" d="M78.627 78.627v354.754h354.754V78.627H78.627zm32.51 31.144.011.002h63.337c49.723 11.626 94.646 44.73 125.743 88.28-17.627-45.031-44.072-74.3-83.007-88.28h26.503c14.692 4.595 42.404 20.575 66.218 63.618l.04-.021 13.766 23.83-97.996 56.58-13.769-23.828.078-.04c-28.275-41.417-64.425-69.911-101.737-80.236v-21.91c39.567 13.325 72.005 39.65 103.794 71.432-17.663-24.689-35.983-44.412-56.366-58.733 31.953 16.499 60.255 40.523 87.893 68.158-32.669-56.125-79.454-90.044-134.497-98.85h-.01v-.002zm95.536 25.111 68.775 75.447c-8.012-34.145-36.39-62.074-68.775-75.447zm108.603 80.603 52.566 91.016-69.475 40.12-52.567-91.017 69.476-40.12zm45.274 20.826 12.274 21.251-14.89 8.609-12.274-21.27 14.89-8.59zm-104.454 60.3.003.003 12.271 21.268-105.249 60.79-12.29-21.292 105.265-60.768zm131.794 11.675 13.786 23.87-97.995 56.58-13.787-23.87 97.996-56.58zM137.954 358.29l17.936 31.064-22.3 12.875-17.934-31.063 22.298-12.876z"/></g></svg>