<svg version="1.2" id="Layer_1" x="0" y="0" viewBox="-421 153 512 512" xml:space="preserve" width="512" height="512" xmlns="http://www.w3.org/2000/svg"><defs id="defs7"><filter style="color-interpolation-filters:sRGB" id="filter980" x="-.192" y="-.155" width="1.374" height="1.301"><feFlood flood-opacity="1" flood-color="#3A3F5E" result="flood" id="feFlood970"/><feComposite in="flood" in2="SourceGraphic" operator="out" result="composite1" id="feComposite972"/><feGaussianBlur in="composite1" stdDeviation="15" result="blur" id="feGaussianBlur974"/><feOffset dx="0" dy="0" result="offset" id="feOffset976"/><feComposite in="offset" in2="SourceGraphic" operator="atop" result="composite2" id="feComposite978"/></filter><filter style="color-interpolation-filters:sRGB" id="filter1066" x="-.059" y="-.048" width="1.119" height="1.096"><feFlood flood-opacity="1" flood-color="#3A3F5E" result="flood" id="feFlood1056"/><feComposite in="flood" in2="SourceGraphic" operator="out" result="composite1" id="feComposite1058"/><feGaussianBlur in="composite1" stdDeviation="9.788" result="blur" id="feGaussianBlur1060"/><feOffset dx="0" dy="0" result="offset" id="feOffset1062"/><feComposite in="offset" in2="SourceGraphic" operator="atop" result="composite2" id="feComposite1064"/></filter><filter style="color-interpolation-filters:sRGB" id="filter3800" x="-.061" y="-.061" width="1.123" height="1.123"><feFlood flood-opacity="1" flood-color="#3A3F5E" result="flood" id="feFlood3790"/><feComposite in="flood" in2="SourceGraphic" operator="out" result="composite1" id="feComposite3792"/><feGaussianBlur in="composite1" stdDeviation="12.098" result="blur" id="feGaussianBlur3794"/><feOffset dx="0" dy="0" result="offset" id="feOffset3796"/><feComposite in="offset" in2="SourceGraphic" operator="atop" result="composite2" id="feComposite3798"/></filter><filter style="color-interpolation-filters:sRGB" id="filter4260" x="-.057" y="-.057" width="1.113" height="1.113"><feFlood flood-opacity="1" flood-color="#3A3F5E" result="flood" id="feFlood4250"/><feComposite in="flood" in2="SourceGraphic" operator="out" result="composite1" id="feComposite4252"/><feGaussianBlur in="composite1" stdDeviation="12.1" result="blur" id="feGaussianBlur4254"/><feOffset dx="0" dy="0" result="offset" id="feOffset4256"/><feComposite in="offset" in2="SourceGraphic" operator="atop" result="composite2" id="feComposite4258"/></filter><filter style="color-interpolation-filters:sRGB" id="filter893" x="-.099" y="-.077" width="1.198" height="1.153"><feFlood flood-opacity="1" flood-color="#3A3F5E" result="flood" id="feFlood883"/><feComposite in="flood" in2="SourceGraphic" operator="out" result="composite1" id="feComposite885"/><feGaussianBlur in="composite1" stdDeviation="15" result="blur" id="feGaussianBlur887"/><feOffset dx="0" dy="0" result="offset" id="feOffset889"/><feComposite in="offset" in2="SourceGraphic" operator="atop" result="composite2" id="feComposite891"/></filter><filter style="color-interpolation-filters:sRGB" id="filter893-7" x="-.16" y="-.161" width="1.312" height="1.314"><feFlood flood-opacity="1" flood-color="#3A3F5E" result="flood" id="feFlood883-7"/><feComposite in="flood" in2="SourceGraphic" operator="out" result="composite1" id="feComposite885-5"/><feGaussianBlur in="composite1" stdDeviation="15" result="blur" id="feGaussianBlur887-4"/><feOffset dx="0" dy="0" result="offset" id="feOffset889-8"/><feComposite in="offset" in2="SourceGraphic" operator="atop" result="composite2" id="feComposite891-1"/></filter><filter style="color-interpolation-filters:sRGB" id="filter937" x="-.075" y="-.075" width="1.149" height="1.15"><feFlood flood-opacity="1" flood-color="#3A3F5E" result="flood" id="feFlood927"/><feComposite in="flood" in2="SourceGraphic" operator="out" result="composite1" id="feComposite929"/><feGaussianBlur in="composite1" stdDeviation="14.772" result="blur" id="feGaussianBlur931"/><feOffset dx="0" dy="0" result="offset" id="feOffset933"/><feComposite in="offset" in2="SourceGraphic" operator="atop" result="composite2" id="feComposite935"/></filter><filter style="color-interpolation-filters:sRGB" id="filter887" x="-.161" y="-.162" width="1.313" height="1.316"><feFlood flood-opacity="1" flood-color="#3A3F5E" result="flood" id="feFlood877"/><feComposite in="flood" in2="SourceGraphic" operator="out" result="composite1" id="feComposite879"/><feGaussianBlur in="composite1" stdDeviation="15" result="blur" id="feGaussianBlur881"/><feOffset dx="0" dy="0" result="offset" id="feOffset883"/><feComposite in="offset" in2="SourceGraphic" operator="atop" result="composite2" id="feComposite885-2"/></filter><filter style="color-interpolation-filters:sRGB" id="filter937-8" x="-.059" y="-.06" width="1.119" height="1.12"><feFlood flood-opacity="1" flood-color="#3A3F5E" result="flood" id="feFlood927-9"/><feComposite in="flood" in2="SourceGraphic" operator="out" result="composite1" id="feComposite929-3"/><feGaussianBlur in="composite1" stdDeviation="11.723" result="blur" id="feGaussianBlur931-6"/><feOffset dx="0" dy="0" result="offset" id="feOffset933-8"/><feComposite in="offset" in2="SourceGraphic" operator="atop" result="composite2" id="feComposite935-0"/></filter><filter style="color-interpolation-filters:sRGB" id="filter893-1" x="-.162" y="-.161" width="1.315" height="1.314"><feFlood flood-opacity="1" flood-color="#3A3F5E" result="flood" id="feFlood883-0"/><feComposite in="flood" in2="SourceGraphic" operator="out" result="composite1" id="feComposite885-51"/><feGaussianBlur in="composite1" stdDeviation="15" result="blur" id="feGaussianBlur887-1"/><feOffset dx="0" dy="0" result="offset" id="feOffset889-0"/><feComposite in="offset" in2="SourceGraphic" operator="atop" result="composite2" id="feComposite891-8"/></filter><filter style="color-interpolation-filters:sRGB" id="filter937-5" x="-.063" y="-.063" width="1.127" height="1.126"><feFlood flood-opacity="1" flood-color="#3A3F5E" result="flood" id="feFlood927-0"/><feComposite in="flood" in2="SourceGraphic" operator="out" result="composite1" id="feComposite929-6"/><feGaussianBlur in="composite1" stdDeviation="12.382" result="blur" id="feGaussianBlur931-4"/><feOffset dx="0" dy="0" result="offset" id="feOffset933-6"/><feComposite in="offset" in2="SourceGraphic" operator="atop" result="composite2" id="feComposite935-2"/></filter><filter style="color-interpolation-filters:sRGB" id="filter893-8" x="-.157" y="-.157" width="1.305" height="1.305"><feFlood flood-opacity="1" flood-color="#3A3F5E" result="flood" id="feFlood883-6"/><feComposite in="flood" in2="SourceGraphic" operator="out" result="composite1" id="feComposite885-28"/><feGaussianBlur in="composite1" stdDeviation="15" result="blur" id="feGaussianBlur887-47"/><feOffset dx="0" dy="0" result="offset" id="feOffset889-2"/><feComposite in="offset" in2="SourceGraphic" operator="atop" result="composite2" id="feComposite891-4"/></filter><filter style="color-interpolation-filters:sRGB" id="filter1451" x="-.074" y="-.074" width="1.148" height="1.148"><feFlood flood-opacity="1" flood-color="#3A3F5E" result="flood" id="feFlood1441"/><feComposite in="flood" in2="SourceGraphic" operator="out" result="composite1" id="feComposite1443"/><feGaussianBlur in="composite1" stdDeviation="14.95" result="blur" id="feGaussianBlur1445"/><feOffset dx="0" dy="0" result="offset" id="feOffset1447"/><feComposite in="offset" in2="SourceGraphic" operator="atop" result="composite2" id="feComposite1449"/></filter></defs><g id="g439" transform="translate(-421 153)" style="fill:#1b1f21;fill-opacity:1"><g id="g1182" transform="translate(131.265 78.461)" style="fill:#1b1f21;fill-opacity:1"><g id="g541" transform="translate(26.047 -8.003)" style="fill:#1b1f21;fill-opacity:1"><g id="g319" transform="translate(-157.313 -70.459)" style="fill:#1b1f21;fill-opacity:1"><g id="g949" style="fill:#1b1f21;fill-opacity:1"><path d="M0 0h512v512H0Z" fill="#b90202" fill-opacity="1" id="path902" style="fill:#1b1f21;fill-opacity:1"/></g></g></g></g></g><style type="text/css" id="style4077">.st0{fill:#000}</style><g id="g4113" transform="translate(-403.478 170.522) scale(.93156)" style="fill:#e64539;fill-opacity:1;filter:url(#filter4260)"><path class="st0" d="M167.314 14.993C167.314 6.712 160.603 0 152.332 0h-5.514c-8.27 0-14.982 6.712-14.982 14.993V56.46h35.478z" id="path4079" style="fill:#e64539;fill-opacity:1"/><path class="st0" d="M238.261 14.993C238.261 6.712 231.549 0 223.279 0h-5.504c-8.271 0-14.982 6.712-14.982 14.993V56.46h35.468V14.993Z" id="path4081" style="fill:#e64539;fill-opacity:1"/><path class="st0" d="M309.207 14.993C309.207 6.712 302.496 0 294.225 0h-5.504c-8.271 0-14.982 6.712-14.982 14.993V56.46h35.468z" id="path4083" style="fill:#e64539;fill-opacity:1"/><path class="st0" d="M380.164 14.993C380.164 6.712 373.452 0 365.182 0h-5.514c-8.271 0-14.982 6.712-14.982 14.993V56.46h35.478V14.993Z" id="path4085" style="fill:#e64539;fill-opacity:1"/><path class="st0" d="M131.836 497.007c0 8.281 6.712 14.993 14.982 14.993h5.514c8.27 0 14.982-6.712 14.982-14.993V455.55h-35.478z" id="path4087" style="fill:#e64539;fill-opacity:1"/><path class="st0" d="M202.793 497.007c0 8.281 6.711 14.993 14.982 14.993h5.504c8.271 0 14.982-6.712 14.982-14.993V455.55h-35.468z" id="path4089" style="fill:#e64539;fill-opacity:1"/><path class="st0" d="M273.739 497.007c0 8.281 6.711 14.993 14.982 14.993h5.504c8.271 0 14.982-6.712 14.982-14.993V455.55h-35.468z" id="path4091" style="fill:#e64539;fill-opacity:1"/><path class="st0" d="M344.685 497.007c0 8.281 6.712 14.993 14.982 14.993h5.514c8.27 0 14.982-6.712 14.982-14.993V455.55h-35.478z" id="path4093" style="fill:#e64539;fill-opacity:1"/><path class="st0" d="M497.017 131.836h-41.466v35.478h41.466c8.272 0 14.982-6.711 14.982-14.992v-5.494c0-8.281-6.71-14.992-14.982-14.992z" id="path4095" style="fill:#e64539;fill-opacity:1"/><path class="st0" d="M497.017 202.792h-41.466v35.468h41.466c8.272 0 14.982-6.712 14.982-14.982v-5.493c0-8.281-6.71-14.993-14.982-14.993z" id="path4097" style="fill:#e64539;fill-opacity:1"/><path class="st0" d="M497.017 273.739h-41.466v35.468h41.466c8.272 0 14.982-6.712 14.982-14.993v-5.493c0-8.271-6.71-14.982-14.982-14.982z" id="path4099" style="fill:#e64539;fill-opacity:1"/><path class="st0" d="M497.017 344.685h-41.466v35.478h41.466c8.272 0 14.982-6.712 14.982-14.993v-5.493c0-8.28-6.71-14.992-14.982-14.992z" id="path4101" style="fill:#e64539;fill-opacity:1"/><path class="st0" d="M.001 146.828v5.494c0 8.281 6.712 14.992 14.982 14.992H56.46v-35.478H14.983c-8.27 0-14.982 6.711-14.982 14.992z" id="path4103" style="fill:#e64539;fill-opacity:1"/><path class="st0" d="M.001 217.786v5.493c0 8.27 6.712 14.982 14.982 14.982H56.46v-35.468H14.983c-8.27-.001-14.982 6.711-14.982 14.993z" id="path4105" style="fill:#e64539;fill-opacity:1"/><path class="st0" d="M.001 288.722v5.493c0 8.281 6.712 14.993 14.982 14.993H56.46V273.74H14.983c-8.27-.001-14.982 6.71-14.982 14.982z" id="path4107" style="fill:#e64539;fill-opacity:1"/><path class="st0" d="M.001 359.678v5.493c0 8.281 6.712 14.993 14.982 14.993H56.46v-35.478H14.983c-8.27-.001-14.982 6.711-14.982 14.992z" id="path4109" style="fill:#e64539;fill-opacity:1"/><path id="path4111" style="fill:#e64539;fill-opacity:1" class="st0" d="M78.627 78.627v354.754h354.754V78.627H78.627zm177.4 10.414 15.505 35.473c27.681 3.492 52.74 15.477 72.478 33.263l10.366-10.366 9.095 9.1-10.328 10.328c18.305 19.979 30.62 45.533 34.077 73.799l35.739 15.62-35.574 15.55c-3.223 29.03-15.773 55.27-34.588 75.651l10.674 10.676-9.097 9.1-10.748-10.75c-19.89 17.788-45.127 29.717-72.985 33.043l-14.614 33.433-14.483-33.135c-29.523-2.898-56.241-15.435-76.963-34.42l-11.83 11.826-9.097-9.097 11.867-11.869c-18.463-20.487-30.675-46.71-33.625-75.648L89.04 256.26l33.012-14.429c3.189-28.176 15.17-53.71 33.129-73.793l-11.528-11.527 9.098-9.1 11.458 11.456c20.567-18.988 47.104-31.596 76.453-34.674l15.364-35.152zm-14.77 48.026c-26.09 2.886-49.656 14.062-68.002 30.847l12.703 12.704a103.71 103.71 0 0 0-9.068 9.129l-12.651-12.651c-15.393 17.428-25.819 39.345-29.082 63.559l35.701 15.605-35.871 15.679c3.076 24.917 13.73 47.466 29.592 65.272l11.864-11.867a104.048 104.048 0 0 0 9.012 9.19l-11.823 11.82c18.103 16.425 41.229 27.414 66.824 30.416l15.573-35.628 15.432 35.31c24.036-3.333 45.79-13.728 63.11-29.024l-11.967-11.966c3.227-2.83 6.279-5.86 9.132-9.068l12.014 12.016c16.69-18.241 27.837-41.64 30.802-67.551l-33.408-14.601 33.246-14.532c-3.166-25.202-14.078-47.97-30.292-65.84l-12.81 12.81a103.651 103.651 0 0 0-9.188-9.011l12.853-12.85c-17.57-15.652-39.76-26.232-64.287-29.466l-14.639 33.49-14.77-33.792zm15.531 47.643c40.52 0 73.227 32.71 73.227 73.23 0 40.518-32.709 73.226-73.229 73.226-40.519 0-73.229-32.709-73.229-73.227 0-40.519 32.71-73.226 73.23-73.226l.001-.003zm-1.1 28.393v.002c-24.63 0-44.734 20.104-44.734 44.734 0 24.63 20.104 44.733 44.734 44.733 24.628 0 44.733-20.103 44.733-44.733a44.408 44.408 0 0 0-6.493-23.16 20.936 20.936 0 0 1-6.825 16.521c.469 2.165.72 4.404.72 6.702 0 17.534-14.353 31.887-31.888 31.887-17.534 0-31.886-14.353-31.886-31.887 0-16.988 13.472-30.987 30.257-31.844 2.888-5.585 8.202-9.707 14.553-10.965a44.441 44.441 0 0 0-13.171-1.99zm-3.418 26.13c-8.797 1.687-15.351 9.345-15.351 18.669 0 10.58 8.438 19.02 19.018 19.02s19.019-8.44 19.019-19.02c0-.443-.019-.881-.049-1.315-.64.06-1.291.094-1.947.094-10.385 0-19.003-7.543-20.69-17.448z"/></g></svg>