<svg version="1.2" id="Layer_1" x="0" y="0" viewBox="-421 153 512 512" xml:space="preserve" width="512" height="512" xmlns="http://www.w3.org/2000/svg"><defs id="defs7"><filter style="color-interpolation-filters:sRGB" id="filter980" x="-.192" y="-.155" width="1.374" height="1.301"><feFlood flood-opacity="1" flood-color="#3A3F5E" result="flood" id="feFlood970"/><feComposite in="flood" in2="SourceGraphic" operator="out" result="composite1" id="feComposite972"/><feGaussianBlur in="composite1" stdDeviation="15" result="blur" id="feGaussianBlur974"/><feOffset dx="0" dy="0" result="offset" id="feOffset976"/><feComposite in="offset" in2="SourceGraphic" operator="atop" result="composite2" id="feComposite978"/></filter><filter style="color-interpolation-filters:sRGB" id="filter1066" x="-.059" y="-.048" width="1.119" height="1.096"><feFlood flood-opacity="1" flood-color="#3A3F5E" result="flood" id="feFlood1056"/><feComposite in="flood" in2="SourceGraphic" operator="out" result="composite1" id="feComposite1058"/><feGaussianBlur in="composite1" stdDeviation="9.788" result="blur" id="feGaussianBlur1060"/><feOffset dx="0" dy="0" result="offset" id="feOffset1062"/><feComposite in="offset" in2="SourceGraphic" operator="atop" result="composite2" id="feComposite1064"/></filter><filter style="color-interpolation-filters:sRGB" id="filter3800" x="-.061" y="-.061" width="1.123" height="1.123"><feFlood flood-opacity="1" flood-color="#3A3F5E" result="flood" id="feFlood3790"/><feComposite in="flood" in2="SourceGraphic" operator="out" result="composite1" id="feComposite3792"/><feGaussianBlur in="composite1" stdDeviation="12.098" result="blur" id="feGaussianBlur3794"/><feOffset dx="0" dy="0" result="offset" id="feOffset3796"/><feComposite in="offset" in2="SourceGraphic" operator="atop" result="composite2" id="feComposite3798"/></filter><filter style="color-interpolation-filters:sRGB" id="filter4260" x="-.057" y="-.057" width="1.113" height="1.113"><feFlood flood-opacity="1" flood-color="#3A3F5E" result="flood" id="feFlood4250"/><feComposite in="flood" in2="SourceGraphic" operator="out" result="composite1" id="feComposite4252"/><feGaussianBlur in="composite1" stdDeviation="12.1" result="blur" id="feGaussianBlur4254"/><feOffset dx="0" dy="0" result="offset" id="feOffset4256"/><feComposite in="offset" in2="SourceGraphic" operator="atop" result="composite2" id="feComposite4258"/></filter><filter style="color-interpolation-filters:sRGB" id="filter893" x="-.099" y="-.077" width="1.198" height="1.153"><feFlood flood-opacity="1" flood-color="#3A3F5E" result="flood" id="feFlood883"/><feComposite in="flood" in2="SourceGraphic" operator="out" result="composite1" id="feComposite885"/><feGaussianBlur in="composite1" stdDeviation="15" result="blur" id="feGaussianBlur887"/><feOffset dx="0" dy="0" result="offset" id="feOffset889"/><feComposite in="offset" in2="SourceGraphic" operator="atop" result="composite2" id="feComposite891"/></filter><filter style="color-interpolation-filters:sRGB" id="filter893-7" x="-.16" y="-.161" width="1.312" height="1.314"><feFlood flood-opacity="1" flood-color="#3A3F5E" result="flood" id="feFlood883-7"/><feComposite in="flood" in2="SourceGraphic" operator="out" result="composite1" id="feComposite885-5"/><feGaussianBlur in="composite1" stdDeviation="15" result="blur" id="feGaussianBlur887-4"/><feOffset dx="0" dy="0" result="offset" id="feOffset889-8"/><feComposite in="offset" in2="SourceGraphic" operator="atop" result="composite2" id="feComposite891-1"/></filter><filter style="color-interpolation-filters:sRGB" id="filter937" x="-.075" y="-.075" width="1.149" height="1.15"><feFlood flood-opacity="1" flood-color="#3A3F5E" result="flood" id="feFlood927"/><feComposite in="flood" in2="SourceGraphic" operator="out" result="composite1" id="feComposite929"/><feGaussianBlur in="composite1" stdDeviation="14.772" result="blur" id="feGaussianBlur931"/><feOffset dx="0" dy="0" result="offset" id="feOffset933"/><feComposite in="offset" in2="SourceGraphic" operator="atop" result="composite2" id="feComposite935"/></filter><filter style="color-interpolation-filters:sRGB" id="filter887" x="-.161" y="-.162" width="1.313" height="1.316"><feFlood flood-opacity="1" flood-color="#3A3F5E" result="flood" id="feFlood877"/><feComposite in="flood" in2="SourceGraphic" operator="out" result="composite1" id="feComposite879"/><feGaussianBlur in="composite1" stdDeviation="15" result="blur" id="feGaussianBlur881"/><feOffset dx="0" dy="0" result="offset" id="feOffset883"/><feComposite in="offset" in2="SourceGraphic" operator="atop" result="composite2" id="feComposite885-2"/></filter><filter style="color-interpolation-filters:sRGB" id="filter937-8" x="-.059" y="-.06" width="1.119" height="1.12"><feFlood flood-opacity="1" flood-color="#3A3F5E" result="flood" id="feFlood927-9"/><feComposite in="flood" in2="SourceGraphic" operator="out" result="composite1" id="feComposite929-3"/><feGaussianBlur in="composite1" stdDeviation="11.723" result="blur" id="feGaussianBlur931-6"/><feOffset dx="0" dy="0" result="offset" id="feOffset933-8"/><feComposite in="offset" in2="SourceGraphic" operator="atop" result="composite2" id="feComposite935-0"/></filter><filter style="color-interpolation-filters:sRGB" id="filter893-1" x="-.162" y="-.161" width="1.315" height="1.314"><feFlood flood-opacity="1" flood-color="#3A3F5E" result="flood" id="feFlood883-0"/><feComposite in="flood" in2="SourceGraphic" operator="out" result="composite1" id="feComposite885-51"/><feGaussianBlur in="composite1" stdDeviation="15" result="blur" id="feGaussianBlur887-1"/><feOffset dx="0" dy="0" result="offset" id="feOffset889-0"/><feComposite in="offset" in2="SourceGraphic" operator="atop" result="composite2" id="feComposite891-8"/></filter><filter style="color-interpolation-filters:sRGB" id="filter937-5" x="-.063" y="-.063" width="1.127" height="1.126"><feFlood flood-opacity="1" flood-color="#3A3F5E" result="flood" id="feFlood927-0"/><feComposite in="flood" in2="SourceGraphic" operator="out" result="composite1" id="feComposite929-6"/><feGaussianBlur in="composite1" stdDeviation="12.382" result="blur" id="feGaussianBlur931-4"/><feOffset dx="0" dy="0" result="offset" id="feOffset933-6"/><feComposite in="offset" in2="SourceGraphic" operator="atop" result="composite2" id="feComposite935-2"/></filter><filter style="color-interpolation-filters:sRGB" id="filter893-8" x="-.157" y="-.157" width="1.305" height="1.305"><feFlood flood-opacity="1" flood-color="#3A3F5E" result="flood" id="feFlood883-6"/><feComposite in="flood" in2="SourceGraphic" operator="out" result="composite1" id="feComposite885-28"/><feGaussianBlur in="composite1" stdDeviation="15" result="blur" id="feGaussianBlur887-47"/><feOffset dx="0" dy="0" result="offset" id="feOffset889-2"/><feComposite in="offset" in2="SourceGraphic" operator="atop" result="composite2" id="feComposite891-4"/></filter><filter style="color-interpolation-filters:sRGB" id="filter1451" x="-.074" y="-.074" width="1.148" height="1.148"><feFlood flood-opacity="1" flood-color="#3A3F5E" result="flood" id="feFlood1441"/><feComposite in="flood" in2="SourceGraphic" operator="out" result="composite1" id="feComposite1443"/><feGaussianBlur in="composite1" stdDeviation="14.95" result="blur" id="feGaussianBlur1445"/><feOffset dx="0" dy="0" result="offset" id="feOffset1447"/><feComposite in="offset" in2="SourceGraphic" operator="atop" result="composite2" id="feComposite1449"/></filter></defs><g id="g439" transform="translate(-421 153)" style="fill:#1b1f21;fill-opacity:1"><g id="g1182" transform="translate(131.265 78.461)" style="fill:#1b1f21;fill-opacity:1"><g id="g541" transform="translate(26.047 -8.003)" style="fill:#1b1f21;fill-opacity:1"><g id="g319" transform="translate(-157.313 -70.459)" style="fill:#1b1f21;fill-opacity:1"><g id="g949" style="fill:#1b1f21;fill-opacity:1"><path d="M0 0h512v512H0Z" fill="#b90202" fill-opacity="1" id="path902" style="fill:#1b1f21;fill-opacity:1"/></g></g></g></g></g><style type="text/css" id="style4077">.st0{fill:#000}</style><g id="g4113" transform="translate(-403.478 170.522) scale(.93156)" style="fill:#e64539;fill-opacity:1;filter:url(#filter4260)"><path class="st0" d="M167.314 14.993C167.314 6.712 160.603 0 152.332 0h-5.514c-8.27 0-14.982 6.712-14.982 14.993V56.46h35.478z" id="path4079" style="fill:#e64539;fill-opacity:1"/><path class="st0" d="M238.261 14.993C238.261 6.712 231.549 0 223.279 0h-5.504c-8.271 0-14.982 6.712-14.982 14.993V56.46h35.468V14.993Z" id="path4081" style="fill:#e64539;fill-opacity:1"/><path class="st0" d="M309.207 14.993C309.207 6.712 302.496 0 294.225 0h-5.504c-8.271 0-14.982 6.712-14.982 14.993V56.46h35.468z" id="path4083" style="fill:#e64539;fill-opacity:1"/><path class="st0" d="M380.164 14.993C380.164 6.712 373.452 0 365.182 0h-5.514c-8.271 0-14.982 6.712-14.982 14.993V56.46h35.478V14.993Z" id="path4085" style="fill:#e64539;fill-opacity:1"/><path class="st0" d="M131.836 497.007c0 8.281 6.712 14.993 14.982 14.993h5.514c8.27 0 14.982-6.712 14.982-14.993V455.55h-35.478z" id="path4087" style="fill:#e64539;fill-opacity:1"/><path class="st0" d="M202.793 497.007c0 8.281 6.711 14.993 14.982 14.993h5.504c8.271 0 14.982-6.712 14.982-14.993V455.55h-35.468z" id="path4089" style="fill:#e64539;fill-opacity:1"/><path class="st0" d="M273.739 497.007c0 8.281 6.711 14.993 14.982 14.993h5.504c8.271 0 14.982-6.712 14.982-14.993V455.55h-35.468z" id="path4091" style="fill:#e64539;fill-opacity:1"/><path class="st0" d="M344.685 497.007c0 8.281 6.712 14.993 14.982 14.993h5.514c8.27 0 14.982-6.712 14.982-14.993V455.55h-35.478z" id="path4093" style="fill:#e64539;fill-opacity:1"/><path class="st0" d="M497.017 131.836h-41.466v35.478h41.466c8.272 0 14.982-6.711 14.982-14.992v-5.494c0-8.281-6.71-14.992-14.982-14.992z" id="path4095" style="fill:#e64539;fill-opacity:1"/><path class="st0" d="M497.017 202.792h-41.466v35.468h41.466c8.272 0 14.982-6.712 14.982-14.982v-5.493c0-8.281-6.71-14.993-14.982-14.993z" id="path4097" style="fill:#e64539;fill-opacity:1"/><path class="st0" d="M497.017 273.739h-41.466v35.468h41.466c8.272 0 14.982-6.712 14.982-14.993v-5.493c0-8.271-6.71-14.982-14.982-14.982z" id="path4099" style="fill:#e64539;fill-opacity:1"/><path class="st0" d="M497.017 344.685h-41.466v35.478h41.466c8.272 0 14.982-6.712 14.982-14.993v-5.493c0-8.28-6.71-14.992-14.982-14.992z" id="path4101" style="fill:#e64539;fill-opacity:1"/><path class="st0" d="M.001 146.828v5.494c0 8.281 6.712 14.992 14.982 14.992H56.46v-35.478H14.983c-8.27 0-14.982 6.711-14.982 14.992z" id="path4103" style="fill:#e64539;fill-opacity:1"/><path class="st0" d="M.001 217.786v5.493c0 8.27 6.712 14.982 14.982 14.982H56.46v-35.468H14.983c-8.27-.001-14.982 6.711-14.982 14.993z" id="path4105" style="fill:#e64539;fill-opacity:1"/><path class="st0" d="M.001 288.722v5.493c0 8.281 6.712 14.993 14.982 14.993H56.46V273.74H14.983c-8.27-.001-14.982 6.71-14.982 14.982z" id="path4107" style="fill:#e64539;fill-opacity:1"/><path class="st0" d="M.001 359.678v5.493c0 8.281 6.712 14.993 14.982 14.993H56.46v-35.478H14.983c-8.27-.001-14.982 6.711-14.982 14.992z" id="path4109" style="fill:#e64539;fill-opacity:1"/><path id="path4111" style="fill:#e64539;fill-opacity:1" class="st0" d="M78.627 78.627v354.754h354.754V78.627H78.627zM256 96.528c88.074 0 159.473 71.398 159.472 159.472 0 88.072-71.398 159.472-159.472 159.472-88.074 0-159.472-71.398-159.472-159.472 0-88.074 71.398-159.472 159.472-159.472zm-.002 39.11c-66.289 0-120.219 53.93-120.219 120.22 0 66.285 53.93 120.218 120.219 120.218 66.289 0 120.218-53.933 120.218-120.219 0-66.29-53.93-120.218-120.218-120.218zm0 18.85c55.895 0 101.37 45.473 101.37 101.37 0 55.892-45.476 101.365-101.37 101.365-55.894 0-101.368-45.473-101.368-101.366 0-55.896 45.474-101.37 101.368-101.37zm-.002 13.028c-48.71 0-88.34 39.63-88.34 88.341 0 25.211 10.635 47.976 27.634 64.086 2.84-5.105 6.59-9.795 11.095-13.917-12.948-12.806-20.985-30.561-20.985-50.169 0-38.928 31.67-70.6 70.598-70.6 38.927 0 70.6 31.672 70.6 70.6 0 19.606-8.038 37.362-20.99 50.169 4.508 4.122 8.257 8.812 11.098 13.917 17-16.11 27.632-38.874 27.63-64.086 0-48.713-39.63-88.341-88.34-88.341zm.002 34.374c-29.756 0-53.965 24.209-53.965 53.967 0 16.106 7.1 30.575 18.324 40.47 5.43-2.828 11.383-5.028 17.719-6.477-12.19-6.455-20.52-19.267-20.52-33.993 0-21.198 17.246-38.443 38.442-38.443 21.197 0 38.442 17.245 38.442 38.443 0 14.726-8.331 27.538-20.52 33.993 6.336 1.45 12.29 3.647 17.718 6.477 11.224-9.895 18.326-24.364 18.325-40.47 0-29.758-24.21-53.967-53.965-53.967z"/></g></svg>