<svg fill="#3A3F5EFF" height="512" width="512" xml:space="preserve" xmlns="http://www.w3.org/2000/svg"><defs><filter style="color-interpolation-filters:sRGB" id="a" x="-.081" y="-.201" width="1.162" height="1.403"><feFlood flood-opacity="1" flood-color="#3A3F5E" result="flood"/><feComposite in="flood" in2="SourceGraphic" operator="out" result="composite1"/><feGaussianBlur in="composite1" stdDeviation="15" result="blur"/><feOffset result="offset"/><feComposite in="offset" in2="SourceGraphic" operator="atop" result="composite2"/></filter></defs><path style="fill:#1b1f21;stroke-width:.204094;stroke-linejoin:bevel;fill-opacity:1" d="M-6.084-5.41h526.67v529.743H-6.084z"/><g style="fill:#e64539;fill-opacity:1;filter:url(#a)" transform="translate(-.394 21.568)"><g style="fill:#e64539;fill-opacity:1"><path d="M464.972 167.898c-15.94-20.71-46.105-22.831-74.197-22.831h-269.55c-28.092 0-56.546-.93-72.487 19.78-17.235 19.184-16.053 51.885-13.767 76.901l.886 13.399c7.927 38.903 42.402 68.267 83.61 68.267 273.047-.335 152.609 1.023 273.066 0 41.207 0 75.682-29.363 83.61-68.267 1.18-32.554 10.412-55.665-11.171-87.25zm-12.705 70.182c0 32.93-26.803 59.733-59.733 59.733-272.76.427-1.4.265-273.066 0-32.93 0-59.698-26.803-59.733-59.733l-.043-40.603c-.028-26.444 27.623-26.81 61.534-26.81h269.551c33.911 0 61.491-1.034 61.491 23.091v44.322z" style="fill:#e64539;fill-opacity:1"/><path d="M390.775 187.734h-269.55c-43.875 0-43.914.324-44.11 19.436l-.315 30.911c-.24 23.525 19.14 42.667 42.667 42.667 272.431-1.121 167.382 1.753 273.067 0 23.526 0 43.004-19.142 42.667-42.667l-.507-35.369c-.082-14.745-.343-14.978-43.919-14.978ZM93.867 247.468a8.509 8.509 0 0 1-6.033-2.5 8.523 8.523 0 0 1 0-12.066l34.133-34.133a8.523 8.523 0 0 1 12.066 0 8.525 8.525 0 0 1 0 12.066L99.9 244.967a8.511 8.511 0 0 1-6.033 2.501zm82.833-36.634-59.733 59.733a8.51 8.51 0 0 1-6.033 2.5 8.509 8.509 0 0 1-6.033-2.5 8.523 8.523 0 0 1 0-12.066l59.733-59.733a8.523 8.523 0 0 1 12.066 0 8.525 8.525 0 0 1 0 12.066z" style="fill:#e64539;fill-opacity:1"/></g></g></svg>