<svg fill="#3A3F5EFF" height="512" width="512" xml:space="preserve" xmlns="http://www.w3.org/2000/svg"><defs><filter style="color-interpolation-filters:sRGB" id="b" x="-.147" y="-.098" width="1.294" height="1.196"><feFlood flood-opacity="1" flood-color="#3A3F5E" result="flood"/><feComposite in="flood" in2="SourceGraphic" operator="out" result="composite1"/><feGaussianBlur in="composite1" stdDeviation="15" result="blur"/><feOffset result="offset"/><feComposite in="offset" in2="SourceGraphic" operator="atop" result="composite2"/></filter><filter style="color-interpolation-filters:sRGB" id="a" x="-.196" y="-.196" width="1.392" height="1.392"><feFlood flood-opacity="1" flood-color="#3A3F5E" result="flood"/><feComposite in="flood" in2="SourceGraphic" operator="out" result="composite1"/><feGaussianBlur in="composite1" stdDeviation="15" result="blur"/><feOffset result="offset"/><feComposite in="offset" in2="SourceGraphic" operator="atop" result="composite2"/></filter></defs><path style="fill:#1b1f21;stroke-width:.204094;stroke-linejoin:bevel;fill-opacity:1" d="M-6.084-5.41h526.67v529.743H-6.084z"/><rect x="164.203" y="164.203" width="183.594" height="183.594" rx="6.12" ry="6.12" style="fill:#e64539;fill-opacity:1;stroke-width:.764974;filter:url(#a)" transform="translate(-32.047 -32.047) scale(1.12518)"/><path d="M353.917 133.604h-36.72V72.406H194.803v61.198h-36.719a24.48 24.48 0 0 0-24.479 24.48v195.833a24.48 24.48 0 0 0 24.48 24.479h36.718v61.198h122.396v-61.198h36.719a24.48 24.48 0 0 0 24.479-24.48V158.084a24.48 24.48 0 0 0-24.48-24.479zm6.12 208.073a18.36 18.36 0 0 1-18.36 18.36H170.323a18.36 18.36 0 0 1-18.36-18.36V170.323a18.36 18.36 0 0 1 18.36-18.36h171.354a18.36 18.36 0 0 1 18.36 18.36z" style="fill:#e64539;fill-opacity:1;stroke-width:.764974;filter:url(#b)" transform="translate(-32.047 -32.047) scale(1.12518)"/></svg>