<svg style="height:512px;width:512px" viewBox="0 0 512 512" xmlns="http://www.w3.org/2000/svg"><defs><filter id="a" height="1.396" width="1.236" x="-.118" y="-.198"><feFlood flood-color="rgba(58, 63, 94, 1)" result="flood"/><feComposite in="flood" in2="SourceGraphic" operator="out" result="composite"/><feGaussianBlur in="composite" stdDeviation="15" result="blur"/><feOffset result="offset"/><feComposite in2="SourceGraphic" in="offset" operator="atop"/></filter></defs><path d="M0 0h512v512H0z" fill="#1b1f21"/><path d="M324.563 39.156a17.073 17.073 0 0 0-3.438.407c-9.223 2.097-15.004 11.275-12.906 20.5.006.032.022.06.03.093l-22.813 28.188-3.25 4 1.688 4.906 13.906 40.563-142.655 24.03c12.343 10.045 19.98 25.555 19.28 42.595a51.943 51.943 0 0 1-1.5 10.437l130.532-53.438-.125-.968c5.93 7.795 15.912 12.005 26.375 10.124 14.91-2.68 24.684-16.683 22.063-31.5-2.294-12.967-13.248-22.02-25.938-22.28-1.812-.04-3.636.1-5.5.436-3.173.57-6.11 1.66-8.75 3.156l-8.343-24.344 18.592-22.968c2.22.41 4.566.407 6.907-.125 9.223-2.1 15.003-11.277 12.905-20.5-1.835-8.07-9.098-13.487-17.063-13.314zm115 29.032c-1.277.04-2.56.218-3.844.562a17.05 17.05 0 0 0-9.814 7.063l-38.687-6.126-3.97-.624-3.188 2.437-38.656 29.688a46.243 46.243 0 0 1 16.53 10.874l30.314-23.28 37.656 5.968c3.954 5.975 11.386 9.05 18.688 7.094 9.138-2.45 14.542-11.83 12.094-20.97-1.99-7.422-8.55-12.396-15.844-12.686-.42-.017-.856-.014-1.28 0zm-39.188 57.906-1.875.125-30.375 2.093a45.086 45.086 0 0 1 2.625 18.562L397.938 145l28.03 9.5c.094.592.186 1.19.344 1.78 2.45 9.14 11.863 14.575 21 12.126 9.138-2.448 14.543-11.862 12.094-21-2.448-9.136-11.832-14.54-20.97-12.094a17.134 17.134 0 0 0-4.717 2.063l-31.564-10.688zm-34.563 38.5a46.513 46.513 0 0 1-11.937 14.78l42.594 23.564a17.133 17.133 0 0 0 .56 5.53c2.45 9.14 11.832 14.574 20.97 12.126 9.138-2.45 14.542-11.862 12.094-21-2.448-9.136-11.833-14.542-20.97-12.094-.408.11-.793.238-1.187.375l-42.125-23.28z" fill="#e64539" filter="url(#a)" transform="rotate(-40.839 412.278 566.51) scale(1.5414)"/></svg>