<svg style="height:512px;width:512px" viewBox="0 0 512 512" xmlns="http://www.w3.org/2000/svg"><defs><filter style="color-interpolation-filters:sRGB" id="a" x="-.13" y="-.07" width="1.26" height="1.141"><feFlood flood-opacity="1" flood-color="#3A3F5E" result="flood"/><feComposite in="flood" in2="SourceGraphic" operator="out" result="composite1"/><feGaussianBlur in="composite1" stdDeviation="15" result="blur"/><feOffset result="offset"/><feComposite in="offset" in2="SourceGraphic" operator="atop" result="composite2"/></filter></defs><path d="M0 0h512v512H0z" fill="#1b1f21"/><g style="fill:#e64539;fill-opacity:1;filter:url(#a)"><path d="M186.884 68.267h158.464a8226.4 8226.4 0 0 0-41.421-64.384A8.534 8.534 0 0 0 296.776 0H126.109a8.523 8.523 0 0 0-7.987 5.53 8.543 8.543 0 0 0 2.355 9.421c12.109 10.607 13.577 11.494 14.225 11.878 18.919 11.349 35.866 26.334 52.182 41.438zm203.004 73.301c-3.26-7.262-17.638-30.703-33.732-56.235H205.304c9.199 8.465 18.671 16.896 28.604 24.636 4.932 3.84 10.095 7.433 15.258 11.008 5.82 4.036 11.307 7.851 16.503 12.049 18.466 14.925 22.758 24.038 22.374 27.068-.154 1.212-2.415 2.381-3.371 2.825-35.354 16.29-43.938 38.298-61.047 82.133l-3.063 7.834c-18.859 48.068-48.341 85.308-70.11 88.542-8.337 1.237-20.062 3.908-25.574 12.749-5.76 9.25-2.244 20.258 1.63 32.418 6.05 18.97 1.34 47.292-.247 55.526-2.628 13.602 2.534 44.757 15.036 59.913 6.81 8.235 14.054 9.967 18.944 9.967 11.341 0 18.825-2.603 22.878-7.945 3.021-3.985 3.226-8.525 2.364-11.58-3.379-11.23-4.147-23.509-2.295-36.48 3.695-25.822 16.555-50.338 27.349-68.821 11.674-19.977 26.206-39.646 43.187-58.462 11.119-12.331 23.142-24.337 34.765-35.942a2517.27 2517.27 0 0 0 14.31-14.37l2.364-2.398c18.68-18.961 37.99-38.562 58.01-56.585l.802-.717c6.554-5.897 13.338-11.989 18.893-19.524 12.234-16.564 15.059-39.715 7.02-57.609z" style="fill:#e64539;fill-opacity:1" transform="translate(35.973 20.055) scale(.9102)"/></g></svg>