<svg width="512" height="512" xmlns="http://www.w3.org/2000/svg"><defs><filter style="color-interpolation-filters:sRGB" id="a" x="-.063" y="-.063" width="1.125" height="1.125"><feFlood flood-opacity="1" flood-color="#3A3F5E" result="flood"/><feComposite in="flood" in2="SourceGraphic" operator="out" result="composite1"/><feGaussianBlur in="composite1" stdDeviation="12.382" result="blur"/><feOffset result="offset"/><feComposite in="offset" in2="SourceGraphic" operator="atop" result="composite2"/></filter></defs><path d="M0 0h512v512H0z" fill="#b90202" style="fill:#1b1f21;fill-opacity:1"/><g style="fill:#e64539;fill-opacity:1;filter:url(#a)"><path d="M20.72 19.34v39.72L151.6 132.9l94.9-45.12L151 19.34H20.72zm196.98.1L313 76.78C226.5 118 135.1 161.4 57.53 198.3l161.57 86.1 59.6-39.2-39.4-34.9c82.3-40.6 168.3-83.5 241.8-119.93l-93.6-70.93H217.7zM361.9 170.5l-76.5 37.9 44.9 25.3c-54.2 35.6-111.8 73.6-160.6 105.7l325.2 154.8L307.5 347c57.6-32.3 117.5-65.9 168.8-94.6l-114.4-81.9zm13.2 160.1-33.9 18.9 139.3 74.3c-35.1-31.1-70.3-62.2-105.4-93.2z" fill="#fff" style="fill:#e64539;fill-opacity:1"/></g></svg>