<svg width="512" height="512" xmlns="http://www.w3.org/2000/svg"><defs><filter style="color-interpolation-filters:sRGB" id="a" x="-.183" y="-.248" width="1.357" height="1.483"><feFlood flood-opacity="1" flood-color="#3A3F5E" result="flood"/><feComposite in="flood" in2="SourceGraphic" operator="out" result="composite1"/><feGaussianBlur in="composite1" stdDeviation="15" result="blur"/><feOffset result="offset"/><feComposite in="offset" in2="SourceGraphic" operator="atop" result="composite2"/></filter></defs><path d="M0 0h512v512H0Z" fill="#b90202" style="fill:#1b1f21;fill-opacity:1"/><path fill="none" d="M536.583 34.41H951.67v415.085H536.583Z"/><path style="fill:#e64539;stroke-width:1;fill-opacity:1;filter:url(#a)" d="M256 102.914c-2.82 0 0 0-29.064 12.484l-113.5 22.088c-7.697 1.937-13.092 8.856-13.092 16.778v16.775H83.047c-19.111 0-34.59 15.479-34.59 34.59v51.887c0 28.658 23.229 51.884 51.887 51.884h7.297c9.253 23.349 26.842 42.997 50.052 54.62l82.844 41.421a34.621 34.621 0 0 0 30.926 0l82.826-41.421c23.245-11.623 40.833-31.271 50.086-54.62h7.281c28.658 0 51.887-23.226 51.887-51.884v-51.887c0-19.025-15.565-34.59-34.59-34.59h-17.297v-16.76c0-7.956-5.395-14.873-13.092-16.775l-111.18-22.36C256 102.915 258.82 102.915 256 102.915zM83.047 205.63h17.297v69.182c-9.547 0-17.297-7.748-17.297-17.295V205.63zm328.61 0h17.296v51.887c0 9.547-7.75 17.295-17.297 17.295V205.63zm-71.225 54.416c23.46 0 34.941 19.019 25.646 42.478-9.295 23.46-35.847 42.477-59.307 42.477-23.459 0-34.943-19.017-25.648-42.477 9.295-23.46 35.85-42.478 59.309-42.478zm-169.727.05c23.46 0 50.012 19.018 59.307 42.477 9.295 23.46-2.19 42.479-25.649 42.479-23.46 0-50.012-19.02-59.306-42.479-9.295-23.46 2.188-42.476 25.648-42.476zm152.79 10.864c-9.99 3.449-19.597 10.328-26.462 18.951a14.42 14.42 0 0 1 1.883-.13c7.038 0 10.482 5.705 7.693 12.743-2.788 7.039-10.753 12.743-17.79 12.743-.622 0-1.216-.045-1.78-.131.032 8.623 4.187 15.504 11.443 18.953.152-.598.348-1.21.594-1.83 2.789-7.038 10.755-12.744 17.793-12.744 7.038 0 10.482 5.706 7.693 12.744a17.16 17.16 0 0 1-.855 1.83c9.99-3.449 19.596-10.33 26.461-18.953-.632.086-1.26.13-1.88.13-7.039 0-10.485-5.703-7.696-12.742 2.788-7.038 10.755-12.744 17.793-12.744.27 0 .535.01.795.026.336.021.664.056.982.105-.032-8.623-4.185-15.502-11.441-18.951-.151.598-.35 1.209-.596 1.83-2.788 7.038-10.755 12.742-17.793 12.742-7.038 0-10.482-5.704-7.693-12.742.246-.621.532-1.232.855-1.83zm-161.079.05c-7.257 3.45-11.411 10.329-11.443 18.952a11.262 11.262 0 0 1 1.779-.131c7.038 0 15.002 5.704 17.791 12.742 2.789 7.038-.655 12.744-7.693 12.744-.622 0-1.251-.044-1.883-.13 6.865 8.623 16.471 15.502 26.46 18.95a17.135 17.135 0 0 1-.855-1.83c-2.788-7.037.656-12.742 7.694-12.742s15.004 5.705 17.793 12.743c.246.62.442 1.232.593 1.83 7.257-3.449 11.412-10.328 11.444-18.951-.564.086-1.156.13-1.778.13-7.038 0-15.004-5.706-17.793-12.744-2.788-7.038.658-12.742 7.696-12.742a14.426 14.426 0 0 1 1.88.13c-6.865-8.622-16.471-15.502-26.46-18.95.322.598.609 1.207.855 1.828 2.789 7.038-.655 12.744-7.693 12.744-7.038 0-15.005-5.706-17.793-12.744a14.783 14.783 0 0 1-.594-1.828zm164.55 23.018c4.693 0 6.989 3.804 5.13 8.496-1.86 4.693-7.17 8.497-11.862 8.497s-6.988-3.804-5.129-8.497c1.86-4.692 7.17-8.496 11.862-8.496zm-142.798.051c4.692 0 10.002 3.802 11.861 8.494 1.86 4.692-.437 8.496-5.129 8.496-4.692 0-10.002-3.804-11.86-8.496-1.86-4.692.436-8.494 5.128-8.494z"/></svg>