<svg height="512" width="512" style="enable-background:new 0 0 512 512" xml:space="preserve" xmlns="http://www.w3.org/2000/svg"><defs><filter style="color-interpolation-filters:sRGB" id="a" x="-.187" y="-.23" width="1.364" height="1.449"><feFlood flood-opacity="1" flood-color="#3A3F5E" result="flood"/><feComposite in="flood" in2="SourceGraphic" operator="out" result="composite1"/><feGaussianBlur in="composite1" stdDeviation="15" result="blur"/><feOffset result="offset"/><feComposite in="offset" in2="SourceGraphic" operator="atop" result="composite2"/></filter></defs><path d="M0 0h512v512H0Z" fill="#b90202" style="fill:#1b1f21;fill-opacity:1"/><g style="fill:#fff"><path style="fill:#e64539;stroke-width:.793257;fill-opacity:1;filter:url(#a)" d="M78.31 91.002c-14.018 0-25.384 11.365-25.384 25.385v279.226c0 14.019 11.366 25.385 25.385 25.385h355.378c14.019 0 25.385-11.366 25.385-25.385V116.387c0-14.02-11.366-25.385-25.385-25.385H78.311zm88.844 50.77c42.059 0 76.155 34.093 76.155 76.152 0 42.058-34.096 76.152-76.155 76.152-42.058 0-76.152-34.094-76.152-76.152 0-42.059 34.094-76.153 76.152-76.153zm177.692 0c42.058 0 76.152 34.093 76.152 76.152 0 42.058-34.094 76.152-76.152 76.152-42.059 0-76.155-34.094-76.155-76.152 0-42.059 34.096-76.153 76.155-76.153zM133.039 167.26a12.682 12.682 0 0 0-7.965 3.174c-10.182 9.017-17.055 21.046-19.875 34.804a12.691 12.691 0 0 0 1.84 9.537 12.708 12.708 0 0 0 8.049 5.442l28.008 5.738c.074.22.207.412.29.629.438 1.206.984 2.343 1.594 3.455.127.23.237.461.374.688a25.094 25.094 0 0 0 2.837 3.914l-9.14 27.42c-2.213 6.643 1.372 13.826 8.015 16.044a61.574 61.574 0 0 0 19.58 3.192c6.842 0 13.743-1.129 20.504-3.385 6.65-2.217 10.245-9.405 8.03-16.055l-9.07-27.203a25.491 25.491 0 0 0 2.843-3.918c.133-.223.243-.457.373-.683a24.977 24.977 0 0 0 1.592-3.455c.08-.217.218-.411.293-.631l28.215-5.776c6.86-1.4 11.288-8.098 9.894-14.959-2.711-13.324-9.695-25.292-20.203-34.625-2.516-2.237-5.844-3.44-9.181-3.173a12.699 12.699 0 0 0-8.743 4.246l-18.945 21.375c-1.53-.314-3.117-.457-4.734-.479-.177-.003-.353-.02-.53-.02a25.537 25.537 0 0 0-4.908.495l-19.094-21.533a12.656 12.656 0 0 0-9.943-4.258zm177.69 0a12.682 12.682 0 0 0-7.965 3.174c-10.183 9.017-17.055 21.046-19.875 34.804a12.692 12.692 0 0 0 1.84 9.537 12.708 12.708 0 0 0 8.048 5.442l28.008 5.738c.075.22.21.412.293.629a24.53 24.53 0 0 0 1.592 3.455c.127.23.237.461.373.688a25.094 25.094 0 0 0 2.838 3.914l-9.14 27.42c-2.213 6.643 1.371 13.826 8.015 16.044a61.574 61.574 0 0 0 19.58 3.192c6.842 0 13.742-1.129 20.504-3.385 6.65-2.219 10.245-9.407 8.03-16.057l-9.071-27.203a25.491 25.491 0 0 0 2.844-3.918c.133-.223.243-.457.373-.683a24.977 24.977 0 0 0 1.591-3.455c.081-.217.219-.411.293-.631l28.215-5.776c6.86-1.4 11.289-8.098 9.895-14.959-2.712-13.324-9.696-25.292-20.203-34.625-2.516-2.236-5.835-3.438-9.182-3.171a12.699 12.699 0 0 0-8.742 4.246l-18.945 21.375c-1.531-.314-3.117-.457-4.735-.479-.177-.003-.352-.02-.53-.02a25.537 25.537 0 0 0-4.907.495l-19.094-21.533a12.656 12.656 0 0 0-9.943-4.258zm-181.65 152.2h50.769v50.769h-50.77V319.46zm88.845 0h76.152v50.769h-76.152V319.46zm114.228 0h50.77v50.769h-50.77V319.46z"/></g></svg>