<svg xml:space="preserve" width="512" height="512" xmlns="http://www.w3.org/2000/svg"><defs><filter style="color-interpolation-filters:sRGB" id="a" x="-.495" y="-.21" width="1.991" height="1.419"><feFlood flood-opacity="1" flood-color="#3A3F5E" result="flood"/><feComposite in="flood" in2="SourceGraphic" operator="out" result="composite1"/><feGaussianBlur in="composite1" stdDeviation="2.27" result="blur"/><feOffset result="offset"/><feComposite in="offset" in2="SourceGraphic" operator="atop" result="composite2"/></filter></defs><path d="M0 0h512v512H0Z" fill="#b90202" style="fill:#1b1f21;fill-opacity:1"/><path d="M33.443 18.124a4.831 4.831 0 0 0 .292-2.875A10.941 10.941 0 0 1 33.5 13c0-.751.079-1.508.235-2.249.2-.95.096-1.971-.292-2.875A12.985 12.985 0 0 0 21.5 0c-2.757 0-5 2.243-5 5v1h-2v14h2v1c0 2.757 2.243 5 5 5 5.202 0 9.89-3.092 11.943-7.876zM43.5 27c0-2.757-2.243-5-5-5-5.202 0-9.89 3.092-11.943 7.876a4.831 4.831 0 0 0-.292 2.875c.156.741.235 1.498.235 2.249 0 .751-.079 1.508-.235 2.249-.2.95-.096 1.971.292 2.875A12.985 12.985 0 0 0 38.5 48c2.757 0 5-2.243 5-5v-1h2V28h-2zm-42-12v16.32A2.683 2.683 0 0 0 4.18 34h4.64a2.683 2.683 0 0 0 2.68-2.68V20.68a.68.68 0 0 1 .68-.68h.32V6h-2c-4.962 0-9 4.037-9 9zm48 13h-2v14h.32a.68.68 0 0 1 .68.68v10.64A2.683 2.683 0 0 0 51.18 56h4.64a2.683 2.683 0 0 0 2.68-2.68V37c0-4.963-4.038-9-9-9z" style="fill:#e64539;fill-opacity:1;filter:url(#a)" transform="translate(29.27 44.385) scale(7.55768)"/></svg>