<svg xml:space="preserve" width="512" height="512" xmlns="http://www.w3.org/2000/svg"><defs><filter style="color-interpolation-filters:sRGB" id="a" x="-.026" y="-.026" width="1.052" height="1.052"><feFlood flood-opacity="1" flood-color="#3A3F5E" result="flood"/><feComposite in="flood" in2="SourceGraphic" operator="out" result="composite1"/><feGaussianBlur in="composite1" stdDeviation="5" result="blur"/><feOffset result="offset"/><feComposite in="offset" in2="SourceGraphic" operator="atop" result="composite2"/></filter></defs><path d="M0 0h512v512H0Z" fill="#b90202" style="stroke:#1b1f21;stroke-opacity:1;fill:#1b1f21;fill-opacity:1"/><g transform="translate(52.21 52.21) scale(.79605)" style="fill:#e64539;fill-opacity:1;stroke:#e64539;stroke-opacity:1;filter:url(#a)"><path d="M255.999 189.625c-64.48 0-114.99 29.155-114.99 66.374.001 37.22 50.51 66.375 114.99 66.375 64.48 0 114.99-29.155 114.99-66.375 0-37.219-50.51-66.374-114.99-66.374zm0 116.342c-53.436 0-98.581-22.881-98.581-49.967.001-27.084 45.146-49.966 98.581-49.966 53.437 0 98.581 22.881 98.581 49.966 0 27.086-45.146 49.967-98.581 49.967z" style="fill:#e64539;stroke:#e64539;stroke-opacity:1;stroke-width:6.28098015;stroke-miterlimit:4;stroke-dasharray:none;fill-opacity:1"/><path d="M255.999 213.649c-23.353 0-42.351 18.999-42.351 42.352 0 23.353 18.999 42.352 42.351 42.352 23.353 0 42.352-18.999 42.352-42.352 0-23.353-18.999-42.352-42.352-42.352zm0 68.295c-14.305 0-25.942-11.638-25.942-25.943 0-14.305 11.638-25.943 25.942-25.943 14.305 0 25.943 11.638 25.943 25.943 0 14.305-11.638 25.943-25.943 25.943zm-32.728-122.737-56.675-67.614a8.206 8.206 0 0 0-6.288-2.935h-47.247a8.204 8.204 0 1 0 0 16.408h43.42l54.214 64.68a8.185 8.185 0 0 0 6.292 2.935 8.17 8.17 0 0 0 5.266-1.917 8.202 8.202 0 0 0 1.018-11.557zM72.796 29.276H25.548a8.204 8.204 0 1 0 0 16.408h47.247a8.204 8.204 0 0 0 8.204-8.204 8.202 8.202 0 0 0-8.203-8.204Zm0 29.691H25.548a8.204 8.204 0 1 0 0 16.408h47.247a8.204 8.204 0 0 0 8.204-8.204 8.203 8.203 0 0 0-8.203-8.204zm0 29.691H25.548a8.204 8.204 0 1 0 0 16.408h47.247a8.203 8.203 0 0 0 8.204-8.204 8.203 8.203 0 0 0-8.203-8.204zm326.141 0H351.69a8.202 8.202 0 0 0-6.288 2.935l-56.675 67.614a8.205 8.205 0 1 0 12.575 10.54l54.215-64.68h43.419a8.203 8.203 0 0 0 8.204-8.204 8.202 8.202 0 0 0-8.203-8.205zm87.514-59.382h-47.247A8.203 8.203 0 0 0 431 37.48a8.203 8.203 0 0 0 8.204 8.204h47.247a8.203 8.203 0 0 0 8.204-8.204 8.203 8.203 0 0 0-8.204-8.204zm0 29.691h-47.247A8.203 8.203 0 0 0 431 67.171a8.203 8.203 0 0 0 8.204 8.204h47.247a8.203 8.203 0 0 0 8.204-8.204 8.203 8.203 0 0 0-8.204-8.204zm0 29.691h-47.247A8.203 8.203 0 0 0 431 96.862a8.203 8.203 0 0 0 8.204 8.204h47.247a8.203 8.203 0 0 0 8.204-8.204 8.203 8.203 0 0 0-8.204-8.204zM222.254 341.236a8.205 8.205 0 0 0-11.558 1.017l-54.214 64.679h-43.42a8.204 8.204 0 1 0 0 16.408h47.247v.001a8.202 8.202 0 0 0 6.288-2.934l56.675-67.614a8.205 8.205 0 0 0-1.018-11.557zM72.796 466.317H25.548a8.204 8.204 0 1 0 0 16.408h47.247a8.204 8.204 0 0 0 8.204-8.204 8.203 8.203 0 0 0-8.203-8.204zm0-29.692H25.548a8.204 8.204 0 1 0 0 16.408h47.247a8.204 8.204 0 0 0 8.204-8.204 8.203 8.203 0 0 0-8.203-8.204zm0-29.692H25.548a8.204 8.204 0 1 0 0 16.408h47.247a8.203 8.203 0 0 0 8.204-8.204 8.204 8.204 0 0 0-8.203-8.204zm326.141 0h-43.419l-54.216-64.679a8.204 8.204 0 0 0-12.575 10.541l56.675 67.614a8.202 8.202 0 0 0 6.288 2.934h47.247a8.203 8.203 0 0 0 8.204-8.204 8.204 8.204 0 0 0-8.204-8.206zm87.514 59.384h-47.247a8.203 8.203 0 0 0-8.204 8.204 8.203 8.203 0 0 0 8.204 8.204h47.247a8.203 8.203 0 0 0 8.204-8.204 8.203 8.203 0 0 0-8.204-8.204zm0-29.692h-47.247a8.203 8.203 0 0 0-8.204 8.204 8.203 8.203 0 0 0 8.204 8.204h47.247a8.204 8.204 0 1 0 0-16.408zm0-29.692h-47.247a8.203 8.203 0 0 0-8.204 8.204 8.203 8.203 0 0 0 8.204 8.204h47.247a8.205 8.205 0 0 0 0-16.408zM403.676 46.864C360.335 16.206 309.27.001 255.999.001c-53.271 0-104.338 16.205-147.681 46.866a8.204 8.204 0 0 0-1.96 11.436c1.561 2.205 4.124 3.401 6.707 3.42 1.655.012 3.318-.461 4.73-1.459C158.351 31.574 206.142 16.409 256 16.409c49.857 0 97.646 15.163 138.201 43.851a8.205 8.205 0 0 0 9.475-13.396zm73.207 79.649a8.207 8.207 0 0 0-11.23-2.919 8.206 8.206 0 0 0-2.919 11.23c21.494 36.59 32.857 78.493 32.857 121.177 0 45.581-12.847 89.915-37.152 128.209a8.202 8.202 0 0 0 2.53 11.322 8.2 8.2 0 0 0 11.324-2.53C498.269 352.075 512 304.7 512 256c.001-45.603-12.142-90.38-35.117-129.487ZM399.945 457.89a8.203 8.203 0 0 0-11.375-2.285c-39.307 26.16-85.148 39.987-132.57 39.987s-93.266-13.828-132.574-39.989a8.205 8.205 0 0 0-9.092 13.66c42.008 27.959 90.996 42.738 141.665 42.738 50.667 0 99.653-14.778 141.661-42.735a8.203 8.203 0 0 0 2.285-11.376zm-345.67-72.563C29.503 346.77 16.409 302.05 16.409 256.001c0-42.685 11.361-84.587 32.857-121.176a8.205 8.205 0 0 0-14.149-8.311C12.144 165.62 0 210.396 0 256.001c0 49.201 13.993 96.988 40.469 138.195a8.202 8.202 0 0 0 11.337 2.468 8.204 8.204 0 0 0 2.469-11.337z" style="fill:#e64539;stroke:#e64539;stroke-opacity:1;stroke-width:6.28098015;stroke-miterlimit:4;stroke-dasharray:none;fill-opacity:1"/></g></svg>