<svg width="512" height="512" xml:space="preserve" xmlns="http://www.w3.org/2000/svg"><defs><filter style="color-interpolation-filters:sRGB" id="a" x="-.046" y="-.047" width="1.092" height="1.093"><feFlood flood-opacity="1" flood-color="#3A3F5E" result="flood"/><feComposite in="flood" in2="SourceGraphic" operator="out" result="composite1"/><feGaussianBlur in="composite1" stdDeviation="7.566" result="blur"/><feOffset result="offset"/><feComposite in="offset" in2="SourceGraphic" operator="atop" result="composite2"/></filter></defs><path d="M0 0h512v512H0Z" fill="#b90202" style="fill:#1b1f21;fill-opacity:1"/><g transform="translate(-44.6 -12.357) scale(1.11384)" style="fill:#e64539;fill-opacity:1;filter:url(#a)"><path d="M353.342 149.79H94.105c-8.515 0-15.416 6.9-15.416 15.414v253.931c0 8.514 6.9 15.416 15.416 15.416h259.237c8.514 0 15.416-6.9 15.416-15.416V165.204c0-8.514-6.902-15.414-15.416-15.414zm-69.196 128.722c0 2.343-.157 4.649-.453 6.917l6.04-3.355 2.959-1.642 1.999 1.757 37.148 32.66-39.39-23.799-13.578 10.637c-4 8.354-10.092 15.634-17.654 21.254l4.539.013 3.817.01.979 2.522 20.699 53.207-26.896-45.735-13.916 4.457c-6.197 7.443-15.857 12.233-26.718 12.233-10.86 0-20.522-4.79-26.719-12.233l-13.916-4.457-26.893 45.735 20.7-53.207.979-2.521 3.817-.01 4.539-.014c-7.562-5.62-13.655-12.9-17.653-21.254l-13.578-10.637-39.39 23.8 37.148-32.66 2-1.758 2.956 1.642 6.042 3.355a53.537 53.537 0 0 1-.453-6.917c0-.375.008-.75.017-1.126l-21.102-14.06-46.225 15.628 45.002-25.262 1.721-.968 2.497 1.165 20.285 9.45c2.502-8.46 7.043-16.122 13.097-22.496l-35.448-23.624-47.065 35.91 43.748-45.327 2.081-2.157 3.357 1.564 48.001 22.359c8.944-4.905 19.347-7.719 30.457-7.719s21.514 2.814 30.457 7.719l48.002-22.36 3.358-1.563 2.08 2.157 43.748 45.327-47.067-35.91-35.448 23.624c6.052 6.374 10.595 14.036 13.096 22.495l20.286-9.448 2.497-1.164 1.72.967 45.002 25.263-46.224-15.63-21.1 14.06c.007.375.016.75.016 1.126z" style="fill:#e64539;stroke-width:.817725;fill-opacity:1"/><path d="M222.532 283.474c-10.785 0-19.531 8.824-19.531 19.71 0 10.885 8.745 19.707 19.531 19.707s19.53-8.823 19.53-19.708c0-10.886-8.744-19.71-19.53-19.71zm14.24 18.064c-1.986 2.004-6.236.965-9.494-2.323s-4.288-7.578-2.301-9.58c1.987-2.006 6.237-.966 9.495 2.322 3.255 3.287 4.285 7.577 2.3 9.581z" style="fill:#e64539;stroke-width:.817725;fill-opacity:1"/><path d="M384.307 133.626a95.755 95.755 0 0 0-24.95-17.997l-1.765-.882V128.5l.611.353a83.938 83.938 0 0 1 17.491 13.386 84.127 84.127 0 0 1 12.152 15.403l.357.58h13.95l-.953-1.792a95.892 95.892 0 0 0-16.893-22.804zm87.01 23.038c-7.507-26.048-21.633-49.975-40.855-69.194-19.77-19.77-44.435-34.106-71.33-41.457l-1.54-.421v12.637l.878.257c23.846 6.977 45.76 19.978 63.379 37.598 17.086 17.086 29.87 38.275 36.973 61.278l.264.86h12.68zm-62.94-47.107c-13.999-13.998-30.54-24.374-49.164-30.842l-1.62-.563V91.07l.786.299c15.602 5.924 29.524 14.942 41.387 26.802 11.303 11.305 20.046 24.523 25.979 39.287l.307.764h13.007l-.602-1.64c-6.52-17.763-16.641-33.585-30.08-47.024z" style="fill:#e64539;stroke-width:.73991;fill-opacity:1"/></g></svg>