<svg xml:space="preserve" width="512" height="512" xmlns="http://www.w3.org/2000/svg"><defs><filter style="color-interpolation-filters:sRGB" id="a" x="-.151" y="-.206" width="1.294" height="1.401"><feFlood flood-opacity="1" flood-color="#3A3F5E" result="flood"/><feComposite in="flood" in2="SourceGraphic" operator="out" result="composite1"/><feGaussianBlur in="composite1" stdDeviation="30" result="blur"/><feOffset result="offset"/><feComposite in="offset" in2="SourceGraphic" operator="atop" result="composite2"/></filter></defs><path d="M0 0h512v512H0Z" fill="#b90202" style="fill:#1b1f21;fill-opacity:1"/><g transform="translate(30.362 30.364) scale(.89612)" style="fill:#e64539;fill-opacity:1;filter:url(#a)"><path d="m502.833 371.743-26.238-157.444c-2.207-13.236-8.939-24.652-18.424-32.869l-6.773 8.461c-32.298 36.075-48.522 76.557-48.522 120.656 0 13.589 1.586 26.901 4.432 39.86.025.101.092.176.117.285 5.086 22.864 14.353 44.275 27.547 63.614 1.981 2.904 3.937 5.825 6.094 8.637l10.962 13.295c14.856-1.074 28.68-7.982 38.392-19.439a55.502 55.502 0 0 0 12.413-45.056zM392.46 360.906H111.137c-4.214 16.392-10.542 32.138-18.818 47.02v28.521h325.724c-10.895-17.265-19.07-50.537-24.442-71.672-.36-1.292-.805-2.568-1.141-3.869zM96.296 350.382c2.837-12.943 4.415-26.255 4.415-39.835 0-44.099-16.216-84.581-48.212-120.303l-7.949-7.932c-8.989 8.15-15.419 19.187-17.551 31.987L.762 371.743a55.442 55.442 0 0 0 12.414 45.056c9.703 11.457 23.535 18.365 38.383 19.439l11.146-13.522c5.162-6.723 9.694-13.774 13.832-21.026.042-.067.05-.143.092-.21 8.989-15.813 15.561-32.911 19.54-50.789.026-.116.102-.2.127-.309z" style="fill:#e64539;fill-opacity:1"/><path d="M117.502 310.55c0 11.365-.948 22.578-2.787 33.574h274.163a203.575 203.575 0 0 1-2.787-33.574c0-48.371 17.66-92.613 52.501-131.5l5.196-6.497c-6.79-2.929-14.185-4.692-22.016-4.692H374.14c-4.608-10.5-13.421-18.642-24.274-22.553-10.441-45.534-50.948-78.168-98.069-78.168s-87.636 32.634-98.077 78.16c-10.844 3.92-19.657 12.061-24.265 22.562H81.813c-8.167 0-15.855 1.922-22.88 5.103l5.75 5.75c35.151 39.222 52.819 83.463 52.819 131.835zm118.625-8.394 4.062-32.533 2.233-17.828h18.751l2.233 17.828 4.062 32.533zm15.67-184.655c18.071 0 34.505 9.98 43.402 25.18h-86.805c8.898-15.201 25.332-25.18 43.403-25.18z" style="fill:#e64539;fill-opacity:1"/></g></svg>