<svg width="512" height="512" xml:space="preserve" xmlns="http://www.w3.org/2000/svg"><defs><filter style="color-interpolation-filters:sRGB" id="a" x="-.081" y="-.102" width="1.158" height="1.198"><feFlood flood-opacity="1" flood-color="#3A3F5E" result="flood"/><feComposite in="flood" in2="SourceGraphic" operator="out" result="composite1"/><feGaussianBlur in="composite1" stdDeviation="30" result="blur"/><feOffset result="offset"/><feComposite in="offset" in2="SourceGraphic" operator="atop" result="composite2"/></filter></defs><path d="M-1210.142-675.633h512v512h-512z" fill="#b90202" style="fill:#1b1f21;fill-opacity:1" transform="translate(1210.142 675.633)"/><g style="fill:#e64539;fill-opacity:1;filter:url(#a)" transform="translate(31.581 31.581) scale(.47902)"><path d="M905.7 753.55H562.2c-3.7 0-6.7 3-6.7 6.701v.299c0 13.801-11.2 25-25 25h-130c-13.8 0-25-11.199-25-25v-.299a6.7 6.7 0 0 0-6.7-6.701H25.3c-13.8 0-25 11.201-25 25v39c0 13.801 11.2 25 25 25h880.4c13.8 0 25-11.199 25-25v-39c0-13.799-11.2-25-25-25zm-52.9 44.701c0 6.799-5.5 12.398-12.399 12.398h-53.5c-6.801 0-12.4-5.5-12.4-12.398v-.301c0-6.801 5.5-12.4 12.4-12.4h53.5c6.8 0 12.399 5.5 12.399 12.4zM849.5 94.45h-762c-48.2 0-87.5 39.3-87.5 87.5v448.1c0 48.201 39.3 87.5 87.5 87.5h762c48.2 0 87.5-39.299 87.5-87.5v-448.1c0-48.2-39.3-87.5-87.5-87.5zm12.5 535.6c0 6.9-5.6 12.5-12.5 12.5h-762c-6.9 0-12.5-5.6-12.5-12.5v-448.1c0-6.9 5.6-12.5 12.5-12.5h762c6.9 0 12.5 5.6 12.5 12.5z" style="fill:#e64539;fill-opacity:1"/></g></svg>