<svg xml:space="preserve" width="512" height="512" xmlns="http://www.w3.org/2000/svg"><defs><filter style="color-interpolation-filters:sRGB" id="a" x="-.162" y="-.194" width="1.316" height="1.377"><feFlood flood-opacity="1" flood-color="#3A3F5E" result="flood"/><feComposite in="flood" in2="SourceGraphic" operator="out" result="composite1"/><feGaussianBlur in="composite1" stdDeviation="30" result="blur"/><feOffset result="offset"/><feComposite in="offset" in2="SourceGraphic" operator="atop" result="composite2"/></filter></defs><path d="M0 0h512v512H0Z" fill="#b90202" style="fill:#1b1f21;fill-opacity:1"/><path style="fill:#e64539;stroke-width:2.54554;fill-opacity:1;filter:url(#a)" d="M234.313 59.57c-24.896 0-45.153 20.257-45.153 45.155v23.078h-42.469v-16.035a6.364 6.364 0 0 0-6.365-6.364H95.21a6.362 6.362 0 0 0-6.363 6.364v16.035H57.324c-19.501 0-35.367 15.866-35.367 35.367v253.893c0 19.5 15.866 35.367 35.367 35.367h397.352c19.501 0 35.367-15.866 35.367-35.368V163.17c0-19.504-15.866-35.367-35.367-35.367h-31.522v-16.035a6.362 6.362 0 0 0-6.363-6.364h-45.117a6.364 6.364 0 0 0-6.365 6.364v16.035h-42.47v-23.078c0-24.898-20.257-45.155-45.155-45.155h-43.372zm-.176 15.184h43.37c17.883 0 27.722 11.884 27.722 29.764v23.078l-98.473-.006v-23.078c0-17.88 9.5-29.758 27.38-29.758zm-132.563 43.379h32.389v9.67h-32.389v-9.67zm276.463 0h32.389v9.67h-32.389v-9.67zm-165.035 40.451a6.857 6.857 0 0 1 6.953 5.73l.293 1.76a6.848 6.848 0 0 1-1.814 5.875l-5.036 17.22a6.824 6.824 0 0 1 3.471-1.675c3.73-.612 7.268 1.9 7.89 5.639l4.51 27.058a6.855 6.855 0 0 1-6.773 7.985 6.857 6.857 0 0 1-6.756-5.73l-4.51-27.06a6.938 6.938 0 0 1-.087-.798 6.859 6.859 0 0 1-11.732-6.453l7.198-24.617a6.822 6.822 0 0 1 6.393-4.934zm-14.828 50.947a6.856 6.856 0 0 1 6.697 8.783l-7.7 26.33a6.86 6.86 0 0 1-8.507 4.657 6.858 6.858 0 0 1-4.656-8.508l7.701-26.33a6.861 6.861 0 0 1 6.465-4.932zm104.47 24.498a6.859 6.859 0 0 1 6.442 5.588l2.277 12.143a6.86 6.86 0 0 1-7.822 8.039 6.877 6.877 0 0 1-5.258 2.46 6.858 6.858 0 0 1-6.607-8.709l4.066-14.519c.86-3.069 3.792-5.12 6.903-5.002zm-75.37 7.494a6.862 6.862 0 0 1 6.505 5.727l4.51 27.059a6.859 6.859 0 0 1-13.53 2.255l-4.507-27.06a6.855 6.855 0 0 1 7.021-7.98zm-44.503 20.653a7.144 7.144 0 0 1 2.045.289c3.636 1.064 5.718 4.807 4.655 8.441l-3.797 12.912c-.856 2.923-3.537 4.8-6.582 4.8h-13.906a6.857 6.857 0 1 1 0-13.716h8.767l2.356-7.916c.864-2.954 3.54-4.794 6.462-4.81zm191.475 5.867h27.432a6.859 6.859 0 1 1 0 13.717h-27.432a6.859 6.859 0 0 1 0-13.717zm54.863 0h27.432a6.859 6.859 0 1 1 0 13.717h-27.432a6.859 6.859 0 0 1 0-13.717zm-119.314 5.088c3.184.056 6.014 2.334 6.625 5.592l5.055 26.96a6.86 6.86 0 0 1-6.748 8.126 6.861 6.861 0 0 1-6.733-5.596l-5.057-26.961a6.86 6.86 0 0 1 6.858-8.121zm-254.336 1.771h27.432a6.859 6.859 0 0 1 0 13.717H55.459a6.859 6.859 0 1 1 0-13.717zm54.863 0h27.432a6.859 6.859 0 0 1 0 13.717h-27.432a6.859 6.859 0 1 1 0-13.717zm180.365.059a6.857 6.857 0 0 1 6.8 8.703l-7.395 26.418a6.861 6.861 0 0 1-6.6 5.01 6.832 6.832 0 0 1-1.853-.258 6.856 6.856 0 0 1-4.754-8.451l7.396-26.418c.828-2.962 3.485-4.919 6.406-5.004zm67.112 13.695a6.86 6.86 0 0 1 5.97 10.54l-14.728 23.144a6.856 6.856 0 0 1-9.467 2.103 6.86 6.86 0 0 1-2.105-9.468l14.726-23.143a6.853 6.853 0 0 1 5.604-3.176zm-121.506 6.985a6.862 6.862 0 0 1 6.506 5.726l4.51 27.059a6.856 6.856 0 0 1-5.64 7.89c-.38.064-.759.096-1.134.096a6.859 6.859 0 0 1-6.756-5.732l-4.508-27.057a6.857 6.857 0 0 1 7.022-7.982zm83.611 31.41a6.872 6.872 0 0 1 6.625 5.595l.463 2.47a6.834 6.834 0 0 1 5.215.896 6.863 6.863 0 0 1 2.106 9.47l-5.606 8.809a6.86 6.86 0 0 1-12.527-2.418l-3.131-16.697a6.86 6.86 0 0 1 6.855-8.125zm-44.011.738a6.84 6.84 0 0 1 2.046.254 6.857 6.857 0 0 1 4.756 8.451L275.3 362.91a6.86 6.86 0 0 1-6.6 5.012 6.858 6.858 0 0 1-6.607-8.709l7.396-26.416a6.857 6.857 0 0 1 6.405-5.008zm-30.58 21.969a6.862 6.862 0 0 1 6.505 5.726l4.51 27.059c.01.06.02.122.027.182a6.84 6.84 0 0 1 6.791-1.85 6.856 6.856 0 0 1 4.754 8.453l-6.957 24.852a6.859 6.859 0 0 1-13.37-.725l-.266-1.601a6.845 6.845 0 0 1 1.632-5.672l4.774-17.051a6.856 6.856 0 0 1-10.914-4.334l-4.51-27.059a6.857 6.857 0 0 1 7.024-7.98z"/></svg>