<svg height="512" width="512" style="enable-background:new 0 0 512 512" xml:space="preserve" xmlns="http://www.w3.org/2000/svg"><defs><filter style="color-interpolation-filters:sRGB" id="a" x="-.05" y="-.09" width="1.099" height="1.18"><feFlood flood-opacity="1" flood-color="#3A3F5E" result="flood"/><feComposite in="flood" in2="SourceGraphic" operator="out" result="composite1"/><feGaussianBlur in="composite1" stdDeviation="10.565" result="blur"/><feOffset result="offset"/><feComposite in="offset" in2="SourceGraphic" operator="atop" result="composite2"/></filter></defs><path d="M0 0h512v512H0Z" fill="#b90202" style="fill:#1b1f21;fill-opacity:1"/><g style="fill:#fff;filter:url(#a)" transform="translate(45.588 45.588) scale(.82192)"><g style="fill:#fff"><path style="fill:#e64539;stroke-width:.821923;fill-opacity:1" d="M45.588 140.273v42.082H266.52v189.372h199.891V140.273H45.588zm320.879 47.342c37.707 0 68.383 30.678 68.383 68.385 0 37.707-30.677 68.385-68.383 68.385-37.707 0-68.385-30.678-68.385-68.385 0-37.707 30.677-68.385 68.385-68.385zm-320.88 26.303v157.809H87.67V213.918H45.588zm73.645 0v157.809h42.082V213.918h-42.082zm73.645 0v157.809h42.082V213.918h-42.082zm137.654 32.861v18.442h71.87v-18.442h-71.87z" transform="translate(-55.465 -55.465) scale(1.21666)"/></g></g></svg>