<svg width="512" height="512" xml:space="preserve" xmlns="http://www.w3.org/2000/svg"><defs><filter style="color-interpolation-filters:sRGB" id="a" x="-.057" y="-.034" width="1.115" height="1.068"><feFlood flood-opacity="1" flood-color="#3A3F5E" result="flood"/><feComposite in="flood" in2="SourceGraphic" operator="out" result="composite1"/><feGaussianBlur in="composite1" stdDeviation="6.046" result="blur"/><feOffset result="offset"/><feComposite in="offset" in2="SourceGraphic" operator="atop" result="composite2"/></filter></defs><path d="M0 0h512v512H0Z" fill="#b90202" style="fill:#1b1f21;fill-opacity:1"/><path d="M352.955 41.747h-193.91c-16.155 0-29.377 13.21-29.377 29.377v369.764c0 16.167 13.222 29.365 29.377 29.365h193.91c16.155 0 29.377-13.198 29.377-29.365V71.125c0-16.168-13.222-29.378-29.377-29.378zm-152.093 394.68H169.21c-5.84 0-10.575-4.723-10.575-10.55 0-5.841 4.735-10.576 10.575-10.576h31.652c5.84 0 10.575 4.735 10.575 10.575-.012 5.828-4.747 10.55-10.575 10.55zm0-40.264H169.21c-5.84 0-10.575-4.734-10.575-10.562 0-5.829 4.735-10.563 10.575-10.563h31.652c5.84 0 10.575 4.734 10.575 10.563-.012 5.828-4.747 10.562-10.575 10.562zm0-40.263H169.21c-5.84 0-10.575-4.722-10.575-10.55a10.567 10.567 0 0 1 10.575-10.576h31.652c5.84 0 10.575 4.723 10.575 10.576-.012 5.828-4.747 10.55-10.575 10.55zm0-40.25H169.21c-5.84 0-10.575-4.735-10.575-10.564 0-5.828 4.735-10.575 10.575-10.575h31.652c5.84 0 10.575 4.747 10.575 10.575-.012 5.829-4.747 10.563-10.575 10.563zm70.97 120.777h-31.64c-5.852 0-10.574-4.723-10.574-10.55a10.567 10.567 0 0 1 10.575-10.576h31.639a10.567 10.567 0 0 1 10.575 10.575c-.025 5.828-4.747 10.55-10.575 10.55zm0-40.264h-31.64c-5.852 0-10.574-4.734-10.574-10.562 0-5.829 4.722-10.563 10.575-10.563h31.639c5.853 0 10.575 4.734 10.575 10.563-.025 5.828-4.747 10.562-10.575 10.562zm0-40.263h-31.64c-5.852 0-10.574-4.722-10.574-10.55a10.56 10.56 0 0 1 10.575-10.576h31.639a10.56 10.56 0 0 1 10.575 10.576c-.025 5.828-4.747 10.55-10.575 10.55zm0-40.25h-31.64c-5.852 0-10.574-4.735-10.574-10.564 0-5.828 4.722-10.575 10.575-10.575h31.639c5.853 0 10.575 4.747 10.575 10.575-.025 5.829-4.747 10.563-10.575 10.563zm70.97 120.777h-31.676c-5.84 0-10.575-4.723-10.575-10.55 0-5.841 4.734-10.576 10.575-10.576h31.676c5.828 0 10.563 4.735 10.563 10.575-.012 5.828-4.747 10.55-10.563 10.55zm0-40.264h-31.676c-5.84 0-10.575-4.734-10.575-10.562 0-5.829 4.734-10.563 10.575-10.563h31.676c5.828 0 10.563 4.734 10.563 10.563 0 5.828-4.747 10.562-10.563 10.562zm0-40.263h-31.676c-5.84 0-10.575-4.722-10.575-10.55a10.567 10.567 0 0 1 10.575-10.576h31.676c5.828 0 10.563 4.723 10.563 10.576-.012 5.828-4.747 10.55-10.563 10.55zm0-40.25h-31.676c-5.84 0-10.575-4.735-10.575-10.564 0-5.828 4.734-10.575 10.575-10.575h31.676c5.828 0 10.563 4.747 10.563 10.575 0 5.829-4.747 10.563-10.563 10.563zm11.184-45.496H158.014V76.182h195.972z" style="fill:#e64539;stroke-width:12.4269;fill-opacity:1;filter:url(#a)"/></svg>