<svg width="512" height="512" viewBox="0 0 135.467 135.467" xmlns="http://www.w3.org/2000/svg"><defs><filter style="color-interpolation-filters:sRGB" id="a" x="-.096" y="-.14" width="1.194" height="1.283"><feFlood flood-opacity="1" flood-color="#3A3F5E" result="flood"/><feComposite in="flood" in2="SourceGraphic" operator="out" result="composite1"/><feGaussianBlur in="composite1" stdDeviation="15" result="blur"/><feOffset result="offset"/><feComposite in="offset" in2="SourceGraphic" operator="atop" result="fbSourceGraphic"/><feColorMatrix result="fbSourceGraphicAlpha" in="fbSourceGraphic" values="0 0 0 -1 0 0 0 0 -1 0 0 0 0 -1 0 0 0 0 1 0"/><feFlood flood-opacity="1" flood-color="#3A3F5E" result="flood"/><feComposite in2="fbSourceGraphic" in="flood" operator="out" result="composite1"/><feGaussianBlur in="composite1" stdDeviation="111.05" result="blur"/><feOffset result="offset"/><feComposite in2="fbSourceGraphic" in="offset" operator="atop" result="fbSourceGraphic"/><feColorMatrix result="fbSourceGraphicAlpha" in="fbSourceGraphic" values="0 0 0 -1 0 0 0 0 -1 0 0 0 0 -1 0 0 0 0 1 0"/><feFlood flood-opacity="1" flood-color="#3A3F5E" result="flood"/><feComposite in2="fbSourceGraphic" in="flood" operator="out" result="composite1"/><feGaussianBlur in="composite1" stdDeviation="176.466" result="blur"/><feOffset result="offset"/><feComposite in2="fbSourceGraphic" in="offset" operator="atop" result="composite2"/></filter></defs><path d="M0 0h512v512H0Z" fill="#b90202" style="fill:#1b1f21;fill-opacity:1" transform="scale(.26458)"/><g transform="matrix(.01595 0 0 -.01595 -27.947 163.414)" style="fill:#e64539;fill-opacity:1;filter:url(#a)"><path d="M9194.08 8425.45c-336.51 0-610.34-273.83-610.34-610.34 0-336.58 273.83-610.41 610.34-610.41 336.57 0 610.4 273.83 610.4 610.41 0 336.51-273.83 610.34-610.4 610.34m-2223.26-528.18c-467.32 0-847.54-380.22-847.54-847.54 0-467.32 380.22-847.54 847.54-847.54 467.39 0 847.61 380.22 847.61 847.54 0 467.32-380.22 847.54-847.61 847.54m1625.57-777.96c-331.32 0-600.91-269.52-600.91-600.91 0-331.33 269.59-600.85 600.91-600.85 331.33 0 600.85 269.52 600.85 600.85 0 331.39-269.52 600.91-600.85 600.91m-686.24-1280.83c-467.39 0-847.61-380.22-847.61-847.54 0-467.39 380.22-847.61 847.61-847.61 467.32 0 847.54 380.22 847.54 847.61 0 467.32-380.22 847.54-847.54 847.54m-2881.1 2058.79c-467.38 0-847.6-380.22-847.6-847.54 0-467.32 380.22-847.54 847.6-847.54 467.32 0 847.54 380.22 847.54 847.54 0 467.32-380.22 847.54-847.54 847.54M4004.4 6518.4c0 331.39-269.59 600.91-600.91 600.91-331.33 0-600.86-269.52-600.86-600.91 0-331.33 269.53-600.85 600.86-600.85 331.32 0 600.91 269.52 600.91 600.85m85.39-679.92c-467.38 0-847.6-380.22-847.6-847.54 0-467.39 380.22-847.61 847.6-847.61 467.32 0 847.54 380.22 847.54 847.61 0 467.32-380.22 847.54-847.54 847.54m-673.65 1976.63c0 336.51-273.83 610.34-610.34 610.34-336.58 0-610.41-273.83-610.41-610.34 0-336.58 273.83-610.41 610.41-610.41 336.51 0 610.34 273.83 610.34 610.41M3992 3785.25c-85.46 0-154.97-69.51-154.97-154.97s69.51-154.97 154.97-154.97 154.97 69.51 154.97 154.97-69.51 154.97-154.97 154.97" style="fill:#e64539;fill-opacity:1;fill-rule:nonzero;stroke:none"/><path d="M9194.08 7147.78c-367.89 0-667.27 299.38-667.27 667.33 0 367.88 299.38 667.26 667.27 667.26 367.95 0 667.33-299.38 667.33-667.26 0-367.95-299.38-667.33-667.33-667.33zm-597.69-1287.16c-362.7 0-657.84 295.08-657.84 657.78 0 362.76 295.14 657.84 657.84 657.84 362.7 0 657.78-295.08 657.78-657.84 0-362.7-295.08-657.78-657.78-657.78zm-686.24-1774.21c-498.76 0-904.53 405.77-904.53 904.53 0 498.69 405.77 904.47 904.53 904.47 498.69 0 904.47-405.78 904.47-904.47 0-498.76-405.78-904.53-904.47-904.53zm-1843.8 2963.32c0 498.76 405.78 904.47 904.47 904.47 498.76 0 904.54-405.71 904.54-904.47 0-498.76-405.78-904.47-904.54-904.47-498.69 0-904.47 405.71-904.47 904.47zm814.27-1283.87c-2.55-22.15-10.85-45.68-16.29-67.4-6.79-27.1-23.51-50.65-35.07-76.03-7.76-17.06-18.81-34.23-36.25-41.1-31.96-12.59-75.01 13.68-106.27 20.7-42.4 9.53-85.51 17.81-128.14 26.95-9.62 2.22-19.61 3.92-29.73 5.7-10.12 1.77-20.43 3.6-30.87 5.5-10.5 1.83-21.13 3.73-31.94 5.63-10.82 1.83-21.82 3.35-32.96 5.06-44.53 7.21-91.65 12.78-140.23 18.53-24.35 2.09-49.02 4.74-74.01 7.15-25.05 1.84-50.35 3.6-75.9 5.44-25.5 1.14-51.24 2.65-76.98 3.61-12.91.37-25.87.75-38.78 1.13-12.96.38-25.87.83-38.84.64-25.87.06-51.74.88-77.48 0-12.91-.32-25.75-.38-38.59-.45-12.78-.5-25.55-.95-38.27-1.45-25.43-.7-50.6-2.47-75.52-3.67-12.46-.51-24.8-1.83-37.07-2.78-12.21-1.14-24.48-1.65-36.5-2.85-24.1-2.53-47.88-4.37-70.97-7.59-11.64-1.33-23.09-2.72-34.41-4.05-11.26-1.58-22.39-3.16-33.4-4.74-11.07-1.39-21.82-3.29-32.45-5.06-10.62-1.71-21.18-3.23-31.5-5.06-20.49-3.86-40.41-7.22-59.33-11.39-46.76-10.32-93-21.61-139.07-34.7-39.67-11.28-78.2-34.26-112.75 1.67-21.58 22.44-33.05 57.02-49 83.54-16.68 27.74-37 63.78-31.27 97.48 8.94 52.63 98.82 72.22 141.19 89.15 34.03 13.66 72.62 28.4 115.31 42.32 42.64 13.98 89.19 27.89 139.03 40.1 49.72 12.71 102.73 23.28 157.89 32.58 55.16 8.73 112.53 16.25 171.04 20.24 14.61 1.01 29.28 2.08 44.02 3.1 14.74.63 29.54 1.26 44.41 1.64 29.6 1.2 59.39.76 89.12.76 14.87 0 29.73-.63 44.6-1.33l44.4-1.89c7.4-.2 14.8-.76 22.14-1.46l22.01-1.9c14.68-1.26 29.29-2.53 43.83-3.73 29.1-3.04 57.76-7.15 86.1-10.69 28.27-4.3 56.1-9.05 83.43-13.85 27.26-5.19 53.89-10.95 79.95-16.39 13.03-2.71 25.81-5.88 38.4-9.17 12.65-3.16 25.11-6.32 37.38-9.42 12.21-3.16 24.41-5.95 36.18-9.43 11.83-3.48 23.4-6.89 34.79-10.31 11.38-3.41 22.58-6.77 33.59-9.99 11-3.29 21.76-6.45 32.13-10.12 66.14-22.92 131.7-47.33 197.35-71.67 14.86-5.51 30.46-11.52 40.49-23.8 10.07-12.33 12.88-29.33 11.06-45.15zm-568.27-1370.21c0-15.68-12.78-28.46-28.46-28.46h-581.94c-15.69 0-28.47 12.78-28.47 28.46v253.02c0 15.69 12.78 28.47 28.47 28.47h581.94c15.68 0 28.46-12.78 28.46-28.47zM4124.52 7049.73c0 498.76 405.77 904.47 904.53 904.47 498.7 0 904.47-405.71 904.47-904.47 0-498.76-405.77-904.47-904.47-904.47-498.76 0-904.53 405.71-904.53 904.47zm-34.73-2963.32c-498.76 0-904.53 405.77-904.53 904.53 0 498.69 405.77 904.47 904.53 904.47 498.7 0 904.47-405.78 904.47-904.47 0-498.76-405.77-904.53-904.47-904.53zm517.86-537.28c-144.72 0-262.5 117.77-262.5 262.5 0 144.72 117.78 262.5 262.5 262.5 144.73 0 262.51-117.78 262.51-262.5 0-144.73-117.78-262.5-262.51-262.5zM3992 3439.51c-105.25 0-190.84 85.58-190.84 190.77 0 105.26 85.59 190.84 190.84 190.84 105.19 0 190.78-85.58 190.78-190.84 0-105.19-85.59-190.77-190.78-190.77zM2745.71 6518.4c0 362.76 295.08 657.84 657.78 657.84 362.69 0 657.84-295.08 657.84-657.84 0-362.7-295.15-657.78-657.84-657.78-362.7 0-657.78 295.08-657.78 657.78zm-607.24 1296.71c0 367.88 299.38 667.26 667.33 667.26 367.95 0 667.26-299.38 667.26-667.26 0-367.95-299.31-667.33-667.26-667.33s-667.33 299.38-667.33 667.33zm7722.31 594.65c-146.31 210.38-377.18 331.07-633.49 331.07H2772.53c-252.64 0-481.62-117.97-628.31-323.67-146.62-205.64-183.5-460.55-101.2-699.4l1489.19-4319.75c28.65-83.05 106.83-138.84 194.63-138.84 11.2 0 22.46.88 33.59 2.72l4404.25 725.71c267.69 44.09 492.69 229.49 587.13 483.83l1198.85 3229.25c89.24 240.24 56.44 498.69-89.88 709.08" style="fill:#e64539;fill-opacity:1;fill-rule:nonzero;stroke:none"/></g></svg>