<svg width="512" height="512" xmlns="http://www.w3.org/2000/svg"><defs><filter style="color-interpolation-filters:sRGB" id="a" x="-.125" y="-.096" width="1.249" height="1.193"><feFlood flood-opacity="1" flood-color="#3A3F5E" result="flood"/><feComposite in="flood" in2="SourceGraphic" operator="out" result="composite1"/><feGaussianBlur in="composite1" stdDeviation="12.976" result="blur"/><feOffset result="offset"/><feComposite in="offset" in2="SourceGraphic" operator="atop" result="composite2"/></filter></defs><path d="M0 0h512v512H0z" fill="#b90202" style="fill:#1b1f21;fill-opacity:1"/><g style="fill:#e64539;fill-opacity:1;filter:url(#a)"><g style="fill:#e64539;fill-opacity:1"><path d="M66.172 28.604c0-.362-.135-.677-.205-1.018L145.813 0c1.897 31.277 15.053 76.542 34.703 96.994h-59.068c-2.609 0-5.189.168-7.74.425a5.348 5.348 0 0 0-2.092-.425c-24.636 0-45.444-31.316-45.444-68.39zm55.276 294.614c-46.751 0-84.781-48.326-84.781-107.733 0-59.403 38.035-107.734 84.781-107.734h40.638c-32.918 18.73-55.851 59.964-55.851 107.734 0 47.775 22.932 89.004 55.851 107.733z" style="fill:#e64539;fill-opacity:1" transform="translate(21.427 21.426) scale(1.45149)"/><g style="fill:#e64539;fill-opacity:1"><path d="M201.772 107.745c-46.749 0-84.786 48.331-84.786 107.734 0 59.402 38.037 107.733 84.786 107.733 46.752 0 84.778-48.331 84.778-107.733 0-59.403-38.026-107.734-84.778-107.734zm0 186.883c-13.302 0-26.278-6.897-36.53-19.412-12.5-15.254-19.665-37.029-19.665-59.731 0-22.71 7.165-44.479 19.665-59.731 10.252-12.521 23.229-19.41 36.53-19.41 30.462 0 56.195 36.248 56.195 79.146 0 42.903-25.733 79.138-56.195 79.138z" style="fill:#e64539;fill-opacity:1" transform="translate(21.427 21.426) scale(1.45149)"/><path d="M178.392 242.98a80.633 80.633 0 0 0 1.122-3.989c.221-.883.441-1.766.641-2.651.31-1.381.572-2.778.818-4.188.153-.867.314-1.738.447-2.62.226-1.543.394-3.108.54-4.678.08-.766.179-1.521.23-2.288.18-2.342.278-4.705.278-7.081 0-2.379-.099-4.736-.278-7.082-.052-.767-.15-1.517-.23-2.279a91.122 91.122 0 0 0-.54-4.693 88.878 88.878 0 0 0-.447-2.603 96.994 96.994 0 0 0-.818-4.204 92.783 92.783 0 0 0-.641-2.631 90.082 90.082 0 0 0-1.122-4.01c-.252-.841-.504-1.686-.787-2.511a79.76 79.76 0 0 0-1.493-3.989c-.288-.734-.556-1.47-.87-2.184a76.513 76.513 0 0 0-2.152-4.534c-.216-.432-.41-.872-.631-1.291a71.255 71.255 0 0 0-3.075-5.188c-8.357 12.873-13.055 29.67-13.055 47.199 0 17.526 4.698 34.325 13.055 47.196a68.27 68.27 0 0 0 3.075-5.181c.226-.421.42-.871.636-1.302a82.333 82.333 0 0 0 2.147-4.521c.31-.725.582-1.47.87-2.199a81.073 81.073 0 0 0 1.486-3.979c.279-.834.542-1.675.794-2.519z" style="fill:#e64539;fill-opacity:1" transform="translate(21.427 21.426) scale(1.45149)"/><path d="M201.772 147.089c-8.907 0-17.807 4.341-25.418 12.31.295.412.552.874.841 1.294a76.146 76.146 0 0 1 1.758 2.7 83.499 83.499 0 0 1 2.116 3.539c.535.956 1.05 1.927 1.554 2.919a73.757 73.757 0 0 1 1.815 3.8 72.372 72.372 0 0 1 1.334 3.072 93.115 93.115 0 0 1 1.532 4.057c.374 1.055.751 2.111 1.094 3.181.449 1.429.839 2.878 1.227 4.342.284 1.065.589 2.127.841 3.218.351 1.543.639 3.114.935 4.688.188 1.045.408 2.075.566 3.13.272 1.763.446 3.547.631 5.339.094.891.224 1.769.293 2.667.2 2.696.32 5.417.32 8.151 0 2.735-.109 5.454-.32 8.152-.072.893-.199 1.773-.293 2.667-.18 1.784-.358 3.581-.631 5.344-.158 1.045-.379 2.068-.566 3.106-.296 1.576-.579 3.15-.935 4.703-.252 1.083-.557 2.138-.841 3.204a99.923 99.923 0 0 1-1.239 4.355c-.335 1.077-.714 2.122-1.091 3.171a92.692 92.692 0 0 1-1.532 4.074 82.99 82.99 0 0 1-1.335 3.065 83.228 83.228 0 0 1-3.368 6.715 78.075 78.075 0 0 1-2.116 3.542 71.345 71.345 0 0 1-1.759 2.698c-.288.426-.546.883-.841 1.291 7.611 7.97 16.511 12.316 25.418 12.316 24.635 0 45.444-31.323 45.444-68.395.009-37.097-20.799-68.415-45.434-68.415z" style="fill:#e64539;fill-opacity:1" transform="translate(21.427 21.426) scale(1.45149)"/></g></g></g></svg>