<svg width="512" height="512" xml:space="preserve" xmlns="http://www.w3.org/2000/svg"><defs><filter style="color-interpolation-filters:sRGB" id="a" x="-.044" y="-.042" width="1.088" height="1.085"><feFlood flood-opacity="1" flood-color="#3A3F5E" result="flood"/><feComposite in="flood" in2="SourceGraphic" operator="out" result="composite1"/><feGaussianBlur in="composite1" stdDeviation="15" result="blur"/><feOffset result="offset"/><feComposite in="offset" in2="SourceGraphic" operator="atop" result="composite2"/></filter></defs><path d="M0 0h512v512H0Z" fill="#b90202" style="fill:#1b1f21;fill-opacity:1"/><path d="m16.321 300.903 121.595 7.927c10.788.705 20.091 10.015 20.773 20.807l9.349 146.476c.689 10.78 4.921 11.577 9.454 1.763L287.145 240.48a2433.569 2433.569 0 0 1 8.384-18.001c.071-.15.071-.307.084-.336.016-.032-.021-.096-.068-.167-.053-.068-.044-.068.008-.006.048.06-.12-.18-.353-.561-.236-.375-.461-.782-.521-.886-.061-.11-4.453-8.674-2.04-19.208.309-1.347.773-2.615 1.19-3.909l96.534-94.88c11.598-7.743 28.188-1.801 28.188-1.801-2.677-19.278 50.714-77.403 57.182-83.877 6.48-6.478-10.623-7.169-23.074-9.542C440.197 4.945 440.385 0 440.385 0c-22.934 33.015-75.227 56.841-75.227 56.841 5.213 10.247 3.662 18.685 1.631 23.798l-90.147 88.614a42.836 42.836 0 0 1-3.583.737c-9.758 1.563-17.824-.385-17.868-.361l-.161.076c-.048.022-7.896 3.983-17.552 8.839L14.273 290.841c-9.655 4.856-8.738 9.357 2.048 10.062z" style="fill:#e64539;fill-opacity:1;filter:url(#a)" transform="translate(41.11 41.11) scale(.8866)"/></svg>