<svg enable-background="new 0 0 1000 1000" xml:space="preserve" width="512" height="512" xmlns="http://www.w3.org/2000/svg"><defs><filter style="color-interpolation-filters:sRGB" id="a" x="-.102" y="-.102" width="1.198" height="1.198"><feFlood flood-opacity="1" flood-color="#3A3F5E" result="flood"/><feComposite in="flood" in2="SourceGraphic" operator="out" result="composite1"/><feGaussianBlur in="composite1" stdDeviation="30" result="blur"/><feOffset result="offset"/><feComposite in="offset" in2="SourceGraphic" operator="atop" result="composite2"/></filter></defs><path d="M0 0h512v512H0Z" fill="#b90202" style="fill:#1b1f21;fill-opacity:1"/><g style="fill:#e64539;fill-opacity:1;filter:url(#a)" transform="translate(16.053 -128.266) scale(.62559)"><g style="fill:#e64539;fill-opacity:1"><path d="M4217.6 2224.6 3751.2 1760v-192L5079.6 239.6C5811-491.8 6433-1098.5 6461.8-1111.9c119-49.9 151.6-25 633.5 456.9 249.6 251.5 458.8 476.1 466.5 501C7596.3-35 7604-42.6 6241 1324.2c-719.9 721.8-1332.3 1324.6-1361.1 1340-28.8 15.4-84.5 26.9-124.8 26.9-69-.1-94-21.2-537.5-466.5zM3332.7 458.4c-88.3-424.3-159.3-792.9-159.3-819.7C3175.3-395.9 3327-561 3805-1039c345.5-347.5 654.6-643.1 689.2-658.5 55.7-23 113.3-15.4 710.3 107.5 357.1 74.9 712.2 147.8 790.9 165.1l142.1 30.7L4824.3-81c-721.8 721.8-1316.9 1313.1-1322.7 1313.1-5.8 0-80.6-347.5-168.9-773.7zM1530-2092.9c-750.6-752.5-1380.3-1397.5-1397.5-1434-46.1-90.2-42.2-249.6 5.8-351.3 26.9-53.8 176.6-216.9 420.4-460.7 393.5-389.7 481.8-455 618.1-456.9 182.4 0 128.6-49.9 1610.6 1428.3l1386 1384.1-627.7 627.7C3198.3-1008.3 2912.2-726 2906.5-726c-5.8 0-623.9-616.3-1376.5-1366.9zm1608.8 458.8c71-48 145.9-147.8 163.2-218.8 7.7-25 5.8-76.8-1.9-117.1-11.5-59.5-63.3-121-303.3-364.7-318.8-320.7-366.8-349.5-508.8-313-71 21.1-190.1 124.8-232.3 207.3-28.8 57.6-26.9 170.8 5.8 232.3 32.6 59.5 562.5 589.4 606.6 604.7 74.8 26.9 207.3 11.6 270.7-30.7z" style="fill:#e64539;fill-opacity:1" transform="matrix(.1 0 0 -.1 0 509)"/><path d="M2825.8-1756.9c-57.6-36.5-111.3-130.5-111.3-197.7 0-115.2 109.4-211.2 241.9-211.2 53.8 0 84.5 15.4 134.4 65.3 55.7 55.7 65.3 78.7 65.3 153.6 0 122.9-72.9 203.5-192 215-61.5 5.7-101.8-2-138.3-25z" style="fill:#e64539;fill-opacity:1" transform="matrix(.1 0 0 -.1 0 509)"/></g></g></svg>