<svg height="512" width="512" style="enable-background:new 0 0 512 512" xml:space="preserve" xmlns="http://www.w3.org/2000/svg"><defs><filter style="color-interpolation-filters:sRGB" id="a" x="-.144" y="-.14" width="1.281" height="1.273"><feFlood flood-opacity="1" flood-color="#3A3F5E" result="flood"/><feComposite in="flood" in2="SourceGraphic" operator="out" result="composite1"/><feGaussianBlur in="composite1" stdDeviation="15" result="blur"/><feOffset result="offset"/><feComposite in="offset" in2="SourceGraphic" operator="atop" result="composite2"/></filter></defs><path d="M0 0h512v512H0Z" fill="#b90202" style="fill:#1b1f21;fill-opacity:1"/><g style="fill:#e64539;fill-opacity:1;filter:url(#a)"><g style="fill:#e64539;fill-opacity:1"><path style="fill:#e64539;stroke-width:.784604;fill-opacity:1" d="M393.09 32.13c-6.909.001-13.817 2.63-19.076 7.888L66.752 359.014c-10.518 10.518-10.518 27.636 0 38.154l51.803 51.803c5.259 5.258 12.169 7.888 19.078 7.888 6.908 0 13.817-2.63 19.076-7.888l307.26-318.996c5.097-5.096 7.902-11.87 7.902-19.077 0-7.206-2.806-13.98-7.902-19.076-51.801-51.803 16.257 16.254-51.801-51.804-5.26-5.26-12.17-7.887-19.078-7.887zm-98.72 212.918a8.774 8.774 0 0 1 6.203 14.977l-51.105 51.105a8.747 8.747 0 0 1-6.203 2.57 8.774 8.774 0 0 1-6.205-14.979l51.107-51.105a8.746 8.746 0 0 1 6.203-2.568zm-72.601 72.6a8.75 8.75 0 0 1 6.205 2.568 8.776 8.776 0 0 1 0 12.41l-.88.877a8.745 8.745 0 0 1-6.202 2.568 8.745 8.745 0 0 1-6.204-2.568 8.776 8.776 0 0 1 0-12.41l.877-.877a8.746 8.746 0 0 1 6.204-2.569zm-23.25 23.25a8.75 8.75 0 0 1 6.205 2.568 8.776 8.776 0 0 1 0 12.41l-33.975 33.973a8.751 8.751 0 0 1-6.205 2.57 8.774 8.774 0 0 1-6.203-14.979l33.974-33.974a8.746 8.746 0 0 1 6.204-2.569z" transform="translate(-9.368 11.504)"/></g></g></svg>