<svg enable-background="new 0 0 100 100" xml:space="preserve" width="512" height="512" xmlns="http://www.w3.org/2000/svg"><defs><filter style="color-interpolation-filters:sRGB" id="a" x="-.476" y="-.579" width="1.951" height="2.157"><feFlood flood-opacity="1" flood-color="#3A3F5E" result="flood"/><feComposite in="flood" in2="SourceGraphic" operator="out" result="composite1"/><feGaussianBlur in="composite1" stdDeviation="2.134" result="blur"/><feOffset result="offset"/><feComposite in="offset" in2="SourceGraphic" operator="atop" result="composite2"/></filter></defs><path d="M0 0h512v512H0Z" fill="#b90202" style="fill:#1b1f21;fill-opacity:1"/><path style="fill:#e64539;fill-opacity:1;filter:url(#a)" transform="rotate(45.593 273.43 262.615) scale(5.12491)" d="M43.584 88.401h12.832v8.85H43.584zm10.768-74.712c0-2.146-.723-4.032-2.238-4.918v-3.91a2.114 2.114 0 0 0-4.226 0v3.91c-1.517.887-2.238 2.772-2.238 4.918L44.617 87.81h10.77zM49.999 3.471a1.329 1.329 0 1 1 0 2.658 1.329 1.329 0 0 1 0-2.658z"/></svg>