<svg width="512" height="512" xmlns="http://www.w3.org/2000/svg"><defs><filter style="color-interpolation-filters:sRGB" id="a" x="-.059" y="-.052" width="1.118" height="1.104"><feFlood flood-opacity="1" flood-color="#3A3F5E" result="flood"/><feComposite in="flood" in2="SourceGraphic" operator="out" result="composite1"/><feGaussianBlur in="composite1" stdDeviation="8.819" result="blur"/><feOffset result="offset"/><feComposite in="offset" in2="SourceGraphic" operator="atop" result="composite2"/></filter></defs><path d="M0 0h512v512H0z" fill="#b90202" style="fill:#1b1f21;fill-opacity:1"/><g transform="translate(-2.079 -16.4) scale(1.10758)" style="fill:#e64539;fill-opacity:1;filter:url(#a)"><path d="m317.675 41.918-52.835 54.04 37.66-13.099c1.351 16.723 2.826 33.434 4.178 50.267l-11.428.983c-5.222 5.1-10.444 10.383-15.666 15.605l15.85 15.85 15.483-15.42 1.474-10.813c17.94 2.335 35.571 4.854 53.51 7.065l-12.102 27.34 58.303-41.777c-23.53-4.915-47.06-9.584-70.59-14.315l2.273-11.242 14.069 2.826 9.952-35.172-32.745 12.016 2.027 17.258-11.427 1.351-2.334-20.249c-1.843-14.173-3.748-28.34-5.652-42.514zm-65.122 63.87-29.797 50.868 40.548-26.233 14.99 4.3 15.728-15.666-.185-1.843zm72.187 46.752-11.796 11.796 2.765 6.758-30.288 45.216 55.476-33.912-10.444-29.12z" fill="#fff" style="fill:#e64539;fill-opacity:1"/><path d="M416.687 232.641v-37.91h-1.011a27.307 27.307 0 0 0 25.896-18.664s17.464-54.162 24.462-75.147c5.41-16.225-11.055-32.601-26.126-32.601H260.864a27.29 27.29 0 0 0-24.246 14.775l-8.306 16.082H27.294a27.295 27.295 0 0 0-22.147 11.338 27.296 27.296 0 0 0-3.747 24.59l13.655 40.965a27.307 27.307 0 0 0 25.896 18.664h41.043l8.896 21.183c4.262 10.132 14.184 16.727 25.165 16.727h60.453l40.716 66.712c5.397 8.834 15.195 14.326 25.553 14.326h49.007l5.94 47.582c2.676 21.425 20.887 37.506 42.474 37.506h63.143a42.807 42.807 0 0 0 33.734-16.455 42.82 42.82 0 0 0 7.793-36.705zm-172.852 49.186-30.017-49.186h44.823l-7.045 6.245c-6.579 5.832-7.2 15.894-1.368 22.481a15.9 15.9 0 0 0 11.929 5.365c3.763 0 7.528-1.322 10.56-4.005l11.462-10.14 3.639 29.24zm77.468-170.054-15.926 49.769c-1.618 5.071-6.314 8.305-11.369 8.305-1.198 0-2.426-.178-3.639-.567-6.283-2.014-9.751-8.734-7.73-15.016l15.926-49.769a11.933 11.933 0 0 1 15.009-7.739c6.281 2.015 9.75 8.734 7.729 15.017zm47.778 0-15.926 49.769c-1.618 5.071-6.315 8.305-11.369 8.305-1.198 0-2.426-.178-3.639-.567-6.283-2.014-9.751-8.734-7.73-15.016l15.926-49.769c2.007-6.269 8.694-9.744 15.009-7.739 6.281 2.015 9.75 8.734 7.729 15.017zm31.852 49.769c-1.618 5.071-6.315 8.305-11.369 8.305-1.198 0-2.426-.178-3.639-.567-6.283-2.014-9.751-8.734-7.73-15.016l15.926-49.769a11.938 11.938 0 0 1 15.008-7.739c6.283 2.015 9.751 8.734 7.73 15.017z" style="fill:#e64539;fill-opacity:1" transform="matrix(-.43481 .43402 .43402 .43481 220.175 93.827)"/></g></svg>