<svg xml:space="preserve" width="512" height="512" xmlns="http://www.w3.org/2000/svg"><defs><filter style="color-interpolation-filters:sRGB" id="a" x="-.085" y="-.079" width="1.17" height="1.158"><feFlood flood-opacity="1" flood-color="#3A3F5E" result="flood"/><feComposite in="flood" in2="SourceGraphic" operator="out" result="composite1"/><feGaussianBlur in="composite1" stdDeviation="9.5" result="blur"/><feOffset result="offset"/><feComposite in="offset" in2="SourceGraphic" operator="atop" result="composite2"/></filter></defs><path d="M-350.565-27.136h512v512h-512z" fill="#b90202" style="fill:#1b1f21;fill-opacity:1" transform="translate(350.565 27.136)"/><g style="fill:#e64539;fill-opacity:1;filter:url(#a)" transform="translate(45.015 29.998) scale(1.4611)"><path d="M75.102 21.645H25.436c-8.58 0-15.535 6.955-15.535 15.535v43.635h65.201zM9.901 238.936h83.201v-28.5c0-5.523 4.478-10 10-10s10 4.477 10 10v38.5c0 5.522-4.478 10-10 10H9.901v14.331c0 8.58 6.955 15.535 15.535 15.535h112.632V155.936H9.901ZM263.366 21.645h-21.217a58.177 58.177 0 0 1 4.252 21.855 58.38 58.38 0 0 1-6.926 27.593h39.426V37.18c0-8.58-6.955-15.535-15.535-15.535z" style="fill:#e64539;fill-opacity:1"/><path d="M224.978 91.031a63.255 63.255 0 0 0-7.171 15.46l-8.93 28.885c-2.925 9.46-11.544 15.816-21.458 15.816-9.909-.006-18.525-6.372-21.44-15.84l-9.35-30.361c-2.594-8.419-7.052-16.421-12.891-23.138A58.446 58.446 0 0 1 129.401 43.5a58.15 58.15 0 0 1 4.252-21.855H95.102v69.17c0 5.522-4.478 10-10 10H9.901v35.121h138.167c5.522 0 10 4.477 10 10v30h54c5.522 0 10 4.477 10 10v39h56.833V91.093h-52.833c-.369 0-.733-.024-1.09-.062z" style="fill:#e64539;fill-opacity:1"/><path d="M202.068 234.936v-39h-44v92.866h105.298c8.58 0 15.535-6.955 15.535-15.535v-28.331h-66.833c-5.523 0-10-4.478-10-10zm-31.103-134.36 9.351 30.361a7.447 7.447 0 0 0 7.112 5.255h.002a7.447 7.447 0 0 0 7.116-5.247l8.93-28.885c3.439-11.124 9.27-21.156 16.773-29.487 6.933-7.703 11.152-17.894 11.152-29.073 0-24.024-19.476-43.5-43.5-43.5s-43.5 19.476-43.5 43.5c0 10.91 4.019 20.878 10.657 28.511 7.207 8.29 12.674 18.067 15.907 28.565zm17.17-78.931c11.551 0 20.913 9.363 20.913 20.913 0 11.551-9.362 20.913-20.913 20.913-11.55 0-20.913-9.362-20.913-20.913 0-11.55 9.363-20.913 20.913-20.913z" style="fill:#e64539;fill-opacity:1"/></g></svg>