<svg height="512" width="512" style="enable-background:new 0 0 512 512" xml:space="preserve" xmlns="http://www.w3.org/2000/svg"><defs><filter style="color-interpolation-filters:sRGB" id="a" x="-.335" y="-.179" width="1.653" height="1.348"><feFlood flood-opacity="1" flood-color="#3A3F5E" result="flood"/><feComposite in="flood" in2="SourceGraphic" operator="out" result="composite1"/><feGaussianBlur in="composite1" stdDeviation="15" result="blur"/><feOffset result="offset"/><feComposite in="offset" in2="SourceGraphic" operator="atop" result="composite2"/></filter></defs><path d="M0 0h512v512H0Z" fill="#b90202" style="fill:#1b1f21;fill-opacity:1"/><g style="fill:#e64539;fill-opacity:1;filter:url(#a)"><path d="M142.71 152.45c0 10.096 4.694 19.024 11.895 25.036-7.18 5.565-11.895 14.175-11.895 23.938v236.599c0 16.759 13.636 30.39 30.389 30.39H338.9c16.753 0 30.383-13.631 30.383-30.39V201.424c0-9.764-4.709-18.373-11.889-23.938 7.2-6.012 11.889-14.94 11.889-25.037V93.15H142.71Zm99.126 245.158h-14.161a7.083 7.083 0 0 1-7.08-7.08 7.083 7.083 0 0 1 7.08-7.08h14.16a7.078 7.078 0 0 1 7.08 7.08 7.078 7.078 0 0 1-7.08 7.08zm0-70.804h-14.161a7.083 7.083 0 0 1-7.08-7.08 7.083 7.083 0 0 1 7.08-7.08h14.16a7.078 7.078 0 0 1 7.08 7.08 7.078 7.078 0 0 1-7.08 7.08zm0-70.804h-14.161a7.083 7.083 0 0 1-7.08-7.08 7.083 7.083 0 0 1 7.08-7.08h14.16a7.078 7.078 0 0 1 7.08 7.08 7.078 7.078 0 0 1-7.08 7.08zm42.482 141.608h-14.161a7.083 7.083 0 0 1-7.08-7.08 7.083 7.083 0 0 1 7.08-7.08h14.161a7.078 7.078 0 0 1 7.08 7.08 7.078 7.078 0 0 1-7.08 7.08zm0-70.804h-14.161a7.083 7.083 0 0 1-7.08-7.08 7.083 7.083 0 0 1 7.08-7.08h14.161a7.078 7.078 0 0 1 7.08 7.08 7.078 7.078 0 0 1-7.08 7.08zm0-70.804h-14.161a7.083 7.083 0 0 1-7.08-7.08 7.083 7.083 0 0 1 7.08-7.08h14.161a7.078 7.078 0 0 1 7.08 7.08 7.078 7.078 0 0 1-7.08 7.08zM326.8 397.608h-14.16a7.083 7.083 0 0 1-7.08-7.08 7.083 7.083 0 0 1 7.08-7.08h14.16a7.078 7.078 0 0 1 7.08 7.08 7.078 7.078 0 0 1-7.08 7.08zm0-70.804h-14.16a7.083 7.083 0 0 1-7.08-7.08 7.083 7.083 0 0 1 7.08-7.08h14.16a7.078 7.078 0 0 1 7.08 7.08 7.078 7.078 0 0 1-7.08 7.08zm0-70.804h-14.16a7.083 7.083 0 0 1-7.08-7.08 7.083 7.083 0 0 1 7.08-7.08h14.16a7.078 7.078 0 0 1 7.08 7.08 7.078 7.078 0 0 1-7.08 7.08zm-148.688-89.093c0-28.958 23.564-52.515 52.516-52.515h50.744c28.952 0 52.509 23.556 52.509 52.515v4.128h-14.162v-4.128c0-21.149-17.197-38.354-38.347-38.354h-50.745c-21.15 0-38.355 17.205-38.355 38.354v4.128h-14.16v-4.128zm7.08 74.932h14.161a7.078 7.078 0 0 1 7.08 7.08 7.079 7.079 0 0 1-7.08 7.081h-14.16a7.083 7.083 0 0 1-7.081-7.08 7.084 7.084 0 0 1 7.08-7.081zm0 70.804h14.161a7.078 7.078 0 0 1 7.08 7.08 7.078 7.078 0 0 1-7.08 7.08h-14.16a7.083 7.083 0 0 1-7.081-7.08 7.083 7.083 0 0 1 7.08-7.08zm0 70.804h14.161a7.078 7.078 0 0 1 7.08 7.08 7.078 7.078 0 0 1-7.08 7.08h-14.16a7.083 7.083 0 0 1-7.081-7.08 7.083 7.083 0 0 1 7.08-7.08zM336.54 43.588H175.46c-18.055 0-32.747 14.692-32.747 32.747v2.655h226.573v-2.655c0-18.055-14.691-32.747-32.746-32.747z" style="fill:#e64539;stroke-width:.829735;fill-opacity:1" transform="translate(.002)"/></g></svg>