<svg width="512" height="512" xmlns="http://www.w3.org/2000/svg"><defs><filter style="color-interpolation-filters:sRGB" id="a" x="-.193" y="-.162" width="1.376" height="1.315"><feFlood flood-opacity="1" flood-color="#3A3F5E" result="flood"/><feComposite in="flood" in2="SourceGraphic" operator="out" result="composite1"/><feGaussianBlur in="composite1" stdDeviation="15" result="blur"/><feOffset result="offset"/><feComposite in="offset" in2="SourceGraphic" operator="atop" result="composite2"/></filter></defs><path d="M0 0h512v512H0z" fill="#b90202" style="fill:#1b1f21;fill-opacity:1"/><g style="fill:#e64539;fill-opacity:1;filter:url(#a)"><path d="M241.1 21.91c-89.7-.15-172.99 2.47-171.94 8.27l22.08 36.14c59.36-5.1 115.96-6.95 172.66-6.57 53.2.35 106.5 2.67 162.1 6.09l31.2-33.28c-4.5-6.74-114.4-10.48-216.1-10.65zm.576 55.867c-24.013.11-43.348 2.18-146.465 6.262C73.42 207.7 61.35 358.6 89.71 451.7l-26.432 31C191.4 492.3 321.8 495.4 445.9 489L416 453.4c19.3-106.2 13.3-251.2.2-370.12-121.824-3.763-150.512-5.613-174.524-5.503zM182.258 253.69c12.72-.439 43.398 8.598 75.478 20.211.702.255 2.096.826 1.26 1.54-1.772 1.616-2.167 1.992-4.38 4.101-1.012.91-1.976.334-2.554.121-31.497-11.617-50.5-17.135-56.53-16.412-12.572 1.512-33.287 26.035-37.276 38.363a4.762 4.762 0 1 0 9.062 2.932c3.475-10.735 22.128-30.969 29.352-31.838 4.432-.535 21.905 4.894 46.775 13.965 1.505.695 1.602 2.124 1.026 2.691-10.716 10.555-21.873 22.072-24.489 25.692-5.512 7.63-5.928 18.827-5.062 26.185.123 1.05-.561 2.634-2.965 1.787-35.438-11.497-62.818-20.797-67.695-22.449 0 0-1.82-.699-2.012-2.6-.474-4.676-1.007-16.224.156-20.511 3.768-13.876 25.707-41.558 37.555-43.56a17.51 17.51 0 0 1 2.299-.218zm113.879 35.155c.143.007.294.038.455.094 33.026 13.582 58.351 26.361 59.125 31.06 1.501 9.126-2.087 28.667-3.397 30.87-6.524 10.962-27.962 23.454-32.494 23.454-6.842 0-34.522-8.038-67.455-18.373-1.469-.443-1.97-2.124-2.088-3.012-.714-5.405-.886-12.855 2.078-18.548 1.279-2.455 17.527-19.356 30.559-32.727 20.869 8.262 41.41 16.908 56.357 23.904.653.306 1.34.452 2.016.452a4.765 4.765 0 0 0 2.023-9.079c-12.817-5.999-31.431-13.917-52.06-22.168-.55-.386-.694-.933-.154-1.548 1.584-1.806 2.523-2.626 3.918-3.914.33-.306.687-.488 1.117-.465zm-155.692 44.064c.096-.047.247-.028.48.108 2.01 1.166 4.151 2.36 6.548 3.433 3.048 1.367 5.627 2.356 9.35 3.49 1.089.335 1.214.76 1.394 1.002 4.12 5.537 9.787 9.717 16.625 11.684l117.193 33.684c6.05 1.738 10.517 2.013 16.319.207 1.984-.664 2.948-.219 3.496-.104 5.165 1.087 6.885 1.088 7.974 1.088 2.538 0 6.196-1.078 11.33-3.615.8-.446 1.102-.037 1.21.162.374.695.525.98.894 1.68.176.385-.056.761-.197.927-9.846 11.54-24.664 17.116-38.752 13.067l-128.512-36.934c-13.562-3.896-23.012-15.753-25.424-28.996 0 0-.215-.74.072-.883z" style="fill:#e64539;fill-opacity:1"/></g></svg>