<svg enable-background="new 0 0 143.3534 236.9906" xml:space="preserve" width="512" height="512" xmlns="http://www.w3.org/2000/svg"><defs><filter style="color-interpolation-filters:sRGB" id="a" x="-.05" y="-.05" width="1.099" height="1.099"><feFlood flood-opacity="1" flood-color="#3A3F5E" result="flood"/><feComposite in="flood" in2="SourceGraphic" operator="out" result="composite1"/><feGaussianBlur in="composite1" stdDeviation="9.785" result="blur"/><feOffset result="offset"/><feComposite in="offset" in2="SourceGraphic" operator="atop" result="composite2"/></filter></defs><path d="M0 0h512v512H0Z" fill="#b90202" style="fill:#1b1f21;fill-opacity:1"/><g style="fill:#e64539;fill-opacity:1;filter:url(#a)"><g style="fill:#e64539;fill-opacity:1"><path style="fill:#e64539;fill-opacity:1;stroke:#e64539;stroke-width:.0669599;stroke-opacity:1" d="M100.39 19.004a7.677 7.677 0 0 0-6.665 11.486l2.795 4.893h-20.7c-13.265 0-24.056 10.793-24.056 24.058 0 8.49 4.422 15.96 11.082 20.243L49.33 133.746c-12.37.983-22.137 11.356-22.137 23.975 0 10.581 6.87 19.582 16.381 22.795v44.5c-9.51 3.212-16.38 12.213-16.38 22.795v6.378l-7.38 14.758a7.675 7.675 0 0 0-.416 5.862l8.19 24.57a7.68 7.68 0 0 0 9.713 4.855 7.677 7.677 0 0 0 4.855-9.71l-7.183-21.553 4.644-9.293h23.268l4.646 9.29-7.185 21.553a7.68 7.68 0 0 0 4.857 9.713 7.68 7.68 0 0 0 2.43.397 7.683 7.683 0 0 0 7.283-5.252l8.19-24.57a7.68 7.68 0 0 0-.418-5.862l-7.38-14.76v-6.378c0-10.582-6.868-19.58-16.378-22.793v-44.502c9.51-3.213 16.379-12.214 16.379-22.795 0-8.49-4.423-15.96-11.082-20.242L77.72 83.498h46.295l2.468 4.322a7.68 7.68 0 0 0 6.668 3.87h33.27v17.402h-8.701c-13.266 0-24.059 10.793-24.059 24.058 0 10.582 6.87 19.583 16.381 22.795v109.688c-14.086 3.454-24.57 16.182-24.57 31.318 0 12.13 6.735 22.71 16.658 28.215l7.246 86.965a7.674 7.674 0 0 0-6.43 3.719l-24.57 40.949a7.68 7.68 0 0 0 6.584 11.629h8.701v9.213h-16.89a7.678 7.678 0 1 0 0 15.355h81.898a7.678 7.678 0 1 0 0-15.355h-16.89v-9.213h8.7a7.678 7.678 0 0 0 7.678-7.678v-40.951a7.678 7.678 0 0 0-7.678-7.678h-.511V304.627h16.89a7.68 7.68 0 0 0 7.68-7.678 7.68 7.68 0 0 0-7.68-7.678h-16.89v-16.13l23.185-115.932h10.086a7.676 7.676 0 0 0 6.143-12.285l-9.215-12.285h16.22l6.155 9.847a15.778 15.778 0 0 0 13.457 7.46 15.779 15.779 0 0 0 13.457-7.458l6.156-9.85h16.217l-9.213 12.286a7.676 7.676 0 0 0 6.143 12.285h10.084l23.187 115.932v16.13h-16.89a7.678 7.678 0 1 0 0 15.356h16.892V412.12h-.511a7.678 7.678 0 0 0-7.678 7.678v40.949a7.678 7.678 0 0 0 7.678 7.678h8.7v9.215h-16.89a7.678 7.678 0 1 0 0 15.355h81.899a7.678 7.678 0 1 0 0-15.355h-16.891v-9.215h8.701a7.678 7.678 0 0 0 6.584-11.63l-24.57-40.948a7.672 7.672 0 0 0-6.43-3.717l7.246-86.965c9.923-5.505 16.658-16.087 16.658-28.217 0-15.136-10.484-27.861-24.57-31.316V155.945c9.51-3.212 16.38-12.213 16.38-22.795 0-13.265-10.792-24.058-24.058-24.058h-8.7V91.689h33.27a7.679 7.679 0 0 0 6.667-3.869l2.468-4.322h46.295l13.496 53.979c-6.66 4.283-11.084 11.755-11.084 20.244 0 10.581 6.869 19.582 16.38 22.795v44.5c-9.511 3.212-16.38 12.213-16.38 22.795v6.378l-7.38 14.758a7.675 7.675 0 0 0-.417 5.862l8.19 24.57a7.68 7.68 0 0 0 14.57-4.856l-7.185-21.552 4.646-9.293h23.268l4.646 9.293-7.185 21.552a7.677 7.677 0 0 0 4.857 9.711 7.68 7.68 0 0 0 2.43.397 7.683 7.683 0 0 0 7.283-5.252l8.19-24.568a7.69 7.69 0 0 0-.419-5.866l-7.378-14.758v-6.378c0-10.582-6.87-19.58-16.381-22.793v-44.502c9.51-3.213 16.38-12.214 16.38-22.795 0-12.619-9.766-22.99-22.136-23.973l-13.516-54.062c6.66-4.283 11.082-11.754 11.082-20.243 0-13.265-10.793-24.058-24.058-24.058H415.48l2.795-4.893a7.678 7.678 0 0 0-6.666-11.486H280.57a7.676 7.676 0 0 0-4.26 1.289L256 33.834l-20.31-13.541a7.676 7.676 0 0 0-4.26-1.29zm13.231 15.355h70.2l5.995 41.973h-52.21zm85.713 0h29.771l19.217 12.81v15.972c-4.287 2.606-7.166 7.307-7.166 12.68 0 8.184 6.66 14.845 14.844 14.845 8.185 0 14.844-6.66 14.844-14.846 0-5.372-2.879-10.073-7.166-12.68V47.17l19.217-12.81h29.771l-5.996 41.972h-9.72a7.677 7.677 0 0 0-6.51 3.61l-34.006 54.408c-.057.09-.15.24-.434.24-.284 0-.377-.15-.434-.24l-34.005-54.41a7.677 7.677 0 0 0-6.51-3.609h-9.72zm128.844 0h70.199l-23.984 41.973h-52.211Zm-223.03 16.123 10.092 17.66H75.82c-4.798 0-8.7-3.902-8.7-8.7 0-4.799 3.902-8.704 8.7-8.704h27.387c.673 0 1.32-.094 1.941-.256zm301.704 0a7.682 7.682 0 0 0 1.941.256h27.385c4.798 0 8.703 3.905 8.703 8.703 0 4.799-3.905 8.702-8.703 8.702H396.76ZM181.779 91.69h29.016l15.996 25.594h-18.139l-3.84-5.119a7.678 7.678 0 0 0-6.142-3.072h-16.89Zm119.426 0h29.016v17.403h-16.89a7.678 7.678 0 0 0-6.144 3.072l-3.84 5.12H285.21Zm-143.484 32.76h37.111l13.053 17.403H157.72c-4.799 0-8.701-3.903-8.701-8.702 0-4.798 3.902-8.7 8.7-8.7zm159.447 0h37.111c4.799 0 8.701 3.903 8.701 8.701 0 4.799-3.902 8.702-8.7 8.702h-50.165zM51.252 149.018c4.798 0 8.701 3.904 8.701 8.703 0 4.798-3.903 8.7-8.701 8.7s-8.703-3.902-8.703-8.7c0-4.799 3.905-8.703 8.703-8.703zm409.496 0c4.798 0 8.703 3.904 8.703 8.703 0 4.798-3.905 8.7-8.703 8.7s-8.701-3.902-8.701-8.7c0-4.799 3.903-8.703 8.701-8.703zm-295.35 8.191h32.096l-21.498 107.492h-10.598zm149.108 0h32.096v107.492h-10.598ZM51.252 239.107c4.798 0 8.701 3.903 8.701 8.702v.513H42.55v-.513c0-4.799 3.905-8.702 8.703-8.702zm409.496 0c4.798 0 8.703 3.903 8.703 8.702v.513h-17.404v-.513c0-4.799 3.903-8.702 8.701-8.702zm-303.027 40.95h16.892v33.785h-16.892c-9.314 0-16.893-7.579-16.893-16.893s7.579-16.892 16.893-16.892zm179.666 0h16.892c9.314 0 16.893 7.578 16.893 16.892s-7.579 16.893-16.893 16.893h-16.892Zm-179.512 49.14h16.738v82.924h-9.828zm179.512 0h16.738l-6.91 82.924h-9.828zM451.629 349.5c-5.812.046-10.662 1.504-14.55 4.377-3.89 2.873-6.489 6.203-7.8 9.988-1.31 3.785-1.966 9.554-1.966 17.307v74.494c0 6.248-.787 13.225-2.36 20.932h10.815c1.573-6.248 2.359-13.75 2.359-22.506v-12.723c3.845 4.789 8.828 7.182 14.945 7.182 5.375.045 10.006-1.026 13.895-3.215 3.889-2.189 7.297-5.792 10.224-10.809 2.928-5.016 4.393-10.717 4.393-17.101 0-11.72-5.572-20.317-16.715-25.79 7.472-5.244 11.21-11.97 11.21-20.179-.045-7.069-2.404-12.494-7.079-16.28-4.675-3.784-10.467-5.677-17.371-5.677Zm.264 4.719c3.932 0 7.1 1.528 9.503 4.584 2.404 3.055 3.604 7.457 3.604 13.203 0 6.43-1.55 12.38-4.652 17.853-3.452-1.094-6.337-1.642-8.653-1.642-3.714 0-5.57 1.094-5.57 3.283 0 2.417 2.206 3.627 6.62 3.627 2.097 0 4.455-.343 7.077-1.027 2.884 2.736 5.222 6.658 7.014 11.765 1.791 5.108 2.687 10.126 2.687 15.051 0 6.476-1.376 11.947-4.128 16.416-2.753 4.47-7.08 6.705-12.979 6.705-6.117 0-10.88-2.941-14.289-8.824v-59.309c-.044-5.791.372-9.94 1.246-12.449.874-2.508 2.403-4.676 4.588-6.5 2.185-1.824 4.83-2.736 7.932-2.736zm-298.014 73.258h28.924v25.593h-44.281zm175.318 0h28.926l15.354 25.593h-44.28zM149.02 468.426h17.402v9.215H149.02zm196.558 0h17.402v9.215h-17.402z" transform="matrix(.99947 0 0 1.00052 .136 -.132)"/></g></g></svg>