<svg width="512" height="512" xmlns="http://www.w3.org/2000/svg"><defs><filter style="color-interpolation-filters:sRGB" id="a" x="-.162" y="-.162" width="1.315" height="1.315"><feFlood flood-opacity="1" flood-color="#3A3F5E" result="flood"/><feComposite in="flood" in2="SourceGraphic" operator="out" result="composite1"/><feGaussianBlur in="composite1" stdDeviation="15" result="blur"/><feOffset result="offset"/><feComposite in="offset" in2="SourceGraphic" operator="atop" result="composite2"/></filter></defs><path d="M0 0h512v512H0Z" fill="#b90202" style="fill:#1b1f21;fill-opacity:1"/><path style="fill:#e64539;stroke-width:15.6447;fill-opacity:1;filter:url(#a)" d="M162.133 21.33a46.934 46.934 0 0 0-46.936 46.934V274.43a46.934 46.934 0 0 1 15.645-2.785h250.316a46.934 46.934 0 0 1 15.645 2.785V68.264a46.934 46.934 0 0 0-46.936-46.934H162.133zm69.424 46.553h48.886c6.877 0 12.446 5.574 12.446 12.443v30.666h30.664c6.876 0 12.445 5.574 12.445 12.444v48.888c0 6.876-5.569 12.444-12.445 12.444h-30.664v30.666c0 6.876-5.57 12.443-12.446 12.443h-48.886c-6.877 0-12.446-5.567-12.446-12.443v-30.666h-30.664c-6.876 0-12.445-5.568-12.445-12.444v-48.888c0-6.87 5.569-12.444 12.445-12.444h30.664V80.326c0-6.869 5.57-12.443 12.446-12.443zm-100.715 235.05a15.739 15.739 0 0 0-8.682 2.63L28.291 368.14a14.487 14.487 0 0 0-1.344 1.252 16.177 16.177 0 0 0-1.564 1.408 15.175 15.175 0 0 0-2.16 3.129 15.926 15.926 0 0 0-.782 1.44 15.05 15.05 0 0 0-1.11 5.599v62.768a46.934 46.934 0 0 0 46.933 46.934h375.472a46.934 46.934 0 0 0 46.934-46.934v-62.768a15.05 15.05 0 0 0-1.111-5.52 15.926 15.926 0 0 0-.782-1.44 15.175 15.175 0 0 0-2.16-3.13 16.177 16.177 0 0 0-1.564-1.407 14.487 14.487 0 0 0-1.344-1.252l-93.87-62.578a15.739 15.739 0 0 0-8.68-2.707H130.841zm4.693 31.29h240.93l46.933 31.29H88.602l46.933-31.29zm26.598 78.224h31.289a15.645 15.645 0 0 1 0 31.29h-31.29a15.645 15.645 0 0 1 0-31.29zm78.222 0h31.29a15.645 15.645 0 0 1 0 31.29h-31.29a15.645 15.645 0 0 1 0-31.29zm78.223 0h31.29a15.645 15.645 0 0 1 0 31.29h-31.29a15.645 15.645 0 0 1 0-31.29z"/></svg>