<svg xml:space="preserve" width="512" height="512" xmlns="http://www.w3.org/2000/svg"><defs><filter style="color-interpolation-filters:sRGB" id="a" x="-.176" y="-.173" width="1.342" height="1.336"><feFlood flood-opacity="1" flood-color="#3A3F5E" result="flood"/><feComposite in="flood" in2="SourceGraphic" operator="out" result="composite1"/><feGaussianBlur in="composite1" stdDeviation="15" result="blur"/><feOffset result="offset"/><feComposite in="offset" in2="SourceGraphic" operator="atop" result="composite2"/></filter></defs><path d="M0 0h512v512H0Z" fill="#b90202" style="fill:#1b1f21;fill-opacity:1"/><path style="stroke-width:2.02895;fill:#e64539;fill-opacity:1;filter:url(#a)" d="M248.074 36.004c-30.785 0-55.828 25.045-55.828 55.828v9.91h-55.814c-25.861 0-46.903 21.042-46.903 46.903v141.128H70.834c-17.155 0-31.111 13.955-31.111 31.11v80.87c0 17.156 13.956 31.11 31.111 31.11h18.86c1.927 24.104 22.147 43.133 46.738 43.133h239.136c24.591 0 44.811-19.029 46.739-43.133h18.857c17.155 0 31.113-13.954 31.113-31.11v-80.87c0-17.153-13.958-31.11-31.111-31.11h-18.693V148.645c0-25.861-21.042-46.903-46.903-46.903h-55.814v-9.91c0-30.783-25.045-55.828-55.83-55.828h-15.852zm0 20.289h15.852c19.597 0 35.54 15.943 35.54 35.539v9.91h-86.933v-9.91c0-19.596 15.946-35.539 35.541-35.539zm-87.21 78.518h190.27c19.85 0 35.999 16.148 35.999 35.998v30.1c0 5.601-4.543 10.144-10.147 10.144s-10.144-4.543-10.144-10.145v-30.1c0-8.661-7.044-15.708-15.707-15.708H160.863c-8.66 0-15.705 7.047-15.705 15.709v34.86c0 5.603-4.54 10.145-10.144 10.145s-10.147-4.542-10.147-10.144v-34.861c0-19.85 16.15-35.998 35.996-35.998zm80.148 41.878h29.976a7.631 7.631 0 0 1 7.631 7.631v18.803h18.805a7.631 7.631 0 0 1 7.63 7.63v29.98a7.628 7.628 0 0 1-7.63 7.63h-18.805v18.805a7.628 7.628 0 0 1-7.63 7.63h-29.977a7.628 7.628 0 0 1-7.631-7.63v-18.805h-18.805a7.628 7.628 0 0 1-7.63-7.63v-29.98a7.631 7.631 0 0 1 7.63-7.63h18.805V184.32a7.631 7.631 0 0 1 7.63-7.63zM157.58 287.795h196.838c18.04 0 32.715 14.673 32.715 32.713h.002v79.644c0 18.04-14.676 32.715-32.715 32.715H157.58c-18.04 0-32.713-14.675-32.713-32.715v-79.644c0-18.038 14.674-32.713 32.713-32.713zm0 20.29c-6.85 0-12.422 5.573-12.422 12.423v79.644c0 6.852 5.572 12.426 12.422 12.426h196.838c6.852 0 12.424-5.576 12.424-12.426v-79.644c0-6.852-5.572-12.424-12.422-12.422H157.58z"/></svg>