<svg xml:space="preserve" width="512" height="512" xmlns="http://www.w3.org/2000/svg"><defs><filter style="color-interpolation-filters:sRGB" id="a" x="-.209" y="-.155" width="1.407" height="1.302"><feFlood flood-opacity="1" flood-color="#3A3F5E" result="flood"/><feComposite in="flood" in2="SourceGraphic" operator="out" result="composite1"/><feGaussianBlur in="composite1" stdDeviation="15" result="blur"/><feOffset result="offset"/><feComposite in="offset" in2="SourceGraphic" operator="atop" result="composite2"/></filter></defs><path d="M0 0h512v512H0Z" fill="#b90202" style="fill:#1b1f21;fill-opacity:1"/><g style="fill:#e64539;fill-opacity:1;filter:url(#a)" transform="translate(52.58 52.58) scale(.83029)"><path d="M426.6 133V81.7L352.3 0H63.4v133h21v52.5h-21V490h363.2V185.5h-21V133ZM312.3 35c0-5.4 4.3-10.1 10.1-10.1 5.4 0 10.1 4.3 10.1 10.1v45.9c0 5.4-4.3 10.1-10.1 10.1-5.4 0-10.1-4.3-10.1-10.1zm-52.1 0c0-5.4 4.3-10.1 10.1-10.1 5.4 0 10.1 4.3 10.1 10.1v45.9c0 5.4-4.3 10.1-10.1 10.1-5.4 0-10.1-4.3-10.1-10.1zm-52.5 0c0-5.4 4.3-10.1 10.1-10.1s10.1 4.3 10.1 10.1v45.9c0 5.4-4.3 10.1-10.1 10.1s-10.1-4.3-10.1-10.1zm-52.5 0c0-5.4 4.3-10.1 10.1-10.1 5.4 0 10.1 4.3 10.1 10.1v45.9c0 5.4-4.3 10.1-10.1 10.1-5.4 0-10.1-4.3-10.1-10.1zm-52.5 46.3V35c0-5.4 4.3-10.1 10.1-10.1s10.1 4.3 10.1 10.1v45.9c0 5.4-4.3 10.1-10.1 10.1s-10.1-4.3-10.1-9.7zm274.5 362H112.8V231h264.4z" style="fill:#e64539;fill-opacity:1"/></g></svg>