<svg xml:space="preserve" width="512" height="512" xmlns="http://www.w3.org/2000/svg"><defs><filter style="color-interpolation-filters:sRGB" id="a" x="-.205" y="-.203" width="1.4" height="1.394"><feFlood flood-opacity="1" flood-color="#3A3F5E" result="flood"/><feComposite in="flood" in2="SourceGraphic" operator="out" result="composite1"/><feGaussianBlur in="composite1" stdDeviation="15" result="blur"/><feOffset result="offset"/><feComposite in="offset" in2="SourceGraphic" operator="atop" result="composite2"/></filter></defs><path d="M-709.757-278.77h512v512h-512z" fill="#b90202" style="fill:#1b1f21;fill-opacity:1" transform="translate(709.757 278.77)"/><path style="fill:#e64539;stroke-width:1.55035;fill-opacity:1;filter:url(#a)" d="M102 68.408v65.115h306.969V68.408H102zm2.215 93.022L70.873 443.592h370.254L407.783 161.43H104.215zm232.5 30.115c7.75 0 15.5 2.948 21.4 8.848 11.801 11.8 11.802 31.002 0 42.802-5.717 5.717-13.318 8.866-21.402 8.866a30.151 30.151 0 0 1-13.053-2.946l-15.344 15.342 21.4 21.4c3.94 3.94 3.94 10.329 0 14.268a10.054 10.054 0 0 1-7.132 2.955 10.06 10.06 0 0 1-7.135-2.955l-8.36-8.361a30.107 30.107 0 0 1-5.907 8.361 30.29 30.29 0 0 1-8.348 5.92l8.348 8.348c3.94 3.94 3.94 10.328 0 14.267a10.054 10.054 0 0 1-7.133 2.955c-2.581 0-5.163-.984-7.133-2.955l-2.377-2.379-14.268 14.268 2.377 2.379c3.94 3.94 3.94 10.326 0 14.265a10.058 10.058 0 0 1-7.132 2.955c-2.582 0-5.163-.985-7.133-2.955l-8.362-8.359a30.087 30.087 0 0 1-5.904 8.36 30.297 30.297 0 0 1-8.35 5.92l8.348 8.347c3.94 3.94 3.94 10.328 0 14.268a10.059 10.059 0 0 1-7.135 2.955c-2.58 0-5.162-.985-7.132-2.955l-2.377-2.377-21.4 21.4a10.082 10.082 0 0 1-14.266 0l-11.89-11.89-17.66 17.66a10.057 10.057 0 0 1-7.134 2.955c-2.582 0-5.163-.985-7.133-2.956-3.94-3.94-3.94-10.327 0-14.267l17.658-17.658-11.888-11.889a10.087 10.087 0 0 1 0-14.268l21.4-21.4-2.379-2.377c-3.94-3.94-3.94-10.328 0-14.267 3.94-3.94 10.328-3.94 14.268 0l8.361 8.36a30.1 30.1 0 0 1 5.906-8.36 30.286 30.286 0 0 1 8.348-5.92l-8.348-8.348c-3.94-3.94-3.94-10.328 0-14.268 3.94-3.939 10.329-3.939 14.268 0l2.379 2.377 14.266-14.267-2.377-2.377c-3.94-3.94-3.94-10.328 0-14.268 3.94-3.94 10.328-3.94 14.267 0l8.362 8.362a30.085 30.085 0 0 1 5.906-8.36 30.313 30.313 0 0 1 8.347-5.92l-8.347-8.347c-3.94-3.94-3.94-10.329 0-14.268 3.94-3.94 10.326-3.94 14.265 0l21.403 21.4 21.254-21.255.007-.008a10.088 10.088 0 0 1 13.28-.854c.341.263.675.542.988.856a10.02 10.02 0 0 0 7.133 2.953 10.03 10.03 0 0 0 7.135-2.955c3.932-3.933 3.931-10.334-.002-14.268-3.933-3.934-10.334-3.931-14.268.002-3.94 3.94-10.328 3.939-14.267-.002-3.94-3.94-3.938-10.328.001-14.267 5.9-5.9 13.65-8.848 21.4-8.848zm-56.93 77.092c-2.694 0-5.227 1.05-7.133 2.955-3.933 3.933-3.933 10.332 0 14.265a10.023 10.023 0 0 0 7.133 2.955 10.02 10.02 0 0 0 7.133-2.955 10.023 10.023 0 0 0 2.957-7.132c0-2.694-1.051-5.228-2.957-7.133a10.023 10.023 0 0 0-7.133-2.955zm-33.289 19.6-14.267 14.267 23.779 23.777 14.267-14.265-5.404-5.405-6.478-6.478-.008-.006c-.002-.002-.003-.006-.006-.008l-11.883-11.883zm-23.78 37.468c-2.693 0-5.227 1.05-7.132 2.955-3.928 3.929-3.934 10.318-.014 14.254l.028.027a10.027 10.027 0 0 0 7.119 2.942c2.694 0 5.23-1.051 7.135-2.957 3.932-3.933 3.931-10.333-.002-14.266a10.02 10.02 0 0 0-7.133-2.955zm-33.29 19.6-14.268 14.267 23.78 23.78 14.267-14.268-23.78-23.78z"/></svg>