<svg xml:space="preserve" width="512" height="512" xmlns="http://www.w3.org/2000/svg"><defs><filter style="color-interpolation-filters:sRGB" id="a" x="-.161" y="-.149" width="1.314" height="1.29"><feFlood flood-opacity="1" flood-color="#3A3F5E" result="flood"/><feComposite in="flood" in2="SourceGraphic" operator="out" result="composite1"/><feGaussianBlur in="composite1" stdDeviation="15" result="blur"/><feOffset result="offset"/><feComposite in="offset" in2="SourceGraphic" operator="atop" result="composite2"/></filter></defs><path d="M0 0h512v512H0Z" fill="#b90202" style="fill:#1b1f21;fill-opacity:1"/><g style="fill:#e64539;fill-opacity:1;filter:url(#a)"><g style="fill:#e64539;fill-opacity:1"><path style="fill:#e64539;stroke-width:.709773;fill-opacity:1" d="M390.637 74.893c-3.773-.234-7.674.14-11.598 1.164-34.875 9.11-74.438 46.526-117.572 111.23l-1.88 2.817C112.7 310.328 130.305 295.92 112.7 310.328l.975 1.233 3.107-2.46a2.013 2.013 0 0 1 2.83.333 2.013 2.013 0 0 1-.33 2.83l-3.107 2.457 2.502 3.164 3.107-2.46a2.013 2.013 0 0 1 2.83.33 2.013 2.013 0 0 1-.33 2.83l-3.107 2.46 2.5 3.162 3.11-2.457a2.013 2.013 0 0 1 2.83.33 2.013 2.013 0 0 1-.33 2.83l-3.108 2.46 2.5 3.161 3.107-2.459a2.015 2.015 0 1 1 2.502 3.162l-3.11 2.457 2.503 3.163 3.107-2.458a2.013 2.013 0 0 1 2.83.33 2.013 2.013 0 0 1-.33 2.83l-3.107 2.46 2.502 3.162 3.107-2.46a2.013 2.013 0 0 1 2.83.333 2.013 2.013 0 0 1-.33 2.83l-3.107 2.457 2.502 3.164 3.107-2.459a2.013 2.013 0 0 1 2.83.33 2.013 2.013 0 0 1-.33 2.83l-3.107 2.46 2.5 3.161 3.109-2.457a2.013 2.013 0 0 1 2.83.33 2.013 2.013 0 0 1-.33 2.83l-3.11 2.46 2.503 3.161 3.107-2.459a2.015 2.015 0 1 1 2.5 3.163l-3.107 2.457 2.501 3.162 3.108-2.457a2.013 2.013 0 0 1 2.83.33 2.013 2.013 0 0 1-.33 2.83l-3.107 2.459 2.501 3.162 3.108-2.46a2.013 2.013 0 0 1 2.83.333 2.013 2.013 0 0 1-.33 2.83l-3.108 2.457 2.5 3.164 3.11-2.459a2.013 2.013 0 0 1 2.83.33 2.013 2.013 0 0 1-.33 2.83l-3.11 2.46 2.502 3.161 3.108-2.457a2.015 2.015 0 1 1 2.5 3.16l-3.108 2.46 2.502 3.162 3.108-2.46a2.015 2.015 0 0 1 2.5 3.162l-3.108 2.458 2.502 3.162 3.108-2.457a2.013 2.013 0 0 1 2.83.33 2.013 2.013 0 0 1-.33 2.83l-3.108 2.459 2.5 3.162 3.11-2.459a2.013 2.013 0 0 1 2.83.332 2.013 2.013 0 0 1-.33 2.83l-3.108 2.457 2.5 3.164 3.108-2.459a2.015 2.015 0 1 1 2.502 3.16l-3.11 2.46 2.502 3.162-6.324 5.003-2.5-3.162-2.502-3.162-3.258 2.576a2.013 2.013 0 0 1-2.83-.33 2.013 2.013 0 0 1 .33-2.83l3.258-2.576-2.502-3.164-3.258 2.578a2.013 2.013 0 0 1-2.83-.332 2.013 2.013 0 0 1 .33-2.83l3.258-2.576-2.502-3.162-3.256 2.576a2.015 2.015 0 1 1-2.502-3.16l3.258-2.578-2.5-3.162-3.258 2.576a2.013 2.013 0 0 1-2.83-.33 2.013 2.013 0 0 1 .33-2.83l3.256-2.577-2.5-3.162-3.258 2.576a2.015 2.015 0 0 1-2.5-3.162l3.258-2.576-2.502-3.162-3.258 2.576a2.013 2.013 0 0 1-2.83-.33 2.013 2.013 0 0 1 .33-2.83l3.258-2.576-2.502-3.164-3.258 2.578a2.013 2.013 0 0 1-2.83-.332 2.013 2.013 0 0 1 .33-2.83l3.258-2.576-2.502-3.162-3.256 2.576a2.015 2.015 0 1 1-2.5-3.16l3.256-2.579-2.5-3.162-3.257 2.577a2.013 2.013 0 0 1-2.83-.33 2.013 2.013 0 0 1 .33-2.83l3.257-2.577-2.502-3.162-3.257 2.576a2.015 2.015 0 0 1-2.5-3.162l3.257-2.576-2.502-3.162-3.257 2.576a2.013 2.013 0 0 1-2.83-.33 2.013 2.013 0 0 1 .33-2.83l3.257-2.576-2.502-3.164-3.255 2.578a2.016 2.016 0 0 1-2.5-3.162l3.255-2.576-2.5-3.163-3.257 2.577a2.013 2.013 0 0 1-2.83-.33 2.013 2.013 0 0 1 .33-2.83l3.257-2.577-2.501-3.164-3.258 2.576a2.013 2.013 0 0 1-2.83-.33 2.013 2.013 0 0 1 .33-2.83l3.258-2.576-2.502-3.162-3.258 2.576a2.015 2.015 0 0 1-2.5-3.162l3.258-2.576-2.502-3.162-3.256 2.576a2.015 2.015 0 1 1-2.502-3.16l3.258-2.576-3.393-4.291-10.043 8.22c-3.813 3.129-6.246 7.293-7.367 11.752-.576 3.73-.9 7.648.474 12.48.82 2.446 2.015 4.798 3.733 6.91l60.238 74.147c4.392 5.408 10.755 8.23 17.192 8.23 4.675 0 9.387-1.491 13.421-4.546l153.756-116.647c9.56-7.25 11.586-21.033 4.522-30.728l-66.047-90.563c26.023-6.547 104.65-28.412 136.394-60.804 11.303-11.53 13.421-27.91 5.415-41.725-6.038-10.412-16.19-16.57-27.508-17.27zm-4.002 12.324c10.07-.776 17.405 5.173 20.853 11.129 4.102 7.071 5.32 17.863-3.554 26.924-26.664 27.206-92.767 47.353-123.07 55.484 46.823-66.706 80.693-87.402 101.29-92.774a25.369 25.369 0 0 1 4.48-.763z"/></g></g></svg>