<svg width="512" height="512" xml:space="preserve" xmlns="http://www.w3.org/2000/svg"><defs><filter style="color-interpolation-filters:sRGB" id="a" x="-.178" y="-.178" width="1.347" height="1.347"><feFlood flood-opacity="1" flood-color="#3A3F5E" result="flood"/><feComposite in="flood" in2="SourceGraphic" operator="out" result="composite1"/><feGaussianBlur in="composite1" stdDeviation="15" result="blur"/><feOffset result="offset"/><feComposite in="offset" in2="SourceGraphic" operator="atop" result="composite2"/></filter></defs><path d="M0 0h512v512H0Z" fill="#b90202" style="fill:#1b1f21;fill-opacity:1"/><g style="fill:#e64539;fill-opacity:1;filter:url(#a)" transform="translate(57.617 57.616) scale(.93021)"><g style="fill:#e64539;fill-opacity:1"><path d="M.001 39.253v387.282h426.532V39.253C426.533 17.581 408.957 0 387.285 0H39.252C17.576 0 .001 17.581.001 39.253Zm55.895-9.774a34.082 34.082 0 0 1 6.845-.691h301.061c18.75 0 33.954 15.2 33.954 33.955v335.015H28.789V62.742c0-11.722 5.933-22.053 14.972-28.15a33.617 33.617 0 0 1 12.135-5.113z" style="fill:#e64539;fill-opacity:1"/><path style="fill:#e64539;fill-opacity:1" d="M36.639 115.142h353.266v274.765H36.639z"/><circle cx="77.2" cy="71.965" r="23.552" style="fill:#e64539;fill-opacity:1"/><path d="M147.853 48.414c13.008 0 23.552 10.546 23.552 23.552s-10.543 23.552-23.552 23.552c-13.004 0-23.549-10.545-23.549-23.552s10.545-23.552 23.549-23.552zm70.655 0c13 0 23.552 10.546 23.552 23.552s-10.552 23.552-23.552 23.552c-13.006 0-23.551-10.545-23.551-23.552s10.545-23.552 23.551-23.552z" style="fill:#e64539;fill-opacity:1"/></g></g></svg>