<svg xml:space="preserve" width="512" height="512" xmlns="http://www.w3.org/2000/svg"><defs><filter style="color-interpolation-filters:sRGB" id="a" x="-.188" y="-.258" width="1.365" height="1.502"><feFlood flood-opacity="1" flood-color="#3A3F5E" result="flood"/><feComposite in="flood" in2="SourceGraphic" operator="out" result="composite1"/><feGaussianBlur in="composite1" stdDeviation="15" result="blur"/><feOffset result="offset"/><feComposite in="offset" in2="SourceGraphic" operator="atop" result="composite2"/></filter></defs><path d="M0 0h512v512H0Z" fill="#b90202" style="fill:#1b1f21;fill-opacity:1"/><g style="fill:#fff"><path style="fill:#e64539;fill-opacity:1;filter:url(#a)" d="M53.5 108.5v295h405v-295h-405zm95 40h187v215h-187v-215zm203 0h67v215h-67v-215zm29 24.5c-2.11 0-4.17.85-5.66 2.34a8.094 8.094 0 0 0-2.34 5.66c0 2.11.859 4.17 2.34 5.66a8.05 8.05 0 0 0 5.66 2.34c2.1 0 4.17-.85 5.66-2.34a8.055 8.055 0 0 0 2.34-5.66c0-2.1-.85-4.17-2.34-5.66a8.052 8.052 0 0 0-5.66-2.34zm-139.047 6.129c-21.303 0-41.33 8.296-56.394 23.36-15.064 15.062-23.36 35.09-23.36 56.394 0 21.303 8.296 41.33 23.36 56.394 15.063 15.064 35.09 23.36 56.394 23.36 21.303 0 41.331-8.296 56.395-23.36 15.063-15.063 23.357-35.091 23.357-56.394 0-19.716-7.11-38.336-20.11-52.944l-57.671 57.672-6.7-6.7 11.786-11.786a17.225 17.225 0 0 0-8.436-2.19c-9.553 0-17.326 7.773-17.326 17.327 0 9.553 7.773 17.326 17.326 17.326 9.554 0 17.324-7.773 17.324-17.326h9.477c0 14.778-12.022 26.8-26.8 26.8-14.78 0-26.802-12.022-26.802-26.8 0-14.779 12.023-26.801 26.801-26.801 5.553 0 10.844 1.682 15.303 4.797l15.102-15.102c-8.554-7.035-19.185-10.86-30.405-10.86-26.448 0-47.965 21.517-47.965 47.966 0 26.448 21.517 47.965 47.965 47.965 26.448 0 47.965-21.517 47.965-47.965h9.477c0 31.673-25.769 57.441-57.442 57.441-31.673 0-57.441-25.768-57.441-57.441 0-31.673 25.768-57.442 57.441-57.442 13.753 0 26.766 4.804 37.13 13.612l17.19-17.192c-14.607-13-33.225-20.111-52.94-20.111zM380.5 210.5a8 8 0 0 0-8 8 8 8 0 0 0 8 8 8 8 0 0 0 8-8 8 8 0 0 0-8-8zm-90.777 25.105a6.379 6.379 0 1 1 0 12.758 6.379 6.379 0 0 1 0-12.758zM100.5 237.5c10.217 0 18.5 8.283 18.5 18.5s-8.283 18.5-18.5 18.5S82 266.217 82 256s8.283-18.5 18.5-18.5zm280 10.5a8 8 0 0 0-8 8 8 8 0 0 0 8 8 8 8 0 0 0 8-8 8 8 0 0 0-8-8zm0 37.5a8 8 0 0 0-8 8 8 8 0 0 0 8 8 8 8 0 0 0 8-8 8 8 0 0 0-8-8zm0 37.5c-2.11 0-4.17.85-5.66 2.34a8.094 8.094 0 0 0-2.34 5.66c0 2.11.859 4.17 2.34 5.66a8.05 8.05 0 0 0 5.66 2.34c2.1 0 4.16-.85 5.66-2.34a8.073 8.073 0 0 0 2.34-5.66c0-2.11-.85-4.17-2.34-5.66a8.052 8.052 0 0 0-5.66-2.34z"/></g></svg>