<svg xml:space="preserve" width="512" height="512" xmlns="http://www.w3.org/2000/svg"><defs><filter style="color-interpolation-filters:sRGB" id="a" x="-.075" y="-.08" width="1.15" height="1.161"><feFlood flood-opacity="1" flood-color="#3A3F5E" result="flood"/><feComposite in="flood" in2="SourceGraphic" operator="out" result="composite1"/><feGaussianBlur in="composite1" stdDeviation="13.145" result="blur"/><feOffset result="offset"/><feComposite in="offset" in2="SourceGraphic" operator="atop" result="composite2"/></filter></defs><path d="M0 0h512v512H0Z" fill="#b90202" style="fill:#1b1f21;fill-opacity:1"/><g style="fill:#e64539;fill-opacity:1;filter:url(#a)"><path d="M138.307 13.488C62.044 14.06 0 77.214 0 154.27c0 46.047 9.125 90.808 27.123 133.04 17.948 42.118 43.81 79.596 76.867 111.395a26.616 26.616 0 0 0 19.692 7.371 26.612 26.612 0 0 0 18.869-9.283c9.063-10.642 8.23-26.612-1.89-36.357-27.87-26.826-49.67-58.436-64.8-93.954C60.691 230.865 53 193.111 53 154.27c0-48.043 38.443-87.423 85.64-87.782h.721c23.07 0 44.753 8.98 61.059 25.285 13.898 13.891 22.658 32.743 24.783 52.788l-3.836-2.928c-19.52-14.896-44.562-20.869-68.705-16.385-24.142 4.484-45.367 19.052-58.236 39.965-12.87 20.912-16.306 46.426-9.43 69.998 6.877 23.572 23.493 43.234 45.588 53.947l195.26 94.668c9.204 4.462 18.944 6.594 28.545 6.594 21.974 0 43.197-11.166 55.466-31.102a65.037 65.037 0 0 0-15.984-86.043L278.721 185.4v-31.242c0-37.927-15.166-74.608-41.608-100.635-26.219-25.817-60.932-40.035-97.742-40.035zm29.736 144.592c10.651.25 20.898 3.84 29.627 10.502l172.506 131.643c17.3 12.76 7.185 38.691 7.185 38.691s-7.038 13.02-24.941 13.984c-4.31.233-8.697-.957-12.836-2.964l-195.26-94.668c-13.173-6.387-22.686-17.646-26.787-31.702-4.1-14.055-2.132-28.661 5.541-41.13 7.675-12.47 19.827-20.809 34.22-23.483 3.6-.669 7.195-.956 10.745-.873zm1.608 34.003c-3.546-2.708-7.68-3.681-12.036-2.87-4.415.82-7.846 3.173-10.197 6.99a15.275 15.275 0 0 0-1.657 12.279c1.257 4.31 3.943 7.489 7.984 9.448 2.214 1.073 4.528 1.588 6.794 1.588 5.098 0 9.949-2.605 12.849-7.318 4.188-6.807 2.617-15.268-3.737-20.117z" style="fill:#e64539;fill-opacity:1" transform="translate(31.25 31.249) scale(1.07127)"/></g></svg>