<svg height="512" width="512" style="enable-background:new 0 0 512 512" xml:space="preserve" xmlns="http://www.w3.org/2000/svg"><defs><filter style="color-interpolation-filters:sRGB" id="a" x="-.078" y="-.062" width="1.156" height="1.123"><feFlood flood-opacity="1" flood-color="#3A3F5E" result="flood"/><feComposite in="flood" in2="SourceGraphic" operator="out" result="composite1"/><feGaussianBlur in="composite1" stdDeviation="13.145" result="blur"/><feOffset result="offset"/><feComposite in="offset" in2="SourceGraphic" operator="atop" result="composite2"/></filter></defs><path d="M0 0h512v512H0Z" fill="#b90202" style="fill:#1b1f21;fill-opacity:1"/><g transform="translate(39.833 39.833) scale(.8444)" style="fill:#e64539;fill-opacity:1;filter:url(#a)"><path d="M256 204.483c-69.669 0-126.349 56.68-126.349 126.349 0 69.669 56.68 126.35 126.349 126.35 69.669 0 126.349-56.68 126.349-126.349 0-69.669-56.68-126.35-126.349-126.35zm0 221.54c-52.488 0-95.192-42.703-95.192-95.192 0-52.489 42.703-95.192 95.192-95.192 52.489 0 95.192 42.703 95.192 95.192 0 52.489-42.703 95.192-95.192 95.192z" style="fill:#e64539;fill-opacity:1"/><path d="M442.647 0H69.353c-8.604 0-15.579 6.976-15.579 15.579v480.843c0 8.603 6.975 15.579 15.579 15.579h373.294c8.603 0 15.579-6.976 15.579-15.579V15.579C458.225 6.976 451.249 0 442.647 0Zm-15.579 480.843H84.932V31.157h342.136z" style="fill:#e64539;fill-opacity:1"/><path d="M312.305 284.427c-5.479-6.637-15.294-7.574-21.932-2.097-6.635 5.477-7.573 15.295-2.097 21.932a41.839 41.839 0 0 1 9.554 26.571c0 23.066-18.765 41.83-41.83 41.83-8.604 0-15.579 6.976-15.579 15.579 0 8.603 6.975 15.579 15.579 15.579 40.246 0 72.988-32.742 72.988-72.988 0-16.893-5.925-33.372-16.683-46.406zm70.661-227.834H129.034c-8.604 0-15.579 6.976-15.579 15.579v100.483c0 8.604 6.975 15.579 15.579 15.579h253.933c8.603 0 15.579-6.976 15.579-15.579V72.171c-.001-8.602-6.977-15.578-15.58-15.578zm-15.578 100.482H144.612V139.16h131.735c8.603 0 15.579-6.976 15.579-15.579 0-8.603-6.976-15.579-15.579-15.579H144.612V87.75h222.775v69.325z" style="fill:#e64539;fill-opacity:1"/><path d="M338.349 120.542a14.533 14.533 0 0 0-.886-2.913c-.39-.95-.874-1.852-1.433-2.694a14.88 14.88 0 0 0-1.932-2.37 14.835 14.835 0 0 0-2.37-1.932 15.81 15.81 0 0 0-2.68-1.433 15.15 15.15 0 0 0-2.913-.886c-5.077-1.03-10.453.637-14.066 4.251a14.78 14.78 0 0 0-1.932 2.37 15.289 15.289 0 0 0-1.433 2.694 15.81 15.81 0 0 0-1.2 5.951c0 1.011.109 2.039.312 3.038.203.997.499 1.978.888 2.929.389.935.872 1.838 1.433 2.68a14.8 14.8 0 0 0 1.932 2.368 15.685 15.685 0 0 0 11.013 4.566c1.013 0 2.042-.093 3.053-.298a16.522 16.522 0 0 0 2.913-.904 15.744 15.744 0 0 0 2.68-1.433 14.771 14.771 0 0 0 2.37-1.932 14.909 14.909 0 0 0 1.932-2.368 15.886 15.886 0 0 0 1.433-2.68c.389-.95.701-1.932.886-2.929.204-.997.312-2.027.312-3.038 0-1.012-.108-2.04-.312-3.037z" style="fill:#e64539;fill-opacity:1"/></g></svg>