<svg width="512" height="512" xmlns="http://www.w3.org/2000/svg"><defs><filter style="color-interpolation-filters:sRGB" id="a" x="-.71" y="-.671" width="2.383" height="2.307"><feFlood flood-opacity="1" flood-color="#3A3F5E" result="flood"/><feComposite in="flood" in2="SourceGraphic" operator="out" result="composite1"/><feGaussianBlur in="composite1" stdDeviation="15" result="blur"/><feOffset result="offset"/><feComposite in="offset" in2="SourceGraphic" operator="atop" result="composite2"/></filter></defs><path d="M0 0h512v512H0z" fill="#b90202" style="fill:#1b1f21;fill-opacity:1"/><g transform="translate(-13.025 35.35)" style="fill:#e64539;fill-opacity:1;filter:url(#a)"><path d="M166 121c0 90 90 105 90 180 0 30-30 75-75 75s-75-45-45-120c-45 30-60 60-60 90 0 75 75 150 180 150s180-45 180-135c.67-133.125-153.4-177.596-195-240-30-45-15-75 15-105-60 15-90 57-90 105Z" fill="#fff" style="fill:#e64539;fill-opacity:1" transform="rotate(46.239 258.653 493.123) scale(.26589)"/><g style="fill:#e64539;fill-opacity:1"><path style="fill:#e64539;fill-opacity:1" d="M171.993 44.247h82.382v344.785h-82.382z" transform="rotate(46.03 206.247 275.041)"/><path style="fill:#e64539;stroke-width:.998065;fill-opacity:1" d="M171.999 402.328h82.378v45.465h-82.378z" transform="rotate(46.03 206.247 275.041)"/></g></g></svg>