<svg xml:space="preserve" width="512" height="512" xmlns="http://www.w3.org/2000/svg"><defs><filter style="color-interpolation-filters:sRGB" id="a" x="-.162" y="-.358" width="1.315" height="1.697"><feFlood flood-opacity="1" flood-color="#3A3F5E" result="flood"/><feComposite in="flood" in2="SourceGraphic" operator="out" result="composite1"/><feGaussianBlur in="composite1" stdDeviation="15" result="blur"/><feOffset result="offset"/><feComposite in="offset" in2="SourceGraphic" operator="atop" result="composite2"/></filter></defs><path d="M0 0h512v512H0Z" fill="#b90202" style="fill:#1b1f21;fill-opacity:1"/><g style="fill:#e64539;fill-opacity:1;filter:url(#a)" transform="translate(19.93 -55.417) scale(.92963)"><circle cx="37.5" cy="275.411" r="7.5" style="fill:#e64539;fill-opacity:1"/><path style="fill:#e64539;stroke-width:.929631;fill-opacity:1" d="M456.854 165.416c-429.952.336-328.201.34-429.952.336a6.973 6.973 0 0 0-6.972 6.973v55.777a6.973 6.973 0 0 0 6.972 6.973h48.805v59.632c0 32.075 26.023 60.112 58.008 62.498l68.805 5.133c14.228 1.064 30.507-6.84 37.066-17.99l11.605-19.73c3.528-5.997 9.03-9.436 15.092-9.436 6.063 0 11.562 3.439 15.09 9.436l11.606 19.73c6.162 10.476 20.91 18.086 34.47 18.086.871 0 1.738-.032 2.596-.096l68.805-5.133c31.985-2.384 58.008-30.422 58.007-62.496l-.003-129.693zM33.875 179.697h41.832v41.834H33.875v-41.834zm55.777 0h79.174v20.916c0 11.534-9.382 20.918-20.916 20.918H89.652v-41.834zm166.25 33.115a6.971 6.971 0 0 1 4.93 11.9l-19.719 19.722a6.953 6.953 0 0 1-4.931 2.043 6.971 6.971 0 0 1-4.93-11.902l19.72-19.721a6.95 6.95 0 0 1 4.93-2.042zm111.813 0a6.971 6.971 0 0 1 4.93 11.9l-61.065 61.065a6.948 6.948 0 0 1-4.93 2.043 6.971 6.971 0 0 1-4.93-11.902l61.065-61.064a6.95 6.95 0 0 1 4.93-2.042zm-151.252 39.442a6.971 6.971 0 0 1 4.93 11.9l-55.836 55.836a6.953 6.953 0 0 1-4.932 2.043 6.948 6.948 0 0 1-4.93-2.043 6.971 6.971 0 0 1 0-9.86l55.838-55.835a6.948 6.948 0 0 1 4.93-2.041z" transform="translate(-21.439 59.611) scale(1.0757)"/></g></svg>