<svg width="512" height="512" xmlns="http://www.w3.org/2000/svg"><defs><filter style="color-interpolation-filters:sRGB" id="a" x="-.116" y="-.049" width="1.232" height="1.098"><feFlood flood-opacity="1" flood-color="#3A3F5E" result="flood"/><feComposite in="flood" in2="SourceGraphic" operator="out" result="composite1"/><feGaussianBlur in="composite1" stdDeviation="8.132" result="blur"/><feOffset result="offset"/><feComposite in="offset" in2="SourceGraphic" operator="atop" result="composite2"/></filter></defs><path d="M0 0h512v512H0z" fill="#b90202" style="fill:#1b1f21;fill-opacity:1"/><g style="fill:#e64539;fill-opacity:1;filter:url(#a)"><path style="fill:#e64539;fill-opacity:1;stroke-width:.838787" d="M183.986 115.586c.525.85-.048-.093.476.758l.018 2.458c.006 102.326-.005 204.652.013 306.978.142 13.994 5.035 27.85 13.574 38.924 8.41 11.01 20.193 19.326 33.275 23.833.753.26 1.795.597 2.665.865 18.732 5.696 39.707 3.862 57.01-5.375 14.505-7.648 26.332-20.49 32.188-35.86 3.09-8.01 4.5-16.63 4.314-25.206V116.395L340 96.076H172l11.986 19.51zm12.243 6.059h121.22v114.71H194.551v-114.71Zm61.226 159.148h.002c16.73 0 27.373 7.324 34.562 18.109 6.648 9.971 9.89 23.09 10.347 35.3-13.82 6.72-21.74 15.21-24.182 24.768a26.789 26.789 0 0 0-.8 5.437c-5.453 2.357-12.613 3.735-19.657 3.736-7.947 0-15.685-1.797-20.592-4.587a24.962 24.962 0 0 0-.714-4.84c-2.336-9.424-10.245-17.49-23.877-24.446.435-12.909 3.753-26.077 10.448-35.91 7.2-10.572 17.829-17.567 34.463-17.567zm-16.27 40.703c-4.987 0-9.02 4.026-9.02 9.003a9.018 9.018 0 0 0 9.02 9.02c4.987 0 9.036-4.043 9.036-9.02 0-4.978-4.049-9.003-9.034-9.003zm14.484 18.263c-3.467 7.2-5.653 14.404-7.472 21.606 4.982-1.862 9.96-1.642 14.943 0-1.345-7.2-4.054-14.405-7.47-21.606zm-20.167 34.5c6.558 2.92 14.357 4.129 22.225 4.128 7.257 0 14.598-1.066 21.104-3.467 1.052 3.37 2.61 6.652 4.542 9.785-5.087 3.717-14.839 6.628-25.17 6.744-10.507.118-21.208-2.502-27.705-6.845 2.125-3.399 3.84-6.856 5.004-10.346zm-38.48 9.275c34.032 17.148 86.512 29.035 123.419 32.768 1.387 7.67-.443 13.925-5.43 19.994-34.033-15.671-85.915-30.012-123.45-33.023-1.45-7.512.616-13.614 5.462-19.739zm117.953 0c4.847 6.125 6.912 12.226 5.464 19.739-3.958.318-8.082.767-12.32 1.325-10.057-1.44-20.923-3.4-31.977-5.811 14.151-4.433 27.512-9.548 38.833-15.253zm-110.957 31.273c10.324 1.448 21.497 3.598 32.863 6.268-14.527 4.648-28.251 9.86-39.891 15.22-4.988-6.07-6.818-12.323-5.429-19.993a355.81 355.81 0 0 0 12.457-1.495zm65.799-93.391c-4.987 0-9.02 4.025-9.02 9.002a9.018 9.018 0 0 0 9.02 9.02c4.987 0 9.036-4.042 9.036-9.02 0-4.977-4.049-9.002-9.034-9.002z" transform="matrix(1.19073 0 0 1.1929 -48.826 -95.14)"/></g></svg>