<svg width="512" height="512" xmlns="http://www.w3.org/2000/svg"><defs><filter style="color-interpolation-filters:sRGB" id="a" x="-.116" y="-.049" width="1.232" height="1.098"><feFlood flood-opacity="1" flood-color="#3A3F5E" result="flood"/><feComposite in="flood" in2="SourceGraphic" operator="out" result="composite1"/><feGaussianBlur in="composite1" stdDeviation="8.132" result="blur"/><feOffset result="offset"/><feComposite in="offset" in2="SourceGraphic" operator="atop" result="composite2"/></filter></defs><path d="M0 0h512v512H0z" fill="#b90202" style="fill:#1b1f21;fill-opacity:1"/><g style="fill:#e64539;fill-opacity:1;filter:url(#a)"><path style="fill:#e64539;fill-opacity:1;stroke-width:.838787" d="M183.986 115.586c.525.85-.048-.093.476.758l.018 2.458c.006 102.326-.005 204.652.013 306.978.142 13.994 5.035 27.85 13.574 38.924 8.41 11.01 20.193 19.326 33.275 23.833.753.26 1.795.597 2.665.865 18.732 5.696 39.707 3.862 57.01-5.375 14.505-7.648 26.332-20.49 32.188-35.86 3.09-8.01 4.5-16.63 4.314-25.206V116.395L340 96.076H172l11.986 19.51zm12.243 6.059h121.22v114.71H194.551v-114.71Zm82.107 180.83c1.417 1.044 3.031 1.862 4.283 3.104 6.033 7.07 9.198 16.602 8.203 25.88a34.654 34.654 0 0 1-2.213 9.256c10.366 1.573 19.869 8.095 24.97 17.27 1.093 1.969 2.103 4.033 2.683 6.208l.638 8.578c-2.219-2.072-4.55-4.027-6.716-6.154-4.315-7.044-12.503-11.53-20.768-11.31 1.25 9.09-1.415 18.642-7.239 25.74-3.453 4.25-7.931 7.673-12.97 9.824 3.738 6.63 10.854 11.257 18.469 11.795 1.083.085 2.177.083 3.185.546l7.137 2.308c-2.76 1.27-5.45 2.69-8.236 3.898-9.205 1.802-19.16-.167-26.786-5.693A34.544 34.544 0 0 1 256 397.15c-5.965 7.482-15.154 12.328-24.728 12.835-3.147.186-6.346.023-9.419-.69a9488.452 9488.452 0 0 0-7.85-3.797c2.906-.882 5.764-1.916 8.688-2.73 6.795-.098 13.484-3.27 17.775-8.553a22.859 22.859 0 0 0 2.274-3.28c-9.515-3.994-16.989-12.557-19.548-22.567a33.819 33.819 0 0 1-.805-13.071c-8.115-.136-16.096 4.23-20.437 11.074-.699 1.053-1.826 1.738-2.706 2.635l-4.164 3.752c.284-3.026.403-6.068.754-9.086 3.194-9.29 10.526-17.046 19.63-20.742a34.808 34.808 0 0 1 8.009-2.235c-3.81-9.69-2.982-21.094 2.311-30.078 1.189-2.02 2.52-4.008 4.173-5.668l7.09-4.832c-.641 2.924-1.213 5.873-1.896 8.782-3.37 6.14-3.782 13.788-1.192 20.285.135.31.408.99.631 1.436a23.42 23.42 0 0 0 1.113 2.062c7.414-5.588 17.196-7.877 26.32-6.154a33.85 33.85 0 0 1 14.272 6.308c4.13-6.61 4.684-15.323 1.275-22.353-.467-.988-1.024-1.938-1.13-3.049l-1.575-7.334 3.47 2.375zm-23.02 34.716a22.586 22.586 0 0 0-11.574 3.534c3.555 2.181 7.693 3.283 11.84 3.482 1.05.16 2.141-.137 3.203-.209 3.317-.401 6.556-1.46 9.422-3.186-3.8-2.473-8.36-3.743-12.89-3.62zm.877 17.848c-1.457.48-3.008 1.244-3.501 2.758-.473 1.178-.24 2.503.109 3.652 1.088 1.121 2.561 2.112 4.201 1.807 1.17-.147 2.12-.892 2.918-1.695.413-.374.325-1.1.473-1.633.393-1.995-.986-4.029-2.918-4.555-.432-.068-.886-.274-1.282-.334zm-22.85 3.223c-.477 6.788 2.269 13.737 7.363 18.271a22.567 22.567 0 0 0 5.196 3.54c.209-4.335-.89-8.669-2.885-12.503-.446-1.08-1.308-1.959-1.978-2.918-2.058-2.696-4.68-4.96-7.682-6.547l-.009.1zm44.915.043c-3.416 1.895-6.287 4.682-8.46 7.916-.732.83-1.039 1.96-1.546 2.94-1.545 3.374-2.304 7.102-2.15 10.812 6.5-3.25 11.236-9.796 12.175-17.016.222-1.572.274-3.167.166-4.75l-.185.098z" transform="matrix(1.19073 0 0 1.1929 -48.826 -95.14)"/></g></svg>