<svg xml:space="preserve" width="512" height="512" xmlns="http://www.w3.org/2000/svg"><defs><filter style="color-interpolation-filters:sRGB" id="a" x="-.204" y="-.236" width="1.397" height="1.459"><feFlood flood-opacity="1" flood-color="#3A3F5E" result="flood"/><feComposite in="flood" in2="SourceGraphic" operator="out" result="composite1"/><feGaussianBlur in="composite1" stdDeviation="30" result="blur"/><feOffset result="offset"/><feComposite in="offset" in2="SourceGraphic" operator="atop" result="composite2"/></filter></defs><path d="M0 0h512v512H0Z" fill="#b90202" style="fill:#1b1f21;fill-opacity:1"/><g style="fill:#e64539;fill-opacity:1;filter:url(#a)" transform="translate(31.55 31.55) scale(1.20399)"><path d="M113.094 94.363c-.212 5.459-8.47 9.848-18.646 9.848-10.175 0-18.435-4.389-18.647-9.848-9.823 6.2-16.353 17.141-16.353 29.615 0 19.331 15.668 35.001 35 35.001s35-15.67 35-35.001c-.001-12.474-6.531-23.415-16.354-29.615z" style="fill:#e64539;fill-opacity:1"/><path d="M326.447 168.28h-99.516c-25.623 0-46.396 20.772-46.396 46.397v1.044h-11.088v-31.718c12.19-15.909 19.447-35.788 19.447-57.332 0-33.729-17.775-63.379-44.447-80.09v-4.958c0-9.07-7.351-16.421-16.421-16.421H60.868c-9.07 0-16.421 7.351-16.421 16.421v4.958C17.775 63.292 0 92.942 0 126.671c0 21.545 7.257 41.423 19.447 57.332v120.005c0 24.099 19.535 43.634 43.634 43.634h62.732c24.099 0 43.634-19.536 43.634-43.634v-28.886h11.088v1.043c0 25.625 20.773 46.398 46.396 46.398h99.516c25.625 0 46.397-20.773 46.397-46.398v-61.487c0-25.625-20.772-46.398-46.397-46.398zM73.088 305.199H57.756c-7.548 0-13.667-6.119-13.667-13.667s6.119-13.666 13.667-13.666h15.332c7.548 0 13.667 6.119 13.667 13.666 0 7.549-6.119 13.667-13.667 13.667zm21.359-124.082C64.425 181.117 40 156.693 40 126.671s24.425-54.447 54.447-54.447c30.022 0 54.447 24.425 54.447 54.447.001 30.022-24.424 54.446-54.447 54.446zm245.616 91.415c0 11.046-8.954 20.001-20 20.001s-20-8.955-20-20.001v-54.589c0-11.046 8.954-20.001 20-20.001s20 8.955 20 20.001z" style="fill:#e64539;fill-opacity:1"/></g></svg>