<svg width="512" height="512" xmlns="http://www.w3.org/2000/svg"><defs><filter style="color-interpolation-filters:sRGB" id="a" x="-.054" y="-.113" width="1.109" height="1.227"><feFlood flood-opacity="1" flood-color="#3A3F5E" result="flood"/><feComposite in="flood" in2="SourceGraphic" operator="out" result="composite1"/><feGaussianBlur in="composite1" stdDeviation="10.341" result="blur"/><feOffset result="offset"/><feComposite in="offset" in2="SourceGraphic" operator="atop" result="composite2"/></filter></defs><path d="M0 0h512v512H0z" fill="#b90202" style="fill:#1b1f21;fill-opacity:1"/><g style="filter:url(#a)"><path d="M256 146.572c-30.972 0-61.944 1.244-92.914 3.703H160c-.032.082-.063.165-.096.246a1190.115 1190.115 0 0 0-42.77 4.31l-1.144-.575c-.127.252-.248.504-.375.756a1205.234 1205.234 0 0 0-53.084 7.56l-5.47.908-1.653 5.29c-.28.9-.544 1.786-.818 2.68H44l-16 63.532h12.73c-3.66 34.972.71 68.133 14.764 108.82l1.28 3.712 3.593 1.584c49.352 21.772 85.914 21.772 135.266 0 22.288-9.833 32.994-28.193 40.834-42.016 3.92-6.912 7.306-12.758 10.426-16.182 3.12-3.424 5.045-4.566 9.107-4.566 4.062 0 5.988 1.142 9.107 4.566 3.12 3.424 6.506 9.27 10.426 16.182 7.84 13.823 18.546 32.183 40.834 42.016 49.352 21.772 85.914 21.772 135.266 0l4.02-1.774 1.074-4.262c10.202-40.51 13.986-73.303 11.363-108.08H484l-16-63.53h-10.732c-.182-.736-.354-1.46-.54-2.198l-1.44-5.72-5.82-.962c-64.475-10.667-128.972-16-193.468-16zm.002 17.992-.002.002c61.532 0 123.064 5.043 184.613 14.91 13.912 57.71 13.82 96.77-.332 154.81-44.11 18.725-71.427 18.292-116.646-1.657-16.75-7.39-24.712-20.793-32.446-34.43-3.868-6.817-7.494-13.627-12.775-19.424-5.28-5.796-13.143-10.443-22.414-10.443-9.27 0-17.133 4.647-22.414 10.443-5.28 5.797-8.908 12.606-12.775 19.424-7.733 13.637-15.695 27.042-32.444 34.432a287.812 287.812 0 0 1-12.22 5.074c2.755-60.648 18.324-117.63 41.369-172.47 12.83-.438 25.658-.67 38.486-.67zm-103.188 4.69C132.49 225.61 119.91 285.04 113.457 346.902c-7.824-1.118-15.866-3.12-24.453-6 1.81-59.094 13.318-115.636 38.453-169.074 8.452-.95 16.906-1.81 25.357-2.574zm-46.261 5.107.002.002C84.319 225.3 73.588 278.794 71.25 333.904c-19.358-57.964-17.74-96.352-.22-154.379 11.841-1.9 23.683-3.62 35.523-5.164zm262.83 4.407c-20.606 0-40.519 4.273-59.195 12.703a2.33 2.33 0 0 0-1.167 1.166 143.934 143.934 0 0 0 0 118.375 2.33 2.33 0 0 0 1.166 1.166c18.677 8.43 38.59 12.704 59.182 12.705 20.606-.001 40.517-4.276 59.193-12.705a2.33 2.33 0 0 0 1.167-1.166 143.933 143.933 0 0 0 0-118.375 2.33 2.33 0 0 0-1.166-1.166c-18.677-8.43-38.588-12.702-59.18-12.703zm-2.34 4.683v30.69a281.4 281.4 0 0 0-28.354 1.658c1.38-10.419 3.367-20.552 5.95-30.184a139.702 139.702 0 0 1 22.404-2.164zm4.664 0c7.579.123 15.056.846 22.406 2.164 2.57 9.585 4.563 19.686 5.95 30.184a281.536 281.536 0 0 0-28.356-1.658v-30.69zm27.494 3.176a138.382 138.382 0 0 1 26.637 8.734 139.081 139.081 0 0 1 8.726 26.633c-9.455-2.426-19.44-4.313-29.728-5.629-1.315-10.312-3.2-20.262-5.635-29.738zm-59.654.002c-2.445 9.52-4.321 19.5-5.629 29.736-10.29 1.316-20.274 3.203-29.73 5.63a139.075 139.075 0 0 1 8.724-26.634 138.378 138.378 0 0 1 26.635-8.732zm27.496 32.232v30.631h-30.684a276.21 276.21 0 0 1 1.743-28.904 279.158 279.158 0 0 1 28.941-1.727zm4.664 0c9.723.08 19.428.654 28.94 1.727.375 3.314.695 6.662.953 10.045a2.333 2.333 0 0 0 4.652-.354 277.76 277.76 0 0 0-.844-9.107c10.417 1.368 20.554 3.34 30.174 5.918a139.34 139.34 0 0 1 2.193 22.402h-30.722a289.41 289.41 0 0 0-.248-9.826 2.326 2.326 0 0 0-2.43-2.23 2.333 2.333 0 0 0-2.23 2.43c.136 3.214.216 6.423.244 9.626h-30.682v-30.63zm-38.363 2.31a281.61 281.61 0 0 0-1.645 28.321h-30.724a139.34 139.34 0 0 1 2.193-22.402c9.62-2.578 19.758-4.55 30.176-5.918zm-32.37 32.985h30.723a281.4 281.4 0 0 0 1.657 28.323c-10.421-1.368-20.563-3.342-30.186-5.92a139.34 139.34 0 0 1-2.193-22.403zm35.383 0h30.686v30.631a279.078 279.078 0 0 1-28.938-1.724 276.391 276.391 0 0 1-1.748-28.907zm35.35 0h30.684a275.247 275.247 0 0 1-1.729 28.905 279.154 279.154 0 0 1-28.955 1.726v-30.63zm35.348 0h30.72a139.34 139.34 0 0 1-2.193 22.403c-9.617 2.577-19.752 4.55-30.166 5.918a280.306 280.306 0 0 0 1.639-28.32zm-102.868 27.498c9.458 2.427 19.443 4.314 29.733 5.63a259.434 259.434 0 0 0 1.687 11.265 2.333 2.333 0 0 0 2.696 1.9 2.33 2.33 0 0 0 1.9-2.693 254.198 254.198 0 0 1-1.506-9.906 281.542 281.542 0 0 0 28.346 1.658v30.69a139.698 139.698 0 0 1-22.41-2.165 223.445 223.445 0 0 1-2.686-11.209 2.333 2.333 0 0 0-2.765-1.795 2.333 2.333 0 0 0-1.795 2.768 230.931 230.931 0 0 0 2.162 9.224 138.397 138.397 0 0 1-26.637-8.732 139.085 139.085 0 0 1-8.724-26.635zm130.377 0a139.107 139.107 0 0 1-8.726 26.635 138.379 138.379 0 0 1-26.635 8.732c2.445-9.513 4.333-19.482 5.645-29.74 10.284-1.315 20.264-3.201 29.716-5.627zm-34.494 6.194c-1.383 10.44-3.374 20.562-5.955 30.185a139.71 139.71 0 0 1-22.408 2.164v-30.69c9.563-.078 19.07-.639 28.363-1.66z" style="fill:#e64539;fill-opacity:1"/></g></svg>