<svg viewBox="0 0 512 512" style="height:512px;width:512px" xml:space="preserve" xmlns="http://www.w3.org/2000/svg"><defs><filter style="color-interpolation-filters:sRGB" id="a" x="-.059" y="-.068" width="1.119" height="1.137"><feFlood flood-opacity="1" flood-color="#3A3F5E" result="flood"/><feComposite in="flood" in2="SourceGraphic" operator="out" result="composite1"/><feGaussianBlur in="composite1" stdDeviation="10.424" result="blur"/><feOffset result="offset"/><feComposite in="offset" in2="SourceGraphic" operator="atop" result="composite2"/></filter></defs><path d="M0 0h512v512H0Z" fill="#1b1f21"/><g style="fill:#e64539;fill-opacity:1;filter:url(#a)"><path style="fill:#e64539;fill-opacity:1" d="M11.7 5C9.6 5 7.8 6.2 7 8l-1.3 3H3c-.6 0-1 .4-1 1s.4 1 1 1h1c-1.2.9-2 2.4-2 4v4c0 .9.4 1.7 1 2.2V25c0 1.7 1.3 3 3 3h2c1.7 0 3-1.3 3-3v-1h9.371a17.714 17.714 0 0 1-.168-2H10.4l1.2-2.3c.5-1 1.5-1.7 2.7-1.7h3.5c1.1 0 2.2.6 2.7 1.7l.465.89A44.05 44.05 0 0 0 24.476 19H23c-.6 0-1-.4-1-1s.4-1 1-1h3c.446 0 .782.222.925.582a.788.788 0 0 1 .797.045c.66.44 1.42.882 2.278 1.325V17c0-1.6-.8-3.1-2-4h1c.6 0 1-.4 1-1s-.4-1-1-1h-2.8L25 8c-.8-1.8-2.6-3-4.6-3h-8.7zm-.1 2h8.7c1.2 0 2.3.7 2.8 1.8l1.4 3.2h-17l1.4-3.2C9.4 7.7 10.4 7 11.6 7zM6 17h3c.6 0 1 .4 1 1s-.4 1-1 1H6c-.6 0-1-.4-1-1s.4-1 1-1z" transform="translate(38.337 10.663) scale(13.29594)"/><path d="M12 22c-1.148 0-3.418-1.362-5.13-3.34C4.44 15.854 3 11.967 3 7a1 1 0 0 1 .629-.929c3.274-1.31 5.88-2.613 7.816-3.903a1 1 0 0 1 1.11 0c1.935 1.29 4.543 2.594 7.816 3.903A1 1 0 0 1 21 7c0 4.968-1.44 8.855-3.87 11.66C15.419 20.637 13.149 22 12 22Z" fill="#000" style="fill:#e64539;fill-opacity:1" transform="translate(288.916 235.812) scale(9.40212)"/></g></svg>