<svg viewBox="0 0 512 512" style="height:512px;width:512px" xml:space="preserve" xmlns="http://www.w3.org/2000/svg"><defs><filter style="color-interpolation-filters:sRGB" id="a" x="-.081" y="-.16" width="1.162" height="1.32"><feFlood flood-opacity="1" flood-color="#3A3F5E" result="flood"/><feComposite in="flood" in2="SourceGraphic" operator="out" result="composite1"/><feGaussianBlur in="composite1" stdDeviation="15" result="blur"/><feOffset result="offset"/><feComposite in="offset" in2="SourceGraphic" operator="atop" result="composite2"/></filter></defs><path d="M0 0h512v512H0z" fill="#1b1f21" style="height:512px;width:512px"/><path style="height:512px;width:512px;fill:#e64539;stroke:none;stroke-width:1px;stroke-linecap:butt;stroke-linejoin:miter;stroke-opacity:1;fill-opacity:1;filter:url(#a)" d="m49.787 160.574-2.033 175.217-13.287 10.414.277 20.809 308.436 18.562 109.728-39.431-.137-23.92-8.779-2.245c-14.339-74.768 2.037-116.48 34.512-140.867l-10.662-13.564-105.67 43.023-17.211 18.643-20.342-17.377-274.832-49.264zm5.354 3.506 268.21 47.518-.345 11.422-268.174-48.916.309-10.024zm412.39 3.98 8.487 10.508-98.303 42.205-9.479-10.003 99.295-42.71zm-415.97 40.9 11.023 47.962 238.781 34.094-247.252-22.424-2.552-59.631zm389.837 15.415c-3.133 14.207-6.802 28.236-6.603 43.541 0 0-82.169 22.592-83.844 22.895l77.711-28.432c1.607-14.714 7.592-26.034 12.736-38.004zm-.168 97.635 8.006 2.226-108.449 39.233-300.18-15.658 14.266-12.01 284.03 18.345L441.23 322.01z"/></svg>