<svg version="1.2" id="Layer_1" x="0" y="0" viewBox="-421 153 512 512" xml:space="preserve" width="512" height="512" xmlns:xlink="http://www.w3.org/1999/xlink" xmlns="http://www.w3.org/2000/svg"><defs id="defs7"><filter style="color-interpolation-filters:sRGB" id="filter980" x="-.192" y="-.155" width="1.374" height="1.301"><feFlood flood-opacity="1" flood-color="#3A3F5E" result="flood" id="feFlood970"/><feComposite in="flood" in2="SourceGraphic" operator="out" result="composite1" id="feComposite972"/><feGaussianBlur in="composite1" stdDeviation="15" result="blur" id="feGaussianBlur974"/><feOffset dx="0" dy="0" result="offset" id="feOffset976"/><feComposite in="offset" in2="SourceGraphic" operator="atop" result="composite2" id="feComposite978"/></filter><filter style="color-interpolation-filters:sRGB" id="filter1066" x="-.059" y="-.048" width="1.119" height="1.096"><feFlood flood-opacity="1" flood-color="#3A3F5E" result="flood" id="feFlood1056"/><feComposite in="flood" in2="SourceGraphic" operator="out" result="composite1" id="feComposite1058"/><feGaussianBlur in="composite1" stdDeviation="9.788" result="blur" id="feGaussianBlur1060"/><feOffset dx="0" dy="0" result="offset" id="feOffset1062"/><feComposite in="offset" in2="SourceGraphic" operator="atop" result="composite2" id="feComposite1064"/></filter><filter style="color-interpolation-filters:sRGB" id="filter3800" x="-.061" y="-.061" width="1.123" height="1.123"><feFlood flood-opacity="1" flood-color="#3A3F5E" result="flood" id="feFlood3790"/><feComposite in="flood" in2="SourceGraphic" operator="out" result="composite1" id="feComposite3792"/><feGaussianBlur in="composite1" stdDeviation="12.098" result="blur" id="feGaussianBlur3794"/><feOffset dx="0" dy="0" result="offset" id="feOffset3796"/><feComposite in="offset" in2="SourceGraphic" operator="atop" result="composite2" id="feComposite3798"/></filter><filter style="color-interpolation-filters:sRGB" id="filter4260" x="-.057" y="-.057" width="1.113" height="1.113"><feFlood flood-opacity="1" flood-color="#3A3F5E" result="flood" id="feFlood4250"/><feComposite in="flood" in2="SourceGraphic" operator="out" result="composite1" id="feComposite4252"/><feGaussianBlur in="composite1" stdDeviation="12.1" result="blur" id="feGaussianBlur4254"/><feOffset dx="0" dy="0" result="offset" id="feOffset4256"/><feComposite in="offset" in2="SourceGraphic" operator="atop" result="composite2" id="feComposite4258"/></filter><filter style="color-interpolation-filters:sRGB" id="filter893" x="-.099" y="-.077" width="1.198" height="1.153"><feFlood flood-opacity="1" flood-color="#3A3F5E" result="flood" id="feFlood883"/><feComposite in="flood" in2="SourceGraphic" operator="out" result="composite1" id="feComposite885"/><feGaussianBlur in="composite1" stdDeviation="15" result="blur" id="feGaussianBlur887"/><feOffset dx="0" dy="0" result="offset" id="feOffset889"/><feComposite in="offset" in2="SourceGraphic" operator="atop" result="composite2" id="feComposite891"/></filter><filter style="color-interpolation-filters:sRGB" id="filter911" x="-.165" y="-.173" width="1.321" height="1.336"><feFlood flood-opacity="1" flood-color="#3A3F5E" result="flood" id="feFlood901"/><feComposite in="flood" in2="SourceGraphic" operator="out" result="composite1" id="feComposite903"/><feGaussianBlur in="composite1" stdDeviation="15" result="blur" id="feGaussianBlur905"/><feOffset dx="0" dy="0" result="offset" id="feOffset907"/><feComposite in="offset" in2="SourceGraphic" operator="atop" result="composite2" id="feComposite909"/></filter><filter style="color-interpolation-filters:sRGB" id="filter937" x="-.064" y="-.067" width="1.129" height="1.135"><feFlood flood-opacity="1" flood-color="#3A3F5E" result="flood" id="feFlood927"/><feComposite in="flood" in2="SourceGraphic" operator="out" result="composite1" id="feComposite929"/><feGaussianBlur in="composite1" stdDeviation="12.382" result="blur" id="feGaussianBlur931"/><feOffset dx="0" dy="0" result="offset" id="feOffset933"/><feComposite in="offset" in2="SourceGraphic" operator="atop" result="composite2" id="feComposite935"/></filter><filter style="color-interpolation-filters:sRGB" id="filter980-0" x="-.192" y="-.155" width="1.374" height="1.301"><feFlood flood-opacity="1" flood-color="#3A3F5E" result="flood" id="feFlood970-0"/><feComposite in="flood" in2="SourceGraphic" operator="out" result="composite1" id="feComposite972-4"/><feGaussianBlur in="composite1" stdDeviation="15" result="blur" id="feGaussianBlur974-6"/><feOffset dx="0" dy="0" result="offset" id="feOffset976-2"/><feComposite in="offset" in2="SourceGraphic" operator="atop" result="composite2" id="feComposite978-6"/></filter><filter style="color-interpolation-filters:sRGB" id="filter1066-7" x="-.059" y="-.048" width="1.119" height="1.096"><feFlood flood-opacity="1" flood-color="#3A3F5E" result="flood" id="feFlood1056-5"/><feComposite in="flood" in2="SourceGraphic" operator="out" result="composite1" id="feComposite1058-6"/><feGaussianBlur in="composite1" stdDeviation="9.788" result="blur" id="feGaussianBlur1060-9"/><feOffset dx="0" dy="0" result="offset" id="feOffset1062-8"/><feComposite in="offset" in2="SourceGraphic" operator="atop" result="composite2" id="feComposite1064-7"/></filter><filter style="color-interpolation-filters:sRGB" id="filter3800-2" x="-.061" y="-.061" width="1.123" height="1.123"><feFlood flood-opacity="1" flood-color="#3A3F5E" result="flood" id="feFlood3790-8"/><feComposite in="flood" in2="SourceGraphic" operator="out" result="composite1" id="feComposite3792-2"/><feGaussianBlur in="composite1" stdDeviation="12.098" result="blur" id="feGaussianBlur3794-9"/><feOffset dx="0" dy="0" result="offset" id="feOffset3796-9"/><feComposite in="offset" in2="SourceGraphic" operator="atop" result="composite2" id="feComposite3798-6"/></filter><filter style="color-interpolation-filters:sRGB" id="filter4260-0" x="-.057" y="-.057" width="1.113" height="1.113"><feFlood flood-opacity="1" flood-color="#3A3F5E" result="flood" id="feFlood4250-2"/><feComposite in="flood" in2="SourceGraphic" operator="out" result="composite1" id="feComposite4252-7"/><feGaussianBlur in="composite1" stdDeviation="12.1" result="blur" id="feGaussianBlur4254-6"/><feOffset dx="0" dy="0" result="offset" id="feOffset4256-1"/><feComposite in="offset" in2="SourceGraphic" operator="atop" result="composite2" id="feComposite4258-3"/></filter><filter style="color-interpolation-filters:sRGB" id="filter893-2" x="-.099" y="-.077" width="1.198" height="1.153"><feFlood flood-opacity="1" flood-color="#3A3F5E" result="flood" id="feFlood883-1"/><feComposite in="flood" in2="SourceGraphic" operator="out" result="composite1" id="feComposite885-5"/><feGaussianBlur in="composite1" stdDeviation="15" result="blur" id="feGaussianBlur887-9"/><feOffset dx="0" dy="0" result="offset" id="feOffset889-9"/><feComposite in="offset" in2="SourceGraphic" operator="atop" result="composite2" id="feComposite891-1"/></filter><filter style="color-interpolation-filters:sRGB" id="filter1024" x="-.167" y="-.347" width="1.325" height="1.676"><feFlood flood-opacity="1" flood-color="#3A3F5E" result="flood" id="feFlood1014"/><feComposite in="flood" in2="SourceGraphic" operator="out" result="composite1" id="feComposite1016"/><feGaussianBlur in="composite1" stdDeviation="15" result="blur" id="feGaussianBlur1018"/><feOffset dx="0" dy="0" result="offset" id="feOffset1020"/><feComposite in="offset" in2="SourceGraphic" operator="atop" result="composite2" id="feComposite1022"/></filter><filter style="color-interpolation-filters:sRGB" id="filter1157" x="-.054" y="-.113" width="1.109" height="1.227"><feFlood flood-opacity="1" flood-color="#3A3F5E" result="flood" id="feFlood1147"/><feComposite in="flood" in2="SourceGraphic" operator="out" result="composite1" id="feComposite1149"/><feGaussianBlur in="composite1" stdDeviation="10.341" result="blur" id="feGaussianBlur1151"/><feOffset dx="0" dy="0" result="offset" id="feOffset1153"/><feComposite in="offset" in2="SourceGraphic" operator="atop" result="composite2" id="feComposite1155"/></filter><filter style="color-interpolation-filters:sRGB" id="filter6484" x="-.061" y="-.078" width="1.122" height="1.156"><feFlood flood-opacity="1" flood-color="#3A3F5E" result="flood" id="feFlood6474"/><feComposite in="flood" in2="SourceGraphic" operator="out" result="composite1" id="feComposite6476"/><feGaussianBlur in="composite1" stdDeviation="13" result="blur" id="feGaussianBlur6478"/><feOffset dx="0" dy="0" result="offset" id="feOffset6480"/><feComposite in="offset" in2="SourceGraphic" operator="atop" result="composite2" id="feComposite6482"/></filter><filter style="color-interpolation-filters:sRGB" id="filter1024-1" x="-.167" y="-.347" width="1.325" height="1.676"><feFlood flood-opacity="1" flood-color="#3A3F5E" result="flood" id="feFlood1014-2"/><feComposite in="flood" in2="SourceGraphic" operator="out" result="composite1" id="feComposite1016-0"/><feGaussianBlur in="composite1" stdDeviation="15" result="blur" id="feGaussianBlur1018-7"/><feOffset dx="0" dy="0" result="offset" id="feOffset1020-3"/><feComposite in="offset" in2="SourceGraphic" operator="atop" result="composite2" id="feComposite1022-1"/></filter><filter style="color-interpolation-filters:sRGB" id="filter1157-1" x="-.054" y="-.113" width="1.109" height="1.227"><feFlood flood-opacity="1" flood-color="#3A3F5E" result="flood" id="feFlood1147-9"/><feComposite in="flood" in2="SourceGraphic" operator="out" result="composite1" id="feComposite1149-0"/><feGaussianBlur in="composite1" stdDeviation="10.341" result="blur" id="feGaussianBlur1151-5"/><feOffset dx="0" dy="0" result="offset" id="feOffset1153-6"/><feComposite in="offset" in2="SourceGraphic" operator="atop" result="composite2" id="feComposite1155-7"/></filter><filter style="color-interpolation-filters:sRGB" id="filter950" x="-.23" y="-.165" width="1.447" height="1.322"><feFlood flood-opacity="1" flood-color="#3A3F5E" result="flood" id="feFlood940"/><feComposite in="flood" in2="SourceGraphic" operator="out" result="composite1" id="feComposite942"/><feGaussianBlur in="composite1" stdDeviation="15" result="blur" id="feGaussianBlur944"/><feOffset dx="0" dy="0" result="offset" id="feOffset946"/><feComposite in="offset" in2="SourceGraphic" operator="atop" result="composite2" id="feComposite948"/></filter><filter style="color-interpolation-filters:sRGB" id="filter989" x="-.109" y="-.078" width="1.218" height="1.157"><feFlood flood-opacity="1" flood-color="#3A3F5E" result="flood" id="feFlood979"/><feComposite in="flood" in2="SourceGraphic" operator="out" result="composite1" id="feComposite981"/><feGaussianBlur in="composite1" stdDeviation="15" result="blur" id="feGaussianBlur983"/><feOffset dx="0" dy="0" result="offset" id="feOffset985"/><feComposite in="offset" in2="SourceGraphic" operator="atop" result="composite2" id="feComposite987"/></filter><linearGradient id="linearGradient6446"><stop style="stop-color:#000;stop-opacity:1" offset="0" id="stop6442"/><stop style="stop-color:#000;stop-opacity:0" offset="1" id="stop6444"/></linearGradient><linearGradient xlink:href="#linearGradient6446" id="linearGradient6448" x1=".001" y1="256" x2="511.999" y2="256" gradientUnits="userSpaceOnUse"/></defs><g id="g439" transform="translate(-421 153)" style="fill:#1b1f21;fill-opacity:1"><g id="g1182" transform="translate(131.265 78.461)" style="fill:#1b1f21;fill-opacity:1"><g id="g541" transform="translate(26.047 -8.003)" style="fill:#1b1f21;fill-opacity:1"><g id="g319" transform="translate(-157.313 -70.459)" style="fill:#1b1f21;fill-opacity:1"><g id="g949" style="fill:#1b1f21;fill-opacity:1"><path d="M0 0h512v512H0Z" fill="#b90202" fill-opacity="1" id="path902" style="fill:#1b1f21;fill-opacity:1"/></g></g></g></g></g><style type="text/css" id="style4077">.st0{fill:#000}</style><g id="g4113" transform="translate(-403.478 170.522) scale(.93156)" style="fill:#e64539;fill-opacity:1;filter:url(#filter4260)"><path class="st0" d="M167.314 14.993C167.314 6.712 160.603 0 152.332 0h-5.514c-8.27 0-14.982 6.712-14.982 14.993V56.46h35.478z" id="path4079" style="fill:#e64539;fill-opacity:1"/><path class="st0" d="M238.261 14.993C238.261 6.712 231.549 0 223.279 0h-5.504c-8.271 0-14.982 6.712-14.982 14.993V56.46h35.468V14.993Z" id="path4081" style="fill:#e64539;fill-opacity:1"/><path class="st0" d="M309.207 14.993C309.207 6.712 302.496 0 294.225 0h-5.504c-8.271 0-14.982 6.712-14.982 14.993V56.46h35.468z" id="path4083" style="fill:#e64539;fill-opacity:1"/><path class="st0" d="M380.164 14.993C380.164 6.712 373.452 0 365.182 0h-5.514c-8.271 0-14.982 6.712-14.982 14.993V56.46h35.478V14.993Z" id="path4085" style="fill:#e64539;fill-opacity:1"/><path class="st0" d="M131.836 497.007c0 8.281 6.712 14.993 14.982 14.993h5.514c8.27 0 14.982-6.712 14.982-14.993V455.55h-35.478z" id="path4087" style="fill:#e64539;fill-opacity:1"/><path class="st0" d="M202.793 497.007c0 8.281 6.711 14.993 14.982 14.993h5.504c8.271 0 14.982-6.712 14.982-14.993V455.55h-35.468z" id="path4089" style="fill:#e64539;fill-opacity:1"/><path class="st0" d="M273.739 497.007c0 8.281 6.711 14.993 14.982 14.993h5.504c8.271 0 14.982-6.712 14.982-14.993V455.55h-35.468z" id="path4091" style="fill:#e64539;fill-opacity:1"/><path class="st0" d="M344.685 497.007c0 8.281 6.712 14.993 14.982 14.993h5.514c8.27 0 14.982-6.712 14.982-14.993V455.55h-35.478z" id="path4093" style="fill:#e64539;fill-opacity:1"/><path class="st0" d="M497.017 131.836h-41.466v35.478h41.466c8.272 0 14.982-6.711 14.982-14.992v-5.494c0-8.281-6.71-14.992-14.982-14.992z" id="path4095" style="fill:#e64539;fill-opacity:1"/><path class="st0" d="M497.017 202.792h-41.466v35.468h41.466c8.272 0 14.982-6.712 14.982-14.982v-5.493c0-8.281-6.71-14.993-14.982-14.993z" id="path4097" style="fill:#e64539;fill-opacity:1"/><path class="st0" d="M497.017 273.739h-41.466v35.468h41.466c8.272 0 14.982-6.712 14.982-14.993v-5.493c0-8.271-6.71-14.982-14.982-14.982z" id="path4099" style="fill:#e64539;fill-opacity:1"/><path class="st0" d="M497.017 344.685h-41.466v35.478h41.466c8.272 0 14.982-6.712 14.982-14.993v-5.493c0-8.28-6.71-14.992-14.982-14.992z" id="path4101" style="fill:#e64539;fill-opacity:1"/><path class="st0" d="M.001 146.828v5.494c0 8.281 6.712 14.992 14.982 14.992H56.46v-35.478H14.983c-8.27 0-14.982 6.711-14.982 14.992z" id="path4103" style="fill:#e64539;fill-opacity:1"/><path class="st0" d="M.001 217.786v5.493c0 8.27 6.712 14.982 14.982 14.982H56.46v-35.468H14.983c-8.27-.001-14.982 6.711-14.982 14.993z" id="path4105" style="fill:#e64539;fill-opacity:1"/><path class="st0" d="M.001 288.722v5.493c0 8.281 6.712 14.993 14.982 14.993H56.46V273.74H14.983c-8.27-.001-14.982 6.71-14.982 14.982z" id="path4107" style="fill:#e64539;fill-opacity:1"/><path class="st0" d="M.001 359.678v5.493c0 8.281 6.712 14.993 14.982 14.993H56.46v-35.478H14.983c-8.27-.001-14.982 6.711-14.982 14.992z" id="path4109" style="fill:#e64539;fill-opacity:1"/><path id="path4111" style="fill:#e64539;fill-opacity:1" class="st0" d="M78.627 78.627v354.754h354.754V78.627H78.627zM256 97.751c54.802 0 99.23 44.427 99.23 99.229v29.03h14.564v67.318a33.974 33.974 0 0 0-4.883.174c-8.733.98-16.995 5.49-24.4 14.396-4.701-9.742-11.898-17.889-20.233-24.065-8.743-6.482-18.742-10.8-28.396-12.523-11.033-1.969-21.815-.594-29.793 5.015-6.457 4.54-10.88 11.86-12.094 21.8a149.06 149.06 0 0 0-6.189-5.172c-.614-.485-1.227-.957-1.839-1.421-14.672-11.164-28.434-16.697-40.549-15.945-14.364.891-25.037 10.835-30.95 28.19-7.816-9.21-17.315-16.449-28.262-20.263V226.01h14.565v-29.03c0-54.802 44.427-99.23 99.229-99.23zm0 30.569c-37.92 0-68.658 30.74-68.658 68.66v29.072h137.316V196.98c0-37.92-30.739-68.66-68.658-68.66zm-52.598 155.26 11.932 51.544c-4.121-.881-8.598-2.57-13.377-5.114l-10.089-41.878-.933.05c3.716-2.8 7.905-4.312 12.467-4.602zm8.393.723c4.431.969 9.26 2.861 14.43 5.728l9.878 40.97c-3.684 2.872-7.843 4.435-12.378 4.779l-11.93-51.477zm73.631.252c.95.024 1.913.094 2.89.212a31.2 31.2 0 0 1 1.603.228l2.02 48.154c-4.013-1.87-8.24-4.423-12.635-7.664l-2.057-39.833c2.6-.81 5.33-1.168 8.18-1.097zm12.907 2.944c3.98 1.626 8.189 3.936 12.571 6.95l2.16 42.06c-2.841.612-5.82.724-8.936.346a32.977 32.977 0 0 1-3.747-.69l-2.048-48.666zm-29.175 2.476 1.462 28.399c-3.847-3.467-7.79-7.432-11.804-11.895l.014-.067-.526-.51c-.1-.113-.203-.22-.304-.335v-.457c3.18-6.759 6.922-11.762 11.158-15.135zm-84.07 4.24 7.164 29.734c-4.763-3.392-9.765-7.538-14.957-12.463 1.986-7.204 4.62-12.926 7.793-17.272zm50.885 2.113c.545.398 1.09.8 1.64 1.218.476.361.953.739 1.434 1.117 3.368 2.653 6.858 5.713 10.416 9.079-1.79 6.55-4.101 11.878-6.865 16.07l-6.625-27.484zm-93.767 2.583 16.573 40.366a24.97 24.97 0 0 1-.549.715c-3.322 4.194-7.195 6.837-11.716 8.076l-4.308-10.743v-38.414zm177.339 2.224c4.854 4.165 9.887 9.162 15.007 14.928-3.716 8.063-8.213 13.664-13.37 17.044l-1.637-31.972zm45.392.724-7.17 30.021c-4.2-4.45-8.46-9.496-12.725-15.173 6.518-9.068 13.242-13.424 19.895-14.848zm-212.69 1.06c4.846 2.683 10.016 6.132 15.454 10.395-.853 6.655-2.264 12.359-4.141 17.117l-11.314-27.512zm105.944 13.876c11.702 12.015 23.172 20.377 34.104 24.75l.004.164.602.08c3.968 1.537 7.864 2.552 11.674 3.013 14.15 1.714 26.098-4.676 34.365-18.04 6.036 14.2 17.553 24.912 29.934 33.133l.92-1.168v55.521H142.206v-63.423l6.633 5.242c6.5-1.528 12.082-5.116 16.38-10.54 4.511-5.696 7.724-13.347 9.652-22.847 15.366 20.297 35.766 29.942 52.785 28.416 16.496-1.48 29.12-13.67 30.535-34.301zm111.603 2.004v24.292a106.47 106.47 0 0 1-4.816-4.112l4.816-20.18z"/></g></svg>