<svg viewBox="0 0 512 512" style="height:512px;width:512px" xml:space="preserve" xmlns="http://www.w3.org/2000/svg"><defs><filter style="color-interpolation-filters:sRGB" id="a" x="-.165" y="-.126" width="1.33" height="1.253"><feFlood flood-opacity="1" flood-color="#3A3F5E" result="flood"/><feComposite in="flood" in2="SourceGraphic" operator="out" result="composite1"/><feGaussianBlur in="composite1" stdDeviation="26.985" result="blur"/><feOffset result="offset"/><feComposite in="offset" in2="SourceGraphic" operator="atop" result="composite2"/></filter></defs><path d="M0 0h512v512H0z" fill="#1b1f21" style="height:512px;width:512px"/><g style="fill:#000"><g style="fill:#e64539;fill-opacity:1;filter:url(#a)" transform="translate(57.703 57.702) scale(.7746)"><g style="fill:#e64539;fill-opacity:1"><path style="fill:#e64539;fill-opacity:1" d="M230.4 341.337h51.2v17.067h-51.2z"/><path d="M435.2 256.001h-8.533v-59.733a8.53 8.53 0 0 0 8.533-8.533 8.53 8.53 0 0 0-8.533-8.533v-8.533c0-9.412-7.654-17.067-17.067-17.067h-34.133v59.733a8.53 8.53 0 0 1-8.533 8.533 8.53 8.53 0 0 1-8.533-8.533v-59.733h-17.067v59.733a8.53 8.53 0 0 1-8.533 8.533 8.53 8.53 0 0 1-8.533-8.533v-59.733H187.734v59.733a8.53 8.53 0 0 1-8.533 8.533 8.53 8.53 0 0 1-8.533-8.533v-59.733H153.6v59.733a8.53 8.53 0 0 1-8.533 8.533 8.53 8.53 0 0 1-8.533-8.533v-59.733H102.4c-9.412 0-17.067 7.654-17.067 17.067v8.533a8.53 8.53 0 0 0-8.533 8.533 8.53 8.53 0 0 0 8.533 8.533v59.733H76.8c-9.412 0-17.067 7.654-17.067 17.067v170.667c0 9.404 7.654 17.067 17.067 17.067h136.533v34.133c0 9.404 7.654 17.067 17.067 17.067h51.2c9.412 0 17.067-7.663 17.067-17.067v-34.133H435.2c9.412 0 17.067-7.663 17.067-17.067V273.068c0-9.413-7.654-17.067-17.067-17.067zM230.4 494.934v-34.133h51.2l.009 34.133zm68.267-135.842c0 9.028-7.347 16.375-16.375 16.375H229.71c-9.028 0-16.375-7.347-16.375-16.375v-18.449c0-9.028 7.347-16.375 16.375-16.375h52.582c9.028 0 16.375 7.347 16.375 16.375zM384 51.2H128c-4.702 0-8.533 3.823-8.533 8.533 0 4.71 3.831 8.533 8.533 8.533h256c4.702 0 8.533-3.823 8.533-8.533.001-4.71-3.831-8.533-8.533-8.533Z" style="fill:#e64539;fill-opacity:1"/><path d="M426.667 0H85.334c-14.114 0-25.6 11.486-25.6 25.6v68.267c0 14.114 11.486 25.6 25.6 25.6h341.333c14.114 0 25.6-11.486 25.6-25.6V25.6c0-14.114-11.486-25.6-25.6-25.6ZM384 85.333H128c-14.114 0-25.6-11.486-25.6-25.6s11.486-25.6 25.6-25.6h256c14.114 0 25.6 11.486 25.6 25.6s-11.485 25.6-25.6 25.6z" style="fill:#e64539;fill-opacity:1"/></g></g></g></svg>