<svg viewBox="0 0 512 512" style="height:512px;width:512px" xml:space="preserve" xmlns="http://www.w3.org/2000/svg"><defs><filter style="color-interpolation-filters:sRGB" id="a" x="-.081" y="-.07" width="1.162" height="1.14"><feFlood flood-opacity="1" flood-color="#3A3F5E" result="flood"/><feComposite in="flood" in2="SourceGraphic" operator="out" result="composite1"/><feGaussianBlur in="composite1" stdDeviation="11.491" result="blur"/><feOffset result="offset"/><feComposite in="offset" in2="SourceGraphic" operator="atop" result="composite2"/></filter></defs><path d="M0 0h512v512H0z" fill="#1b1f21"/><path style="fill:#e64539;stroke-width:5.309;fill-opacity:1;filter:url(#a)" d="m277.232 58.53-42.468.003v56.65c-36.16 4.543-71.132 20.511-98.893 48.272-66.341 66.341-66.341 173.919 0 240.26 66.341 66.341 173.917 66.341 240.258 0 66.341-66.341 66.341-173.919 0-240.26-27.761-27.761-62.734-43.73-98.897-48.275V58.53zm-42.48 143.158.016 45.294c-3.124 1.802-6.13 3.902-8.8 6.57-16.585 16.586-16.585 43.48 0 60.065 16.586 16.585 43.48 16.585 60.065 0s16.585-43.479 0-60.064c-2.669-2.67-5.692-4.754-8.8-6.57l-.014-45.296c14.213 3.65 27.73 10.717 38.845 21.833 33.171 33.17 33.171 86.958 0 120.128-33.17 33.171-86.958 33.171-120.128 0-33.171-33.17-33.171-86.958 0-120.128 11.115-11.116 24.633-18.184 38.816-21.833zM256 261.06A22.94 22.94 0 0 1 278.94 284 22.94 22.94 0 0 1 256 306.94 22.94 22.94 0 0 1 233.06 284 22.94 22.94 0 0 1 256 261.06z"/></svg>