<svg viewBox="0 0 512 512" style="height:512px;width:512px" xml:space="preserve" xmlns="http://www.w3.org/2000/svg"><defs><filter style="color-interpolation-filters:sRGB" id="a" x="-.102" y="-.068" width="1.204" height="1.136"><feFlood flood-opacity="1" flood-color="#3A3F5E" result="flood"/><feComposite in="flood" in2="SourceGraphic" operator="out" result="composite1"/><feGaussianBlur in="composite1" stdDeviation="10.424" result="blur"/><feOffset result="offset"/><feComposite in="offset" in2="SourceGraphic" operator="atop" result="composite2"/></filter></defs><path d="M0 0h512v512H0z" fill="#1b1f21"/><path style="fill:#e64539;fill-opacity:1;stroke:none;stroke-width:1px;stroke-linecap:butt;stroke-linejoin:miter;stroke-opacity:1;filter:url(#a)" d="M285.665 71.734 133.3 72.85c1.89 104.15 7.69 209.868 111.054 354.638 10.95 10.568 22.585 20.217 53.086 4.53l69.94-32.72c13.097-8.661 13.512-29.184 7.892-44.093-58.033-82.828-87.328-175.467-89.607-283.47Zm-51.121 45.733 12.681.49c.318 86.107 33.467 168.099 87.704 247.445l-11.641 7.077c-79.657-117.456-84-186.104-88.744-255.012Zm-61.418.55 12.263.506c-.984 82.757 24.961 172.906 92.983 274.606l-11.381 7.851c-54.317-81.201-92.153-171.792-93.865-282.962Z"/></svg>