<svg viewBox="0 0 512 512" style="height:512px;width:512px" xml:space="preserve" xmlns="http://www.w3.org/2000/svg"><defs><filter style="color-interpolation-filters:sRGB" id="a" x="-.064" y="-.076" width="1.129" height="1.151"><feFlood flood-opacity="1" flood-color="#3A3F5E" result="flood"/><feComposite in="flood" in2="SourceGraphic" operator="out" result="composite1"/><feGaussianBlur in="composite1" stdDeviation="11.491" result="blur"/><feOffset result="offset"/><feComposite in="offset" in2="SourceGraphic" operator="atop" result="composite2"/></filter></defs><path d="M0 0h512v512H0z" fill="#1b1f21"/><g transform="translate(-4.534 -25.795)" style="fill:#e64539;fill-opacity:1;filter:url(#a)"><path style="fill:#e64539;fill-opacity:1" d="M11.7 5C9.6 5 7.8 6.2 7 8l-1.3 3H3c-.6 0-1 .4-1 1s.4 1 1 1h1c-1.2.9-2 2.4-2 4v4c0 .9.4 1.7 1 2.2V25c0 1.7 1.3 3 3 3h2c1.7 0 3-1.3 3-3v-1h10.362l.28-1.57c.128-.512.553-.866 1.04-.867l1.265-.002c-.038-.61.015-.005-.038-.623-.062-.726.394-1.398.8-1.938H23c-.6 0-1-.4-1-1s.4-1 1-1h3c.502 0 .863.28.968.722A3.227 3.227 0 0 1 30 19.178V17c0-1.6-.8-3.1-2-4h1c.6 0 1-.4 1-1s-.4-1-1-1h-2.8L25 8c-.8-1.8-2.6-3-4.6-3zm-.1 2h8.7c1.2 0 2.3.7 2.8 1.8l1.4 3.2h-17l1.4-3.2C9.4 7.7 10.4 7 11.6 7ZM6 17h3c.6 0 1 .4 1 1s-.4 1-1 1H6c-.6 0-1-.4-1-1s.4-1 1-1zm8.3 1h3.5c1.1 0 2.2.6 2.7 1.7l1.2 2.3H10.4l1.2-2.3c.5-1 1.5-1.7 2.7-1.7z" transform="translate(43.38 36.735) scale(13.28878)"/><path d="m510.28 445.86-73.03-292.13c-3.8-15.19-16.44-25.72-30.87-25.72h-60.25c3.57-10.05 5.88-20.72 5.88-32 0-53.02-42.98-96-96-96s-96 42.98-96 96c0 11.28 2.3 21.95 5.88 32h-60.25c-14.43 0-27.08 10.54-30.87 25.72L1.72 445.86C-6.61 479.17 16.38 512 48.03 512h415.95c31.64 0 54.63-32.83 46.3-66.14zM256 128c-17.64 0-32-14.36-32-32s14.36-32 32-32 32 14.36 32 32-14.36 32-32 32z" style="fill:#e64539;fill-opacity:1" transform="translate(313.622 283.097) scale(.36142)"/></g></svg>