<svg viewBox="0 0 512 512" style="height:512px;width:512px" xml:space="preserve" xmlns="http://www.w3.org/2000/svg"><defs><filter style="color-interpolation-filters:sRGB" id="a" x="-.06" y="-.073" width="1.12" height="1.145"><feFlood flood-opacity="1" flood-color="#3A3F5E" result="flood"/><feComposite in="flood" in2="SourceGraphic" operator="out" result="composite1"/><feGaussianBlur in="composite1" stdDeviation=".8" result="blur"/><feOffset result="offset"/><feComposite in="offset" in2="SourceGraphic" operator="atop" result="composite2"/></filter></defs><path d="M0 0h512v512H0z" fill="#1b1f21"/><g style="fill:#e64539;fill-opacity:1;filter:url(#a)" transform="translate(34.349 72.897) scale(13.85319)"><g style="fill:#e64539;fill-opacity:1"><path d="m31.094 11.061-10.991 4.016c-.547.198-1.103.837-1.103 1.417v9.193c0 .58.578.889 1.123.684l10.98-4.102c.545-.205.897-.845.897-1.425v-9.092c0-.58-.359-.891-.906-.691zM10.971 3.588 3.536 6.316c-.518.189-.617.66-.224 1.045l2.786 2.725c.396.385 1.133.525 1.642.314l7.55-3.146c.508-.211.58-.676.158-1.031l-2.771-2.334c-.421-.356-1.189-.491-1.706-.301Z" style="fill:#e64539;fill-opacity:1"/><path d="M16.223 7.816a1.822 1.822 0 0 1-.549.36l-7.551 3.147a2.363 2.363 0 0 1-.914.175c-.019 0-.035-.005-.053-.005-.668-.005-1.322-.267-1.759-.693L3.458 8.953S2 9.312 2 10.598v2.512c0 .549.655 1.211 1.143 1.467L18 22.307v-5.813c0-1.074.895-2.043 1.76-2.357l5.272-1.926z" style="fill:#e64539;fill-opacity:1"/><path d="M1 13.109v-2.512c0-1.319.939-2.081 1.708-2.429l-.095-.092c-.439-.428-.624-.982-.508-1.52.115-.538.512-.968 1.086-1.178l7.436-2.729c.266-.098.561-.147.875-.147.535 0 1.068.149 1.498.402V.752c0-.58-.359-.891-.906-.691L1.103 4.076C.556 4.275 0 4.914 0 5.494v9.193c0 .58.578.889 1.123.684l.932-.348C1.521 14.563 1 13.871 1 13.109Z" style="fill:#e64539;fill-opacity:1"/></g></g></svg>