<svg xml:space="preserve" width="512" height="512" xmlns="http://www.w3.org/2000/svg"><defs><filter style="color-interpolation-filters:sRGB" id="a" x="-.154" y="-.154" width="1.3" height="1.3"><feFlood flood-opacity="1" flood-color="#3A3F5E" result="flood"/><feComposite in="flood" in2="SourceGraphic" operator="out" result="composite1"/><feGaussianBlur in="composite1" stdDeviation="15" result="blur"/><feOffset result="offset"/><feComposite in="offset" in2="SourceGraphic" operator="atop" result="composite2"/></filter><filter style="color-interpolation-filters:sRGB" id="b" x="-.054" y="-.054" width="1.107" height="1.107"><feFlood flood-opacity="1" flood-color="#3A3F5E" result="flood"/><feComposite in="flood" in2="SourceGraphic" operator="out" result="composite1"/><feGaussianBlur in="composite1" stdDeviation="10.287" result="blur"/><feOffset result="offset"/><feComposite in="offset" in2="SourceGraphic" operator="atop" result="composite2"/></filter></defs><path d="M0 0h512v512H0Z" fill="#b90202" style="fill:#1b1f21;fill-opacity:1"/><g style="fill:#e64539;fill-opacity:1;stroke:#e64539;stroke-opacity:1;stroke-width:5.47709495;stroke-miterlimit:4;stroke-dasharray:none;filter:url(#a)"><g style="fill:#e64539;fill-opacity:1;stroke:#e64539;stroke-opacity:1;stroke-width:5.47709495;stroke-miterlimit:4;stroke-dasharray:none"><path d="M256 80.065c-97.013 0-175.938 78.925-175.938 175.936 0 97.013 78.926 175.938 175.938 175.938 36.643 0 71.79-11.204 101.64-32.399 29.185-20.725 51.133-49.337 63.471-82.746a8.082 8.082 0 0 0-4.782-10.384 8.083 8.083 0 0 0-10.384 4.783c-23.101 62.551-83.359 104.578-149.944 104.578-88.097 0-159.77-71.672-159.77-159.77 0-88.096 71.672-159.768 159.77-159.768 88.098 0 159.77 71.671 159.77 159.768 0 9.89-.914 19.788-2.714 29.423a8.085 8.085 0 0 0 15.893 2.973 176.744 176.744 0 0 0 2.99-32.396C431.938 158.989 353.013 80.065 256 80.065Z" style="fill:#e64539;fill-opacity:1;stroke:#e64539;stroke-opacity:1;stroke-width:5.47709495;stroke-miterlimit:4;stroke-dasharray:none" transform="translate(22.3 22.3) scale(.9129)"/><path d="M282.08 129.07a129.654 129.654 0 0 0-26.08-2.637c-8.93 0-17.654.909-26.08 2.637-58.988 12.102-103.49 64.417-103.49 126.931 0 71.445 58.124 129.569 129.569 129.569 49.757 0 93.045-28.197 114.746-69.446l.049-.091c9.429-17.958 14.776-38.382 14.776-60.033-.001-62.513-44.501-114.827-103.49-126.93Zm-8.793 82.095h86.864a112.603 112.603 0 0 1 9.076 38.606h-131.18a8.082 8.082 0 0 0-8.084 8.084 8.082 8.082 0 0 0 8.084 8.084H368.96a112.48 112.48 0 0 1-10.307 38.214h-46.416a8.083 8.083 0 0 0-8.084 8.084 8.083 8.083 0 0 0 8.084 8.084h37.102c-20.478 29.628-54.677 49.081-93.339 49.081-62.53 0-113.401-50.871-113.401-113.401 0-62.529 50.871-113.399 113.401-113.399 40.088 0 75.385 20.91 95.556 52.394h-78.269a8.082 8.082 0 0 0-8.084 8.084 8.084 8.084 0 0 0 8.084 8.085z" style="fill:#e64539;fill-opacity:1;stroke:#e64539;stroke-opacity:1;stroke-width:5.47709495;stroke-miterlimit:4;stroke-dasharray:none" transform="translate(22.3 22.3) scale(.9129)"/><path d="M271.434 320.322h6.491a8.084 8.084 0 0 0 0-16.168h-6.491a8.083 8.083 0 0 0-8.084 8.084 8.084 8.084 0 0 0 8.084 8.084z" style="fill:#e64539;fill-opacity:1;stroke:#e64539;stroke-opacity:1;stroke-width:5.47709495;stroke-miterlimit:4;stroke-dasharray:none" transform="translate(22.3 22.3) scale(.9129)"/><path d="M437.018 74.982C388.667 26.628 324.379 0 256 0S123.333 26.628 74.982 74.982C26.628 123.334 0 187.622 0 256.001S26.628 388.668 74.982 437.02C123.333 485.372 187.619 512 256 512s132.667-26.628 181.018-74.979C485.372 388.668 512 324.382 512 256.001c0-68.381-26.628-132.667-74.982-181.019ZM256 495.832c-132.244 0-239.832-107.587-239.832-239.83S123.756 16.168 256 16.168s239.832 107.589 239.832 239.833S388.243 495.832 256 495.832z" style="fill:#e64539;fill-opacity:1;stroke:#e64539;stroke-opacity:1;stroke-width:5.47709495;stroke-miterlimit:4;stroke-dasharray:none" transform="translate(22.3 22.3) scale(.9129)"/></g></g><g style="fill:#e64539;fill-opacity:1;stroke:#e64539;stroke-opacity:1;stroke-width:5.47709495;stroke-miterlimit:4;stroke-dasharray:none;filter:url(#b)"><g style="fill:#e64539;fill-opacity:1;stroke:#e64539;stroke-opacity:1;stroke-width:5.47709495;stroke-miterlimit:4;stroke-dasharray:none"><path d="M256 80.065c-97.013 0-175.938 78.925-175.938 175.936 0 97.013 78.926 175.938 175.938 175.938 36.643 0 71.79-11.204 101.64-32.399 29.185-20.725 51.133-49.337 63.471-82.746a8.082 8.082 0 0 0-4.782-10.384 8.083 8.083 0 0 0-10.384 4.783c-23.101 62.551-83.359 104.578-149.944 104.578-88.097 0-159.77-71.672-159.77-159.77 0-88.096 71.672-159.768 159.77-159.768 88.098 0 159.77 71.671 159.77 159.768 0 9.89-.914 19.788-2.714 29.423a8.085 8.085 0 0 0 15.893 2.973 176.744 176.744 0 0 0 2.99-32.396C431.938 158.989 353.013 80.065 256 80.065Z" style="fill:#e64539;fill-opacity:1;stroke:#e64539;stroke-opacity:1;stroke-width:5.47709495;stroke-miterlimit:4;stroke-dasharray:none" transform="translate(22.3 22.3) scale(.9129)"/><path d="M282.08 129.07a129.654 129.654 0 0 0-26.08-2.637c-8.93 0-17.654.909-26.08 2.637-58.988 12.102-103.49 64.417-103.49 126.931 0 71.445 58.124 129.569 129.569 129.569 49.757 0 93.045-28.197 114.746-69.446l.049-.091c9.429-17.958 14.776-38.382 14.776-60.033-.001-62.513-44.501-114.827-103.49-126.93Zm-8.793 82.095h86.864a112.603 112.603 0 0 1 9.076 38.606h-131.18a8.082 8.082 0 0 0-8.084 8.084 8.082 8.082 0 0 0 8.084 8.084H368.96a112.48 112.48 0 0 1-10.307 38.214h-46.416a8.083 8.083 0 0 0-8.084 8.084 8.083 8.083 0 0 0 8.084 8.084h37.102c-20.478 29.628-54.677 49.081-93.339 49.081-62.53 0-113.401-50.871-113.401-113.401 0-62.529 50.871-113.399 113.401-113.399 40.088 0 75.385 20.91 95.556 52.394h-78.269a8.082 8.082 0 0 0-8.084 8.084 8.084 8.084 0 0 0 8.084 8.085z" style="fill:#e64539;fill-opacity:1;stroke:#e64539;stroke-opacity:1;stroke-width:5.47709495;stroke-miterlimit:4;stroke-dasharray:none" transform="translate(22.3 22.3) scale(.9129)"/><path d="M271.434 320.322h6.491a8.084 8.084 0 0 0 0-16.168h-6.491a8.083 8.083 0 0 0-8.084 8.084 8.084 8.084 0 0 0 8.084 8.084z" style="fill:#e64539;fill-opacity:1;stroke:#e64539;stroke-opacity:1;stroke-width:5.47709495;stroke-miterlimit:4;stroke-dasharray:none" transform="translate(22.3 22.3) scale(.9129)"/><path d="M437.018 74.982C388.667 26.628 324.379 0 256 0S123.333 26.628 74.982 74.982C26.628 123.334 0 187.622 0 256.001S26.628 388.668 74.982 437.02C123.333 485.372 187.619 512 256 512s132.667-26.628 181.018-74.979C485.372 388.668 512 324.382 512 256.001c0-68.381-26.628-132.667-74.982-181.019ZM256 495.832c-132.244 0-239.832-107.587-239.832-239.83S123.756 16.168 256 16.168s239.832 107.589 239.832 239.833S388.243 495.832 256 495.832z" style="fill:#e64539;fill-opacity:1;stroke:#e64539;stroke-opacity:1;stroke-width:5.47709495;stroke-miterlimit:4;stroke-dasharray:none" transform="translate(22.3 22.3) scale(.9129)"/></g></g></svg>