<svg version="1.2" id="Layer_1" x="0" y="0" viewBox="-421 153 512 512" xml:space="preserve" width="512" height="512" xmlns:xlink="http://www.w3.org/1999/xlink" xmlns="http://www.w3.org/2000/svg"><defs id="defs7"><filter style="color-interpolation-filters:sRGB" id="filter980" x="-.192" y="-.155" width="1.374" height="1.301"><feFlood flood-opacity="1" flood-color="#3A3F5E" result="flood" id="feFlood970"/><feComposite in="flood" in2="SourceGraphic" operator="out" result="composite1" id="feComposite972"/><feGaussianBlur in="composite1" stdDeviation="15" result="blur" id="feGaussianBlur974"/><feOffset dx="0" dy="0" result="offset" id="feOffset976"/><feComposite in="offset" in2="SourceGraphic" operator="atop" result="composite2" id="feComposite978"/></filter><filter style="color-interpolation-filters:sRGB" id="filter1066" x="-.059" y="-.048" width="1.119" height="1.096"><feFlood flood-opacity="1" flood-color="#3A3F5E" result="flood" id="feFlood1056"/><feComposite in="flood" in2="SourceGraphic" operator="out" result="composite1" id="feComposite1058"/><feGaussianBlur in="composite1" stdDeviation="9.788" result="blur" id="feGaussianBlur1060"/><feOffset dx="0" dy="0" result="offset" id="feOffset1062"/><feComposite in="offset" in2="SourceGraphic" operator="atop" result="composite2" id="feComposite1064"/></filter><filter style="color-interpolation-filters:sRGB" id="filter3800" x="-.061" y="-.061" width="1.123" height="1.123"><feFlood flood-opacity="1" flood-color="#3A3F5E" result="flood" id="feFlood3790"/><feComposite in="flood" in2="SourceGraphic" operator="out" result="composite1" id="feComposite3792"/><feGaussianBlur in="composite1" stdDeviation="12.098" result="blur" id="feGaussianBlur3794"/><feOffset dx="0" dy="0" result="offset" id="feOffset3796"/><feComposite in="offset" in2="SourceGraphic" operator="atop" result="composite2" id="feComposite3798"/></filter><filter style="color-interpolation-filters:sRGB" id="filter4260" x="-.057" y="-.057" width="1.113" height="1.113"><feFlood flood-opacity="1" flood-color="#3A3F5E" result="flood" id="feFlood4250"/><feComposite in="flood" in2="SourceGraphic" operator="out" result="composite1" id="feComposite4252"/><feGaussianBlur in="composite1" stdDeviation="12.1" result="blur" id="feGaussianBlur4254"/><feOffset dx="0" dy="0" result="offset" id="feOffset4256"/><feComposite in="offset" in2="SourceGraphic" operator="atop" result="composite2" id="feComposite4258"/></filter><filter style="color-interpolation-filters:sRGB" id="filter893" x="-.099" y="-.077" width="1.198" height="1.153"><feFlood flood-opacity="1" flood-color="#3A3F5E" result="flood" id="feFlood883"/><feComposite in="flood" in2="SourceGraphic" operator="out" result="composite1" id="feComposite885"/><feGaussianBlur in="composite1" stdDeviation="15" result="blur" id="feGaussianBlur887"/><feOffset dx="0" dy="0" result="offset" id="feOffset889"/><feComposite in="offset" in2="SourceGraphic" operator="atop" result="composite2" id="feComposite891"/></filter><filter style="color-interpolation-filters:sRGB" id="filter911" x="-.165" y="-.173" width="1.321" height="1.336"><feFlood flood-opacity="1" flood-color="#3A3F5E" result="flood" id="feFlood901"/><feComposite in="flood" in2="SourceGraphic" operator="out" result="composite1" id="feComposite903"/><feGaussianBlur in="composite1" stdDeviation="15" result="blur" id="feGaussianBlur905"/><feOffset dx="0" dy="0" result="offset" id="feOffset907"/><feComposite in="offset" in2="SourceGraphic" operator="atop" result="composite2" id="feComposite909"/></filter><filter style="color-interpolation-filters:sRGB" id="filter937" x="-.064" y="-.067" width="1.129" height="1.135"><feFlood flood-opacity="1" flood-color="#3A3F5E" result="flood" id="feFlood927"/><feComposite in="flood" in2="SourceGraphic" operator="out" result="composite1" id="feComposite929"/><feGaussianBlur in="composite1" stdDeviation="12.382" result="blur" id="feGaussianBlur931"/><feOffset dx="0" dy="0" result="offset" id="feOffset933"/><feComposite in="offset" in2="SourceGraphic" operator="atop" result="composite2" id="feComposite935"/></filter><filter style="color-interpolation-filters:sRGB" id="filter980-0" x="-.192" y="-.155" width="1.374" height="1.301"><feFlood flood-opacity="1" flood-color="#3A3F5E" result="flood" id="feFlood970-0"/><feComposite in="flood" in2="SourceGraphic" operator="out" result="composite1" id="feComposite972-4"/><feGaussianBlur in="composite1" stdDeviation="15" result="blur" id="feGaussianBlur974-6"/><feOffset dx="0" dy="0" result="offset" id="feOffset976-2"/><feComposite in="offset" in2="SourceGraphic" operator="atop" result="composite2" id="feComposite978-6"/></filter><filter style="color-interpolation-filters:sRGB" id="filter1066-7" x="-.059" y="-.048" width="1.119" height="1.096"><feFlood flood-opacity="1" flood-color="#3A3F5E" result="flood" id="feFlood1056-5"/><feComposite in="flood" in2="SourceGraphic" operator="out" result="composite1" id="feComposite1058-6"/><feGaussianBlur in="composite1" stdDeviation="9.788" result="blur" id="feGaussianBlur1060-9"/><feOffset dx="0" dy="0" result="offset" id="feOffset1062-8"/><feComposite in="offset" in2="SourceGraphic" operator="atop" result="composite2" id="feComposite1064-7"/></filter><filter style="color-interpolation-filters:sRGB" id="filter3800-2" x="-.061" y="-.061" width="1.123" height="1.123"><feFlood flood-opacity="1" flood-color="#3A3F5E" result="flood" id="feFlood3790-8"/><feComposite in="flood" in2="SourceGraphic" operator="out" result="composite1" id="feComposite3792-2"/><feGaussianBlur in="composite1" stdDeviation="12.098" result="blur" id="feGaussianBlur3794-9"/><feOffset dx="0" dy="0" result="offset" id="feOffset3796-9"/><feComposite in="offset" in2="SourceGraphic" operator="atop" result="composite2" id="feComposite3798-6"/></filter><filter style="color-interpolation-filters:sRGB" id="filter4260-0" x="-.057" y="-.057" width="1.113" height="1.113"><feFlood flood-opacity="1" flood-color="#3A3F5E" result="flood" id="feFlood4250-2"/><feComposite in="flood" in2="SourceGraphic" operator="out" result="composite1" id="feComposite4252-7"/><feGaussianBlur in="composite1" stdDeviation="12.1" result="blur" id="feGaussianBlur4254-6"/><feOffset dx="0" dy="0" result="offset" id="feOffset4256-1"/><feComposite in="offset" in2="SourceGraphic" operator="atop" result="composite2" id="feComposite4258-3"/></filter><filter style="color-interpolation-filters:sRGB" id="filter893-2" x="-.099" y="-.077" width="1.198" height="1.153"><feFlood flood-opacity="1" flood-color="#3A3F5E" result="flood" id="feFlood883-1"/><feComposite in="flood" in2="SourceGraphic" operator="out" result="composite1" id="feComposite885-5"/><feGaussianBlur in="composite1" stdDeviation="15" result="blur" id="feGaussianBlur887-9"/><feOffset dx="0" dy="0" result="offset" id="feOffset889-9"/><feComposite in="offset" in2="SourceGraphic" operator="atop" result="composite2" id="feComposite891-1"/></filter><filter style="color-interpolation-filters:sRGB" id="filter1024" x="-.167" y="-.347" width="1.325" height="1.676"><feFlood flood-opacity="1" flood-color="#3A3F5E" result="flood" id="feFlood1014"/><feComposite in="flood" in2="SourceGraphic" operator="out" result="composite1" id="feComposite1016"/><feGaussianBlur in="composite1" stdDeviation="15" result="blur" id="feGaussianBlur1018"/><feOffset dx="0" dy="0" result="offset" id="feOffset1020"/><feComposite in="offset" in2="SourceGraphic" operator="atop" result="composite2" id="feComposite1022"/></filter><filter style="color-interpolation-filters:sRGB" id="filter1157" x="-.054" y="-.113" width="1.109" height="1.227"><feFlood flood-opacity="1" flood-color="#3A3F5E" result="flood" id="feFlood1147"/><feComposite in="flood" in2="SourceGraphic" operator="out" result="composite1" id="feComposite1149"/><feGaussianBlur in="composite1" stdDeviation="10.341" result="blur" id="feGaussianBlur1151"/><feOffset dx="0" dy="0" result="offset" id="feOffset1153"/><feComposite in="offset" in2="SourceGraphic" operator="atop" result="composite2" id="feComposite1155"/></filter><filter style="color-interpolation-filters:sRGB" id="filter6484" x="-.061" y="-.078" width="1.122" height="1.156"><feFlood flood-opacity="1" flood-color="#3A3F5E" result="flood" id="feFlood6474"/><feComposite in="flood" in2="SourceGraphic" operator="out" result="composite1" id="feComposite6476"/><feGaussianBlur in="composite1" stdDeviation="13" result="blur" id="feGaussianBlur6478"/><feOffset dx="0" dy="0" result="offset" id="feOffset6480"/><feComposite in="offset" in2="SourceGraphic" operator="atop" result="composite2" id="feComposite6482"/></filter><filter style="color-interpolation-filters:sRGB" id="filter1024-1" x="-.167" y="-.347" width="1.325" height="1.676"><feFlood flood-opacity="1" flood-color="#3A3F5E" result="flood" id="feFlood1014-2"/><feComposite in="flood" in2="SourceGraphic" operator="out" result="composite1" id="feComposite1016-0"/><feGaussianBlur in="composite1" stdDeviation="15" result="blur" id="feGaussianBlur1018-7"/><feOffset dx="0" dy="0" result="offset" id="feOffset1020-3"/><feComposite in="offset" in2="SourceGraphic" operator="atop" result="composite2" id="feComposite1022-1"/></filter><filter style="color-interpolation-filters:sRGB" id="filter1157-1" x="-.054" y="-.113" width="1.109" height="1.227"><feFlood flood-opacity="1" flood-color="#3A3F5E" result="flood" id="feFlood1147-9"/><feComposite in="flood" in2="SourceGraphic" operator="out" result="composite1" id="feComposite1149-0"/><feGaussianBlur in="composite1" stdDeviation="10.341" result="blur" id="feGaussianBlur1151-5"/><feOffset dx="0" dy="0" result="offset" id="feOffset1153-6"/><feComposite in="offset" in2="SourceGraphic" operator="atop" result="composite2" id="feComposite1155-7"/></filter><filter style="color-interpolation-filters:sRGB" id="filter950" x="-.23" y="-.165" width="1.447" height="1.322"><feFlood flood-opacity="1" flood-color="#3A3F5E" result="flood" id="feFlood940"/><feComposite in="flood" in2="SourceGraphic" operator="out" result="composite1" id="feComposite942"/><feGaussianBlur in="composite1" stdDeviation="15" result="blur" id="feGaussianBlur944"/><feOffset dx="0" dy="0" result="offset" id="feOffset946"/><feComposite in="offset" in2="SourceGraphic" operator="atop" result="composite2" id="feComposite948"/></filter><filter style="color-interpolation-filters:sRGB" id="filter989" x="-.109" y="-.078" width="1.218" height="1.157"><feFlood flood-opacity="1" flood-color="#3A3F5E" result="flood" id="feFlood979"/><feComposite in="flood" in2="SourceGraphic" operator="out" result="composite1" id="feComposite981"/><feGaussianBlur in="composite1" stdDeviation="15" result="blur" id="feGaussianBlur983"/><feOffset dx="0" dy="0" result="offset" id="feOffset985"/><feComposite in="offset" in2="SourceGraphic" operator="atop" result="composite2" id="feComposite987"/></filter><linearGradient id="linearGradient6446"><stop style="stop-color:#000;stop-opacity:1" offset="0" id="stop6442"/><stop style="stop-color:#000;stop-opacity:0" offset="1" id="stop6444"/></linearGradient><linearGradient xlink:href="#linearGradient6446" id="linearGradient6448" x1=".001" y1="256" x2="511.999" y2="256" gradientUnits="userSpaceOnUse"/></defs><g id="g439" transform="translate(-421 153)" style="fill:#1b1f21;fill-opacity:1"><g id="g1182" transform="translate(131.265 78.461)" style="fill:#1b1f21;fill-opacity:1"><g id="g541" transform="translate(26.047 -8.003)" style="fill:#1b1f21;fill-opacity:1"><g id="g319" transform="translate(-157.313 -70.459)" style="fill:#1b1f21;fill-opacity:1"><g id="g949" style="fill:#1b1f21;fill-opacity:1"><path d="M0 0h512v512H0Z" fill="#b90202" fill-opacity="1" id="path902" style="fill:#1b1f21;fill-opacity:1"/></g></g></g></g></g><style type="text/css" id="style4077">.st0{fill:#000}</style><g id="g4113" transform="translate(-403.478 170.522) scale(.93156)" style="fill:#e64539;fill-opacity:1;filter:url(#filter4260)"><path class="st0" d="M167.314 14.993C167.314 6.712 160.603 0 152.332 0h-5.514c-8.27 0-14.982 6.712-14.982 14.993V56.46h35.478z" id="path4079" style="fill:#e64539;fill-opacity:1"/><path class="st0" d="M238.261 14.993C238.261 6.712 231.549 0 223.279 0h-5.504c-8.271 0-14.982 6.712-14.982 14.993V56.46h35.468V14.993Z" id="path4081" style="fill:#e64539;fill-opacity:1"/><path class="st0" d="M309.207 14.993C309.207 6.712 302.496 0 294.225 0h-5.504c-8.271 0-14.982 6.712-14.982 14.993V56.46h35.468z" id="path4083" style="fill:#e64539;fill-opacity:1"/><path class="st0" d="M380.164 14.993C380.164 6.712 373.452 0 365.182 0h-5.514c-8.271 0-14.982 6.712-14.982 14.993V56.46h35.478V14.993Z" id="path4085" style="fill:#e64539;fill-opacity:1"/><path class="st0" d="M131.836 497.007c0 8.281 6.712 14.993 14.982 14.993h5.514c8.27 0 14.982-6.712 14.982-14.993V455.55h-35.478z" id="path4087" style="fill:#e64539;fill-opacity:1"/><path class="st0" d="M202.793 497.007c0 8.281 6.711 14.993 14.982 14.993h5.504c8.271 0 14.982-6.712 14.982-14.993V455.55h-35.468z" id="path4089" style="fill:#e64539;fill-opacity:1"/><path class="st0" d="M273.739 497.007c0 8.281 6.711 14.993 14.982 14.993h5.504c8.271 0 14.982-6.712 14.982-14.993V455.55h-35.468z" id="path4091" style="fill:#e64539;fill-opacity:1"/><path class="st0" d="M344.685 497.007c0 8.281 6.712 14.993 14.982 14.993h5.514c8.27 0 14.982-6.712 14.982-14.993V455.55h-35.478z" id="path4093" style="fill:#e64539;fill-opacity:1"/><path class="st0" d="M497.017 131.836h-41.466v35.478h41.466c8.272 0 14.982-6.711 14.982-14.992v-5.494c0-8.281-6.71-14.992-14.982-14.992z" id="path4095" style="fill:#e64539;fill-opacity:1"/><path class="st0" d="M497.017 202.792h-41.466v35.468h41.466c8.272 0 14.982-6.712 14.982-14.982v-5.493c0-8.281-6.71-14.993-14.982-14.993z" id="path4097" style="fill:#e64539;fill-opacity:1"/><path class="st0" d="M497.017 273.739h-41.466v35.468h41.466c8.272 0 14.982-6.712 14.982-14.993v-5.493c0-8.271-6.71-14.982-14.982-14.982z" id="path4099" style="fill:#e64539;fill-opacity:1"/><path class="st0" d="M497.017 344.685h-41.466v35.478h41.466c8.272 0 14.982-6.712 14.982-14.993v-5.493c0-8.28-6.71-14.992-14.982-14.992z" id="path4101" style="fill:#e64539;fill-opacity:1"/><path class="st0" d="M.001 146.828v5.494c0 8.281 6.712 14.992 14.982 14.992H56.46v-35.478H14.983c-8.27 0-14.982 6.711-14.982 14.992z" id="path4103" style="fill:#e64539;fill-opacity:1"/><path class="st0" d="M.001 217.786v5.493c0 8.27 6.712 14.982 14.982 14.982H56.46v-35.468H14.983c-8.27-.001-14.982 6.711-14.982 14.993z" id="path4105" style="fill:#e64539;fill-opacity:1"/><path class="st0" d="M.001 288.722v5.493c0 8.281 6.712 14.993 14.982 14.993H56.46V273.74H14.983c-8.27-.001-14.982 6.71-14.982 14.982z" id="path4107" style="fill:#e64539;fill-opacity:1"/><path class="st0" d="M.001 359.678v5.493c0 8.281 6.712 14.993 14.982 14.993H56.46v-35.478H14.983c-8.27-.001-14.982 6.711-14.982 14.992z" id="path4109" style="fill:#e64539;fill-opacity:1"/><path id="path4111" style="fill:#e64539;fill-opacity:1" class="st0" d="M78.627 78.627v354.754h354.754V78.627H78.627zm193.221 23.54a11.17 11.17 0 0 1 7.924 3.28c4.376 4.377 4.376 11.473 0 15.849L256 145.067l7.923 7.924c4.376 4.376 4.376 11.472 0 15.848l-47.54 47.543c-4.377 4.376-11.473 4.376-15.85 0l-7.922-7.925-39.62 39.62c-13.108 13.107-13.108 34.433 0 47.54 13.107 13.108 34.435 13.108 47.543 0l95.084-95.083c21.846-21.846 57.392-21.846 79.238 0 21.845 21.846 21.845 57.392 0 79.238l-39.618 39.617 7.923 7.926c4.376 4.376 4.376 11.47 0 15.846l-47.541 47.543c-4.376 4.376-11.472 4.376-15.848 0l-7.924-7.923-23.771 23.772c-4.376 4.376-11.472 4.376-15.849 0-4.376-4.377-4.376-11.473 0-15.849L256 366.933l-7.923-7.924c-4.376-4.376-4.376-11.472 0-15.848l47.54-47.543c4.377-4.376 11.473-4.376 15.85 0l7.922 7.925 39.62-39.62c13.108-13.108 13.108-34.433 0-47.54-13.107-13.108-34.435-13.109-47.543 0l-95.084 95.083c-21.846 21.846-57.392 21.846-79.238 0-21.846-21.846-21.846-57.392 0-79.238l39.618-39.617-7.923-7.924c-4.376-4.376-4.376-11.472 0-15.848l47.541-47.543c4.376-4.376 11.472-4.376 15.848 0l7.924 7.923 23.771-23.772a11.173 11.173 0 0 1 7.925-3.28zm-47.543 42.9-31.694 31.695 15.846 15.849 31.695-31.697-15.847-15.847zm79.238 174.325-31.695 31.694 15.847 15.847 31.694-31.695-15.846-15.846z"/></g></svg>