<svg xml:space="preserve" width="512" height="512" xmlns="http://www.w3.org/2000/svg"><defs><filter style="color-interpolation-filters:sRGB" id="a" x="-.055" y="-.049" width="1.11" height="1.098"><feFlood flood-opacity="1" flood-color="#3A3F5E" result="flood"/><feComposite in="flood" in2="SourceGraphic" operator="out" result="composite1"/><feGaussianBlur in="composite1" stdDeviation="9.472" result="blur"/><feOffset result="offset"/><feComposite in="offset" in2="SourceGraphic" operator="atop" result="composite2"/></filter></defs><path d="M0 0h512v512H0Z" fill="#b90202" style="fill:#1b1f21;fill-opacity:1"/><g style="fill:#fff;filter:url(#a)"><path style="fill:#e64539;stroke-width:1.12883;fill-opacity:1" d="M256 24.592c-24.292 0-44.053 19.761-44.053 44.053 0 3.982.54 7.841 1.535 11.513l-89.177 51.485c-7.936-7.704-18.748-12.46-30.655-12.46-24.292 0-44.052 19.764-44.052 44.055 0 20.426 13.973 37.644 32.859 42.61v100.304c-18.886 4.966-32.86 22.184-32.86 42.608 0 24.291 19.762 44.053 44.053 44.053 11.907 0 22.719-4.756 30.655-12.46l89.177 51.487a43.919 43.919 0 0 0-1.535 11.512c0 24.294 19.76 44.056 44.053 44.056 24.292 0 44.053-19.761 44.053-44.053 0-3.982-.54-7.841-1.535-11.513l89.177-51.487c7.936 7.704 18.748 12.46 30.655 12.46 24.292 0 44.052-19.762 44.052-44.053.001-20.424-13.972-37.642-32.859-42.608V205.852c18.887-4.966 32.86-22.186 32.86-42.612 0-24.291-19.762-44.054-44.053-44.054-11.907 0-22.72 4.755-30.655 12.459L298.518 80.16a43.987 43.987 0 0 0 1.535-11.514c0-24.293-19.76-44.054-44.053-44.054zm0 22.576c11.843 0 21.477 9.634 21.477 21.477 0 11.842-9.634 21.476-21.477 21.476s-21.477-9.635-21.477-21.476c0-11.843 9.635-21.477 21.477-21.477zm31.213 52.533 88.83 51.285a43.947 43.947 0 0 0-.264 23.576l-42.685 24.39c-15.38-20.73-38.908-35.047-65.805-38.216v-49.51a44.06 44.06 0 0 0 19.924-11.525zm-62.426.002a44.086 44.086 0 0 0 19.924 11.524v49.511c-26.897 3.169-50.426 17.485-65.805 38.213l-42.683-24.388a43.87 43.87 0 0 0-.266-23.574l88.83-51.286zM93.65 141.762c11.842 0 21.477 9.634 21.477 21.476 0 11.844-9.635 21.48-21.477 21.48-11.841.002-21.476-9.636-21.476-21.48 0-11.842 9.634-21.476 21.476-21.476zm324.7 0c11.842 0 21.476 9.634 21.476 21.476 0 11.844-9.634 21.48-21.476 21.48-11.842 0-21.477-9.636-21.477-21.48 0-11.842 9.635-21.476 21.477-21.476zM256 182.627c40.458 0 73.373 32.915 73.373 73.373 0 40.458-32.915 73.373-73.373 73.373-40.458 0-73.373-32.915-73.373-73.373 0-40.458 32.915-73.373 73.373-73.373zm-131 11.525 42.672 24.381c-4.904 11.518-7.621 24.18-7.621 37.467 0 13.286 2.717 25.95 7.62 37.467l-42.673 24.383a44.058 44.058 0 0 0-19.963-11.641V205.797A44.05 44.05 0 0 0 125 194.152zm262 0a44.064 44.064 0 0 0 19.967 11.643v100.412a44.078 44.078 0 0 0-19.965 11.64l-42.674-24.382c4.904-11.516 7.621-24.179 7.621-37.465 0-13.286-2.717-25.95-7.62-37.467L387 194.153zm-148.8 4.881-.003.002c-6.653 0-12.17 4.563-13.75 10.727-.177 0-.312-.047-.49-.047-7.855 0-14.242 6.387-14.242 14.242 0 1.068.135 2.114.379 3.115-6.498 2.67-11.059 9.033-11.059 16.465 0 2.804.713 5.409 1.848 7.768-5.34 3.07-8.969 8.766-8.969 15.375 0 7.41 4.54 13.775 10.992 16.445a16.28 16.28 0 0 0-.31 3.137c0 8.856 7.165 16.021 16.021 16.021.912 0 1.802-.11 2.67-.265 2.136 6.341 8.055 10.947 15.131 10.947 8.856 0 16.021-7.165 16.021-16.022v-83.67c0-7.855-6.385-14.24-14.24-14.24zm35.6.004c-7.854 0-14.24 6.363-14.24 14.24v83.668c0 8.857 7.166 16.022 16.022 16.022 7.076 0 12.995-4.606 15.13-10.947.869.154 1.759.265 2.67.265 8.857 0 16.022-7.165 16.022-16.021 0-1.068-.11-2.113-.31-3.137 6.453-2.67 10.992-9.036 10.992-16.445 0-6.61-3.628-12.306-8.969-15.377 1.157-2.359 1.848-4.962 1.848-7.766 0-7.432-4.561-13.797-11.059-16.467.224-1.001.377-2.047.377-3.115 0-7.855-6.385-14.24-14.24-14.24-.178 0-.335.045-.49.045-1.58-6.164-7.099-10.725-13.752-10.725zm59.294 114.01 42.685 24.39a43.888 43.888 0 0 0 .264 23.576l-88.83 51.286a44.075 44.075 0 0 0-19.924-11.526v-49.511c26.898-3.169 50.426-17.487 65.805-38.215zm-154.188.002c15.38 20.728 38.908 35.046 65.805 38.215v49.511a44.06 44.06 0 0 0-19.924 11.526l-88.83-51.287a43.926 43.926 0 0 0 .264-23.574l42.685-24.391zM93.65 327.287c11.842 0 21.477 9.633 21.477 21.475 0 11.842-9.635 21.476-21.477 21.476s-21.476-9.634-21.476-21.476c0-11.842 9.634-21.475 21.476-21.475zm324.7 0c11.842 0 21.476 9.633 21.476 21.475.001 11.842-9.633 21.476-21.476 21.476-11.842 0-21.477-9.634-21.477-21.476 0-11.842 9.635-21.475 21.477-21.475zM256 421.88c11.843 0 21.477 9.635 21.477 21.476 0 11.843-9.634 21.477-21.477 21.477s-21.477-9.634-21.477-21.477c0-11.842 9.635-21.476 21.477-21.476z"/></g></svg>