<svg viewBox="0 0 512 512" style="height:512px;width:512px" xml:space="preserve" xmlns="http://www.w3.org/2000/svg"><defs><filter style="color-interpolation-filters:sRGB" id="a" x="-.071" y="-.074" width="1.142" height="1.148"><feFlood flood-opacity="1" flood-color="#3A3F5E" result="flood"/><feComposite in="flood" in2="SourceGraphic" operator="out" result="composite1"/><feGaussianBlur in="composite1" stdDeviation=".8" result="blur"/><feOffset result="offset"/><feComposite in="offset" in2="SourceGraphic" operator="atop" result="composite2"/></filter></defs><path d="M0 0h512v512H0z" fill="#1b1f21" style="height:512px;width:512px"/><g style="fill:#000"><g style="fill:#e64539;fill-opacity:1;filter:url(#a)" transform="translate(23.243 15.727) scale(15.01705)"><path d="M15.453 3.006 2.09 8.763l13.375 5.712L28.979 8.75ZM2.005 9.674v13.151l13.039 6.169v-13.8zm26.989 0L16 15.194v13.8l12.994-6.169ZM4.246 12.772l8.397 12.534-.603.305-1.581-2.363c-.668-.064-1.362-.274-2.083-.63a9.432 9.432 0 0 1-2.218-1.551 11.524 11.524 0 0 1-1.792-2.137 10.441 10.441 0 0 1-1.19-2.43 2.86 2.86 0 0 1 .723-.94c.3-.255.647-.436 1.041-.545l-.216-.334-1.08-1.604zm2.242 2.143c.606.08 1.236.28 1.888.603.774.382 1.514.9 2.22 1.551a11.318 11.318 0 0 1 1.797 2.14c.516.793.91 1.602 1.183 2.427-.341.72-.88 1.204-1.616 1.455l-1.388-2.074c.114-.224.171-.484.171-.78 0-.425-.106-.872-.319-1.34a4.829 4.829 0 0 0-.859-1.29 4.074 4.074 0 0 0-1.189-.906 2.505 2.505 0 0 0-.864-.256Zm-.228 2.072c-.167.251-.25.555-.25.912 0 .425.106.872.318 1.34.213.47.5.9.865 1.292.364.393.759.694 1.183.904.357.176.706.265 1.047.266l-.74-1.093a1.639 1.639 0 0 1-.307-.118 2.42 2.42 0 0 1-.71-.545 2.993 2.993 0 0 1-.518-.773 1.926 1.926 0 0 1-.194-.807.97.97 0 0 1 .046-.284zm2.048.636.08.04c.258.127.495.307.71.539.217.232.388.488.513.77.125.282.188.552.188.81v.068z" style="fill:#e64539;fill-opacity:1"/></g></g></svg>