<svg xml:space="preserve" width="512" height="512" xmlns="http://www.w3.org/2000/svg"><defs><filter style="color-interpolation-filters:sRGB" id="a" x="-.045" y="-.045" width="1.09" height="1.09"><feFlood flood-opacity="1" flood-color="#3A3F5E" result="flood"/><feComposite in="flood" in2="SourceGraphic" operator="out" result="composite1"/><feGaussianBlur in="composite1" stdDeviation="9.472" result="blur"/><feOffset result="offset"/><feComposite in="offset" in2="SourceGraphic" operator="atop" result="composite2"/></filter></defs><path d="M0 0h512v512H0Z" fill="#b90202" style="fill:#1b1f21;fill-opacity:1"/><g style="fill:#e64539;fill-opacity:1;filter:url(#a)"><g style="fill:#e64539;fill-opacity:1"><path d="M250.803-1C112.311-1-1 111.472-1 250.803c0 139.331 113.311 251.803 251.803 251.803s251.803-113.311 251.803-251.803S389.295-1 250.803-1Zm0 486.82c-129.259 0-235.016-105.757-235.016-235.016S121.544 15.787 250.803 15.787 485.82 121.544 485.82 250.803 380.062 485.82 250.803 485.82z" style="fill:#e64539;fill-opacity:1" transform="translate(18.388 18.388) scale(.9474)"/><path d="M249.726-1.08c-120.026 0-251.1 132.621-251.1 252.647 0 120.866 137.094 251.367 257.12 251.367 120.026 0 247.07-129.287 247.07-250.153 0-120.026-133.064-253.86-253.09-253.86zm1.077 453.326c-110.793 0-201.443-90.649-201.443-201.443 0-110.794 90.65-201.442 201.443-201.442s201.443 90.649 201.443 201.443c0 110.794-90.649 201.442-201.443 201.442z" style="fill:#e64539;fill-opacity:1" transform="translate(18.388 18.388) scale(.9474)"/><path d="M385.098 217.229c-5.036 0-8.393 3.357-8.393 8.393v16.787h-50.361v-16.787c0-5.036-3.357-8.393-8.393-8.393-5.036 0-8.393 3.357-8.393 8.393v16.787h-50.361v-50.361h16.787c5.036 0 8.393-3.357 8.393-8.393 0-5.036-3.357-8.393-8.393-8.393h-16.787v-50.361h16.787c5.036 0 8.393-3.357 8.393-8.393 0-5.036-3.357-8.393-8.393-8.393h-50.361c-5.036 0-8.393 3.357-8.393 8.393 0 5.036 3.357 8.393 8.393 8.393h16.787v50.361h-16.787c-5.036 0-8.393 3.357-8.393 8.393 0 5.036 3.357 8.393 8.393 8.393h16.787v50.361h-50.361v-16.787c0-5.036-3.357-8.393-8.393-8.393-5.036 0-8.393 3.357-8.393 8.393v16.787h-50.361v-16.787c0-5.036-3.357-8.393-8.393-8.393-5.036 0-8.393 3.357-8.393 8.393v50.361c0 5.036 3.357 8.393 8.393 8.393 5.036 0 8.393-3.357 8.393-8.393v-16.787h50.361v16.787c0 5.036 3.357 8.393 8.393 8.393 5.036 0 8.393-3.357 8.393-8.393v-16.787h50.361v50.361h-16.787c-5.036 0-8.393 3.357-8.393 8.393 0 5.036 3.357 8.393 8.393 8.393h16.787v50.361h-16.787c-5.036 0-8.393 3.357-8.393 8.393 0 5.036 3.357 8.393 8.393 8.393h50.361c5.036 0 8.393-3.357 8.393-8.393 0-5.036-3.357-8.393-8.393-8.393h-16.787v-50.361h16.787c5.036 0 8.393-3.357 8.393-8.393 0-5.036-3.357-8.393-8.393-8.393h-16.787v-50.361h50.361v16.787c0 5.036 3.357 8.393 8.393 8.393 5.036 0 8.393-3.357 8.393-8.393v-16.787h50.361v16.787c0 5.036 3.357 8.393 8.393 8.393 5.036 0 8.393-3.357 8.393-8.393v-50.361c.001-5.035-3.357-8.393-8.393-8.393z" style="fill:#e64539;fill-opacity:1" transform="translate(18.388 18.388) scale(.9474)"/></g></g></svg>