<svg width="60" height="60" shape-rendering="crispEdges" xmlns="http://www.w3.org/2000/svg"><path d="M8 3v1H7v1H6v1H5v1H4v1H3v44h1v1h1v1h1v1h1v1h1v1h44v-1h1v-1h1v-1h1v-1h1v-1h1V8h-1V7h-1V6h-1V5h-1V4h-1V3Zm2 3h40v1h1v1h1v1h1v1h1v40h-1v1h-1v1h-1v1h-1v1H10v-1H9v-1H8v-1H7v-1H6V10h1V9h1V8h1V7h1z"/><path style="fill:#595652;fill-opacity:1" d="M10 6v1H9v1H8v1H7v1H6v40h1v1h1v1h1v1h1v1h40v-1h1v-1h1v-1h1v-1h1V10h-1V9h-1V8h-1V7h-1V6Zm0 2h40v1h1v1h1v40h-1v1h-1v1H10v-1H9v-1H8V10h1V9h1z"/><path style="fill:#242322;fill-opacity:1" d="M10 8v1H9v1H8v40h1v1h1v1h40v-1h1v-1h1V10h-1V9h-1V8Z"/><path style="fill:#595652;fill-opacity:1" d="M25 16v1h8v-1h-8zm8 1v26h1V17h-1zm0 26h-6v1h6v-1zm-6 0V23h-2v1h1v19h1zm-2-20v-6h-1v6h1z"/><path style="fill:#9badb7;fill-opacity:1" d="M25 17v1h8v-1zm0 5v1h2v-1zm2 20v1h6v-1z"/><path d="M3 52v2h1v1h1v1h1v1h1v1h1v1h44v-1h1v-1h1v-1h1v-1h1v-1h1v-2h-1v1h-1v1h-1v1h-1v1h-1v1H8v-1H7v-1H6v-1H5v-1H4v-1z" style="fill:#696a6a;fill-opacity:1"/><path d="M3 54v1h1v-1zm1 1v1h1v-1zm1 1v1h1v-1zm1 1v1h1v-1zm1 1v1h1v-1zm1 1v1h44v-1H8Zm44 0h1v-1h-1zm1-1h1v-1h-1zm1-1h1v-1h-1zm1-1h1v-1h-1zm1-1h1v-1h-1z" style="fill:#847e87;fill-opacity:1"/><path d="m25 18 .005 4L27 21.998v20l6.002-.001L33 17.999z" style="fill:#fff;fill-opacity:1"/></svg>