<svg width="60" height="60" shape-rendering="crispEdges" xmlns="http://www.w3.org/2000/svg"><path style="fill:#242322;fill-opacity:1" d="M10 8.002v1H9v1H8v40h1v1h1v1h40v-1h1v-1h1v-40h-1v-1h-1v-1Z"/><path d="M24 16v1h12v-1H24zm12 1v1h1v-1h-1zm1 1v1h1v-1h-1zm1 1v1h1v-1h-1zm1 1v9h1v-9h-1zm0 9h-1v1h1v-1zm-1 1h-1v1h1v-1zm-1 1h-1v1h1v-1zm-1 1h-2v1h2v-1zm-2 1h-2v1h2v-1zm-2 1h-2v1h2v-1zm-2 1h-1v1h1v-1zm-1 1h-1v1h-1v1h7v-2h-1v1h-4v-1zm5 0h5v-1h-5v1zm5 0v6h1v-6h-1zm0 6h-1v1h1v-1zm-1 1H21v1h17v-1zm-17 0v-8h-1v8h1zm0-8h1v-1h-1v1zm1-1h1v-1h-1v1zm1-1h1v-1h-1v1zm1-1h1v-1h-1v1zm1-1h2v-1h-2v1zm2-1h2v-1h-2v1zm2-1h2v-1h-2v1zm2-1h2v-1h-2v1zm2-1h1v-4h-1v4zm0-4v-1h-6v1h6zm-6 0h-1v2h1v-2zm-1 2h-5v1h5v-1zm-5 0v-5h-1v5h1zm0-5h1v-1h-1v1zm1-1h1v-1h-1v1zm1-1h1v-1h-1v1z" style="fill:#595652;fill-opacity:1"/><path d="M24 17v1h12v-1H24zm12 1v1h1v-1h-1zm1 1v1h1v-1h-1zm1 1v1h1v-1h-1zm-14-2h-1v1h1v-1zm-1 1h-1v1h1v-1zm-1 1h-1v1h1v-1zm5 1v1h6v-1h-6zm6 1v1h1v-1h-1zm-6 0h-1v1h1v-1zm-6 2v1h5v-1h-5zm12 3v1h1v-1h-1zm0 1h-2v1h2v-1zm-2 1h-2v1h2v-1zm-2 1h-2v1h2v-1zm-2 1h-2v1h2v-1zm-2 1h-1v1h1v-1zm-1 1h-1v1h1v-1zm-1 1h-1v1h1v-1zm-1 1h-1v1h1v-1zm16-7v1h1v-1h-1zm0 1h-1v1h1v-1zm-1 1h-1v1h1v-1zm-1 1h-2v1h2v-1zm-2 1h-2v1h2v-1zm-2 1h-2v1h2v-1zm-2 1h-1v1h1v-1zm-1 1h-1v1h1v-1zm-1 1h-1v1h1v-1zm6 0v1h5v-1h-5zm-7 2v1h7v-1h-7zm11 3v1h1v-1h-1zm0 1H21v1h17v-1z" style="fill:#9badb7;fill-opacity:1"/><path d="M24 18v1h-1v1h-1v1h-1v3h5v-2h1v-1h6v1h1v6h-1v1h-2v1h-2v1h-2v1h-2v1h-1v1h-1v1h-1v1h-1v6h17v-1h1v-4h-5v2h-7v-3h1v-1h1v-1h1v-1h2v-1h2v-1h2v-1h1v-1h1v-1h1v-7h-1v-1h-1v-1h-1v-1H24z" style="fill:#f4f4f4;fill-opacity:1"/><path d="M8 3.002v1H7v1H6v1H5v1H4v1H3v44h1v1h1v1h1v1h1v1h1v1h44v-1h1v-1h1v-1h1v-1h1v-1h1v-44h-1v-1h-1v-1h-1v-1h-1v-1h-1v-1zm2 3h40v1h1v1h1v1h1v1h1v40h-1v1h-1v1h-1v1h-1v1H10v-1H9v-1H8v-1H7v-1H6v-40h1v-1h1v-1h1v-1h1z"/><path style="fill:#595652;fill-opacity:1" d="M10 6.002v1H9v1H8v1H7v1H6v40h1v1h1v1h1v1h1v1h40v-1h1v-1h1v-1h1v-1h1v-40h-1v-1h-1v-1h-1v-1h-1v-1zm0 2h40v1h1v1h1v40h-1v1h-1v1H10v-1H9v-1H8v-40h1v-1h1z"/><path d="M3 52v2h1v1h1v1h1v1h1v1h1v1h44v-1h1v-1h1v-1h1v-1h1v-1h1v-2h-1v1h-1v1h-1v1h-1v1h-1v1H8v-1H7v-1H6v-1H5v-1H4v-1z" style="fill:#696a6a;fill-opacity:1"/><path d="M3 54v1h1v-1zm1 1v1h1v-1zm1 1v1h1v-1zm1 1v1h1v-1zm1 1v1h1v-1zm1 1v1h44v-1H8zm44 0h1v-1h-1zm1-1h1v-1h-1zm1-1h1v-1h-1zm1-1h1v-1h-1zm1-1h1v-1h-1z" style="fill:#847e87;fill-opacity:1"/></svg>