<svg width="60" height="60" shape-rendering="crispEdges" xmlns="http://www.w3.org/2000/svg"><path style="fill:#242322;fill-opacity:1" d="M10 7.998v1H9v1H8v40h1v1h1v1h40v-1h1v-1h1v-40h-1v-1h-1v-1z"/><path d="M22 16v1h17v-1zm17 1v6h1v-6zm0 6h-1v1h1zm-1 1h-1v1h1zm-1 1h-1v1h1zm-1 1h-1v1h1zm0 1v1h1v-1zm1 1v1h1v-1zm1 1v1h1v-1zm1 1v10h1V30Zm0 10h-1v1h1zm-1 1h-1v1h1zm-1 1h-1v1h1zm-1 1H24v1h12zm-12 0v-1h-1v1zm-1-1v-1h-1v1zm-1-1v-1h-1v1zm-1-1v-5h-1v5zm0-5h5v-1h-5zm5 0v2h1v-2zm1 2v1h6v-1zm6 0h1v-5h-1zm0-5v-1h-6v1zm-6-1v-3h-1v3zm0-3h1v-1h-1zm1-1h1v-1h-1zm1-1h1v-1h-1zm1-1h1v-1h-1zm1-1h1v-1h1v-1h-7v2h1v-1h4zm-5 0h-5v1h5zm-5 0v-6h-1v6zm0-6h1v-1h-1z" style="fill:#595652;fill-opacity:1"/><path d="M22 17v1h17v-1H23Zm0 1h-1v1h1zm4 3v1h7v-1zm12 1v1h1v-1zm0 1h-1v1h1zm-1 1h-1v1h1zm-1 1h-1v1h1zm-15-2v1h5v-1zm11 0v1h1v-1zm0 1h-1v1h1zm-1 1h-1v1h1zm-1 1h-1v1h1zm-1 1h-1v1h1zm-1 1h-1v1h1zm7-1v1h1v-1zm1 1v1h1v-1zm1 1v1h1v-1zm1 1v1h1v-1zm-11 0v1h6v-1zm6 1v1h1v-1zm-12 4v1h5v-1zm5 2v1h1v-1zm1 1v1h6v-1zm6 0h1v-1h-1zm-12 1v1h1v-1zm1 1v1h1v-1zm1 1v1h1v-1zm1 1v1h12v-1zm12 0h1v-1h-1zm1-1h1v-1h-1zm1-1h1v-1h-1z" style="fill:#9badb7;fill-opacity:1"/><path d="M22 18v1h-1v4h5v-2h7v3h-1v1h-1v1h-1v1h-1v1h-1v1h-1v1h6v1h1v7h-1v1h-6v-1h-1v-2h-5v3h1v1h1v1h1v1h12v-1h1v-1h1v-1h1v-8h-1v-1h-1v-1h-1v-1h-1v-3h1v-1h1v-1h1v-1h1v-4z" style="fill:#f4f4f4;fill-opacity:1"/><path d="M8 3v1H7v1H6v1H5v1H4v1H3v44h1v1h1v1h1v1h1v1h1v1h44v-1h1v-1h1v-1h1v-1h1v-1h1V8h-1V7h-1V6h-1V5h-1V4h-1V3Zm2 3h40v1h1v1h1v1h1v1h1v40h-1v1h-1v1h-1v1h-1v1H10v-1H9v-1H8v-1H7v-1H6V10h1V9h1V8h1V7h1z"/><path style="fill:#595652;fill-opacity:1" d="M10 6v1H9v1H8v1H7v1H6v40h1v1h1v1h1v1h1v1h40v-1h1v-1h1v-1h1v-1h1V10h-1V9h-1V8h-1V7h-1V6zm0 2h40v1h1v1h1v40h-1v1h-1v1H10v-1H9v-1H8V10h1V9h1z"/><path d="M2.997 52v2h1v1h1v1h1v1h1v1h1v1h44v-1h1v-1h1v-1h1v-1h1v-1h1v-2h-1v1h-1v1h-1v1h-1v1h-1v1h-44v-1h-1v-1h-1v-1h-1v-1h-1v-1z" style="fill:#696a6a;fill-opacity:1"/><path d="M2.997 54v1h1v-1zm1 1v1h1v-1zm1 1v1h1v-1zm1 1v1h1v-1zm1 1v1h1v-1zm1 1v1h44v-1zm44 0h1v-1h-1zm1-1h1v-1h-1zm1-1h1v-1h-1zm1-1h1v-1h-1zm1-1h1v-1h-1z" style="fill:#847e87;fill-opacity:1"/></svg>