<svg width="60" height="60" shape-rendering="crispEdges" xmlns="http://www.w3.org/2000/svg"><path style="fill:#242322;fill-opacity:1" d="M10 8v1H9v1H8v40h1v1h1v1h40v-1h1v-1h1V10h-1V9h-1V8z"/><path d="M20 16v1h6v-1zm6 1v11h7V17h-1v10h-5V17Zm7 0h6v-1h-6zm6 0v11h2v-1h-1V17Zm2 11v6h1v-6zm0 6h-2v9h1v-8h1zm-2 9h-6v1h6zm-6 0v-9H21v1h11v8zm-12-9V23h-2v1h1v10Zm-2-11v-5h-1v5zm0-5h1v-1h-1z" style="fill:#595652;fill-opacity:1"/><path d="M20 17v1h6v-1zm0 1h-1v1h1zm13-1v1h6v-1zm-14 5v1h2v-1zm7 6v1h7v-1zm13 0v1h2v-1zm-18 5v1h12v-1zm18 0v1h2v-1zm-6 9v1h6v-1z" style="fill:#9badb7;fill-opacity:1"/><path d="M20 18v1h-1v3h2v11h12v9h6v-9h2v-4h-2V18h-6v11h-7V18Z" style="fill:#f4f4f4;fill-opacity:1"/><path d="M8 3v1H7v1H6v1H5v1H4v1H3v44h1v1h1v1h1v1h1v1h1v1h44v-1h1v-1h1v-1h1v-1h1v-1h1V8h-1V7h-1V6h-1V5h-1V4h-1V3zm2 3h40v1h1v1h1v1h1v1h1v40h-1v1h-1v1h-1v1h-1v1H10v-1H9v-1H8v-1H7v-1H6V10h1V9h1V8h1V7h1z" style="fill:#000;fill-opacity:1"/><path style="fill:#595652;fill-opacity:1" d="M10 6v1H9v1H8v1H7v1H6v40h1v1h1v1h1v1h1v1h40v-1h1v-1h1v-1h1v-1h1V10h-1V9h-1V8h-1V7h-1V6zm0 2h40v1h1v1h1v40h-1v1h-1v1H10v-1H9v-1H8V10h1V9h1z"/><path d="M3 51.999v2h1v1h1v1h1v1h1v1h1v1h44v-1h1v-1h1v-1h1v-1h1v-1h1v-2h-1v1h-1v1h-1v1h-1v1h-1v1H8v-1H7v-1H6v-1H5v-1H4v-1z" style="fill:#696a6a;fill-opacity:1"/><path d="M3 53.999v1h1v-1zm1 1v1h1v-1zm1 1v1h1v-1zm1 1v1h1v-1zm1 1v1h1v-1zm1 1v1h44v-1zm44 0h1v-1h-1zm1-1h1v-1h-1zm1-1h1v-1h-1zm1-1h1v-1h-1zm1-1h1v-1h-1z" style="fill:#847e87;fill-opacity:1"/></svg>