<svg width="60" height="60" shape-rendering="crispEdges" xmlns="http://www.w3.org/2000/svg"><path style="fill:#242322;fill-opacity:1" d="M10.001 8.002v1h-1v1h-1v40h1v1h1v1h40v-1h1v-1h1v-40h-1v-1h-1v-1z"/><path d="M22 16v1h16v-1zm16 1v1h1v-1zm1 1v6h1v-6zm0 6h-5v1h5zm-5 0v-1h-1v1zm-1-1v-1h-6v5h9v-1h-8v-3zm3 4v1h1v-1zm1 1v1h1v-1zm1 1v1h1v-1zm1 1v10h1V30Zm0 10h-1v1h1zm-1 1h-1v1h1zm-1 1h-1v1h1zm-1 1H24v1h12zm-12 0v-1h-1v1zm-1-1v-1h-1v1zm-1-1v-1h-1v1zm-1-1v-5h-1v5zm0-5h5v-1h-5zm5 0v2h1v-2zm1 2v1h6v-1zm6 0h1v-5h-1zm0-5v-1h-6v1zm-6 0h-5v1h5zm-5 0v-1h-1v1zm-1-1V18h-1v13zm0-13h1v-1h-1z" style="fill:#595652;fill-opacity:1"/><path d="M22 17v1h16v-1H22zm16 1v1h1v-1h-1zm-16 0h-1v1h1v-1zm5 3v1h6v-1h-6zm6 1v1h1v-1h-1zm1 1v1h5v-1h-5zm-7 4v1h9v-1h-9zm9 1v1h1v-1h-1zm1 1v1h1v-1h-1zm1 1v1h1v-1h-1zm-17 0v1h1v-1h-1zm1 1v1h5v-1h-5zm5 0h6v-1h-6v1zm6 0v1h1v-1h-1zm-12 4v1h5v-1h-5zm5 2v1h1v-1h-1zm1 1v1h6v-1h-6zm6 0h1v-1h-1v1zm-12 1v1h1v-1h-1zm1 1v1h1v-1h-1zm1 1v1h1v-1h-1zm1 1v1h12v-1H24zm12 0h1v-1h-1v1zm1-1h1v-1h-1v1zm1-1h1v-1h-1v1z" style="fill:#9badb7;fill-opacity:1"/><path d="M22 18v1h-1v11h1v1h5v-1h6v1h1v7h-1v1h-6v-1h-1v-2h-5v3h1v1h1v1h1v1h12v-1h1v-1h1v-1h1v-8h-1v-1h-1v-1h-1v-1h-9v-7h6v1h1v1h5v-4h-1v-1z" style="fill:#f4f4f4;fill-opacity:1"/><path d="M8.005 3.004v1h-1v1h-1v1h-1v1h-1v1h-1v44h1v1h1v1h1v1h1v1h1v1h44v-1h1v-1h1v-1h1v-1h1v-1h1v-44h-1v-1h-1v-1h-1v-1h-1v-1h-1v-1Zm2 3h40v1h1v1h1v1h1v1h1v40h-1v1h-1v1h-1v1h-1v1h-40v-1h-1v-1h-1v-1h-1v-1h-1v-40h1v-1h1v-1h1v-1h1z" style="fill:#000;fill-opacity:1"/><path style="fill:#595652;fill-opacity:1" d="M10.003 6.002v1h-1v1h-1v1h-1v1h-1v40h1v1h1v1h1v1h1v1h40v-1h1v-1h1v-1h1v-1h1v-40h-1v-1h-1v-1h-1v-1h-1v-1zm0 2h40v1h1v1h1v40h-1v1h-1v1h-40v-1h-1v-1h-1v-40h1v-1h1z"/><path d="M3.003 52v2h1v1h1v1h1v1h1v1h1v1h44v-1h1v-1h1v-1h1v-1h1v-1h1v-2h-1v1h-1v1h-1v1h-1v1h-1v1h-44v-1h-1v-1h-1v-1h-1v-1h-1v-1z" style="fill:#696a6a;fill-opacity:1"/><path d="M3.003 54v1h1v-1zm1 1v1h1v-1zm1 1v1h1v-1zm1 1v1h1v-1zm1 1v1h1v-1zm1 1v1h44v-1zm44 0h1v-1h-1zm1-1h1v-1h-1zm1-1h1v-1h-1zm1-1h1v-1h-1zm1-1h1v-1h-1z" style="fill:#847e87;fill-opacity:1"/><path fill="#696A6A" d="M56 52h1v1h-1zM3 53h1v1H3zm1 0h1v1H4z"/><path fill="#847E87" d="M56 54h1v1h-1zM4 55h1v1H4zm51 0h1v1h-1zM5 56h1v1H5zm49 0h1v1h-1zM6 57h1v1H6z"/></svg>