<svg width="60" height="60" shape-rendering="crispEdges" xmlns="http://www.w3.org/2000/svg"><path style="fill:#242322;fill-opacity:1" d="M9.999 7.999v1h-1v1h-1v40h1v1h1v1h40v-1h1v-1h1v-40h-1v-1h-1v-1z"/><path d="M24 16v1h11v-1zm11 1v1h1v-1zm1 1v1h1v-1zm1 1v3h1v-3zm0 3H27v1h10zm-10 1h-1v4h10v-1h-9zm9 4v1h1v-1zm1 1v1h1v-1zm1 1v1h1v-1zm1 1v10h1V30Zm0 10h-1v1h1zm-1 1h-1v1h1zm-1 1h-1v1h1zm-1 1H24v1h12zm-12 0v-1h-1v1zm-1-1v-1h-1v1zm-1-1v-1h-1v1zm-1-1V20h-1v20zm0-20h1v-1h-1zm1-1h1v-1h-1zm1-1h1v-1h-1zm4 13v1h6v-1zm6 1v6h1v-6zm0 6h-6v1h6zm-6 0v-6h-1v6z" style="fill:#595652;fill-opacity:1"/><path d="M24 17v1h11v-1zm11 1v1h1v-1zm1 1v1h1v-1Zm-12-1h-1v1h1zm-1 1h-1v1h1zm-1 1h-1v1h1zm4 7v1h10v-1zm10 1v1h1v-1zm1 1v1h1v-1zm1 1v1h1v-1zm-12 8v1h1v-1zm1 1v1h6v-1zm6 0h1v-1h-1z" style="fill:#9badb7;fill-opacity:1"/><path d="M24 18v1h-1v1h-1v1h-1v19h1v1h1v1h1v1h12v-1h1v-1h1v-1h1v-9h-1v-1h-1v-1h-1v-1H26v-5h1v-1h10v-2h-1v-1h-1v-1zm3 13h6v1h1v7h-1v1h-6v-1h-1v-7h1z" style="fill:#f4f4f4;fill-opacity:1"/><path d="M8 3.003v1H7v1H6v1H5v1H4v1H3v44h1v1h1v1h1v1h1v1h1v1h44v-1h1v-1h1v-1h1v-1h1v-1h1v-44h-1v-1h-1v-1h-1v-1h-1v-1h-1v-1Zm2 3h40v1h1v1h1v1h1v1h1v40h-1v1h-1v1h-1v1h-1v1H10v-1H9v-1H8v-1H7v-1H6v-40h1v-1h1v-1h1v-1h1z" style="fill:#000"/><path style="fill:#595652;fill-opacity:1" d="M10 6v1H9v1H8v1H7v1H6v40h1v1h1v1h1v1h1v1h40v-1h1v-1h1v-1h1v-1h1V10h-1V9h-1V8h-1V7h-1V6zm0 2h40v1h1v1h1v40h-1v1h-1v1H10v-1H9v-1H8V10h1V9h1z"/><path d="M3.002 52v2h1v1h1v1h1v1h1v1h1v1h44v-1h1v-1h1v-1h1v-1h1v-1h1v-2h-1v1h-1v1h-1v1h-1v1h-1v1h-44v-1h-1v-1h-1v-1h-1v-1h-1v-1z" style="fill:#696a6a;fill-opacity:1"/><path d="M3.002 54v1h1v-1zm1 1v1h1v-1zm1 1v1h1v-1zm1 1v1h1v-1zm1 1v1h1v-1zm1 1v1h44v-1zm44 0h1v-1h-1zm1-1h1v-1h-1zm1-1h1v-1h-1zm1-1h1v-1h-1zm1-1h1v-1h-1z" style="fill:#847e87;fill-opacity:1"/></svg>