<svg width="512" height="512" viewBox="-64 0 512 512" xmlns="http://www.w3.org/2000/svg"><defs><filter style="color-interpolation-filters:sRGB" id="a" x="-.085" y="-.064" width="1.17" height="1.128"><feFlood flood-opacity="1" flood-color="#3A3F5E" result="flood"/><feComposite in="flood" in2="SourceGraphic" operator="out" result="composite1"/><feGaussianBlur in="composite1" stdDeviation="12.382" result="blur"/><feOffset result="offset"/><feComposite in="offset" in2="SourceGraphic" operator="atop" result="composite2"/></filter></defs><path d="M0 0h512v512H0Z" fill="#b90202" style="fill:#1b1f21;fill-opacity:1" transform="translate(-64)"/><path d="M250.162 168.73V37.824c0-8.036-6.509-14.545-14.545-14.545h-29.09c-8.036 0-14.545 6.509-14.545 14.545v133.57c4.563-1.619 9.4-2.664 14.518-2.664zm116.36 87.26c-.009-32.125-26.053-58.17-58.17-58.17H206.408c-7.982 0-14.454 6.427-14.454 14.408v.51c0 23.88 19.363 43.262 43.244 43.262h32.053c8.8 0 12 3.254 12 7.273v14.726c0 3.9-3.263 7.073-7.163 7.273-40.472 2.073-58.326 22.463-87.316 65.953l-5.736 8.608a7.267 7.267 0 0 1-10.082 2.019l-12.1-8.073a7.267 7.267 0 0 1-2.018-10.081l5.737-8.61c14.3-21.453 27.453-39.325 43.007-52.798-15.7-5.009-28.544-16.472-35.335-31.317-5.99 3.1-12.69 5.018-19.881 5.018h-29.09c-11.218 0-21.354-4.373-29.09-11.345C82.439 251.627 72.303 256 61.095 256h-29.09c-5.128 0-9.973-1.045-14.546-2.682v70.844a116.345 116.345 0 0 0 34.081 82.28l24.09 24.099v58.18h232.703v-58.144l32.645-32.654a87.302 87.302 0 0 0 25.563-61.734zm-29.099-81.897V66.914c0-8.036-6.509-14.545-14.545-14.545h-29.09c-8.036 0-14.545 6.51-14.545 14.545V168.73h29.09c10.254 0 19.945 2.1 29.09 5.363zM32.004 226.91h29.09c8.037 0 14.546-6.509 14.546-14.545V96.005c0-8.037-6.51-14.546-14.545-14.546h-29.09c-8.037 0-14.546 6.51-14.546 14.545v116.36c0 8.037 6.51 14.546 14.545 14.546zm87.262 0h29.09c8.036 0 14.545-6.509 14.545-14.545V66.915c0-8.037-6.51-14.546-14.545-14.546h-29.09c-8.036 0-14.545 6.51-14.545 14.545v145.45c0 8.037 6.509 14.546 14.545 14.546z" style="stroke-width:.909066;fill:#e64539;fill-opacity:1;filter:url(#a)"/></svg>