<svg xmlns="http://www.w3.org/2000/svg" height="512" width="512" viewBox="0 0 503.606 503.606" style="enable-background:new 0 0 503.606 503.606" xml:space="preserve"><path d="M285.374 191.068v-39.986h-67.147v39.986l-13.581 27.162h94.309zm-83.933 43.947h100.721v184.656H201.441zm69.117-193.333L259.84 5.985A8.395 8.395 0 0 0 251.799 0a8.403 8.403 0 0 0-8.041 5.984l-10.71 35.697c-9.031 30.107-13.765 61.23-14.512 92.613h66.535c-.748-31.382-5.482-62.505-14.513-92.612zm24.145 416.482c.26-.688.537-1.368.713-2.09l4.902-19.615h-97.037l4.893 19.615c.185.722.453 1.402.722 2.09-4.516 3.794-7.453 9.417-7.453 15.763v8.998c0 11.407 9.275 20.681 20.681 20.681h59.358c11.398 0 20.681-9.275 20.681-20.681v-8.998c.002-6.346-2.935-11.97-7.46-15.763z"/></svg>