<svg xml:space="preserve" viewBox="0 0 100 100" xmlns="http://www.w3.org/2000/svg" width="47" height="47" style="width:100%;height:100%;background-size:initial;background-repeat-y:initial;background-repeat-x:initial;background-position-y:initial;background-position-x:initial;background-origin:initial;background-image:initial;background-color:#f1f2f3;background-clip:initial;background-attachment:initial;animation-play-state:paused"><g class="ldl-scale" style="transform-origin:50% 50%;transform:rotate(0deg) scale(.8,.8);animation-play-state:paused"><path fill="#333" d="M74.342 10H37.136a5.069 5.069 0 0 0-5.069 5.069v11.99c0 1.001-.297 1.98-.852 2.813l-9.773 14.651a5.067 5.067 0 0 0-.852 2.813V54.5h5.077V63H20.59v21.931A5.069 5.069 0 0 0 25.659 90h48.683a5.069 5.069 0 0 0 5.069-5.069V15.069A5.07 5.07 0 0 0 74.342 10z" style="animation-play-state:paused"/><path d="M36.372 14.134h6.886v14.671h-6.886zm10.329 0h6.886v14.671h-6.886zm11.014 0h6.886v14.671h-6.886zm10.329 0h6.886v14.671h-6.886z" fill="#e0e0e0" style="fill:#fff;animation-play-state:paused"/></g></svg>