<svg height="512" width="512" style="enable-background:new 0 0 512 512" xml:space="preserve" xmlns="http://www.w3.org/2000/svg"><defs><filter style="color-interpolation-filters:sRGB" id="a" x="-.102" y="-.08" width="1.204" height="1.16"><feFlood flood-opacity="1" flood-color="#3A3F5E" result="flood"/><feComposite in="flood" in2="SourceGraphic" operator="out" result="composite1"/><feGaussianBlur in="composite1" stdDeviation="15" result="blur"/><feOffset result="offset"/><feComposite in="offset" in2="SourceGraphic" operator="atop" result="composite2"/></filter></defs><path d="M0 0h512v512H0Z" fill="#b90202" style="fill:#1b1f21;fill-opacity:1"/><path d="M291.897 433.082c-23.486-12.213-58.245-21.607-72.336-25.365-12.212-2.818-36.639-15.971-56.366-14.092-19.727 2.818-41.335 0-46.972-8.456-5.636-8.455-16.91-19.727-16.91-19.727-.938 0-14.09-16.91-5.635-22.547h.939c3.758 6.576 10.333 9.394 17.85 11.274 3.758 16.909 16.91 16.909 28.183 10.332 18.788 13.153 23.486 0 36.638 3.759 5.636 7.515 155.007 62.002 163.462 62.942 5.636.939 71.397 15.97 91.125 20.668l-.004-16.91c-22.547-4.697-167.22-42.274-240.495-71.397-7.515-2.818-15.03-6.576-22.547-5.635-4.697.938-9.395 3.758-14.092 2.818-7.515-.94-13.153-9.395-20.668-10.333h-7.515c-2.818-.94-4.697-2.818-3.758-5.636.939-2.818 15.03-10.333 17.85-11.274 22.547-12.212 15.03-1.879 79.852 18.789 40.395 14.091 74.215 28.183 212.312 59.184v-20.668c-37.578-9.394-153.128-57.305-200.1-77.033-8.455-3.759-10.333-15.971-2.818-21.607l5.636-3.758c104.277-52.608 73.276-108.035 124.945-145.612 44.153-34.76 52.608-93.004 54.487-111.793h-32.88c3.758 41.335-44.154 29.122-54.487 0h-93.004c-11.274 33.819-6.577 56.366-31.942 84.55-82.67 92.064-107.095 161.582-114.61 186.946-3.759 14.092-3.759 33.82-8.456 55.427-3.759 15.97 20.668 34.76 28.183 36.639 7.515 1.879 17.85 9.394 20.668 11.273 2.818 1.88 249.889 65.76 302.497 75.155v-8.456c-28.183-1.88-113.671-26.305-139.036-39.456ZM137.83 280.894c18.789-15.971 59.184-68.58 66.7-77.973 21.606-30.063 29.122-28.183 68.579-95.823 29.121-46.032 35.698-56.366 38.515-65.76 8.456 19.727 26.304 29.122 35.699 32.88-104.278 158.764-67.64 79.852-145.613 201.978-15.03 23.486-9.394 41.335-12.212 54.487-25.365-9.394-30.062-19.727-54.487-6.576-14.091 7.515-21.606 10.333-22.547 19.727-31-10.331 6.578-46.971 25.367-62.942z" style="fill:#e64539;fill-opacity:1;stroke-width:.39143;filter:url(#a)"/></svg>