<svg width="512" height="512" version="1.1" id="svg8" xml:space="preserve" xmlns="http://www.w3.org/2000/svg"><defs id="defs12"><filter style="color-interpolation-filters:sRGB" id="filter875" x="-.313" y="-.169" width="1.609" height="1.328"><feFlood flood-opacity="1" flood-color="#3A3F5E" result="flood" id="feFlood865"/><feComposite in="flood" in2="SourceGraphic" operator="out" result="composite1" id="feComposite867"/><feGaussianBlur in="composite1" stdDeviation="15" result="blur" id="feGaussianBlur869"/><feOffset dx="0" dy="0" result="offset" id="feOffset871"/><feComposite in="offset" in2="SourceGraphic" operator="atop" result="composite2" id="feComposite873"/></filter><filter style="color-interpolation-filters:sRGB" id="filter1015" x="-.082" y="-.044" width="1.164" height="1.088"><feFlood flood-opacity="1" flood-color="#3A3F5E" result="flood" id="feFlood1005"/><feComposite in="flood" in2="SourceGraphic" operator="out" result="composite1" id="feComposite1007"/><feGaussianBlur in="composite1" stdDeviation="8.302" result="blur" id="feGaussianBlur1009"/><feOffset dx="0" dy="0" result="offset" id="feOffset1011"/><feComposite in="offset" in2="SourceGraphic" operator="atop" result="composite2" id="feComposite1013"/></filter><filter style="color-interpolation-filters:sRGB" id="filter35638" x="-.057" y="-.131" width="1.114" height="1.261"><feFlood flood-opacity="1" flood-color="#3A3F5E" result="flood" id="feFlood35628"/><feComposite in="flood" in2="SourceGraphic" operator="out" result="composite1" id="feComposite35630"/><feGaussianBlur in="composite1" stdDeviation="6" result="blur" id="feGaussianBlur35632"/><feOffset dx="0" dy="0" result="offset" id="feOffset35634"/><feComposite in="offset" in2="SourceGraphic" operator="atop" result="composite2" id="feComposite35636"/></filter><filter style="color-interpolation-filters:sRGB" id="filter35813" x="-.053" y="-.07" width="1.107" height="1.139"><feFlood flood-opacity="1" flood-color="#3A3F5E" result="flood" id="feFlood35803"/><feComposite in="flood" in2="SourceGraphic" operator="out" result="composite1" id="feComposite35805"/><feGaussianBlur in="composite1" stdDeviation="8" result="blur" id="feGaussianBlur35807"/><feOffset dx="0" dy="0" result="offset" id="feOffset35809"/><feComposite in="offset" in2="SourceGraphic" operator="atop" result="composite2" id="feComposite35811"/></filter><filter style="color-interpolation-filters:sRGB" id="filter36051" x="-.028" y="-.039" width="1.056" height="1.078"><feFlood flood-opacity="1" flood-color="#3A3F5E" result="flood" id="feFlood36041"/><feComposite in="flood" in2="SourceGraphic" operator="out" result="composite1" id="feComposite36043"/><feGaussianBlur in="composite1" stdDeviation="6" result="blur" id="feGaussianBlur36045"/><feOffset dx="0" dy="0" result="offset" id="feOffset36047"/><feComposite in="offset" in2="SourceGraphic" operator="atop" result="composite2" id="feComposite36049"/></filter><filter style="color-interpolation-filters:sRGB" id="filter36715" x="-.07" y="-.091" width="1.139" height="1.182"><feFlood flood-opacity="1" flood-color="#3A3F5E" result="flood" id="feFlood36705"/><feComposite in="flood" in2="SourceGraphic" operator="out" result="composite1" id="feComposite36707"/><feGaussianBlur in="composite1" stdDeviation="16.201" result="blur" id="feGaussianBlur36709"/><feOffset dx="0" dy="0" result="offset" id="feOffset36711"/><feComposite in="offset" in2="SourceGraphic" operator="atop" result="composite2" id="feComposite36713"/></filter></defs><path d="M0 0h512v512H0z" fill="#b90202" fill-opacity="1" id="path2" style="fill:#1b1f21;fill-opacity:1"/><style type="text/css" id="style35976">.st0{fill:#000}</style><g id="g36691" transform="translate(6.09 57.416) scale(.85822)" style="fill:#e64539;fill-opacity:1;filter:url(#filter36715)"><g style="fill:#e64539;fill-opacity:1" id="g36597" transform="rotate(45 190.872 217.26) scale(12.6682)"><path d="M8.5 2.875v18.75c0 1.875 0 1.875 1.875 1.875h11.25c1.875 0 1.875 0 1.875-1.875V2.875C23.5 1 23.5 1 21.625 1h-11.25C8.5 1 8.5 1 8.5 2.875Zm3.75 1.875h7.5v13.125h-7.5zM9.333 26.312h13.333c.46 0 .833.373.833.833v3.021c0 .46-.373.833-.833.833H9.333a.833.833 0 0 1-.833-.833v-3.021c0-.46.373-.833.833-.833z" id="path36588" style="fill:#e64539;fill-opacity:1"/></g><g style="clip-rule:evenodd;fill:#e64539;fill-rule:evenodd;stroke-linejoin:round;stroke-miterlimit:2;fill-opacity:1" id="g36683" transform="rotate(45 329.241 357.968) scale(28.98759)"><path d="M359.395 227.625h8.964v17.085h-8.964z" transform="matrix(.45333 0 0 .45772 -153.81 -99.072)" id="path36665" style="fill:#e64539;fill-opacity:1"/><path d="M359.395 245.984h8.965l-.037 2.441c0 .481-.406.814-.888.814h-7.208c-.482 0-.879-.333-.879-.814l.001-2.395a.05.05 0 0 1 .013-.033.05.05 0 0 1 .033-.013z" transform="matrix(.45281 0 0 .41787 -153.603 -89.172)" id="path36667" style="fill:#e64539;fill-opacity:1"/><path d="M363.979 218.311c3.069-.006 4.402 4.285 4.381 7.556h-9.011c-.056-3.304 1.56-7.55 4.63-7.556z" transform="translate(-152.946 -97.426) scale(.45098)" id="path36669" style="fill:#e64539;fill-opacity:1"/></g></g></svg>