<svg version="1.2" viewBox="-421 153 512 512" xml:space="preserve" width="512" height="512" xmlns="http://www.w3.org/2000/svg"><defs><filter style="color-interpolation-filters:sRGB" id="a" x="-.078" y="-.076" width="1.156" height="1.153"><feFlood flood-opacity="1" flood-color="#3A3F5E" result="flood"/><feComposite in="flood" in2="SourceGraphic" operator="out" result="composite1"/><feGaussianBlur in="composite1" stdDeviation="15" result="blur"/><feOffset result="offset"/><feComposite in="offset" in2="SourceGraphic" operator="atop" result="composite2"/></filter></defs><path d="M0 0h512v512H0Z" fill="#b90202" style="fill:#1b1f21;fill-opacity:1" transform="translate(-421.001 152.999)"/><path d="M-150.448 173.26c-13.15 2.845-34.902 19.61-27.1 50.501 9.124 36.128-74.403 35.678-41.015-23.702-21.312 15.437-37.544 11.653-42.834-19.806-21.904 27.491-22.18 72.346-9.746 100.41 16.522 37.292-28.87 43.94-49.002 8.837 21.95 114.354-46.171 105.633-29.832 70.404 16.999-36.645 27.335-76.067-41.496-92.835 37.746 20.522 32.474 103.692.916 69.723-19.37 35.854 28.475 46.228 29.871 72.47 1.128 21.228-18.527 20.9-33.414 7.357 1.37 33.132 26.183 36.39 38.476 54.024 26.902 38.586-14.115 67.631-38.726 45.48 4.273 38.202 25.757 63.105 53.768 82.966 10.87-141.197 49.3-238.818 95.712-293.645 24.959-29.485 52.48-46.8 79.782-50.514a78.083 78.083 0 0 1 10.187-.715c20.742-.086 40.556 8.262 56.744 24.18 35.82-5.974 45.235-44.018 13.287-69.417 1.801 63.392-66.164 21.632-65.579-35.718zm102.58 3.934c-6.24.108-13.35 2.355-21.131 7.366 35.043 9.984 36.502 44.204 14.556 79.999 48.548-26.115 40.263-87.944 6.573-87.365zm-268.304 3.074c-36.115-.506-51.282 55.769-13.197 79.483-10.952-31.017 5.71-60.988 27.39-76.56-5.007-1.941-9.758-2.857-14.194-2.92zm161.445 92.31a64.5 64.5 0 0 0-7.881.595c-21.28 2.897-45.28 17.08-68.209 44.165-44.202 52.217-83.364 151.775-92.384 298.74 8.473-2.88 16.598-2.764 23.606-.3 5.283 1.857 9.885 4.552 14.157 7.51 4.99-71.028 13.052-141.708 30.14-210.849l.465.116-6.71 145.75.247.01c-2.74 25.8-4.841 51.763-6.556 77.84 7.208 4.718 14.428 7.997 23.457 8.139 9.734.154 22.576-3.515 40.252-15.694-16.663-91.579-21.277-181.228 3.911-264.882a36.36 36.36 0 0 1 .835-9.907c1.994-8.795 7.855-17.2 17.153-22.567l.004-.003 51.752-29.842 17.584-11.635c-12.604-11.845-26.62-17.392-41.821-17.189zm67.359 27.496c-2.976.17-4.861.522-6.847 1.665h-.008l-78.82 45.453c-5.315 3.07-7.468 6.584-8.397 10.687-.93 4.104-.27 9.056 1.866 13.643 4.273 9.175 12.971 15.303 21.99 12.886l6.821-1.824 57.076 98.81.036.062c8.423 15.11 10.413 28.546 8.502 40.062-1.908 11.515-7.062 20.65-11.17 29.191-4.108 8.542-7.32 16.362-7.587 25.957-.266 9.59 2.34 21.497 11.909 38.15l.01.02 17.447 29.904H65.167V479.224c-12.085-6.138-24.202-5.609-38.602-7.184-16.071-1.757-34.689-8.231-48.68-31.401l-.04-.065-48.507-83.457-52.521 30.325-9.208-15.947 52.476-30.297-.099-.169 7.094-4.823c3.849-2.615 5.471-5.533 6.167-9.195.694-3.66.114-8.165-1.714-12.453-3.653-8.579-11.66-14.883-18.896-14.483h-.005z" style="stroke-width:.985199;fill:#e64539;fill-opacity:1;filter:url(#a)"/></svg>