<svg width="512" height="512" version="1.1" id="svg8" xml:space="preserve" xmlns="http://www.w3.org/2000/svg"><defs id="defs12"><filter style="color-interpolation-filters:sRGB" id="filter875" x="-.313" y="-.169" width="1.609" height="1.328"><feFlood flood-opacity="1" flood-color="#3A3F5E" result="flood" id="feFlood865"/><feComposite in="flood" in2="SourceGraphic" operator="out" result="composite1" id="feComposite867"/><feGaussianBlur in="composite1" stdDeviation="15" result="blur" id="feGaussianBlur869"/><feOffset dx="0" dy="0" result="offset" id="feOffset871"/><feComposite in="offset" in2="SourceGraphic" operator="atop" result="composite2" id="feComposite873"/></filter><filter style="color-interpolation-filters:sRGB" id="filter1015" x="-.082" y="-.044" width="1.164" height="1.088"><feFlood flood-opacity="1" flood-color="#3A3F5E" result="flood" id="feFlood1005"/><feComposite in="flood" in2="SourceGraphic" operator="out" result="composite1" id="feComposite1007"/><feGaussianBlur in="composite1" stdDeviation="8.302" result="blur" id="feGaussianBlur1009"/><feOffset dx="0" dy="0" result="offset" id="feOffset1011"/><feComposite in="offset" in2="SourceGraphic" operator="atop" result="composite2" id="feComposite1013"/></filter><filter style="color-interpolation-filters:sRGB" id="filter35638" x="-.057" y="-.131" width="1.114" height="1.261"><feFlood flood-opacity="1" flood-color="#3A3F5E" result="flood" id="feFlood35628"/><feComposite in="flood" in2="SourceGraphic" operator="out" result="composite1" id="feComposite35630"/><feGaussianBlur in="composite1" stdDeviation="6" result="blur" id="feGaussianBlur35632"/><feOffset dx="0" dy="0" result="offset" id="feOffset35634"/><feComposite in="offset" in2="SourceGraphic" operator="atop" result="composite2" id="feComposite35636"/></filter><filter style="color-interpolation-filters:sRGB" id="filter35813" x="-.053" y="-.07" width="1.107" height="1.139"><feFlood flood-opacity="1" flood-color="#3A3F5E" result="flood" id="feFlood35803"/><feComposite in="flood" in2="SourceGraphic" operator="out" result="composite1" id="feComposite35805"/><feGaussianBlur in="composite1" stdDeviation="8" result="blur" id="feGaussianBlur35807"/><feOffset dx="0" dy="0" result="offset" id="feOffset35809"/><feComposite in="offset" in2="SourceGraphic" operator="atop" result="composite2" id="feComposite35811"/></filter><filter style="color-interpolation-filters:sRGB" id="filter36051" x="-.028" y="-.039" width="1.056" height="1.078"><feFlood flood-opacity="1" flood-color="#3A3F5E" result="flood" id="feFlood36041"/><feComposite in="flood" in2="SourceGraphic" operator="out" result="composite1" id="feComposite36043"/><feGaussianBlur in="composite1" stdDeviation="6" result="blur" id="feGaussianBlur36045"/><feOffset dx="0" dy="0" result="offset" id="feOffset36047"/><feComposite in="offset" in2="SourceGraphic" operator="atop" result="composite2" id="feComposite36049"/></filter><filter style="color-interpolation-filters:sRGB" id="filter36337" x="-.031" y="-.031" width="1.062" height="1.062"><feFlood flood-opacity="1" flood-color="#3A3F5E" result="flood" id="feFlood36327"/><feComposite in="flood" in2="SourceGraphic" operator="out" result="composite1" id="feComposite36329"/><feGaussianBlur in="composite1" stdDeviation="6" result="blur" id="feGaussianBlur36331"/><feOffset dx="0" dy="0" result="offset" id="feOffset36333"/><feComposite in="offset" in2="SourceGraphic" operator="atop" result="composite2" id="feComposite36335"/></filter><filter style="color-interpolation-filters:sRGB" id="filter1651" x="-.065" y="-.053" width="1.131" height="1.106"><feFlood flood-opacity="1" flood-color="#3A3F5E" result="flood" id="feFlood1641"/><feComposite in="flood" in2="SourceGraphic" operator="out" result="composite1" id="feComposite1643"/><feGaussianBlur in="composite1" stdDeviation="23.919" result="blur" id="feGaussianBlur1645"/><feOffset dx="0" dy="0" result="offset" id="feOffset1647"/><feComposite in="offset" in2="SourceGraphic" operator="atop" result="composite2" id="feComposite1649"/></filter><filter style="color-interpolation-filters:sRGB" id="filter2460" x="-.055" y="-.048" width="1.11" height="1.096"><feFlood flood-opacity="1" flood-color="#3A3F5E" result="flood" id="feFlood2450"/><feComposite in="flood" in2="SourceGraphic" operator="out" result="composite1" id="feComposite2452"/><feGaussianBlur in="composite1" stdDeviation="23.919" result="blur" id="feGaussianBlur2454"/><feOffset dx="0" dy="0" result="offset" id="feOffset2456"/><feComposite in="offset" in2="SourceGraphic" operator="atop" result="composite2" id="feComposite2458"/></filter><filter style="color-interpolation-filters:sRGB" id="filter3393" x="-.044" y="-.048" width="1.087" height="1.096"><feFlood flood-opacity="1" flood-color="#3A3F5E" result="flood" id="feFlood3383"/><feComposite in="flood" in2="SourceGraphic" operator="out" result="composite1" id="feComposite3385"/><feGaussianBlur in="composite1" stdDeviation="20.325" result="blur" id="feGaussianBlur3387"/><feOffset dx="0" dy="0" result="offset" id="feOffset3389"/><feComposite in="offset" in2="SourceGraphic" operator="atop" result="composite2" id="feComposite3391"/></filter><filter style="color-interpolation-filters:sRGB" id="filter4405" x="-.046" y="-.046" width="1.093" height="1.093"><feFlood flood-opacity="1" flood-color="#3A3F5E" result="flood" id="feFlood4395"/><feComposite in="flood" in2="SourceGraphic" operator="out" result="composite1" id="feComposite4397"/><feGaussianBlur in="composite1" stdDeviation="20.325" result="blur" id="feGaussianBlur4399"/><feOffset dx="0" dy="0" result="offset" id="feOffset4401"/><feComposite in="offset" in2="SourceGraphic" operator="atop" result="composite2" id="feComposite4403"/></filter><filter style="color-interpolation-filters:sRGB" id="filter6546" x="-.045" y="-.041" width="1.09" height="1.083"><feFlood flood-opacity="1" flood-color="#3A3F5E" result="flood" id="feFlood6536"/><feComposite in="flood" in2="SourceGraphic" operator="out" result="composite1" id="feComposite6538"/><feGaussianBlur in="composite1" stdDeviation="18.8" result="blur" id="feGaussianBlur6540"/><feOffset dx="0" dy="0" result="offset" id="feOffset6542"/><feComposite in="offset" in2="SourceGraphic" operator="atop" result="composite2" id="feComposite6544"/></filter><filter style="color-interpolation-filters:sRGB" id="filter7837" x="-.047" y="-.052" width="1.094" height="1.105"><feFlood flood-opacity="1" flood-color="#3A3F5E" result="flood" id="feFlood7827"/><feComposite in="flood" in2="SourceGraphic" operator="out" result="composite1" id="feComposite7829"/><feGaussianBlur in="composite1" stdDeviation="18.8" result="blur" id="feGaussianBlur7831"/><feOffset dx="0" dy="0" result="offset" id="feOffset7833"/><feComposite in="offset" in2="SourceGraphic" operator="atop" result="composite2" id="feComposite7835"/></filter><filter style="color-interpolation-filters:sRGB" id="filter9439" x="-.094" y="-.081" width="1.189" height="1.162"><feFlood flood-opacity="1" flood-color="#3A3F5E" result="flood" id="feFlood9429"/><feComposite in="flood" in2="SourceGraphic" operator="out" result="composite1" id="feComposite9431"/><feGaussianBlur in="composite1" stdDeviation="14.9" result="blur" id="feGaussianBlur9433"/><feOffset dx="0" dy="0" result="offset" id="feOffset9435"/><feComposite in="offset" in2="SourceGraphic" operator="atop" result="composite2" id="feComposite9437"/></filter></defs><path d="M0 0h512v512H0z" fill="#b90202" fill-opacity="1" id="path2" style="fill:#1b1f21;fill-opacity:1"/><style type="text/css" id="style35976">.st0{fill:#000}</style><path d="M381.694 248.349H427.4v-30.472s-38.09-30.47-45.707-76.178c-5.18-31.004 0-91.413 0-91.413a15.279 15.279 0 0 0-15.236-15.236H343.68l-6.78 81.435a30.508 30.508 0 0 1-7.718 17.8c-7.961 7.61-11.678 11.229-19.951 12.783-1.828.327-12.692 35.421-12.692 35.421s-18.92-26.188-21.898-28.91c-5.253-4.8-3.248-3.419-11.16-3.326-17.627-.207-38.871-2.98-56.162-6.42a30.512 30.512 0 0 1-24.605-27.348l-6.78-81.435h-22.777a15.278 15.278 0 0 0-15.236 15.236s10.647 79.518-.095 111.817c-2.403 6.473 23.998 61.516 23.998 61.516s-44.966-24.365-51.425-22.126c-12.699 4.4-13.382 5.818-25.802 16.384v30.472h45.707v190.445H84.598v22.853a889.487 889.487 0 0 0 175.21 15.236c24.986-5.294 37.129-14.292 75.18-37.998 0 0 19.392 30.193 22.19 29.94 28.032-2.543 42.544-1.867 70.221-7.178v-22.853h-45.707zm-173.836-50.227 148.062-2.813-32.38 49.992-143.042-1.438zm122.32 223.221L168.7 423.558c-2.722.038-5.236-1.452-6.597-3.809a7.62 7.62 0 0 1 0-7.617c1.361-2.357 3.877-3.9 6.597-3.81l150.27 5.057c9.388.42 14.004 1.92 11.208 7.964zm20.74-35.874H168.7a7.619 7.619 0 0 1 0-15.235h182.218a7.619 7.619 0 0 1 0 15.235zm0-38.089H168.7s-4.735-1.695-3.376-4.983c1.36-3.289 9.97-2.379 15.052-2.918 58.729-6.23 175.778-5.882 177.14-3.526a7.62 7.62 0 0 1-6.597 11.427zm0-38.089H168.7a7.619 7.619 0 0 1 0-15.236c18.676 1.755 187.96 12.566 187.96 12.566s-3.02 2.67-5.742 2.67zM197.952 115.19l-6.702-80.14a225.165 225.165 0 0 0 68.56 15.236 225.167 225.167 0 0 0 68.56-15.236l-6.703 80.14a15.136 15.136 0 0 1-12.188 13.712c-16.368 3.213-29.317 5.883-45.995 6.115-16.678-.232-36.975-2.902-53.342-6.116a15.138 15.138 0 0 1-12.188-13.712zm238.433 151.937 8.217 64.84-47.672.179v-68.56zm-39.455 87.872 47.672-.179v68.56l-47.672.18zm-281.86-22.853-42.517-1.24-4.134-67.934 46.652.613zm0 91.413-49.38-.606 11.007-70.112 38.374 2.158z" id="path8883" style="fill:#e64539;fill-opacity:1;stroke-width:.406282;filter:url(#filter9439)"/></svg>