<svg version="1.2" viewBox="-421 153 512 512" xml:space="preserve" width="512" height="512" xmlns="http://www.w3.org/2000/svg"><defs><filter style="color-interpolation-filters:sRGB" id="a" x="-.052" y="-.122" width="1.105" height="1.243"><feFlood flood-opacity="1" flood-color="#3A3F5E" result="flood"/><feComposite in="flood" in2="SourceGraphic" operator="out" result="composite1"/><feGaussianBlur in="composite1" stdDeviation="2.5" result="blur"/><feOffset result="offset"/><feComposite in="offset" in2="SourceGraphic" operator="atop" result="composite2"/></filter></defs><path d="M0 0h512v512H0Z" fill="#b90202" style="fill:#1b1f21;fill-opacity:1" transform="translate(-421.001 152.999)"/><g style="fill:#000"><path d="M40.457 8.499c-1.748-1.748-4.97-.82-8.097.07l-.784.227c-2.402.666-6.015.488-10.188.274-2.366-.12-62.815-4.318-65.644-4.318h-1.7c-1.047 0-2.58-.012-4.363.154-.048 0-.096.012-.143.012-3.84.535-9.915 2.236-13.66 7.573a1.201 1.201 0 0 1-.975.511c-.238 0-.475-.07-.678-.213a1.176 1.176 0 0 1-.297-1.653c1.7-2.425 3.816-4.185 6.004-5.457a52.51 52.51 0 0 1-2.83-.76l-1.473-.417c-3.127-.892-6.35-1.819-8.097-.071-1.26 1.248-.749 3.233-.261 5.16.202.796.416 1.616.511 2.365.13 1.094-.107 2.746-.404 4.839-.356 2.508-.796 5.647-.796 9.284 0 .607.07 3.888 1.402 7.36.012.011.012.023.024.047 1.225 2.544 3.281 5.29 6.3 7.014a1.2 1.2 0 0 1 .44 1.629 1.2 1.2 0 0 1-1.629.44c-1.925-1.094-3.506-2.545-4.766-4.126-.06.19-.107.369-.166.559-.203.677-.417 1.39-.56 2.092-.059.297-.178.666-.297 1.07-.534 1.736-1.272 4.114.202 5.576.725.713 1.7.974 2.818.974 1.593 0 3.471-.534 5.302-1.057l.761-.226c2.401-.678 6.015-.488 10.188-.274 2.366.12 5.053.25 7.882.25h1.26c2.842 0 63.279 3.937 65.645 3.818 1.046-.06 2.056-.107 3.02-.143a73.62 73.62 0 0 1 2.733-.059c1.914.012 3.33.167 4.435.476l.761.225c3.127.892 6.348 1.82 8.12.084.166-.167.297-.333.404-.523.261-.417.368-.892.404-1.368v-.011a3.23 3.23 0 0 0-.012-.678v-.012c-.292-1.682-1.498-3.697-2.307-4.91-2.044-3.067-3.482-5.373-3.482-7.026a1.19 1.19 0 0 1 1.188-1.188c.654 0 1.189.534 1.189 1.188 0 .82 1.117 2.687 2.2 4.351.558-3.602 1.366-8.952 1.366-11.484 0-3.638-.44-6.776-.796-9.285-.297-2.092-.535-3.745-.404-4.838.095-.75.309-1.57.511-2.366.487-1.926.999-3.911-.261-5.16zM27.91 23.854a8.387 8.387 0 0 1 2.21 6.048 8.414 8.414 0 1 1-2.21-6.048zM9.175 13.958a6.95 6.95 0 0 1 1.409 1.941c.466.976.67 2.15.612 3.521l-.77 18.158c-.055 1.312-.36 2.51-.913 3.591-1.788 3.205-5.002 5.006-8.496 4.882l-24.062-1.02c-3.8-.776-2.574-5.11.216-5.098l22.72.963c1.313-.335.881-2.86.125-2.952l-52.15-2.21c-5.298-.862-3.443-7.677.416-7.69l31.934 1.354c2.078-.353 1.265-3.288.055-3.403-10.62-.327-21.234-.81-31.849-1.26-5.269-.91-3.623-7.701.237-7.697L.813 19.16c1.284-.347.896-2.686.117-2.773l-22.72-.963c-3.8-.776-2.574-5.11.216-5.099l24.062 1.02c2.506.153 4.988.96 6.687 2.614z" style="stroke-width:1.18883;fill:#e64539;fill-opacity:1;filter:url(#a)" transform="rotate(-45 237.84 381.93) scale(4.13311)"/></g></svg>