<svg width="512" height="512" xmlns="http://www.w3.org/2000/svg"><defs><filter style="color-interpolation-filters:sRGB" id="a" x="-.048" y="-.048" width="1.096" height="1.095"><feFlood flood-opacity="1" flood-color="#3A3F5E" result="flood"/><feComposite in="flood" in2="SourceGraphic" operator="out" result="composite1"/><feGaussianBlur in="composite1" stdDeviation="9.472" result="blur"/><feOffset result="offset"/><feComposite in="offset" in2="SourceGraphic" operator="atop" result="composite2"/></filter></defs><path d="M0 0h512v512H0z" fill="#b90202" style="fill:#1b1f21;fill-opacity:1"/><path d="m137.235 17.484-15.313 78.782 20.313 56.876h45.97zm-63.25 1.72-54.5 359.156v116.156h208L209.61 386.704h-96.845l-2.218-6.156-25.78-71.594 17.562-6.344 23.562 65.406h90.344l230.688-2.968 9.812-33.406h-178.75v-18.688h184.22l7.374-25.156-54.564-78.094h-124.06L270.61 172.11h-75.28l-.095-.28h-46.313l10.126 28.374-17.593 6.28-26.532-74.25-.126.72zm133.375 178.22h56.094l21.405 38.874-26.094-.438-51.405-38.437zm230.47 12.28 38.53 55.094 16.155-55.094h-54.686zm-82.814 15.938c6.613 0 11.97 5.356 11.97 11.968 0 6.613-5.357 11.97-11.97 11.97-6.61 0-11.967-5.357-11.967-11.97 0-6.612 5.356-11.97 11.968-11.97zm44.595 0c6.612 0 12 5.356 12 11.968 0 6.613-5.388 11.97-12 11.97s-11.97-5.357-11.97-11.97c0-6.612 5.358-11.97 11.97-11.97zm-66.188 29.187c6.612 0 11.97 5.356 11.97 11.97 0 6.61-5.358 11.967-11.97 11.967-6.61 0-11.968-5.356-11.968-11.968 0-6.613 5.356-11.97 11.967-11.97zm43.125 0c6.612 0 12 5.356 12 11.97 0 6.61-5.388 11.967-12 11.967-6.61 0-11.968-5.356-11.968-11.968 0-6.613 5.357-11.97 11.97-11.97zm42.063 0c6.612 0 11.97 5.356 11.97 11.97 0 6.61-5.358 11.967-11.97 11.967-6.612 0-11.97-5.356-11.97-11.968 0-6.613 5.358-11.97 11.97-11.97z" style="fill:#e64539;fill-opacity:1;filter:url(#a)"/></svg>