<svg width="512" height="512" enable-background="new 0 0 128 128" xml:space="preserve" xmlns="http://www.w3.org/2000/svg"><defs><filter style="color-interpolation-filters:sRGB" id="a" x="-.054" y="-.049" width="1.108" height="1.099"><feFlood flood-opacity="1" flood-color="#3A3F5E" result="flood"/><feComposite in="flood" in2="SourceGraphic" operator="out" result="composite1"/><feGaussianBlur in="composite1" stdDeviation="9.574" result="blur"/><feOffset result="offset"/><feComposite in="offset" in2="SourceGraphic" operator="atop" result="composite2"/></filter></defs><path d="M0 0h512v512H0Z" fill="#b90202" style="fill:#1b1f21;fill-opacity:1"/><path d="M257.148 377.837s2.558 15.474 27.532 33.667c0 0 5.704 54.842 30.407 55.385 0 0 6.514-.271 5.703-5.975-.69-4.845-2.17-11.946 2.714-14.116 6.553-2.912 18.188-.271 18.46 10.859.272 11.13 0 26.605-22.261 30.678 0 0-19.82 2.714-29.867-11.402-10.048-14.116-28.892-58.914-32.693-65.977-3.8 7.058-22.649 51.856-32.692 65.977-10.044 14.12-29.867 11.402-29.867 11.402-22.261-4.073-22.533-19.547-22.261-30.678.272-11.13 11.907-13.775 18.46-10.859 4.888 2.17 3.408 9.271 2.714 14.116-.816 5.704 5.703 5.975 5.703 5.975 24.707-.543 30.406-55.385 30.406-55.385 24.988-18.193 27.542-33.667 27.542-33.667zm39.004-303.89-.436-15.992c-19.845-22.26-38.62-34.5-38.62-34.5s-84.437 55.049-84.437 143.968c0 66.347 30.044 91.386 30.044 91.386s6.26 12.52-9.388 21.282c0 0 2.503 19.405 12.52 31.295 0 0-5.009 8.136-16.898 6.885-11.895-1.251-45.696-9.387-42.564-47.572 3.132-38.185 13.77-60.092 10.013-90.136-3.757-30.043-20.66-60.717-47.572-59.466-26.916 1.251-44.479 21.74-45.065 39.436-.626 18.78 13.145 33.176 27.541 33.176s18.154-7.511 17.524-11.894c-.625-4.384-1.877-8.137-10.643-8.762-8.766-.626-12.52-3.758-12.52-10.643 0-6.886 4.384-15.648 20.031-15.022 15.647.625 25.665 29.418 23.784 43.189-1.877 13.77-15.647 63.22-13.145 80.743 2.502 17.529 6.885 57.586 60.717 71.982 0 0 28.167 6.885 38.81-5.009 0 0-4.383 12.52 2.502 23.158 0 0 3.94 22.469-23.783 32.55-20.657 7.512-55.71 10.014-59.462-10.012 0 0-1.808-19.833 11.268-17.529 10.643 1.877 13.145 10.643 9.388 19.405 0 0 11.268 11.269 23.158.626 0 0 7.024-39.656-34.427-41.313-31.295-1.25-33.176 31.295-33.176 36.93 0 5.634-.625 35.678 53.207 40.06 53.832 4.384 78.806-35.677 92.573-60.717 13.77 25.04 38.745 65.097 92.573 60.718 53.827-4.379 53.206-34.427 53.206-40.061 0-5.635-1.876-38.18-33.176-36.93-41.45 1.657-34.426 41.313-34.426 41.313 11.894 10.643 23.158-.626 23.158-.626-3.758-8.762-1.251-17.528 9.387-19.405 13.077-2.308 11.269 17.529 11.269 17.529-3.758 20.03-38.81 17.524-59.462 10.013-27.723-10.082-23.784-32.55-23.784-32.55 6.886-10.644 2.502-23.159 2.502-23.159 10.643 11.894 38.81 5.009 38.81 5.009 53.828-14.392 58.211-54.453 60.714-71.977 2.502-17.525-11.269-66.978-13.146-80.744-1.876-13.77 8.137-42.563 23.784-43.189 15.648-.626 20.03 8.136 20.03 15.022 0 6.885-3.757 10.013-12.519 10.643-8.762.63-10.013 4.383-10.643 8.762-.625 4.383 3.128 11.894 17.524 11.894 14.397 0 28.167-14.396 27.542-33.176-.591-17.692-18.154-38.18-45.066-39.435-26.916-1.252-43.814 29.418-47.572 59.461-3.758 30.044 6.885 51.951 10.013 90.136 3.128 38.18-30.67 46.321-42.563 47.572-11.894 1.251-16.899-6.885-16.899-6.885 10.013-11.894 12.52-31.295 12.52-31.295-15.648-8.762-9.388-21.282-9.388-21.282s30.044-25.04 30.044-91.386c0-37.542-15.052-69.044-32.447-92.919zM242.919 298.56l-8.145 13.033s-21.178-12.49-20.09-22.805c1.087-10.315 4.344-9.776 5.974-9.776 1.631 0 22.261 19.548 22.261 19.548zm52.629-19.548c1.63 0 4.888-.543 5.975 9.776 1.087 10.315-20.091 22.805-20.091 22.805l-8.145-13.033s20.63-19.548 22.26-19.548zM64.542 372.953c-1.63-19.004 27.421-41.27 30.95-44.526 3.529-3.258 2.295-6.77.544-9.776-1.903-3.257-7.602-4.345-13.033-3.257-6.217 1.242-43.44 21.178-40.454 61.36 2.985 40.182 37.468 62.715 67.33 62.175 29.868-.543 36.11-9.776 36.11-9.776-8.689-1.902-25.25-12.76-25.25-12.76-35.834 1.626-54.57-24.436-56.197-43.44Zm382.916 0c1.63-19.004-27.421-41.27-30.95-44.526-3.529-3.258-2.295-6.77-.544-9.776 1.903-3.257 7.602-4.345 13.033-3.257 6.217 1.242 43.44 21.178 40.454 61.36-2.985 40.182-37.468 62.715-67.33 62.175-29.868-.543-39.2-7.873-39.2-7.873 8.69-1.903 28.237-11.946 28.237-11.946 35.838 1.627 54.673-27.153 56.3-46.157z" style="stroke-width:4.31415;fill:#e64539;fill-opacity:1;filter:url(#a)"/></svg>