<svg width="512" height="512" xmlns="http://www.w3.org/2000/svg"><defs><filter style="color-interpolation-filters:sRGB" id="a" x="-.074" y="-.074" width="1.148" height="1.148"><feFlood flood-opacity="1" flood-color="#3A3F5E" result="flood"/><feComposite in="flood" in2="SourceGraphic" operator="out" result="composite1"/><feGaussianBlur in="composite1" stdDeviation="14.95" result="blur"/><feOffset result="offset"/><feComposite in="offset" in2="SourceGraphic" operator="atop" result="composite2"/></filter></defs><path d="M0 0h512v512H0z" fill="#b90202" style="fill:#1b1f21;fill-opacity:1"/><path d="m256.04 13.512-22.316 51.056c-42.626 4.47-81.168 22.782-111.04 50.36l-16.64-16.64-13.213 13.215 16.743 16.745C83.491 157.415 66.09 194.5 61.458 235.422l-47.944 20.956L61.23 277.23c4.285 42.03 22.02 80.115 48.835 109.87l-17.234 17.237 13.213 13.215 17.18-17.18c30.096 27.574 68.902 45.784 111.78 49.992l21.034 48.125 21.224-48.558c40.46-4.83 77.114-22.153 106.002-47.988l15.61 15.61 13.214-13.216-15.504-15.504c27.326-29.6 45.554-67.712 50.235-109.875l51.666-22.583-51.907-22.687c-5.02-41.053-22.904-78.167-49.49-107.184l15-15-13.212-13.217-15.055 15.056c-28.666-25.833-65.062-43.238-105.265-48.31l-22.52-51.523zm-21.453 69.752 21.452 49.078 21.26-48.64c35.623 4.698 67.85 20.063 93.368 42.796l-18.664 18.664a150.52 150.52 0 0 1 13.342 13.088l18.606-18.605c23.548 25.954 39.397 59.022 43.996 95.625l-48.287 21.105 48.52 21.207c-4.306 37.634-20.492 71.617-44.733 98.11l-17.45-17.453a150.93 150.93 0 0 1-13.263 13.169l17.38 17.38c-25.155 22.216-56.75 37.312-91.66 42.152l-22.413-51.282-22.618 51.746c-37.173-4.36-70.762-20.32-97.054-44.176l17.172-17.17a151.078 151.078 0 0 1-13.086-13.345l-17.235 17.235c-23.037-25.86-38.51-58.61-42.977-94.8l52.1-22.77-51.852-22.663c4.74-35.169 19.882-67 42.238-92.314l18.373 18.374c4.112-4.69 8.51-9.116 13.17-13.26l-18.45-18.45c26.647-24.38 60.872-40.61 98.766-44.801zm22.555 69.2c-58.85 0-106.355 47.504-106.355 106.353 0 58.847 47.506 106.354 106.355 106.354 58.85 0 106.356-47.507 106.356-106.355 0-58.85-47.506-106.355-106.355-106.355zm-1.596 41.235a64.55 64.55 0 0 1 19.13 2.89c-9.224 1.827-16.944 7.813-21.138 15.924-24.378 1.245-43.942 21.578-43.942 46.25 0 25.466 20.844 46.312 46.31 46.312 25.467 0 46.313-20.846 46.313-46.312 0-3.337-.365-6.59-1.045-9.733 6.114-5.575 9.95-13.606 9.95-22.534 0-.49-.015-.977-.038-1.46a64.488 64.488 0 0 1 9.43 33.634c0 35.772-29.2 64.97-64.97 64.97-35.772 0-64.97-29.198-64.97-64.97s29.198-64.97 64.97-64.97zm-4.964 37.95c2.45 14.385 14.968 25.34 30.05 25.34.953 0 1.896-.05 2.827-.136.043.63.07 1.266.07 1.91 0 15.366-12.256 27.623-27.622 27.623s-27.62-12.258-27.62-27.624c0-13.541 9.52-24.663 22.296-27.113z" style="stroke-width:1;fill:#e64539;fill-opacity:1;filter:url(#a)"/></svg>