<svg viewBox="0 0 512 512" style="height:512px;width:512px" version="1.1" id="svg21" xml:space="preserve" xmlns="http://www.w3.org/2000/svg"><defs id="defs13"><filter id="shadow-1" height="1.183" width="1.156" x="-.078" y="-.092"><feFlood flood-color="rgba(58, 63, 94, 1)" result="flood" id="feFlood2"/><feComposite in="flood" in2="SourceGraphic" operator="out" result="composite" id="feComposite4"/><feGaussianBlur in="composite" stdDeviation="15" result="blur" id="feGaussianBlur6"/><feOffset dx="0" dy="0" result="offset" id="feOffset8"/><feComposite in2="SourceGraphic" in="offset" operator="atop" id="feComposite10"/></filter><filter style="color-interpolation-filters:sRGB" id="filter1063" x="-.078" y="-.075" width="1.156" height="1.15"><feFlood flood-opacity="1" flood-color="#3A3F5E" result="flood" id="feFlood1053"/><feComposite in="flood" in2="SourceGraphic" operator="out" result="composite1" id="feComposite1055"/><feGaussianBlur in="composite1" stdDeviation="14.299" result="blur" id="feGaussianBlur1057"/><feOffset dx="0" dy="0" result="offset" id="feOffset1059"/><feComposite in="offset" in2="SourceGraphic" operator="atop" result="composite2" id="feComposite1061"/></filter></defs><path d="M0 0h512v512H0z" fill="#1b1f21" fill-opacity="1" id="path15"/><style type="text/css" id="style347">.st0{fill:none;stroke:#000;stroke-width:2;stroke-linecap:round;stroke-linejoin:round;stroke-miterlimit:10}</style><path id="path349" style="fill:#e64539;stroke-width:15.7267;fill-opacity:1;filter:url(#filter1063)" d="M256 27.963c-9.436 0-15.727 6.29-15.727 15.726v12.582c0 44.035 14.154 86.497 39.317 121.096-7.863 33.026-28.307 64.48-56.615 83.352l-1.575 1.572c-20.444 11.009-44.033 15.725-67.623 12.58l-17.3-1.572c-26.736-6.29-55.042 1.573-73.915 20.445-17.299 17.3-26.736 39.316-26.736 62.906v111.66c0 9.437 6.29 15.727 15.727 15.727h62.906c9.436 0 15.727-6.29 15.727-15.726v-67.625c0-3.146 1.573-3.147 3.146-4.72 1.573 0 3.144-1.572 4.717 0 31.453 25.163 70.771 40.89 110.088 44.036 86.496 12.581 163.558-25.163 204.447-97.506 15.727-28.308 23.59-61.333 23.59-94.36 0-59.76-50.326-110.087-111.66-110.087h-7.864c-6.29-11.009-22.017-37.743-22.017-88.069v-6.29c0-9.437-6.29-15.727-15.727-15.727H256zm35.693 208.26a8.316 8.316 0 0 1 8.317 8.316v8.318h49.906v-8.318a8.317 8.317 0 0 1 8.318-8.316 8.316 8.316 0 0 1 8.317 8.316v8.42c.465.02.916.046 1.351.076 2.743.187 5.486.598 8.198 1.72a24.951 24.951 0 0 1 13.504 13.505c1.122 2.71 1.534 5.456 1.722 8.199.03.435.056.886.076 1.352h8.42a8.316 8.316 0 0 1 8.317 8.316 8.317 8.317 0 0 1-8.317 8.318h-8.318v49.905h8.318a8.317 8.317 0 0 1 8.317 8.318 8.317 8.317 0 0 1-8.317 8.318h-8.42c-.02.465-.047.915-.076 1.35-.188 2.743-.6 5.488-1.722 8.2a24.951 24.951 0 0 1-13.504 13.503c-2.712 1.123-5.455 1.535-8.198 1.723a63.36 63.36 0 0 1-1.351.074v8.42a8.317 8.317 0 1 1-16.635 0v-8.318H300.01v8.318a8.317 8.317 0 1 1-16.635 0v-8.42c-.465-.02-.915-.045-1.35-.074-2.743-.188-5.488-.6-8.199-1.723a24.951 24.951 0 0 1-13.504-13.504c-1.123-2.711-1.535-5.456-1.722-8.2-.03-.434-.054-.884-.075-1.349h-8.42a8.319 8.319 0 0 1 0-16.636h8.317v-49.905h-8.317a8.317 8.317 0 1 1 0-16.635h8.42c.021-.465.045-.916.075-1.351.187-2.743.6-5.488 1.722-8.2a24.951 24.951 0 0 1 13.504-13.503c2.711-1.123 5.456-1.534 8.2-1.72.434-.03.884-.056 1.349-.077v-8.42a8.317 8.317 0 0 1 8.318-8.316zm33.004 49.904c-3.648 0-6.796 0-9.402.178-2.743.187-5.488.6-8.2 1.722a24.951 24.951 0 0 0-13.503 13.504c-1.123 2.711-1.534 5.454-1.72 8.198-.179 2.605-.179 5.754-.179 9.402v.533c0 3.648 0 6.797.178 9.402.187 2.744.598 5.488 1.72 8.2a24.948 24.948 0 0 0 13.505 13.502c2.71 1.122 5.456 1.534 8.199 1.722 2.606.177 5.754.178 9.402.178h.532c3.648 0 6.796 0 9.402-.178 2.743-.188 5.488-.6 8.2-1.722a24.945 24.945 0 0 0 13.503-13.502c1.123-2.712 1.535-5.456 1.723-8.2.177-2.605.177-5.754.177-9.402v-.533c0-3.648 0-6.797-.177-9.402-.188-2.744-.6-5.487-1.723-8.198a24.951 24.951 0 0 0-13.504-13.504c-2.711-1.123-5.456-1.535-8.2-1.722-2.605-.178-5.753-.178-9.401-.178h-.532zm.266 16.635c3.989 0 6.565.006 8.535.14 1.896.13 2.619.35 2.965.493a8.321 8.321 0 0 1 4.502 4.501c.143.346.364 1.069.494 2.965.135 1.97.139 4.548.139 8.537 0 3.99-.004 6.565-.139 8.536-.13 1.896-.351 2.618-.494 2.964a8.321 8.321 0 0 1-4.502 4.502c-.346.143-1.069.365-2.965.495-1.97.134-4.546.138-8.535.138-3.99 0-6.565-.004-8.535-.138-1.897-.13-2.62-.352-2.965-.495a8.321 8.321 0 0 1-4.502-4.502c-.143-.346-.364-1.068-.494-2.964-.135-1.97-.139-4.546-.139-8.536 0-3.989.004-6.566.139-8.537.13-1.896.35-2.619.494-2.965a8.321 8.321 0 0 1 4.502-4.501c.346-.144 1.068-.363 2.965-.493 1.97-.134 4.546-.14 8.535-.14z"/></svg>