<svg viewBox="0 0 512 512" style="height:512px;width:512px" xml:space="preserve" xmlns="http://www.w3.org/2000/svg"><defs><filter style="color-interpolation-filters:sRGB" id="a" x="-.059" y="-.048" width="1.119" height="1.096"><feFlood flood-opacity="1" flood-color="#3A3F5E" result="flood"/><feComposite in="flood" in2="SourceGraphic" operator="out" result="composite1"/><feGaussianBlur in="composite1" stdDeviation="9.788" result="blur"/><feOffset result="offset"/><feComposite in="offset" in2="SourceGraphic" operator="atop" result="composite2"/></filter></defs><path d="M0 0h512v512H0z" fill="#1b1f21"/><path d="M0 0h512v512H0Z" fill="#b90202" style="fill:#1b1f21;fill-opacity:1" transform="translate(-.001 2.748)"/><path style="fill:#e64539;fill-opacity:1;stroke-width:3.85001;filter:url(#a)" d="m333.43 7.185-80.207.068h-.002l-77.637-.064s11.345 80.402 77.82 80.402c68.162 0 80.026-80.406 80.026-80.406zm-176.758 99.451a98.261 98.261 0 0 0-98.563 98.56v241.01c0 18.865 15.016 34.65 34.65 34.65 19.636 0 34.651-15.015 34.651-34.65V224.831c0-5.39 4.622-10.01 10.012-10.01 5.39 0 10.008 4.62 10.008 10.01v273.4h98.56v-16.605c0-5.39 4.622-10.01 10.012-10.01 5.39 0 10.008 4.62 10.008 10.01v16.606h98.558v-273.4c0-5.39 4.622-10.01 10.012-10.01 5.39 0 10.01 4.62 10.01 10.01v221.76c0 18.864 15.015 34.65 34.65 34.65 19.635 0 34.65-15.016 34.65-34.65V205.196c-1.54-54.67-46.584-98.56-100.099-98.56h-197.12zm30.209 88.697h138.238c7.603 0 13.822 6.015 13.822 13.366v92.55c0 7.351-6.219 13.366-13.822 13.366H186.881c-7.603 0-13.822-6.015-13.822-13.366V208.7c0-7.351 6.219-13.366 13.822-13.366zm12.096 20.047c-2.765 0-5.184 2.339-5.184 5.012v69.162c0 2.673 2.419 5.014 5.184 5.014h114.046c2.765 0 5.184-2.341 5.184-5.014v-69.162c0-2.673-2.419-5.012-5.184-5.012H198.977zm15.207 16.707h14.17c1.727 0 3.455 1.335 3.455 3.34v39.092c0 2.005-1.728 3.342-3.455 3.342h-14.17c-2.074 0-3.457-1.671-3.457-3.342v-39.092c0-2.005 1.383-3.34 3.457-3.34zm37.67 0h45.962c1.728 0 3.457 1.335 3.457 3.34v39.092c0 2.005-1.729 3.342-3.457 3.342h-45.962c-2.074 0-3.458-1.337-3.458-3.342v-39.092c0-2.005 1.384-3.34 3.458-3.34z" transform="translate(0 2.749)"/></svg>