<svg version="1.2" viewBox="-421 153 512 512" xml:space="preserve" width="512" height="512" xmlns="http://www.w3.org/2000/svg"><defs><filter style="color-interpolation-filters:sRGB" id="a" x="-.059" y="-.048" width="1.119" height="1.096"><feFlood flood-opacity="1" flood-color="#3A3F5E" result="flood"/><feComposite in="flood" in2="SourceGraphic" operator="out" result="composite1"/><feGaussianBlur in="composite1" stdDeviation="9.788" result="blur"/><feOffset result="offset"/><feComposite in="offset" in2="SourceGraphic" operator="atop" result="composite2"/></filter></defs><path d="M0 0h512v512H0Z" fill="#b90202" style="fill:#1b1f21;fill-opacity:1" transform="translate(-421 153)"/><path style="fill:#e64539;fill-opacity:1;stroke-width:3.85001;filter:url(#a)" d="m333.43 7.186-80.207.068h-.002l-77.637-.065s11.345 80.403 77.82 80.403c68.161 0 80.026-80.406 80.026-80.406zm-176.758 99.45a98.262 98.262 0 0 0-98.563 98.561v241.01c0 18.865 15.016 34.65 34.65 34.65 19.635 0 34.651-15.015 34.651-34.65V224.832c0-5.39 4.622-10.01 10.012-10.01 5.39 0 10.008 4.62 10.008 10.01v273.4h98.56v-16.605c0-5.39 4.622-10.01 10.012-10.01 5.39 0 10.008 4.62 10.008 10.01v16.605h98.558v-273.4c0-5.39 4.622-10.01 10.012-10.01 5.39 0 10.01 4.62 10.01 10.01v221.76c0 18.865 15.016 34.65 34.65 34.65 19.635 0 34.65-15.015 34.65-34.65V205.197c-1.54-54.67-46.585-98.56-100.099-98.56h-197.12zm99.326 72.016c27.855 0 50.518 22.663 50.518 50.518s-22.663 50.518-50.518 50.518-50.518-22.663-50.518-50.518 22.663-50.518 50.518-50.518zm0 15.664c-3.598 4.538-8.623 13.4-9.783 28.352h19.566c-1.16-14.951-6.185-23.814-9.783-28.352zm-15.738.807c-10.955 5.084-19.061 15.301-21.21 27.545h14.13c.8-11.882 3.738-20.91 7.08-27.545zm31.476 0c3.342 6.635 6.28 15.663 7.08 27.545h14.13c-2.15-12.244-10.256-22.461-21.21-27.545zm-52.685 40.549c2.148 12.244 10.255 22.463 21.209 27.547-3.342-6.635-6.28-15.665-7.08-27.547h-14.13zm27.17 0c1.174 14.851 6.224 23.765 9.799 28.324 3.596-4.545 8.603-13.402 9.761-28.324h-19.56zm32.595 0c-.8 11.882-3.738 20.912-7.08 27.547 10.955-5.084 19.06-15.303 21.21-27.547h-14.13zm-85.017 26.67h13.004v22.523h-13.004v-22.523zm111.394 0h13.004v22.523h-13.004v-22.523zM193.8 296.334h13.004v22.523H193.8v-22.523zm27.851 0h13.004v22.523H221.65v-22.523zm27.846 0H262.5v22.523h-13.004v-22.523zm27.846 0h13.004v22.523h-13.004v-22.523zm27.851 0h13.004v22.523h-13.004v-22.523zM193.8 330.328h13.004v22.524H193.8v-22.524zm27.851 0h13.004v22.524H221.65v-22.524zm27.846 0H262.5v22.524h-13.004v-22.524zm27.846 0h13.004v22.524h-13.004v-22.524zm27.851 0h13.004v22.524h-13.004v-22.524zM184.58 365.045h142.84v13.004H184.58v-13.004z" transform="translate(-421 153)"/></svg>