<svg viewBox="0 0 512 512" style="height:512px;width:512px" xml:space="preserve" xmlns="http://www.w3.org/2000/svg"><defs><filter style="color-interpolation-filters:sRGB" id="a" x="-.059" y="-.048" width="1.119" height="1.096"><feFlood flood-opacity="1" flood-color="#3A3F5E" result="flood"/><feComposite in="flood" in2="SourceGraphic" operator="out" result="composite1"/><feGaussianBlur in="composite1" stdDeviation="9.788" result="blur"/><feOffset result="offset"/><feComposite in="offset" in2="SourceGraphic" operator="atop" result="composite2"/></filter></defs><path d="M0 0h512v512H0z" fill="#1b1f21"/><path d="M0 0h512v512H0Z" fill="#b90202" style="fill:#1b1f21;fill-opacity:1" transform="translate(-.001 2.748)"/><path style="fill:#e64539;fill-opacity:1;stroke-width:3.85001;filter:url(#a)" d="m333.43 7.185-80.207.068h-.002l-77.637-.064s11.345 80.402 77.82 80.402c68.161 0 80.026-80.406 80.026-80.406zm-176.758 99.451a98.262 98.262 0 0 0-98.563 98.56v241.01c0 18.865 15.016 34.65 34.65 34.65 19.636 0 34.651-15.015 34.651-34.65V224.831c0-5.39 4.622-10.01 10.012-10.01 5.39 0 10.008 4.62 10.008 10.01v273.4h98.56v-16.605c0-5.39 4.622-10.01 10.012-10.01 5.39 0 10.008 4.62 10.008 10.01v16.606h98.558v-273.4c0-5.39 4.622-10.01 10.012-10.01 5.39 0 10.01 4.62 10.01 10.01v221.76c0 18.864 15.015 34.65 34.65 34.65 19.635 0 34.65-15.016 34.65-34.65V205.196c-1.54-54.67-46.585-98.56-100.099-98.56h-197.12zm122.732 82.049c2.611.87 4.35 2.612 5.221 5.223v30.017l-2.176 2.176-6.525-6.525v-22.19l3.48-8.701zm23.838.484h34.645l-3.032 8.662h-28.582l-8.662-3.03c.866-3.032 2.6-4.764 5.631-5.632zm-109.601.147h22.914v3.818h7.636v3.82h3.82v3.819h3.82v3.818h3.817v7.639h3.82v26.732h-3.82v7.639h-3.818v15.275h-3.818v3.82h-45.828v-3.82h-3.82v-15.275h-3.82v-7.639h-3.817v-22.914h3.818v-11.457h3.818v-3.818h3.82v-3.819h3.819v-3.82h7.639v-3.818zm103.97 7.217 8.662 3.464v19.922l-6.496 6.496-2.166-2.166v-27.716zm-100.152.421v3.819h-7.639v3.818h-3.818v3.82h-3.818v11.458h-3.82v15.275h3.82v7.639h3.818v15.275h7.639v-7.639h7.636v7.639h7.639v-7.639h7.639v7.639h7.636v-15.275h3.82v-7.64h3.82v-19.095h-3.82v-7.637h-3.82v-3.82h-3.818v-3.818h-7.639v-3.819H197.46zm-7.639 19.094h11.457v11.457H189.82v-11.457zm19.096 0h11.457v11.457h-11.457v-11.457zm97.357 6.897h27.284l4.33 4.33-4.33 4.33h-27.284l-4.33-4.33 4.33-4.33zm-23.824 5.33 2.176 2.176v29.584c-.87 2.61-2.61 4.35-5.22 5.222l-3.481-8.265v-22.623l6.525-6.09v-.004zm17.328.3 6.496 6.063v20.356l-8.662 3.03v-27.282l2.166-2.166zm40.276 0 2.166 1.733v29.883c-.866 2.599-2.6 4.33-5.631 5.197l-3.031-8.662V234.64l6.496-6.063v-.001zm-138.776 6.569h7.639v7.639h-7.639v-7.64zm104.996 21.58h25.118l3.03 8.662H302.81c-2.6-.866-4.33-2.598-5.198-5.197l8.662-3.465z" transform="translate(0 2.749)"/></svg>