<svg viewBox="0 0 512 512" style="height:512px;width:512px" version="1.1" id="svg21" xml:space="preserve" xmlns="http://www.w3.org/2000/svg"><defs id="defs13"><symbol id="u" overflow="visible"><path d="M2.938-.172a2.172 2.172 0 0 1-.985.234C1.422.063 1-.081.688-.374c-.313-.3-.47-.707-.47-1.219 0-.508.157-.914.47-1.219.312-.3.734-.453 1.265-.453.176 0 .348.024.516.063.164.043.32.105.469.187v.657a1.512 1.512 0 0 0-.454-.22 1.44 1.44 0 0 0-.468-.077c-.293 0-.524.093-.688.28-.168.188-.25.45-.25.782 0 .324.082.586.25.781.164.188.395.282.688.282.164 0 .32-.024.468-.078.157-.051.305-.13.453-.235z" id="path3132"/></symbol><symbol id="c" overflow="visible"><path d="M2.156-1.75a.988.988 0 0 0-.203-.063.69.69 0 0 0-.203-.03c-.2 0-.352.07-.453.202-.106.125-.156.305-.156.532V0H.375v-2.406h.766V-2a.823.823 0 0 1 .328-.344.992.992 0 0 1 .468-.11h.079c.03 0 .078.009.14.017z" id="path3135"/></symbol><symbol id="a" overflow="visible"><path d="M2.766-1.203v.219H.969c.02.18.082.312.187.406.113.086.274.125.485.125.156 0 .316-.02.484-.063.176-.05.352-.125.531-.218v.593A3.7 3.7 0 0 1 2.094 0c-.18.04-.356.063-.532.063-.437 0-.777-.11-1.015-.329-.242-.218-.36-.53-.36-.937 0-.383.114-.688.344-.906.239-.227.567-.344.985-.344.382 0 .687.117.906.344.226.218.344.523.344.906zm-.782-.266a.442.442 0 0 0-.14-.343.426.426 0 0 0-.328-.141.522.522 0 0 0-.36.125.56.56 0 0 0-.172.36z" id="path3138"/></symbol><symbol id="k" overflow="visible"><path d="M1.438-1.078a.691.691 0 0 0-.36.078.272.272 0 0 0-.11.234c0 .106.032.184.094.235.063.054.149.078.266.078a.46.46 0 0 0 .36-.156A.536.536 0 0 0 1.843-1v-.078zm1.187-.297V0h-.781v-.36a1.049 1.049 0 0 1-.36.329 1.008 1.008 0 0 1-.453.094c-.25 0-.453-.07-.61-.22a.731.731 0 0 1-.234-.562c0-.281.094-.484.282-.61.195-.132.504-.202.922-.202h.453v-.063c0-.125-.047-.21-.14-.265-.095-.063-.247-.094-.454-.094-.168 0-.324.023-.469.062a1.433 1.433 0 0 0-.375.141v-.594c.156-.031.317-.054.485-.078.164-.02.332-.031.5-.031.437 0 .75.086.937.25.195.168.297.445.297.828z" id="path3141"/></symbol><symbol id="b" overflow="visible"><path d="M1.203-3.078v.672H2v.547h-.797v1.03c0 .106.02.18.063.22.05.043.14.062.265.062h.406V0h-.656C.97 0 .75-.063.625-.188S.437-.523.437-.828V-1.86H.062v-.547h.375v-.672z" id="path3144"/></symbol><symbol id="j" overflow="visible"><path d="M2-2.047v-1.281h.781V0H2v-.344a1.164 1.164 0 0 1-.344.313.974.974 0 0 1-.437.093.896.896 0 0 1-.735-.343C.297-.52.204-.828.204-1.203c0-.363.093-.66.28-.89a.889.889 0 0 1 .735-.36.93.93 0 0 1 .422.094.96.96 0 0 1 .359.312zM1.5-.5c.164 0 .29-.055.375-.172.082-.125.125-.3.125-.531 0-.227-.043-.399-.125-.516a.427.427 0 0 0-.375-.187c-.168 0-.293.062-.375.187-.086.117-.125.29-.125.516 0 .23.04.406.125.531.082.117.207.172.375.172z" id="path3147"/></symbol><symbol id="i" overflow="visible"><path d="M1.64-.5c.165 0 .29-.055.376-.172.093-.125.14-.3.14-.531 0-.227-.047-.399-.14-.516a.427.427 0 0 0-.375-.187.445.445 0 0 0-.375.187c-.086.117-.125.29-.125.516 0 .23.039.406.125.531A.453.453 0 0 0 1.64-.5zm-.5-1.547a.952.952 0 0 1 .344-.312c.133-.063.286-.094.453-.094a.88.88 0 0 1 .72.36c.195.23.296.527.296.89 0 .375-.101.683-.297.922a.888.888 0 0 1-.719.343c-.167 0-.32-.03-.453-.093a1.118 1.118 0 0 1-.343-.313V0H.375v-3.328h.766z" id="path3150"/></symbol><symbol id="h" overflow="visible"><path d="M.047-2.406h.781l.64 1.64.548-1.64h.765L1.766.234c-.094.258-.211.442-.344.547A.804.804 0 0 1 .89.953H.438V.438h.234C.805.438.898.414.953.375A.487.487 0 0 0 1.11.156l.016-.062z" id="path3153"/></symbol><symbol id="g" overflow="visible"><path d="M.406-3.203h2.219v.625h-1.39v.594h1.312v.625H1.234v.734h1.438V0H.406z" id="path3156"/></symbol><symbol id="f" overflow="visible"><path d="M2.781-1.469V0h-.765v-1.125A4.31 4.31 0 0 0 2-1.547a.49.49 0 0 0-.047-.172.281.281 0 0 0-.125-.11.335.335 0 0 0-.172-.046.46.46 0 0 0-.39.187c-.086.118-.125.282-.125.5V0H.375v-2.406h.766v.36c.113-.145.234-.25.359-.313.133-.063.281-.094.437-.094.282 0 .489.086.625.25.145.168.22.414.22.734z" id="path3159"/></symbol><symbol id="t" overflow="visible"><path d="M1.953.063h-.062C1.359.063.945-.082.656-.376.363-.665.22-1.07.22-1.594c0-.52.144-.926.437-1.219.29-.3.692-.453 1.203-.453.52 0 .926.149 1.22.438.288.293.437.703.437 1.234 0 .356-.079.664-.235.922a1.488 1.488 0 0 1-.656.594l.64.719H2.47zm-.094-2.72c-.25 0-.445.094-.578.282-.136.18-.203.437-.203.781s.067.61.203.797c.133.18.328.266.578.266.258 0 .457-.094.594-.282.133-.187.203-.445.203-.78 0-.345-.07-.602-.203-.782-.137-.188-.336-.281-.594-.281z" id="path3162"/></symbol><symbol id="s" overflow="visible"><path d="M.375-2.406h.766V0H.375zm0-.922h.766v.625H.375z" id="path3165"/></symbol><symbol id="e" overflow="visible"><path d="M.344-.938v-1.468h.765v1.124c0 .2.004.34.016.423a.462.462 0 0 0 .047.187.32.32 0 0 0 .125.125.4.4 0 0 0 .172.031.426.426 0 0 0 .375-.187c.093-.125.14-.297.14-.516v-1.187h.766V0h-.766v-.344a1.31 1.31 0 0 1-.375.313.93.93 0 0 1-.422.093c-.273 0-.48-.082-.625-.25C.414-.363.344-.613.344-.938z" id="path3168"/></symbol><symbol id="r" overflow="visible"><path d="M1.953-3.328v.5h-.422c-.117 0-.195.023-.234.062-.043.032-.063.102-.063.204v.156h.657v.547h-.657V0H.47v-1.86H.08v-.546h.39v-.156c0-.258.07-.454.218-.579.145-.125.368-.187.672-.187z" id="path3171"/></symbol><symbol id="d" overflow="visible"><path d="M1.516-1.906a.474.474 0 0 0-.407.187c-.086.117-.125.29-.125.516 0 .23.04.406.125.531a.474.474 0 0 0 .407.188.427.427 0 0 0 .375-.188c.093-.125.14-.3.14-.531 0-.227-.047-.399-.14-.516a.427.427 0 0 0-.375-.187zm0-.547c.406 0 .722.11.953.328.238.219.36.527.36.922 0 .398-.122.71-.36.937-.23.22-.547.329-.953.329-.418 0-.746-.11-.985-.329-.23-.226-.344-.539-.344-.937 0-.395.114-.703.344-.922.239-.219.567-.328.985-.328z" id="path3174"/></symbol><symbol id="q" overflow="visible"><path d="M2.594-2a.95.95 0 0 1 .344-.328.825.825 0 0 1 .437-.125c.281 0 .492.086.64.25.145.168.22.414.22.734v1.47h-.782v-1.392c0-.175-.027-.3-.078-.375-.043-.07-.121-.109-.234-.109a.388.388 0 0 0-.344.188c-.074.117-.11.289-.11.515V0h-.78v-1.25c0-.27-.028-.441-.079-.516-.043-.07-.12-.109-.234-.109a.388.388 0 0 0-.344.188c-.074.117-.11.28-.11.5V0H.36v-2.406h.78v.36a.933.933 0 0 1 .313-.298.811.811 0 0 1 .406-.109c.164 0 .313.043.438.125A.676.676 0 0 1 2.594-2z" id="path3177"/></symbol><symbol id="p" overflow="visible"><path d="M2.781-1.469V0h-.765v-1.11A4.63 4.63 0 0 0 2-1.546a.49.49 0 0 0-.047-.172.281.281 0 0 0-.125-.11.335.335 0 0 0-.172-.046.46.46 0 0 0-.39.187c-.086.118-.125.282-.125.5V0H.375v-3.328h.766v1.281c.113-.144.234-.25.359-.312.133-.063.281-.094.437-.094.282 0 .489.086.625.25.145.168.22.414.22.734z" id="path3180"/></symbol><symbol id="o" overflow="visible"><path d="M.406-3.203h.922L2.484-1v-2.203h.782V0h-.922L1.188-2.203V0H.406z" id="path3183"/></symbol><symbol id="n" overflow="visible"><path d="M.406-3.203h1.36c.414 0 .726.094.937.281.219.18.328.434.328.766 0 .336-.11.594-.328.781-.21.18-.523.266-.937.266h-.532V0H.406zm.828.594v.906h.453c.157 0 .274-.035.36-.11a.43.43 0 0 0 .14-.343c0-.145-.046-.254-.14-.328a.496.496 0 0 0-.36-.125z" id="path3186"/></symbol><symbol id="m" overflow="visible"><path d="M.375-2.406h.766v2.36c0 .32-.079.566-.235.734C.75.863.523.953.234.953H-.14V.438h.125C.13.438.227.406.281.344.344.28.375.149.375-.046zm0-.922h.766v.625H.375z" id="path3189"/></symbol><symbol id="l" overflow="visible"><path d="M2.313-2.328v.625A1.23 1.23 0 0 0 2-1.86a1.149 1.149 0 0 0-.328-.047c-.219 0-.39.062-.516.187-.117.125-.172.297-.172.516 0 .23.055.406.172.531.125.125.297.188.516.188.113 0 .223-.016.328-.047.113-.04.219-.098.313-.172v.625a1.7 1.7 0 0 1-.376.11 2.21 2.21 0 0 1-.359.03C1.141.061.797-.048.547-.267c-.242-.226-.36-.539-.36-.937 0-.395.118-.703.36-.922.25-.219.594-.328 1.031-.328.125 0 .242.012.36.031.125.024.25.055.375.094z" id="path3192"/></symbol><symbol id="u-3" overflow="visible"><path d="M2.938-.172a2.172 2.172 0 0 1-.985.234C1.422.063 1-.081.688-.374c-.313-.3-.47-.707-.47-1.219 0-.508.157-.914.47-1.219.312-.3.734-.453 1.265-.453.176 0 .348.024.516.063.164.043.32.105.469.187v.657a1.512 1.512 0 0 0-.454-.22 1.44 1.44 0 0 0-.468-.077c-.293 0-.524.093-.688.28-.168.188-.25.45-.25.782 0 .324.082.586.25.781.164.188.395.282.688.282.164 0 .32-.024.468-.078.157-.051.305-.13.453-.235z" id="path3631"/></symbol><symbol id="c-6" overflow="visible"><path d="M2.156-1.75a.988.988 0 0 0-.203-.063.69.69 0 0 0-.203-.03c-.2 0-.352.07-.453.202-.106.125-.156.305-.156.532V0H.375v-2.406h.766V-2a.823.823 0 0 1 .328-.344.992.992 0 0 1 .468-.11h.079c.03 0 .078.009.14.017z" id="path3634"/></symbol><symbol id="a-7" overflow="visible"><path d="M2.766-1.203v.219H.969c.02.18.082.312.187.406.113.086.274.125.485.125.156 0 .316-.02.484-.063.176-.05.352-.125.531-.218v.593A3.7 3.7 0 0 1 2.094 0c-.18.04-.356.063-.532.063-.437 0-.777-.11-1.015-.329-.242-.218-.36-.53-.36-.937 0-.383.114-.688.344-.906.239-.227.567-.344.985-.344.382 0 .687.117.906.344.226.218.344.523.344.906zm-.782-.266a.442.442 0 0 0-.14-.343.426.426 0 0 0-.328-.141.522.522 0 0 0-.36.125.56.56 0 0 0-.172.36z" id="path3637"/></symbol><symbol id="k-5" overflow="visible"><path d="M1.438-1.078a.691.691 0 0 0-.36.078.272.272 0 0 0-.11.234c0 .106.032.184.094.235.063.054.149.078.266.078a.46.46 0 0 0 .36-.156A.536.536 0 0 0 1.843-1v-.078zm1.187-.297V0h-.781v-.36a1.049 1.049 0 0 1-.36.329 1.008 1.008 0 0 1-.453.094c-.25 0-.453-.07-.61-.22a.731.731 0 0 1-.234-.562c0-.281.094-.484.282-.61.195-.132.504-.202.922-.202h.453v-.063c0-.125-.047-.21-.14-.265-.095-.063-.247-.094-.454-.094-.168 0-.324.023-.469.062a1.433 1.433 0 0 0-.375.141v-.594c.156-.031.317-.054.485-.078.164-.02.332-.031.5-.031.437 0 .75.086.937.25.195.168.297.445.297.828z" id="path3640"/></symbol><symbol id="b-3" overflow="visible"><path d="M1.203-3.078v.672H2v.547h-.797v1.03c0 .106.02.18.063.22.05.043.14.062.265.062h.406V0h-.656C.97 0 .75-.063.625-.188S.437-.523.437-.828V-1.86H.062v-.547h.375v-.672z" id="path3643"/></symbol><symbol id="j-5" overflow="visible"><path d="M2-2.047v-1.281h.781V0H2v-.344a1.164 1.164 0 0 1-.344.313.974.974 0 0 1-.437.093.896.896 0 0 1-.735-.343C.297-.52.204-.828.204-1.203c0-.363.093-.66.28-.89a.889.889 0 0 1 .735-.36.93.93 0 0 1 .422.094.96.96 0 0 1 .359.312zM1.5-.5c.164 0 .29-.055.375-.172.082-.125.125-.3.125-.531 0-.227-.043-.399-.125-.516a.427.427 0 0 0-.375-.187c-.168 0-.293.062-.375.187-.086.117-.125.29-.125.516 0 .23.04.406.125.531.082.117.207.172.375.172z" id="path3646"/></symbol><symbol id="i-6" overflow="visible"><path d="M1.64-.5c.165 0 .29-.055.376-.172.093-.125.14-.3.14-.531 0-.227-.047-.399-.14-.516a.427.427 0 0 0-.375-.187.445.445 0 0 0-.375.187c-.086.117-.125.29-.125.516 0 .23.039.406.125.531A.453.453 0 0 0 1.64-.5zm-.5-1.547a.952.952 0 0 1 .344-.312c.133-.063.286-.094.453-.094a.88.88 0 0 1 .72.36c.195.23.296.527.296.89 0 .375-.101.683-.297.922a.888.888 0 0 1-.719.343c-.167 0-.32-.03-.453-.093a1.118 1.118 0 0 1-.343-.313V0H.375v-3.328h.766z" id="path3649"/></symbol><symbol id="h-2" overflow="visible"><path d="M.047-2.406h.781l.64 1.64.548-1.64h.765L1.766.234c-.094.258-.211.442-.344.547A.804.804 0 0 1 .89.953H.438V.438h.234C.805.438.898.414.953.375A.487.487 0 0 0 1.11.156l.016-.062z" id="path3652"/></symbol><symbol id="g-9" overflow="visible"><path d="M.406-3.203h2.219v.625h-1.39v.594h1.312v.625H1.234v.734h1.438V0H.406z" id="path3655"/></symbol><symbol id="f-1" overflow="visible"><path d="M2.781-1.469V0h-.765v-1.125A4.31 4.31 0 0 0 2-1.547a.49.49 0 0 0-.047-.172.281.281 0 0 0-.125-.11.335.335 0 0 0-.172-.046.46.46 0 0 0-.39.187c-.086.118-.125.282-.125.5V0H.375v-2.406h.766v.36c.113-.145.234-.25.359-.313.133-.063.281-.094.437-.094.282 0 .489.086.625.25.145.168.22.414.22.734z" id="path3658"/></symbol><symbol id="t-2" overflow="visible"><path d="M1.953.063h-.062C1.359.063.945-.082.656-.376.363-.665.22-1.07.22-1.594c0-.52.144-.926.437-1.219.29-.3.692-.453 1.203-.453.52 0 .926.149 1.22.438.288.293.437.703.437 1.234 0 .356-.079.664-.235.922a1.488 1.488 0 0 1-.656.594l.64.719H2.47zm-.094-2.72c-.25 0-.445.094-.578.282-.136.18-.203.437-.203.781s.067.61.203.797c.133.18.328.266.578.266.258 0 .457-.094.594-.282.133-.187.203-.445.203-.78 0-.345-.07-.602-.203-.782-.137-.188-.336-.281-.594-.281z" id="path3661"/></symbol><symbol id="s-7" overflow="visible"><path d="M.375-2.406h.766V0H.375zm0-.922h.766v.625H.375z" id="path3664"/></symbol><symbol id="e-0" overflow="visible"><path d="M.344-.938v-1.468h.765v1.124c0 .2.004.34.016.423a.462.462 0 0 0 .047.187.32.32 0 0 0 .125.125.4.4 0 0 0 .172.031.426.426 0 0 0 .375-.187c.093-.125.14-.297.14-.516v-1.187h.766V0h-.766v-.344a1.31 1.31 0 0 1-.375.313.93.93 0 0 1-.422.093c-.273 0-.48-.082-.625-.25C.414-.363.344-.613.344-.938z" id="path3667"/></symbol><symbol id="r-9" overflow="visible"><path d="M1.953-3.328v.5h-.422c-.117 0-.195.023-.234.062-.043.032-.063.102-.063.204v.156h.657v.547h-.657V0H.47v-1.86H.08v-.546h.39v-.156c0-.258.07-.454.218-.579.145-.125.368-.187.672-.187z" id="path3670"/></symbol><symbol id="d-3" overflow="visible"><path d="M1.516-1.906a.474.474 0 0 0-.407.187c-.086.117-.125.29-.125.516 0 .23.04.406.125.531a.474.474 0 0 0 .407.188.427.427 0 0 0 .375-.188c.093-.125.14-.3.14-.531 0-.227-.047-.399-.14-.516a.427.427 0 0 0-.375-.187zm0-.547c.406 0 .722.11.953.328.238.219.36.527.36.922 0 .398-.122.71-.36.937-.23.22-.547.329-.953.329-.418 0-.746-.11-.985-.329-.23-.226-.344-.539-.344-.937 0-.395.114-.703.344-.922.239-.219.567-.328.985-.328z" id="path3673"/></symbol><symbol id="q-6" overflow="visible"><path d="M2.594-2a.95.95 0 0 1 .344-.328.825.825 0 0 1 .437-.125c.281 0 .492.086.64.25.145.168.22.414.22.734v1.47h-.782v-1.392c0-.175-.027-.3-.078-.375-.043-.07-.121-.109-.234-.109a.388.388 0 0 0-.344.188c-.074.117-.11.289-.11.515V0h-.78v-1.25c0-.27-.028-.441-.079-.516-.043-.07-.12-.109-.234-.109a.388.388 0 0 0-.344.188c-.074.117-.11.28-.11.5V0H.36v-2.406h.78v.36a.933.933 0 0 1 .313-.298.811.811 0 0 1 .406-.109c.164 0 .313.043.438.125A.676.676 0 0 1 2.594-2z" id="path3676"/></symbol><symbol id="p-0" overflow="visible"><path d="M2.781-1.469V0h-.765v-1.11A4.63 4.63 0 0 0 2-1.546a.49.49 0 0 0-.047-.172.281.281 0 0 0-.125-.11.335.335 0 0 0-.172-.046.46.46 0 0 0-.39.187c-.086.118-.125.282-.125.5V0H.375v-3.328h.766v1.281c.113-.144.234-.25.359-.312.133-.063.281-.094.437-.094.282 0 .489.086.625.25.145.168.22.414.22.734z" id="path3679"/></symbol><symbol id="o-6" overflow="visible"><path d="M.406-3.203h.922L2.484-1v-2.203h.782V0h-.922L1.188-2.203V0H.406z" id="path3682"/></symbol><symbol id="n-2" overflow="visible"><path d="M.406-3.203h1.36c.414 0 .726.094.937.281.219.18.328.434.328.766 0 .336-.11.594-.328.781-.21.18-.523.266-.937.266h-.532V0H.406zm.828.594v.906h.453c.157 0 .274-.035.36-.11a.43.43 0 0 0 .14-.343c0-.145-.046-.254-.14-.328a.496.496 0 0 0-.36-.125z" id="path3685"/></symbol><symbol id="m-6" overflow="visible"><path d="M.375-2.406h.766v2.36c0 .32-.079.566-.235.734C.75.863.523.953.234.953H-.14V.438h.125C.13.438.227.406.281.344.344.28.375.149.375-.046zm0-.922h.766v.625H.375z" id="path3688"/></symbol><symbol id="l-1" overflow="visible"><path d="M2.313-2.328v.625A1.23 1.23 0 0 0 2-1.86a1.149 1.149 0 0 0-.328-.047c-.219 0-.39.062-.516.187-.117.125-.172.297-.172.516 0 .23.055.406.172.531.125.125.297.188.516.188.113 0 .223-.016.328-.047.113-.04.219-.098.313-.172v.625a1.7 1.7 0 0 1-.376.11 2.21 2.21 0 0 1-.359.03C1.141.061.797-.048.547-.267c-.242-.226-.36-.539-.36-.937 0-.395.118-.703.36-.922.25-.219.594-.328 1.031-.328.125 0 .242.012.36.031.125.024.25.055.375.094z" id="path3691"/></symbol><filter id="shadow-1" height="1.183" width="1.156" x="-.078" y="-.092"><feFlood flood-color="rgba(58, 63, 94, 1)" result="flood" id="feFlood2"/><feComposite in="flood" in2="SourceGraphic" operator="out" result="composite" id="feComposite4"/><feGaussianBlur in="composite" stdDeviation="15" result="blur" id="feGaussianBlur6"/><feOffset dx="0" dy="0" result="offset" id="feOffset8"/><feComposite in2="SourceGraphic" in="offset" operator="atop" id="feComposite10"/></filter><filter style="color-interpolation-filters:sRGB" id="filter1063" x="-.078" y="-.075" width="1.156" height="1.15"><feFlood flood-opacity="1" flood-color="#3A3F5E" result="flood" id="feFlood1053"/><feComposite in="flood" in2="SourceGraphic" operator="out" result="composite1" id="feComposite1055"/><feGaussianBlur in="composite1" stdDeviation="14.299" result="blur" id="feGaussianBlur1057"/><feOffset dx="0" dy="0" result="offset" id="feOffset1059"/><feComposite in="offset" in2="SourceGraphic" operator="atop" result="composite2" id="feComposite1061"/></filter><filter style="color-interpolation-filters:sRGB" id="filter980" x="-.192" y="-.155" width="1.374" height="1.301"><feFlood flood-opacity="1" flood-color="#3A3F5E" result="flood" id="feFlood970"/><feComposite in="flood" in2="SourceGraphic" operator="out" result="composite1" id="feComposite972"/><feGaussianBlur in="composite1" stdDeviation="15" result="blur" id="feGaussianBlur974"/><feOffset dx="0" dy="0" result="offset" id="feOffset976"/><feComposite in="offset" in2="SourceGraphic" operator="atop" result="composite2" id="feComposite978"/></filter><filter style="color-interpolation-filters:sRGB" id="filter1066" x="-.059" y="-.048" width="1.119" height="1.096"><feFlood flood-opacity="1" flood-color="#3A3F5E" result="flood" id="feFlood1056"/><feComposite in="flood" in2="SourceGraphic" operator="out" result="composite1" id="feComposite1058"/><feGaussianBlur in="composite1" stdDeviation="9.788" result="blur" id="feGaussianBlur1060"/><feOffset dx="0" dy="0" result="offset" id="feOffset1062"/><feComposite in="offset" in2="SourceGraphic" operator="atop" result="composite2" id="feComposite1064"/></filter><filter style="color-interpolation-filters:sRGB" id="filter5636" x="-.06" y="-.08" width="1.12" height="1.16"><feFlood flood-opacity="1" flood-color="#3A3F5E" result="flood" id="feFlood5626"/><feComposite in="flood" in2="SourceGraphic" operator="out" result="composite1" id="feComposite5628"/><feGaussianBlur in="composite1" stdDeviation="1.6" result="blur" id="feGaussianBlur5630"/><feOffset dx="0" dy="0" result="offset" id="feOffset5632"/><feComposite in="offset" in2="SourceGraphic" operator="atop" result="composite2" id="feComposite5634"/></filter></defs><path d="M0 0h512v512H0z" fill="#1b1f21" fill-opacity="1" id="path15"/><style type="text/css" id="style347">.st0{fill:none;stroke:#000;stroke-width:2;stroke-linecap:round;stroke-linejoin:round;stroke-miterlimit:10}</style><g id="g5098" transform="translate(22.388 22.443) scale(7.30047)" style="fill:#e64539;fill-opacity:1;stroke:none;stroke-opacity:1;filter:url(#filter5636)"><path fill="#231f20" d="M32 25.996a6 6 0 0 0 0 12 6 6 0 0 0 0-12zm3 6.996a1 1 0 0 1-1-1 2 2 0 0 0-2-2 1 1 0 1 1 0-2 4 4 0 0 1 4 4 1 1 0 0 1-1 1z" id="path5092" style="fill:#e64539;fill-opacity:1;stroke:none;stroke-opacity:1"/><path fill="#231f20" d="M32 17.996c-7.732 0-14 6.268-14 14s6.268 14 14 14 14-6.268 14-14-6.268-14-14-14zm0 22a8 8 0 1 1 0-16 8 8 0 0 1 0 16z" id="path5094" style="fill:#e64539;fill-opacity:1;stroke:none;stroke-opacity:1"/><path fill="#231f20" d="M63.934 31.633c-.015-.037-.256-.646-.74-1.648C60.597 24.615 51.02 7.992 32 7.992 9.432 7.992.158 31.396.066 31.633a1.001 1.001 0 0 0 0 .719c.092.236 9.366 23.64 31.934 23.64 19.01 0 28.587-16.605 31.189-21.983.486-1.007.729-1.62.744-1.657.089-.232.089-.488.001-.719zM32 47.996c-8.837 0-16-7.163-16-16s7.163-16 16-16 16 7.163 16 16-7.163 16-16 16z" id="path5096" style="fill:#e64539;fill-opacity:1;stroke:none;stroke-opacity:1"/></g></svg>