<svg version="1.2" viewBox="-421 153 512 512" xml:space="preserve" width="512" height="512" xmlns="http://www.w3.org/2000/svg"><defs><filter style="color-interpolation-filters:sRGB" id="a" x="-.059" y="-.048" width="1.119" height="1.096"><feFlood flood-opacity="1" flood-color="#3A3F5E" result="flood"/><feComposite in="flood" in2="SourceGraphic" operator="out" result="composite1"/><feGaussianBlur in="composite1" stdDeviation="9.788" result="blur"/><feOffset result="offset"/><feComposite in="offset" in2="SourceGraphic" operator="atop" result="composite2"/></filter></defs><path d="M0 0h512v512H0Z" fill="#b90202" style="fill:#1b1f21;fill-opacity:1" transform="translate(-421 153)"/><path style="fill:#e64539;fill-opacity:1;stroke-width:3.85001;filter:url(#a)" d="m333.43 7.186-80.207.068h-.002l-77.637-.065s11.344 80.403 77.82 80.403c68.162 0 80.026-80.406 80.026-80.406zm-176.758 99.45a98.26 98.26 0 0 0-98.563 98.561v241.01c0 18.865 15.016 34.65 34.65 34.65 19.636 0 34.651-15.015 34.651-34.65V224.832c0-5.39 4.622-10.01 10.012-10.01 5.39 0 10.008 4.62 10.008 10.01v273.4h98.56v-16.605c0-5.39 4.622-10.01 10.012-10.01 5.39 0 10.008 4.62 10.008 10.01v16.605h98.558v-273.4c0-5.39 4.622-10.01 10.012-10.01 5.39 0 10.01 4.62 10.01 10.01v221.76c0 18.865 15.015 34.65 34.65 34.65 19.635 0 34.65-15.015 34.65-34.65V205.197c-1.54-54.67-46.584-98.56-100.099-98.56h-197.12zm17.404 80.473h163.848c6.153 0 11.172 5.02 11.172 11.172V302.55c0 6.153-5.02 11.17-11.172 11.17h-7.447v3.724c0 4.102-3.346 7.448-7.448 7.448h-11.172c-4.102 0-7.447-3.346-7.447-7.448v-3.724h-96.82v3.724c0 4.102-3.345 7.448-7.447 7.448H188.97c-4.102 0-7.448-3.346-7.448-7.448v-3.724h-7.447c-6.153 0-11.172-5.017-11.172-11.17V198.28c0-6.153 5.02-11.172 11.172-11.172zm11.172 22.342v81.926h122.885v-81.926H185.248zm141.504 7.45a7.443 7.443 0 0 0-7.447 7.447 7.443 7.443 0 0 0 7.447 7.447c4.117 0 7.45-3.33 7.45-7.447a7.444 7.444 0 0 0-7.45-7.448zm-36.656 14.661a3.723 3.723 0 0 1 3.695 3.258 3.708 3.708 0 0 1-2.764 4.075s-17.208 7.794-30.838 7.794c-6.807 0-11.884-2.21-16.175-4.072s-7.884-3.375-13.266-3.375c-10.75 0-25.252 7.1-25.252 7.1a3.749 3.749 0 0 1-3.26-6.75s14.751-7.797 28.512-7.797c6.88 0 11.985 2.21 16.291 4.072 4.306 1.862 7.87 3.375 13.15 3.375 10.561 0 27.813-7.097 27.813-7.097a3.796 3.796 0 0 1 2.094-.583zm36.656 11.405a7.443 7.443 0 0 0-7.447 7.447 7.443 7.443 0 0 0 7.447 7.447c4.117 0 7.45-3.33 7.45-7.447a7.444 7.444 0 0 0-7.45-7.447zm-36.656 10.94a3.723 3.723 0 0 1 3.695 3.257 3.706 3.706 0 0 1-2.764 4.072s-17.208 7.797-30.838 7.797c-6.807 0-11.884-2.21-16.175-4.072s-7.884-3.375-13.266-3.375c-10.75 0-25.252 7.098-25.252 7.098a3.748 3.748 0 0 1-3.26-6.748s14.751-7.797 28.512-7.797c6.88 0 11.985 2.21 16.291 4.072 4.306 1.862 7.87 3.375 13.15 3.375 10.561 0 27.813-7.1 27.813-7.1a3.794 3.794 0 0 1 2.094-.58zm36.656 15.126a7.443 7.443 0 0 0-7.447 7.447c0 4.117 3.33 7.45 7.447 7.45a7.446 7.446 0 0 0 7.45-7.45 7.444 7.444 0 0 0-7.45-7.447z" transform="translate(-421 153)"/></svg>