<svg viewBox="0 0 512 512" style="height:512px;width:512px" xml:space="preserve" xmlns="http://www.w3.org/2000/svg"><defs><filter style="color-interpolation-filters:sRGB" id="a" x="-.059" y="-.048" width="1.119" height="1.096"><feFlood flood-opacity="1" flood-color="#3A3F5E" result="flood"/><feComposite in="flood" in2="SourceGraphic" operator="out" result="composite1"/><feGaussianBlur in="composite1" stdDeviation="9.788" result="blur"/><feOffset result="offset"/><feComposite in="offset" in2="SourceGraphic" operator="atop" result="composite2"/></filter></defs><path d="M0 0h512v512H0z" fill="#1b1f21"/><path d="M0 0h512v512H0Z" fill="#b90202" style="fill:#1b1f21;fill-opacity:1" transform="translate(-.001 2.748)"/><path style="fill:#e64539;fill-opacity:1;stroke-width:3.85001;filter:url(#a)" d="m333.43 7.185-80.207.068h-.002l-77.637-.064s11.346 80.402 77.82 80.402c68.16 0 80.026-80.406 80.026-80.406zm-176.758 99.451a98.262 98.262 0 0 0-98.563 98.56v241.01c0 18.865 15.016 34.65 34.65 34.65 19.635 0 34.651-15.015 34.651-34.65V224.831c0-5.39 4.622-10.01 10.012-10.01 5.39 0 10.008 4.62 10.008 10.01v273.4h98.56v-16.605c0-5.39 4.622-10.01 10.012-10.01 5.39 0 10.008 4.62 10.008 10.01v16.606h98.558v-273.4c0-5.39 4.622-10.01 10.012-10.01 5.39 0 10.01 4.62 10.01 10.01v221.76c0 18.864 15.016 34.65 34.65 34.65 19.635 0 34.65-15.016 34.65-34.65V205.196c-1.54-54.67-46.585-98.56-100.099-98.56h-197.12zm49.756 53.055h49.633v29.896h49.62v59.621h-99.253v-89.517zm60.842 0 38.412 19.295H267.27V159.69zm-90.711 99.959H335.44v39.515H176.56V259.65zm19.605 9.646v10.266h9.955v-10.266h-9.955zm19.912 0v10.266h10.572v-10.266h-10.572zm-9.648 39.826h9.736v29.725h-9.736v-29.725zm20.039 0h9.703v29.868h-9.703v-29.868zm19.785 0h9.934v29.85h-9.934v-29.85zm19.914 0h9.813v29.797h-9.813v-29.797zm19.912 0h9.588v29.51h-9.588v-29.51z" transform="translate(0 2.749)"/></svg>