<svg width="512" height="512" xml:space="preserve" xmlns="http://www.w3.org/2000/svg"><defs><filter style="color-interpolation-filters:sRGB" id="a" x="-.082" y="-.044" width="1.164" height="1.088"><feFlood flood-opacity="1" flood-color="#3A3F5E" result="flood"/><feComposite in="flood" in2="SourceGraphic" operator="out" result="composite1"/><feGaussianBlur in="composite1" stdDeviation="8.302" result="blur"/><feOffset result="offset"/><feComposite in="offset" in2="SourceGraphic" operator="atop" result="composite2"/></filter><filter style="color-interpolation-filters:sRGB" id="b" x="-.061" y="-.083" width="1.122" height="1.166"><feFlood flood-opacity="1" flood-color="#3A3F5E" result="flood"/><feComposite in="flood" in2="SourceGraphic" operator="out" result="composite1"/><feGaussianBlur in="composite1" stdDeviation="15" result="blur"/><feOffset result="offset"/><feComposite in="offset" in2="SourceGraphic" operator="atop" result="composite2"/></filter></defs><path d="M0 0h512v512H0z" fill="#b90202" style="fill:#1b1f21;fill-opacity:1"/><g style="fill:#e64539;fill-opacity:1;filter:url(#a)"><path style="fill:#e64539;fill-opacity:1" d="M134.5 30.5v119.166c5.075.548 10.106 1.33 15 2.484V83.5h211v70.408a135.024 135.024 0 0 1 17-3.527V30.5h-243zm100.68 20h41.6a8 8 0 0 1 0 16h-41.6a8 8 0 0 1 0-16zM360.5 216.383v31.092l2.984 7.988-2.984 19.107V426.5h-211V265.363l-1.547-9.902 1.547-4.14v-34.74c-4.873.811-9.928 2.34-15 4.212V481.5h243V220.982c-5.77-2.145-11.512-3.843-17-4.6zm-105.945 216.13a19.26 19.26 0 0 1 8.316 1.444 19.26 19.26 0 0 1 11.889 17.793 19.26 19.26 0 0 1-19.26 19.26 19.26 19.26 0 0 1-.945-38.496z"/></g><g style="fill:#e64539;fill-opacity:1;filter:url(#b)" transform="translate(111.286 89.435) scale(.56426)"><path d="M255.999 345.224c-51.952 0-100.814 18.029-139.845 51.139l79.399 94.204L236.606 512h38.784l41.055-21.433 79.399-94.204c-38.842-32.817-88.191-51.139-139.845-51.139Zm295.677-117.477c0-9.214 2.899-110.053-6.309-110.053-46.667 0-106.726-5.137-161.459 27.939-47.824 44.083-77.875 75.305-77.875 149.558 0 7.359.388 14.691.955 21.977 40.63 8.441 110.346 53.7 110.346 53.7l6.094-7.402 10.804-69.164-24.13-84.442c54.528-9.804 141.574 75.19 141.574 17.887zm-423.584-82.114c-43.385-35.303-112.8-27.391-159.468-27.391-9.207 0-7.712 100.377-7.712 109.59 0 57.303 86.458-27.777 140.987-17.973l-24.13 84.442 10.804 69.164 6.167 7.489s69.627-45.597 110.286-53.936c.559-7.236.942-14.517.942-21.827-.001-74.253-30.053-105.474-77.876-149.558zM289.355 82.27S267.357 78.382 256 78.382c-11.357 0-33.355 3.888-33.355 3.888l-67.322 9.285.612 32.136c49.083 45.702 83.388 86.503 83.388 171.5 0 5.783-.207 11.564-.521 17.324 5.7-.383 11.425-.646 17.199-.646 5.766 0 11.493.267 17.199.659-.315-5.764-.521-11.55-.521-17.337 0-84.997 34.305-125.798 83.388-171.5v-34.19z" style="fill:#e64539;fill-opacity:1"/></g></svg>