<svg width="512" height="512" xml:space="preserve" xmlns="http://www.w3.org/2000/svg"><defs><filter style="color-interpolation-filters:sRGB" id="a" x="-.057" y="-.131" width="1.114" height="1.261"><feFlood flood-opacity="1" flood-color="#3A3F5E" result="flood"/><feComposite in="flood" in2="SourceGraphic" operator="out" result="composite1"/><feGaussianBlur in="composite1" stdDeviation="6" result="blur"/><feOffset result="offset"/><feComposite in="offset" in2="SourceGraphic" operator="atop" result="composite2"/></filter></defs><path d="M0 0h512v512H0z" fill="#b90202" style="fill:#1b1f21;fill-opacity:1"/><g style="fill:#e64539;fill-opacity:1;filter:url(#a)" transform="translate(9.748 145.378) scale(1.92384)"><path d="m252.358 44.991-6.622 5.943a5.906 5.906 0 0 1-6.274 1.032l-16.975-7.283-18.702-1.969-18.702 22.721v35.354h4.922a5.906 5.906 0 1 1 0 11.812H175.24l-10.335-47.247H131.93c-6.546 0-12.698-1.408-18.259-4.833l-17.314-9.666-22.042 23.334a26.761 26.761 0 0 1-3.709 3.264l-21.358 15.56 2.796 7.805 5.497.019a5.882 5.882 0 0 1-.02 11.764H43.717l-9.44-26.567a6.381 6.381 0 0 1 .925-5.876l17.462-21.36-3.402-22.994-16.509 13.798a18.672 18.672 0 0 1-12.011 4.365 18.695 18.695 0 0 1-13.757-6.016c-3.528-3.813-5.283-8.767-4.943-13.949.34-5.183 2.727-9.865 6.722-13.184a4.922 4.922 0 0 1 6.291 7.571 8.807 8.807 0 0 0-3.19 6.257 8.812 8.812 0 0 0 2.346 6.621 8.887 8.887 0 0 0 12.23.784s19.471-16.309 25.984-21.718c8.49-7.051 19.586-10.218 30.301-10.218h66.942a26.85 26.85 0 0 0 13.348-3.553c3.997-2.283 8.02-4.162 12.492-4.162 5.27 0 28.52 5.077 40.735 7.399.9-2.91 2.772-5.132 4.404-6.605a2.813 2.813 0 0 1 4.405.829l4.201 8.402 15.383 10.919a4.864 4.864 0 0 1 2.057 3.987v2.038l6.406 9.099a4.94 4.94 0 0 1-.741 6.523zm-23.393 31.005-26.09-22.882-11.845 14.391 28.074 15.046 8.282 11.656a5.92 5.92 0 1 0 9.861-6.555zM114.875 67.8a36.54 36.54 0 0 1-4.187-2.182l-13.194-7.366-19.695 20.811 10.822 33.538h13.78a5.906 5.906 0 1 0 0-11.812h-4.82l-4.277-13.168Z" style="fill:#e64539;fill-opacity:1"/></g></svg>