<svg width="512" height="512" version="1.1" id="svg8" xml:space="preserve" xmlns="http://www.w3.org/2000/svg"><defs id="defs12"><filter style="color-interpolation-filters:sRGB" id="filter875" x="-.313" y="-.169" width="1.609" height="1.328"><feFlood flood-opacity="1" flood-color="#3A3F5E" result="flood" id="feFlood865"/><feComposite in="flood" in2="SourceGraphic" operator="out" result="composite1" id="feComposite867"/><feGaussianBlur in="composite1" stdDeviation="15" result="blur" id="feGaussianBlur869"/><feOffset dx="0" dy="0" result="offset" id="feOffset871"/><feComposite in="offset" in2="SourceGraphic" operator="atop" result="composite2" id="feComposite873"/></filter><filter style="color-interpolation-filters:sRGB" id="filter1015" x="-.082" y="-.044" width="1.164" height="1.088"><feFlood flood-opacity="1" flood-color="#3A3F5E" result="flood" id="feFlood1005"/><feComposite in="flood" in2="SourceGraphic" operator="out" result="composite1" id="feComposite1007"/><feGaussianBlur in="composite1" stdDeviation="8.302" result="blur" id="feGaussianBlur1009"/><feOffset dx="0" dy="0" result="offset" id="feOffset1011"/><feComposite in="offset" in2="SourceGraphic" operator="atop" result="composite2" id="feComposite1013"/></filter><filter style="color-interpolation-filters:sRGB" id="filter35638" x="-.057" y="-.131" width="1.114" height="1.261"><feFlood flood-opacity="1" flood-color="#3A3F5E" result="flood" id="feFlood35628"/><feComposite in="flood" in2="SourceGraphic" operator="out" result="composite1" id="feComposite35630"/><feGaussianBlur in="composite1" stdDeviation="6" result="blur" id="feGaussianBlur35632"/><feOffset dx="0" dy="0" result="offset" id="feOffset35634"/><feComposite in="offset" in2="SourceGraphic" operator="atop" result="composite2" id="feComposite35636"/></filter><filter style="color-interpolation-filters:sRGB" id="filter35813" x="-.053" y="-.07" width="1.107" height="1.139"><feFlood flood-opacity="1" flood-color="#3A3F5E" result="flood" id="feFlood35803"/><feComposite in="flood" in2="SourceGraphic" operator="out" result="composite1" id="feComposite35805"/><feGaussianBlur in="composite1" stdDeviation="8" result="blur" id="feGaussianBlur35807"/><feOffset dx="0" dy="0" result="offset" id="feOffset35809"/><feComposite in="offset" in2="SourceGraphic" operator="atop" result="composite2" id="feComposite35811"/></filter><filter style="color-interpolation-filters:sRGB" id="filter36051" x="-.028" y="-.039" width="1.056" height="1.078"><feFlood flood-opacity="1" flood-color="#3A3F5E" result="flood" id="feFlood36041"/><feComposite in="flood" in2="SourceGraphic" operator="out" result="composite1" id="feComposite36043"/><feGaussianBlur in="composite1" stdDeviation="6" result="blur" id="feGaussianBlur36045"/><feOffset dx="0" dy="0" result="offset" id="feOffset36047"/><feComposite in="offset" in2="SourceGraphic" operator="atop" result="composite2" id="feComposite36049"/></filter></defs><path d="M0 0h512v512H0z" fill="#b90202" fill-opacity="1" id="path2" style="fill:#1b1f21;fill-opacity:1"/><style type="text/css" id="style35976">.st0{fill:#000}</style><g id="g35990" transform="translate(13.856 13.856) scale(.94587)" style="fill:#e64539;fill-opacity:1;filter:url(#filter36051)"><path class="st0" d="M425.797 130.088c-12.509 0-22.646 10.136-22.646 22.629v15.163l-62.255 12.053c-22.642 0-50.941-14.16-84.892-14.16-33.965 0-62.259 14.16-84.901 14.16l-62.258-12.053v-15.163c0-12.493-10.133-22.629-22.638-22.629-12.505 0-22.637 10.136-22.637 22.63v70.757c0 12.492 10.132 22.63 22.637 22.63s22.638-10.137 22.638-22.63v-13.338c18.087 3.782 43.018 8.959 59.43 12.244 25.968 5.193 35.346 41.26 76.046 47.191v37.477c-6.533.547-11.68 5.964-11.68 12.634 0 .099.029.191.029.29-23.036 9.257-39.315 31.762-39.315 58.107 0 34.598 28.046 62.645 62.645 62.645 34.599 0 62.645-28.046 62.645-62.645 0-26.346-16.279-48.85-39.314-58.107 0-.1.029-.191.029-.29 0-6.67-5.148-12.086-11.68-12.634v-37.477c40.696-5.932 50.082-41.998 76.045-47.191 16.407-3.285 41.343-8.461 59.426-12.244v13.338c0 12.492 10.137 22.63 22.646 22.63 12.501 0 22.629-10.137 22.629-22.63v-70.757c0-12.494-10.128-22.63-22.629-22.63zM297.409 378.079c0 22.87-18.539 41.409-41.409 41.409-22.87 0-41.409-18.54-41.409-41.409 0-22.87 18.54-41.409 41.409-41.409 22.87 0 41.409 18.539 41.409 41.409z" id="path35978" style="fill:#e64539;fill-opacity:1"/><path class="st0" id="rect35980" style="fill:#e64539;fill-opacity:1" d="M0 90.993h172.414v29.556H0z"/><path class="st0" id="rect35982" style="fill:#e64539;fill-opacity:1" d="M339.577 90.993H512v29.556H339.577z"/><path class="st0" d="M86.207 71.276c-7.142 0-12.928 5.79-12.928 12.94h25.86c0-7.15-5.795-12.94-12.932-12.94z" id="path35984" style="fill:#e64539;fill-opacity:1"/><path class="st0" d="M425.797 71.276c-7.15 0-12.94 5.79-12.94 12.94h25.864c-.001-7.15-5.79-12.94-12.924-12.94z" id="path35986" style="fill:#e64539;fill-opacity:1"/><path class="st0" d="M267.555 354.28c-3.509-1.7-7.395-2.745-11.555-2.745-14.662 0-26.544 11.887-26.544 26.544s11.883 26.544 26.544 26.544c14.661 0 26.544-11.887 26.544-26.544 0-3.584-.73-7.001-2.02-10.12-1.506 4.031-5.317 6.934-9.875 6.934-5.864 0-10.618-4.753-10.618-10.618.001-4.76 3.198-8.651 7.524-9.995z" id="path35988" style="fill:#e64539;fill-opacity:1"/></g></svg>