<svg width="512" height="512" version="1.1" id="svg8" xml:space="preserve" xmlns="http://www.w3.org/2000/svg"><defs id="defs12"><filter style="color-interpolation-filters:sRGB" id="filter875" x="-.313" y="-.169" width="1.609" height="1.328"><feFlood flood-opacity="1" flood-color="#3A3F5E" result="flood" id="feFlood865"/><feComposite in="flood" in2="SourceGraphic" operator="out" result="composite1" id="feComposite867"/><feGaussianBlur in="composite1" stdDeviation="15" result="blur" id="feGaussianBlur869"/><feOffset dx="0" dy="0" result="offset" id="feOffset871"/><feComposite in="offset" in2="SourceGraphic" operator="atop" result="composite2" id="feComposite873"/></filter><filter style="color-interpolation-filters:sRGB" id="filter1015" x="-.082" y="-.044" width="1.164" height="1.088"><feFlood flood-opacity="1" flood-color="#3A3F5E" result="flood" id="feFlood1005"/><feComposite in="flood" in2="SourceGraphic" operator="out" result="composite1" id="feComposite1007"/><feGaussianBlur in="composite1" stdDeviation="8.302" result="blur" id="feGaussianBlur1009"/><feOffset dx="0" dy="0" result="offset" id="feOffset1011"/><feComposite in="offset" in2="SourceGraphic" operator="atop" result="composite2" id="feComposite1013"/></filter><filter style="color-interpolation-filters:sRGB" id="filter35638" x="-.057" y="-.131" width="1.114" height="1.261"><feFlood flood-opacity="1" flood-color="#3A3F5E" result="flood" id="feFlood35628"/><feComposite in="flood" in2="SourceGraphic" operator="out" result="composite1" id="feComposite35630"/><feGaussianBlur in="composite1" stdDeviation="6" result="blur" id="feGaussianBlur35632"/><feOffset dx="0" dy="0" result="offset" id="feOffset35634"/><feComposite in="offset" in2="SourceGraphic" operator="atop" result="composite2" id="feComposite35636"/></filter><filter style="color-interpolation-filters:sRGB" id="filter35813" x="-.053" y="-.07" width="1.107" height="1.139"><feFlood flood-opacity="1" flood-color="#3A3F5E" result="flood" id="feFlood35803"/><feComposite in="flood" in2="SourceGraphic" operator="out" result="composite1" id="feComposite35805"/><feGaussianBlur in="composite1" stdDeviation="8" result="blur" id="feGaussianBlur35807"/><feOffset dx="0" dy="0" result="offset" id="feOffset35809"/><feComposite in="offset" in2="SourceGraphic" operator="atop" result="composite2" id="feComposite35811"/></filter><filter style="color-interpolation-filters:sRGB" id="filter36051" x="-.028" y="-.039" width="1.056" height="1.078"><feFlood flood-opacity="1" flood-color="#3A3F5E" result="flood" id="feFlood36041"/><feComposite in="flood" in2="SourceGraphic" operator="out" result="composite1" id="feComposite36043"/><feGaussianBlur in="composite1" stdDeviation="6" result="blur" id="feGaussianBlur36045"/><feOffset dx="0" dy="0" result="offset" id="feOffset36047"/><feComposite in="offset" in2="SourceGraphic" operator="atop" result="composite2" id="feComposite36049"/></filter><filter style="color-interpolation-filters:sRGB" id="filter36337" x="-.031" y="-.031" width="1.062" height="1.062"><feFlood flood-opacity="1" flood-color="#3A3F5E" result="flood" id="feFlood36327"/><feComposite in="flood" in2="SourceGraphic" operator="out" result="composite1" id="feComposite36329"/><feGaussianBlur in="composite1" stdDeviation="6" result="blur" id="feGaussianBlur36331"/><feOffset dx="0" dy="0" result="offset" id="feOffset36333"/><feComposite in="offset" in2="SourceGraphic" operator="atop" result="composite2" id="feComposite36335"/></filter></defs><path d="M0 0h512v512H0z" fill="#b90202" fill-opacity="1" id="path2" style="fill:#1b1f21;fill-opacity:1"/><style type="text/css" id="style35976">.st0{fill:#000}</style><g id="g36220" style="fill:#fff" transform="translate(15.269 -21.44)"><g id="g36218" style="fill:#fff"><g id="g36216" style="fill:#fff"><path id="path36208" style="fill:#e64539;stroke-width:.929142;fill-opacity:1;filter:url(#filter36337)" d="M77.202 47.013c-12.294 0-22.3 10.005-22.3 22.299v7.433H10.305v14.866H69.77v29.733H54.903v74.331H99.5V180.81h29.733v47.437L75.447 255.14c-12.673 6.348-20.544 19.073-20.544 33.24v160.022h29.732v59.465h312.192v-59.465h29.732V288.381c0-14.16-7.873-26.893-20.546-33.24l-53.785-26.895V180.81h29.733v14.866h44.598v-74.331h-14.866V91.611h59.465V76.745H426.56v-7.433c0-12.294-10.005-22.3-22.299-22.3-12.294 0-22.3 10.006-22.3 22.3v7.433h-44.598v14.866h59.465v29.733H381.96v14.866h-33.45l-22.299-29.732H155.25l-22.3 29.732H99.501v-14.866H84.635V91.611H144.1V76.745H99.501v-7.433c0-12.294-10.005-22.3-22.3-22.3zm0 14.866a7.436 7.436 0 0 1 7.433 7.433v7.433H69.77v-7.433a7.436 7.436 0 0 1 7.433-7.433zm327.058 0a7.436 7.436 0 0 1 7.433 7.433v7.433h-14.866v-7.433a7.436 7.436 0 0 1 7.433-7.433zM138.42 240.274h20.546v29.733h52.032v-29.733h59.466v29.733h52.031v-29.733h20.545l56.33 28.165c7.596 3.806 12.323 11.446 12.323 19.942v145.155h-14.866V299.739H84.635v133.797H69.77V288.38c0-8.496 4.727-16.136 12.324-19.942zm109.744 193.262h118.93v14.866h-118.93zm44.599 29.732h44.599v14.867h-44.6zm59.465 0h14.866v14.867h-14.866z"/></g></g></g></svg>