<svg width="512" height="512" xmlns="http://www.w3.org/2000/svg"><defs><filter style="color-interpolation-filters:sRGB" id="a" x="-.087" y="-.062" width="1.173" height="1.125"><feFlood flood-opacity="1" flood-color="#3A3F5E" result="flood"/><feComposite in="flood" in2="SourceGraphic" operator="out" result="composite1"/><feGaussianBlur in="composite1" stdDeviation="7.147" result="blur"/><feOffset result="offset"/><feComposite in="offset" in2="SourceGraphic" operator="atop" result="composite2"/></filter></defs><path d="M0 0h512v512H0Z" fill="#b90202" style="fill:#1b1f21;fill-opacity:1"/><path data-name="&lt;Transparent Rectangle&gt;" style="stroke-width:14.5096;fill:none" d="M23.847 23.847h464.306v464.306H23.847z"/><g style="fill:#e64539;fill-opacity:1;filter:url(#a)"><path style="fill:#e64539;stroke-width:1.68106;fill-opacity:1" d="M255.994 24.977c-91.843 0-166.562 74.718-166.562 166.566v182.49c0 70.751 31.797 112.99 85.054 112.99 77.148 0 102.745-54.158 118.04-86.517l.378-.803c17.11-36.19 39.33-51.717 60.82-66.73 34.894-24.38 67.853-47.41 68.833-141.303.497-47.841-14.99-89.042-44.782-119.149-30.343-30.659-73.592-47.544-121.78-47.544zM319.29 83.31c2.57-.036 5.177.668 7.488 2.183 35.344 23.168 56.444 62.196 56.444 104.397 0 42.2-21.1 81.226-56.444 104.394-6.163 4.04-14.433 2.318-18.472-3.844-4.04-6.163-2.319-14.435 3.843-18.474 27.795-18.22 44.39-48.9 44.39-82.076 0-33.176-16.595-63.859-44.39-82.078a13.33 13.33 0 0 1-6.029-11.172c0-2.51.705-5.046 2.184-7.301a13.334 13.334 0 0 1 10.986-6.03zm-128.742.072c4.282.06 8.46 2.176 10.984 6.027 4.04 6.164 2.319 14.435-3.844 18.475-27.794 18.22-44.388 48.9-44.388 82.076 0 33.175 16.594 63.859 44.388 82.078a13.33 13.33 0 0 1 6.03 11.172c0 2.509-.707 5.045-2.186 7.3-4.04 6.163-12.31 7.887-18.472 3.846-35.344-23.168-56.446-62.196-56.446-104.396s21.102-81.227 56.446-104.395a13.28 13.28 0 0 1 7.488-2.183zm92.367 36.568c1.733.012 3.492.363 5.184 1.092a74.905 74.905 0 0 1 45.312 68.848 74.906 74.906 0 0 1-45.312 68.847c-6.768 2.915-14.617-.206-17.532-6.974a13.271 13.271 0 0 1-1.093-5.274c0-5.168 3.02-10.085 8.066-12.26a48.245 48.245 0 0 0 29.186-44.34 48.247 48.247 0 0 0-29.186-44.341c-6.768-2.915-9.888-10.763-6.973-17.531 2.187-5.076 7.149-8.101 12.348-8.067zm-55.992.07c5.2-.034 10.162 2.99 12.348 8.067a13.271 13.271 0 0 1 1.093 5.273c0 5.168-3.021 10.086-8.068 12.26a48.243 48.243 0 0 0-29.184 44.34 48.246 48.246 0 0 0 29.184 44.342c6.768 2.915 9.89 10.763 6.975 17.531-2.916 6.767-10.764 9.89-17.532 6.975a74.905 74.905 0 0 1-45.312-68.848 74.906 74.906 0 0 1 45.312-68.848 13.3 13.3 0 0 1 5.184-1.092zm28.002 45.479a24.461 24.461 0 0 1 24.46 24.46 24.461 24.461 0 0 1-24.46 24.464 24.461 24.461 0 0 1-24.461-24.463 24.461 24.461 0 0 1 24.46-24.461z"/></g></svg>