<svg xml:space="preserve" width="512" height="512" xmlns="http://www.w3.org/2000/svg"><defs><filter style="color-interpolation-filters:sRGB" id="a" x="-.07" y="-.092" width="1.141" height="1.185"><feFlood flood-opacity="1" flood-color="#3A3F5E" result="flood"/><feComposite in="flood" in2="SourceGraphic" operator="out" result="composite1"/><feGaussianBlur in="composite1" stdDeviation="13.48" result="blur"/><feOffset result="offset"/><feComposite in="offset" in2="SourceGraphic" operator="atop" result="composite2"/></filter></defs><path d="M0 0h512v512H0Z" fill="#b90202" style="fill:#1b1f21;fill-opacity:1"/><g style="fill:#e64539;fill-opacity:1;filter:url(#a)"><g style="fill:#e64539;fill-opacity:1"><path style="fill:#e64539;stroke-width:.896456;fill-opacity:1" d="M256 80.898c-108.494 0-199.616 72.268-228.842 170.623a15.719 15.719 0 0 0 0 8.958C56.35 358.724 147.393 431.102 256 431.102c108.494 0 199.616-72.268 228.842-170.623a15.719 15.719 0 0 0 0-8.958C455.649 153.275 364.607 80.898 256 80.898zm0 70.684 35.74 20.615-20.857 36.108c-4.758-1.464-9.76-2.319-14.883-2.319-5.123 0-10.125.855-14.883 2.319l-20.857-36.108L256 151.582zm-54.771 31.594 20.859 36.107a50.9 50.9 0 0 0-14.881 25.738h-41.598v-41.23l35.62-20.615zm109.542 0 35.62 20.615v41.23h-41.598a50.9 50.9 0 0 0-14.88-25.738l20.858-36.107zM256 227.943c15.614 0 28.057 12.443 28.057 28.057 0 15.614-12.443 28.057-28.057 28.057-15.614 0-28.057-12.443-28.057-28.057 0-15.614 12.443-28.057 28.057-28.057zm-90.39 39.036h41.597a50.9 50.9 0 0 0 14.88 25.738l-20.858 36.107-35.62-20.615v-41.23zm139.183 0h41.598v41.23l-35.62 20.615-20.859-36.107a50.9 50.9 0 0 0 14.881-25.738zm-63.676 36.716c4.758 1.464 9.76 2.319 14.883 2.319 5.123 0 10.125-.855 14.883-2.319l20.857 36.108L256 360.418l-35.74-20.615 20.857-36.108z"/></g></g></svg>