<svg width="512" height="512" xmlns="http://www.w3.org/2000/svg"><defs><filter style="color-interpolation-filters:sRGB" id="a" x="-.069" y="-.074" width="1.139" height="1.148"><feFlood flood-opacity="1" flood-color="#3A3F5E" result="flood"/><feComposite in="flood" in2="SourceGraphic" operator="out" result="composite1"/><feGaussianBlur in="composite1" stdDeviation="13.48" result="blur"/><feOffset result="offset"/><feComposite in="offset" in2="SourceGraphic" operator="atop" result="composite2"/></filter></defs><path d="M0 0h512v512H0z" fill="#b90202" style="stroke:none;stroke-opacity:1;fill:#1b1f21;fill-opacity:1"/><g style="stroke:#fff;stroke-opacity:1;stroke-width:5;stroke-miterlimit:4;stroke-dasharray:none;fill:#e64539;fill-opacity:1;filter:url(#a)"><g style="fill:#e64539;stroke:#fff;stroke-opacity:1;stroke-width:3.9191363;stroke-miterlimit:4;stroke-dasharray:none;fill-opacity:1"><g style="fill:#e64539;stroke:#fff;stroke-opacity:1;stroke-width:5;stroke-miterlimit:4;stroke-dasharray:none;fill-opacity:1"><path style="fill:#e64539;stroke:none;stroke-width:11.6165;stroke-miterlimit:4;stroke-dasharray:none;stroke-opacity:1;fill-opacity:1" d="M-2.123 37.975c18.574 0 33.687-15.113 33.687-33.687 0-12.193-6.533-22.863-16.263-28.778v-36.242l43.612-29.073h67.561L112.87 5.449H90.808a17.423 17.423 0 0 0-14.774 8.19C47.81 52.952 27.382 100.122-2.123 137.66l.004 34.85c12.5 0 23.91-6.33 30.534-16.926l13.972-22.353c158.792-1.898 158.826-2.11 158.778-92.931h75.506c.358 0 .69-.12 1.044-.14l86.801 264.98c2.036 6.217 8.724 9.61 14.952 7.57 6.227-2.04 9.605-8.731 7.569-14.947l-1.611-4.91c80.71-59.542 102.03-198.274 52.414-349.736a11.856 11.856 0 0 0-12.442-8.11l-83.234 8.382 17.637-30.87 6.344-11.104a17.425 17.425 0 0 0-.054-17.392 17.431 17.431 0 0 0-15.074-8.677H53.636a17.416 17.416 0 0 0-9.665 2.927l-46.094 30.73ZM100.469 40.3h27.503c.012 0 .02.004.032.004.016 0 .033-.004.05-.004h38.261c0 58.038-.174 58.082-102.147 58.082zm339.272 75.452c-1.744 36.155-8.741 68.972-20.905 96.448l-30.815-94.075z" transform="translate(24.87 161.677)" stroke="none"/></g></g></g></svg>