<svg version="1.2" viewBox="-421 153 512 512" xml:space="preserve" width="512" height="512" xmlns="http://www.w3.org/2000/svg"><defs><filter style="color-interpolation-filters:sRGB" id="a" x="-.063" y="-.05" width="1.125" height="1.101"><feFlood flood-opacity="1" flood-color="#3A3F5E" result="flood"/><feComposite in="flood" in2="SourceGraphic" operator="out" result="composite1"/><feGaussianBlur in="composite1" stdDeviation="10.324" result="blur"/><feOffset result="offset"/><feComposite in="offset" in2="SourceGraphic" operator="atop" result="composite2"/></filter></defs><path d="M0 0h512v512H0Z" fill="#b90202" style="fill:#1b1f21;fill-opacity:1" transform="translate(-421 153)"/><path style="fill:#e64539;stroke-width:3.85001;fill-opacity:1;filter:url(#a)" d="m-87.57 160.186-80.206.068h-.002l-77.637-.065s11.344 80.403 77.82 80.403c68.162 0 80.026-80.406 80.026-80.406zm-176.76 99.45a98.26 98.26 0 0 0-98.56 98.561v241.01c0 18.865 15.016 34.65 34.65 34.65 19.636 0 34.65-15.015 34.65-34.65V377.832c0-5.39 4.62-10.01 10.01-10.01s10.01 4.62 10.01 10.01v273.4h98.56v-16.605c0-5.39 4.621-10.01 10.011-10.01 5.39 0 10.01 4.62 10.01 10.01v16.605h98.558v-273.4c0-5.39 4.622-10.01 10.012-10.01 5.39 0 10.01 4.62 10.01 10.01v221.76c0 18.865 15.015 34.65 34.65 34.65 19.635 0 34.649-15.015 34.649-34.65V358.197c-1.54-54.67-46.585-98.56-100.1-98.56zm109.71 66.57h18.797a4.856 4.856 0 0 1 4.855 4.855v73.084h6.563v-29.38a4.857 4.857 0 0 1 4.855-4.857h18.799a4.857 4.857 0 0 1 4.855 4.858v29.379h4.706A4.857 4.857 0 0 1-86.333 409a4.857 4.857 0 0 1-4.857 4.855h-4.704v29.38a4.859 4.859 0 0 1-4.857 4.857h-18.797a4.857 4.857 0 0 1-4.855-4.858v-29.379h-6.563v73.084a4.856 4.856 0 0 1-4.855 4.856h-18.8a4.856 4.856 0 0 1-4.855-4.856v-73.084h-6.56v58.516a4.857 4.857 0 0 1-4.858 4.856h-18.796a4.856 4.856 0 0 1-4.856-4.856v-58.516h-6.562v43.948a4.856 4.856 0 0 1-4.856 4.855h-18.799a4.856 4.856 0 0 1-4.855-4.855v-43.948h-19.272a4.857 4.857 0 0 1-4.857-4.855 4.857 4.857 0 0 1 4.857-4.855h19.272v-43.948a4.856 4.856 0 0 1 4.855-4.855h18.8a4.856 4.856 0 0 1 4.855 4.855v43.948h6.56v-58.516a4.856 4.856 0 0 1 4.856-4.856h18.798a4.856 4.856 0 0 1 4.856 4.856v58.516h6.56V331.06a4.857 4.857 0 0 1 4.858-4.856zm77.996 77.937c.318 0 .636.03.95.093.31.063.616.16.907.282a4.856 4.856 0 0 1 1.578 1.049 4.875 4.875 0 0 1 1.325 4.38 4.878 4.878 0 0 1-.723 1.748 4.621 4.621 0 0 1-.601.739 4.832 4.832 0 0 1-.739.601 5.148 5.148 0 0 1-.84.447 4.553 4.553 0 0 1-.908.276c-.31.063-.631.097-.947.097a4.81 4.81 0 0 1-.951-.097 4.54 4.54 0 0 1-.908-.276 5.207 5.207 0 0 1-.84-.447 5.085 5.085 0 0 1-.739-.601 4.84 4.84 0 0 1-1.049-1.58 4.91 4.91 0 0 1-.374-1.854c0-1.282.52-2.53 1.423-3.434a5.22 5.22 0 0 1 .739-.601 5.131 5.131 0 0 1 1.748-.729c.313-.063.63-.093.949-.093z"/></svg>