<svg width="512" height="512" xmlns="http://www.w3.org/2000/svg"><defs><filter style="color-interpolation-filters:sRGB" id="a" x="-.204" y="-.147" width="1.409" height="1.295"><feFlood flood-opacity="1" flood-color="#3A3F5E" result="flood"/><feComposite in="flood" in2="SourceGraphic" operator="out" result="composite1"/><feGaussianBlur in="composite1" stdDeviation="16.874" result="blur"/><feOffset result="offset"/><feComposite in="offset" in2="SourceGraphic" operator="atop" result="composite2"/></filter></defs><path d="M0 0h512v512H0Z" fill="#b90202" style="fill:#1b1f21;fill-opacity:1"/><path data-name="&lt;Transparent Rectangle&gt;" style="stroke-width:14.5096;fill:none" d="M23.847 23.847h464.306v464.306H23.847z"/><g style="fill:#e64539;fill-opacity:1;filter:url(#a)"><path style="fill:#e64539;stroke-width:1.68106;fill-opacity:1" d="M255.994 24.977c-91.843 0-166.562 74.718-166.562 166.566v182.49c0 70.751 31.797 112.99 85.054 112.99 77.148 0 102.745-54.158 118.04-86.517l.378-.803c17.11-36.19 39.33-51.717 60.82-66.73 34.894-24.38 67.853-47.41 68.833-141.303.497-47.841-14.99-89.042-44.782-119.149-30.343-30.659-73.592-47.544-121.78-47.544zm-97.707 79.166h189.059c7.457 0 13.504 6.045 13.504 13.503v148.547c0 7.458-6.047 13.504-13.504 13.504H158.287c-7.458 0-13.506-6.046-13.506-13.504V117.646c0-7.458 6.048-13.503 13.506-13.503zm47.264 27.007c-22.375 0-40.512 18.14-40.512 40.514 0 22.375 18.137 40.512 40.512 40.512s40.513-18.137 40.513-40.512-18.138-40.514-40.513-40.514zm94.53 0c-22.376 0-40.513 18.14-40.513 40.514 0 22.375 18.137 40.512 40.512 40.512s40.514-18.137 40.514-40.512-18.14-40.514-40.514-40.514zm-112.033 13.57a6.725 6.725 0 0 1 4.642 2.258l10.159 11.455c.844-.172 1.72-.258 2.61-.264.095 0 .188.01.282.012.86.011 1.705.087 2.52.254l10.078-11.371a6.756 6.756 0 0 1 4.65-2.26c1.776-.142 3.546.5 4.885 1.69 5.59 4.964 9.306 11.329 10.748 18.417a6.752 6.752 0 0 1-5.264 7.96l-15.011 3.071c-.04.117-.112.221-.155.336a13.2 13.2 0 0 1-.847 1.838c-.07.12-.127.245-.198.364-.44.745-.944 1.44-1.513 2.083l4.824 14.473a6.752 6.752 0 0 1-4.27 8.541c-3.597 1.2-7.268 1.801-10.908 1.801a32.77 32.77 0 0 1-10.418-1.697 6.75 6.75 0 0 1-4.263-8.537l4.863-14.586a13.35 13.35 0 0 1-1.51-2.082c-.072-.12-.132-.246-.2-.368a13.051 13.051 0 0 1-.847-1.837c-.044-.116-.114-.218-.154-.334l-14.9-3.053a6.753 6.753 0 0 1-5.26-7.969c1.5-7.32 5.155-13.719 10.572-18.516a6.752 6.752 0 0 1 4.885-1.68zm94.53 0a6.725 6.725 0 0 1 4.642 2.258l10.158 11.455c.844-.172 1.72-.258 2.611-.264.094 0 .187.01.281.012a13.4 13.4 0 0 1 2.52.254l10.078-11.371a6.756 6.756 0 0 1 4.65-2.26c1.781-.142 3.547.498 4.885 1.687 5.59 4.965 9.306 11.332 10.748 18.42a6.752 6.752 0 0 1-5.263 7.96l-15.012 3.071c-.04.117-.111.221-.154.336a13.29 13.29 0 0 1-.848 1.838c-.07.12-.126.245-.197.364-.44.745-.945 1.44-1.514 2.083l4.826 14.473a6.754 6.754 0 0 1-4.271 8.541c-3.597 1.2-7.269 1.801-10.908 1.801-3.533 0-7.039-.566-10.418-1.697a6.75 6.75 0 0 1-4.264-8.537l4.863-14.586a13.35 13.35 0 0 1-1.51-2.082c-.072-.12-.131-.246-.199-.368a13.042 13.042 0 0 1-.846-1.837c-.044-.116-.116-.218-.156-.334l-14.9-3.053a6.753 6.753 0 0 1-5.26-7.969c1.5-7.32 5.155-13.719 10.572-18.516a6.752 6.752 0 0 1 4.885-1.68zm-97.284 80.96v27.01h27.008v-27.01h-27.008zm47.266 0v27.01h40.511v-27.01H232.56zm60.767 0v27.01h27.01v-27.01h-27.01z"/></g></svg>