<svg width="512" height="512" xmlns="http://www.w3.org/2000/svg"><defs><filter style="color-interpolation-filters:sRGB" id="a" x="-.073" y="-.097" width="1.146" height="1.194"><feFlood flood-opacity="1" flood-color="#3A3F5E" result="flood"/><feComposite in="flood" in2="SourceGraphic" operator="out" result="composite1"/><feGaussianBlur in="composite1" stdDeviation="15" result="blur"/><feOffset result="offset"/><feComposite in="offset" in2="SourceGraphic" operator="atop" result="composite2"/></filter></defs><path d="M0 0h512v512H0z" fill="#1b1f21"/><path d="M17.518 114.813c22.74 57.3 22.57 106.5 30.15 156.2 55.5 14.3 112.7 42.4 161.6 67.5 13.5-41.5 39.3-82.1 61.5-117.2-73.2-45-166.1-80.9-253.25-106.5zm59.1 39.8c24.35 25.8 45.45 54.1 49.75 84.2-10.9 19.5-41.55 24.1-58.75 24.6l-.34-18c13.41-1.3 30.86-.1 40.29-10.5-3.8-22.3-18.02-44.6-42.95-66.9zm103.95 43.9c19.5 19.1 28.8 42.1 32.6 66-10.8 23.7-42.9 29-59.2 27.4l2-17.8c22 2.5 34.1-4 38.5-11.8-3.4-18.6-7.4-34.5-25.7-50.2zm105.4 32.5c-22.7 36-48.2 76.8-60.5 115.8 8.4 4.2 16.5 8.4 24.2 12.4 9.1-41.4 37.3-77.5 61.5-110.6-8-6-16.4-11.9-25.2-17.6zm48 16.5c-26.7 38-58.8 77.1-67.1 118.2l42.3 3c11.5-18.3 27.8-21 47.6-23.1 3.8 9.5 26.5 26.9 34.2 31.4 4.9-2.1 9.5-5 14.6-8.3 7.6 14.7 20.1 26.1 30.6 36.1 3.7-8.8 6.5-18.2 8.7-27.8-7.9-.7-15.8-8.7-18.4-14.6-2.9-7.1-3.4-15.5-1.6-24.3 2.6-8.5 6.3-16.9 11.6-22.4-29.3-25.1-63-49.3-102.5-68.2zm115.2 80.1c-2.7 2.8-5.3 7.4-6.5 13.1-.5 4.7-1.9 17.1 4.8 18.5 6.8-1.5 10.7-10 12.1-16 1.2-5.7.6-10.8-.7-14.2-2.7-5.9-6.4-4.5-9.7-1.4zm-98.9 38.8c-10 .2-21.6 3.4-23.4 11.5 5.2 18.4 27 29.4 40 39.8.2-9.6 1-20.6 6.3-30.7-8.7-6.3-16-13.7-22.9-20.6zm-83.1 17.4c5.6 14.7 14 25.4 24.5 38.5 13.8-3.3 21.3-10.7 27.8-18.5-5.6-6.1-10-11.5-14.1-17.3zm132.4 9.1c-3.3 1.5-6.9 2.8-10.8 3.7-3.1 7.8-3 18.6-3.8 30l37.4-9.6c-7.9-7.1-16.6-14.8-22.8-24.1zm-68.2 24.5c-5.9 6.6-13.8 13.9-25 18.8 12.8 11.4 64 15.7 59.6 5.9-13.6-8-25.3-15.8-34.6-24.7z" fill="#fff" style="fill:#e64539;fill-opacity:1;filter:url(#a)" transform="rotate(-79.728 235.765 311.246) scale(1.1886)"/></svg>