<svg width="512" height="512" xml:space="preserve" xmlns="http://www.w3.org/2000/svg"><defs><filter style="color-interpolation-filters:sRGB" id="a" x="-.08" y="-.081" width="1.159" height="1.161"><feFlood flood-opacity="1" flood-color="#3A3F5E" result="flood"/><feComposite in="flood" in2="SourceGraphic" operator="out" result="composite1"/><feGaussianBlur in="composite1" stdDeviation="13.48" result="blur"/><feOffset result="offset"/><feComposite in="offset" in2="SourceGraphic" operator="atop" result="composite2"/></filter></defs><path d="M0 0h512v512H0Z" fill="#b90202" style="fill:#1b1f21;fill-opacity:1"/><g style="fill:#e64539;fill-opacity:1;filter:url(#a)" transform="translate(-17.36 -61.694) scale(1.15518)"><path style="fill:#e64539;stroke-width:1.15518;fill-opacity:1" d="M204.219 19.078c5.15 27.232 33.526 45.413 46.699 51.492 20.86 9.628 80.454 24.335 102.064-13.408 5.765 14.77 1.875 137.619-32.189 168.854-17.26-16.457-42.176-26.79-69.875-26.79-22.744 0-43.602 6.967-59.895 18.567-21.508-34.521-62.2-57.83-108.9-57.83-22.39 0-43.392 5.382-61.58 14.766v12.068a1.654 1.654 0 0 0-.066-.014v296.49s86.415 4.47 93.328-95.353a.057.057 0 0 1-.004-.018c21.022 30.528 88 53.765 129.273 52.395 64.83-2.15 150.974-4.992 223.95-74.95 6.743-6.71 12.153-14.636 15.828-23.404v-.004c26.884-55.924-30.57-239.755-64.12-322.86H204.22zm58.021 203.06h12.496a6.247 6.247 0 0 1 6.248 6.249v56.23H262.23c-2.199 0-4.277.45-6.237 1.145v-57.375a6.246 6.246 0 0 1 6.248-6.248zm-37.482 12.497h12.494a6.246 6.246 0 0 1 6.248 6.248v62.478a6.247 6.247 0 0 1-6.248 6.248h-12.494a6.246 6.246 0 0 1-6.248-6.248v-62.478a6.246 6.246 0 0 1 6.248-6.248zm74.965 0h12.496a6.246 6.246 0 0 1 6.248 6.248v46.039c-3.929-1.402-8.092-2.305-12.496-2.305h-12.496v-43.734a6.246 6.246 0 0 1 6.248-6.248zm-112.45 12.496h12.497a6.247 6.247 0 0 1 6.248 6.248v49.982a6.247 6.247 0 0 1-6.248 6.248h-12.497a6.247 6.247 0 0 1-6.248-6.248V253.38a6.247 6.247 0 0 1 6.248-6.248zm74.916 49.982h43.79c13.795 0 24.983 11.187 24.988 24.987l.008 34.449a37.5 37.5 0 0 1-10.983 26.517l-14.021 14.028v24.974h-99.957v-24.99l-10.348-10.351a49.979 49.979 0 0 1-14.64-35.344v-30.43c1.964.703 4.045 1.15 6.247 1.15h12.497c4.814 0 9.169-1.877 12.496-4.876 3.323 2.995 7.677 4.873 12.496 4.873h12.494c3.089 0 5.968-.823 8.54-2.155a25.12 25.12 0 0 0 15.179 13.451c-6.682 5.788-12.333 13.465-18.475 22.68l-2.463 3.7a3.122 3.122 0 0 0 .867 4.33l5.198 3.466a3.122 3.122 0 0 0 4.33-.867l2.464-3.697c12.453-18.681 20.122-27.44 37.506-28.33 1.676-.086 3.077-1.448 3.077-3.123v-6.326c0-1.726-1.375-3.125-5.155-3.125h-13.767c-10.258 0-18.577-8.324-18.577-18.583v-.218c0-3.429 2.781-6.19 6.21-6.19z" transform="translate(15.028 53.407) scale(.86567)"/></g></svg>