<svg height="512" width="512" style="enable-background:new 0 0 512 512" xml:space="preserve" xmlns="http://www.w3.org/2000/svg"><defs><filter style="color-interpolation-filters:sRGB" id="a" x="-.063" y="-.09" width="1.126" height="1.181"><feFlood flood-opacity="1" flood-color="#3A3F5E" result="flood"/><feComposite in="flood" in2="SourceGraphic" operator="out" result="composite1"/><feGaussianBlur in="composite1" stdDeviation="13.48" result="blur"/><feOffset result="offset"/><feComposite in="offset" in2="SourceGraphic" operator="atop" result="composite2"/></filter></defs><path d="M0 0h512v512H0Z" fill="#b90202" style="fill:#1b1f21;fill-opacity:1"/><g style="fill:#e64539;fill-opacity:1;filter:url(#a)" transform="translate(36.575 58.518) scale(.85713)"><g style="fill:#e64539;fill-opacity:1"><path style="fill:#e64539;fill-opacity:1;stroke-width:.857128" d="M58.518 102.402c-12.12 0-21.942 9.824-21.942 21.944v263.308c0 12.12 9.822 21.944 21.942 21.944h394.964c12.12 0 21.942-9.824 21.942-21.944V124.346c0-12.12-9.822-21.944-21.942-21.944H58.518zm43.884 65.828h307.196v175.54H102.402V168.23zm109.715 22.057c-3.24 0-6.482 1.296-8.574 3.889l-40.586 50.738h-38.611v21.943h43.884c3.336 0 6.48-1.52 8.573-4.117l35.312-44.142 79.197 98.998a11.013 11.013 0 0 0 8.573 4.117c3.335 0 6.48-1.521 8.572-4.117l40.586-50.746h38.611v-21.942H343.77v-.002a11.04 11.04 0 0 0-8.573 4.125l-35.312 44.143-79.197-98.998c-2.088-2.593-5.33-3.889-8.57-3.889z" transform="translate(-42.672 -68.272) scale(1.16669)"/></g></g></svg>