<svg width="512" height="512" xml:space="preserve" xmlns="http://www.w3.org/2000/svg"><defs><filter style="color-interpolation-filters:sRGB" id="a" x="-.075" y="-.078" width="1.15" height="1.156"><feFlood flood-opacity="1" flood-color="#3A3F5E" result="flood"/><feComposite in="flood" in2="SourceGraphic" operator="out" result="composite1"/><feGaussianBlur in="composite1" stdDeviation="13.48" result="blur"/><feOffset result="offset"/><feComposite in="offset" in2="SourceGraphic" operator="atop" result="composite2"/></filter></defs><path d="M0 0h512v512H0Z" fill="#b90202" style="fill:#1b1f21;fill-opacity:1"/><g style="fill:#1b1f21;fill-opacity:1"><path style="fill:#e64539;stroke-width:.464359;fill-opacity:1;filter:url(#a)" d="M262.908 48.465a73.344 73.344 0 0 0-9.55.578c-13.42 1.718-25.307 6.918-34.409 14.395-14.395-6.502-32.922-6.873-50.568.417-15.185 6.27-26.84 16.949-33.434 29.254-11.794 2.6-23.729 8.87-33.898 18.621-14.442 13.838-22.058 31.577-22.012 47.737-17.553 9.751-28.698 26.515-27.908 44.392-4.69 7.152-8.219 15.556-10.076 24.797-3.204 16.02-.788 31.53 5.713 43.79-.465 27.071 14.72 50.43 37.566 54.98a49.19 49.19 0 0 0 4.457.65c-.79 5.62-.696 11.33.465 17.041 6.547 33.016 44.439 53.31 84.652 45.322 1.81-.371 3.622-.79 5.387-1.253 5.99 9.611 18.436 5.48 18.436 5.48v35.568a14.76 14.76 0 0 0 4.085 10.217l19.69 20.756c4.597 4.876 12.77 1.58 12.77-5.107v-40.213c1.207-36.267 14.533-54.192 25.91-61.018 15.323-9.24 15.092-28.465 15-35.476 12.073 6.361 31.159 9.984 47.132 8.173 72.069-8.312 75.829-56.791 78.198-64.732 21.035 1.579 40.352-7.338 48.71-24.473a40.956 40.956 0 0 0 2.74-7.43c6.966-4.132 12.678-10.029 16.3-17.458 4.923-10.031 5.246-21.362 1.81-32.135 5.712-17.785.65-40.213-14.86-57.58-6.732-7.523-14.58-13.235-22.845-16.95-2.368-3.9-5.2-7.707-8.404-11.33-13.885-15.556-32.227-23.914-49.084-24.007-11.795-9.055-27.722-15.927-45.832-18.76-14.256-2.229-28-1.671-40.028 1.115-7.836-3.413-16.716-5.311-26.113-5.361zM256 91.918c56.623 0 102.691 46.067 102.691 102.691S312.623 297.3 256 297.3c-56.624 0-102.691-46.066-102.691-102.69 0-56.624 46.067-102.691 102.691-102.691zm-12.105 17.795c-20.01 2.84-37.82 12.606-50.91 26.793a6.367 6.367 0 0 0-.83 7.517l16.363 28.198a2.01 2.01 0 0 0 3.482-.016l33.922-59.512a2.008 2.008 0 0 0-2.027-2.98zm28.703 1.068a6.363 6.363 0 0 0-4.881 3.18l-16.15 28.336a2.01 2.01 0 0 0 1.744 3.004h68.824a2.007 2.007 0 0 0 1.584-3.242c-12.05-15.492-29.289-26.756-49.082-31.159a6.38 6.38 0 0 0-2.04-.119zm-94.377 50.444a2.008 2.008 0 0 0-1.721 1.248 85.287 85.287 0 0 0-6.254 32.136 85.43 85.43 0 0 0 3.799 25.258 6.373 6.373 0 0 0 6.088 4.488h32.54a2.01 2.01 0 0 0 1.743-1.005 2.012 2.012 0 0 0-.004-2.012l-34.314-59.117a2.007 2.007 0 0 0-1.877-.996zm121.105 3.636a2.01 2.01 0 0 0-1.742 1.006 2.012 2.012 0 0 0 .004 2.012l34.314 59.117a2.007 2.007 0 0 0 3.598-.252 85.277 85.277 0 0 0 6.254-32.135 85.42 85.42 0 0 0-3.799-25.26 6.373 6.373 0 0 0-6.088-4.488h-32.54zm2.412 51.137a2.01 2.01 0 0 0-1.738 1.014l-33.922 59.511a2.008 2.008 0 0 0 2.027 2.983c20.01-2.84 37.82-12.608 50.913-26.795a6.367 6.367 0 0 0 .83-7.518l-16.366-28.195a2.008 2.008 0 0 0-1.744-1zm-111.87 27.918a2.01 2.01 0 0 0-1.587 3.242c12.05 15.493 29.29 26.755 49.084 31.158a6.365 6.365 0 0 0 6.918-3.06l16.153-28.336a2.008 2.008 0 0 0-1.745-3.004H230.46l-.01.002-.012-.002h-40.57z"/></g></svg>