<svg width="512" height="512" xmlns="http://www.w3.org/2000/svg"><defs><filter style="color-interpolation-filters:sRGB" id="a" x="-.163" y="-.118" width="1.327" height="1.235"><feFlood flood-opacity="1" flood-color="#3A3F5E" result="flood"/><feComposite in="flood" in2="SourceGraphic" operator="out" result="composite1"/><feGaussianBlur in="composite1" stdDeviation="13.48" result="blur"/><feOffset result="offset"/><feComposite in="offset" in2="SourceGraphic" operator="atop" result="composite2"/></filter></defs><path d="M0 0h512v512H0Z" fill="#b90202" style="fill:#1b1f21;fill-opacity:1"/><path data-name="&lt;Transparent Rectangle&gt;" style="stroke-width:14.5096;fill:none" d="M23.847 23.847h464.306v464.306H23.847z"/><g style="fill:#e64539;fill-opacity:1;filter:url(#a)"><path style="fill:#e64539;stroke-width:1.68106;fill-opacity:1" d="M255.994 24.977c-91.843 0-166.562 74.718-166.562 166.566v182.49c0 70.751 31.797 112.99 85.054 112.99 77.148 0 102.745-54.158 118.04-86.517l.378-.803c17.11-36.19 39.33-51.717 60.82-66.73 34.894-24.38 67.853-47.41 68.833-141.303.497-47.841-14.99-89.042-44.782-119.149-30.343-30.659-73.592-47.544-121.78-47.544zm-83.15 91.455 3.252 1.513 46.504 21.662c8.665-4.751 18.742-7.478 29.505-7.478 10.763 0 20.844 2.727 29.508 7.478l46.504-21.662 3.252-1.513 2.016 2.088 42.383 43.914-45.598-34.79-34.342 22.887c5.864 6.175 10.264 13.598 12.688 21.793l19.652-9.152 2.42-1.129 1.666.937 43.598 24.475-44.782-15.143-20.443 13.622c.008.363.016.728.016 1.091 0 2.27-.151 4.504-.438 6.702l5.852-3.252 2.865-1.59 1.937 1.703 35.989 31.64-38.16-23.056-13.155 10.305c-3.875 8.093-9.777 15.146-17.103 20.591l4.396.012 3.7.012.947 2.441 20.054 51.549-26.056-44.309-13.483 4.319c-6.003 7.21-15.361 11.85-25.884 11.85-10.522 0-19.882-4.64-25.885-11.85l-13.483-4.319-26.054 44.309 20.054-51.549.95-2.441 3.697-.012 4.396-.012c-7.326-5.445-13.228-12.497-17.101-20.591l-13.155-10.305-38.16 23.057 35.989-31.641 1.937-1.703 2.863 1.59 5.854 3.252a51.865 51.865 0 0 1-.438-6.702c0-.363.008-.728.016-1.091l-20.443-13.621-44.784 15.14 43.598-24.474 1.668-.938 2.418 1.129 19.654 9.154c2.424-8.195 6.823-15.618 12.688-21.793l-34.342-22.886-45.598 34.789 42.383-43.914 2.018-2.088zm79.8 78.043c-10.448 0-18.921 8.547-18.921 19.093s8.472 19.094 18.922 19.094c10.449 0 18.92-8.548 18.92-19.094 0-10.546-8.471-19.093-18.92-19.093zm5.293 4.986c1.954.1 4.301 1.24 6.274 3.23 3.154 3.185 4.153 7.342 2.23 9.284-1.925 1.941-6.043.935-9.199-2.25-3.156-3.186-4.153-7.343-2.228-9.284.722-.728 1.751-1.04 2.923-.98z"/></g></svg>