<svg height="512" width="512" style="enable-background:new 0 0 512 512" xml:space="preserve" xmlns="http://www.w3.org/2000/svg"><defs><filter style="color-interpolation-filters:sRGB" id="a" x="-.077" y="-.077" width="1.154" height="1.154"><feFlood flood-opacity="1" flood-color="#3A3F5E" result="flood"/><feComposite in="flood" in2="SourceGraphic" operator="out" result="composite1"/><feGaussianBlur in="composite1" stdDeviation="13.48" result="blur"/><feOffset result="offset"/><feComposite in="offset" in2="SourceGraphic" operator="atop" result="composite2"/></filter></defs><path d="M0 0h512v512H0Z" fill="#b90202" style="fill:#1b1f21;fill-opacity:1"/><g style="fill:#e64539;fill-opacity:1;filter:url(#a)"><g style="fill:#e64539;fill-opacity:1"><path style="stroke-width:.820792;fill:#e64539;fill-opacity:1" d="M93.26 45.877c-26.125 0-47.383 21.258-47.383 47.4v40.15c0 9.667 7.827 17.512 17.51 17.512h17.51v35.02h-17.51c-9.683 0-17.51 7.844-17.51 17.51v215.254c0 26.142 21.258 47.4 47.383 47.4h215.27c9.683 0 17.51-7.844 17.51-17.51 0-11.626 5.9-17.51 17.51-17.51 11.61 0 17.51 5.883 17.51 17.51 0 9.666 7.828 17.51 17.511 17.51h40.168c26.125 0 47.383-21.258 47.383-47.4V93.277c0-26.142-21.258-47.4-47.383-47.4h-40.168c-9.683 0-17.511 7.844-17.511 17.51 0 .175-.753 17.51-17.51 17.51-16.25 0-17.51-13.413-17.51-17.51 0-9.666-7.827-17.51-17.51-17.51H93.26zM256 96.752c21.952 0 39.813 17.86 39.813 39.812 0 14.67-8.065 27.367-19.907 34.274v7.545c45.375 9.247 79.623 49.457 79.623 97.523 0 18.31-5.056 35.424-13.716 50.178l13.029 11.166c3.409-.954 6.931-1.627 10.64-1.627 21.952 0 39.813 17.86 39.813 39.813 0 21.951-17.86 39.812-39.813 39.812-21.951 0-39.812-17.86-39.812-39.812 0-3.336.535-6.527 1.312-9.625l-11.771-10.09c-16.57 12.325-37.019 19.715-59.211 19.715s-42.64-7.39-59.209-19.715l-11.773 10.09c.776 3.099 1.312 6.29 1.312 9.625 0 21.951-17.86 39.812-39.812 39.812-21.952 0-39.813-17.86-39.813-39.812 0-21.952 17.86-39.813 39.813-39.813 3.709 0 7.233.673 10.642 1.627l13.028-11.166c-8.662-14.754-13.717-31.867-13.717-50.178 0-48.066 34.248-88.276 79.623-97.523v-7.545c-11.842-6.907-19.906-19.605-19.906-34.274 0-21.951 17.86-39.812 39.812-39.812zm0 29.857a9.952 9.952 0 0 0-9.953 9.954 9.952 9.952 0 0 0 9.953 9.953c5.497 0 9.953-4.456 9.953-9.953 0-5.498-4.456-9.954-9.953-9.954zm-19.906 93.063c-23.157 8.224-39.81 30.292-39.81 56.234a59.357 59.357 0 0 0 4.89 23.62L217.5 285.53c-.776-3.099-1.313-6.29-1.313-9.625 0-14.669 8.065-27.366 19.907-34.273v-21.961zm39.812 0v21.96c11.842 6.908 19.906 19.605 19.906 34.274 0 3.336-.536 6.526-1.312 9.625l16.326 13.994a59.364 59.364 0 0 0 4.89-23.62c0-25.943-16.653-48.009-39.81-56.233zM256 265.952a9.952 9.952 0 0 0-9.953 9.952 9.952 9.952 0 0 0 9.953 9.953c5.497 0 9.953-4.455 9.953-9.953 0-5.497-4.456-9.953-9.953-9.953zm-10.64 48.138-17.098 14.654c8.297 4.374 17.725 6.879 27.738 6.879 10.013 0 19.442-2.504 27.738-6.877l-17.097-14.656c-3.41.953-6.932 1.627-10.641 1.627-3.71 0-7.231-.673-10.64-1.627zm-98.842 51.39a9.952 9.952 0 0 0-9.954 9.954 9.952 9.952 0 0 0 9.954 9.953c5.497 0 9.953-4.456 9.953-9.953 0-5.498-4.456-9.954-9.953-9.954zm218.964 0a9.952 9.952 0 0 0-9.953 9.954 9.952 9.952 0 0 0 9.953 9.953c5.498 0 9.954-4.456 9.954-9.953 0-5.498-4.456-9.954-9.954-9.954z"/></g></g></svg>