<svg xml:space="preserve" width="512" height="512" xmlns="http://www.w3.org/2000/svg"><defs><filter style="color-interpolation-filters:sRGB" id="a" x="-.063" y="-.063" width="1.126" height="1.126"><feFlood flood-opacity="1" flood-color="#3A3F5E" result="flood"/><feComposite in="flood" in2="SourceGraphic" operator="out" result="composite1"/><feGaussianBlur in="composite1" stdDeviation="13.48" result="blur"/><feOffset result="offset"/><feComposite in="offset" in2="SourceGraphic" operator="atop" result="composite2"/></filter></defs><path d="M-207.845-156.971h512v512h-512z" fill="#b90202" style="fill:#1b1f21;fill-opacity:1" transform="translate(207.845 156.971)"/><g style="filter:url(#a)"><g style="fill:#fff"><path style="fill:#e64539;stroke-width:.738665;fill-opacity:1" d="M66.902 66.902v65.188h44.307V66.902H66.902zm66.776 0v65.188h44.306V66.902h-44.306zm66.783 0v65.188h44.307V66.902H200.46zm66.775 0v65.188h44.307V66.902h-44.307zm66.774 0v65.188h44.306V66.902H334.01zm66.775 0v65.188h44.307V66.902h-44.307zM66.902 154.56v260.978c0 16.3 13.26 29.56 29.56 29.56h319.075c16.3 0 29.56-13.26 29.56-29.56V154.56H66.903zm92.006 58.386h77.387l2.285 8.23c2.162 7.794 9.326 13.235 17.42 13.235 8.094 0 15.258-5.442 17.42-13.234l2.283-8.23h77.389v77.437h-34.678v96.328H193.588v-96.328h-34.68v-77.438zm22.469 22.467v32.502h34.68v96.33h79.888v-96.33h34.68v-32.502h-38.852c-6.94 12.968-20.63 21.465-35.773 21.465-15.143 0-28.833-8.497-35.773-21.465h-38.85z"/></g></g></svg>