<svg xml:space="preserve" width="512" height="512" xmlns="http://www.w3.org/2000/svg"><defs><filter style="color-interpolation-filters:sRGB" id="a" x="-.07" y="-.092" width="1.141" height="1.185"><feFlood flood-opacity="1" flood-color="#3A3F5E" result="flood"/><feComposite in="flood" in2="SourceGraphic" operator="out" result="composite1"/><feGaussianBlur in="composite1" stdDeviation="13.48" result="blur"/><feOffset result="offset"/><feComposite in="offset" in2="SourceGraphic" operator="atop" result="composite2"/></filter></defs><path d="M0 0h512v512H0Z" fill="#b90202" style="fill:#1b1f21;fill-opacity:1"/><g style="fill:#e64539;fill-opacity:1;filter:url(#a)"><g style="fill:#e64539;fill-opacity:1"><path style="stroke-width:.896456;fill:#e64539;fill-opacity:1" d="M256 80.898c-108.494 0-199.616 72.268-228.842 170.623a15.719 15.719 0 0 0 0 8.958C56.35 358.724 147.393 431.102 256 431.102c108.494 0 199.616-72.268 228.842-170.623a15.719 15.719 0 0 0 0-8.958C455.649 153.275 364.607 80.898 256 80.898zm-115.1 76.754h230.2c8.843 0 16.03 7.189 16.03 16.024v164.648c0 8.835-7.187 16.024-16.03 16.024H140.9c-8.843 0-16.03-7.189-16.03-16.024V173.676c0-8.835 7.187-16.024 16.03-16.024zm229.838 16.024-229.838.367.307 139.326h229.531V173.676zM141.242 329.76l.02 8.564 94.422-.15a8.195 8.195 0 0 1-4.286-7.203c0-.413.04-.815.098-1.211h-90.254zm139.23 0c.06.396.1.798.1 1.21a8.19 8.19 0 0 1-4.18 7.137l94.346-.15v-8.197h-90.265z"/></g></g></svg>