<svg xml:space="preserve" width="512" height="512" xmlns="http://www.w3.org/2000/svg"><defs><filter style="color-interpolation-filters:sRGB" id="a" x="-.07" y="-.092" width="1.141" height="1.185"><feFlood flood-opacity="1" flood-color="#3A3F5E" result="flood"/><feComposite in="flood" in2="SourceGraphic" operator="out" result="composite1"/><feGaussianBlur in="composite1" stdDeviation="13.48" result="blur"/><feOffset result="offset"/><feComposite in="offset" in2="SourceGraphic" operator="atop" result="composite2"/></filter></defs><path d="M0 0h512v512H0Z" fill="#b90202" style="fill:#1b1f21;fill-opacity:1"/><g style="fill:#e64539;fill-opacity:1;filter:url(#a)"><g style="fill:#e64539;fill-opacity:1"><path style="fill:#e64539;stroke-width:.896456;fill-opacity:1" d="M256 80.898c-108.494 0-199.616 72.268-228.842 170.623a15.719 15.719 0 0 0 0 8.958C56.35 358.724 147.393 431.102 256 431.102c108.494 0 199.616-72.268 228.842-170.623a15.719 15.719 0 0 0 0-8.958C455.649 153.275 364.607 80.898 256 80.898zm107.352 67.75-9.604 64.963-16.049-16.047-12.379 12.38-23.263-23.264 12.379-12.38-16.047-16.048 64.963-9.604zm-105.09 37.135c18.152 0 35.217 7.067 48.052 19.903 11.041 11.04 17.987 25.66 19.557 41.168 1.548 15.286-2.156 30.78-10.426 43.628l-1.8 2.8-20.067-20.067.846-1.723c7.588-15.463 4.5-34.041-7.688-46.228-7.607-7.607-17.722-11.795-28.48-11.795a40.502 40.502 0 0 0-17.748 4.107l-1.723.846-20.066-20.067 2.799-1.8c10.947-7.047 23.653-10.772 36.744-10.772zm-59.907 32.936 20.067 20.066-.846 1.723c-7.588 15.463-4.5 34.041 7.688 46.228 7.607 7.607 17.72 11.795 28.476 11.795h.004a40.5 40.5 0 0 0 17.748-4.107l1.723-.846 20.068 20.067-2.799 1.8c-10.947 7.047-23.652 10.772-36.74 10.772h-.004c-18.153-.001-35.219-7.07-48.053-19.904-11.041-11.041-17.986-25.66-19.556-41.167-1.548-15.286 2.154-30.78 10.424-43.628l1.8-2.8zm58.225 11.504c6.73 0 13.057 2.621 17.816 7.38 4.76 4.76 7.381 11.088 7.381 17.819 0 6.73-2.621 13.059-7.38 17.818-.094.094-.19.18-.286.272-.091.095-.18.193-.273.287-4.76 4.76-11.088 7.38-17.818 7.38-6.731 0-13.06-2.62-17.819-7.38-4.76-4.76-7.379-11.088-7.379-17.819 0-6.73 2.62-13.059 7.38-17.818.093-.093.191-.18.286-.271.092-.095.18-.194.274-.287 4.759-4.76 11.087-7.381 17.818-7.381zm-98.328 68.166 16.049 16.047 12.379-12.38 23.263 23.264-12.379 12.38 16.047 16.048-64.963 9.604 9.604-64.963z"/></g></g></svg>