<svg version="1.2" viewBox="-421 153 512 512" xml:space="preserve" width="512" height="512" xmlns="http://www.w3.org/2000/svg"><defs><filter style="color-interpolation-filters:sRGB" id="a" x="-.082" y="-.066" width="1.163" height="1.132"><feFlood flood-opacity="1" flood-color="#3A3F5E" result="flood"/><feComposite in="flood" in2="SourceGraphic" operator="out" result="composite1"/><feGaussianBlur in="composite1" stdDeviation="13.48" result="blur"/><feOffset result="offset"/><feComposite in="offset" in2="SourceGraphic" operator="atop" result="composite2"/></filter></defs><path d="M0 0h512v512H0Z" fill="#b90202" style="fill:#1b1f21;fill-opacity:1" transform="translate(-421 153)"/><path style="fill:#e64539;stroke-width:3.85001;fill-opacity:1;filter:url(#a)" d="m333.43 7.186-80.207.068h-.002l-77.637-.065s11.344 80.403 77.82 80.403c68.162 0 80.026-80.406 80.026-80.406zm-176.758 99.45a98.26 98.26 0 0 0-98.563 98.561v241.01c0 18.865 15.016 34.65 34.65 34.65 19.636 0 34.651-15.015 34.651-34.65V224.832c0-5.39 4.622-10.01 10.012-10.01 5.39 0 10.008 4.62 10.008 10.01v273.4h98.56v-16.605c0-5.39 4.622-10.01 10.012-10.01 5.39 0 10.008 4.62 10.008 10.01v16.605h98.558v-273.4c0-5.39 4.622-10.01 10.012-10.01 5.39 0 10.01 4.62 10.01 10.01v221.76c0 18.865 15.015 34.65 34.65 34.65 19.635 0 34.65-15.015 34.65-34.65V205.197c-1.54-54.67-46.586-98.56-100.1-98.56H156.671zm63.523 66.157c5.97-.142 13.425 2.076 21.05 10.436 1.999 2.196 3.644 4.818 4.888 7.794 1.973 4.728 6.013 13.679 11.687 22.774 15.78-5.464 35.654-10.827 54.051-7.543 14.138 2.518 24.185 11.646 27.563 25.04 4.727 18.74-3.387 49.197-40.332 78.495-12.884 10.215-41.476 29.426-74.211 29.426-10.567 0-21.565-2.001-32.606-6.953-10.138-4.544-16.932-12.157-19.654-22.018-3.568-12.927.358-28.455 11.045-43.723 6.798-9.703 16.284-19.307 27.53-27.87a63.819 63.819 0 0 0-9.798-18.434c-2.518-3.294-4.15-6.551-4.99-9.955-1.458-5.909-2.284-14.736 2.066-23.219 2.836-5.53 7.404-9.884 12.858-12.262 2.226-.969 5.272-1.903 8.853-1.988zm.559 6.64c-2.234 0-4.48.493-6.74 1.48-4.043 1.761-7.447 5.024-9.58 9.18-3.408 6.648-2.709 13.768-1.522 18.57.615 2.493 1.863 4.944 3.813 7.5a70.438 70.438 0 0 1 11.464 22.43c.01.034.037.06.047.093.024.07.035.136.055.207l.022.06v.02c7.76 26.221-1.43 49.674-1.829 50.664a3.336 3.336 0 0 1-4.343 1.855 3.343 3.343 0 0 1-1.862-4.344c.064-.163 4.787-12.337 4.38-28.343-3.037 3.063-5.785 6.171-8.15 9.295-7.91 10.459-10.997 20.14-8.921 27.998 1.602 6.078 6.32 10.96 13.637 14.113 17.976 7.75 44.835.07 71.85-20.541 23.255-17.745 36.484-37.65 33.698-50.711-1.42-6.674-7.116-11.228-16.92-13.545-9.178-2.16-20.205-1.524-32.132 1.813 7.74 8.683 17.294 15.206 27.713 12.972a3.345 3.345 0 0 1 3.972 2.565 3.346 3.346 0 0 1-2.568 3.972 26.457 26.457 0 0 1-5.57.596c-12.79 0-25.624-9.404-37.504-27.5l-.133-.176c-.167-.254-.315-.505-.479-.76-.19-.297-.386-.577-.58-.878-.016-.03-.016-.064-.033-.094-6.122-9.697-10.478-19.3-12.578-24.326-.946-2.264-2.177-4.237-3.658-5.862-5.043-5.527-10.25-8.302-15.55-8.302z" transform="translate(-421 153)"/></svg>