<svg width="512" height="512" xml:space="preserve" xmlns="http://www.w3.org/2000/svg"><defs><filter style="color-interpolation-filters:sRGB" id="a" x="-.061" y="-.062" width="1.122" height="1.123"><feFlood flood-opacity="1" flood-color="#3A3F5E" result="flood"/><feComposite in="flood" in2="SourceGraphic" operator="out" result="composite1"/><feGaussianBlur in="composite1" stdDeviation="10.324" result="blur"/><feOffset result="offset"/><feComposite in="offset" in2="SourceGraphic" operator="atop" result="composite2"/></filter></defs><path d="M0 0h512v512H0Z" fill="#b90202" style="fill:#1b1f21;fill-opacity:1"/><g style="fill:#e64539;fill-opacity:1;filter:url(#a)" transform="translate(-17.36 -61.694) scale(1.15518)"><path style="fill:#e64539;stroke-width:1.15518;fill-opacity:1" d="M204.219 19.078c5.15 27.232 33.526 45.413 46.699 51.492 20.86 9.628 80.454 24.335 102.064-13.408 5.765 14.77 1.875 137.619-32.189 168.854-17.26-16.457-42.176-26.79-69.875-26.79-22.744 0-43.602 6.967-59.895 18.567-21.508-34.521-62.2-57.83-108.9-57.83-22.39 0-43.392 5.382-61.58 14.766v12.068a3.642 3.642 0 0 0-.066-.014v296.49s86.415 4.47 93.328-95.353a.048.048 0 0 1-.004-.018c21.022 30.528 88 53.765 129.273 52.395 64.83-2.15 150.974-4.992 223.95-74.95 6.743-6.71 12.153-14.636 15.828-23.404v-.004c26.883-55.924-30.57-239.755-64.12-322.86H204.22zm-70.703 230.244h244.968v134.735H262.125V273.82h-128.61v-24.498zm186.789 27.559c-21.95 0-39.809 17.859-39.809 39.808 0 21.95 17.86 39.807 39.809 39.807 21.95 0 39.806-17.857 39.806-39.807 0-21.95-17.856-39.808-39.806-39.808zm-186.79 15.31h24.497v91.866h-24.496V292.19zm42.87 0h24.498v91.866h-24.498V292.19zm42.869 0h24.498v91.866h-24.498V292.19zm101.05 3.063c11.82 0 21.434 9.616 21.434 21.435 0 11.82-9.614 21.434-21.433 21.434-11.82 0-21.436-9.614-21.436-21.434 0-11.819 9.616-21.435 21.436-21.435z" transform="translate(15.028 53.407) scale(.86567)"/></g></svg>