<svg width="512" height="512" xmlns="http://www.w3.org/2000/svg"><defs><filter style="color-interpolation-filters:sRGB" id="a" x="-.06" y="-.053" width="1.12" height="1.106"><feFlood flood-opacity="1" flood-color="#3A3F5E" result="flood"/><feComposite in="flood" in2="SourceGraphic" operator="out" result="composite1"/><feGaussianBlur in="composite1" stdDeviation="10.324" result="blur"/><feOffset result="offset"/><feComposite in="offset" in2="SourceGraphic" operator="atop" result="composite2"/></filter></defs><path d="M0 0h512v512H0z" fill="#b90202" style="fill:#1b1f21;fill-opacity:1"/><g style="fill:#e64539;fill-opacity:1;filter:url(#a)"><path d="M131.844 18a3914.43 3914.43 0 0 0 35.148 42.068c2.9 3.42 5.828 6.856 8.772 10.297 21.42-7.908 40.938-10.88 58.87-10.365 18.856.54 35.965 4.92 51.712 11.432 21.582 8.923 40.79 21.448 59.658 33.252-17.115-28.09-44.02-56.258-72.565-78.752A378.744 378.744 0 0 0 263.007 18Zm97.535 59.713c-12.522.162-26.026 2.374-40.99 7.3 14.893 17.17 29.87 33.99 43.715 48.772 18.88 20.16 36.01 36.673 46.74 44.6l25.796-17.8 46.137-31.833c-24.45-14.413-46.998-30.635-71.308-40.686-15.593-6.446-31.792-10.59-50.09-10.353Zm10.078 127.848h.002l23.437-16.17.37-.257c-12.343-9.915-27.42-25.02-44.298-43.043-15.086-16.106-31.372-34.45-63.712-72.19-26.492-31.355-36.625-43.6-46.689-55.901h-59.79c14.338 21.4 28.393 41.21 60.331 79.288 47.082 50.458 82.616 79.111 130.349 108.273zm124.317-63.909L263.188 211.06l113.714 18.7 8.803-36.95-21.93-51.158zM184.996 368.527c-5.003 3.779-8.057 9.401-8.057 15.472 0 10.863 9.78 20.29 23 20.29 13.222 0 23-9.427 23-20.29 0-1.692-.235-3.35-.686-4.943a955.896 955.896 0 0 0 12.467-10.8c15.435-13.584 35.27-31.606 54.89-49.628 39.238-36.045 77.593-72.07 77.593-72.07l-.174-.183-24.6-4.047c-7.136 8.377-17.768 13.67-29.715 13.67-16.517 0-30.525-10.11-36.24-24.516l-25.737-4.232v.002c-21.333 16.328-34.155 35.29-42.85 54.92-9.642 21.763-11.616 44.63-18.977 66.364m-23.27 56.394-22.18 30.11-57.435 12.952L68.02 487h72.972c7.86-23.49 20.24-48.863 38.91-69.646-5.724-3.014-10.634-7.276-14.26-12.424zM406.714 487v-32.127c-14.087-3.435-30.96-5.867-49.138-7.326-21.59-1.733-44.84-2.498-78.374-3.953-21.083-1.059-30.988-1.727-40.357-2.635l-5.82-.565-8.583-25.75.001.002c-6.84 4.774-15.278 7.59-24.26 7.64-18.573 17.757-31.68 41.752-40.105 64.714h130.37zm18.001-23.106V487h38.508l-38.508-23.105z" fill="#fff" style="fill:#e64539;fill-opacity:1"/></g></svg>