<svg width="512" height="512" xmlns="http://www.w3.org/2000/svg"><defs><filter style="color-interpolation-filters:sRGB" id="a" x="-.125" y="-.09" width="1.25" height="1.18"><feFlood flood-opacity="1" flood-color="#3A3F5E" result="flood"/><feComposite in="flood" in2="SourceGraphic" operator="out" result="composite1"/><feGaussianBlur in="composite1" stdDeviation="10.324" result="blur"/><feOffset result="offset"/><feComposite in="offset" in2="SourceGraphic" operator="atop" result="composite2"/></filter></defs><path d="M0 0h512v512H0Z" fill="#b90202" style="fill:#1b1f21;fill-opacity:1"/><path data-name="&lt;Transparent Rectangle&gt;" style="stroke-width:14.5096;fill:none" d="M23.847 23.847h464.306v464.306H23.847z"/><g style="fill:#e64539;fill-opacity:1;filter:url(#a)"><path style="fill:#e64539;stroke-width:1.68106;fill-opacity:1" d="M255.994 24.977c-91.843 0-166.562 74.718-166.562 166.566v182.49c0 70.751 31.797 112.99 85.054 112.99 77.148 0 102.745-54.158 118.04-86.517l.378-.803c17.11-36.19 39.33-51.717 60.82-66.73 34.894-24.38 67.853-47.41 68.833-141.303.497-47.841-14.99-89.042-44.782-119.149-30.343-30.659-73.592-47.544-121.78-47.544zm-19.267 57.23h8.558v55.272h-8.558V82.207zm-52.383.303c5.89 0 10.911 3.754 12.793 8.998h30.502v45.97h-8.56v-37.412h-21.745c-1.696 5.567-6.866 9.618-12.99 9.618-7.504 0-13.596-6.077-13.596-13.58 0-7.504 6.092-13.594 13.596-13.594zm93.513 0c7.504 0 13.596 6.09 13.596 13.594 0 6.151-4.098 11.35-9.709 13.021v28.352h-8.543v-28.61c-5.208-1.9-8.924-6.897-8.924-12.763 0-7.504 6.077-13.594 13.58-13.594zm-23.091 28.867h8.545v26.102h-8.545v-26.102zm91.23 1.951c7.504 0 13.58 6.092 13.58 13.596a13.57 13.57 0 0 1-8.424 12.566v22.424h-53.53v-8.543h44.972v-13.293c-5.863-1.507-10.192-6.825-10.192-13.156 0-7.504 6.09-13.594 13.594-13.594zm-205.4 13.125h40.77v26.918H203.2v8.545h-30.396v-26.902h-32.21v-8.561zm71.148 19.584h77.332v77.29h-77.332v-77.29zm8.5 7.576V195.2l1.254 1.254 4.672 4.674c-3.58.494-6.336 3.542-6.336 7.26a7.346 7.346 0 0 0 7.35 7.347 7.343 7.343 0 0 0 7.273-6.32l5.203 5.201 1.254 1.256h39.982v-8.545H244.47l-15.684-15.681v-38.032h-8.54zm26.584.076v35.325h33.979l-.002-8.559h-25.42V153.69h-8.557zm-95.133 18.116h51.506v8.543h-42.963v35.19c5.258 1.874 9.03 6.89 9.03 12.792 0 7.503-6.092 13.594-13.596 13.594-7.504 0-13.58-6.091-13.58-13.594 0-6.12 4.043-11.29 9.603-12.99v-43.535zm145.926 0h26.115v8.543h-26.115v-8.543zm48.375 10.63c7.504 0 13.58 6.075 13.58 13.579 0 7.503-6.076 13.595-13.58 13.595-6.693 0-12.258-4.848-13.383-11.22h-34.992v-8.559h36.277c2.254-4.389 6.825-7.394 12.098-7.394zm-168.912 7.395h26.117v8.559h-26.117v-8.559zm8.303 17.647h17.812v8.558h-9.27v32.393c5.255 1.874 9.012 6.892 9.012 12.793 0 7.503-6.074 13.593-13.578 13.593s-13.593-6.09-13.593-13.593c0-6.119 4.053-11.29 9.617-12.99v-40.755zm112.234.002h30.395v54.771c5.34 1.832 9.18 6.892 9.18 12.854 0 7.502-6.077 13.578-13.58 13.578-7.505 0-13.595-6.077-13.595-13.58 0-6.059 3.972-11.204 9.452-12.957v-46.11H297.62v-8.556zm-78.543 24.404h8.56v26.146h-8.56v-26.146zm17.649 0h8.558v41.783c5.482 1.747 9.451 6.88 9.451 12.943 0 7.503-6.076 13.596-13.58 13.596-7.504 0-13.595-6.092-13.595-13.596 0-5.95 3.836-11.002 9.166-12.838v-41.888zm18.039 0h8.545l.015 26.146h-8.56v-26.146zm18.433 0h8.545v67.777H273.2v-67.777z"/></g></svg>