<svg height="512" width="512" xmlns="http://www.w3.org/2000/svg"><defs><filter style="color-interpolation-filters:sRGB" id="a" x="-.119" y="-.121" width="1.238" height="1.241"><feFlood flood-opacity="1" flood-color="#3A3F5E" result="flood"/><feComposite in="flood" in2="SourceGraphic" operator="out" result="composite1"/><feGaussianBlur in="composite1" stdDeviation="3.369" result="blur"/><feOffset result="offset"/><feComposite in="offset" in2="SourceGraphic" operator="atop" result="composite2"/></filter></defs><path d="M0 0h512v512H0Z" fill="#b90202" style="fill:#1b1f21;fill-opacity:1"/><path d="M660.792 94.9C657.907 88.153 656 81.61 656 77c0-12.035 4.502-20 10-20 2.071 0 5.431 1.034 10.328 3.096a6 6 0 0 1 3.672 5.53v3.902a6 6 0 0 1-3.317 5.366l-6.601 3.301c.619 4.682 4.77 10.971 12.534 18.691 1.369-4.454 4.906-8 9.448-9.325C692.79 79.399 699.648 73 708 73c8.837 0 16 7.163 16 16 0 8.325-6.358 15.165-14.482 15.929-1.888 7.736-9.079 14.59-17.635 17.538a10.006 10.006 0 0 0-4.71-7.027l17.864-20.096a7 7 0 1 0-2.99-2.658l-18.994 21.369a9.98 9.98 0 0 0-8.768 3.583c-2.44-2.876-4.95-6.521-7.298-10.506l6.342-5.637a2 2 0 0 0-2.658-2.99l-5.693 5.06a110.179 110.179 0 0 1-2.464-4.858l4.803-4.202a2 2 0 1 0-2.634-3.01zm27.189 28.614c-1.642.318-3.31.486-4.981.486a2.05 2.05 0 0 1-.248-.015c-1.67-.21-3.62-1.438-5.692-3.392a6 6 0 0 1 10.92 2.921zM708 92a3 3 0 1 1 0-6 3 3 0 0 1 0 6z" style="fill:#e64539;fill-opacity:1;fill-rule:nonzero;stroke:none;stroke-width:1;filter:url(#a)" transform="translate(-4585.81 -379.049) scale(7.01712)"/></svg>