<svg xml:space="preserve" width="512" height="512" xmlns="http://www.w3.org/2000/svg"><defs><filter style="color-interpolation-filters:sRGB" id="a" x="-.069" y="-.09" width="1.137" height="1.18"><feFlood flood-opacity="1" flood-color="#3A3F5E" result="flood"/><feComposite in="flood" in2="SourceGraphic" operator="out" result="composite1"/><feGaussianBlur in="composite1" stdDeviation="13.105" result="blur"/><feOffset result="offset"/><feComposite in="offset" in2="SourceGraphic" operator="atop" result="composite2"/></filter></defs><path d="M0 0h512v512H0Z" fill="#b90202" style="fill:#1b1f21;fill-opacity:1"/><g style="fill:#e64539;fill-opacity:1;filter:url(#a)"><g style="fill:#e64539;fill-opacity:1"><path style="fill:#e64539;stroke-width:.896456;fill-opacity:1" d="M256 80.898c-108.494 0-199.616 72.268-228.842 170.623a15.719 15.719 0 0 0 0 8.958C56.35 358.724 147.393 431.102 256 431.102c108.494 0 199.616-72.268 228.842-170.623a15.719 15.719 0 0 0 0-8.958C455.649 153.275 364.607 80.898 256 80.898zm116.498 58.172-6.7 20.94-30.93 30.93 7.583 7.583c3.091 3.091 3.747 7.683 1.994 11.426l-128.021 85.149 85.138-128.014a10.086 10.086 0 0 1 4.295-.97 10.1 10.1 0 0 1 7.141 2.956l7.584 7.586 30.932-30.931 20.984-6.655zm-136.373 89.928-63.207 95.037-.127.082-30.33-30.33a10.1 10.1 0 0 1 0-14.285l25.66-25.66a10.09 10.09 0 0 1 3.807-2.393l64.197-22.451zm46.54 46.303-21.632 65.056a10.102 10.102 0 0 1-2.443 3.955l-25.658 25.66c-3.946 3.945-10.34 3.945-14.286 0l-31.242-31.242.082-.126 95.178-63.303z"/></g></g></svg>