<svg version="1.2" viewBox="-421 153 512 512" xml:space="preserve" width="512" height="512" xmlns="http://www.w3.org/2000/svg"><defs><filter style="color-interpolation-filters:sRGB" id="a" x="-.05" y="-.046" width="1.1" height="1.093"><feFlood flood-opacity="1" flood-color="#3A3F5E" result="flood"/><feComposite in="flood" in2="SourceGraphic" operator="out" result="composite1"/><feGaussianBlur in="composite1" stdDeviation="10.924" result="blur"/><feOffset result="offset"/><feComposite in="offset" in2="SourceGraphic" operator="atop" result="composite2"/></filter></defs><path d="M0 0h512v512H0Z" fill="#b90202" style="fill:#1b1f21;fill-opacity:1" transform="translate(-421 153)"/><g style="fill:#e64539;fill-opacity:1;stroke:#e64539;stroke-opacity:1;stroke-width:2.4946746;stroke-miterlimit:4;stroke-dasharray:none;filter:url(#a)"><g style="fill:#e64539;fill-opacity:1;stroke:#e64539;stroke-opacity:1;stroke-width:2.4946746;stroke-miterlimit:4;stroke-dasharray:none"><path d="m101.153 341.447 35.19 35.189c1.037 2.759 3.46 4.941 7.299 4.941h58.748c2.685 3.063 5.39 6.107 8.058 9.188 12.472 14.374 30.269 30.237 37.275 48.112a8.873 8.873 0 0 0 1.138 2.02v143.367c0 12.023 18.646 12.023 18.646 0v-199.1c2.073 2.064 4.145 4.129 6.214 6.193V584.26c0 12.024 18.646 12.024 18.646 0V410.872c.057-.249.159-.469.225-.714l6.373 6.353a8.214 8.214 0 0 0-.611 2.877c-.323.946-.547 1.979-.547 3.157v161.72c0 12.023 18.646 12.023 18.646 0V433.937c2.235 2.228 4.472 4.455 6.707 6.684v143.938c0 10.522 16.32 10.522 16.32 0V467.801a2556.74 2556.74 0 0 1 54.696-50.91c1.225-1.106 1.926-2.317 2.289-3.554.706-1.146 1.154-2.534 1.154-4.219v-32.399l48.03-48.271c.31.032.6.094.93.094h54.562c4.826 2.072 11.738-.285 11.738-7.14v-167.28c0-10.522-16.32-10.522-16.32 0v158.1h-34.766l16.83-16.916c2.745-2.762 2.889-6.079 1.615-8.788v-52.84c0-10.522-16.32-10.522-16.32 0v53.265c-22.101 22.212-44.198 44.423-66.3 66.635V319.2c11.873-11.877 23.746-23.75 35.623-35.623 2.591-2.591 2.848-5.659 1.808-8.266a7.066 7.066 0 0 0-.71-2.301v-40.894c.277-.216.559-.404.828-.669l34.5-34.15c3.007-.914 5.476-3.395 5.476-7.479V84.758c0-10.522-16.32-10.522-16.32 0v100.311c-8.16 8.079-16.319 16.157-24.479 24.231v-92.922c0-10.522-16.32-10.522-16.32 0v145.244a226.966 226.966 0 0 1-15.3-10.992v-83.252c0-10.522-16.32-10.522-16.32 0v87.72c0 3.978 2.334 6.45 5.239 7.417 7.462 5.863 15.145 11.383 23.166 16.417l-17.186 17.189v-9.404c0-10.522-16.319-10.522-16.319 0v25.725l-13.574 13.574v-1.363c0-1.117-.204-2.101-.498-3.011-.379-1.432-1.122-2.855-2.428-4.165l-28.151-28.226v-36.446a2301.528 2301.528 0 0 1 31.538-32.571c1.171-1.188 1.893-2.464 2.305-3.758.682-1.244 1.114-2.713 1.114-4.472V65.949c0-12.024-18.646-12.024-18.646 0v143.196a2318.706 2318.706 0 0 0-16.316 16.716V121.886c0-12.023-18.646-12.023-18.646 0v148.671c-2.072-2.077-4.145-4.153-6.214-6.23V82.265c0-12.024-18.645-12.024-18.645 0v184.122c0 2.22.64 4.023 1.677 5.422.351 1.514 1.11 3.015 2.485 4.398L318 296.963v58.511c-8.552 7.896-17.119 15.766-25.638 23.697v-31.208c0-.837-.106-1.6-.273-2.317.991-11.195-3.855-21.506-13.497-28.079-3.538-2.411-7.263-4.3-11.09-6.034v-80.927l13.954-14.141c1.272-1.289 1.95-2.697 2.219-4.108 2.697-1.069 4.806-3.464 4.806-7.238V54.158c0-10.522-16.32-10.522-16.32 0v149.156c-.771.392-1.526.885-2.24 1.612-.804.816-1.608 1.632-2.412 2.444V62.844c0-12.024-18.646-12.024-18.646 0v163.428c-2.848 2.889-5.696 5.773-8.547 8.662V62.065c0-12.024-18.646-12.024-18.646 0v240.059c0 2.652.938 4.684 2.354 6.165 5.879 7.988 13.974 10.959 22.982 14.676.559.232 1.188.473 1.856.726v19.857a343420.29 343420.29 0 0 1-33.146-33.027 8.372 8.372 0 0 0-2.505-1.722c-.49-3.599-.481-7.218-.114-10.856a6.006 6.006 0 0 0-.094-1.755V74.558c0-10.522-16.32-10.522-16.32 0v222.36c0 .354.062.665.098 1 0 .012-.004.02-.004.032-.587 5.884-.114 11.701 1.057 17.495.563 2.786 2.852 4.781 5.487 5.577.261.351.522.706.861 1.045 14.896 14.843 29.792 29.682 44.688 44.524v43.934c-5.659-7.099-11.91-13.818-17.744-20.673-14.92-17.528-30.196-34.75-45.655-51.804v-226.77c0-10.522-16.32-10.522-16.32 0v165.799a496.385 496.385 0 0 0-26.52-24.264v-59.862c.017-.016.033-.024.049-.041 7.353-7.658 14.076-15.847 20.286-24.459 1.064-1.481 1.334-3.264 1.073-5.006 0-.053.017-.098.017-.151V60.278c0-10.522-16.32-10.522-16.32 0v101.4a227.541 227.541 0 0 1-5.1 6.536v-11.037c0-10.522-16.32-10.522-16.32 0v98.94c0 .143.033.261.041.399-.216 2.052.501 4.203 2.664 6.018 14.096 11.849 27.458 24.464 40.139 37.814v40.433c0 2.758 1.134 4.773 2.791 6.087.343.678.755 1.347 1.334 1.987a2506.24 2506.24 0 0 1 14.716 16.405h-39.939l-32.98-32.96V116.378c0-10.522-16.32-10.522-16.32 0v83.611c-6.459-7.625-12.921-15.247-19.38-22.873V89.858c0-10.522-16.32-10.522-16.32 0v90.78c0 3.219 1.534 5.443 3.656 6.691 10.682 12.607 21.363 25.21 32.044 37.817v108.491c0 .421.065.792.118 1.18-.359 2.2.208 4.57 2.273 6.63zm265.726 36.173c.534-1.146.845-2.48.845-4.022v-24.496l13.574-13.574v71.049c-14.097 12.758-28.014 25.712-41.82 38.78v-6.39c.604-2.374.106-5.018-2.166-7.282l-13.95-13.9c13.231-12.697 26.851-24.962 40.935-36.716 1.285-1.07 2.097-2.241 2.582-3.449zm-58.789 12.371c7.928-7.32 15.855-14.644 23.782-21.963.845-.779 1.429-1.611 1.894-2.456 1.729-1.502 2.885-3.746 2.885-6.732v-43.183c4.145 4.153 8.286 8.312 12.432 12.465v41.497a800.177 800.177 0 0 0-38.948 34.979c-2.844-2.836-5.691-5.672-8.535-8.503 2.076-2.077 4.296-4.076 6.49-6.104zm-40.583-57.83c4.272 3.019 7.152 6.813 6.234 11.722a9.885 9.885 0 0 0 .012 3.749c-.004.114-.033.213-.033.327v20.359c-2.073-2.064-4.146-4.13-6.214-6.194v-29.963Zm-27.189-33.146V258.17c2.848-2.888 5.695-5.773 8.547-8.662v54.843c-3.431-1.399-6.609-3.076-8.547-5.336z" style="fill:#e64539;fill-opacity:1;stroke:#e64539;stroke-opacity:1;stroke-width:2.4946746;stroke-miterlimit:4;stroke-dasharray:none" transform="translate(-402.82 171.18) scale(.8017)"/><path d="M505.245 3.982c-2.134-2.122-4.818-3.207-7.536-3.064A10.607 10.607 0 0 0 493.331 0H99.954c-1.555 0-3.023.306-4.378.918-2.734-.147-5.402.942-7.536 3.06L25.33 66.047c-3.235 3.203-4.006 7.593-2.072 11.575v295.555c0 .816.094 1.633.29 2.485.069 2.55 1.126 4.916 3.064 6.866l82.894 83.053c1.856 2.941 4.896 4.554 8.576 4.554h81.053c6.756 0 10.294-5.32 10.294-10.576 0-5.251-3.538-10.571-10.294-10.571H122.79L44.4 370.423V76.92l56.357-55.778h391.77L548.88 76.92v293.502l-78.386 78.573h-76.349c-6.757 0-10.29 5.32-10.29 10.571 0 5.255 3.533 10.575 10.29 10.575h81.053c3.562 0 6.532-1.518 8.479-4.423l82.996-83.191c1.938-1.946 2.986-4.312 3.06-6.862.195-.853.29-1.669.29-2.484V77.626c1.938-3.982 1.162-8.372-2.073-11.575z" style="fill:#e64539;fill-opacity:1;stroke:#e64539;stroke-opacity:1;stroke-width:2.4946746;stroke-miterlimit:4;stroke-dasharray:none" transform="translate(-402.82 171.18) scale(.8017)"/></g></g></svg>