<svg version="1.2" viewBox="-421 153 512 512" xml:space="preserve" width="512" height="512" xmlns="http://www.w3.org/2000/svg"><defs><filter style="color-interpolation-filters:sRGB" id="a" x="-.059" y="-.048" width="1.119" height="1.096"><feFlood flood-opacity="1" flood-color="#3A3F5E" result="flood"/><feComposite in="flood" in2="SourceGraphic" operator="out" result="composite1"/><feGaussianBlur in="composite1" stdDeviation="9.788" result="blur"/><feOffset result="offset"/><feComposite in="offset" in2="SourceGraphic" operator="atop" result="composite2"/></filter></defs><path d="M0 0h512v512H0Z" fill="#b90202" style="fill:#1b1f21;fill-opacity:1" transform="translate(-421 153)"/><path style="fill:#e64539;stroke-width:3.85001;fill-opacity:1;filter:url(#a)" d="m333.43 7.186-80.207.068h-.002l-77.637-.065s11.344 80.403 77.82 80.403c68.162 0 80.026-80.406 80.026-80.406zm-176.758 99.45a98.26 98.26 0 0 0-98.563 98.561v241.01c0 18.865 15.016 34.65 34.65 34.65 19.636 0 34.651-15.015 34.651-34.65V224.832c0-5.39 4.622-10.01 10.012-10.01 5.39 0 10.008 4.62 10.008 10.01v273.4h98.56v-16.605c0-5.39 4.622-10.01 10.012-10.01 5.39 0 10.008 4.62 10.008 10.01v16.605h98.558v-273.4c0-5.39 4.622-10.01 10.012-10.01 5.39 0 10.01 4.62 10.01 10.01v221.76c0 18.865 15.015 34.65 34.65 34.65 19.635 0 34.65-15.015 34.65-34.65V205.197c-1.54-54.67-46.584-98.56-100.099-98.56h-197.12zm18.783 35.614a9.052 9.052 0 0 1 6.494 2.742l67.012 67.012v39.45h14.078v-39.45l67.012-67.012a9.052 9.052 0 0 1 6.222-2.738 9.052 9.052 0 0 1 6.577 15.537l-41.047 41.049 7.312 7.312 37.026-37.025a9.052 9.052 0 0 1 6.222-2.738 9.052 9.052 0 0 1 6.578 15.539l-48.271 48.27a9.052 9.052 0 1 1-12.8-12.802l4.845-4.845-7.313-7.313-14.261 14.262v141.064a9.052 9.052 0 1 1-18.102 0v-100.06h-14.078v100.06a9.052 9.052 0 1 1-18.102 0V219.5l-14.261-14.262-7.313 7.313 4.844 4.845a9.052 9.052 0 1 1-12.799 12.801l-48.271-48.27a9.052 9.052 0 0 1 6.306-15.542 9.052 9.052 0 0 1 6.494 2.742l37.026 37.025 7.312-7.312-41.047-41.049a9.052 9.052 0 0 1 6.305-15.541z" transform="translate(-421 153)"/></svg>