<svg version="1.2" viewBox="-421 153 512 512" xml:space="preserve" width="512" height="512" xmlns="http://www.w3.org/2000/svg"><defs><filter style="color-interpolation-filters:sRGB" id="a" x="-.059" y="-.048" width="1.119" height="1.096"><feFlood flood-opacity="1" flood-color="#3A3F5E" result="flood"/><feComposite in="flood" in2="SourceGraphic" operator="out" result="composite1"/><feGaussianBlur in="composite1" stdDeviation="9.788" result="blur"/><feOffset result="offset"/><feComposite in="offset" in2="SourceGraphic" operator="atop" result="composite2"/></filter></defs><path d="M0 0h512v512H0Z" fill="#b90202" style="fill:#1b1f21;fill-opacity:1" transform="translate(-421 153)"/><path style="fill:#e64539;stroke-width:3.85001;fill-opacity:1;filter:url(#a)" d="m333.43 7.186-80.207.068h-.002l-77.637-.065s11.344 80.403 77.82 80.403c68.162 0 80.026-80.406 80.026-80.406zm-176.758 99.45a98.26 98.26 0 0 0-98.563 98.561v241.01c0 18.865 15.016 34.65 34.65 34.65 19.636 0 34.651-15.015 34.651-34.65V224.832c0-5.39 4.622-10.01 10.012-10.01 5.39 0 10.008 4.62 10.008 10.01v273.4h98.56v-16.605c0-5.39 4.622-10.01 10.012-10.01 5.39 0 10.008 4.62 10.008 10.01v16.605h98.558v-273.4c0-5.39 4.622-10.01 10.012-10.01 5.39 0 10.01 4.62 10.01 10.01v221.76c0 18.865 15.015 34.65 34.65 34.65 19.635 0 34.65-15.015 34.65-34.65V205.197c-1.54-54.67-46.586-98.56-100.1-98.56H156.671zm134.846 53.067a5.172 5.172 0 0 1 3.896 2.006l6.08 7.695c1.751 2.216 1.382 5.552-.988 7.108-7.348 4.817-15.817 7.913-24.223 8.94-6.83 18.886-26.336 34.498-46.752 36.944-6.83 18.887-26.336 34.497-46.752 36.944-2.883 8.014-7.82 15.435-14.351 21.586-2.062 1.946-5.394 1.532-7.145-.684l-6.195-7.84c-1.52-1.923-1.479-4.726.29-6.441 4.842-4.736 8.312-10.604 9.74-16.557 1.262-5.31 5.64-9.678 11.083-9.549 15.426.35 32.223-12.886 35.684-27.527.62-2.645 2.016-5.033 3.937-6.744 1.921-1.711 4.367-2.743 7.088-2.678 15.513.36 32.387-12.977 35.766-27.672 1.234-5.445 6.167-9.263 11.736-9.273 6.233-.02 12.79-2.036 18.506-5.565a4.609 4.609 0 0 1 2.6-.693zm27.707 35.065a5.176 5.176 0 0 1 3.898 2.005l6.078 7.694c1.751 2.216 1.384 5.553-.986 7.11-7.348 4.817-15.819 7.911-24.225 8.937-6.83 18.886-26.336 34.498-46.752 36.945-6.83 18.886-26.336 34.497-46.752 36.943-2.883 8.014-7.818 15.436-14.35 21.586-2.061 1.946-5.395 1.534-7.146-.681l-6.195-7.84c-1.52-1.924-1.477-4.727.293-6.442 4.841-4.735 8.311-10.603 9.738-16.556 1.263-5.31 5.642-9.679 11.084-9.55 15.426.35 32.223-12.885 35.684-27.526.619-2.646 2.014-5.034 3.935-6.745 1.921-1.71 4.367-2.744 7.088-2.68 15.513.36 32.389-12.974 35.768-27.67 1.234-5.445 6.167-9.264 11.736-9.275 6.233-.02 12.809-2.011 18.506-5.564a4.598 4.598 0 0 1 2.598-.691zm27.709 35.062a5.172 5.172 0 0 1 3.896 2.006l6.08 7.695c1.751 2.216 1.384 5.553-.986 7.11-7.348 4.817-15.819 7.911-24.225 8.937-6.83 18.886-26.336 34.499-46.752 36.945-6.83 18.887-26.336 34.497-46.752 36.944-2.883 8.014-7.82 15.435-14.351 21.586-2.062 1.946-5.394 1.534-7.145-.682l-6.195-7.842c-1.52-1.923-1.479-4.724.29-6.44 4.842-4.735 8.312-10.605 9.74-16.558 1.262-5.31 5.643-9.678 11.085-9.549 15.426.35 32.22-12.886 35.682-27.527.62-2.645 2.016-5.033 3.937-6.744 1.921-1.711 4.367-2.743 7.088-2.678 15.513.36 32.387-12.977 35.766-27.672 1.234-5.445 6.167-9.263 11.736-9.273 6.233-.02 12.809-2.012 18.506-5.565a4.608 4.608 0 0 1 2.6-.693z" transform="translate(-421 153)"/></svg>