<svg version="1.2" viewBox="-421 153 512 512" xml:space="preserve" width="512" height="512" xmlns="http://www.w3.org/2000/svg"><defs><filter style="color-interpolation-filters:sRGB" id="a" x="-.059" y="-.048" width="1.119" height="1.096"><feFlood flood-opacity="1" flood-color="#3A3F5E" result="flood"/><feComposite in="flood" in2="SourceGraphic" operator="out" result="composite1"/><feGaussianBlur in="composite1" stdDeviation="9.788" result="blur"/><feOffset result="offset"/><feComposite in="offset" in2="SourceGraphic" operator="atop" result="composite2"/></filter></defs><path d="M0 0h512v512H0Z" fill="#b90202" style="fill:#1b1f21;fill-opacity:1" transform="translate(-421 153)"/><path style="fill:#e64539;stroke-width:3.85001;fill-opacity:1;filter:url(#a)" d="m333.43 7.186-80.207.068h-.002l-77.637-.065s11.344 80.403 77.82 80.403c68.162 0 80.026-80.406 80.026-80.406zm-176.758 99.45a98.26 98.26 0 0 0-98.563 98.561v241.01c0 18.865 15.016 34.65 34.65 34.65 19.636 0 34.651-15.015 34.651-34.65V224.832c0-5.39 4.622-10.01 10.012-10.01 5.39 0 10.008 4.62 10.008 10.01v273.4h98.56v-16.605c0-5.39 4.622-10.01 10.012-10.01 5.39 0 10.008 4.62 10.008 10.01v16.605h98.558v-273.4c0-5.39 4.622-10.01 10.012-10.01 5.39 0 10.01 4.62 10.01 10.01v221.76c0 18.865 15.015 34.65 34.65 34.65 19.635 0 34.65-15.015 34.65-34.65V205.197c-1.54-54.67-46.586-98.56-100.1-98.56H156.671zm106.164 61.966c10.778 5.485 21.025 10.777 28.889 17.209 11.074 18.235 26.696 35.632 37.974 53.306 11.254 17.636 18.06 35.084 12.78 54.117-.555.162-1.72.323-3.243.33-11.076-.088-23.504-.333-35.293 1.315 3.35.644 6.883 1.342 10.432 2.02-19.195 8.871-38.558 13.759-62.379 8.533 4.389-2.354 10.208-5.434 13.92-9.94 5.07.671 10.155.517 15.639-.23 4.504-1.816 11.545-5.353 17.256-9.242 1.943-1.324 3.734-2.695 5.212-4.01-10.151 3.54-19.779 6.642-31.931 7.222-9.67-.123-19.665-3.108-31.02-12.056-1.328-1.047-1.596-1.325-3.218-.52-9.309 3.368-13.504 8.837-15.608 14.444-2.103 5.606-2.731 10.986-6.258 16.67l-.12.193-.095.21c-6.24 13.74-19.321 28.727-36.16 35.225h-11.91v-89.332l1.658-1.318c11.078-8.8 22.032-14.78 33.42-14.373 13.062.657 25.298 12.115 37.43 18.629 3.17 1.923 6.03 3.686 8.63 5.303-2.62-3.285-4.636-5.801-7.57-9.051 10.081-6.06 18.92-8.953 27.325-7.848 6.098.864 11.82 4.742 17.787 7.649 4.154 2.082 8.79 4.766 13.037 7.379 1.53.94 2.972 1.856 4.355 2.746-3.658-4.649-6.822-8.335-11.564-12.856 2.119-2.513 3.486-5.782 4.367-9.312 2.768-11.957-2.276-24.549-9.226-34.864 1.461-.603 2.968-1.758 4.406-2.63l-3.623-5.647-2.822 1.813c-.5.32-3.747.612-5.975-.97-2.23-1.582-4.078-4.344-2.723-10.683l.701-3.281-6.56-1.4-.701 3.279c-.552 2.582-.652 4.968-.397 7.123-1.698.54-3.263 1.034-5.162 1.62-2.394-2.127-4.612-5.828-5.863-11.372-1.264 5.689-.578 9.043 1.478 12.654-1.73.481-3.453.928-5.19 1.317-2.821-1.888-5.576-5.84-7.028-12.276-1.335 6.007-.5 9.412 1.832 13.264-1.05.16-2.14.301-3.27.426-3.114-1.617-6.3-5.696-7.902-12.795-1.32 5.945-.514 9.342 1.763 13.146-1.705.015-3.794-.054-5.716-.16-1.489-3.052-2.408-5.955-3.41-9.361 2.824-7.853 3.15-10.655 8.748-16.36 7.608-1.775 15.3-3.672 22.898-5.255zm8.922 31.523c.992 1.673 2.26 3.043 3.697 4.063a17.05 17.05 0 0 1-4.254 3.337c-2.938 1.617-6.685 2.696-10.795 2.37.127-2.064-.322-4.2-1.263-6.038 3.78-.964 8.263-2.39 12.615-3.732zm-20.203 5.479c1.93.1 3.277 4.515 1.252 5.712-3.47 1.395-6.98 1.085-11.147.65-1.763-1.033-2.281-3.752-3.172-5.53 3.902.046 8.684-.407 13.067-.832zm-13.037 78.011h.002c6.709 5.024 13.244 8.286 19.585 10.186-9.028 7.028-22.943 12.562-34.976 14.94 3.076-5.94 3.906-11.313 5.396-15.286 1.576-4.198 3.436-7.144 9.993-9.84zm3.472 26.602c-1.056 12.097-7.206 22.077-15.242 33.181h-31.557c12.019-7.442 19.383-17.636 24.553-27.941 7.029.776 15.269-2.543 22.246-5.24z" transform="translate(-421 153)"/></svg>