<svg width="512" height="512" xml:space="preserve" xmlns="http://www.w3.org/2000/svg"><defs><filter style="color-interpolation-filters:sRGB" id="a" x="-.058" y="-.058" width="1.116" height="1.117"><feFlood flood-opacity="1" flood-color="#3A3F5E" result="flood"/><feComposite in="flood" in2="SourceGraphic" operator="out" result="composite1"/><feGaussianBlur in="composite1" stdDeviation="9.788" result="blur"/><feOffset result="offset"/><feComposite in="offset" in2="SourceGraphic" operator="atop" result="composite2"/></filter></defs><path d="M0 0h512v512H0Z" fill="#b90202" style="fill:#1b1f21;fill-opacity:1"/><g style="fill:#e64539;fill-opacity:1;filter:url(#a)" transform="translate(-17.36 -61.694) scale(1.15518)"><path style="fill:#e64539;stroke-width:1.15518;fill-opacity:1" d="M204.219 19.078c5.15 27.232 33.526 45.413 46.699 51.492 20.86 9.628 80.454 24.335 102.064-13.408 5.765 14.77 1.875 137.619-32.189 168.854-17.26-16.457-42.176-26.79-69.875-26.79-22.744 0-43.602 6.967-59.895 18.567-21.508-34.521-62.2-57.83-108.9-57.83-22.39 0-43.392 5.382-61.58 14.766v12.068a1.654 1.654 0 0 0-.066-.014v296.49s86.415 4.47 93.328-95.353a.057.057 0 0 1-.004-.018c21.022 30.528 88 53.765 129.273 52.395 64.83-2.15 150.974-4.992 223.95-74.95 6.743-6.71 12.153-14.636 15.828-23.404v-.004c26.884-55.924-30.57-239.755-64.12-322.86H204.22zm56.406 198.404c2.057 15.309 4.115 30.61 6.105 45.918l2.522 21.871 12.342-1.459-2.19-18.64 35.37-12.979-10.75 37.989-15.196-3.053-2.455 12.144c25.415 5.11 50.828 10.153 76.242 15.461l-62.97 45.121 13.072-29.527c-19.376-2.389-38.42-5.11-57.797-7.63l-1.594 11.677-16.72 16.656-17.122-17.12c5.64-5.641 11.282-11.347 16.922-16.854l12.342-1.063c-1.46-18.182-3.052-36.23-4.512-54.293L203.56 275.85l57.066-58.368zm-70.338 68.985 44.592 12.342.2 1.99-16.987 16.922-16.192-4.647-43.795 28.336 32.182-54.943zm77.97 50.496 6.17.797 11.282 31.453-59.92 36.629 32.713-48.838-2.986-7.3 12.742-12.741zm-52.487 10.816c3.715 3.65 7.364 7.3 11.013 10.95-6.503 30.06-32.38 52.753-63.502 52.753-14.899 1.053-21.834-8.128 0-12.41 27.804.067 50.697-22.428 52.489-51.293z" transform="translate(15.028 53.407) scale(.86567)"/></g></svg>