<svg width="512" height="512" xmlns="http://www.w3.org/2000/svg"><defs><filter style="color-interpolation-filters:sRGB" id="a" x="-.068" y="-.078" width="1.136" height="1.156"><feFlood flood-opacity="1" flood-color="#3A3F5E" result="flood"/><feComposite in="flood" in2="SourceGraphic" operator="out" result="composite1"/><feGaussianBlur in="composite1" stdDeviation="9.788" result="blur"/><feOffset result="offset"/><feComposite in="offset" in2="SourceGraphic" operator="atop" result="composite2"/></filter></defs><path d="M0 0h512v512H0z" fill="#b90202" style="fill:#1b1f21;fill-opacity:1"/><g style="fill:#e64539;fill-opacity:1;filter:url(#a)"><path d="M22.398 103.932v196.14c69.429 29.088 234.248 37.381 307.096 23.858-10.96 63.941-1.743 118.14 10.568 164.152 111.531-.128 0 0 110.833-.123 4.234-66.609 10.894-142.696 12.94-183.04 1.022-20.029 5.998-100.672-76.546-128.216-102.19-34.14-232.323-59.554-364.89-72.771zM277.4 156.225c9.526-.004 17.235 10.014 17.235 22.37 0 9.878-5.003 18.551-12.268 21.405-6.375 20.792-13.047 62.45-7.043 66.12 7.487 4.595 21.793-1.816 32.875-10.118-.89-5.967 2.447-12.454 8.34-16.272 7.894-5.077 17.716-3.855 21.941 2.743 4.226 6.56 1.297 16.012-6.56 21.09-6.004 3.854-13.342 4.15-18.42.777-26.611 11.341-26.723 50.888-54.965 55.558-19.903 3.299-39.917-21.386-65.068-33.58-6.342 3.225-15.07 2.113-21.66-2.742-8.44-6.263-10.6-16.53-4.819-22.941 5.778-6.412 17.29-6.56 25.719-.297 6.045 4.485 9.084 11.267 7.713 17.308 8.487 5.338 16.345 7.116 20.607 1.483 7.71-10.304-6.338-45.439-18.902-66.787-7.153-.927-13.947-6.635-17.445-14.678-4.952-11.415-1.784-23.765 7.082-27.62 8.88-3.857 20.074 2.273 25.04 13.685 3.188 7.338 3.077 15.417-.222 21.236 4.225 26.24 9.044 53.817 31.356 51.52 18.123-2.892 21.94-29.245 19.865-59.34-4.781-4.152-7.635-11.118-7.635-18.55 0-12.356 7.71-22.37 17.234-22.37z" style="fill:#e64539;fill-opacity:1"/></g></svg>