<svg width="512" height="512" xmlns="http://www.w3.org/2000/svg"><defs><filter style="color-interpolation-filters:sRGB" id="a" x="-.066" y="-.066" width="1.132" height="1.132"><feFlood flood-opacity="1" flood-color="#3A3F5E" result="flood"/><feComposite in="flood" in2="SourceGraphic" operator="out" result="composite1"/><feGaussianBlur in="composite1" stdDeviation="9.788" result="blur"/><feOffset result="offset"/><feComposite in="offset" in2="SourceGraphic" operator="atop" result="composite2"/></filter></defs><path d="M0 0h512v512H0z" fill="#b90202" style="fill:#1b1f21;fill-opacity:1"/><g style="fill:#e64539;fill-opacity:1;filter:url(#a)"><g style="fill:#e64539;fill-opacity:1"><path style="fill:#e64539;stroke-width:.885735;fill-opacity:1" d="M255.996 29.252c-46.2 0-89.187 13.963-125.07 37.791h5.556c69.14 0 128.264 51.472 137.145 115.66 26.491 6.387 47.334 26.7 54.76 52.758 43.46-8.485 78.775-51.057 78.775-98.977V87.47c-1.397-13.422-75.382-58.292-151.166-58.217zm80.287 24.074 51.028 97.57-51.327-.158-.193 63.192-51.027-97.57 51.326.156.193-63.19z"/><path d="M213.333 256c0 23.531 19.136 42.667 42.667 42.667 23.531 0 42.667-19.136 42.667-42.667 0-23.531-19.136-42.667-42.667-42.667-23.531 0-42.667 19.136-42.667 42.667zm256-141.21v6.272c0 78.059-58.112 144.811-130.581 154.837-7.211 29.888-30.123 53.44-59.563 61.824 9.579 49.067 57.643 88.939 111.744 88.939h55.339C486.997 381.329 512 321.596 512 255.996c0-52.16-15.765-100.694-42.667-141.206Z" style="fill:#e64539;fill-opacity:1" transform="translate(29.251 29.253) scale(.88573)"/><path d="M236.1 338.752c-29.909-7.211-53.44-30.144-61.824-59.563-49.067 9.579-88.939 57.643-88.939 111.744v55.339C130.671 486.997 190.404 512 256.004 512c52.16 0 100.693-15.765 141.205-42.667h-6.272c-78.058 0-144.81-58.112-154.837-130.581z" style="fill:#e64539;fill-opacity:1" transform="translate(29.251 29.253) scale(.88573)"/><path d="M173.248 236.111c7.211-29.909 30.123-53.461 59.563-61.845-9.579-49.045-57.643-88.939-111.744-88.939H65.728C25.003 130.682 0 190.394 0 255.994c0 52.181 15.765 100.693 42.667 141.205v-6.272c0-78.059 58.112-144.811 130.581-154.816z" style="fill:#e64539;fill-opacity:1" transform="translate(29.251 29.253) scale(.88573)"/></g></g></svg>