<svg width="512" height="512" xmlns="http://www.w3.org/2000/svg"><defs><filter style="color-interpolation-filters:sRGB" id="a" x="-.076" y="-.051" width="1.152" height="1.102"><feFlood flood-opacity="1" flood-color="#3A3F5E" result="flood"/><feComposite in="flood" in2="SourceGraphic" operator="out" result="composite1"/><feGaussianBlur in="composite1" stdDeviation="9.788" result="blur"/><feOffset result="offset"/><feComposite in="offset" in2="SourceGraphic" operator="atop" result="composite2"/></filter></defs><path d="M0 0h512v512H0Z" fill="#b90202" style="fill:#1b1f21;fill-opacity:1" transform="translate(-.001 .001)"/><path d="M131.38 25.615c-3.13-.02-6.297.005-9.5.07-5.25.108-10.71.475-16.152.82-5.876 24.015-4.617 48.104 1.295 72.72 48.867-2.29 92.91 6 130.68 26.472 20.333-1.332 38.213-5.913 59.59-23.488a98.496 98.496 0 0 1 2.075-1.654c-8.162-18.217-26.107-36.532-53.763-50.5-28.66-14.475-67.282-24.156-114.225-24.44zm5.604 20.897c8.177 0 15 6.822 15 15 0 8.177-6.823 15-15 15-8.178 0-15-6.823-15-15 0-8.178 6.822-15 15-15zm0 12c-1.55 0-3 1.45-3 3s1.45 3 3 3 3-1.45 3-3-1.45-3-3-3zm214.02 41.504c-13.841.202-27.8 4.194-42.28 16.1-27.858 22.9-54.097 27.305-80.018 27.997-25.205.673-50.467-1.378-82.197 6.805-3.925 4.703-5.438 12.194-3.213 23.664 2.446 12.607 9.436 28.598 20.016 45.172 21.16 33.147 56.519 68.736 95.558 90.105l3.918 2.145 5.787 38.676c5.627.414 11.16.74 16.62.978l-6-46.326c-61.83-34.404-107.71-85.402-120.053-136.733 6.733-1.8 11.87-3.182 17.566-3.966 49.06-6.144 91.932 4.67 150.955-41.836 6.793-5.353 14.465-7.532 22.303-7.922.98-.048 1.963-.07 2.945-.065 6.886.03 13.83 1.296 20.36 2.87 9.793 2.364 19.385 5.46 27.566 7.527l.432-14.455c-12.858-4.22-26.731-9.05-41.18-10.367a89.856 89.856 0 0 0-6.316-.36 79.076 79.076 0 0 0-2.768-.01zm2.417 32.828c-5.918-.1-10.816 1.094-14.617 4.09-61.862 48.743-111.583 40.606-156.283 45.195 16.65 39.858 56.729 81.362 109.289 109.656l4.066 2.19 7.53 58.144c30.009.192 58.767-2.478 90.91-8.21l5.97-200.194c-10.672-2.243-21.308-6.14-31.236-8.535-5.805-1.4-11.026-2.26-15.63-2.336zm56.676 226.316c-55.492 10.883-101.631 13.389-156.37 8.227l11.17 64.12c53.668 3.52 92.439 2.388 143.364-8.107zm-18.791 85.797c-26.058 4.345-49.883 6.217-75.05 6.35l4.183 32.292c12.605 3.098 24.55 3.438 34.966 1.905 19.798-2.914 32.784-13.29 35.286-19.942zM283.529 450.6l2.662 17.795a116.105 116.105 0 0 0 15.228 8.5l-3.338-25.77c-4.761-.12-9.62-.303-14.552-.525z" style="fill:#e64539;fill-opacity:1;filter:url(#a)"/></svg>