<svg width="512" height="512" xmlns="http://www.w3.org/2000/svg"><defs><filter style="color-interpolation-filters:sRGB" id="a" x="-.119" y="-.085" width="1.237" height="1.171"><feFlood flood-opacity="1" flood-color="#3A3F5E" result="flood"/><feComposite in="flood" in2="SourceGraphic" operator="out" result="composite1"/><feGaussianBlur in="composite1" stdDeviation="9.788" result="blur"/><feOffset result="offset"/><feComposite in="offset" in2="SourceGraphic" operator="atop" result="composite2"/></filter></defs><path d="M0 0h512v512H0Z" fill="#b90202" style="fill:#1b1f21;fill-opacity:1"/><path data-name="&lt;Transparent Rectangle&gt;" style="stroke-width:14.5096;fill:none" d="M23.847 23.847h464.306v464.306H23.847z"/><g style="fill:#e64539;fill-opacity:1;filter:url(#a)"><path style="fill:#e64539;stroke-width:1.68106;fill-opacity:1" d="M255.994 24.977c-91.843 0-166.562 74.718-166.562 166.566v182.49c0 70.751 31.797 112.99 85.054 112.99 77.148 0 102.745-54.158 118.04-86.517l.378-.803c17.11-36.19 39.33-51.717 60.82-66.73 34.894-24.38 67.853-47.41 68.833-141.303.497-47.841-14.99-89.042-44.782-119.149-30.343-30.659-73.592-47.544-121.78-47.544zM282.04 89.05c16.744 0 30.318 13.576 30.318 30.32a30.183 30.183 0 0 1-7.773 20.262 55.054 55.054 0 0 0-11.69 20.553l-6.224 20.132a5.189 5.189 0 0 1-4.96 3.657h-.001a5.19 5.19 0 0 1-4.957-3.662l-6.518-21.163c-2.253-7.317-6.062-14.13-11.086-19.908a30.176 30.176 0 0 1-7.427-19.87c0-16.745 13.574-30.321 30.318-30.321zm-113.236 15.088h34.617v41.24h-45.443v-30.414c0-5.98 4.846-10.826 10.826-10.826zm48.556 0h26.87a40.528 40.528 0 0 0-2.963 15.232 40.73 40.73 0 0 0 9.992 26.73c4.07 4.682 7.176 10.26 8.984 16.128l6.518 21.16c2.031 6.599 8.037 11.037 14.943 11.04 6.91 0 12.917-4.43 14.955-11.023l6.225-20.133a44.088 44.088 0 0 1 4.998-10.775c.249.027.502.043.76.043h36.822v93.287h-39.611v-27.182a6.97 6.97 0 0 0-6.97-6.97h-37.636v-20.91a6.97 6.97 0 0 0-6.97-6.97h-96.3v-24.478h52.413a6.972 6.972 0 0 0 6.97-6.97v-48.21zm64.842 0c-8.05 0-14.576 6.524-14.576 14.574s6.526 14.576 14.576 14.576c8.051 0 14.576-6.525 14.576-14.576 0-8.05-6.525-14.574-14.576-14.574zm37.647 0h14.789c5.98 0 10.826 4.846 10.826 10.826v23.637h-27.479a40.685 40.685 0 0 0 4.829-19.23 40.552 40.552 0 0 0-2.965-15.233zm-161.871 93.597h89.33v92.606h-78.504c-5.98 0-10.826-4.848-10.826-10.828v-9.989h64.959a6.97 6.97 0 0 0 6.968-6.97v-26.832a6.97 6.97 0 1 0-13.94 0v19.863h-57.987v-57.85zm103.27 27.88h30.665v27.18a6.972 6.972 0 0 0 6.97 6.972h46.58v19.746c0 5.98-4.845 10.828-10.825 10.828h-73.39v-64.727z"/></g></svg>