<svg xml:space="preserve" width="512" height="512" xmlns="http://www.w3.org/2000/svg"><defs><filter style="color-interpolation-filters:sRGB" id="a" x="-.063" y="-.082" width="1.126" height="1.165"><feFlood flood-opacity="1" flood-color="#3A3F5E" result="flood"/><feComposite in="flood" in2="SourceGraphic" operator="out" result="composite1"/><feGaussianBlur in="composite1" stdDeviation="12.007" result="blur"/><feOffset result="offset"/><feComposite in="offset" in2="SourceGraphic" operator="atop" result="composite2"/></filter></defs><path d="M0 0h512v512H0Z" fill="#b90202" style="fill:#1b1f21;fill-opacity:1"/><g style="fill:#e64539;fill-opacity:1;filter:url(#a)"><g style="fill:#e64539;fill-opacity:1"><path style="fill:#e64539;stroke-width:.896456;fill-opacity:1" d="M256 80.898c-108.494 0-199.616 72.268-228.842 170.623a15.719 15.719 0 0 0 0 8.958C56.35 358.724 147.393 431.102 256 431.102c108.494 0 199.616-72.268 228.842-170.623a15.719 15.719 0 0 0 0-8.958C455.649 153.275 364.607 80.898 256 80.898zm-3.01 86.002c23.508 0 47.014 8.947 64.912 26.84 35.792 35.792 35.796 94.071 0 129.867-35.796 35.788-94.041 35.789-129.855.006-35.814-35.8-35.81-94.078.025-129.865 17.9-17.898 41.41-26.847 64.918-26.848zm0 23.856c-17.404.002-34.809 6.626-48.06 19.875-26.503 26.476-26.513 69.622-.01 96.125 26.511 26.507 69.629 26.41 96.127-.008 26.476-26.542 26.485-69.641 0-96.13-13.247-13.243-30.652-19.864-48.057-19.862zm-43.332 59.084c6.08-.135 12.433 9.238 14.137 16.238 7.717 31.66 42.66 39.393 38.47 43.578-4.26 4.256-45.235-2.856-56.501-36.502-2.521-7.4-4.026-19.91 1.32-22.638a5.76 5.76 0 0 1 2.574-.676zm126.41 63.994c.208.141.442.286.641.484l39.404 39.31c7.762 7.78 7.756 20.424-.01 28.194-7.756 7.762-20.396 7.77-28.18 0L308.6 342.424c-.2-.194-.345-.432-.54-.635 5.502-3.55 10.685-7.784 15.458-12.56 4.776-4.777 9.01-9.951 12.55-15.395z"/></g></g></svg>