<svg version="1.2" viewBox="-421 153 512 512" xml:space="preserve" width="512" height="512" xmlns="http://www.w3.org/2000/svg"><defs><filter style="color-interpolation-filters:sRGB" id="a" x="-.052" y="-.042" width="1.104" height="1.084"><feFlood flood-opacity="1" flood-color="#3A3F5E" result="flood"/><feComposite in="flood" in2="SourceGraphic" operator="out" result="composite1"/><feGaussianBlur in="composite1" stdDeviation="8.556" result="blur"/><feOffset result="offset"/><feComposite in="offset" in2="SourceGraphic" operator="atop" result="composite2"/></filter></defs><path d="M0 0h512v512H0Z" fill="#b90202" style="fill:#1b1f21;fill-opacity:1" transform="translate(-421 153)"/><path style="fill:#e64539;stroke-width:3.85001;fill-opacity:1;filter:url(#a)" d="m333.818 7.186-80.207.068h-.002l-77.636-.065s11.344 80.403 77.82 80.403c68.162 0 80.025-80.406 80.025-80.406zm-176.76 99.45a98.26 98.26 0 0 0-98.56 98.561v241.01c0 18.865 15.015 34.65 34.65 34.65 19.635 0 34.649-15.015 34.649-34.65V224.832c0-5.39 4.622-10.01 10.012-10.01 5.39 0 10.01 4.62 10.01 10.01v273.4h98.558v-16.605c0-5.39 4.622-10.01 10.012-10.01 5.39 0 10.01 4.62 10.01 10.01v16.605h98.558v-273.4c0-5.39 4.622-10.01 10.012-10.01 5.39 0 10.01 4.62 10.01 10.01v221.76c0 18.865 15.015 34.65 34.65 34.65 19.635 0 34.648-15.015 34.648-34.65V205.197c-1.54-54.67-46.584-98.56-100.1-98.56H157.06zm159.223 46.825a14.039 14.039 0 0 1 9.994 4.033c3.014 2.962 4.354 6.956 4.123 10.877 3.917-.297 7.932.973 10.946 3.936 5.54 5.445 5.617 14.38.172 19.92-5.446 5.54-14.38 5.615-19.92.17-1.839-1.808-3.016-4.012-3.65-6.334l-3.842 3.908 7.535 7.406-9.873 10.045-4.938 5.021-2.512-2.468-2.888 2.94c7.013 13.46 4.399 30.686-6.688 41.964l-12.344 12.557-50.224-49.372c2.502-2.587 14.88-15 14.88-15 10.887-9.672 26.406-11.634 39.337-4.992l2.859-2.908-2.512-2.469 4.938-5.023 4.935-5.022 4.938-5.021 7.535 7.404 3.842-3.908c-2.334-.595-4.558-1.732-6.397-3.54-5.54-5.445-5.617-14.38-.172-19.919a14.045 14.045 0 0 1 9.926-4.205zm.06 7.039a7.023 7.023 0 0 0-4.962 2.104 7.049 7.049 0 0 0 .086 9.958 7.049 7.049 0 0 0 9.959-.085c2.723-2.77 2.686-7.237-.084-9.96a7.022 7.022 0 0 0-4.998-2.017zm15.07 14.813a7.021 7.021 0 0 0-4.964 2.101c-2.723 2.77-2.684 7.238.086 9.961a7.049 7.049 0 0 0 9.96-.086 7.049 7.049 0 0 0-.087-9.959 7.018 7.018 0 0 0-4.996-2.018zm-104.177 47.775 50.225 49.369-29.623 30.137-50.225-49.371 29.623-30.135zm-34.56 35.158 50.224 49.371-22.17 22.553c-5.47 5.565-14.447 5.642-20.01.174l-30.046-29.533c-5.563-5.468-5.638-14.447-.168-20.012l22.17-22.553z" transform="translate(-421 153)"/></svg>