<svg xml:space="preserve" width="512" height="512" xmlns="http://www.w3.org/2000/svg"><defs><filter style="color-interpolation-filters:sRGB" id="a" x="-.073" y="-.061" width="1.145" height="1.121"><feFlood flood-opacity="1" flood-color="#3A3F5E" result="flood"/><feComposite in="flood" in2="SourceGraphic" operator="out" result="composite1"/><feGaussianBlur in="composite1" stdDeviation="12.72" result="blur"/><feOffset result="offset"/><feComposite in="offset" in2="SourceGraphic" operator="atop" result="composite2"/></filter></defs><path d="M0 0h512v512H0Z" fill="#b90202" style="fill:#1b1f21;fill-opacity:1"/><g style="fill:#e64539;fill-opacity:1;filter:url(#a)"><path d="M453.3 176.262h-8.393v-41.967a8.385 8.385 0 0 0-8.393-8.393h-8.393V58.754a8.385 8.385 0 0 0-8.393-8.393h-8.393V25.18c0-13.883-11.298-25.18-25.18-25.18s-25.18 11.298-25.18 25.18v25.18h-8.393a8.385 8.385 0 0 0-8.393 8.393v67.148h-8.393a8.385 8.385 0 0 0-8.393 8.393v41.967h-8.393a8.385 8.385 0 0 0-8.393 8.393v142.689a8.385 8.385 0 0 0 8.393 8.393h25.18v33.574c0 9.258 7.529 16.787 16.787 16.787v16.787c0 27.824-22.587 50.47-50.361 50.47H193.104c-27.774 0-50.361-22.595-50.361-50.47v-16.787c9.258 0 16.787-7.529 16.787-16.787v-33.574h25.18a8.385 8.385 0 0 0 8.393-8.393V184.656a8.385 8.385 0 0 0-8.393-8.393h-8.393v-41.967a8.385 8.385 0 0 0-8.393-8.393h-8.393V58.754a8.385 8.385 0 0 0-8.393-8.393h-8.393V25.18c0-13.883-11.298-25.18-25.18-25.18s-25.18 11.298-25.18 25.18v25.18h-8.393a8.385 8.385 0 0 0-8.393 8.393v67.148h-8.393a8.385 8.385 0 0 0-8.393 8.393v41.967H50.42a8.385 8.385 0 0 0-8.393 8.393v142.689a8.385 8.385 0 0 0 8.393 8.393H75.6v33.574c0 9.25 7.521 16.77 16.762 16.787v16.661c0 .159.008.369.025.579.185 55.38 45.291 100.377 100.721 100.377h117.508c55.539 0 100.721-45.232 100.721-100.83v-16.787c9.258 0 16.787-7.529 16.787-16.787v-33.574h25.18a8.385 8.385 0 0 0 8.393-8.393V184.656a8.39 8.39 0 0 0-8.397-8.394zM109.169 25.18a8.396 8.396 0 0 1 8.393-8.393 8.396 8.396 0 0 1 8.393 8.393v25.18h-16.787V25.18ZM75.596 176.262v-33.574h83.934v33.574zm25.155 193.049h-8.368v-33.465h50.361l.017 33.465h-8.41zM377.759 25.18a8.396 8.396 0 0 1 8.393-8.393 8.396 8.396 0 0 1 8.393 8.393v25.18h-16.787V25.18Zm25.181 344.131h-41.967v-33.465h50.361l.017 33.465zm25.18-193.049h-83.934v-33.574h83.934z" style="fill:#e64539;fill-opacity:1" transform="translate(37.586 37.59) scale(.8672)"/></g></svg>