<svg width="512" height="512" xmlns="http://www.w3.org/2000/svg"><defs><filter style="color-interpolation-filters:sRGB" id="a" x="-.088" y="-.101" width="1.176" height="1.203"><feFlood flood-opacity="1" flood-color="#3A3F5E" result="flood"/><feComposite in="flood" in2="SourceGraphic" operator="out" result="composite1"/><feGaussianBlur in="composite1" stdDeviation="12.72" result="blur"/><feOffset result="offset"/><feComposite in="offset" in2="SourceGraphic" operator="atop" result="composite2"/></filter></defs><path d="M0 0h512v512H0z" fill="#b90202" style="fill:#1b1f21;fill-opacity:1"/><g style="fill:#e64539;fill-opacity:1;filter:url(#a)"><path style="fill:#e64539;fill-opacity:1" d="M22.398 103.932v196.14c69.429 29.088 234.248 37.381 307.096 23.858-10.96 63.941-1.743 118.14 10.568 164.152 111.531-.128 0 0 110.833-.123 4.234-66.609 10.894-142.696 12.94-183.04 1.022-20.029 5.998-100.672-76.546-128.216-102.19-34.14-232.323-59.554-364.89-72.771zm262.465 66.181c1.152 0 2.254.167 3.301.518 6.703 2.241 10.734 11.716 7.33 21.928-3.456 10.212-12.357 15.344-19.06 13.144-6.704-2.252-10.684-11.735-7.28-21.947 2.88-8.615 9.634-13.643 15.71-13.643zm-59.543 23.885c11.836 2.084 23.514 4.223 34.774 6.836 2.252 6.389 6.807 11.578 13.353 13.777 6.965 2.357 14.14.628 19.953-3.672 6.18 2.52 12.045 5.295 17.596 8.594l25.713-21.935c4.713-4.253 17.23 7.131 12.412 13.132-9.95 9.956-20.947 18.859-33.83 28.495-5.446.89-20.372-4.976-30.531-9.584-3.352 7.07-6.704 14.036-13.197 22.101 8.955 1.205 21 .628 26.289 4.137l40.953 32.416c2.723 2.67-5.553 18.276-13.618 13.039-55.825-44.2-78.081-26.393-110.812-.418-17.648-2.042-33.568-6.495-48.367-12.465-8.39-2.828-3.075-20.004 5.676-17.543 10.798 3.142 21.429 6.862 33.421 6.6 22.99-15.868 30.741-35.245 42.577-59.492l-19.743-3.72-23.357 22.886c-7.436 6.808-18.066-4.033-13.877-10.055 9.584-12.097 19.166-21.424 34.615-33.129z"/></g></svg>