<svg width="512" height="512" xmlns="http://www.w3.org/2000/svg"><defs><filter style="color-interpolation-filters:sRGB" id="a" x="-.228" y="-.165" width="1.444" height="1.32"><feFlood flood-opacity="1" flood-color="#3A3F5E" result="flood"/><feComposite in="flood" in2="SourceGraphic" operator="out" result="composite1"/><feGaussianBlur in="composite1" stdDeviation="15" result="blur"/><feOffset result="offset"/><feComposite in="offset" in2="SourceGraphic" operator="atop" result="composite2"/></filter></defs><path d="M0 0h512v512H0Z" fill="#b90202" style="fill:#1b1f21;fill-opacity:1"/><path data-name="&lt;Transparent Rectangle&gt;" style="stroke-width:14.5096;fill:none" d="M23.847 23.847h464.306v464.306H23.847z"/><path style="fill:#e64539;stroke-width:1.68106;fill-opacity:1;filter:url(#a)" d="M255.994 24.977c-91.843 0-166.562 74.718-166.562 166.566v182.49c0 70.751 31.797 112.99 85.054 112.99 77.148 0 102.745-54.158 118.04-86.517l.378-.803c17.11-36.19 39.33-51.717 60.82-66.73 34.894-24.38 67.853-47.41 68.833-141.303.497-47.841-14.99-89.042-44.782-119.149-30.343-30.659-73.592-47.544-121.78-47.544zM154.582 76.318l18.574 16.524c3.175-2.555 6.45-5.012 9.903-7.276a13.28 13.28 0 0 1 7.488-2.183c4.282.06 8.46 2.176 10.984 6.027 4.04 6.164 2.319 14.435-3.844 18.475-1.458.956-2.867 1.967-4.263 2.99l17.789 15.826a75.174 75.174 0 0 1 10.525-5.588 13.3 13.3 0 0 1 5.184-1.092c5.2-.034 10.162 2.99 12.348 8.067a13.271 13.271 0 0 1 1.093 5.273c0 5.126-2.978 9.999-7.95 12.2l22.43 19.955a24.461 24.461 0 0 1 .08-.016 24.461 24.461 0 0 1 23.83 21.29l24.204 21.53c2.38-5.747 3.768-11.96 3.768-18.43a48.247 48.247 0 0 0-29.186-44.341c-6.768-2.915-9.888-10.763-6.973-17.531 2.187-5.076 7.149-8.101 12.348-8.067 1.733.012 3.492.363 5.184 1.092a74.905 74.905 0 0 1 45.312 68.848 74.855 74.855 0 0 1-9.705 36.888l17.582 15.64a97.826 97.826 0 0 0 15.25-52.528c0-33.176-16.594-63.859-44.389-82.078a13.33 13.33 0 0 1-6.029-11.172c0-2.51.705-5.046 2.184-7.301a13.334 13.334 0 0 1 10.986-6.03c2.57-.035 5.177.67 7.488 2.184 35.344 23.168 56.444 62.196 56.444 104.397 0 25.6-7.806 50.005-21.805 70.437l19.475 17.326-23.746 26.694-19.95-17.748c-3.33 2.708-6.778 5.3-10.418 7.685-6.163 4.04-14.433 2.318-18.472-3.844-4.04-6.163-2.319-14.435 3.843-18.474a99.588 99.588 0 0 0 4.809-3.371l-17.78-15.819c-3.49 2.259-7.174 4.279-11.08 5.961-6.767 2.915-14.616-.206-17.53-6.974a13.271 13.271 0 0 1-1.094-5.274c0-5.168 3.02-10.085 8.066-12.26.174-.075.325-.182.498-.26l-22.055-19.622a24.461 24.461 0 0 1-1.058.076 24.461 24.461 0 0 1-24.055-22.416l-23.742-21.125c-2.553 5.921-4.016 12.367-4.016 19.078a48.246 48.246 0 0 0 29.184 44.342c6.768 2.915 9.89 10.763 6.975 17.531-2.916 6.767-10.764 9.89-17.532 6.975a74.905 74.905 0 0 1-45.312-68.848c0-13.45 3.607-26.292 10.047-37.451l-17.56-15.623a97.809 97.809 0 0 0-15.614 53.074c0 33.175 16.594 63.859 44.388 82.078a13.33 13.33 0 0 1 6.03 11.172c0 2.509-.707 5.045-2.186 7.3-4.04 6.163-12.31 7.887-18.472 3.846-35.344-23.168-56.446-62.196-56.446-104.396 0-25.826 7.936-50.441 22.17-70.982l-17.947-15.967 23.746-26.694z"/></svg>