<svg xml:space="preserve" width="512" height="512" xmlns="http://www.w3.org/2000/svg"><defs><filter style="color-interpolation-filters:sRGB" id="a" x="-.065" y="-.087" width="1.129" height="1.174"><feFlood flood-opacity="1" flood-color="#3A3F5E" result="flood"/><feComposite in="flood" in2="SourceGraphic" operator="out" result="composite1"/><feGaussianBlur in="composite1" stdDeviation="12.382" result="blur"/><feOffset result="offset"/><feComposite in="offset" in2="SourceGraphic" operator="atop" result="composite2"/></filter></defs><path d="M-904.137-302.053h512v512h-512z" fill="#b90202" style="fill:#1b1f21;fill-opacity:1" transform="translate(904.137 302.053)"/><path d="m484.738 239.73-53.128-53.127c1.471-4.246 4.284-13.43 5.426-24.395 1.9-18.255-1.774-33.442-10.608-44.271a16.578 16.578 0 0 0 1.397-6.155l12.564-3.165 1.051 6.227a4.002 4.002 0 0 0 4.61 3.278l28.452-4.803a4 4 0 0 0 3.28-4.61l-3.326-19.7a4.004 4.004 0 0 0-4.61-3.278l-28.454 4.803a4.004 4.004 0 0 0-3.279 4.61l.938 5.558-12.899 3.249c-1.347-2.756-3.458-5.23-6.49-7.004-5.664-3.316-12.913-2.987-18.188.918-4.71 3.488-6.936 8.79-6.735 14.015l-9.028 2.275 1.955 7.758 9.301-2.344a16.494 16.494 0 0 0 2.59 3.392 16.481 16.481 0 0 0 4.612 3.234c2.981 6.526-.104 19.573-3.72 29.245l-53.309-53.308a4.002 4.002 0 0 0-5.658 0L220.317 223.3l-15.745-15.745a4.002 4.002 0 0 0-5.658 0l-4.496 4.496-4.283-4.284 13.39-13.39a4 4 0 0 0 0-5.656l-12.818-12.818a4 4 0 0 0-5.657 0l-32.438 32.438a4 4 0 0 0 0 5.656l12.818 12.818a3.989 3.989 0 0 0 2.83 1.172 3.99 3.99 0 0 0 2.828-1.172l13.39-13.39 4.283 4.284-4.496 4.496a4 4 0 0 0 0 5.656l7.371 7.37-24.255 24.257-2.924-2.924a3.96 3.96 0 0 0-3.058-1.165l-16.65.956a3.999 3.999 0 0 0-2.6 1.165l-67.49 67.49a4.001 4.001 0 0 0-1.166 2.599l-.955 16.65a4.004 4.004 0 0 0 1.165 3.059l3.45 3.45-19.049 19.05c-1.109 1.109-1.559 2.766-1.017 4.238 1.356 3.677.447 7.84-2.309 10.599-2.689 2.688-6.617 3.62-10.247 2.434a3.997 3.997 0 0 0-4.758 1.893l-9.23 16.997a3.998 3.998 0 0 0 .686 4.737l2.406 2.406-6.374 6.374a4 4 0 1 0 5.656 5.657l6.374-6.374 3.45 3.45a3.989 3.989 0 0 0 2.83 1.172 3.99 3.99 0 0 0 2.828-1.172l50.107-50.107 3.415 3.415a4.066 4.066 0 0 0 3.092 1.199l16.651-.955a3.999 3.999 0 0 0 2.6-1.165l67.49-67.491a4.001 4.001 0 0 0 1.165-2.6l.956-16.65a4.004 4.004 0 0 0-1.165-3.058l-2.924-2.924 24.255-24.256 7.371 7.37a4.002 4.002 0 0 0 5.658 0l14.65-14.648a4 4 0 0 0 0-5.656l-15.746-15.745 1.668-1.668 134.77 134.77a4.002 4.002 0 0 0 5.657 0l116.67-116.671a4.002 4.002 0 0 0 0-5.658zm-130.592 71.165 7.74 7.74a4.002 4.002 0 0 0 5.658 0l73.77-73.77a4 4 0 0 0 0-5.656l-7.74-7.74 4.281-4.282 15.495 15.14-87.991 87.99-15.495-15.14zm73.77-85.082-16.63-16.631 4.282-4.282 16.631 16.63zm-22.288-22.288-7.74-7.74a4.002 4.002 0 0 0-5.658 0l-73.769 73.77a4 4 0 0 0 0 5.656l7.74 7.74-4.282 4.282-29.083-29.083 4.282-4.282 7.74 7.74a4.002 4.002 0 0 0 5.658 0l73.77-73.77a4 4 0 0 0 0-5.656l-7.74-7.74 4.282-4.282 29.083 29.083zm-34.74-34.74-16.63-16.63 4.282-4.283 16.631 16.63zm-22.287-22.287-7.74-7.74a4 4 0 0 0-5.657 0l-73.769 73.769a4 4 0 0 0 0 5.656l7.74 7.74-4.282 4.282-15.101-15.215 87.99-87.991 15.102 15.215z" style="fill:#e64539;fill-opacity:1;filter:url(#a)"/></svg>