<svg width="512" height="512" xmlns="http://www.w3.org/2000/svg"><defs><filter style="color-interpolation-filters:sRGB" id="a" x="-.093" y="-.084" width="1.186" height="1.168"><feFlood flood-opacity="1" flood-color="#3A3F5E" result="flood"/><feComposite in="flood" in2="SourceGraphic" operator="out" result="composite1"/><feGaussianBlur in="composite1" stdDeviation="11.03" result="blur"/><feOffset result="offset"/><feComposite in="offset" in2="SourceGraphic" operator="atop" result="composite2"/></filter></defs><path d="M0 0h512v512H0z" fill="#b90202" style="fill:#1b1f21;fill-opacity:1"/><g style="fill:#e64539;fill-opacity:1;filter:url(#a)"><path d="M299.115 297.458a8.762 8.762 0 0 0-5.953-5.98c-9.027-2.65-44.838-3.671-73.178-37.38-4.771-5.675-9.856-8.838-10.419-26.985V70.735c0-21.488-15.324-39.809-36.46-43.676L26.013.145a8.872 8.872 0 0 0-10.468 8.726v78.32a8.869 8.869 0 0 0 9.446 8.853l123.205-7.993a193.46 193.46 0 0 0 12.251 94.613l5.786 14.572a97.802 97.802 0 0 1 2.479 60.327s-2.193 9.03-3.329 11.903c-4.318 10.923-4.529 23 2.317 32.543a31.148 31.148 0 0 0 30.085 12.622l6.343-.985a105.828 105.828 0 0 1 20.485-1.167l51.845 2.086a26.338 26.338 0 0 0 20.777-8.855l.021-.023a8.755 8.755 0 0 0 1.859-8.229zM101.656 32.759a7.502 7.502 0 0 1-8.584 6.23l-52.055-8.271a7.5 7.5 0 0 1-6.23-8.584c.65-4.091 4.489-6.885 8.584-6.23l52.055 8.271a7.5 7.5 0 0 1 6.23 8.584zm12.616 8.493a7.5 7.5 0 1 1 0-15 7.5 7.5 0 0 1 0 15z" style="fill:#e64539;fill-opacity:1" transform="translate(23.366 23.368) scale(1.47703)"/></g></svg>