<svg width="512" height="512" xmlns="http://www.w3.org/2000/svg"><defs><filter style="color-interpolation-filters:sRGB" id="a" x="-.083" y="-.135" width="1.167" height="1.271"><feFlood flood-opacity="1" flood-color="#3A3F5E" result="flood"/><feComposite in="flood" in2="SourceGraphic" operator="out" result="composite1"/><feGaussianBlur in="composite1" stdDeviation="11.03" result="blur"/><feOffset result="offset"/><feComposite in="offset" in2="SourceGraphic" operator="atop" result="composite2"/></filter></defs><path d="M0 0h512v512H0z" fill="#b90202" style="fill:#1b1f21;fill-opacity:1"/><g style="filter:url(#a)"><path d="m309.008 195.1-6.288.022c2.298-1.434 3.829-2.98 3.819-5.888-.015-4.467-3.649-7.076-8.116-7.06L246.11 183.9a2.747 2.747 0 0 1-1.851-4.857l9.368-7.814a8.086 8.086 0 0 0 1.295-11.365 8.088 8.088 0 0 0-11.365-1.295s-22.083 17.638-29.492 23.456a60.239 60.239 0 0 1-43.061 12.582c-34.146-3.32-70.284-5.36-84.886-1.204L84.217 67.425a6.724 6.724 0 0 0-6.724-6.623H6.725a6.727 6.727 0 0 0-6.583 8.099L32.09 221.905c4.645 22.247 25.724 37.128 48.235 34.004 35.289-4.897 75.304-13.26 108.772-20.277 10.381-2.176 20.913-2.503 31.416-1.025 31.895 4.488 54.572 3.715 59.033 3.7 4.467-.015 8.076-1.649 8.06-6.117-.01-2.907-1.558-4.444-3.866-5.86l13.422-.047a8.09 8.09 0 0 0 8.061-8.117 8.075 8.075 0 0 0-3.866-6.862l7.707-.027a8.089 8.089 0 0 0-.056-16.177zM12.735 83.977a7.5 7.5 0 1 1 15 0 7.5 7.5 0 0 1-15 0zm22.195 75.867a7.501 7.501 0 0 1-8.751-5.993l-9.188-49.12a7.5 7.5 0 0 1 5.993-8.752c4.063-.759 7.99 1.922 8.751 5.993l9.188 49.121a7.5 7.5 0 0 1-5.993 8.751z" style="fill:#e64539;fill-opacity:1;stroke-width:1" transform="translate(23.138 23.138) scale(1.46858)"/></g></svg>