<svg width="512" height="512" xml:space="preserve" xmlns="http://www.w3.org/2000/svg"><defs><filter style="color-interpolation-filters:sRGB" id="a" x="-.075" y="-.076" width="1.15" height="1.152"><feFlood flood-opacity="1" flood-color="#3A3F5E" result="flood"/><feComposite in="flood" in2="SourceGraphic" operator="out" result="composite1"/><feGaussianBlur in="composite1" stdDeviation="12.72" result="blur"/><feOffset result="offset"/><feComposite in="offset" in2="SourceGraphic" operator="atop" result="composite2"/></filter></defs><path d="M0 0h512v512H0Z" fill="#b90202" style="fill:#1b1f21;fill-opacity:1"/><g style="fill:#e64539;fill-opacity:1;filter:url(#a)" transform="translate(-17.36 -61.694) scale(1.15518)"><path style="fill:#e64539;stroke-width:1.15518;fill-opacity:1" d="M204.219 19.078c5.15 27.232 33.526 45.413 46.699 51.492 20.86 9.628 80.454 24.335 102.064-13.408 5.765 14.77 1.875 137.619-32.189 168.854-17.26-16.457-42.176-26.79-69.875-26.79-22.744 0-43.602 6.967-59.895 18.567-21.508-34.521-62.2-57.83-108.9-57.83-22.39 0-43.392 5.382-61.58 14.766v12.068a1.681 1.681 0 0 0-.066-.014v296.49s86.415 4.47 93.328-95.353a.058.058 0 0 1-.004-.018c21.022 30.528 88 53.765 129.273 52.395 64.83-2.15 150.974-4.992 223.95-74.95 6.743-6.71 12.153-14.636 15.827-23.404v-.004c26.884-55.924-30.569-239.755-64.119-322.86Zm7.008 204.948h77.402c10.688 0 19.353 8.664 19.352 19.352v85a19.35 19.35 0 0 0-6.451-1.149H198.327a19.35 19.35 0 0 0-6.451 1.149v-85c0-10.688 8.663-19.352 19.351-19.352zm28.623 19.194a5.131 5.131 0 0 0-5.13 5.13v12.643h-12.643a5.131 5.131 0 0 0-5.131 5.13v20.157a5.13 5.13 0 0 0 5.13 5.131h12.643v12.643a5.13 5.13 0 0 0 5.131 5.13h20.156a5.13 5.13 0 0 0 5.131-5.13V291.41h12.643a5.13 5.13 0 0 0 5.13-5.13v-20.157a5.131 5.131 0 0 0-5.13-5.13h-12.643V248.35a5.131 5.131 0 0 0-5.13-5.13zm-41.523 96.91H301.53c1.277.011 2.522.4 3.58 1.115l38.701 25.8c.196.161.381.334.555.518.227.18.442.373.644.58.35.391.65.824.891 1.29.118.192.225.39.322.593.295.724.45 1.497.457 2.278v25.878c0 10.687-8.663 19.35-19.35 19.35H172.527c-10.686 0-19.35-8.663-19.35-19.35v-25.878a6.212 6.212 0 0 1 .457-2.309c.098-.203.205-.401.323-.594.241-.466.54-.9.89-1.29.202-.208.418-.402.645-.58.174-.184.359-.356.555-.516l38.7-25.801a6.489 6.489 0 0 1 3.58-1.084zm1.935 12.9-19.351 12.9h138.035l-19.352-12.9Zm10.965 32.252a6.45 6.45 0 1 0 0 12.9h12.9a6.45 6.45 0 1 0 0-12.9zm32.252 0a6.45 6.45 0 0 0 0 12.9h12.9a6.45 6.45 0 1 0 0-12.9zm32.25 0a6.45 6.45 0 0 0 0 12.9h12.9a6.45 6.45 0 1 0 0-12.9z" transform="translate(15.028 53.407) scale(.86567)"/></g></svg>