<svg xml:space="preserve" width="512" height="512" xmlns="http://www.w3.org/2000/svg"><defs><filter style="color-interpolation-filters:sRGB" id="a" x="-.067" y="-.087" width="1.133" height="1.174"><feFlood flood-opacity="1" flood-color="#3A3F5E" result="flood"/><feComposite in="flood" in2="SourceGraphic" operator="out" result="composite1"/><feGaussianBlur in="composite1" stdDeviation="12.72" result="blur"/><feOffset result="offset"/><feComposite in="offset" in2="SourceGraphic" operator="atop" result="composite2"/></filter></defs><path d="M0 0h512v512H0Z" fill="#b90202" style="fill:#1b1f21;fill-opacity:1"/><g style="fill:#e64539;fill-opacity:1;filter:url(#a)"><g style="fill:#e64539;fill-opacity:1"><path style="fill:#e64539;stroke-width:.896456;fill-opacity:1" d="M256 80.898c-108.494 0-199.616 72.268-228.842 170.623a15.719 15.719 0 0 0 0 8.958C56.35 358.724 147.393 431.102 256 431.102c108.494 0 199.616-72.268 228.842-170.623a15.719 15.719 0 0 0 0-8.958C455.649 153.275 364.607 80.898 256 80.898Zm-24.195 114.125h39.287a9.607 9.607 0 0 1 9.607 9.608v2.9c15.604 9.776 26.002 27.122 26.002 46.854 0 12.603-4.245 24.232-11.377 33.539v70.205c0 14.098-11.429 25.527-25.527 25.527h-36.7c-14.098 0-25.525-11.429-25.525-25.527v-70.205c-7.131-9.307-11.377-20.935-11.377-33.54 0-19.731 10.399-37.077 26.002-46.853v-2.9a9.607 9.607 0 0 1 9.608-9.608zm19.642 27.51c-17.563 0-31.851 14.289-31.851 31.852 0 17.563 14.288 31.851 31.851 31.851 17.564 0 31.854-14.288 31.854-31.851s-14.29-31.852-31.854-31.852zm-10.908 12.951c.124 3.194 4.958 5.762 10.91 5.762 5.953 0 10.784-2.568 10.908-5.762 5.747 3.627 9.566 10.027 9.567 17.325 0 11.308-9.165 20.476-20.475 20.476-11.31 0-20.476-9.168-20.476-20.476 0-7.298 3.82-13.698 9.566-17.325zm-10.555 107.352a7.995 7.995 0 1 0 0 15.99h8.97a7.995 7.995 0 0 0 7.993-7.996 7.994 7.994 0 0 0-7.994-7.994z"/></g></g></svg>