<svg xml:space="preserve" width="512" height="512" xmlns="http://www.w3.org/2000/svg"><defs><filter style="color-interpolation-filters:sRGB" id="a" x="-.067" y="-.087" width="1.133" height="1.174"><feFlood flood-opacity="1" flood-color="#3A3F5E" result="flood"/><feComposite in="flood" in2="SourceGraphic" operator="out" result="composite1"/><feGaussianBlur in="composite1" stdDeviation="12.72" result="blur"/><feOffset result="offset"/><feComposite in="offset" in2="SourceGraphic" operator="atop" result="composite2"/></filter></defs><path d="M0 0h512v512H0Z" fill="#b90202" style="fill:#1b1f21;fill-opacity:1"/><g style="fill:#e64539;fill-opacity:1;filter:url(#a)"><g style="fill:#e64539;fill-opacity:1"><path style="fill:#e64539;stroke-width:.896456;fill-opacity:1" d="M256 80.898c-108.494 0-199.616 72.268-228.842 170.623a15.719 15.719 0 0 0 0 8.958C56.35 358.724 147.393 431.102 256 431.102c108.494 0 199.616-72.268 228.842-170.623a15.719 15.719 0 0 0 0-8.958C455.649 153.275 364.607 80.898 256 80.898zm32.672 94.112c5.8 0 11.14 2.24 15.101 5.857h.114l13.04 13.092c11.712.805 22.504 4.88 31.575 11.31l23.543 19.983a71.661 71.661 0 0 1 4.937 4.307c11.771 11.369 19.064 27.274 19.006 44.902 0 34.451-28.02 62.47-62.472 62.47-31.81 0-58.108-23.943-61.955-54.72-4.594 2.641-9.876 4.135-15.561 4.135a31.184 31.184 0 0 1-15.56-4.135c-3.79 30.834-30.145 54.78-61.956 54.78-34.451 0-62.472-28.022-62.472-62.473 0-17.628 7.291-33.534 19.062-44.903a50.052 50.052 0 0 1 4.94-4.306l23.54-19.98c9.014-6.374 19.865-10.509 31.577-11.313l13.039-13.092h.115a22.245 22.245 0 0 1 15.102-5.856c9.933 0 18.372 6.488 21.3 15.446 3.216-2.01 7.006-3.215 11.083-3.215.574 0 1.207-.001 1.78.056 3.618.23 6.948 1.321 9.82 3.159a22.308 22.308 0 0 1 21.302-15.504zm-110.188 56.902c-23.541 0-42.605 19.064-42.605 42.606 0 23.541 19.064 42.605 42.605 42.605 23.542 0 42.663-19.121 42.606-42.605 0-23.542-19.064-42.606-42.606-42.606zm155.147 0c-23.542 0-42.606 19.064-42.606 42.606 0 23.541 19.064 42.605 42.606 42.605s42.605-19.121 42.605-42.605c0-23.542-19.063-42.606-42.605-42.606zm-77.574 9.072c-7.637 0-13.838 6.202-13.838 13.838 0 7.637 6.2 13.838 13.838 13.838 7.636 0 13.838-6.201 13.838-13.838 0-7.636-6.202-13.838-13.838-13.838zm-77.573 6.891c3.503 0 6.373 2.814 6.43 6.316 0 3.503-2.87 6.373-6.373 6.373-7.637 0-13.895 6.26-13.895 13.897 0 3.503-2.872 6.373-6.375 6.373-3.502 0-6.373-2.87-6.373-6.373 0-14.642 11.887-26.586 26.586-26.586zm155.147 0c3.502 0 6.372 2.814 6.43 6.316 0 3.503-2.87 6.373-6.373 6.373-7.637 0-13.895 6.26-13.895 13.897 0 3.503-2.87 6.373-6.373 6.373s-6.375-2.87-6.375-6.373c0-14.642 11.887-26.586 26.586-26.586z"/></g></g></svg>