<svg version="1.2" viewBox="-421 153 512 512" xml:space="preserve" width="512" height="512" xmlns="http://www.w3.org/2000/svg"><defs><filter style="color-interpolation-filters:sRGB" id="a" x="-.052" y="-.042" width="1.104" height="1.084"><feFlood flood-opacity="1" flood-color="#3A3F5E" result="flood"/><feComposite in="flood" in2="SourceGraphic" operator="out" result="composite1"/><feGaussianBlur in="composite1" stdDeviation="8.556" result="blur"/><feOffset result="offset"/><feComposite in="offset" in2="SourceGraphic" operator="atop" result="composite2"/></filter></defs><path d="M0 0h512v512H0Z" fill="#b90202" style="fill:#1b1f21;fill-opacity:1" transform="translate(-421 153)"/><path style="fill:#e64539;stroke-width:3.85001;fill-opacity:1;filter:url(#a)" d="m333.43 7.186-80.207.068h-.002l-77.637-.065s11.344 80.403 77.82 80.403c68.162 0 80.026-80.406 80.026-80.406zm-176.758 99.45a98.26 98.26 0 0 0-98.563 98.561v241.01c0 18.865 15.016 34.65 34.65 34.65 19.636 0 34.651-15.015 34.651-34.65V224.832c0-5.39 4.622-10.01 10.012-10.01 5.39 0 10.008 4.62 10.008 10.01v273.4h98.56v-16.605c0-5.39 4.622-10.01 10.012-10.01 5.39 0 10.008 4.62 10.008 10.01v16.605h98.558v-273.4c0-5.39 4.622-10.01 10.012-10.01 5.39 0 10.01 4.62 10.01 10.01v221.76c0 18.865 15.015 34.65 34.65 34.65 19.635 0 34.65-15.015 34.65-34.65V205.197c-1.54-54.67-46.586-98.56-100.1-98.56H156.671zM256 153.18v.002a60.73 60.73 0 0 1 23.205 4.623 60.669 60.669 0 0 1 19.666 13.134 60.71 60.71 0 0 1 13.135 19.68 60.706 60.706 0 0 1 4.611 23.205 60.696 60.696 0 0 1-4.625 23.192 60.668 60.668 0 0 1-13.135 19.652 60.7 60.7 0 0 1-19.666 13.135 60.562 60.562 0 0 1-14.543 3.982l.057 8.233.139 22.035h31.283v17.828h-31.172l.168 27.914.055 8.914-17.828.111-.055-8.914-.168-28.025h-31.254v-17.828h31.143l-.139-21.924-.057-8.426a60.532 60.532 0 0 1-13.914-3.86l-.097-.04a60.719 60.719 0 0 1-19.666-13.135 60.64 60.64 0 0 1-17.76-42.844 60.696 60.696 0 0 1 17.744-42.887 60.672 60.672 0 0 1 19.668-13.132A60.724 60.724 0 0 1 256 153.18zm0 17.828a43.05 43.05 0 0 0-16.38 3.258 43.044 43.044 0 0 0-13.888 9.277 42.994 42.994 0 0 0-9.261 13.887 43.042 43.042 0 0 0-3.26 16.38 43.09 43.09 0 0 0 3.26 16.38 43.023 43.023 0 0 0 9.275 13.873 43.084 43.084 0 0 0 13.887 9.277A42.986 42.986 0 0 0 256 256.584a42.994 42.994 0 0 0 16.365-3.244 43.077 43.077 0 0 0 13.887-9.278 43.021 43.021 0 0 0 9.277-13.873 43.08 43.08 0 0 0 3.258-16.378 43.033 43.033 0 0 0-3.26-16.381 42.976 42.976 0 0 0-9.261-13.885 43.043 43.043 0 0 0-13.887-9.277 43.042 43.042 0 0 0-16.379-3.26z" transform="translate(-421 153)"/></svg>