<svg version="1.2" viewBox="-421 153 512 512" xml:space="preserve" width="512" height="512" xmlns="http://www.w3.org/2000/svg"><defs><filter style="color-interpolation-filters:sRGB" id="a" x="-.052" y="-.042" width="1.104" height="1.084"><feFlood flood-opacity="1" flood-color="#3A3F5E" result="flood"/><feComposite in="flood" in2="SourceGraphic" operator="out" result="composite1"/><feGaussianBlur in="composite1" stdDeviation="8.556" result="blur"/><feOffset result="offset"/><feComposite in="offset" in2="SourceGraphic" operator="atop" result="composite2"/></filter></defs><path d="M0 0h512v512H0Z" fill="#b90202" style="fill:#1b1f21;fill-opacity:1" transform="translate(-421 153)"/><path style="fill:#e64539;stroke-width:3.85001;fill-opacity:1;filter:url(#a)" d="m333.43 7.186-80.207.068h-.002l-77.637-.065s11.344 80.403 77.82 80.403c68.162 0 80.026-80.406 80.026-80.406zm-176.758 99.45a98.26 98.26 0 0 0-98.563 98.561v241.01c0 18.865 15.016 34.65 34.65 34.65 19.636 0 34.651-15.015 34.651-34.65V224.832c0-5.39 4.622-10.01 10.012-10.01 5.39 0 10.008 4.62 10.008 10.01v273.4h98.56v-16.605c0-5.39 4.622-10.01 10.012-10.01 5.39 0 10.008 4.62 10.008 10.01v16.605h98.558v-273.4c0-5.39 4.622-10.01 10.012-10.01 5.39 0 10.01 4.62 10.01 10.01v221.76c0 18.865 15.015 34.65 34.65 34.65 19.635 0 34.65-15.015 34.65-34.65V205.197c-1.54-54.67-46.586-98.56-100.1-98.56H156.671zm115.182 66.833h66.677v66.677h-17.344v-37.234l-35.486 35.934-5.732 5.814a59.109 59.109 0 0 1 6.95 12.328 59.029 59.029 0 0 1 0 45.135 59.05 59.05 0 0 1-12.776 19.13 59.046 59.046 0 0 1-41.705 17.278 59.04 59.04 0 0 1-22.561-4.498 59.043 59.043 0 0 1-19.13-12.777 59.066 59.066 0 0 1-12.792-19.133 59.026 59.026 0 0 1-4.486-22.56 59.041 59.041 0 0 1 17.277-41.705 59.027 59.027 0 0 1 19.13-12.778 59.027 59.027 0 0 1 22.561-4.486 59.09 59.09 0 0 1 22.575 4.486 59.136 59.136 0 0 1 12.75 7.262l5.61-5.692 35.405-35.838h-36.923V173.47zm-39.416 64.469c-5.434 0-10.9 1.09-15.92 3.17l-.094.04a41.87 41.87 0 0 0-13.416 8.971 41.886 41.886 0 0 0-8.983 13.414l-.04.094a41.893 41.893 0 0 0-3.17 15.935 41.81 41.81 0 0 0 3.171 15.92 41.896 41.896 0 0 0 9.022 13.51 41.906 41.906 0 0 0 13.51 9.024 41.826 41.826 0 0 0 15.921 3.17c5.435 0 10.913-1.09 15.934-3.17a41.895 41.895 0 0 0 13.51-9.024 41.871 41.871 0 0 0 9.01-13.508 41.842 41.842 0 0 0 3.17-15.921c0-5.435-1.09-10.915-3.17-15.936a41.82 41.82 0 0 0-9.026-13.494 41.82 41.82 0 0 0-13.494-9.024 41.904 41.904 0 0 0-15.934-3.172h-.001z" transform="translate(-421 153)"/></svg>