<svg width="512" height="512" xmlns="http://www.w3.org/2000/svg"><defs><filter style="color-interpolation-filters:sRGB" id="a" x="-.104" y="-.074" width="1.209" height="1.148"><feFlood flood-opacity="1" flood-color="#3A3F5E" result="flood"/><feComposite in="flood" in2="SourceGraphic" operator="out" result="composite1"/><feGaussianBlur in="composite1" stdDeviation="10.924" result="blur"/><feOffset result="offset"/><feComposite in="offset" in2="SourceGraphic" operator="atop" result="composite2"/></filter></defs><path d="M-107.768.781h512v512h-512z" fill="#b90202" style="fill:#1b1f21;fill-opacity:1" transform="translate(107.768 -.39)"/><g style="filter:url(#a)"><g style="fill:#e64539;fill-opacity:1"><g style="fill:#fffff9;fill-opacity:1"><path style="fill:#e64539;stroke-width:27.2948;fill-opacity:1" d="M263.531 29.408c-22.492.043-49.583 4.974-78.693 20.645-75.252 30.597-85.844 87.07-85.844 124.082v27.894c-.164.519-.326.956-.463 1.338-2.429 6.988-2.62 7.48 7.315 59.94-2.566.764-4.804 2.318-6.524 4.584-8.461 11.19-1.091 40.78 1.201 48.722 2.13 13.866 7.507 21.862 12.42 26.42 10.891 78.172 78.063 139.559 137.13 139.559 69.028 0 134.371-67.664 145.89-139.477 4.913-4.476 10.316-12.309 12.336-25.629 2.456-8.789 9.826-38.43 1.338-49.648a13.237 13.237 0 0 0-3.604-3.276c3.712-12.746 8.544-33.572 9.227-56.746.245-.19.545-.328.845-.52l-.845-1.392c.027-2.838.054-5.704-.028-8.625l.137-2.047-3.767-21.097c0-37.012-24.21-140.024-85.87-131.29 0 0-24.713-13.507-62.2-13.437zm86.67 87.903c13.086.058 23.654 10.72 23.596 23.806h.002c-.058 13.086-10.713 23.637-23.809 23.578-13.086-.058-23.636-10.703-23.578-23.789.058-13.086 10.703-23.654 23.79-23.595zm-186.6.738c13.086-.058 23.731 10.51 23.79 23.596.058 13.085-10.493 23.73-23.578 23.789-13.096.058-23.75-10.493-23.81-23.579h.003c-.058-13.085 10.51-23.748 23.596-23.806zm192.381 8.426c-5.754-.026-10.44 4.62-10.466 10.375-.026 5.753 4.618 10.44 10.373 10.466 5.753.026 10.44-4.621 10.466-10.375.026-5.754-4.62-10.44-10.373-10.466zm-198.162.738c-5.753.025-10.398 4.712-10.373 10.467.026 5.753 4.714 10.4 10.467 10.375 5.755-.026 10.399-4.714 10.373-10.467-.025-5.755-4.712-10.4-10.467-10.375zm180.149 20.002c-2.294-.01-4.152 1.853-4.162 4.146a4.14 4.14 0 0 0 4.127 4.164c2.293.01 4.171-1.832 4.181-4.127a4.174 4.174 0 0 0-4.146-4.183zm-162.135.738a4.174 4.174 0 0 0-4.147 4.184c.01 2.294 1.888 4.137 4.182 4.127a4.14 4.14 0 0 0 4.127-4.164c-.01-2.294-1.868-4.157-4.162-4.147zm-30.795 17.049c13.086 0 23.684 10.607 23.684 23.703 0 13.086-10.598 23.684-23.684 23.684s-23.703-10.598-23.703-23.684 10.617-23.703 23.703-23.703zm217.967 0c13.086 0 23.703 10.607 23.703 23.703 0 13.086-10.617 23.684-23.703 23.684-13.086 0-23.701-10.598-23.701-23.684s10.615-23.703 23.7-23.703zm-222.111 7.46c-5.755 0-10.42 4.667-10.42 10.42 0 5.756 4.665 10.423 10.42 10.423 5.753 0 10.421-4.667 10.421-10.422 0-5.754-4.668-10.42-10.421-10.42zm217.968 0c-5.753 0-10.422 4.667-10.422 10.42 0 5.756 4.669 10.423 10.422 10.423 5.754 0 10.42-4.667 10.42-10.422 0-5.754-4.666-10.42-10.42-10.42zm-152.226 7.561c20.927 0 37.894 16.955 37.894 37.893.01 20.927-16.958 37.912-37.894 37.912-20.928 0-37.914-16.985-37.914-37.912s16.987-37.893 37.914-37.893zm94.773 0c20.928 0 37.893 16.955 37.893 37.893.01 20.927-16.955 37.912-37.893 37.912-20.927 0-37.914-16.985-37.914-37.912s16.987-37.893 37.914-37.893zm-101.404 9.63c-10.47 0-18.967 8.477-18.967 18.947 0 10.469 8.497 18.964 18.967 18.964 10.47 0 18.945-8.495 18.945-18.964 0-10.47-8.475-18.948-18.945-18.948zm94.754 0c-10.47 0-18.947 8.477-18.947 18.947 0 10.469 8.477 18.964 18.947 18.964 10.47 0 18.965-8.495 18.965-18.964 0-10.47-8.496-18.948-18.965-18.948zm-139.3 6.986-.001.002a4.17 4.17 0 0 0-4.164 4.162c0 2.294 1.87 4.146 4.164 4.146a4.141 4.141 0 0 0 4.146-4.146c0-2.294-1.85-4.164-4.144-4.164zm217.968 0v.002a4.17 4.17 0 0 0-4.164 4.162c0 2.294 1.87 4.146 4.164 4.146a4.14 4.14 0 0 0 4.144-4.146c0-2.294-1.85-4.164-4.144-4.164zm-150.114 31.144a9.47 9.47 0 0 0-9.474 9.473c0 5.236 4.239 9.494 9.474 9.494 5.234 0 9.473-4.258 9.473-9.494a9.469 9.469 0 0 0-9.473-9.473zm94.772 0c-5.234 0-9.492 4.237-9.492 9.473 0 5.236 4.258 9.494 9.492 9.494 5.236 0 9.475-4.258 9.475-9.494a9.47 9.47 0 0 0-9.475-9.473zm2.271 31.557c20.928.093 37.818 17.153 37.725 38.08-.093 20.928-17.123 37.818-38.06 37.725-20.928-.083-37.838-17.125-37.745-38.063.093-20.927 17.153-37.835 38.08-37.742zm-126.912.738c20.928-.093 37.987 16.818 38.08 37.744.094 20.938-16.815 37.978-37.742 38.06-20.937.094-37.97-16.796-38.062-37.724-.093-20.926 16.797-37.987 37.724-38.08zm136.174 11.62c-10.47-.047-19.002 8.39-19.049 18.86-.046 10.47 8.412 19.005 18.881 19.051 10.47.047 18.985-8.411 19.031-18.88.047-10.47-8.394-18.985-18.863-19.032zm-145.435.738c-10.47.046-18.91 8.56-18.864 19.03.047 10.47 8.562 18.928 19.032 18.882 10.469-.047 18.927-8.582 18.88-19.051-.046-10.47-8.58-18.908-19.048-18.861zm116.632 31.914c-5.235-.024-9.51 4.217-9.533 9.45-.023 5.236 4.214 9.493 9.45 9.516a9.47 9.47 0 0 0 9.515-9.431c.023-5.234-4.196-9.512-9.432-9.535zm-87.83.738c-5.235.023-9.455 4.301-9.431 9.535a9.47 9.47 0 0 0 9.515 9.432c5.236-.024 9.473-4.28 9.45-9.516-.024-5.234-4.298-9.474-9.534-9.451z"/></g></g></g></svg>