<svg version="1.2" viewBox="-421 153 512 512" xml:space="preserve" width="512" height="512" xmlns="http://www.w3.org/2000/svg"><defs><filter style="color-interpolation-filters:sRGB" id="a" x="-.052" y="-.042" width="1.104" height="1.084"><feFlood flood-opacity="1" flood-color="#3A3F5E" result="flood"/><feComposite in="flood" in2="SourceGraphic" operator="out" result="composite1"/><feGaussianBlur in="composite1" stdDeviation="8.556" result="blur"/><feOffset result="offset"/><feComposite in="offset" in2="SourceGraphic" operator="atop" result="composite2"/></filter></defs><path d="M0 0h512v512H0Z" fill="#b90202" style="fill:#1b1f21;fill-opacity:1" transform="translate(-421 153)"/><path style="fill:#e64539;stroke-width:3.85001;fill-opacity:1;filter:url(#a)" d="m333.43 7.186-80.207.068h-.002l-77.637-.065s11.344 80.403 77.82 80.403c68.162 0 80.026-80.406 80.026-80.406zm-176.758 99.45a98.26 98.26 0 0 0-98.563 98.561v241.01c0 18.865 15.016 34.65 34.65 34.65 19.636 0 34.651-15.015 34.651-34.65V224.832c0-5.39 4.622-10.01 10.012-10.01 5.39 0 10.008 4.62 10.008 10.01v273.4h98.56v-16.605c0-5.39 4.622-10.01 10.012-10.01 5.39 0 10.008 4.62 10.008 10.01v16.605h98.558v-273.4c0-5.39 4.622-10.01 10.012-10.01 5.39 0 10.01 4.62 10.01 10.01v221.76c0 18.865 15.015 34.65 34.65 34.65 19.635 0 34.65-15.015 34.65-34.65V205.197c-1.54-54.67-46.586-98.56-100.1-98.56H156.671zM256 188.977c1.234 0 0 .001 13.74 5.356l48.676 9.79a7.552 7.552 0 0 1 5.732 7.343v7.338h7.573c8.329 0 15.144 6.815 15.144 15.144v22.717c0 12.547-10.17 22.715-22.717 22.715h-3.187a45.445 45.445 0 0 1-21.93 23.914l-36.261 18.135a15.156 15.156 0 0 1-13.54 0l-36.27-18.135a45.475 45.475 0 0 1-21.913-23.914h-3.195c-12.547 0-22.717-10.168-22.717-22.715v-22.717c0-8.367 6.777-15.144 15.144-15.144h7.573v-7.344a7.58 7.58 0 0 1 5.732-7.346l49.691-9.67c12.725-5.465 11.49-5.466 12.725-5.466zm-75.72 44.971v22.717a7.575 7.575 0 0 0 7.572 7.572v-30.289h-7.573zm143.868 0v30.29a7.575 7.575 0 0 0 7.573-7.573v-22.717h-7.573zm-31.183 23.824c-10.271 0-21.896 8.327-25.965 18.598-4.07 10.271.958 18.596 11.229 18.596 10.27 0 21.895-8.325 25.964-18.596 4.07-10.27-.957-18.598-11.228-18.598zm-74.309.022c-10.27 0-15.298 8.327-11.228 18.598 4.07 10.27 15.694 18.597 25.965 18.597 10.27 0 15.297-8.327 11.228-18.597-4.07-10.271-15.694-18.598-25.965-18.598zm66.893 4.756a7.43 7.43 0 0 0-.373.803c-1.221 3.08.286 5.578 3.367 5.578s6.57-2.497 7.791-5.578c.109-.272.194-.541.26-.803 3.177 1.51 4.996 4.521 5.01 8.297a4.653 4.653 0 0 0-.78-.057c-3.081 0-6.568 2.497-7.789 5.578-1.22 3.082.288 5.58 3.37 5.58.272 0 .547-.02.824-.058-3.006 3.775-7.213 6.789-11.586 8.298.141-.261.267-.528.375-.8 1.22-3.082-.288-5.58-3.37-5.58-3.08 0-6.568 2.498-7.789 5.58a6.41 6.41 0 0 0-.26.8c-3.176-1.51-4.996-4.523-5.01-8.298.248.038.508.058.78.058 3.082 0 6.568-2.498 7.79-5.58 1.22-3.081-.289-5.578-3.37-5.578a5.885 5.885 0 0 0-.824.057c3.006-3.776 7.21-6.787 11.584-8.297zm-70.522.023c.066.262.153.529.26.801 1.22 3.081 4.71 5.578 7.791 5.578 3.081 0 4.588-2.497 3.367-5.578a7.382 7.382 0 0 0-.373-.8c4.374 1.51 8.579 4.52 11.584 8.296a5.856 5.856 0 0 0-.822-.058c-3.081 0-4.59 2.496-3.37 5.578 1.222 3.081 4.709 5.58 7.79 5.58.272 0 .53-.019.777-.057-.014 3.776-1.833 6.787-5.01 8.297a6.554 6.554 0 0 0-.26-.8c-1.22-3.082-4.707-5.579-7.788-5.579-3.082 0-4.59 2.497-3.37 5.578.108.272.234.54.376.801-4.374-1.51-8.58-4.521-11.586-8.297.276.038.552.057.824.057 3.081 0 4.59-2.499 3.369-5.58-1.22-3.082-4.708-5.578-7.79-5.578a5.5 5.5 0 0 0-.778.058c.014-3.775 1.832-6.787 5.01-8.297zm72.043 10.076c-2.054 0-4.38 1.667-5.193 3.721-.814 2.054.192 3.719 2.246 3.719s4.38-1.665 5.193-3.719c.814-2.054-.191-3.72-2.246-3.72zm-62.52.024c-2.053 0-3.06 1.664-2.245 3.719.814 2.054 3.139 3.718 5.193 3.718s3.06-1.664 2.246-3.718c-.814-2.055-3.139-3.72-5.193-3.72z" transform="translate(-421 153)"/><path fill="none" d="M-705.86 5.688h415.085v415.085H-705.86Z"/></svg>