<svg width="512" height="512" viewBox="0 -32 512 512" xmlns="http://www.w3.org/2000/svg"><defs><filter style="color-interpolation-filters:sRGB" id="a" x="-.068" y="-.077" width="1.136" height="1.153"><feFlood flood-opacity="1" flood-color="#3A3F5E" result="flood"/><feComposite in="flood" in2="SourceGraphic" operator="out" result="composite1"/><feGaussianBlur in="composite1" stdDeviation="12.72" result="blur"/><feOffset result="offset"/><feComposite in="offset" in2="SourceGraphic" operator="atop" result="composite2"/></filter></defs><path d="M-386.809-246.131h512v512h-512z" fill="#b90202" style="fill:#1b1f21;fill-opacity:1" transform="translate(386.809 214.131)"/><path style="fill:#e64539;stroke-width:.778573;fill-opacity:1;filter:url(#a)" d="M193.715 56.686c-23.28 0-42.59 15.96-48.117 37.527-.623 0-1.09-.156-1.713-.156-27.484 0-49.828 22.344-49.828 49.828 0 3.737.467 7.397 1.324 10.9-22.734 9.343-38.695 31.611-38.695 57.615 0 9.81 2.49 18.92 6.46 27.172-18.685 10.745-31.375 30.675-31.375 53.8 0 25.926 15.883 48.193 38.461 57.536-.7 3.582-1.09 7.242-1.09 10.979 0 30.987 25.07 56.056 56.057 56.056 3.192 0 6.308-.388 9.344-.933 7.474 22.19 28.185 38.304 52.943 38.304 30.988 0 56.057-25.069 56.057-56.056V308.26H203.74v-35.596h-32.914c-4.598 0-8.34 3.738-8.34 8.332v8.52c5.901.996 10.414 6.128 10.414 12.308 0 6.892-5.604 12.498-12.496 12.498-6.891 0-12.498-5.606-12.498-12.498 0-6.18 4.513-11.312 10.414-12.308v-8.52c0-6.891 5.612-12.498 12.506-12.498h32.914v-10.416h-64.154c-4.601 0-8.344 3.738-8.344 8.332v9.06c4.847 1.722 8.332 6.34 8.332 11.77 0 6.892-5.606 12.498-12.498 12.498-6.891 0-12.498-5.606-12.498-12.498 0-6.891 5.607-12.498 12.498-12.498v-8.332c0-6.891 5.612-12.496 12.51-12.496h64.154v-10.416h-22.515c-6.888 0-12.49-5.607-12.49-12.498v-8.52c-5.902-.996-10.415-6.128-10.415-12.308 0-6.892 5.607-12.498 12.498-12.498 6.892 0 12.498 5.606 12.498 12.498 0 6.18-4.515 11.312-10.416 12.308v8.52c0 4.594 3.735 8.332 8.325 8.332h22.515V203.74h39.803v-97.226c0-27.484-22.345-49.828-49.828-49.828zm124.57 0c-27.483 0-49.828 22.266-49.828 49.828v97.226h39.803v35.596h33.148c4.598 0 8.338-3.738 8.338-8.332v-8.52c-5.9-.996-10.414-6.128-10.414-12.308 0-6.892 5.607-12.498 12.498-12.498 6.892 0 12.498 5.606 12.498 12.498 0 6.18-4.515 11.312-10.416 12.308v8.52c0 6.891-5.61 12.498-12.504 12.498H308.26v10.416h64.386c4.602 0 8.344-3.738 8.344-8.332v-9.06c-4.846-1.722-8.33-6.34-8.33-11.77 0-6.892 5.605-12.498 12.496-12.498 6.892 0 12.498 5.606 12.498 12.498 0 6.891-5.606 12.498-12.498 12.498v8.332c0 6.891-5.611 12.496-12.51 12.496H308.26v10.416h22.748c6.887 0 12.49 5.607 12.49 12.498v8.52c5.901.996 10.414 6.128 10.414 12.308 0 6.892-5.605 12.498-12.496 12.498s-12.498-5.606-12.498-12.498c0-6.18 4.513-11.312 10.414-12.308v-8.52c0-4.594-3.734-8.332-8.324-8.332H308.26v35.596h-39.803v90.998c0 30.987 25.07 56.056 56.057 56.056 24.758 0 45.469-16.115 52.943-38.304 3.036.545 6.152.933 9.344.933 30.987 0 56.056-25.07 56.056-56.056 0-3.737-.389-7.397-1.09-10.979 22.58-9.343 38.462-31.61 38.462-57.537 0-23.124-12.69-43.054-31.375-53.799 4.048-8.253 6.46-17.362 6.46-27.172 0-26.004-15.96-48.272-38.695-57.615.779-3.503 1.324-7.163 1.324-10.9 0-27.484-22.344-49.828-49.828-49.828-.623 0-1.168.156-1.713.156-5.528-21.567-24.837-37.527-48.117-37.527zm-79.154 182.443v33.742h33.74V239.13h-33.74z" transform="translate(0 -32)"/></svg>