<svg height="512" width="512" style="enable-background:new 0 0 512 512" xml:space="preserve" xmlns="http://www.w3.org/2000/svg"><defs><filter style="color-interpolation-filters:sRGB" id="a" x="-.181" y="-.181" width="1.352" height="1.352"><feFlood flood-opacity="1" flood-color="#3A3F5E" result="flood"/><feComposite in="flood" in2="SourceGraphic" operator="out" result="composite1"/><feGaussianBlur in="composite1" stdDeviation="15" result="blur"/><feOffset result="offset"/><feComposite in="offset" in2="SourceGraphic" operator="atop" result="composite2"/></filter></defs><path d="M0 0h512v512H0Z" fill="#b90202" style="fill:#1b1f21;fill-opacity:1"/><g style="fill:#e64539;fill-opacity:1;filter:url(#a)"><g style="fill:#e64539;fill-opacity:1"><path style="fill:#e64539;stroke-width:.820792;fill-opacity:1" d="M93.26 45.877c-26.125 0-47.383 21.258-47.383 47.4v40.15c0 9.667 7.827 17.512 17.51 17.512h17.51v35.02h-17.51c-9.683 0-17.51 7.844-17.51 17.51v215.254c0 26.142 21.258 47.4 47.383 47.4h215.27c9.683 0 17.51-7.844 17.51-17.51 0-11.626 5.9-17.51 17.51-17.51 11.61 0 17.51 5.883 17.51 17.51 0 9.666 7.828 17.51 17.511 17.51h40.168c26.125 0 47.383-21.258 47.383-47.4V93.277c0-26.142-21.258-47.4-47.383-47.4h-40.168c-9.683 0-17.511 7.844-17.511 17.51 0 .175-.753 17.51-17.51 17.51-16.25 0-17.51-13.413-17.51-17.51 0-9.666-7.827-17.51-17.51-17.51H93.26zm162.738 95.646c3.79 0 17.4 3.904 33.379 54.127 13.605 42.756 23.198 69.357 25.795 76.442 9.596 4.136 49.547 23.148 50.115 53.158.145 7.677-2.327 14.165-7.346 19.28-10.483 10.682-29.466 12.277-39.851 12.277h-.004c-3.501 0-5.762-.187-5.857-.194a4.714 4.714 0 0 1-4.291-4.164 4.713 4.713 0 0 1 3.242-5.023c6.601-2.128 17.855-7.566 19.93-13.09.354-.945.608-2.286-.579-4.262-.986-1.645-2.826-3.832-7.392-3.832-8.922 0-20.621 7.977-23.854 13.15-1.33 2.126-2.465 4.195-3.564 6.192-3.668 6.666-7.132 12.964-15.98 18.432-9.438 5.832-19.179 6.46-22.928 6.46a25.3 25.3 0 0 1-.813-.011 25.36 25.36 0 0 1-.813.012c-3.75 0-13.49-.63-22.927-6.461-8.85-5.47-12.313-11.766-15.98-18.432-1.1-1.997-2.236-4.066-3.565-6.191-3.233-5.174-14.933-13.15-23.854-13.15-4.566 0-6.407 2.186-7.394 3.831-1.186 1.976-.931 3.315-.576 4.26 2.074 5.524 13.326 10.963 19.931 13.094a4.715 4.715 0 0 1 3.239 5.025 4.711 4.711 0 0 1-4.29 4.158c-.094.009-2.353.194-5.857.194-10.384 0-29.372-1.594-39.855-12.278-5.018-5.113-7.491-11.6-7.346-19.277.566-30.01 40.515-49.022 50.111-53.158 2.599-7.088 12.197-33.708 25.795-76.442 15.98-50.223 29.59-54.127 33.38-54.127z"/></g></g></svg>