<svg height="512" width="512" style="enable-background:new 0 0 512 512" xml:space="preserve" xmlns="http://www.w3.org/2000/svg"><defs><filter style="color-interpolation-filters:sRGB" id="a" x="-.181" y="-.181" width="1.352" height="1.352"><feFlood flood-opacity="1" flood-color="#3A3F5E" result="flood"/><feComposite in="flood" in2="SourceGraphic" operator="out" result="composite1"/><feGaussianBlur in="composite1" stdDeviation="15" result="blur"/><feOffset result="offset"/><feComposite in="offset" in2="SourceGraphic" operator="atop" result="composite2"/></filter></defs><path d="M0 0h512v512H0Z" fill="#b90202" style="fill:#1b1f21;fill-opacity:1"/><g style="fill:#e64539;fill-opacity:1;filter:url(#a)"><g style="fill:#e64539;fill-opacity:1"><path style="fill:#e64539;stroke-width:.820792;fill-opacity:1" d="M93.26 45.877c-26.125 0-47.383 21.258-47.383 47.4v40.15c0 9.667 7.827 17.512 17.51 17.512h17.51v35.02h-17.51c-9.683 0-17.51 7.844-17.51 17.51v215.254c0 26.142 21.258 47.4 47.383 47.4h215.27c9.683 0 17.51-7.844 17.51-17.51 0-11.626 5.9-17.51 17.51-17.51 11.61 0 17.51 5.883 17.51 17.51 0 9.666 7.828 17.51 17.511 17.51h40.168c26.125 0 47.383-21.258 47.383-47.4V93.277c0-26.142-21.258-47.4-47.383-47.4h-40.168c-9.683 0-17.511 7.844-17.511 17.51 0 .175-.753 17.51-17.51 17.51-16.25 0-17.51-13.413-17.51-17.51 0-9.666-7.827-17.51-17.51-17.51H93.26zm87.176 52.728c.233-.034.476-.029.718.024 4.334.945 8.261 1.893 11.67 2.814 18.8 5.08 21.168 9.154 23.46 13.096.127.22.255.441.386.66 2.26 3.777 5.577 5.635 7.678 6.485 1.651-7.136 3.48-9.03 4.756-9.823.924-.574 1.936-.736 2.925-.468a3.95 3.95 0 0 1 1.809 1.087c2.9 2.482 7.2 4.47 13.14 6.075 7.7 2.08 16.498 3.064 24.26 3.933 5.728.641 10.676 1.197 13.94 2.078.876.237 1.6.487 2.217.766 3.36 1.524 5.45 2.816 6.185 4.912.818 2.333-.321 4.575-2.209 8.29-.507.998-1.083 2.13-1.697 3.411-3.203 6.68-5.21 12.291-7.336 18.233-.775 2.165-1.576 4.404-2.463 6.777-3.91 10.46-11.123 8.645-11.428 8.563a2.056 2.056 0 0 1-.42-.166c-6.196-3.284-14.669-6.388-25.18-9.227-16.037-4.333-31.306-6.521-31.458-6.543a2 2 0 0 1-1.528-2.83l5.479-11.611c-.616-.298-1.414-.58-2.385-.842-1.839-.497-4.098-.87-6.283-1.229-2.288-.376-4.655-.764-6.697-1.316-.554-.15-1.074-.31-1.543-.473-1.295-.45-2.25-1.388-2.764-2.713-1.764-4.54 2.358-13.584 4.277-17.379-2.89-2.455-7.804-4.661-14.341-6.427-4.9-1.324-8.946-1.907-8.987-1.912a2.002 2.002 0 0 1-1.594-2.676l3.834-10.29a2 2 0 0 1 1.579-1.279zm-20.83 53.137c.234-.03.478-.02.72.037 4.318 1.015 8.228 2.023 11.621 2.998 18.717 5.379 21.02 9.491 23.248 13.47.125.221.25.444.377.665 2.201 3.813 5.486 5.724 7.573 6.608 1.765-7.109 3.624-8.975 4.912-9.747.934-.56 1.946-.704 2.931-.421a3.95 3.95 0 0 1 1.791 1.117c2.86 2.527 7.129 4.583 13.043 6.283 7.665 2.203 16.446 3.327 24.194 4.32 5.717.733 10.655 1.365 13.904 2.3.872.25 1.594.513 2.205.802 3.336 1.578 5.404 2.904 6.105 5.012.781 2.345-.393 4.568-2.34 8.251-.522.99-1.116 2.112-1.751 3.383-3.309 6.627-5.405 12.206-7.625 18.112a503.896 503.896 0 0 1-2.573 6.738c-4.076 10.396-11.26 8.466-11.564 8.379a2.048 2.048 0 0 1-.416-.172c-6.144-3.382-14.564-6.622-25.027-9.629-15.956-4.585-31.2-7.019-31.352-7.043a2.002 2.002 0 0 1-1.482-2.853l5.662-11.522c-.612-.308-1.403-.603-2.37-.88-1.83-.527-4.085-.935-6.265-1.329-2.282-.413-4.64-.84-6.674-1.424a22.868 22.868 0 0 1-1.533-.498c-1.287-.47-2.227-1.423-2.72-2.756-1.692-4.568 2.575-13.545 4.554-17.308-2.85-2.501-7.73-4.786-14.238-6.656-4.878-1.402-8.915-2.049-8.955-2.055a1.997 1.997 0 0 1-1.55-2.701l3.999-10.227a1.996 1.996 0 0 1 1.595-1.254zm183.42 17.942 20.566 32.078-73.53 30.54 52.963-62.618zm-94.477 64.324c1.765-.008 3.133.309 4.22 1.172 1.937 1.536 2.17 4.04 2.553 8.19.104 1.114.22 2.377.383 3.788.854 7.357 2.148 13.173 3.518 19.332.5 2.246 1.017 4.57 1.533 7.051 2.271 10.934-4.8 13.245-5.102 13.338a2.05 2.05 0 0 1-.443.084c-6.994.527-15.816 2.419-26.22 5.623-15.867 4.886-29.962 11.181-30.102 11.244a1.994 1.994 0 0 1-2.8-1.578l-1.56-12.744c-.68.077-1.503.264-2.465.56-1.82.561-3.931 1.451-5.972 2.313-2.137.902-4.345 1.834-6.367 2.457-.548.168-1.07.311-1.555.424-1.335.309-2.645.025-3.787-.82-3.914-2.9-5.248-12.75-5.649-16.983-3.754-.536-9.088.218-15.56 2.21-4.866 1.5-8.585 3.16-8.621 3.177a1.993 1.993 0 0 1-1.727-.045 1.998 1.998 0 0 1-1.049-1.371l-2.244-10.746a2 2 0 0 1 1.276-2.288c4.17-1.511 7.994-2.804 11.369-3.843 18.611-5.73 22.79-3.547 26.83-1.434.225.118.45.236.678.352 3.927 1.988 7.725 1.792 9.955 1.39-2.409-6.916-1.873-9.495-1.217-10.845.475-.98 1.245-1.656 2.224-1.957a3.952 3.952 0 0 1 2.112-.043c3.776.552 8.473-.06 14.355-1.871 7.622-2.347 15.59-6.207 22.62-9.612 5.186-2.513 9.667-4.683 12.898-5.678.867-.267 1.615-.44 2.285-.533 1.37-.188 2.572-.31 3.63-.314zm116.435 8.37 7.526 31.214-84.766-16.653 77.24-14.56zm-76.377 47.278 73.807 29.631-15.088 35.916-58.719-65.547zm-30.209 1.846c1.765.032 3.124.378 4.192 1.266 1.9 1.58 2.077 4.088 2.367 8.244.078 1.117.167 2.382.299 3.797.687 7.375 1.85 13.222 3.08 19.412a498.61 498.61 0 0 1 1.371 7.08c1.696 9.201-3.107 12.213-4.62 12.918-.412.192-.708.28-.816.308a2.006 2.006 0 0 1-.41.065c-22.276 1.173-56.346 15.448-56.687 15.592a1.998 1.998 0 0 1-2.764-1.645l-1.273-12.78c-2.207.196-5.513 1.504-8.498 2.686-2.723 1.078-5.539 2.193-7.987 2.701-1.341.28-2.645-.034-3.767-.906-3.848-2.988-4.962-12.868-5.266-17.107-9.049-1.522-24.136 4.775-24.295 4.842a1.997 1.997 0 0 1-2.74-1.475l-2.002-10.797a1.997 1.997 0 0 1 1.326-2.256c28.747-9.693 33.608-7.01 38.309-4.414.223.124.444.246.67.367 3.894 2.084 7.71 1.965 9.918 1.62-1.646-5.055-2.81-10.918.765-12.582 1.098-.512 2.159-.328 2.639-.196 10.159 1.723 25.799-5.421 37.23-10.642 6.713-3.067 12.015-5.487 15.32-5.866 1.375-.157 2.58-.251 3.64-.232zm9.122 57.965c3.688-.087 6.132.17 7.705 1.738 1.75 1.746 1.697 4.261 1.609 8.426a157.34 157.34 0 0 0-.047 3.808c.016 7.408.644 13.334 1.309 19.61.242 2.287.491 4.653.722 7.176.855 9.317-4.2 11.882-5.77 12.447-.428.154-.73.215-.839.234a2.054 2.054 0 0 1-.416.028c-22.291-.851-57.514 10.276-57.867 10.388a1.996 1.996 0 0 1-2.604-1.886l-.11-12.844c-2.214-.006-5.626 1-8.706 1.906-2.81.827-5.713 1.682-8.197 1.967-1.362.156-2.63-.274-3.668-1.244-3.562-3.325-3.777-13.266-3.696-17.516-8.874-2.336-24.47 2.569-24.634 2.621a1.996 1.996 0 0 1-2.596-1.719l-1.016-10.931a2 2 0 0 1 1.526-2.13c29.506-7.048 34.104-3.934 38.55-.923.211.143.422.287.635.428 3.69 2.428 7.498 2.653 9.729 2.51-1.181-5.183-1.807-11.127 1.904-12.461 1.14-.41 2.18-.128 2.646.046 9.962 2.637 26.184-3.06 38.041-7.224 6.964-2.446 12.463-4.377 15.79-4.455z"/></g></g></svg>