<svg width="512" height="512" xml:space="preserve" xmlns="http://www.w3.org/2000/svg"><defs><filter style="color-interpolation-filters:sRGB" id="a" x="-.075" y="-.076" width="1.15" height="1.152"><feFlood flood-opacity="1" flood-color="#3A3F5E" result="flood"/><feComposite in="flood" in2="SourceGraphic" operator="out" result="composite1"/><feGaussianBlur in="composite1" stdDeviation="12.72" result="blur"/><feOffset result="offset"/><feComposite in="offset" in2="SourceGraphic" operator="atop" result="composite2"/></filter></defs><path d="M0 0h512v512H0Z" fill="#b90202" style="fill:#1b1f21;fill-opacity:1"/><g style="filter:url(#a)" transform="translate(-17.36 -61.694) scale(1.15518)"><path style="fill:#e64539;stroke-width:1.15518;fill-opacity:1" d="M204.219 19.078c5.15 27.232 33.526 45.413 46.699 51.492 20.86 9.628 80.454 24.335 102.064-13.408 5.765 14.77 1.875 137.619-32.189 168.854-17.26-16.457-42.176-26.79-69.875-26.79-22.744 0-43.602 6.967-59.895 18.567-21.508-34.521-62.2-57.83-108.9-57.83-22.39 0-43.392 5.382-61.58 14.766v12.068a1.681 1.681 0 0 0-.066-.014v296.49s86.415 4.47 93.328-95.353a.058.058 0 0 1-.004-.018c21.022 30.528 88 53.765 129.273 52.395 64.83-2.15 150.974-4.992 223.95-74.95 6.743-6.71 12.153-14.636 15.827-23.404v-.004c26.884-55.924-30.569-239.755-64.119-322.86Zm108.625 217.293c.153-.018-.2 7.16-.047 7.142l-.557 165.5c-17.642 11.763-97.985 12.486-110.6-1.77l.1-170.86 8.563 1.652c-.326-.108-.541-.187.187.035 31.237 6.037 63.058 4.305 94.813-.12zm-100.16 19.67.037 3.775.017 33.33.032 2.938 2.459.726c26.92 7.891 58.355 7.645 86.244.295l.07-7.24.21-29.068.003-4.452-3.969.704c-28.19 4.44-54.804 3.664-81.1-.483zm7.44 7.968 18.097 30.428a143.374 143.374 0 0 1-18.403-3.758zm75.124.772v.002l-.058 26.5c-2.813.697-7.36 1.195-10.159 1.732l-14.054-26.11c8.058-.3 24.271 6.078 24.271-2.124zm-66.736.371h.002c3.37.391 8.586.793 11.967 1.065l15.898 29.501a140.175 140.175 0 0 1-9.81-.402z" transform="translate(15.028 53.407) scale(.86567)"/></g></svg>