<svg width="512" height="512" xml:space="preserve" xmlns="http://www.w3.org/2000/svg"><defs><filter style="color-interpolation-filters:sRGB" id="a" x="-.075" y="-.076" width="1.15" height="1.152"><feFlood flood-opacity="1" flood-color="#3A3F5E" result="flood"/><feComposite in="flood" in2="SourceGraphic" operator="out" result="composite1"/><feGaussianBlur in="composite1" stdDeviation="12.72" result="blur"/><feOffset result="offset"/><feComposite in="offset" in2="SourceGraphic" operator="atop" result="composite2"/></filter></defs><path d="M0 0h512v512H0Z" fill="#b90202" style="fill:#1b1f21;fill-opacity:1"/><g style="fill:#e64539;fill-opacity:1;filter:url(#a)" transform="translate(-17.36 -61.694) scale(1.15518)"><path style="fill:#e64539;stroke-width:1.15518;fill-opacity:1" d="M204.219 19.078c5.15 27.232 33.526 45.413 46.699 51.492 20.86 9.628 80.454 24.335 102.064-13.408 5.765 14.77 1.875 137.619-32.189 168.854-17.26-16.457-42.176-26.79-69.875-26.79-22.744 0-43.602 6.967-59.895 18.567-21.508-34.521-62.2-57.83-108.9-57.83-22.39 0-43.392 5.382-61.58 14.766v12.068a1.654 1.654 0 0 0-.066-.014v296.49s86.415 4.47 93.328-95.353a.057.057 0 0 1-.004-.018c21.022 30.528 88 53.765 129.273 52.395 64.83-2.15 150.974-4.992 223.95-74.95 6.743-6.71 12.153-14.636 15.828-23.404v-.004c26.884-55.924-30.57-239.755-64.12-322.86H204.22zM313.934 233.03l2.207 3.823.617-.356 6.23 10.793.627-.361 6.537 11.322-.636.367.039.313.414-.24 1.978 3.427-2.521 1.457 2.164 8.197-59.549 34.381a15.506 15.506 0 0 1 7.932 6.758c4.297 7.443-.982 21.092-8.414 25.383l-12.036 6.95c-1.174.677-2.4 1.154-3.65 1.503-3.017-8.695-9.958 57.304 7.897 42.092l2.39 4.14 2.602 4.506-46.244 26.7-2.602-4.506.328-.19c-3.194-8.246-13.137-35.896-10.252-54.045 2.915-18.41-10.992-25.375-10.992-25.375-30.806-15.668-15.463-26.67-12.613-28.316 19.064-10.005 125.34-72.363 125.34-72.363l-2.204-3.813 4.41-2.547zm-.471 35.203-49.123 28.362-8.338 9.396 59.445-34.32-1.984-3.438zm-50.588 44.555a10.163 10.163 0 0 0-2.89.365l-11.602 6.7c1.688 2.568 5.989 8.172 10.904 7.414a2.657 2.657 0 0 1 3.022 2.209 2.672 2.672 0 0 1-1.295 2.673c-.28.162-.586.273-.916.323-4.753.728-8.744-1.626-11.684-4.383a355.45 355.45 0 0 1 4.553 11.644 10.32 10.32 0 0 0 2.775-1.087l12.035-6.948c4.843-2.796 6.512-9.022 3.721-13.855-1.841-3.19-5.177-4.993-8.623-5.055z" transform="translate(15.028 53.407) scale(.86567)"/></g></svg>