<svg width="512" height="512" xml:space="preserve" xmlns="http://www.w3.org/2000/svg"><defs><filter style="color-interpolation-filters:sRGB" id="a" x="-.075" y="-.076" width="1.15" height="1.152"><feFlood flood-opacity="1" flood-color="#3A3F5E" result="flood"/><feComposite in="flood" in2="SourceGraphic" operator="out" result="composite1"/><feGaussianBlur in="composite1" stdDeviation="12.72" result="blur"/><feOffset result="offset"/><feComposite in="offset" in2="SourceGraphic" operator="atop" result="composite2"/></filter></defs><path d="M0 0h512v512H0Z" fill="#b90202" style="fill:#1b1f21;fill-opacity:1"/><g style="fill:#e64539;fill-opacity:1;filter:url(#a)" transform="translate(-17.36 -61.694) scale(1.15518)"><path style="fill:#e64539;stroke-width:1.15518;fill-opacity:1" d="M204.219 19.078c5.15 27.232 33.526 45.413 46.699 51.492 20.86 9.628 80.454 24.335 102.064-13.408 5.765 14.77 1.875 137.619-32.189 168.854-17.26-16.457-42.176-26.79-69.875-26.79-22.744 0-43.602 6.967-59.895 18.567-21.508-34.521-62.2-57.83-108.9-57.83-22.39 0-43.392 5.382-61.58 14.766v12.068a1.654 1.654 0 0 0-.066-.014v296.49s86.415 4.47 93.328-95.353a.057.057 0 0 1-.004-.018c21.022 30.528 88 53.765 129.273 52.395 64.83-2.15 150.974-4.992 223.95-74.95 6.743-6.71 12.153-14.636 15.828-23.404v-.004c26.884-55.924-30.57-239.755-64.12-322.86H204.22zm51.297 211.649c6.742 0 12.893 1.608 17.619 4.464 4.15 2.51 7.382 6.225 8.105 10.7l10.873 10.873 3.942-3.942 36.437 36.44-6.474 19.424-42.914-42.915 3.94-3.94-7.54-7.542c-1.488 2.44-3.744 4.51-6.37 6.098a27.409 27.409 0 0 1-3.693 1.857l48.57 48.568-8.445 8.448-48.982-48.985 7.512-7.513c-3.755 1.353-8.03 2.088-12.578 2.088-6.743 0-12.894-1.609-17.62-4.465-4.724-2.857-8.26-7.272-8.26-12.596s3.536-9.74 8.26-12.598c4.726-2.856 10.876-4.464 17.618-4.464zm41.537 5.08 53.455 53.453-8.078 24.232-64.557 73.166-3.951-3.953 56.834-65.58 9.935-29.8-47.578-47.577 3.94-3.941zm-41.537 2.086c-5.571 0-10.567 1.409-13.91 3.431-3.345 2.022-4.801 4.344-4.801 6.465 0 2.121 1.456 4.443 4.8 6.465 3.344 2.022 8.34 3.432 13.91 3.432 5.572 0 10.569-1.41 13.913-3.432 3.343-2.022 4.799-4.344 4.799-6.465 0-2.12-1.455-4.444-4.8-6.465-3.343-2.022-8.34-3.431-13.911-3.431zm0 37.449 48.982 48.984-80.512 80.512-48.982-48.984 80.512-80.512zm-85.58 85.58 48.984 48.982-8.447 8.446-48.98-48.983 8.443-8.445z" transform="translate(15.028 53.407) scale(.86567)"/></g></svg>