<svg width="512" height="512" xml:space="preserve" xmlns="http://www.w3.org/2000/svg"><defs><filter style="color-interpolation-filters:sRGB" id="a" x="-.075" y="-.076" width="1.15" height="1.152"><feFlood flood-opacity="1" flood-color="#3A3F5E" result="flood"/><feComposite in="flood" in2="SourceGraphic" operator="out" result="composite1"/><feGaussianBlur in="composite1" stdDeviation="12.72" result="blur"/><feOffset result="offset"/><feComposite in="offset" in2="SourceGraphic" operator="atop" result="composite2"/></filter></defs><path d="M0 0h512v512H0Z" fill="#b90202" style="fill:#1b1f21;fill-opacity:1"/><g style="filter:url(#a)" transform="translate(-17.36 -61.694) scale(1.15518)"><path style="fill:#e64539;stroke-width:1.15518;fill-opacity:1" d="M204.219 19.078c5.15 27.232 33.526 45.413 46.699 51.492 20.86 9.628 80.454 24.335 102.064-13.408 5.765 14.77 1.875 137.619-32.189 168.854-17.26-16.457-42.176-26.79-69.875-26.79-22.744 0-43.602 6.967-59.895 18.567-21.508-34.521-62.2-57.83-108.9-57.83-22.39 0-43.392 5.382-61.58 14.766v12.068a1.681 1.681 0 0 0-.066-.014v296.49s86.415 4.47 93.328-95.353a.058.058 0 0 1-.004-.018c21.022 30.528 88 53.765 129.273 52.395 64.83-2.15 150.974-4.992 223.95-74.95 6.743-6.71 12.153-14.636 15.827-23.404v-.004c26.884-55.924-30.569-239.755-64.119-322.86Zm122.39 221.373c3.82 16.79-10.995 37.056-23.205 49.265l-46.137 46.137c-3.673-3.45-9.458-3.38-13.047.207a9.332 9.332 0 0 0-2.738 6.627 9.34 9.34 0 0 0 2.53 6.42l-4.16 4.16-26.06-26.06 16.405-16.405 14.12 2.694-2.486-14.09 13.926 2.652-2.65-13.928 13.763 2.815-2.488-14.102 13.928 2.662-2.522-14.144c13.724 3.514 43.422-16.763 50.82-24.91zm-125.17 83.843 44.215 44.215-4.627 4.627-44.215-44.213zm8.127 26.573 7.548 7.55c-6.447 10.502-18.038 21.89-29.134 28.083l-6.551-6.551c6.145-10.847 17.438-22.512 28.137-29.082zm-36.905 29.506 15.352 15.35-11.135 11.146-15.351-15.352z" transform="translate(15.028 53.407) scale(.86567)"/></g></svg>