<svg width="512" height="512" xml:space="preserve" xmlns="http://www.w3.org/2000/svg"><defs><filter style="color-interpolation-filters:sRGB" id="a" x="-.075" y="-.076" width="1.15" height="1.152"><feFlood flood-opacity="1" flood-color="#3A3F5E" result="flood"/><feComposite in="flood" in2="SourceGraphic" operator="out" result="composite1"/><feGaussianBlur in="composite1" stdDeviation="12.72" result="blur"/><feOffset result="offset"/><feComposite in="offset" in2="SourceGraphic" operator="atop" result="composite2"/></filter></defs><path d="M0 0h512v512H0Z" fill="#b90202" style="fill:#1b1f21;fill-opacity:1"/><g style="fill:#e64539;fill-opacity:1;filter:url(#a)" transform="translate(-17.36 -61.694) scale(1.15518)"><path style="fill:#e64539;stroke-width:1.15518;fill-opacity:1" d="M204.219 19.078c5.15 27.232 33.526 45.413 46.699 51.492 20.86 9.628 80.454 24.335 102.064-13.408 5.765 14.77 1.875 137.619-32.189 168.854-17.26-16.457-42.176-26.79-69.875-26.79-22.744 0-43.602 6.967-59.895 18.567-21.508-34.521-62.2-57.83-108.9-57.83-22.39 0-43.392 5.382-61.58 14.766v12.068a1.618 1.618 0 0 0-.066-.014v296.49s86.415 4.47 93.328-95.353a.057.057 0 0 1-.004-.018c21.022 30.528 88 53.765 129.273 52.395 64.83-2.15 150.974-4.992 223.95-74.95 6.743-6.71 12.153-14.636 15.828-23.404v-.004c26.884-55.924-30.57-239.755-64.12-322.86H204.22zm18.338 195.73a6.79 6.79 0 0 1 3.937 1.256l10.29 7.288c13.825 9.792 30.22 14.982 47.13 14.982.53 0 1.06-.005 1.59-.016.129-.002.257-.004.385-.004a19.92 19.92 0 0 1 11.545 3.682c9.017 6.387 11.149 18.876 4.761 27.893-3.9 5.506-10.074 8.441-16.343 8.441-.511 0-1.021-.02-1.532-.059 2.74 6.225 2.24 13.693-1.976 19.647-3.9 5.506-10.074 8.443-16.344 8.443a19.917 19.917 0 0 1-11.549-3.681 19.91 19.91 0 0 1-7.428-10.034c-5.463-16.539-16.071-30.924-30.285-40.992l-10.289-7.287a6.824 6.824 0 0 1-1.625-9.512l12.16-17.166a6.815 6.815 0 0 1 5.573-2.88zm61.09 28.887a5.189 5.189 0 1 0 0 10.38 5.64 5.64 0 0 1 5.634 5.632 5.186 5.186 0 0 0 5.188 5.188 5.187 5.187 0 0 0 5.19-5.188c0-8.829-7.184-16.012-16.013-16.012zm31.552 22.614c14.161 5.417 24.254 19.472 24.254 35.962 0 4.79-.859 9.372-2.414 13.6a30.208 30.208 0 0 0-17.594-5.635c-6.197 0-12.18 1.93-17.174 5.348-4.994-3.419-10.977-5.348-17.173-5.348-.11 0-.217.007-.327.008a30.27 30.27 0 0 0 6.041-6.33c3.579-5.052 5.463-11.042 5.563-17.088a30.405 30.405 0 0 0 14.29-10.941 30.378 30.378 0 0 0 4.534-9.576zm-30.101 54.304c7.296 0 13.678 3.908 17.173 9.742 3.496-5.834 9.879-9.742 17.174-9.742 11.05 0 20.008 8.958 20.008 20.008 0 4.44-1.447 8.543-3.894 11.861-10.339 14.018-15.948 30.99-15.948 48.409v12.607a6.822 6.822 0 0 1-6.822 6.822h-21.037a6.822 6.822 0 0 1-6.822-6.822v-12.607c0-17.474-5.576-34.346-15.948-48.409a19.912 19.912 0 0 1-3.894-11.86c.001-11.05 8.96-20.009 20.01-20.009z" transform="translate(15.028 53.407) scale(.86567)"/></g></svg>