<svg width="512" height="512" xmlns="http://www.w3.org/2000/svg"><defs><filter style="color-interpolation-filters:sRGB" id="a" x="-.087" y="-.063" width="1.174" height="1.125"><feFlood flood-opacity="1" flood-color="#3A3F5E" result="flood"/><feComposite in="flood" in2="SourceGraphic" operator="out" result="composite1"/><feGaussianBlur in="composite1" stdDeviation="7.166" result="blur"/><feOffset result="offset"/><feComposite in="offset" in2="SourceGraphic" operator="atop" result="composite2"/></filter></defs><path d="M0 0h512v512H0Z" fill="#b90202" style="fill:#1b1f21;fill-opacity:1"/><path data-name="&lt;Transparent Rectangle&gt;" style="stroke-width:14.5096;fill:none" d="M23.847 23.847h464.306v464.306H23.847z"/><g style="fill:#e64539;fill-opacity:1;filter:url(#a)"><path style="fill:#e64539;stroke-width:1.68106;fill-opacity:1" d="M255.994 24.977c-91.843 0-166.562 74.718-166.562 166.566v182.49c0 70.751 31.797 112.99 85.054 112.99 77.148 0 102.745-54.158 118.04-86.517l.378-.803c17.11-36.19 39.33-51.717 60.82-66.73 34.894-24.38 67.853-47.41 68.833-141.303.497-47.841-14.99-89.042-44.782-119.149-30.343-30.659-73.592-47.544-121.78-47.544zm-1.523 52.308c28.29 0 55.01 10.204 75.97 28.858l-24.671 24.67c-14.87-12.64-33.543-19.534-53.278-19.534-45.449 0-82.424 36.975-82.424 82.424 0 45.449 36.975 82.426 82.424 82.426 45.449 0 82.424-36.975 82.424-82.424h-13.598c0 37.952-30.875 68.826-68.826 68.826-37.951 0-68.826-30.874-68.826-68.826 0-37.951 30.875-68.828 68.826-68.828 16.1 0 31.356 5.49 43.63 15.584l-21.67 21.67c-6.399-4.47-13.992-6.885-21.96-6.885-21.206 0-38.457 17.253-38.457 38.46 0 21.206 17.251 38.456 38.457 38.456s38.46-17.25 38.46-38.457h-13.598c0 13.709-11.153 24.86-24.862 24.86-13.708 0-24.86-11.152-24.86-24.86s11.152-24.861 24.86-24.861a24.72 24.72 0 0 1 12.106 3.14l-16.912 16.912 9.615 9.616 82.754-82.756c18.653 20.96 28.857 47.68 28.857 75.97 0 30.569-11.905 59.307-33.52 80.922-21.614 21.615-50.353 33.52-80.921 33.52-30.57 0-59.307-11.905-80.922-33.52-21.616-21.615-33.52-50.353-33.52-80.921 0-30.569 11.904-59.308 33.52-80.922 21.615-21.615 50.353-33.52 80.922-33.52zm69.265 81.04c-5.053 0-9.15 4.097-9.15 9.152a9.15 9.15 0 0 0 9.15 9.15c5.055 0 9.153-4.097 9.153-9.15a9.154 9.154 0 0 0-9.153-9.153z"/></g></svg>