<svg version="1.2" viewBox="-421 153 512 512" xml:space="preserve" width="512" height="512" xmlns="http://www.w3.org/2000/svg"><defs><filter style="color-interpolation-filters:sRGB" id="a" x="-.052" y="-.042" width="1.104" height="1.084"><feFlood flood-opacity="1" flood-color="#3A3F5E" result="flood"/><feComposite in="flood" in2="SourceGraphic" operator="out" result="composite1"/><feGaussianBlur in="composite1" stdDeviation="8.556" result="blur"/><feOffset result="offset"/><feComposite in="offset" in2="SourceGraphic" operator="atop" result="composite2"/></filter></defs><path d="M0 0h512v512H0Z" fill="#b90202" style="fill:#1b1f21;fill-opacity:1" transform="translate(-421 153)"/><path style="fill:#e64539;stroke-width:3.85001;fill-opacity:1;filter:url(#a)" d="m333.43 7.186-80.207.068h-.002l-77.637-.065s11.344 80.403 77.82 80.403c68.162 0 80.026-80.406 80.026-80.406zm-176.758 99.45a98.26 98.26 0 0 0-98.563 98.561v241.01c0 18.865 15.016 34.65 34.65 34.65 19.636 0 34.651-15.015 34.651-34.65V224.832c0-5.39 4.622-10.01 10.012-10.01 5.39 0 10.008 4.62 10.008 10.01v273.4h98.56v-16.605c0-5.39 4.622-10.01 10.012-10.01 5.39 0 10.008 4.62 10.008 10.01v16.605h98.558v-273.4c0-5.39 4.622-10.01 10.012-10.01 5.39 0 10.01 4.62 10.01 10.01v221.76c0 18.865 15.015 34.65 34.65 34.65 19.635 0 34.65-15.015 34.65-34.65V205.197c-1.54-54.67-46.586-98.56-100.1-98.56H156.671zM256 166.07c22.232 0 43.228 8.018 59.7 22.676l-19.387 19.387c-11.686-9.932-26.36-15.35-41.868-15.35-35.714 0-64.77 29.057-64.77 64.772 0 35.714 29.056 64.77 64.77 64.77 35.715 0 64.77-29.056 64.77-64.77H308.53c0 29.823-24.263 54.086-54.086 54.086-29.823 0-54.086-24.263-54.086-54.086 0-29.823 24.263-54.086 54.086-54.086 12.652 0 24.639 4.313 34.284 12.246l-17.028 17.03c-5.027-3.513-10.994-5.411-17.256-5.411-16.664 0-30.22 13.556-30.22 30.22 0 16.665 13.556 30.221 30.22 30.221s30.221-13.556 30.221-30.22h-10.684c0 10.772-8.764 19.535-19.537 19.535-10.772 0-19.535-8.763-19.535-19.535 0-10.773 8.763-19.535 19.535-19.535 3.385 0 6.637.858 9.512 2.466l-13.289 13.29 7.557 7.556 65.029-65.03C337.912 212.775 345.93 233.77 345.93 256c0 24.021-9.355 46.604-26.34 63.59-16.985 16.985-39.569 26.34-63.59 26.34s-46.604-9.355-63.59-26.34c-16.986-16.986-26.34-39.569-26.34-63.59s9.354-46.605 26.34-63.59c16.986-16.985 39.569-26.34 63.59-26.34zm54.43 63.682a7.192 7.192 0 1 0 0 14.383 7.192 7.192 0 0 0 0-14.383z" transform="translate(-421 153)"/></svg>