<svg xml:space="preserve" width="512" height="512" xmlns="http://www.w3.org/2000/svg"><defs><filter style="color-interpolation-filters:sRGB" id="a" x="-.066" y="-.086" width="1.132" height="1.172"><feFlood flood-opacity="1" flood-color="#3A3F5E" result="flood"/><feComposite in="flood" in2="SourceGraphic" operator="out" result="composite1"/><feGaussianBlur in="composite1" stdDeviation="12.72" result="blur"/><feOffset result="offset"/><feComposite in="offset" in2="SourceGraphic" operator="atop" result="composite2"/></filter></defs><path d="M0 0h512v512H0Z" fill="#b90202" style="fill:#1b1f21;fill-opacity:1"/><g style="fill:#e64539;fill-opacity:1;filter:url(#a)"><g style="fill:#e64539;fill-opacity:1"><path style="fill:#e64539;stroke-width:.896456;fill-opacity:1" d="M253.45 78.912c-30.28.292-60.504 6.32-88.526 17.81-32.313 13.196-61.64 33.577-85.363 59.17-23.847 25.667-42.028 56.582-52.735 89.948-1.004 3.368-2.416 6.721-2.318 10.3-.03 3.514 1.366 6.8 2.347 10.112 11.071 34.459 30.125 66.293 55.143 92.437 25.204 26.416 56.473 47.029 90.748 59.631 29.67 10.97 61.53 15.876 93.125 14.58 31.093-1.222 61.937-8.551 90.223-21.529 32.351-14.794 61.31-36.899 84.183-64.139 21.312-25.32 37.366-55.068 46.662-86.837.94-3.552.63-7.346-.59-10.791-10.407-34.39-28.73-66.325-53.042-92.768-23.657-25.801-52.986-46.383-85.344-59.752-28.1-11.65-58.442-17.807-88.854-18.164a263.235 263.235 0 0 0-5.66-.008zm2.529 61.504c5.35.002 10.698.348 16.003 1.031 1.13.147 2.514.347 3.737.541 1.716.281 3.257.556 4.976.907 3.69.742 7.341 1.663 10.948 2.736.902.282 2.074.634 3.072.969 8.144 2.681 16.034 6.177 23.428 10.521 2.123 1.405 2.697 4.543 1.263 6.635l-40.865 70.781c-8.977-6.959-21.258-9.419-32.209-6.371a37.392 37.392 0 0 0-12.871 6.377c-13.707-23.75-27.43-47.49-41.127-71.246-1.217-2.24-.258-5.304 2.012-6.461 1.423-.81 2.877-1.624 4.25-2.332 12.881-6.768 26.983-11.186 41.41-13.059.584-.065 1.574-.193 2.158-.26 4.586-.511 9.2-.76 13.815-.769zm-.43 100.139c1.554-.027 3.112.1 4.64.384 6.346 1.126 12.142 5.012 15.545 10.49 3.597 5.606 4.573 12.783 2.631 19.151-1.802 6.198-6.316 11.53-12.133 14.328-5.732 2.85-12.642 3.126-18.603.81-6.183-2.315-11.205-7.424-13.5-13.605-2.575-6.682-1.75-14.516 2.053-20.568 4.061-6.61 11.608-10.895 19.367-10.99zm-118.293 16.527h84.404c-1.672 8.344-.282 16.905 4.012 24.342 4.294 7.437 11.013 12.923 19.076 15.648l-42.203 73.094a6.832 6.832 0 0 1-9.328 2.506c-19.027-10.962-34.919-26.86-45.955-45.977-11.037-19.116-16.86-40.827-16.838-62.787a6.831 6.831 0 0 1 6.832-6.826zm153.082 0h84.406c1.834-.033 3.553.72 4.834 2.004a6.819 6.819 0 0 1 1.998 4.836c-.042 44.729-24.104 86.393-62.797 108.732a6.835 6.835 0 0 1-9.334-2.502l-42.19-73.072a35.372 35.372 0 0 0 6.255-2.836c13.314-7.688 19.661-22.857 16.828-37.162z"/></g></g></svg>