<svg width="512" height="512" xmlns="http://www.w3.org/2000/svg"><defs><filter style="color-interpolation-filters:sRGB" id="a" x="-.154" y="-.111" width="1.308" height="1.222"><feFlood flood-opacity="1" flood-color="#3A3F5E" result="flood"/><feComposite in="flood" in2="SourceGraphic" operator="out" result="composite1"/><feGaussianBlur in="composite1" stdDeviation="12.72" result="blur"/><feOffset result="offset"/><feComposite in="offset" in2="SourceGraphic" operator="atop" result="composite2"/></filter></defs><path d="M0 0h512v512H0Z" fill="#b90202" style="fill:#1b1f21;fill-opacity:1"/><path data-name="&lt;Transparent Rectangle&gt;" style="stroke-width:14.5096;fill:none" d="M23.847 23.847h464.306v464.306H23.847z"/><g style="fill:#e64539;fill-opacity:1;filter:url(#a)"><path style="fill:#e64539;stroke-width:1.68106;fill-opacity:1" d="M255.994 24.977c-91.843 0-166.562 74.718-166.562 166.566v182.49c0 70.751 31.797 112.99 85.054 112.99 77.148 0 102.745-54.158 118.04-86.517l.378-.803c17.11-36.19 39.33-51.717 60.82-66.73 34.894-24.38 67.853-47.41 68.833-141.303.497-47.841-14.99-89.042-44.782-119.149-30.343-30.659-73.592-47.544-121.78-47.544zM225.008 86.03h.556c19.254 0 37.41 7.436 51.124 20.94 13.83 13.613 21.763 32.8 21.763 52.638v16.34l60.23 45.965a34.016 34.016 0 0 1 8.36 45.004c-6.417 10.428-17.518 16.268-29.012 16.268a34.149 34.149 0 0 1-14.93-3.448L220.967 230.22a45.606 45.606 0 0 1-23.844-28.217 45.611 45.611 0 0 1 4.932-36.613 45.608 45.608 0 0 1 30.46-20.905 45.609 45.609 0 0 1 35.936 8.57l2.008 1.532c-1.111-10.485-5.694-20.344-12.963-27.61-8.529-8.528-19.871-13.226-31.937-13.226h-.377c-24.687.188-44.795 20.785-44.795 45.914 0 20.316 4.022 40.066 11.957 58.695 7.913 18.578 19.317 35.111 33.894 49.143 5.294 5.097 5.729 13.45.989 19.016a13.918 13.918 0 0 1-10.547 4.873 13.927 13.927 0 0 1-9.623-3.873c-17.291-16.633-30.818-36.237-40.205-58.266-9.414-22.09-14.188-45.503-14.188-69.588 0-40.304 32.454-73.336 72.344-73.635zm15.553 75.63a27.24 27.24 0 0 0-5.62.456c-7.528 1.399-13.886 5.76-17.9 12.281-4.013 6.522-5.043 14.163-2.898 21.514 2.145 7.352 7.121 13.241 14.011 16.582l102.131 49.518c2.165 1.05 4.46 1.672 6.715 1.55 9.364-.504 13.045-7.314 13.045-7.314s5.291-13.564-3.758-20.238l-90.23-68.858c-4.566-3.484-9.925-5.361-15.496-5.492zm-3.77 16.14c1.656.03 3.22.582 4.611 1.644 3.324 2.537 4.144 6.961 1.953 10.522-1.516 2.465-4.054 3.828-6.72 3.828a8.128 8.128 0 0 1-3.553-.83c-2.114-1.025-3.518-2.687-4.176-4.942a7.99 7.99 0 0 1 .867-6.421c1.23-1.997 3.023-3.23 5.332-3.659a8.362 8.362 0 0 1 1.686-.142z"/></g></svg>