<svg width="512" height="512" xmlns="http://www.w3.org/2000/svg"><defs><filter style="color-interpolation-filters:sRGB" id="a" x="-.154" y="-.111" width="1.308" height="1.222"><feFlood flood-opacity="1" flood-color="#3A3F5E" result="flood"/><feComposite in="flood" in2="SourceGraphic" operator="out" result="composite1"/><feGaussianBlur in="composite1" stdDeviation="12.72" result="blur"/><feOffset result="offset"/><feComposite in="offset" in2="SourceGraphic" operator="atop" result="composite2"/></filter></defs><path d="M0 0h512v512H0Z" fill="#b90202" style="fill:#1b1f21;fill-opacity:1"/><path data-name="&lt;Transparent Rectangle&gt;" style="stroke-width:14.5096;fill:none" d="M23.847 23.847h464.306v464.306H23.847z"/><g style="fill:#e64539;fill-opacity:1;filter:url(#a)"><path style="fill:#e64539;stroke-width:1.68106;fill-opacity:1" d="M255.994 24.977c-91.843 0-166.562 74.718-166.562 166.566v182.49c0 70.751 31.797 112.99 85.054 112.99 77.148 0 102.745-54.158 118.04-86.517l.378-.803c17.11-36.19 39.33-51.717 60.82-66.73 34.894-24.38 67.853-47.41 68.833-141.303.497-47.841-14.99-89.042-44.782-119.149-30.343-30.659-73.592-47.544-121.78-47.544zm-87.402 62.21h162.851a6.798 6.798 0 0 1 6.797 6.797v209.772a6.798 6.798 0 0 1-6.797 6.797H168.592a6.797 6.797 0 0 1-6.797-6.797V93.984a6.797 6.797 0 0 1 6.797-6.796zm6.797 13.594V296.96h149.257V100.781H175.39zm19.238 11.096h110.78a6.798 6.798 0 0 1 6.796 6.797v43.836a6.796 6.796 0 0 1-6.795 6.797H194.627a6.796 6.796 0 0 1-6.795-6.797v-43.836a6.796 6.796 0 0 1 6.795-6.797zm6.797 13.594v8.834h57.47a6.798 6.798 0 0 1 0 13.593h-57.47v7.815h97.187V125.47h-97.187zm77.937 8.84c.419.003.839.046 1.254.13.428.081.856.217 1.27.387a6.906 6.906 0 0 1 2.203 1.467 6.83 6.83 0 0 1 1.469 2.209c.17.408.306.836.386 1.271a6.637 6.637 0 0 1 0 2.65c-.08.436-.217.864-.386 1.278a6.95 6.95 0 0 1-.625 1.17 6.51 6.51 0 0 1-.844 1.033 6.432 6.432 0 0 1-1.033.842 6.875 6.875 0 0 1-1.17.625 7.25 7.25 0 0 1-1.27.395c-.44.089-.89.13-1.332.13a6.843 6.843 0 0 1-4.804-1.992 6.89 6.89 0 0 1-1.469-2.203 7.127 7.127 0 0 1-.387-1.277 6.682 6.682 0 0 1-.137-1.324 6.901 6.901 0 0 1 1.148-3.771c.245-.376.532-.723.845-1.036a6.864 6.864 0 0 1 4.882-1.984zm-29.343 42.084c30.393 0 55.12 24.727 55.12 55.12 0 30.394-24.727 55.122-55.12 55.122-30.394 0-55.122-24.728-55.122-55.121 0-30.394 24.728-55.121 55.122-55.121zm0 13.593c-22.899 0-41.528 18.629-41.528 41.528 0 22.898 18.63 41.527 41.528 41.527s41.527-18.629 41.527-41.527c0-22.899-18.629-41.528-41.527-41.528zm18.666 18.844a6.786 6.786 0 0 1 5.896 2.44 31.875 31.875 0 0 1 7.28 20.244c0 17.557-14.285 31.841-31.842 31.841a6.796 6.796 0 1 1 0-13.592c10.062 0 18.248-8.187 18.248-18.25a18.25 18.25 0 0 0-4.168-11.591 6.795 6.795 0 0 1 .916-9.567 6.771 6.771 0 0 1 3.67-1.525z"/></g></svg>