<svg width="512" height="512" xml:space="preserve" xmlns="http://www.w3.org/2000/svg"><defs><filter style="color-interpolation-filters:sRGB" id="a" x="-.075" y="-.076" width="1.15" height="1.152"><feFlood flood-opacity="1" flood-color="#3A3F5E" result="flood"/><feComposite in="flood" in2="SourceGraphic" operator="out" result="composite1"/><feGaussianBlur in="composite1" stdDeviation="12.72" result="blur"/><feOffset result="offset"/><feComposite in="offset" in2="SourceGraphic" operator="atop" result="composite2"/></filter></defs><path d="M0 0h512v512H0Z" fill="#b90202" style="fill:#1b1f21;fill-opacity:1"/><g style="fill:#e64539;fill-opacity:1;filter:url(#a)" transform="translate(-17.36 -61.694) scale(1.15518)"><path style="fill:#e64539;stroke-width:1.15518;fill-opacity:1" d="M204.219 19.078c5.15 27.232 33.526 45.413 46.699 51.492 20.86 9.628 80.454 24.335 102.064-13.408 5.765 14.77 1.875 137.619-32.189 168.854-17.26-16.457-42.176-26.79-69.875-26.79-22.744 0-43.602 6.967-59.895 18.567-21.508-34.521-62.2-57.83-108.9-57.83-22.39 0-43.392 5.382-61.58 14.766v12.068a1.654 1.654 0 0 0-.066-.014v296.49s86.415 4.47 93.328-95.353a.057.057 0 0 1-.004-.018c21.022 30.528 88 53.765 129.273 52.395 64.83-2.15 150.974-4.992 223.95-74.95 6.743-6.71 12.153-14.636 15.828-23.404v-.004c26.884-55.924-30.57-239.755-64.12-322.86H204.22zm23.345 217.117c106.493 4.459 155.601 121.245 92.293 128.914-2.677 14.716-14.123 24.79-35.818 24.307-3.506 24.532-30.374 37.12-87.049 11.863 34.582 8.836 51.814-.92 55.908-17.925-6.167-2.026-12.78-4.584-19.867-7.743 7.728 1.975 14.589 3.02 20.631 3.264 3.41-32.697-34.648-85.796-89.637-93.09 56.488 2.365 96.827 36.336 112.81 68.863 4.654.45 8.875.468 12.675.094 4.8-32.541-33.587-87.215-89.444-94.625 60.446 2.532 102.4 41.25 115.809 75.666 9.942-31.593-29.5-91.788-88.31-99.588zm51.23 122.703c1.577 3.681 2.828 7.324 3.75 10.881 2.24-2.354 3.947-5.094 5.151-8.138-2.856-.785-5.826-1.7-8.9-2.743z" transform="translate(15.028 53.407) scale(.86567)"/></g></svg>