<svg height="512" width="512" style="enable-background:new 0 0 512 512" xml:space="preserve" xmlns="http://www.w3.org/2000/svg"><defs><filter style="color-interpolation-filters:sRGB" id="a" x="-.077" y="-.06" width="1.154" height="1.119"><feFlood flood-opacity="1" flood-color="#3A3F5E" result="flood"/><feComposite in="flood" in2="SourceGraphic" operator="out" result="composite1"/><feGaussianBlur in="composite1" stdDeviation="12.72" result="blur"/><feOffset result="offset"/><feComposite in="offset" in2="SourceGraphic" operator="atop" result="composite2"/></filter></defs><path d="M0 0h512v512H0Z" fill="#b90202" style="fill:#1b1f21;fill-opacity:1"/><g style="fill:#e64539;fill-opacity:1;filter:url(#a)"><path d="m415.708 179.096 17.643 17.643 21.508-21.508-56.796-56.796-21.508 21.508 17.644 17.644-11.764 11.764c-25.43-21.765-56.512-37.098-90.711-43.466v-13.106c25.719-5.514 45.063-28.413 45.063-55.754C336.787 25.582 311.205 0 279.76 0h-47.519c-31.445 0-57.027 25.582-57.027 57.026 0 27.34 19.344 50.24 45.063 55.754v13.106c-34.199 6.368-65.282 21.702-90.711 43.466l-11.764-11.764 17.644-17.644-21.508-21.508-56.796 56.796 21.508 21.507 17.643-17.643 11.764 11.764c-29.137 34.044-46.762 78.217-46.762 126.435C61.294 424.656 148.638 512 256 512c107.362 0 194.706-87.344 194.706-194.705 0-48.218-17.626-92.391-46.762-126.435zm-273.31 153.407h-30.409v-30.417h30.409zm22.525 97.377-21.508-21.508 21.503-21.503 21.508 21.508zm-.005-182.161-21.503-21.502 21.508-21.508 21.503 21.502zm55.484-166.873c-8.747-4.364-14.771-13.4-14.771-23.82 0-14.672 11.937-26.609 26.61-26.609h47.519c14.673 0 26.61 11.937 26.61 26.609 0 10.42-6.024 19.455-14.77 23.82-1.457-18.369-16.861-32.875-35.599-32.875-18.738 0-34.142 14.506-35.599 32.875zm50.807 380.459h-30.417v-30.408h30.417zm75.868-31.425-21.503-21.503 21.508-21.508 21.503 21.503zm52.933-97.378H240.791V173.284H256c79.407 0 144.01 64.602 144.01 144.009z" style="fill:#e64539;fill-opacity:1" transform="translate(30.76 30.76) scale(.87984)"/></g></svg>