<svg width="512" height="512" xml:space="preserve" xmlns="http://www.w3.org/2000/svg"><defs><filter style="color-interpolation-filters:sRGB" id="a" x="-.065" y="-.066" width="1.13" height="1.132"><feFlood flood-opacity="1" flood-color="#3A3F5E" result="flood"/><feComposite in="flood" in2="SourceGraphic" operator="out" result="composite1"/><feGaussianBlur in="composite1" stdDeviation="12.72" result="blur"/><feOffset result="offset"/><feComposite in="offset" in2="SourceGraphic" operator="atop" result="composite2"/></filter></defs><path d="M0 0h512v512H0Z" fill="#b90202" style="fill:#1b1f21;fill-opacity:1"/><g style="fill:#1b1f21;fill-opacity:1"><path style="fill:#e64539;stroke-width:1.15518;fill-opacity:1;filter:url(#a)" d="M204.219 19.078c5.15 27.232 33.526 45.413 46.699 51.492 20.86 9.628 80.454 24.335 102.064-13.408 5.765 14.77 1.875 137.619-32.189 168.854-17.26-16.457-42.176-26.79-69.875-26.79-22.744 0-43.602 6.967-59.895 18.567-21.508-34.521-62.2-57.83-108.9-57.83-22.39 0-43.392 5.382-61.58 14.766v12.068a1.654 1.654 0 0 0-.066-.014v296.49s86.415 4.47 93.328-95.353a.057.057 0 0 1-.004-.018c21.022 30.528 88 53.765 129.273 52.395 64.83-2.15 150.974-4.992 223.95-74.95 6.743-6.71 12.153-14.636 15.828-23.404v-.004c26.884-55.924-30.57-239.755-64.12-322.86H204.22zm10.353 215.41 32.078 17.707 3.235-9.963 21.03 25.735 3.503-13.281 21.566 37.076 2.696-8.024 22.375 39.29 5.66-13.557c8.532 19.04 13.462 38.607 16.984 58.383-11.377-5.689-22.393-12.261-32.949-19.598l-17.283-24.178-3.969 8.48-22.99-41.044-4.492 11.283-26.301-44.205.008 12.844-1.883-2.413c-7.256-11.086-13.718-22.635-19.268-34.535zm-39.472 2.664c16.471 8.112 33.288 18.857 49.697 31.457l17.814 22.83-.004-7.818 20.635 34.682 4.319-10.842 22.484 40.144 4.666-9.966 30.685 42.93c4.743 7.982 9.002 15.967 12.698 23.874a249.159 249.159 0 0 1-16.342-7.414l-40.209-24.73a290.756 290.756 0 0 1-4.629-3.49c.26.372.514.746.772 1.119l-1.987-1.223 12.653-5.94-50.887-31.44 11.515-3.651-31.578-21.227 5.545-.898-47.293-67.207c-.184-.397-.371-.791-.554-1.19zm-4.912 39.016c13.966 6.86 27.44 15.08 40.222 24.447l-11.29 1.828 34.194 22.985-12.209 3.869 52.829 32.64-12.682 5.956 25.168 15.476a275.485 275.485 0 0 1 13.705 25.336l-43.402-9.963 12.13-4.426-54.455-30.714 16.446-1.383-45.56-35.139 12.94-3.596-29.923-24.902 12.67.273-10.784-22.687z"/></g></svg>