<svg width="512" height="512" xmlns="http://www.w3.org/2000/svg"><defs><filter style="color-interpolation-filters:sRGB" id="a" x="-.154" y="-.111" width="1.308" height="1.222"><feFlood flood-opacity="1" flood-color="#3A3F5E" result="flood"/><feComposite in="flood" in2="SourceGraphic" operator="out" result="composite1"/><feGaussianBlur in="composite1" stdDeviation="12.72" result="blur"/><feOffset result="offset"/><feComposite in="offset" in2="SourceGraphic" operator="atop" result="composite2"/></filter></defs><path d="M0 0h512v512H0Z" fill="#b90202" style="fill:#1b1f21;fill-opacity:1"/><path data-name="&lt;Transparent Rectangle&gt;" style="stroke-width:14.5096;fill:none" d="M23.847 23.847h464.306v464.306H23.847z"/><g style="fill:#e64539;fill-opacity:1;filter:url(#a)"><path style="fill:#e64539;stroke-width:1.68106;fill-opacity:1" d="M255.994 24.977c-91.843 0-166.562 74.718-166.562 166.566v182.49c0 70.751 31.797 112.99 85.054 112.99 77.148 0 102.745-54.158 118.04-86.517l.378-.803c17.11-36.19 39.33-51.717 60.82-66.73 34.894-24.38 67.853-47.41 68.833-141.303.497-47.841-14.99-89.042-44.782-119.149-30.343-30.659-73.592-47.544-121.78-47.544zm9.442 78.843h10.037v172.237h-10.037V103.82zm19.753 17.174h10.067v135.617h-10.067V120.994zm-39.199 9.416h10.037v119.057H245.99V130.41zm-78.138.17h10.035v115.455h-10.035v.02l-.002-.02h.002V130.58zm157.263 8.506h10.035v102.383h-10.035V139.086zm-176.71 11.402h10.036v77.908h-10.037v-77.908zM343.6 152.93h10.037v74.017H343.6V152.93zm-156.618 8.492h10.038v57.014h-10.038v-57.014zm118.342 1.988h10.037v53.057h-10.037V163.41zm-79.451 2.063h10.037v50.183h-10.037v-50.183zm-97.283 6.275h10.037v36.38H128.59v-36.38zm234.457 0h10.035v36.38h-10.035v-36.38zm-156.62 4.39h10.038v27.555h-10.037V176.14zm176.397 2.327h10.037v22.945h-10.037v-22.945z"/></g></svg>