<svg xml:space="preserve" width="512" height="512" xmlns="http://www.w3.org/2000/svg"><defs><filter style="color-interpolation-filters:sRGB" id="a" x="-.126" y="-.145" width="1.251" height="1.29"><feFlood flood-opacity="1" flood-color="#3A3F5E" result="flood"/><feComposite in="flood" in2="SourceGraphic" operator="out" result="composite1"/><feGaussianBlur in="composite1" stdDeviation="3.143" result="blur"/><feOffset result="offset"/><feComposite in="offset" in2="SourceGraphic" operator="atop" result="composite2"/></filter></defs><path d="M0 0h512v512H0Z" fill="#b90202" style="fill:#1b1f21;fill-opacity:1"/><g transform="translate(22.73 22.73) scale(7.7757)" style="fill:#e64539;fill-opacity:1"><circle cx="14" cy="24" r="1" style="fill:#e64539;fill-opacity:1"/><circle cx="14" cy="27" r="1" style="fill:#e64539;fill-opacity:1"/><circle cx="14" cy="30" r="1" style="fill:#e64539;fill-opacity:1"/><circle cx="14" cy="33" r="1" style="fill:#e64539;fill-opacity:1"/><circle cx="14" cy="36" r="1" style="fill:#e64539;fill-opacity:1"/><path d="M59 26h-2.325C54.656 13.396 43.347 4 30 4 20.201 4 11.217 7.763 5.752 14.093A2.067 2.067 0 0 0 5.168 14C1.617 14 0 22.294 0 30c0 7.706 1.617 16 5.168 16 .203 0 .396-.038.584-.093C11.217 52.237 20.201 56 30 56c13.347 0 24.656-9.396 26.675-22H60v-3h-6.586L37 47.414V51a1 1 0 1 1-2 0v-3h-3a1 1 0 1 1 0-2h3.586l15-15h-5.172L38 38.414V42a1 1 0 1 1-2 0v-3h-3a1 1 0 1 1 0-2h3.586l6-6H32.414l-2.707 2.707a.997.997 0 0 1-1.414 0 .999.999 0 0 1 0-1.414L30.586 30l-2.293-2.293a.999.999 0 1 1 1.414-1.414L32.414 29h10.172l-5.793-5.793c-.061-.061-.096-.136-.138-.207H33a1 1 0 1 1 0-2h3v-3a1 1 0 1 1 2 0v3.656c.071.042.146.076.207.137L45.414 29h5.172l-15-15H32a1 1 0 1 1 0-2h3V9a1 1 0 1 1 2 0v3.586L53.414 29H60v-3ZM27 43a1 1 0 1 1 2 0 1 1 0 0 1-2 0zm-5-21a1 1 0 1 1-2 0 1 1 0 0 1 2 0zm-1-6a1 1 0 1 1 2 0 1 1 0 0 1-2 0zm1 23a1 1 0 1 1 0-2 1 1 0 0 1 0 2zm2 8a1 1 0 1 1-2 0 1 1 0 0 1 2 0zm-1-16a1 1 0 1 1 0-2 1 1 0 0 1 0 2zM7.208 44.555c.319-.661.522-1.55.647-2.697l.003-.027c.124-1.151.172-2.561.182-4.26v-.008c.007-1.135-.002-2.392-.016-3.795C8.013 32.564 8 31.302 8 30c0-1.302.013-2.564.024-3.769.014-1.403.022-2.66.016-3.795v-.008c-.01-1.699-.058-3.109-.182-4.26l-.003-.027c-.125-1.146-.328-2.035-.647-2.697 3.102-3.617 7.465-6.331 12.494-7.901-2.243 2.38-3.158 5.765-3.515 9.785A2.301 2.301 0 0 0 15 17c-3.42 0-6 5.589-6 13s2.58 13 6 13a2.27 2.27 0 0 0 1.187-.333c.357 4.022 1.271 7.408 3.515 9.789-5.029-1.571-9.392-4.284-12.494-7.901Zm8.774-17.853c.009 1.079.018 2.18.018 3.298 0 1.118-.009 2.219-.018 3.298-.011 1.348-.02 2.662-.012 3.941-.081 1.796-.28 3.2-.747 3.67A.27.27 0 0 1 15 41c-1.888 0-4-4.704-4-11s2.112-11 4-11c.108 0 .166.023.238.096.453.457.65 1.787.732 3.495-.009 1.332.001 2.703.012 4.111zM29 36a1 1 0 1 1 0 2 1 1 0 0 1 0-2zm-2-13a1 1 0 1 1 0-2 1 1 0 0 1 0 2zm1-11a1 1 0 1 1 0-2 1 1 0 0 1 0 2z" style="fill:#e64539;fill-opacity:1"/></g><g transform="translate(22.73 22.73) scale(7.7757)" style="fill:#e64539;fill-opacity:1;filter:url(#a)"><circle cx="14" cy="24" r="1" style="fill:#e64539;fill-opacity:1"/><circle cx="14" cy="27" r="1" style="fill:#e64539;fill-opacity:1"/><circle cx="14" cy="30" r="1" style="fill:#e64539;fill-opacity:1"/><circle cx="14" cy="33" r="1" style="fill:#e64539;fill-opacity:1"/><circle cx="14" cy="36" r="1" style="fill:#e64539;fill-opacity:1"/><path d="M59 26h-2.325C54.656 13.396 43.347 4 30 4 20.201 4 11.217 7.763 5.752 14.093A2.067 2.067 0 0 0 5.168 14C1.617 14 0 22.294 0 30c0 7.706 1.617 16 5.168 16 .203 0 .396-.038.584-.093C11.217 52.237 20.201 56 30 56c13.347 0 24.656-9.396 26.675-22H60v-3h-6.586L37 47.414V51a1 1 0 1 1-2 0v-3h-3a1 1 0 1 1 0-2h3.586l15-15h-5.172L38 38.414V42a1 1 0 1 1-2 0v-3h-3a1 1 0 1 1 0-2h3.586l6-6H32.414l-2.707 2.707a.997.997 0 0 1-1.414 0 .999.999 0 0 1 0-1.414L30.586 30l-2.293-2.293a.999.999 0 1 1 1.414-1.414L32.414 29h10.172l-5.793-5.793c-.061-.061-.096-.136-.138-.207H33a1 1 0 1 1 0-2h3v-3a1 1 0 1 1 2 0v3.656c.071.042.146.076.207.137L45.414 29h5.172l-15-15H32a1 1 0 1 1 0-2h3V9a1 1 0 1 1 2 0v3.586L53.414 29H60v-3ZM27 43a1 1 0 1 1 2 0 1 1 0 0 1-2 0zm-5-21a1 1 0 1 1-2 0 1 1 0 0 1 2 0zm-1-6a1 1 0 1 1 2 0 1 1 0 0 1-2 0zm1 23a1 1 0 1 1 0-2 1 1 0 0 1 0 2zm2 8a1 1 0 1 1-2 0 1 1 0 0 1 2 0zm-1-16a1 1 0 1 1 0-2 1 1 0 0 1 0 2zM7.208 44.555c.319-.661.522-1.55.647-2.697l.003-.027c.124-1.151.172-2.561.182-4.26v-.008c.007-1.135-.002-2.392-.016-3.795C8.013 32.564 8 31.302 8 30c0-1.302.013-2.564.024-3.769.014-1.403.022-2.66.016-3.795v-.008c-.01-1.699-.058-3.109-.182-4.26l-.003-.027c-.125-1.146-.328-2.035-.647-2.697 3.102-3.617 7.465-6.331 12.494-7.901-2.243 2.38-3.158 5.765-3.515 9.785A2.301 2.301 0 0 0 15 17c-3.42 0-6 5.589-6 13s2.58 13 6 13a2.27 2.27 0 0 0 1.187-.333c.357 4.022 1.271 7.408 3.515 9.789-5.029-1.571-9.392-4.284-12.494-7.901Zm8.774-17.853c.009 1.079.018 2.18.018 3.298 0 1.118-.009 2.219-.018 3.298-.011 1.348-.02 2.662-.012 3.941-.081 1.796-.28 3.2-.747 3.67A.27.27 0 0 1 15 41c-1.888 0-4-4.704-4-11s2.112-11 4-11c.108 0 .166.023.238.096.453.457.65 1.787.732 3.495-.009 1.332.001 2.703.012 4.111zM29 36a1 1 0 1 1 0 2 1 1 0 0 1 0-2zm-2-13a1 1 0 1 1 0-2 1 1 0 0 1 0 2zm1-11a1 1 0 1 1 0-2 1 1 0 0 1 0 2z" style="fill:#e64539;fill-opacity:1"/></g></svg>