<svg width="512" height="512" xml:space="preserve" xmlns="http://www.w3.org/2000/svg"><defs><filter style="color-interpolation-filters:sRGB" id="a" x="-.187" y="-.189" width="1.364" height="1.368"><feFlood flood-opacity="1" flood-color="#3A3F5E" result="flood"/><feComposite in="flood" in2="SourceGraphic" operator="out" result="composite1"/><feGaussianBlur in="composite1" stdDeviation="15" result="blur"/><feOffset result="offset"/><feComposite in="offset" in2="SourceGraphic" operator="atop" result="composite2"/></filter></defs><path d="M0 0h512v512H0Z" fill="#b90202" style="fill:#1b1f21;fill-opacity:1"/><g style="fill:#e64539;fill-opacity:1;filter:url(#a)" transform="translate(-17.36 -61.694) scale(1.15518)"><path style="fill:#e64539;stroke-width:1.15518;fill-opacity:1" d="M204.219 19.078c5.15 27.232 33.526 45.413 46.699 51.492 20.86 9.628 80.454 24.335 102.064-13.408 5.765 14.77 1.875 137.619-32.189 168.854-17.26-16.457-42.176-26.79-69.875-26.79-22.744 0-43.602 6.967-59.895 18.567-21.508-34.521-62.2-57.83-108.9-57.83-22.39 0-43.392 5.382-61.58 14.766v12.068a1.677 1.677 0 0 0-.066-.014v296.49s86.415 4.47 93.328-95.353a.058.058 0 0 1-.004-.018c21.022 30.528 88 53.765 129.273 52.395 64.83-2.15 150.974-4.992 223.95-74.95 6.743-6.71 12.153-14.636 15.827-23.404v-.004c26.885-55.924-30.569-239.755-64.119-322.86Zm26.138 212.174h37.055a9.06 9.06 0 0 1 9.06 9.06v2.737c14.717 9.22 24.524 25.58 24.524 44.191 0 11.887-4.002 22.855-10.728 31.633v17.502h6.117v-.576c0-14.14 11.462-25.602 25.6-25.602h54.91c14.139 0 25.6 11.463 25.6 25.602v33.925c0 14.14-11.461 25.602-25.6 25.602h-54.91c-14.138 0-25.6-11.463-25.6-25.602v-.574h-6.117v15.938c0 13.296-10.78 24.076-24.077 24.076h-34.613c-13.297 0-24.076-10.78-24.076-24.076v-66.215c-6.726-8.778-10.73-19.745-10.73-31.633 0-18.61 9.808-34.97 24.525-44.191v-2.737a9.06 9.06 0 0 1 9.06-9.06zm18.528 25.945c-16.565 0-30.043 13.478-30.043 30.043 0 16.565 13.478 30.041 30.043 30.041 16.565 0 30.041-13.476 30.04-30.041 0-16.565-13.475-30.043-30.04-30.043zm-10.29 12.217c.118 3.012 4.676 5.433 10.29 5.433 5.615 0 10.172-2.421 10.289-5.433 5.42 3.42 9.023 9.457 9.023 16.34 0 10.666-8.645 19.312-19.312 19.312-10.667 0-19.313-8.646-19.313-19.312 0-6.883 3.604-12.92 9.024-16.34zm134.776 57.15c-6.095 0-11.035 4.94-11.035 11.035v30.122c0 6.094 4.94 11.035 11.035 11.035s11.035-4.94 11.035-11.035v-30.122c0-6.094-4.94-11.035-11.035-11.035zm-144.732 44.1a7.541 7.541 0 0 0 0 15.082h8.46a7.54 7.54 0 1 0 0-15.082z" transform="translate(15.028 53.407) scale(.86567)"/></g></svg>