<svg width="512" height="512" xmlns="http://www.w3.org/2000/svg"><defs><filter style="color-interpolation-filters:sRGB" id="a" x="-.172" y="-.198" width="1.335" height="1.385"><feFlood flood-opacity="1" flood-color="#3A3F5E" result="flood"/><feComposite in="flood" in2="SourceGraphic" operator="out" result="composite1"/><feGaussianBlur in="composite1" stdDeviation="15" result="blur"/><feOffset result="offset"/><feComposite in="offset" in2="SourceGraphic" operator="atop" result="composite2"/></filter></defs><path d="M0 0h512v512H0z" fill="#b90202" style="fill:#1b1f21;fill-opacity:1"/><path style="fill:#e64539;fill-opacity:1;filter:url(#a)" d="M22.398 103.932v196.14c69.429 29.088 234.248 37.381 307.096 23.858-10.96 63.941-1.743 118.14 10.568 164.152 111.531-.128 0 0 110.833-.123 4.234-66.609 10.894-142.696 12.94-183.04 1.022-20.029 5.998-100.672-76.546-128.216-102.19-34.14-232.323-59.554-364.89-72.771zm147.895 58.017h72.281a7.494 7.494 0 0 1 7.494 7.494v33.983l6.744 2.89-13.232 22.918a7.493 7.493 0 0 0 2.742 10.237l19.875 11.474c3.57 2.061 8.16.855 10.237-2.742l15.492-26.836 38.176 16.362c2.927 1.254 9.765 5.803 14.904 12.722 7.954 10.687 4.123 25.739-7.479 31.584.488 5.411-.795 10.91-3.822 15.682-9.852 15.535-32.505 15.548-42.365.015-2.61-4.108-3.936-8.757-3.945-13.423h-6.27c-.01 4.667-1.338 9.317-3.947 13.427-9.847 15.511-32.472 15.525-42.342.01a25.077 25.077 0 0 1-3.947-13.437h-6.278a25.106 25.106 0 0 1-3.95 13.443c-9.863 15.505-32.489 15.5-42.343-.022-2.607-4.108-3.934-8.755-3.943-13.421h-4.082a7.493 7.493 0 0 1-7.494-7.493v-23.212a7.492 7.492 0 0 1 7.494-7.493h2.467v-45.963h-2.467a7.494 7.494 0 0 1-7.494-7.494v-23.21a7.494 7.494 0 0 1 7.494-7.495zm43.676 24.875a2.498 2.498 0 0 0-2.498 2.498v10.719a2.498 2.498 0 0 0 2.498 2.498h26.107a2.498 2.498 0 0 0 2.498-2.498v-10.719a2.498 2.498 0 0 0-2.498-2.498H213.97zm56.763 25.46 7.37 3.157-10.9 18.778-6.895-3.98 10.425-17.956zm-81.377 72.027c.022 5.006 4.049 10.082 10.14 10.082 6.1 0 10.119-5.072 10.138-10.082h-20.278zm56.512 0c.017 5.065 4.098 10.082 10.14 10.082 5.986 0 10.086-4.92 10.12-10.082h-20.26zm56.526 0c.032 5.17 4.143 10.082 10.125 10.082 6.112 0 10.12-5.094 10.14-10.082h-20.265z"/></svg>