<svg height="512" width="512" style="enable-background:new 0 0 512 512" xml:space="preserve" xmlns="http://www.w3.org/2000/svg"><defs><filter style="color-interpolation-filters:sRGB" id="a" x="-.181" y="-.181" width="1.352" height="1.352"><feFlood flood-opacity="1" flood-color="#3A3F5E" result="flood"/><feComposite in="flood" in2="SourceGraphic" operator="out" result="composite1"/><feGaussianBlur in="composite1" stdDeviation="15" result="blur"/><feOffset result="offset"/><feComposite in="offset" in2="SourceGraphic" operator="atop" result="composite2"/></filter></defs><path d="M0 0h512v512H0Z" fill="#b90202" style="fill:#1b1f21;fill-opacity:1"/><g style="fill:#e64539;fill-opacity:1;filter:url(#a)"><g style="fill:#e64539;fill-opacity:1"><path style="fill:#e64539;stroke-width:.820792;fill-opacity:1" d="M93.26 45.877c-26.125 0-47.383 21.258-47.383 47.4v40.15c0 9.667 7.827 17.512 17.51 17.512h17.51v35.02h-17.51c-9.683 0-17.51 7.844-17.51 17.51v215.254c0 26.142 21.258 47.4 47.383 47.4h215.27c9.683 0 17.51-7.844 17.51-17.51 0-11.626 5.9-17.51 17.51-17.51 11.61 0 17.51 5.883 17.51 17.51 0 9.666 7.828 17.51 17.511 17.51h40.168c26.125 0 47.383-21.258 47.383-47.4V93.277c0-26.142-21.258-47.4-47.383-47.4h-40.168c-9.683 0-17.511 7.844-17.511 17.51 0 .175-.753 17.51-17.51 17.51-16.25 0-17.51-13.413-17.51-17.51 0-9.666-7.827-17.51-17.51-17.51H93.26zm222.781 90.041h80.055v260.178H316.04V135.918zm-100.068 80.055h80.054v180.123h-80.054V215.973zm-100.069 60.04h80.055v120.083h-80.055V276.014z"/></g></g><path data-name="&lt;Transparent Rectangle&gt;" style="fill:none" d="M0 0h32v32H0z" transform="translate(95.891 95.891) scale(10.0068)"/></svg>