<svg xml:space="preserve" width="512" height="512" xmlns="http://www.w3.org/2000/svg"><defs><filter style="color-interpolation-filters:sRGB" id="a" x="-.099" y="-.107" width="1.198" height="1.213"><feFlood flood-opacity="1" flood-color="#3A3F5E" result="flood"/><feComposite in="flood" in2="SourceGraphic" operator="out" result="composite1"/><feGaussianBlur in="composite1" stdDeviation="12.72" result="blur"/><feOffset result="offset"/><feComposite in="offset" in2="SourceGraphic" operator="atop" result="composite2"/></filter></defs><path d="M0 0h512v512H0Z" fill="#b90202" style="fill:#1b1f21;fill-opacity:1"/><g style="fill:#e64539;fill-opacity:1;filter:url(#a)"><g style="fill:#e64539;fill-opacity:1"><path d="M377.705 243.41h-8.393v-16.787h8.393a8.39 8.39 0 0 0 8.393-8.393 8.39 8.39 0 0 0-8.393-8.393h-8.393v-58.754c0-20.262-14.445-37.225-33.574-41.111l-184.656-.001c-19.129 3.886-33.574 20.849-33.574 41.111v167.869c0 20.262 14.445 37.225 33.574 41.111h184.655c19.129-3.886 33.574-20.849 33.574-41.111v-58.754h8.393a8.39 8.39 0 0 0 8.393-8.393 8.39 8.39 0 0 0-8.392-8.394zm-50.361 67.147a8.39 8.39 0 0 1-8.393 8.393H167.869a8.39 8.39 0 0 1-8.393-8.393V159.475a8.39 8.39 0 0 1 8.393-8.393h151.082a8.39 8.39 0 0 1 8.393 8.393z" style="fill:#e64539;fill-opacity:1" transform="translate(-124.79 -99.404) scale(1.51225)"/><path d="M251.803 176.262a8.39 8.39 0 0 1-8.393 8.393 8.39 8.39 0 0 1-8.393-8.393v-8.393h-58.754v58.754h8.393a8.39 8.39 0 0 1 8.393 8.393 8.39 8.39 0 0 1-8.393 8.393h-8.393v58.754h58.754v-8.393a8.39 8.39 0 0 1 8.393-8.393 8.39 8.39 0 0 1 8.393 8.393v8.393h58.754V243.41h-8.393a8.39 8.39 0 0 1-8.393-8.393 8.39 8.39 0 0 1 8.393-8.393h8.393V167.87h-58.754zm25.181 58.754a8.39 8.39 0 0 1-8.393 8.393h-25.18a8.39 8.39 0 0 1-8.393-8.393v-33.574a8.39 8.39 0 0 1 8.393-8.393 8.39 8.39 0 0 1 8.393 8.393v25.18h16.787a8.393 8.393 0 0 1 8.393 8.394z" style="fill:#e64539;fill-opacity:1" transform="translate(-124.79 -99.404) scale(1.51225)"/></g></g></svg>