<svg width="512" height="512" xml:space="preserve" xmlns="http://www.w3.org/2000/svg"><defs><filter style="color-interpolation-filters:sRGB" id="a" x="-.186" y="-.188" width="1.361" height="1.365"><feFlood flood-opacity="1" flood-color="#3A3F5E" result="flood"/><feComposite in="flood" in2="SourceGraphic" operator="out" result="composite1"/><feGaussianBlur in="composite1" stdDeviation="15" result="blur"/><feOffset result="offset"/><feComposite in="offset" in2="SourceGraphic" operator="atop" result="composite2"/></filter></defs><path d="M0 0h512v512H0Z" fill="#b90202" style="fill:#1b1f21;fill-opacity:1"/><g style="fill:#e64539;fill-opacity:1;filter:url(#a)" transform="translate(-17.36 -61.694) scale(1.15518)"><path style="fill:#e64539;stroke-width:1.15518;fill-opacity:1" d="m201.771 17.078.487 2.399c2.081 11.046 8.015 21.033 15.517 29.27 7.733 8.468 17.027 15.442 27.05 20.978 8.212 4.538 17.194 7.49 26.257 9.796 13.107 3.242 26.724 4.916 40.217 3.717 10.203-.959 20.453-3.754 29.017-9.539a45.808 45.808 0 0 0 11.772-11.443c.72 5.152.914 10.413 1.039 15.545.245 14.328-.462 28.513-1.732 42.795a434.019 434.019 0 0 1-2.33 20.465c-1.97 14.175-4.63 28.405-8.579 42.22-1.578 5.496-3.363 10.9-5.478 16.178-3.247 7.982-7.159 15.857-12.897 22.363a36.53 36.53 0 0 1-1.345 1.438c-14.56-13.301-33.284-21.71-52.711-24.707-22.972-3.584-47.177.08-67.711 11.117a97.16 97.16 0 0 0-8.75 5.293c-12.05-18.582-29.458-33.487-49.309-43.205-22.57-11.126-48.277-15.542-73.293-13.178-17.531 1.626-34.739 6.682-50.334 14.861-.27.42-.04 1.148-.115 1.688v9.215c-.155.432-.022 1.219-.066 1.787v299.092c9.538.399 19.096-.925 28.314-3.338C60.67 478.2 73.839 471.48 84.475 461.77c10.058-9.1 17.668-20.72 22.658-33.293 4.486-11.253 7.025-23.21 8.226-35.243 6.913 8.18 15.62 14.635 24.721 20.182 13.943 8.386 29.06 14.695 44.565 19.557 14.573 4.504 29.584 7.77 44.808 8.974 5.916.492 11.859.481 17.785.211 23.928-.778 47.895-1.924 71.606-5.396 24.461-3.537 48.648-9.538 71.527-18.971a246.907 246.907 0 0 0 63.967-38.447c5.196-4.342 10.29-8.82 15.094-13.596a75.208 75.208 0 0 0 15.422-23.373c3.783-8.185 5.397-17.18 6.263-26.1 1.282-14.07.611-28.242-.715-42.283-2.043-20.864-5.716-41.536-10.074-62.031-6.771-31.6-15.28-62.804-24.74-93.697-9.133-29.67-19.142-59.08-30.309-88.05a1022.8 1022.8 0 0 0-5.193-13.136H201.77zM175.887 222.67a58.072 58.072 0 0 1 6.142.338c6.807.73 13.49 2.377 19.994 4.48 10.253 3.341 20.096 7.888 29.426 13.282 13.71 7.95 26.337 17.804 37.225 29.33 3.503 3.724 6.865 7.592 9.933 11.685 3.21 4.34 6.116 8.983 7.914 14.098 1.35 3.863 1.978 8.08 1.131 12.125-.735 3.67-2.704 7.01-5.295 9.68-3.253 3.37-7.303 5.84-11.466 7.923-6.736 3.329-13.888 5.687-20.954 8.198-4.554 1.633-9.14 3.246-13.445 5.478-2.182 1.163-4.354 2.481-5.984 4.373-1.055 1.217-1.734 2.818-1.59 4.447.183 2.214 1.335 4.2 2.594 5.977 1.864 2.497 3.939 4.831 6.086 7.088.16.167.418.437.52.54 3.834 3.943 7.963 7.591 12.26 11.018 8.686 6.905 18.029 12.961 27.763 18.276l1.088.588a190.778 190.778 0 0 0 10.707 5.326l.85.387c4.14 1.864 8.35 3.58 12.648 5.052.224.078.557.19.714.246 1.73.577 3.47 1.119 5.227 1.602.281.078.41.117.691.19.224.058.589.156.725.19 2.835.726 5.71 1.317 8.625 1.61 2.618.24 5.315.316 7.871-.396 1.538-.43 3.09-1.303 3.781-2.81.77-1.675.595-3.596.233-5.35-.722-3.243-2.188-6.265-3.783-9.159-.111-.2-.28-.49-.356-.63-1.893-3.29-4.038-6.427-6.285-9.483-.77-1.728-1.502-3.478-2.258-5.215l5.049 2.412a228.715 228.715 0 0 1 9.693 7.955c4.517 3.94 8.902 8.06 12.782 12.637 2.387 2.86 4.636 5.9 6.117 9.34.996 2.345 1.597 4.998.955 7.52-.53 2.179-2.071 4.01-3.973 5.15-2.613 1.586-5.681 2.194-8.685 2.504-4.962.458-9.959.07-14.885-.582-8.43-1.159-16.713-3.202-24.854-5.65-12.368-3.757-24.425-8.524-36.07-14.131-10.723-5.188-21.119-11.102-30.828-18.016-5.078-3.652-10.03-7.488-14.71-11.643-4.012-3.59-7.869-7.41-11.032-11.785-2.12-2.969-3.957-6.254-4.639-9.875-.548-2.826-.193-5.845 1.152-8.404 1.58-3.069 4.271-5.395 7.149-7.215 4.14-2.588 8.73-4.343 13.346-5.875 8.478-2.76 17.194-4.685 25.822-6.904l1.324-.338a314.57 314.57 0 0 0 4.164-1.115c.485-.13 1.035-.289 1.477-.41 2.32-.665 4.628-1.37 6.906-2.17 3.508-1.25 7.008-2.662 10.092-4.784 1.78-1.257 3.492-2.84 4.21-4.957.537-1.527.328-3.184-.087-4.713-.965-3.6-2.96-6.825-5.176-9.785-3.695-4.843-8.152-9.05-12.82-12.941-.185-.153-.448-.372-.584-.483-7.314-5.973-15.221-11.188-23.399-15.896-.388-.22-.841-.481-1.19-.678a227.258 227.258 0 0 0-6.404-3.474c-.42-.218-.905-.47-1.287-.664a207.618 207.618 0 0 0-6.39-3.133c-.431-.202-.93-.429-1.32-.612a177.66 177.66 0 0 0-10.446-4.412c-.266-.1-.62-.237-.832-.316-5.753-2.15-11.634-4.033-17.69-5.117-1.88-.33-4.071-.61-6.095-.664-2.216-.041-4.516.065-6.574.966-1.202.515-2.246 1.509-2.569 2.805-.458 1.753-.083 3.594.416 5.295.925 2.781 1.909 5.543 2.856 8.316l-4.684-4.199c-4.073-3.604-8.037-7.386-11.324-11.738-2-2.685-3.809-5.608-4.66-8.877-.633-2.407-.581-5.09.623-7.316 1.22-2.33 3.49-3.918 5.894-4.854 3.317-1.29 6.915-1.631 10.448-1.658z" transform="translate(15.028 53.407) scale(.86567)"/></g></svg>