<svg xml:space="preserve" width="512" height="512" xmlns="http://www.w3.org/2000/svg"><defs><filter style="color-interpolation-filters:sRGB" id="a" x="-.169" y="-.197" width="1.329" height="1.383"><feFlood flood-opacity="1" flood-color="#3A3F5E" result="flood"/><feComposite in="flood" in2="SourceGraphic" operator="out" result="composite1"/><feGaussianBlur in="composite1" stdDeviation="15" result="blur"/><feOffset result="offset"/><feComposite in="offset" in2="SourceGraphic" operator="atop" result="composite2"/></filter></defs><path d="M0 0h512v512H0Z" fill="#b90202" style="fill:#1b1f21;fill-opacity:1"/><path d="M429.86 341.007h-45.353l-132.736-95.865c-18.658-13.474-30.94-34.307-33.675-56.963L206.369 71.292a9.573 9.573 0 0 0-9.525-8.617H57.464a9.573 9.573 0 0 0-9.441 11.154c9.02 53.876 25.722 162.372 24.382 187.379-.539 10.053-8.374 22.646-16.671 35.977-14.908 23.956-33.46 53.768-20.654 88.05 13.081 35.025 42.068 53.536 83.827 53.536 15.472 0 32.39-2.606 50.284-7.744 13.026-3.74 26.363-5.56 40.777-5.56 26.962 0 52.701 6.414 77.593 12.615 18.806 4.686 36.568 9.111 53.797 10.514 5.944.483 12.564.73 19.677.73 26.11 0 55.646-3.318 75.828-6.098 25.28-3.485 44.344-25.354 44.344-50.873 0-28.314-23.032-51.348-51.346-51.348zm-240.102-27.908c-2.322 11.993-15.077 34.676-46.742 34.676-32.748 0-42.163-23.67-42.568-36.186-.17-5.284 3.975-9.706 9.26-9.876 5.286-.185 9.706 3.977 9.876 9.259.165 2.855 2.09 17.657 23.432 17.657 23.959 0 27.792-18.385 27.943-19.167 1.005-5.189 6.026-8.587 11.22-7.58 5.19 1.003 8.582 6.027 7.579 11.217z" style="fill:#e64539;stroke-width:2.39321;fill-opacity:1;filter:url(#a)"/></svg>