<svg height="512" width="512" style="enable-background:new 0 0 512 512" xml:space="preserve" xmlns="http://www.w3.org/2000/svg"><defs><filter style="color-interpolation-filters:sRGB" id="a" x="-.217" y="-.148" width="1.423" height="1.289"><feFlood flood-opacity="1" flood-color="#3A3F5E" result="flood"/><feComposite in="flood" in2="SourceGraphic" operator="out" result="composite1"/><feGaussianBlur in="composite1" stdDeviation="15" result="blur"/><feOffset result="offset"/><feComposite in="offset" in2="SourceGraphic" operator="atop" result="composite2"/></filter></defs><path d="M-207.845-156.971h512v512h-512z" fill="#b90202" style="fill:#1b1f21;fill-opacity:1" transform="translate(207.845 156.971)"/><g style="fill:#e64539;fill-opacity:1;filter:url(#a)"><path d="m430.924 341.154-.017-191.821c0-21.171-17.237-38.4-38.417-38.4a38.122 38.122 0 0 0-21.316 6.502V55.467c0-21.171-17.237-38.4-38.417-38.4-8.9 0-17.109 3.055-23.637 8.183C303.734 10.53 289.586 0 273.023 0 251.86 0 234.64 17.229 234.64 38.4v2.236a38.102 38.102 0 0 0-21.35-6.502c-21.163 0-38.383 17.229-38.383 38.4v150.835c-7.706-15.846-17.468-31.027-28.117-41.668-13.833-13.815-41.088-14.805-56.09-2.022-4.881 4.156-19.268 19.84.478 47.181 18.304 25.37 32.512 82.364 32.512 114.475 0 68.181 44.365 98.978 59.75 107.597v54.536a8.53 8.53 0 0 0 8.533 8.533h204.8a8.527 8.527 0 0 0 8.533-8.516l.094-57.037c25.669-34.365 25.66-38.418 25.524-105.294zm-153.617 76.979h25.6a8.53 8.53 0 0 1 8.533 8.533 8.53 8.53 0 0 1-8.533 8.533h-25.6a8.53 8.53 0 0 1-8.533-8.533 8.53 8.53 0 0 1 8.533-8.533zm34.133 51.2h-42.667a8.53 8.53 0 0 1-8.533-8.533 8.53 8.53 0 0 1 8.533-8.533h42.667a8.53 8.53 0 0 1 8.533 8.533 8.53 8.53 0 0 1-8.533 8.533z" style="fill:#e64539;fill-opacity:1" transform="translate(-.407 21.728) scale(.91512)"/></g></svg>