<svg width="512" height="512" xml:space="preserve" xmlns="http://www.w3.org/2000/svg"><defs><filter style="color-interpolation-filters:sRGB" id="a" x="-.187" y="-.189" width="1.364" height="1.368"><feFlood flood-opacity="1" flood-color="#3A3F5E" result="flood"/><feComposite in="flood" in2="SourceGraphic" operator="out" result="composite1"/><feGaussianBlur in="composite1" stdDeviation="15" result="blur"/><feOffset result="offset"/><feComposite in="offset" in2="SourceGraphic" operator="atop" result="composite2"/></filter></defs><path d="M0 0h512v512H0Z" fill="#b90202" style="fill:#1b1f21;fill-opacity:1"/><g style="fill:#e64539;fill-opacity:1;filter:url(#a)" transform="translate(-17.36 -61.694) scale(1.15518)"><path style="fill:#e64539;stroke-width:1.15518;fill-opacity:1" d="M204.219 19.078c5.15 27.232 33.526 45.413 46.699 51.492 20.86 9.628 80.454 24.335 102.064-13.408 5.765 14.77 1.875 137.619-32.189 168.854-17.26-16.457-42.176-26.79-69.875-26.79-22.744 0-43.602 6.967-59.895 18.567-21.508-34.521-62.2-57.83-108.9-57.83-22.39 0-43.392 5.382-61.58 14.766v12.068a1.636 1.636 0 0 0-.066-.014v296.49s86.415 4.47 93.328-95.353a.057.057 0 0 1-.004-.018c21.022 30.528 88 53.765 129.273 52.395 64.83-2.15 150.974-4.992 223.95-74.95 6.743-6.71 12.153-14.636 15.828-23.404v-.004c26.884-55.924-30.57-239.755-64.12-322.86H204.22zm56.63 197.824a11.427 11.427 0 0 1 9.395 8.832l13.78 55.133c2.012 8.103 3.858 11.023 7.062 10.225 3.27-.799 3.118-3.49 2.67-5.71l-9.535-47.325a10.388 10.388 0 0 1 20.338-4.1l10.365 51.514.012.011v10.172l-14.041 14.395-11.48 11.48-8.515-8.513-1.644 1.646-35.23 35.23 28.257 28.258-13.138 13.137.001 32.111c-2.922.03-5.186-.833-6.812-2.27-.591-.52-2.558-1.889-5.098-3.55v-41.281l-32.138-32.139c-1.452-6.686-3.77-14.54-7.358-23.674h13.81l11.018 11.018a7.403 7.403 0 0 0 6.398 11.123 7.4 7.4 0 0 0 7.401-7.402 7.401 7.401 0 0 0-10.306-6.809l-12.582-12.582h-17.561l-3.697-9.16 25.379.002c1.563 1.897 3.273 2.618 5.095 1.914 1.082-.412 1.72-1.025 2.063-1.914h.605l11.016 11.015a7.401 7.401 0 0 0 6.398 11.123 7.401 7.401 0 1 0 0-14.802c-1.031 0-2.014.21-2.906.592L237.29 302.02h-2.795c-.106-.413-.139-.718-.28-1.186l-2.706-7.973h17.666l11.017 11.016a7.404 7.404 0 0 0 6.398 11.125 7.403 7.403 0 1 0-2.905-14.211l-3.184-3.184c.4-.025.816-.107 1.26-.295 1.891-.798 1.76-3.694 1.258-6.22l-14.938-59.824a11.427 11.427 0 0 1 12.77-14.366zm-35.978 3.139a11.394 11.394 0 0 1 8.588 7.53l21.28 62.679c.345 1.014.704 1.834 1.064 2.66l-4.701-4.701H229.93l-18.088-53.29a11.405 11.405 0 0 1 7.129-14.478 11.394 11.394 0 0 1 5.9-.4zm-32.746 21.871a11.427 11.427 0 0 1 11.309 6.74l15.968 39.557H194.77l-12.518-31.016a11.427 11.427 0 0 1 9.873-15.28zm4.521 50.95h24.635l3.698 9.158h-24.635l-3.698-9.159zm118.29 9.767v13.566l-15.428 15.43-6.805-6.805 12.844-12.843 9.389-9.348zm4.652 6.002 1.558 7.752c1.356 5.828 2.91 11.32 4.922 16.699 11.154 29.7 6.384 57.076 4.088 65.54l-14.693-15.009a7.401 7.401 0 0 0-6.348-11.209v-.002a7.403 7.403 0 1 0 2.807 14.252l16.16 16.446c-.75.835-1.713 1.527-2.912 1.877-.368.107-8.642 2.494-12.91 3.73l-10.78-11.014a7.403 7.403 0 0 0-6.176-11.479h-.001a7.403 7.403 0 1 0 2.492 14.374l9.342 9.6c-17.609 5.099-41.536 12.032-43.34 12.521v-29.494l11.775-11.776 5.328 5.329 36.875-36.875-14.978-14.979 16.79-16.791v-9.492zM280.9 319.596l30.297 30.297-30.297 30.295-30.295-30.295 30.295-30.297zm-.312 6.818-23.543 23.545 23.652 23.652 3.291-3.289-20.363-20.363 20.254-20.256-3.291-3.289zm8.394 7.457-3.289 3.29 12.817 12.816-12.889 12.888 3.291 3.29 16.178-16.178-16.106-16.106h-.002zm-7.45 8.256a7.864 7.864 0 0 0-7.864 7.865 7.863 7.863 0 0 0 7.863 7.863 7.864 7.864 0 1 0 0-15.728zm-64.417 16.799 25.469 25.467v30.253c-3.151-1.882-7.153-4.04-11.59-6.292v-25.89l-14.687-14.687c.602-1.91.92-4.905.808-8.851zm-48.455 7.058c.771 0 1.85.115 2.815.188l39.035 31.172v1.98c-15.54-5.893-34.298-10.957-54.895-12.006-5.555-.272-2.832-21.334 13.045-21.334zm21.408 2.766c6.038.965 11.933 1.841 16.637 2.176l19.637 19.635v15.53c-3.452-1.645-7.18-3.248-11.18-4.878V389.25l-25.094-20.5z" transform="translate(15.028 53.407) scale(.86567)"/></g></svg>