<svg width="512" height="512" xml:space="preserve" xmlns="http://www.w3.org/2000/svg"><defs><filter style="color-interpolation-filters:sRGB" id="a" x="-.327" y="-.319" width="1.636" height="1.621"><feFlood flood-opacity="1" flood-color="#3A3F5E" result="flood"/><feComposite in="flood" in2="SourceGraphic" operator="out" result="composite1"/><feGaussianBlur in="composite1" stdDeviation="15" result="blur"/><feOffset result="offset"/><feComposite in="offset" in2="SourceGraphic" operator="atop" result="composite2"/></filter></defs><path d="M0 0h512v512H0Z" fill="#b90202" style="fill:#1b1f21;fill-opacity:1"/><g style="fill:#e64539;fill-opacity:1;filter:url(#a)"><path d="M180.498 8.834C176.631 3.956 168.428 0 162.193 0H76.175c-6.229 0-14.429 3.956-18.3 8.834L9.864 69.25c-3.876 4.877-7.021 13.88-7.021 20.112v137.725c0 6.229 5.054 11.283 11.283 11.283h210.118c6.229 0 11.283-5.054 11.283-11.283V89.366c0-6.231-3.144-15.234-7.011-20.111zm-30.773 203.448h-37.117a2.651 2.651 0 0 1 0-5.302h37.117a2.653 2.653 0 0 1 2.651 2.651 2.649 2.649 0 0 1-2.651 2.651zm33.482-154.178a2.634 2.634 0 0 1 3.702.541l22.209 29.735a2.656 2.656 0 0 1-.539 3.708 2.67 2.67 0 0 1-1.59.528 2.621 2.621 0 0 1-2.117-1.064l-22.209-29.735a2.648 2.648 0 0 1 .544-3.713zm32.933 151.527a2.656 2.656 0 0 1-2.651 2.651h-26.646a2.656 2.656 0 0 1-2.651-2.651 2.652 2.652 0 0 1 2.651-2.651h23.995v-7.818a2.65 2.65 0 0 1 2.651-2.651 2.653 2.653 0 0 1 2.651 2.651zm0-47.587a2.652 2.652 0 0 1-2.651 2.651 2.65 2.65 0 0 1-2.651-2.651v-37.116a2.652 2.652 0 0 1 2.651-2.651c1.46 0 2.651 1.19 2.651 2.651z" style="fill:#e64539;fill-opacity:1" transform="rotate(180 236.209 236.209) scale(1.81582)"/></g></svg>