<svg width="512" height="512" xmlns="http://www.w3.org/2000/svg"><defs><filter style="color-interpolation-filters:sRGB" id="a" x="-.067" y="-.06" width="1.134" height="1.119"><feFlood flood-opacity="1" flood-color="#3A3F5E" result="flood"/><feComposite in="flood" in2="SourceGraphic" operator="out" result="composite1"/><feGaussianBlur in="composite1" stdDeviation="1.041" result="blur"/><feOffset result="offset"/><feComposite in="offset" in2="SourceGraphic" operator="atop" result="composite2"/></filter></defs><path d="M0 0h512v512H0z" fill="#b90202" style="fill:#1b1f21;fill-opacity:1"/><g style="fill:#e64539;fill-opacity:1;stroke:#e64539;stroke-width:1.18143;stroke-miterlimit:4;stroke-dasharray:none;stroke-opacity:1;filter:url(#a)"><path d="m45.297 21.946 9.656-5.517L27.477.825 0 16.429l9.656 5.517L0 27.429l9.656 5.517L0 38.429l27.477 15.698 27.476-15.698-9.656-5.483 9.656-5.517ZM27.477 3.125l23.435 13.309-23.435 13.39-23.436-13.39ZM11.675 23.099l15.802 9.028 15.802-9.028 7.633 4.335-23.435 13.39-23.436-13.39zm39.237 15.335-23.435 13.39-23.436-13.39 7.634-4.335 15.802 9.028 15.802-9.028z" style="fill:#e64539;fill-opacity:1;stroke:#e64539;stroke-width:1.18143;stroke-miterlimit:4;stroke-dasharray:none;stroke-opacity:1" transform="translate(23.535 23.651) scale(8.46434)"/></g></svg>