<svg height="512" width="512" style="enable-background:new 0 0 512 512" xml:space="preserve" xmlns="http://www.w3.org/2000/svg"><defs><filter style="color-interpolation-filters:sRGB" id="a" x="-.181" y="-.181" width="1.352" height="1.352"><feFlood flood-opacity="1" flood-color="#3A3F5E" result="flood"/><feComposite in="flood" in2="SourceGraphic" operator="out" result="composite1"/><feGaussianBlur in="composite1" stdDeviation="15" result="blur"/><feOffset result="offset"/><feComposite in="offset" in2="SourceGraphic" operator="atop" result="composite2"/></filter></defs><path d="M0 0h512v512H0Z" fill="#b90202" style="fill:#1b1f21;fill-opacity:1"/><g style="fill:#e64539;fill-opacity:1;filter:url(#a)"><g style="fill:#e64539;fill-opacity:1"><path style="fill:#e64539;stroke-width:.820792;fill-opacity:1" d="M93.26 45.877c-26.125 0-47.383 21.258-47.383 47.4v40.15c0 9.667 7.827 17.512 17.51 17.512h17.51v35.02h-17.51c-9.683 0-17.51 7.844-17.51 17.51v215.254c0 26.142 21.258 47.4 47.383 47.4h215.27c9.683 0 17.51-7.844 17.51-17.51 0-11.626 5.9-17.51 17.51-17.51 11.61 0 17.51 5.883 17.51 17.51 0 9.666 7.828 17.51 17.511 17.51h40.168c26.125 0 47.383-21.258 47.383-47.4V93.277c0-26.142-21.258-47.4-47.383-47.4h-40.168c-9.683 0-17.511 7.844-17.511 17.51 0 .175-.753 17.51-17.51 17.51-16.25 0-17.51-13.413-17.51-17.51 0-9.666-7.827-17.51-17.51-17.51H93.26zm125.168 71.271c34.5 0 62.567 28.072 62.566 62.577 0 14.701-5.21 28.597-14.133 39.546a27.407 27.407 0 0 1 6.744 4.493c4.865-4.424 11.328-7.125 18.409-7.125 7.075 0 13.533 2.7 18.394 7.125 4.863-4.424 11.317-7.125 18.393-7.125 15.083 0 27.355 12.271 27.355 27.355v68.319c0 45.511-37.034 82.539-82.552 82.539-45.516 0-82.545-37.028-82.545-82.54v-76.324c-21.295-10.378-35.215-32.239-35.215-56.263 0-34.505 28.075-62.577 62.584-62.577zm0 17.924c-24.626 0-44.658 20.031-44.658 44.653 0 13.983 6.605 26.943 17.287 35.265v-35.265c0-15.09 12.28-27.368 27.37-27.368 15.085 0 27.356 12.278 27.356 27.368v35.27c10.68-8.325 17.287-21.287 17.287-35.27 0-24.622-20.026-44.653-44.642-44.653zm0 35.21c-5.208 0-9.446 4.236-9.446 9.443v49.914c.016.297.016.596 0 .896v81.778c0 35.628 28.99 64.615 64.622 64.615 35.635 0 64.626-28.987 64.626-64.615h.004v-68.319c0-5.2-4.23-9.431-9.43-9.431-5.2 0-9.43 4.23-9.43 9.431l-.001 19.658a8.964 8.964 0 0 1-17.926 0v-19.658c0-5.2-4.23-9.431-9.431-9.431-5.21 0-9.45 4.23-9.45 9.431v19.658a8.962 8.962 0 1 1-17.923 0v-19.658c0-5.2-4.229-9.431-9.428-9.431-5.2 0-9.43 4.23-9.43 9.431v19.658a8.964 8.964 0 0 1-17.926 0v-83.928c0-5.206-4.23-9.443-9.431-9.443z"/></g></g></svg>