<svg width="512" height="512" xmlns="http://www.w3.org/2000/svg"><defs><filter style="color-interpolation-filters:sRGB" id="a" x="-.088" y="-.101" width="1.176" height="1.203"><feFlood flood-opacity="1" flood-color="#3A3F5E" result="flood"/><feComposite in="flood" in2="SourceGraphic" operator="out" result="composite1"/><feGaussianBlur in="composite1" stdDeviation="12.72" result="blur"/><feOffset result="offset"/><feComposite in="offset" in2="SourceGraphic" operator="atop" result="composite2"/></filter></defs><path d="M0 0h512v512H0z" fill="#b90202" style="fill:#1b1f21;fill-opacity:1"/><g style="filter:url(#a)"><path style="fill:#e64539;fill-opacity:1" d="M22.398 103.932v196.14c69.429 29.088 234.248 37.381 307.096 23.858-10.96 63.941-1.743 118.14 10.568 164.152 111.531-.128 0 0 110.833-.123 4.234-66.609 10.894-142.696 12.94-183.04 1.022-20.029 5.998-100.672-76.546-128.216-102.19-34.14-232.323-59.554-364.89-72.771zm153.637 53.507h34.031c3.36 11.807 9.252 24.352 15.944 33.948 8.653 11.665 19.857 15.801 31.678 5.242a92.938 92.938 0 0 0 7.171-14.71c.236-.817.528-1.618.88-2.398.002-.007.007-.013.01-.021 2.556-5.66 8.027-10.092 14.495-9.953 1.372.029 2.793.27 4.236.74 3.745-1.217 7.798-2.086 11.875-2.06 2.915.017 5.835.489 8.665 1.617 7.545 3.005 13.563 10.779 15.87 24.65l1.745 10.461-7.186-7.809c-3.319-3.605-8.127-5.091-13.322-5.136-3.15-.027-6.387.524-9.256 1.385-2.429 4.115-6.45 7.267-11.242 7.904-7.581 2.558-15.082 7.509-21.479 13.65-1.868 3.522-1.008 5.544 1.7 6.57 10.456-1.856 20.837-4.307 31.496-9.476v.021a14.005 14.005 0 0 1 5.633-1.416c2.537-.086 5.242.528 7.998 2.051a17.506 17.506 0 0 1 2.439 1.625c.36.002.718 0 1.078.012 7.215.243 14.596 2.388 19.727 7.744 5.863 6.121 7.937 16.188 3.486 29.857l-2.303 7.06-3.488-6.552c-2.548-4.782-5.994-9.01-9.72-11.76-2.562-1.89-5.185-3.078-7.82-3.445-4.305 4.9-11.237 7.285-18.698 3.16a18.364 18.364 0 0 1-2.19-1.416c-7.247-3.757-16.42-6.71-25.695-5.822-6.191 3.319-6.687 8.424.814 13.768 5.525 1.984 11.656 2.967 16.957 2.927.361-.04.72-.071 1.088-.084 2.539-.087 5.244.527 7.998 2.05 4.68 2.586 7.072 6.447 7.713 10.544 5.406 5.24 10.462 11.98 11.772 20.137 1.398 8.712-1.962 18.635-12.658 28.254l-7.766 6.982 2.6-10.12c1.36-5.306.013-11.07-2.78-16.304-1.993-3.735-4.722-7.14-7.437-9.72-2.157-.144-4.43-.79-6.752-2.073-3.931-2.172-6.253-5.183-7.301-8.46-11.318-18.92-34.05-27.971-41.555-25.612-6.959 2.187-11.35 8.624-14.158 15.783-.008.029-.013.059-.021.086-1.845 5.948-6.814 11.026-13.09 11.801-2.75 6.49-1.671 14.89 5.293 21.49l7.576 7.186-10.293-1.785c-14.165-2.45-22.103-8.977-24.775-17.022-2.673-8.044-.251-16.727 3.824-23.773.329-.568.691-1.09 1.088-1.574.253-6.255 4.265-12.44 9.984-15.024l-.02-.021.202-.063a14.236 14.236 0 0 1 2.683-.867c8.324-2.726 15.668-5.505 22.409-8.791 6.016-9.761-22.05-42.984-41.153-51.94V157.44zm120.215 17.149c-3.797 0-7.859.942-11.695 2.355v.01h-.01c-1.428.525-2.147 1.42-2.643 2.928-.495 1.507-.53 3.577-.115 5.441.414 1.865 1.323 3.486 2.018 4.153.695.667.465.671 1.119.326.678-.36 2.194-1.184 4.629-1.953 3.82-1.337 8.157-2.195 12.625-2.157 3.554.03 7.204.668 10.576 2.092-2.431-7.075-6.061-10.468-10.068-12.064-1.972-.786-4.158-1.131-6.436-1.131zm12.71 46.055v.002c-.432 0-.865.003-1.298.02-1.913.072-2.871.715-3.646 1.722-.775 1.006-1.24 2.534-1.237 4.066.004 1.533.502 2.997 1.09 3.752.588.756.9.963 1.953.803 5.819-.888 11.431 1.133 16.123 4.596 2.78 2.048 5.247 4.645 7.44 7.533 1.379-8.16-.492-13.302-3.73-16.684-3.816-3.982-10.205-5.815-16.694-5.81zm-118.419 39.271a5.088 5.088 0 0 0-.994.065c-1.261.212-2.278.746-3.233 2.398-3.47 6-5.15 13.034-3.294 18.617 1.373 4.133 4.612 7.947 11.378 10.545-4.497-8.815-3.456-18.913 1.954-25.982.643-.842.597-1.19.21-2.05-.385-.86-1.446-1.98-2.808-2.704-1.023-.544-2.172-.856-3.213-.887v-.002zm99.592 4.83a6.06 6.06 0 0 0-1.047.125c-1.47.294-3.21 1.308-4.574 2.686-1.365 1.376-2.297 3.094-2.526 4.267-.228 1.173-.176 1.431.56 1.955 4.554 3.24 9.263 8.374 12.563 14.559 1.91 3.579 3.314 7.56 3.825 11.685 4.745-6.122 5.754-11.556 4.957-16.523-1.05-6.54-5.677-12.677-10.926-17.539-.983-.91-1.843-1.234-2.832-1.215z"/></g></svg>