<svg xml:space="preserve" width="512" height="512" xmlns="http://www.w3.org/2000/svg"><defs><filter style="color-interpolation-filters:sRGB" id="a" x="-.067" y="-.087" width="1.133" height="1.174"><feFlood flood-opacity="1" flood-color="#3A3F5E" result="flood"/><feComposite in="flood" in2="SourceGraphic" operator="out" result="composite1"/><feGaussianBlur in="composite1" stdDeviation="12.72" result="blur"/><feOffset result="offset"/><feComposite in="offset" in2="SourceGraphic" operator="atop" result="composite2"/></filter></defs><path d="M0 0h512v512H0Z" fill="#b90202" style="fill:#1b1f21;fill-opacity:1"/><g style="fill:#e64539;fill-opacity:1;filter:url(#a)"><g style="fill:#e64539;fill-opacity:1"><path style="fill:#e64539;stroke-width:.896456;fill-opacity:1" d="M256 80.898c-108.494 0-199.616 72.268-228.842 170.623a15.719 15.719 0 0 0 0 8.958C56.35 358.724 147.393 431.102 256 431.102c108.494 0 199.616-72.268 228.842-170.623a15.719 15.719 0 0 0 0-8.958C455.649 153.275 364.607 80.898 256 80.898zm-113.648 56.69h70.646a4.763 4.763 0 0 1 4.762 4.764v19.998a4.762 4.762 0 0 1-4.762 4.761h-45.887v45.887a4.762 4.762 0 0 1-4.761 4.762h-19.998a4.763 4.763 0 0 1-4.764-4.762v-70.646a4.765 4.765 0 0 1 4.764-4.764zm156.65 0h70.646a4.765 4.765 0 0 1 4.764 4.764v70.646a4.763 4.763 0 0 1-4.764 4.762H349.65a4.761 4.761 0 0 1-4.761-4.762v-45.887h-45.887a4.761 4.761 0 0 1-4.762-4.761v-19.998a4.763 4.763 0 0 1 4.762-4.764zM246 215.914h20a4.761 4.761 0 0 1 4.762 4.762v20.562h20.562a4.761 4.761 0 0 1 4.762 4.762v20a4.761 4.761 0 0 1-4.762 4.762h-20.562v20.562a4.761 4.761 0 0 1-4.762 4.762h-20a4.762 4.762 0 0 1-4.762-4.762v-20.562h-20.562a4.762 4.762 0 0 1-4.762-4.762v-20a4.762 4.762 0 0 1 4.762-4.762h20.562v-20.562a4.762 4.762 0 0 1 4.762-4.762zM142.352 294.24h19.998a4.762 4.762 0 0 1 4.761 4.762v45.887h45.887a4.762 4.762 0 0 1 4.762 4.761v19.998a4.763 4.763 0 0 1-4.762 4.764h-70.646a4.765 4.765 0 0 1-4.764-4.764v-70.646a4.763 4.763 0 0 1 4.764-4.762zm207.298 0h19.998a4.763 4.763 0 0 1 4.764 4.762v70.646a4.765 4.765 0 0 1-4.764 4.764h-70.646a4.763 4.763 0 0 1-4.762-4.764V349.65a4.761 4.761 0 0 1 4.762-4.761h45.887v-45.887a4.761 4.761 0 0 1 4.761-4.762z"/></g></g></svg>