<svg width="512" height="512" xml:space="preserve" xmlns="http://www.w3.org/2000/svg"><defs><filter style="color-interpolation-filters:sRGB" id="a" x="-.126" y="-.079" width="1.252" height="1.159"><feFlood flood-opacity="1" flood-color="#3A3F5E" result="flood"/><feComposite in="flood" in2="SourceGraphic" operator="out" result="composite1"/><feGaussianBlur in="composite1" stdDeviation="12.72" result="blur"/><feOffset result="offset"/><feComposite in="offset" in2="SourceGraphic" operator="atop" result="composite2"/></filter></defs><path d="M-511.13-299.493h512v512h-512Z" fill="#b90202" style="fill:#1b1f21;fill-opacity:1" transform="translate(511.13 299.493)"/><g style="fill:#e64539;fill-opacity:1;filter:url(#a)"><path d="M304.726 335.239s-17.317-33.234-23.518-60.289c-7.729-38.465 56.973-91.403 20.587-133.435-6.002-5.261 12.133-34.284 7.73-41.897-2.943 8.454-12.868 22.046-12.868 22.046s-.456-40.894-8.536-49.896c2.021 16.085.817 32.62.817 32.62s-12.308-35.189-24.627-40.426c12.751 12.436 12.133 31.616 12.133 31.616s-20.587-39.329-49.266-38.599c20.937 11.391 26.086 27.57 26.086 27.57S117.636 66.174 142.263 13.966c-19.116 4.782-19.116 57.346-19.116 57.346S104.394 39.696 135.642 0C70.577 40.8 95.566 113.957 95.566 113.957s-13.966-1.104-21.322-52.57c-14.328 63.231 25.736 96.307 25.736 96.307s-15.811 27.932-6.983 41.168c8.828 13.218-11.771 43.018-11.397 52.571.374 9.551 15.449 8.453 15.449 8.453s-5.897 15.811 6.982 17.645c-2.942 1.098-8.08 11.396 6.621 17.282-4.414 1.098-13.23 52.559 49.99 20.213 23.518 12.121 36.386 69.104 36.386 69.104z" style="fill:#e64539;fill-opacity:1" transform="translate(36.103 36.103) scale(1.14491)"/></g></svg>