<svg xml:space="preserve" width="512" height="512" xmlns="http://www.w3.org/2000/svg"><defs><filter style="color-interpolation-filters:sRGB" id="a" x="-.067" y="-.087" width="1.133" height="1.174"><feFlood flood-opacity="1" flood-color="#3A3F5E" result="flood"/><feComposite in="flood" in2="SourceGraphic" operator="out" result="composite1"/><feGaussianBlur in="composite1" stdDeviation="12.72" result="blur"/><feOffset result="offset"/><feComposite in="offset" in2="SourceGraphic" operator="atop" result="composite2"/></filter></defs><path d="M0 0h512v512H0Z" fill="#b90202" style="fill:#1b1f21;fill-opacity:1"/><g style="fill:#e64539;fill-opacity:1;filter:url(#a)"><g style="fill:#e64539;fill-opacity:1"><path style="fill:#e64539;stroke-width:.896456;fill-opacity:1" d="M256 80.898c-108.494 0-199.616 72.268-228.842 170.623a15.719 15.719 0 0 0 0 8.958C56.35 358.724 147.393 431.102 256 431.102c108.494 0 199.616-72.268 228.842-170.623a15.719 15.719 0 0 0 0-8.958C455.649 153.275 364.607 80.898 256 80.898zm0 44.96c71.76 0 130.143 58.381 130.143 130.142 0 71.76-58.382 130.143-130.143 130.143-23.267 0-45.124-6.144-64.045-16.885a35.862 35.862 0 0 0 5.467-4.485 35.25 35.25 0 0 0 8.814-14.662c14.861 7.89 31.798 12.37 49.764 12.37 58.713 0 106.48-47.768 106.48-106.481 0-58.713-47.766-106.48-106.48-106.48-58.714 0-106.48 47.767-106.48 106.48 0 17.956 4.473 34.885 12.355 49.74-5.473 1.678-10.486 4.677-14.648 8.838a35.495 35.495 0 0 0-4.48 5.475c-10.745-18.922-16.89-40.783-16.89-64.053 0-71.76 58.382-130.143 130.143-130.143zm0 47.324c45.74 0 82.818 37.079 82.818 82.818 0 45.74-37.079 82.818-82.818 82.818-45.74 0-82.818-37.079-82.818-82.818a82.65 82.65 0 0 1 4.886-28.082c5.136 6.423 12.456 11.022 20.823 12.682a58.989 58.989 0 0 0-2.047 15.4c0 32.619 26.537 59.156 59.156 59.156S315.156 288.62 315.156 256 288.62 196.844 256 196.844c-5.32 0-10.475.717-15.385 2.04-1.66-8.367-6.274-15.678-12.7-20.814A82.657 82.657 0 0 1 256 173.182zm-50.195 20.79a11.831 11.831 0 0 1 11.83 11.833 11.831 11.831 0 0 1-11.83 11.83 11.831 11.831 0 0 1-11.832-11.83 11.831 11.831 0 0 1 11.832-11.832zM256 220.507A35.494 35.494 0 0 1 291.494 256 35.494 35.494 0 0 1 256 291.494 35.494 35.494 0 0 1 220.506 256 35.494 35.494 0 0 1 256 220.506zm-83.676 107.338a11.79 11.79 0 0 1 8.365 3.467c4.621 4.62 4.621 12.11 0 16.73a11.796 11.796 0 0 1-8.365 3.467 11.796 11.796 0 0 1-8.365-3.467c-4.62-4.62-4.62-12.11 0-16.73a11.789 11.789 0 0 1 8.365-3.467z"/></g></g></svg>