<svg width="512" height="512" xml:space="preserve" xmlns="http://www.w3.org/2000/svg"><defs><filter style="color-interpolation-filters:sRGB" id="a" x="-.187" y="-.189" width="1.364" height="1.368"><feFlood flood-opacity="1" flood-color="#3A3F5E" result="flood"/><feComposite in="flood" in2="SourceGraphic" operator="out" result="composite1"/><feGaussianBlur in="composite1" stdDeviation="15" result="blur"/><feOffset result="offset"/><feComposite in="offset" in2="SourceGraphic" operator="atop" result="composite2"/></filter></defs><path d="M0 0h512v512H0Z" fill="#b90202" style="fill:#1b1f21;fill-opacity:1"/><g style="fill:#e64539;fill-opacity:1;filter:url(#a)" transform="translate(-17.36 -61.694) scale(1.15518)"><path style="fill:#e64539;stroke-width:1.15518;fill-opacity:1" d="M204.219 19.078c5.15 27.232 33.526 45.413 46.699 51.492 20.86 9.628 80.454 24.335 102.064-13.408 5.765 14.77 1.875 137.619-32.189 168.854-17.26-16.457-42.176-26.79-69.875-26.79-22.744 0-43.602 6.967-59.895 18.567-21.508-34.521-62.2-57.83-108.9-57.83-22.39 0-43.392 5.382-61.58 14.766v12.068a1.654 1.654 0 0 0-.066-.014v296.49s86.415 4.47 93.328-95.353a.057.057 0 0 1-.004-.018c21.022 30.528 88 53.765 129.273 52.395 64.83-2.15 150.974-4.992 223.95-74.95 6.743-6.71 12.153-14.636 15.828-23.404v-.004c26.884-55.924-30.57-239.755-64.12-322.86H204.22zm24.154 209.004c.103.003.208.01.315.02 23.68 2.241 49.08 15.158 62.445 22.775-4.516 1.656-8.999 4.467-13.174 8.643l-12.05 12.05c-12.117-5.581-25.716-14.022-22.134-18.347 1.319-1.592 16.424 8.344 19.809 2.38 4.093-7.21-25.72-25.085-32.535-8.515-9.791-4.928-9.192-19.177-2.676-19.006zm-52.887 9.395c6.875 6.695 13.321 16.781 17.338 28.265l19.492 59.422-15.65 15.649c-2.233 2.233-4.075 4.554-5.56 6.921l-18.844-77.37c-4.745-20.074-.448-26.328 3.224-32.887zm125.955 18.425c5.805.018 11.025 2.559 14.907 6.44 7.762 7.762 10.162 20.889-2.258 33.308l-81.293 81.293c-12.42 12.42-25.547 10.02-33.309 2.258-7.762-7.762-10.162-20.889 2.258-33.308L283.04 264.6c6.21-6.21 12.598-8.715 18.402-8.698zm-117.765 8.846-6.92 1.938 5.969 21.33 6.92-1.938-5.97-21.33zm115.976 5.912-12.267.186.039 2.582 4.836-.073.146 8.428 2.582-.045-.146-8.422 4.85-.072-.04-2.584zm10.37 10.063-2.583.039.073 4.85-8.422.107.033 2.582 8.428-.108.074 4.836 2.582-.039-.186-12.267zm-29.979.31-2.582.04.184 12.267 2.584-.04-.075-4.849 8.424-.107-.033-2.582-8.43.107-.072-4.836zm13.682 3.87c-.52.02-1.035.233-1.428.638a2.09 2.09 0 0 0-.254 2.602l.826-.852a.976.976 0 0 1 1.195-1.232l.827-.852a2.07 2.07 0 0 0-1.166-.305zm1.806.927-.826.852a.976.976 0 0 1-1.195 1.232l-.826.852c.812.5 1.895.385 2.593-.334a2.09 2.09 0 0 0 .254-2.602zm-.27 6.451-2.581.043.146 8.422-4.85.072.04 2.584 12.265-.185-.037-2.582-4.836.072-.146-8.426zm29.49 1.496 24.019 77.211-22.41 11.87 3.15-14.137-8.076-5.862 4.402-8.062-9.127-3.951 6.686-8.948-8.614-5.548 5.12-7.85-8.774-4.848 5.025-7.642-7.32-4.942 10.338-10.338c2.243-2.243 4.093-4.574 5.582-6.953zm-54.132 55.504 4.117 4.057 10.5-2.832c2.922-.787 5.45 2.17 4.217 4.933l-3.91 8.754 8.42-4.199c3.155-1.574 6.453 1.867 4.748 4.953l-4.072 7.373 6.67-3.441c3.154-1.626 6.505 1.821 4.793 4.93l-4.715 8.543 3.31-.745a3.593 3.593 0 0 1 3.342.979l1.719 6.217c-2.013.532-2.395.533-5.428.252l-9.16 2.058c-3.022.679-5.43-2.53-3.934-5.242l2.864-5.187-6.676 3.445c-3.156 1.627-6.51-1.82-4.793-4.93l4.209-7.623-7.063 3.524c-3.017 1.503-6.256-1.603-4.882-4.682l4.914-11.006-5.19 1.4a3.595 3.595 0 0 1-3.459-.91l-5.62-5.54 5.08-5.08zm-73.887 37.069a28.297 28.297 0 0 0 11.516 5.486L163.23 414.06l33.502-27.711z" transform="translate(15.028 53.407) scale(.86567)"/></g></svg>