<svg version="1.2" viewBox="-421 153 512 512" xml:space="preserve" width="512" height="512" xmlns="http://www.w3.org/2000/svg"><defs><filter style="color-interpolation-filters:sRGB" id="a" x="-.052" y="-.042" width="1.104" height="1.084"><feFlood flood-opacity="1" flood-color="#3A3F5E" result="flood"/><feComposite in="flood" in2="SourceGraphic" operator="out" result="composite1"/><feGaussianBlur in="composite1" stdDeviation="8.556" result="blur"/><feOffset result="offset"/><feComposite in="offset" in2="SourceGraphic" operator="atop" result="composite2"/></filter></defs><path d="M0 0h512v512H0Z" fill="#b90202" style="fill:#1b1f21;fill-opacity:1" transform="translate(-421 153)"/><path style="fill:#e64539;stroke-width:3.85001;fill-opacity:1;filter:url(#a)" d="m333.43 7.186-80.207.068h-.002l-77.637-.065s11.344 80.403 77.82 80.403c68.162 0 80.026-80.406 80.026-80.406zm-176.758 99.45a98.26 98.26 0 0 0-98.563 98.561v241.01c0 18.865 15.016 34.65 34.65 34.65 19.636 0 34.651-15.015 34.651-34.65V224.832c0-5.39 4.622-10.01 10.012-10.01 5.39 0 10.008 4.62 10.008 10.01v273.4h98.56v-16.605c0-5.39 4.622-10.01 10.012-10.01 5.39 0 10.008 4.62 10.008 10.01v16.605h98.558v-273.4c0-5.39 4.622-10.01 10.012-10.01 5.39 0 10.01 4.62 10.01 10.01v221.76c0 18.865 15.015 34.65 34.65 34.65 19.635 0 34.65-15.015 34.65-34.65V205.197c-1.54-54.67-46.586-98.56-100.1-98.56H156.671zm144.016 57.805c11.588.001 23.177 7.6 23.177 22.8 0 9.378-4.415 15.86-10.515 19.452a9.56 9.56 0 0 1 .177 1.856c0 .663-.062 1.286-.177 1.869 5.923 2.27 10.586 7.595 10.586 15.98 0 4.271-1.212 7.747-3.182 10.432 5.352 1.732 9.85 5.861 11.137 12.387 5.238-1.69 12.064 1.087 12.064 8.351 0 8.909-10.266 11.083-15.28 6.524-3.699 4.61-9.725 6.686-15.525 6.226v.065c0 18.073-14.038 26.931-27.812 26.588l4.03-34.664h28.966l-16.861-69.809h-48.65c-.774-1.99-1.21-4.266-1.21-6.828 0-17.618 20.58-21.739 30.207-12.363 4.417-5.91 11.641-8.866 18.868-8.866zm-104.786 8.963c4.685.034 9.402 1.767 12.834 4.91 4.784-7.364 18.483-3.217 16.25 7.045-1.3 5.981-6.66 7.819-11.162 6.598a20.762 20.762 0 0 1-.383 2.48c-4.888 22.473-39.153 15.019-34.265-7.453 2.062-9.48 9.353-13.632 16.726-13.58zm23.813 26.258h76.119l13.4 55.48h-26.248l-7.96 68.485h-34.5l-7.964-68.484h-26.248l13.4-55.48zm118.394 4.328c4.142 0 8.284 2.716 8.284 8.149 0 10.865-16.567 10.865-16.567 0 0-5.433 4.142-8.149 8.283-8.149zm-115.214 18.4-4.512 20.819 30.308-2.713-25.796-18.105zm69.677 0-25.797 18.106 30.31 2.713-4.513-20.818zm42.76 3.612c2.85 0 5.697 1.868 5.697 5.605 0 7.474-11.396 7.474-11.396 0 0-3.737 2.85-5.605 5.699-5.605zm-158.818 4.861c4.724 0 9.447 2.43 11.27 7.287 4.258-4.743 10.624-7.065 16.948-6.97l-7.517 31.127h26.758c-8.573 18.025-40.805 14.95-41.3-9.23-7.136 3.812-18.214.361-18.214-10.356 0-7.905 6.028-11.858 12.055-11.858zm81.22 15.739-12.222 16.14 5.71 4.324 6.512-8.597 6.51 8.597 5.713-4.324-12.223-16.14zm-84.19 16.142c2.85 0 5.698 1.867 5.698 5.604 0 7.475-11.396 7.475-11.396 0 0-3.737 2.85-5.604 5.699-5.604zm54.14 12.483 6.46 55.564h7.692c-2.09 9.53-17.74 8.798-17.74-2.201 0-2.048.542-3.74 1.44-5.076-6.7-1.86-12.27-7.367-12.27-16.532 0-5.579 2.069-9.8 5.195-12.673-1.384-1.854-2.236-4.267-2.236-7.239 0-7.644 5.636-11.591 11.459-11.843zm56.447 32.105c6.06 2.207 10.875 7.566 10.875 16.086 0 .412-.015.815-.037 1.213 7.076-2.56 16.607 1.13 16.607 11.07 0 15.081-21.935 15.776-23.959 2.086-8.51 5.473-21.88 3.142-26.246-6.996h20.033l2.727-23.459zm58.86 2.508c1.872-.023 3.726.996 4.364 3.38 1.572 5.868-7.373 8.264-8.945 2.397-.933-3.483 1.842-5.743 4.58-5.777zm-161.423 8.148c5.036 0 10.07 3.301 10.07 9.907 0 1.564-.284 2.942-.783 4.136 3.233.637 6.053 3.115 6.053 7.45 0 10.16-15.492 10.16-15.492 0 0-.596.055-1.153.154-1.678-5.035 0-10.072-3.303-10.072-9.908 0-6.605 5.035-9.907 10.07-9.907zm153.994 5.721c2.265-.028 4.508 1.205 5.28 4.086 1.32 4.928-3.498 7.826-7.2 6.76-.992 7.334-12.885 9.422-15.203.773-2.066-7.714 6.737-11.84 11.875-8.486.953-1.95 3.108-3.107 5.248-3.133zm-127.615.713c2.849 0 5.698 1.868 5.698 5.605 0 7.474-11.395 7.474-11.395 0 0-3.737 2.849-5.605 5.697-5.605z" transform="translate(-421 153)"/></svg>