<svg version="1.2" viewBox="-421 153 512 512" xml:space="preserve" width="512" height="512" xmlns="http://www.w3.org/2000/svg"><defs><filter style="color-interpolation-filters:sRGB" id="a" x="-.052" y="-.042" width="1.104" height="1.084"><feFlood flood-opacity="1" flood-color="#3A3F5E" result="flood"/><feComposite in="flood" in2="SourceGraphic" operator="out" result="composite1"/><feGaussianBlur in="composite1" stdDeviation="8.556" result="blur"/><feOffset result="offset"/><feComposite in="offset" in2="SourceGraphic" operator="atop" result="composite2"/></filter></defs><path d="M0 0h512v512H0Z" fill="#b90202" style="fill:#1b1f21;fill-opacity:1" transform="translate(-421 153)"/><path style="fill:#e64539;stroke-width:3.85001;fill-opacity:1;filter:url(#a)" d="m333.43 7.186-80.207.068h-.002l-77.637-.065s11.344 80.403 77.82 80.403c68.162 0 80.026-80.406 80.026-80.406zm-176.758 99.45a98.26 98.26 0 0 0-98.563 98.561v241.01c0 18.865 15.016 34.65 34.65 34.65 19.636 0 34.651-15.015 34.651-34.65V224.832c0-5.39 4.622-10.01 10.012-10.01 5.39 0 10.008 4.62 10.008 10.01v273.4h98.56v-16.605c0-5.39 4.622-10.01 10.012-10.01 5.39 0 10.008 4.62 10.008 10.01v16.605h98.558v-273.4c0-5.39 4.622-10.01 10.012-10.01 5.39 0 10.01 4.62 10.01 10.01v221.76c0 18.865 15.015 34.65 34.65 34.65 19.635 0 34.65-15.015 34.65-34.65V205.197c-1.54-54.67-46.586-98.56-100.1-98.56H156.671zm18.375 68.725c7.232 0 20.014 10.728 17.053 24.682-8.092 37.884-1.143 99.922-1.143 99.922-11.937-7.54-52.49-120.914-16.59-124.57a6.77 6.77 0 0 1 .68-.034zm161.9 0a6.736 6.736 0 0 1 .682.034c35.905 3.66-4.634 117.036-16.59 124.57 0 0 6.947-62.038-1.144-99.922-2.981-13.963 9.82-24.682 17.052-24.682zm-133.119 6.873c5.281 0 16.043 6.524 16.813 12.448 1.27 9.83-13.354 21.605-13.354 21.605s-14.743-23.268-5.82-33.244c.496-.557 1.322-.809 2.361-.809zm104.338 0c1.04 0 1.866.25 2.367.813 8.919 9.97-5.82 33.246-5.82 33.246s-14.63-11.805-13.36-21.611c.752-5.924 11.527-12.448 16.813-12.448zm-72.81 4.752c5.03 0 15.28 6.213 16.013 11.858 1.214 9.358-12.72 20.562-12.72 20.562s-14.046-22.15-5.544-31.65c.473-.529 1.263-.77 2.25-.77zm41.285.04c.987 0 1.775.238 2.248.767 8.497 9.48-5.541 31.65-5.541 31.65s-13.935-11.242-12.721-20.562c.732-5.645 10.978-11.856 16.014-11.856zm23.566 85.072c6.183 4.837 18.144 56.33-1.049 56.35a12.324 12.324 0 0 1-2.027-.175c-2.343-.387-5.488-2.545-7.377-5.351-1.587-2.38-2.255-5.226-.715-7.871 5.116-8.782 8.05-21.78 9.61-31.176 1.133-6.836 1.544-11.758 1.544-11.758l.014-.02zm-88.437.029s.449 5.404 1.714 12.754c1.611 9.296 4.512 21.701 9.448 30.166 1.913 3.245.47 6.82-1.957 9.451-1.862 2.022-4.25 3.468-6.141 3.78a12.282 12.282 0 0 1-2.025.175c-19.16 0-7.228-51.494-1.04-56.326zm25.251 38.418s9.642 9.811 10.473 14.463v.002c.137.67.945 8.96 0 9.97-1.03 1.12-4.827 1.655-8.701 1.655-4.001 0-8.077-.572-9.254-1.655-1.303-1.19-.83-9.758-.83-10.636-.09-3.992 8.312-13.8 8.312-13.8zm37.918.02s8.403 9.805 8.313 13.796l.016-.013c-.01.293.982 8.966-.813 10.638-1.177 1.082-5.253 1.653-9.254 1.653-3.868 0-7.652-.51-8.701-1.653-1.049-1.143-.104-9.385 0-9.976.813-4.653 10.44-14.446 10.44-14.446zm-50.388 15.914v.18l-.1-.048.1-.132z" transform="translate(-421 153)"/></svg>