<svg xml:space="preserve" width="512" height="512" xmlns="http://www.w3.org/2000/svg"><defs><filter style="color-interpolation-filters:sRGB" id="a" x="-.067" y="-.087" width="1.133" height="1.174"><feFlood flood-opacity="1" flood-color="#3A3F5E" result="flood"/><feComposite in="flood" in2="SourceGraphic" operator="out" result="composite1"/><feGaussianBlur in="composite1" stdDeviation="12.72" result="blur"/><feOffset result="offset"/><feComposite in="offset" in2="SourceGraphic" operator="atop" result="composite2"/></filter></defs><path d="M0 0h512v512H0Z" fill="#b90202" style="fill:#1b1f21;fill-opacity:1"/><g style="fill:#fff;filter:url(#a)"><g style="fill:#fff"><path style="fill:#e64539;stroke-width:.896456;fill-opacity:1" d="M256 80.898c-108.494 0-199.616 72.268-228.842 170.623a15.719 15.719 0 0 0 0 8.958C56.35 358.724 147.393 431.102 256 431.102c108.494 0 199.616-72.268 228.842-170.623a15.719 15.719 0 0 0 0-8.958C455.649 153.275 364.607 80.898 256 80.898zm.012 52.342c34.601.002 68.059 7.183 99.441 21.348a3.916 3.916 0 0 1 1.96 1.959c28.526 63.203 28.525 135.702 0 198.906a3.916 3.916 0 0 1-1.96 1.96c-31.382 14.164-64.84 21.345-99.465 21.347-34.602-.002-68.059-7.183-99.441-21.348a3.916 3.916 0 0 1-1.96-1.959c-28.525-63.204-28.525-135.703 0-198.906a3.916 3.916 0 0 1 1.96-1.96c31.382-14.164 64.84-21.345 99.465-21.347zm-3.93 7.871a234.768 234.768 0 0 0-37.648 3.635c-4.34 16.184-7.677 33.215-9.995 50.72a473.151 473.151 0 0 1 47.643-2.786v-51.57zm7.836 0v51.569a473.076 473.076 0 0 1 47.646 2.787c-2.33-17.64-5.677-34.614-9.996-50.719a234.727 234.727 0 0 0-37.65-3.637zm46.2 5.336c4.09 15.923 7.256 32.643 9.466 49.971 17.288 2.21 34.064 5.38 49.953 9.457a233.701 233.701 0 0 0-14.662-44.752 232.52 232.52 0 0 0-44.758-14.676zm-100.24.002a232.532 232.532 0 0 0-44.755 14.674 233.694 233.694 0 0 0-14.66 44.752c15.89-4.077 32.667-7.247 49.957-9.457 2.198-17.2 5.35-33.972 9.459-49.969zm46.204 54.162c-16.338.134-32.65 1.097-48.633 2.9-1.814 15.946-2.792 32.227-2.926 48.571h51.559v-51.47zm7.836 0v51.471h51.555a477.647 477.647 0 0 0-.41-16.178 3.919 3.919 0 0 1 3.748-4.082 3.907 3.907 0 0 1 4.082 3.748c.234 5.513.369 11.02.416 16.512h51.625a234.152 234.152 0 0 0-3.686-37.644c-16.165-4.332-33.199-7.647-50.703-9.946a466.825 466.825 0 0 1 1.418 15.305 3.919 3.919 0 0 1-7.815.594 458.627 458.627 0 0 0-1.601-16.88c-15.983-1.803-32.292-2.766-48.629-2.9zm-64.463 3.881c-17.505 2.299-34.54 5.614-50.705 9.946a234.15 234.15 0 0 0-3.684 37.644h51.627c.13-16.002 1.05-31.948 2.762-47.59zm-54.389 55.426a234.15 234.15 0 0 0 3.684 37.644c16.17 4.333 33.21 7.65 50.72 9.948a472.868 472.868 0 0 1-2.78-47.592h-51.624zm59.454 0a464.372 464.372 0 0 0 2.937 48.57c15.98 1.803 32.29 2.766 48.625 2.899v-51.469H200.52zm59.398 0v51.47c16.345-.133 32.663-1.097 48.652-2.902 1.805-15.872 2.78-32.136 2.907-48.568h-51.559zm59.394 0c-.122 16.084-1.046 32.012-2.751 47.588 17.499-2.299 34.527-5.613 50.687-9.943a234.152 234.152 0 0 0 3.686-37.645h-51.622zm-172.85 46.207a233.688 233.688 0 0 0 14.663 44.752 232.532 232.532 0 0 0 44.756 14.674 387.99 387.99 0 0 1-3.633-15.5 3.918 3.918 0 0 1 7.664-1.633 375.345 375.345 0 0 0 4.512 18.832 234.765 234.765 0 0 0 37.658 3.639V319.32a473.076 473.076 0 0 1-47.63-2.785c.74 5.589 1.58 11.141 2.53 16.643a3.918 3.918 0 1 1-7.722 1.334 435.93 435.93 0 0 1-2.836-18.93c-17.291-2.21-34.07-5.38-49.961-9.457zm219.075 0c-15.883 4.076-32.652 7.245-49.933 9.455-2.204 17.237-5.376 33.985-9.485 49.97a232.532 232.532 0 0 0 44.756-14.673 233.713 233.713 0 0 0 14.662-44.752zm-57.959 10.406a473.032 473.032 0 0 1-47.66 2.79v51.568a234.778 234.778 0 0 0 37.654-3.639c4.337-16.17 7.683-33.176 10.006-50.719z"/></g></g></svg>