<svg width="512" height="512" xmlns="http://www.w3.org/2000/svg"><defs><filter style="color-interpolation-filters:sRGB" id="a" x="-.143" y="-.103" width="1.286" height="1.206"><feFlood flood-opacity="1" flood-color="#3A3F5E" result="flood"/><feComposite in="flood" in2="SourceGraphic" operator="out" result="composite1"/><feGaussianBlur in="composite1" stdDeviation="11.802" result="blur"/><feOffset result="offset"/><feComposite in="offset" in2="SourceGraphic" operator="atop" result="composite2"/></filter></defs><path d="M0 0h512v512H0Z" fill="#b90202" style="fill:#1b1f21;fill-opacity:1"/><path data-name="&lt;Transparent Rectangle&gt;" style="stroke-width:14.5096;fill:none" d="M23.847 23.847h464.306v464.306H23.847z"/><g style="fill:#e64539;fill-opacity:1;filter:url(#a)"><path style="fill:#e64539;stroke-width:1.68106;fill-opacity:1" d="M255.994 24.977c-91.843 0-166.562 74.718-166.562 166.566v182.49c0 70.751 31.797 112.99 85.054 112.99 77.148 0 102.745-54.158 118.04-86.517l.378-.803c17.11-36.19 39.33-51.717 60.82-66.73 34.894-24.38 67.853-47.41 68.833-141.303.497-47.841-14.99-89.042-44.782-119.149-30.343-30.659-73.592-47.544-121.78-47.544zm70.567 73.076c19.86 19.871 30.794 46.275 30.794 74.347 0 28.073-10.934 54.474-30.794 74.346l-16.52-16.52c15.432-15.455 23.95-35.991 23.95-57.826 0-21.834-8.518-42.372-23.95-57.828l16.52-16.52zm-121.077 15.935c26.636 0 46.73 20.093 46.73 46.729s-20.094 46.73-46.73 46.73c-26.635 0-46.728-20.094-46.728-46.73 0-26.636 20.093-46.729 46.728-46.729zm88.028 17.102c11.028 11.028 17.113 25.691 17.113 41.31 0 15.62-6.085 30.28-17.113 41.309l-16.52-16.543c6.624-6.6 10.27-15.396 10.27-24.766 0-9.369-3.646-18.167-10.27-24.767l16.52-16.543zm-88.028 6.262c-13.761 0-23.365 9.603-23.365 23.365 0 13.762 9.604 23.365 23.365 23.365 13.762 0 23.366-9.603 23.366-23.365 0-13.762-9.604-23.365-23.366-23.365zm-11.681 81.777h23.365c32.208 0 58.41 26.204 58.41 58.412v11.682h-23.363V277.54c0-19.323-15.724-35.047-35.047-35.047h-23.365c-19.323 0-35.047 15.724-35.047 35.047v11.682H135.39V277.54c0-32.208 26.203-58.412 58.412-58.412z"/></g></svg>