<svg width="512" height="512" xmlns="http://www.w3.org/2000/svg"><defs><filter style="color-interpolation-filters:sRGB" id="a" x="-.082" y="-.094" width="1.164" height="1.188"><feFlood flood-opacity="1" flood-color="#3A3F5E" result="flood"/><feComposite in="flood" in2="SourceGraphic" operator="out" result="composite1"/><feGaussianBlur in="composite1" stdDeviation="11.802" result="blur"/><feOffset result="offset"/><feComposite in="offset" in2="SourceGraphic" operator="atop" result="composite2"/></filter></defs><path d="M0 0h512v512H0z" fill="#b90202" style="fill:#1b1f21;fill-opacity:1"/><g style="fill:#e64539;fill-opacity:1;filter:url(#a)"><path style="fill:#e64539;fill-opacity:1" d="M22.398 103.932v196.14c69.429 29.088 234.248 37.381 307.096 23.858-10.96 63.941-1.743 118.14 10.568 164.152 111.531-.128 0 0 110.833-.123 4.234-66.609 10.894-142.696 12.94-183.04 1.022-20.029 5.998-100.672-76.546-128.216-102.19-34.14-232.323-59.554-364.89-72.771zm283.538 62.287c3.99 3.673 6.42 42.727 10.933 44.81 4.513 2.083 15.274-20.48 23.61-25.168 1.734 10.07-20.65 78.637-35.928 78.637-15.277 0-36.107-66.658-33.504-77.424 4.687.522 15.793 26.212 21.523 23.955 5.726-2.256 6.597-38.364 13.366-44.81zm-99.872 49.707c6.77 6.446 7.64 42.554 13.366 44.81 5.725 2.257 16.838-23.434 21.529-23.955 2.604 10.764-18.227 77.422-33.504 77.422-15.277 0-37.668-68.57-35.934-78.635 8.336 4.687 19.097 27.251 23.61 25.168 4.512-2.083 6.942-41.143 10.933-44.81z"/></g></svg>