<svg width="512" height="512" xml:space="preserve" xmlns="http://www.w3.org/2000/svg"><defs><filter style="color-interpolation-filters:sRGB" id="a" x="-.187" y="-.189" width="1.364" height="1.368"><feFlood flood-opacity="1" flood-color="#3A3F5E" result="flood"/><feComposite in="flood" in2="SourceGraphic" operator="out" result="composite1"/><feGaussianBlur in="composite1" stdDeviation="15" result="blur"/><feOffset result="offset"/><feComposite in="offset" in2="SourceGraphic" operator="atop" result="composite2"/></filter></defs><path d="M0 0h512v512H0Z" fill="#b90202" style="fill:#1b1f21;fill-opacity:1"/><g style="fill:#e64539;fill-opacity:1;filter:url(#a)" transform="translate(-17.36 -61.694) scale(1.15518)"><path style="fill:#e64539;stroke-width:1.15518;fill-opacity:1" d="M204.219 19.078c5.15 27.232 33.526 45.413 46.699 51.492 20.86 9.628 80.454 24.335 102.064-13.408 5.765 14.77 1.875 137.619-32.189 168.854-17.26-16.457-42.176-26.79-69.875-26.79-22.744 0-43.602 6.967-59.895 18.567-21.508-34.521-62.2-57.83-108.9-57.83-22.39 0-43.392 5.382-61.58 14.766v12.068a1.654 1.654 0 0 0-.066-.014v296.49s86.415 4.47 93.328-95.353a.057.057 0 0 1-.004-.018c21.022 30.528 88 53.765 129.273 52.395 64.83-2.15 150.974-4.992 223.95-74.95 6.743-6.71 12.153-14.636 15.828-23.404v-.004c26.884-55.924-30.57-239.755-64.12-322.86H204.22zm66.135 210.137c-19.757 20.787-38.647 48.074-54.444 73.398-12.456 14.725-22.935 29.366-29.77 41.946l-.341.619-3.139.578-.697-3.672c8.645-20.251 25.74-48.79 45.289-72.836 13.94-17.153 29.326-31.875 43.102-40.033zm46.976 1.123c-37.532 29.506-81.293 72.483-108.02 107.623-3.052 3.34-6.639 7.464-10.062 11.547l-5.334 2.392-.658-4.783c12.303-22.23 37.049-52.05 63.816-76.385 20.54-18.621 42.523-33.828 60.258-40.394zm32.5 19.933c-50.978 29.783-102.41 74.573-132.807 109.672l-10.062.66-.578-8.042c18.106-21.489 46.481-48.585 75.847-69.579 23.633-16.91 48.009-29.526 67.6-32.71zm-175.56 91.526a444.41 444.41 0 0 1 2.459 12.537l9.79-1.732 1.065 9.115 11.746-4.125.783 10.93 20.5-1.403c2.104-2.433 3.917-4.536 6.227-7.094 3.34 4.125 9.032 5.98 9.238 8.455.33 4.001-.618 8.456-4.742 12.168-8.001 6.682-9.487 6.518-22.107 9.034 11.012 5.856 17.282 3.175 25.49-2.682 2.062 2.763 4.289 5.568 3.629 8.826-.825 3.918-17.819 24.129-30.81 23.799-9.116-.247-29.977-7.3-29.977-7.3l-15.391 5.773v-59.391l12.1-16.91z" transform="translate(15.028 53.407) scale(.86567)"/></g></svg>