<svg height="512" width="512" style="enable-background:new 0 0 512 512" xml:space="preserve" xmlns="http://www.w3.org/2000/svg"><defs><filter style="color-interpolation-filters:sRGB" id="a" x="-.042" y="-.039" width="1.084" height="1.079"><feFlood flood-opacity="1" flood-color="#3A3F5E" result="flood"/><feComposite in="flood" in2="SourceGraphic" operator="out" result="composite1"/><feGaussianBlur in="composite1" stdDeviation="8" result="blur"/><feOffset result="offset"/><feComposite in="offset" in2="SourceGraphic" operator="atop" result="composite2"/></filter></defs><path d="M0 0h512v512H0Z" fill="#b90202" style="fill:#1b1f21;fill-opacity:1"/><path d="M34.032 17.744c-2.63 10.297.048 21.72 8.045 29.72 10.034 10.035 25.46 11.697 37.29 5a604.628 604.628 0 0 0 17.356 15.12 30.586 30.586 0 0 0-.521 5.598c0 17.023 14.007 31 31.03 31 4.916 0 9.575-1.17 13.72-3.24a688.528 688.528 0 0 0 17.482 11.48 30.668 30.668 0 0 0-.732 6.635c0 17.024 14.008 31 31.03 31 7.577 0 14.55-2.772 19.964-7.345l13.873 8.125a27.974 27.974 0 0 0-.414 4.732v38.904l-103.07 59.667v160.064l138.284 80.053 138.282-80.053V254.14l-104.046-60.233V155.57c0-.983-.067-1.946-.172-2.897 5.393-3.07 10.655-6.08 15.697-8.994 5.226 3.992 11.736 6.377 18.762 6.377 17.023 0 31-13.976 31-31 0-1.867-.176-3.695-.498-5.476a621.335 621.335 0 0 0 17.978-12.298c3.97 1.855 8.38 2.9 13.02 2.9 17.023 0 31.03-13.976 31.03-31a30.73 30.73 0 0 0-.553-5.78 911.72 911.72 0 0 0 16.318-14.116c11.6 5.714 26.135 3.778 35.736-5.822 7.998-7.998 10.675-19.42 8.045-29.72h-20.413c4.018 4.888 3.736 11.916-.85 16.5-4.887 4.888-12.55 4.89-17.437 0-4.585-4.585-4.867-11.614-.85-16.5h-20.415c-1.915 7.5-1 15.592 2.72 22.528a889.524 889.524 0 0 1-12.034 10.434c-5.575-5.288-13.083-8.555-21.297-8.555-17.024 0-31.03 14.01-31.03 31.032 0 5.45 1.438 10.583 3.948 15.05a600.57 600.57 0 0 1-12.797 8.673c-5.6-5.48-13.24-8.88-21.62-8.88-17.025 0-31.032 14.01-31.032 31.032 0 3.166.484 6.225 1.383 9.11-4.23 2.445-8.744 5.028-13.247 7.605a28.176 28.176 0 0 0-3.246-2.716c-6.692-4.768-14.72-6.882-22.714-7.014-7.996-.133-16.15 1.717-22.97 6.503a26.372 26.372 0 0 0-2.337 1.85c-4.367-2.572-8.764-5.163-12.947-7.621.642-2.47.984-5.057.984-7.717 0-17.023-14.007-31.031-31.03-31.031-7.977 0-15.29 3.075-20.812 8.094a691.735 691.735 0 0 1-13.248-8.596 30.657 30.657 0 0 0 3.56-14.34c0-17.026-13.977-31.034-31-31.034-8.26 0-15.804 3.304-21.388 8.642a585.729 585.729 0 0 1-13.79-12.067c3.063-6.575 3.715-14.03 1.94-20.98H73.582c4.018 4.887 3.736 11.915-.85 16.5-4.887 4.887-12.55 4.888-17.437 0-4.584-4.586-4.865-11.615-.848-16.5H34.032zm93.2 43.094c6.925 0 12.314 5.42 12.314 12.343 0 6.924-5.387 12.313-12.31 12.313-6.927 0-12.346-5.39-12.346-12.314 0-6.923 5.42-12.343 12.345-12.343zm260.157 0c6.924 0 12.344 5.42 12.344 12.343 0 6.924-5.42 12.313-12.345 12.313-6.924 0-12.344-5.39-12.344-12.314 0-6.923 5.42-12.343 12.345-12.343zm-198.655 45.874c6.922 0 12.343 5.42 12.343 12.345 0 6.922-5.42 12.311-12.344 12.311-6.926 0-12.345-5.39-12.345-12.312 0-6.923 5.42-12.343 12.344-12.343zm137.155 0c6.924 0 12.313 5.42 12.313 12.345 0 6.922-5.39 12.311-12.313 12.311-6.924 0-12.344-5.39-12.344-12.312 0-6.923 5.42-12.343 12.345-12.343zm-69.164 38.014c4.695.078 9.355 1.536 12.18 3.55 2.827 2.012 4.01 3.805 4.01 7.292v27.52l-15.546-9-16.526 9.565V155.57c0-4.09 1.259-5.835 3.954-7.725 2.696-1.89 7.237-3.195 11.93-3.118zm-8.122 56.03v32.728l-74.182 43.21-28.558-16.462zm18.687.67 102.16 59.138-28.623 16.501-73.533-42.83-.002-32.81zm-9.988 48.62 72.256 42.085-.002 84.316-72.253 42.086-72.256-42.086.003-84.314 72.254-42.088zm.465 18.33-56.883 98.15v.723l56.566 32.977 56.564-32.977v-66.085l-56.248-32.79zm-119.994 8.764 28.586 16.48v84.027l-28.586 16.48V277.142zm239.19.668-.003 115.648-28.715-16.553v-82.54l28.717-16.555zM338.507 392.86l28.414 16.38-99.63 57.677v-32.574zm-161.77.375 71.864 41.86v32.494l-100.21-58.013 28.345-16.342z" style="fill:#e64539;fill-opacity:1;filter:url(#a)"/></svg>