<svg height="512" width="512" style="enable-background:new 0 0 512 512" xml:space="preserve" xmlns="http://www.w3.org/2000/svg"><defs><filter style="color-interpolation-filters:sRGB" id="a" x="-1.218" y="-1.252" width="3.436" height="3.504"><feFlood flood-opacity="1" flood-color="#3A3F5E" result="flood"/><feComposite in="flood" in2="SourceGraphic" operator="out" result="composite1"/><feGaussianBlur in="composite1" stdDeviation="15" result="blur"/><feOffset result="offset"/><feComposite in="offset" in2="SourceGraphic" operator="atop" result="fbSourceGraphic"/><feColorMatrix result="fbSourceGraphicAlpha" in="fbSourceGraphic" values="0 0 0 -1 0 0 0 0 -1 0 0 0 0 -1 0 0 0 0 1 0"/><feFlood flood-opacity="1" flood-color="#3A3F5E" result="flood"/><feComposite in2="fbSourceGraphic" in="flood" operator="out" result="composite1"/><feGaussianBlur in="composite1" stdDeviation="15" result="blur"/><feOffset result="offset"/><feComposite in2="fbSourceGraphic" in="offset" operator="atop" result="composite2"/></filter></defs><path d="M0 0h512v512H0Z" fill="#b90202" style="fill:#1b1f21;fill-opacity:1"/><path d="M278.757 249.941a83.487 83.487 0 0 0-22.649-3.129 82.002 82.002 0 0 0-23.165 3.343c.011.224.131.446.131.672v40.228c0 .172-.162.34-.163.511 6.903-4.22 14.844-6.547 23.165-6.547 8.028 0 15.941 2.175 22.676 6.116 0-.027.173-.054.173-.082v-40.226c0-.299-.188-.591-.168-.886zm-62.773-11.177c-3.505-4.253-8.811-6.963-14.75-6.963H65.898l45.354-44.577h17.385c10.551 0 19.104-8.554 19.104-19.104 0-10.551-8.554-19.104-19.104-19.104h-25.201c-5.009 0-9.82 1.968-13.392 5.479L5.712 237.38A19.104 19.104 0 0 0 0 251.005v36.292c0 40.529 32.666 73.715 73.543 75.598 1.215.056 2.435.09 3.664.09h67.197c20.364 0 39.443-7.816 53.722-22.008 14.325-14.238 22.212-33.302 22.212-53.678v-36.393c0-4.612-1.634-8.841-4.354-12.142zm290.304-1.384-84.331-82.885a19.109 19.109 0 0 0-13.392-5.479h-25.201c-10.551 0-19.104 8.554-19.104 19.104 0 10.551 8.554 19.104 19.104 19.104h17.385l45.354 44.577H310.766c-6.032 0-11.404 2.803-14.905 7.171a19.007 19.007 0 0 0-4.199 11.934v36.391c0 20.377 7.889 39.442 22.212 53.678 14.277 14.193 33.358 22.008 53.722 22.008h67.197c.978 0 1.949-.037 2.919-.073C478.935 361.398 512 328.07 512 287.296v-36.292a19.103 19.103 0 0 0-5.712-13.624z" style="fill:#e64539;fill-opacity:1;filter:url(#a)" transform="translate(15.288 15.287) scale(.94028)"/></svg>