<svg height="512" width="512" style="enable-background:new 0 0 512 512" xml:space="preserve" xmlns="http://www.w3.org/2000/svg"><defs><filter style="color-interpolation-filters:sRGB" id="a" x="-.408" y="-.504" width="1.815" height="2.008"><feFlood flood-opacity="1" flood-color="#3A3F5E" result="flood"/><feComposite in="flood" in2="SourceGraphic" operator="out" result="composite1"/><feGaussianBlur in="composite1" stdDeviation="15" result="blur"/><feOffset result="offset"/><feComposite in="offset" in2="SourceGraphic" operator="atop" result="composite2"/></filter></defs><path d="M0 0h512v512H0Z" fill="#b90202" style="fill:#1b1f21;fill-opacity:1"/><path d="M324.267 51.2h-59.733v143.394c.179.7.435 1.365.461 2.125l16.614 307.208a8.544 8.544 0 0 0 8.525 8.073h59.733c4.523 0 8.269-3.541 8.516-8.055l21.709-390.784-7.091-2.577c-27.367-6.708-48.734-32.692-48.734-59.384Zm8.533 273.067h-25.6a8.53 8.53 0 0 1-8.533-8.533 8.53 8.53 0 0 1 8.533-8.533h25.6a8.53 8.53 0 0 1 8.533 8.533 8.53 8.53 0 0 1-8.533 8.533zm8.533-136.534H307.2a8.53 8.53 0 0 1-8.533-8.533 8.53 8.53 0 0 1 8.533-8.533h34.133a8.53 8.53 0 0 1 8.533 8.533 8.53 8.53 0 0 1-8.533 8.533zM134.575 94.095c19.9-4.693 36.087-23.936 36.087-42.897h-42.197l2.449 44.16 2.705-.981c.316-.111.632-.205.956-.282zM375.467 0H136.533A8.53 8.53 0 0 0 128 8.533v25.6h256v-25.6A8.53 8.53 0 0 0 375.467 0Z" style="fill:#e64539;fill-opacity:1;filter:url(#a)" transform="translate(20.53 20.53) scale(.9198)"/><path d="M377.425 94.095c.324.077.64.171.956.282l2.705.981 2.449-44.16h-42.197c0 18.961 16.187 38.204 36.087 42.897zm-238.426 16.488-7.091 2.577 21.709 390.784c.247 4.514 3.994 8.055 8.516 8.055h59.733c4.523 0 8.269-3.541 8.516-8.055l17.084-307.465V51.2h-59.733c0 26.692-21.367 52.676-48.734 59.383zM204.8 324.267h-25.6a8.53 8.53 0 0 1-8.533-8.533 8.53 8.53 0 0 1 8.533-8.533h25.6a8.53 8.53 0 0 1 8.533 8.533 8.53 8.53 0 0 1-8.533 8.533zm8.533-145.067a8.53 8.53 0 0 1-8.533 8.533h-34.133a8.53 8.53 0 0 1-8.533-8.533 8.53 8.53 0 0 1 8.533-8.533H204.8a8.53 8.53 0 0 1 8.533 8.533z" style="fill:#e64539;fill-opacity:1;filter:url(#a)" transform="translate(20.53 20.53) scale(.9198)"/></svg>