<svg height="512" width="512" style="enable-background:new 0 0 512 512" xml:space="preserve" xmlns="http://www.w3.org/2000/svg"><defs><filter style="color-interpolation-filters:sRGB" id="a" x="-.12" y="-.241" width="1.241" height="1.482"><feFlood flood-opacity="1" flood-color="#3A3F5E" result="flood"/><feComposite in="flood" in2="SourceGraphic" operator="out" result="composite1"/><feGaussianBlur in="composite1" stdDeviation="15" result="blur"/><feOffset result="offset"/><feComposite in="offset" in2="SourceGraphic" operator="atop" result="composite2"/></filter></defs><path d="M0 0h512v512H0Z" fill="#b90202" style="fill:#1b1f21;fill-opacity:1"/><path d="M256 294.048c124.731 0 149.694-52.344 149.504-52.408C387.423 22.047 277.707 145.682 256 145.682c-21.708 0-131.422-123.634-149.505 95.958-.188.065 24.775 52.408 149.505 52.408z" style="fill:#e64539;fill-opacity:1;filter:url(#a)"/><path d="M430.075 251.532c-8.338 16.843-25.565 31.903-50.49 43.748-33.226 15.787-77.113 24.48-123.583 24.48s-90.359-8.693-123.583-24.48c-24.926-11.845-42.155-26.904-50.493-43.748-33.75 15.826-54.115 36.31-54.115 58.69C27.812 360.357 129.974 401 256.001 401c126.026 0 228.188-40.643 228.188-90.779 0-22.378-20.364-42.865-54.114-58.689z" style="fill:#e64539;fill-opacity:1;filter:url(#a)"/></svg>