<svg height="512" width="512" style="enable-background:new 0 0 512 512" xml:space="preserve" xmlns="http://www.w3.org/2000/svg"><defs><filter style="color-interpolation-filters:sRGB" id="a" x="-.583" y="-.422" width="2.165" height="1.844"><feFlood flood-opacity="1" flood-color="#3A3F5E" result="flood"/><feComposite in="flood" in2="SourceGraphic" operator="out" result="composite1"/><feGaussianBlur in="composite1" stdDeviation="15" result="blur"/><feOffset result="offset"/><feComposite in="offset" in2="SourceGraphic" operator="atop" result="composite2"/></filter></defs><path d="M0 0h512v512H0Z" fill="#b90202" style="fill:#1b1f21;fill-opacity:1"/><path d="M150.493 332.564c-5.504 25.967-11.665 55.962-16.205 85.333h21.862c22.009 0 39.92-17.911 39.92-39.919v-45.414zm210.779-.003h-45.585v45.414c0 22.007 17.911 39.919 39.919 39.919h21.871c-4.54-29.389-10.701-59.392-16.205-85.333z" style="fill:#e64539;fill-opacity:1;filter:url(#a)" transform="translate(15.91 15.91) scale(.9383)"/><path d="M494.633 459.085c-4.787-23.33-10.914-55.578-18.005-92.919-36.028-189.594-55.654-282.189-69.82-295.569-9.387-8.866-37.154-18.978-50.449-23.484-2.116-6.775-5.777-13.09-11.059-18.185-7.057-6.886-15.838-15.462-26.487-19.763-.017-.008-.043-.008-.06-.017-.034-.009-.051-.034-.085-.043C306.874 4.565 282.887 0 255.879 0c-27.008 0-50.995 4.565-62.788 9.105-.034.009-.051.034-.085.043-.017.009-.043.009-.06.017-10.65 4.301-19.43 12.877-26.718 19.985-5.171 5.001-8.781 11.238-10.863 17.971-13.312 4.514-41.037 14.626-50.415 23.484-14.165 13.372-33.792 105.967-69.82 295.561-7.091 37.342-13.218 69.589-18.005 92.919a8.473 8.473 0 0 0 1.382 6.63 8.564 8.564 0 0 0 5.76 3.541L84 477.789a8.543 8.543 0 0 0 9.609-6.938c10.65-59.025 39.313-215.262 43.964-229.214 2.944-8.841 9.114-24.209 14.404-37.035 5.504 21.632 9.02 45.653 9.796 67.831l-7.876 43.059h50.705a8.525 8.525 0 0 1 8.533 8.533v53.948c0 31.42-25.566 56.986-56.986 56.986h-24.294c-2.381 18.202-3.977 35.755-3.977 51.2 0 .136.068.256.077.393.034.768.205 1.493.444 2.21.085.265.111.546.222.802.418.956.99 1.835 1.724 2.577.017.017.017.034.034.051.111.111.265.154.375.247.563.512 1.135 1.007 1.843 1.357.145.068.324.119.478.196.051.026.102.043.162.068 35.917 17.664 88.055 17.698 122.641 17.698s86.724-.034 122.641-17.698l.171-.077c.154-.068.324-.12.469-.188.708-.35 1.28-.845 1.843-1.357.111-.094.265-.137.375-.247.017-.009.017-.034.034-.043a8.62 8.62 0 0 0 1.724-2.586c.111-.256.137-.529.222-.802.239-.717.41-1.442.444-2.21.009-.137.077-.256.077-.393 0-15.471-1.596-33.016-3.968-51.2h-24.302c-31.42 0-56.986-25.566-56.986-56.986v-53.948a8.525 8.525 0 0 1 8.533-8.533h50.756l-7.927-43.059c.777-22.187 4.301-46.208 9.796-67.831 5.291 12.826 11.46 28.194 14.404 37.035 4.651 13.952 33.314 170.189 43.964 229.214a8.516 8.516 0 0 0 9.609 6.938l59.733-8.533a8.564 8.564 0 0 0 5.76-3.541 8.464 8.464 0 0 0 1.383-6.628zM296.267 68.266a665.772 665.772 0 0 1-4.514 17.639c-8.644 31.522-19.533 61.594-31.189 77.124-.068.085-.128.154-.188.239-1.399 1.843-2.816 3.473-4.233 4.872-.06.06-.111.137-.171.188-.034.034-.068.051-.111.085-13.534-13.065-27.895-48.631-40.371-100.147Zm-31.855 160.871v154.624a8.525 8.525 0 0 0-8.533-8.533 8.525 8.525 0 0 0-8.533 8.533V229.137c2.918.811 5.768 1.263 8.533 1.263 2.764 0 5.614-.452 8.533-1.263zM176.169 76.663c-1.118-1.357-2.065-2.85-2.867-4.429a10.586 10.586 0 0 1-.273-.555 26.755 26.755 0 0 1-2.611-10.539v-.213a27.667 27.667 0 0 1 .393-5.487c.964-5.325 3.499-10.368 7.561-14.293 3.439-3.362 7.364-7.194 11.52-10.419 2.347 12.672 6.434 32.845 12.16 54.622-.538.009-1.092.009-1.638.009-1.314-.009-2.628-.009-4.207-.026-1.86-.009-3.61-.222-5.308-.512-.486-.085-.964-.188-1.442-.29a27.11 27.11 0 0 1-4.164-1.289c-.205-.085-.427-.137-.623-.222-1.476-.648-2.825-1.459-4.104-2.372a13.984 13.984 0 0 1-.913-.683c-1.257-.989-2.443-2.056-3.484-3.302zm33.706 104.09a290.88 290.88 0 0 1-2.355-2.398c-.742-.759-1.459-1.519-2.176-2.27-.64-.666-1.28-1.331-1.903-1.988l-2.142-2.27-1.724-1.852c-.674-.734-1.348-1.459-1.997-2.167-.589-.631-1.161-1.263-1.724-1.877-.589-.648-1.186-1.297-1.749-1.911-.521-.572-1.007-1.118-1.502-1.664-.572-.631-1.161-1.28-1.698-1.877-.905-1.007-1.784-1.98-2.577-2.867l-4.403-4.898c-3.618-4.13-5.265-9.472-4.625-15.053.674-5.828 3.814-11.145 8.704-14.626l20.471-15.078a442.672 442.672 0 0 0 4.497 13.705c8.9 26.12 18.389 44.86 28.399 56.09.077.094.154.171.23.256 1.835 2.031 3.678 3.857 5.538 5.385.068.06.137.137.205.196v27.452a49.833 49.833 0 0 1-1.826-.879c-.486-.256-.973-.478-1.468-.76a61.464 61.464 0 0 1-3.234-1.954c-.444-.282-.879-.555-1.331-.853a105.811 105.811 0 0 1-3.695-2.586c-.589-.435-1.195-.913-1.784-1.365-.87-.666-1.732-1.323-2.603-2.031a117.27 117.27 0 0 1-2.014-1.655 132.073 132.073 0 0 1-2.458-2.074c-.7-.597-1.391-1.212-2.091-1.826a140.653 140.653 0 0 1-2.398-2.159c-.708-.64-1.417-1.289-2.125-1.946a198.986 198.986 0 0 1-2.415-2.287c-.674-.64-1.348-1.28-2.022-1.929a259.848 259.848 0 0 1-2.697-2.662 543.793 543.793 0 0 1-3.308-3.322zm98.407 299.486c.111.051.213.12.324.171 3.575 1.732 7.33 3.268 11.162 4.702.998.375 1.997.734 3.012 1.084 3.763 1.314 7.603 2.517 11.588 3.533.137.043.273.094.418.137-26.948 4.83-56.721 4.83-78.908 4.83-22.187 0-51.959 0-78.908-4.83.145-.043.282-.094.418-.137 3.985-1.015 7.825-2.219 11.588-3.533 1.015-.35 2.014-.708 3.012-1.084 3.831-1.434 7.586-2.97 11.162-4.702.111-.051.213-.12.324-.171 3.49-1.707 6.818-3.592 10.061-5.581.845-.512 1.681-1.041 2.509-1.57 3.26-2.108 6.417-4.301 9.387-6.673.051-.043.102-.094.154-.145 2.918-2.338 5.641-4.855 8.26-7.458.674-.666 1.34-1.34 1.997-2.022 2.586-2.705 5.069-5.487 7.33-8.431.034-.043.06-.085.094-.128 2.227-2.918 4.232-5.982 6.135-9.122.486-.802.964-1.613 1.425-2.432 1.843-3.243 3.567-6.545 5.052-10.001 1.485 3.456 3.209 6.758 5.052 10.001.461.819.939 1.63 1.425 2.432 1.903 3.14 3.908 6.204 6.135 9.122.034.043.06.085.094.128 2.261 2.944 4.745 5.726 7.33 8.431.657.683 1.323 1.357 1.997 2.022 2.62 2.603 5.342 5.12 8.26 7.458.051.051.102.102.154.145 2.97 2.372 6.127 4.565 9.387 6.673.828.529 1.664 1.058 2.509 1.57 3.243 1.988 6.571 3.874 10.061 5.581zm19.106-327.04-3.959 4.412c-.794.887-1.673 1.86-2.577 2.867-.563.631-1.186 1.314-1.801 1.988-.444.495-.879.981-1.348 1.493-.597.666-1.237 1.357-1.869 2.048-.538.589-1.084 1.178-1.638 1.783-.657.717-1.331 1.442-2.014 2.185l-1.724 1.852-2.142 2.27c-.623.657-1.263 1.323-1.903 1.988a284.62 284.62 0 0 1-2.176 2.27c-.725.751-1.468 1.502-2.21 2.253a365.19 365.19 0 0 1-3.627 3.635c-.836.828-1.664 1.655-2.509 2.475-.691.666-1.382 1.323-2.074 1.98-.794.751-1.587 1.51-2.381 2.253-.708.657-1.417 1.306-2.125 1.946-.794.734-1.596 1.451-2.398 2.159-.7.614-1.399 1.229-2.091 1.826-.819.708-1.63 1.391-2.441 2.065-.683.563-1.365 1.126-2.039 1.673-.87.7-1.724 1.357-2.586 2.014-.597.461-1.203.939-1.792 1.374a105.811 105.811 0 0 1-3.695 2.586c-.452.299-.887.572-1.331.853a61.464 61.464 0 0 1-3.234 1.954c-.503.282-.981.503-1.476.76-.614.316-1.22.606-1.818.879v-27.452c.068-.06.137-.137.205-.196 1.86-1.527 3.703-3.354 5.538-5.385.077-.085.154-.162.23-.256 10.01-11.23 19.499-29.969 28.399-56.09a442.672 442.672 0 0 0 4.497-13.705l20.582 15.155a20.86 20.86 0 0 1 8.593 14.549c.643 5.581-1.004 10.922-5.066 15.539zm13.96-92.169v.051a26.658 26.658 0 0 1-2.62 10.59c-.085.188-.179.384-.273.563-.802 1.579-1.749 3.072-2.867 4.429-1.041 1.246-2.227 2.313-3.482 3.302-.299.239-.597.469-.913.683-1.28.913-2.628 1.724-4.104 2.372-.196.085-.418.137-.623.222a27.178 27.178 0 0 1-4.164 1.289c-.478.102-.956.205-1.442.29-1.698.29-3.447.503-5.308.512-2.227.017-4.053.017-5.845.017 5.726-21.777 9.805-41.95 12.16-54.622 4.19 3.268 8.192 7.177 11.81 10.709 3.806 3.678 6.263 8.482 7.253 13.619.009.077-.008.145.009.222.341 1.912.478 3.841.409 5.752z" style="fill:#e64539;fill-opacity:1;filter:url(#a)" transform="translate(15.91 15.91) scale(.9383)"/></svg>