<svg height="512" width="512" style="enable-background:new 0 0 512 512" xml:space="preserve" xmlns="http://www.w3.org/2000/svg"><defs><filter style="color-interpolation-filters:sRGB" id="a" x="-.152" y="-.18" width="1.304" height="1.36"><feFlood flood-opacity="1" flood-color="#3A3F5E" result="flood"/><feComposite in="flood" in2="SourceGraphic" operator="out" result="composite1"/><feGaussianBlur in="composite1" stdDeviation="3" result="blur"/><feOffset result="offset"/><feComposite in="offset" in2="SourceGraphic" operator="atop" result="composite2"/></filter></defs><path d="M0 0h512v512H0Z" fill="#b90202" style="fill:#1b1f21;fill-opacity:1"/><g style="fill:#e64539;fill-opacity:1"><g style="fill:#e64539;fill-opacity:1;filter:url(#a)" transform="translate(18.76 18.775) scale(7.61642)"><g style="fill:#e64539;fill-opacity:1"><path d="m61.072 50.062-.526.29c-.268.147-6.692 3.627-17.688 3.627-4.118 0-8.374-.497-12.648-1.478-5.174-1.188-9.721-1.891-13.562-2.297-3.645-.386-6.654-.503-8.942-.503-3.902 0-6.031.334-6.053.337l-.829.133-.061-.154-.219-.56a32.54 32.54 0 0 0-.23 1.264 2.07 2.07 0 0 0-.133.901l.001.006c-.269 2.033-.298 3.882.337 3.769 1.292-.235 13.724.933 16.738.933 1.474 0 2.134-1.288 2.427-2.604 2.862.321 5.588.843 7.729 1.673 3.723 1.444 8.769 2.079 13.924 2.077 7.757 0 15.762-1.435 19.881-3.702a2.083 2.083 0 0 0 .818-2.831 2.071 2.071 0 0 0-.964-.881z" style="fill:#e64539;fill-opacity:1"/><path d="M1.112 47.2c.139 1.192.374 1.81.374 1.81s2.164-.35 6.218-.35c.728 0 1.525.013 2.373.039 2.842.09 6.347.353 10.458.938 1.332.189 2.727.413 4.185.675 1.814.328 3.719.715 5.72 1.172 4.606 1.057 8.765 1.451 12.417 1.451 10.854 0 17.187-3.496 17.187-3.496-.108-5.274-4.799-6.495-9.474-6.888a17.012 17.012 0 0 0-1.488-.057c-.993 0-2.003.054-3.012.054-2.82 0-5.622-.421-7.947-3.61a14.385 14.385 0 0 0-1.067 1.617c-.535.968-1.938-.033-1.407-.995.421-.76.93-1.452 1.459-2.128a23.822 23.822 0 0 0-3.059-3.627c-.814.671-1.481 1.541-2.066 2.434-.605.922-2.115.089-1.503-.842.66-1.005 1.409-1.977 2.301-2.765-.911-.806-1.7-1.462-2.286-2.106-1.254.788-2.34 1.85-3.286 2.996-.703.853-2.1-.157-1.391-1.017 1.076-1.304 2.324-2.54 3.765-3.448a3.104 3.104 0 0 1-.111-1.469c.068-.454.085-1.069.063-1.8a58.917 58.917 0 0 0-6.092.472c-1.099.146-1.084-1.578 0-1.722a58.922 58.922 0 0 1 5.988-.471c-.127-1.567-.348-3.409-.606-5.33-2.477-.019-4.937.121-7.377.675-1.082.245-1.541-1.416-.458-1.661 2.513-.57 5.045-.741 7.598-.735-.579-4.133-1.217-8.255-1.27-10.18-.042-1.572-1.172-2.019-2.949-2.019-2.331 0-5.775.767-9.347.767-.563 0-1.131-.019-1.697-.063a19.444 19.444 0 0 0-1.538-.061c-5.939 0-9.334 2.751-9.334 2.751s6.563 14.21 1.719 24.759C.939 40.021.83 44.798 1.112 47.2Z" style="fill:#e64539;fill-opacity:1"/></g></g></g></svg>