<svg height="512" width="512" style="enable-background:new 0 0 512 512" xml:space="preserve" xmlns="http://www.w3.org/2000/svg"><defs><filter style="color-interpolation-filters:sRGB" id="a" x="-.589" y="-.205" width="2.178" height="1.411"><feFlood flood-opacity="1" flood-color="#3A3F5E" result="flood"/><feComposite in="flood" in2="SourceGraphic" operator="out" result="composite1"/><feGaussianBlur in="composite1" stdDeviation="15" result="blur"/><feOffset result="offset"/><feComposite in="offset" in2="SourceGraphic" operator="atop" result="composite2"/></filter></defs><path d="M0 0h512v512H0Z" fill="#b90202" style="fill:#1b1f21;fill-opacity:1"/><path style="fill:#e64539;fill-opacity:1;filter:url(#a)" d="M123.22 483.6c44.861 0 85.788-22.5 116.596-59.347 13.232 35.985 31.757 59.347 55.38 59.347 95.567 0 173.317-102.103 173.317-227.6S390.764 28.4 295.197 28.4c-23.622 0-42.147 23.362-55.38 59.347C209.008 50.9 168.08 28.4 123.219 28.4c-52.347 0-79.733 114.499-79.733 227.6s27.385 227.6 79.733 227.6zm46.69-416.142c23.165 10.876 43.641 29.702 59.866 53.966 8.177 12.225 15.274 25.816 21.045 40.562 10.974 28.027 17.265 60.013 17.265 94.015s-6.292 65.988-17.265 94.015c-5.77 14.745-12.868 28.336-21.045 40.562-16.233 24.264-36.7 43.09-59.867 53.966.195-.382.374-.805.561-1.195a169.979 169.979 0 0 0 2.747-5.844c.293-.658.602-1.301.894-1.975a198.25 198.25 0 0 0 3.406-8.332c.146-.374.276-.78.423-1.154a233.136 233.136 0 0 0 2.74-7.665c.316-.943.633-1.902.942-2.861a271.793 271.793 0 0 0 2.09-6.674c.3-1 .602-2 .902-3.016a323.538 323.538 0 0 0 2.234-8.129c.154-.585.317-1.146.463-1.731a401.228 401.228 0 0 0 2.463-10.218c.211-.943.415-1.91.626-2.861a412.132 412.132 0 0 0 2.365-11.494c.497-2.585.968-5.202 1.432-7.836.195-1.105.39-2.203.577-3.325.618-3.699 1.21-7.43 1.756-11.209.065-.455.122-.927.187-1.382.48-3.365.927-6.771 1.357-10.201.154-1.252.3-2.512.447-3.772.325-2.747.626-5.503.91-8.283.138-1.317.276-2.634.398-3.95.3-3.089.577-6.202.829-9.323.073-.91.163-1.813.228-2.723.309-4.007.585-8.031.829-12.079.057-1.016.106-2.04.163-3.056.17-3.089.325-6.178.447-9.283.057-1.366.106-2.731.154-4.105.106-2.902.187-5.812.252-8.722.033-1.276.065-2.544.089-3.812.073-4.105.122-8.21.122-12.323 0-4.113-.05-8.218-.122-12.323a527.577 527.577 0 0 0-.09-3.812c-.064-2.91-.145-5.82-.251-8.722a771.065 771.065 0 0 0-.154-4.105c-.13-3.105-.285-6.194-.447-9.283-.057-1.016-.106-2.04-.163-3.056-.244-4.04-.512-8.072-.83-12.079-.072-.91-.153-1.813-.227-2.723a564.51 564.51 0 0 0-.83-9.323c-.13-1.325-.267-2.634-.397-3.95-.285-2.78-.593-5.536-.91-8.283-.146-1.26-.293-2.52-.447-3.772a560.09 560.09 0 0 0-1.357-10.201c-.065-.455-.122-.927-.187-1.382a498.649 498.649 0 0 0-1.756-11.209c-.187-1.114-.39-2.211-.577-3.325a495.283 495.283 0 0 0-2.147-11.494 412.132 412.132 0 0 0-1.65-7.836c-.21-.951-.406-1.918-.626-2.861a366.311 366.311 0 0 0-2.463-10.218c-.146-.585-.309-1.146-.463-1.731a323.538 323.538 0 0 0-2.235-8.129 165.883 165.883 0 0 0-.902-3.016 311.431 311.431 0 0 0-2.089-6.674c-.317-.959-.626-1.918-.943-2.861a256.04 256.04 0 0 0-2.739-7.665c-.146-.382-.276-.78-.423-1.154a210.26 210.26 0 0 0-3.406-8.332c-.293-.675-.593-1.309-.894-1.975-.894-2-1.813-3.95-2.747-5.844-.187-.41-.366-.833-.56-1.215zM440.063 256c0 87.366-41.132 161.767-98.178 188.534.187-.366.35-.772.536-1.138a169.731 169.731 0 0 0 2.812-5.975c.276-.626.57-1.227.845-1.861a200.574 200.574 0 0 0 3.43-8.381c.13-.333.244-.683.374-1.024a254.189 254.189 0 0 0 2.797-7.812c.309-.919.618-1.853.919-2.788a319.677 319.677 0 0 0 2.122-6.763c.293-.984.593-1.959.878-2.951.78-2.691 1.528-5.43 2.26-8.218.146-.553.3-1.089.447-1.65a371.734 371.734 0 0 0 2.463-10.242c.21-.935.406-1.886.618-2.829.569-2.593 1.122-5.21 1.65-7.868a434.616 434.616 0 0 0 2.145-11.502c.195-1.105.39-2.195.577-3.308a508.537 508.537 0 0 0 1.756-11.217c.065-.447.122-.91.187-1.357a535.993 535.993 0 0 0 1.804-13.99c.325-2.747.626-5.511.92-8.291.137-1.317.275-2.626.397-3.951.301-3.089.577-6.202.83-9.323.072-.91.162-1.813.227-2.723.31-4.007.585-8.031.83-12.079.057-1.016.106-2.04.163-3.056.17-3.089.325-6.178.447-9.283.057-1.366.106-2.731.154-4.105.106-2.902.187-5.812.252-8.722.033-1.276.065-2.544.089-3.812.073-4.105.122-8.21.122-12.323 0-4.113-.05-8.218-.122-12.323a527.577 527.577 0 0 0-.09-3.812c-.065-2.91-.146-5.82-.252-8.722a771.065 771.065 0 0 0-.154-4.105c-.13-3.105-.285-6.194-.447-9.283-.057-1.016-.106-2.04-.163-3.056a646.042 646.042 0 0 0-.829-12.079c-.073-.91-.154-1.813-.228-2.723-.26-3.121-.528-6.235-.829-9.323-.13-1.325-.268-2.634-.398-3.95-.285-2.78-.593-5.544-.919-8.291a602.854 602.854 0 0 0-.447-3.764 564.108 564.108 0 0 0-1.357-10.226c-.065-.447-.122-.91-.187-1.357a549.904 549.904 0 0 0-1.756-11.217c-.187-1.114-.382-2.203-.577-3.308a515.863 515.863 0 0 0-1.43-7.86c-.237-1.219-.472-2.43-.716-3.642a402.906 402.906 0 0 0-1.65-7.868c-.203-.943-.406-1.894-.618-2.829a399.024 399.024 0 0 0-2.462-10.242c-.146-.561-.301-1.097-.447-1.65a331.852 331.852 0 0 0-2.26-8.218c-.284-.992-.585-1.975-.878-2.951a313.96 313.96 0 0 0-2.122-6.763c-.31-.935-.61-1.87-.92-2.788a242.992 242.992 0 0 0-2.795-7.812c-.13-.333-.244-.691-.374-1.024a201.944 201.944 0 0 0-3.43-8.381c-.276-.634-.561-1.236-.845-1.861a171.485 171.485 0 0 0-2.813-5.974c-.187-.366-.35-.772-.536-1.138C398.94 94.233 440.063 168.634 440.063 256zM295.194 56.85c17.411 0 51.291 70.288 51.291 199.15 0 128.862-33.88 199.15-51.29 199.15-9.438 0-23.696-20.825-34.79-60.29 22.63-38.456 36.14-86.61 36.14-138.86 0-52.25-13.51-100.404-36.14-138.86 11.094-39.465 25.352-60.29 34.79-60.29zm-171.976 0c17.411 0 51.291 70.288 51.291 199.15 0 128.862-33.88 199.15-51.29 199.15-17.412 0-51.284-70.288-51.284-199.15 0-128.862 33.871-199.15 51.283-199.15z"/><path style="fill:#e64539;fill-opacity:1;filter:url(#a)" d="M222.03 350.007c6.096 3.26 13.843 2.536 17.64-5.568 3.113-6.625 5.576-13.274 7.747-19.948 9.201-28.239 10.9-57.054 10.924-87.602.008-8.925-6.674-13.493-13.583-13.802-7.405-.333-15.07 4.243-15.079 13.802-.024 29.035-.772 57.266-11.136 84.31-1.122 2.934-2.268 5.869-3.633 8.779-4.016 8.576.625 16.558 7.12 20.029zm189.616-5.568c16.265-34.644 18.647-69.784 18.679-107.549.016-18.484-28.653-18.484-28.661 0-.024 32.189-.83 63.403-14.761 93.088-7.813 16.623 16.89 31.19 24.742 14.461z"/></svg>