<svg height="512" width="512" style="enable-background:new 0 0 512 512" xml:space="preserve" xmlns="http://www.w3.org/2000/svg"><defs><filter style="color-interpolation-filters:sRGB" id="a" x="-.334" y="-.334" width="1.669" height="1.669"><feFlood flood-opacity="1" flood-color="#3A3F5E" result="flood"/><feComposite in="flood" in2="SourceGraphic" operator="out" result="composite1"/><feGaussianBlur in="composite1" stdDeviation="7" result="blur"/><feOffset result="offset"/><feComposite in="offset" in2="SourceGraphic" operator="atop" result="composite2"/></filter></defs><path d="M0 0h512v512H0Z" fill="#b90202" style="fill:#1b1f21;fill-opacity:1"/><path d="M492.773 290.106c-9.177-9.19-11.429-12.247-27.158-19.485-19.625-9.412-44.873-14.484-74.634-14.484-40.841 0-73.189 9.651-94.139 26.818-7.855-2.94-24.175-8.166-40.843-8.166-11.854 0-24.334 2.623-30.718 4.183-4.457 1.09-8.134 2.103-11.132 3.178-20.975-16.653-52.945-25.969-93.132-25.969-29.761 0-55.009 5.118-74.634 14.531-12.759 6.168-20.497 10.851-27.156 19.303C6.755 303.332 0 320.221 0 339.919c0 27.613 12.984 55.785 35.623 77.257 23.439 22.232 53.766 34.487 85.395 34.487 31.63 0 61.957-12.238 85.396-34.469 22.639-21.472 35.623-49.618 35.623-77.232 0-16.307-4.627-30.658-13.295-42.673 7.691-1.931 18.175-3.87 27.259-3.87 9.698 0 19.55 2.283 26.818 4.483-8.384 11.89-12.855 26.033-12.855 42.064 0 27.613 12.984 55.763 35.623 77.234 23.439 22.232 53.766 34.475 85.395 34.475 31.63 0 61.957-12.243 85.396-34.475C499.016 395.727 512 367.577 512 339.964c0-19.697-6.754-36.541-19.227-49.858zM121.018 433.055c-48.339 0-102.4-39.811-102.4-93.091 0-60.465 78.377-65.164 102.4-65.164 24.023 0 102.4 4.699 102.4 65.164 0 53.28-54.061 93.091-102.4 93.091zm269.964 0c-48.339 0-102.4-39.811-102.4-93.091 0-60.465 78.377-65.164 102.4-65.164 24.023 0 102.4 4.699 102.4 65.164 0 53.28-54.062 93.091-102.4 93.091z" style="fill:#e64539;fill-opacity:1;filter:url(#a)" transform="translate(12.158 -81.099) scale(.9525)"/><path d="M86.171 305.454c-3.632-3.634-9.532-3.634-13.164 0l-23.734 23.734a9.31 9.31 0 0 0 13.164 13.166l23.734-23.734a9.31 9.31 0 0 0 0-13.166zm269.963 0c-3.632-3.634-9.532-3.634-13.164 0l-23.734 23.734a9.31 9.31 0 0 0 13.164 13.166l23.734-23.734a9.307 9.307 0 0 0 0-13.166zm-209.916-9.309c-3.632-3.634-9.532-3.634-13.164 0l-74.473 74.473a9.31 9.31 0 0 0 13.164 13.166l74.473-74.473a9.307 9.307 0 0 0 0-13.166zm269.964 0c-3.632-3.634-9.532-3.634-13.164 0l-74.473 74.473a9.31 9.31 0 0 0 13.164 13.166l74.473-74.473a9.31 9.31 0 0 0 0-13.166z" style="fill:#e64539;fill-opacity:1;filter:url(#a)" transform="translate(12.158 -81.099) scale(.9525)"/></svg>