<svg version="1.2" viewBox="-421 153 512 512" xml:space="preserve" width="512" height="512" xmlns="http://www.w3.org/2000/svg"><defs><filter style="color-interpolation-filters:sRGB" id="a" x="-.052" y="-.042" width="1.104" height="1.084"><feFlood flood-opacity="1" flood-color="#3A3F5E" result="flood"/><feComposite in="flood" in2="SourceGraphic" operator="out" result="composite1"/><feGaussianBlur in="composite1" stdDeviation="8.556" result="blur"/><feOffset result="offset"/><feComposite in="offset" in2="SourceGraphic" operator="atop" result="composite2"/></filter></defs><path d="M0 0h512v512H0Z" fill="#b90202" style="fill:#1b1f21;fill-opacity:1" transform="translate(-421 153)"/><path style="fill:#e64539;fill-opacity:1;stroke-width:3.85001;filter:url(#a)" d="m333.43 7.186-80.207.068h-.002l-77.637-.065s11.344 80.403 77.82 80.403c68.162 0 80.026-80.406 80.026-80.406zm-176.758 99.45a98.26 98.26 0 0 0-98.563 98.561v241.01c0 18.865 15.016 34.65 34.65 34.65 19.636 0 34.651-15.015 34.651-34.65V224.832c0-5.39 4.622-10.01 10.012-10.01 5.39 0 10.008 4.62 10.008 10.01v273.4h98.56v-16.605c0-5.39 4.622-10.01 10.012-10.01 5.39 0 10.008 4.62 10.008 10.01v16.605h98.558v-273.4c0-5.39 4.622-10.01 10.012-10.01 5.39 0 10.01 4.62 10.01 10.01v221.76c0 18.865 15.015 34.65 34.65 34.65 19.635 0 34.65-15.015 34.65-34.65V205.197c-1.54-54.67-46.586-98.56-100.1-98.56zm32.283 47.505h56.32a3.3 3.3 0 0 1 1.83.554l8.729 5.82 8.73-5.82a3.298 3.298 0 0 1 1.83-.554h56.319a3.299 3.299 0 0 1 2.865 4.938l-1.2 2.103h8.896c5.701 0 10.34 4.638 10.34 10.34 0 3.648-1.902 6.858-4.764 8.699l5.808 23.236c5.317.422 9.514 4.88 9.514 10.303 0 4.548-2.951 8.416-7.039 9.797v19.127c4.088 1.38 7.04 5.249 7.04 9.796v2.74l3.171 6.344c.392.783.456 1.689.18 2.52l-3.52 10.56a3.302 3.302 0 0 1-6.262-2.087l3.088-9.264-1.996-3.992h-10.002l-1.996 3.992 3.088 9.264a3.3 3.3 0 0 1-6.262 2.088l-3.52-10.561a3.3 3.3 0 0 1 .18-2.52l3.17-6.343v-2.74c0-4.548 2.954-8.417 7.041-9.797v-19.127c-4.087-1.381-7.04-5.25-7.04-9.797 0-3.649 1.902-6.859 4.765-8.7l-5.8-23.199H312.56l-1.063 1.858a3.3 3.3 0 0 1-2.865 1.662h-14.299v7.48h3.74c5.702 0 10.34 4.639 10.34 10.34 0 4.548-2.953 8.416-7.04 9.797v47.143c6.053 1.485 10.56 6.953 10.56 13.459 0 5.213-2.895 9.76-7.16 12.127l-3.114 37.377a3.298 3.298 0 0 1 2.764 1.597l10.559 17.6a3.3 3.3 0 0 1-2.828 4.998h-3.74v3.959h7.26a3.3 3.3 0 0 1 0 6.6h-35.2a3.3 3.3 0 1 1 0-6.6h7.26v-3.96h-3.74a3.301 3.301 0 0 1-3.301-3.3v-17.6a3.3 3.3 0 0 1 3.3-3.298h.22v-46.2h-7.26a3.3 3.3 0 0 1-3.3-3.3 3.3 3.3 0 0 1 3.3-3.301h7.26v-6.932l-9.966-49.826h-4.334a3.3 3.3 0 0 1-2.64-5.281l3.96-5.28h-6.97l-2.647 4.233a6.783 6.783 0 0 1-5.783 3.207 6.782 6.782 0 0 1-5.783-3.207l-2.646-4.233h-6.971l3.96 5.28a3.3 3.3 0 0 1-2.64 5.281h-4.334l-9.965 49.826v6.932h7.26a3.3 3.3 0 0 1 3.299 3.3 3.3 3.3 0 0 1-3.299 3.301h-7.26v46.2h.22a3.3 3.3 0 0 1 3.3 3.298v17.6a3.3 3.3 0 0 1-3.3 3.3h-3.74v3.96h7.26a3.3 3.3 0 0 1 3.3 3.3 3.3 3.3 0 0 1-3.3 3.301h-35.2a3.3 3.3 0 0 1-3.3-3.3 3.3 3.3 0 0 1 3.3-3.301h7.261v-3.96h-3.74a3.299 3.299 0 0 1-2.83-4.997l10.56-17.6a3.298 3.298 0 0 1 2.764-1.597l-3.115-37.377c-4.265-2.366-7.16-6.914-7.16-12.127 0-6.506 4.506-11.975 10.56-13.46v-47.142c-4.087-1.38-7.039-5.25-7.039-9.797 0-5.701 4.639-10.34 10.34-10.34h3.738v-7.48h-14.299a3.299 3.299 0 0 1-2.865-1.662l-1.06-1.858h-19.897l-5.8 23.198c2.862 1.84 4.763 5.052 4.763 8.7 0 4.549-2.953 8.417-7.041 9.798v19.127c4.088 1.38 7.041 5.249 7.041 9.796v2.74l3.172 6.344c.391.783.454 1.69.178 2.52l-3.52 10.56a3.302 3.302 0 0 1-6.262-2.087l3.088-9.264-1.996-3.994h-10l-1.998 3.994 3.088 9.264a3.3 3.3 0 1 1-6.26 2.088l-3.521-10.561a3.3 3.3 0 0 1 .18-2.52l3.171-6.343v-2.74c0-4.548 2.952-8.417 7.04-9.797v-19.127c-4.088-1.381-7.04-5.25-7.04-9.797 0-5.424 4.198-9.88 9.514-10.303l5.809-23.236c-2.863-1.841-4.764-5.051-4.764-8.7 0-5.701 4.638-10.34 10.34-10.34h8.896l-1.2-2.103a3.3 3.3 0 0 1 2.865-4.938zm5.688 6.601 10.306 18.04h22.44l-2.577-18.04zm36.837 0 2.577 18.04h4.177a3.3 3.3 0 0 1 2.8 1.55l14.614 23.383c.025.039.064.103.186.103s.163-.064.187-.103l14.614-23.383a3.3 3.3 0 0 1 2.799-1.55h4.177l2.578-18.04h-12.796l-8.258 5.506v6.863a6.375 6.375 0 0 1 3.08 5.45 6.389 6.389 0 0 1-6.381 6.38 6.387 6.387 0 0 1-6.379-6.38 6.375 6.375 0 0 1 3.08-5.45v-6.863l-8.26-5.506zm55.375 0-2.576 18.04h22.44l10.308-18.04zM191 167.67a3.3 3.3 0 0 1-.834.111h-11.771a3.743 3.743 0 0 0-3.739 3.74 3.743 3.743 0 0 0 3.739 3.74h16.943zm129.668 0-4.336 7.592h16.941a3.745 3.745 0 0 0 3.74-3.74 3.745 3.745 0 0 0-3.74-3.74h-11.77c-.288 0-.568-.043-.835-.112zm-96.732 17.71v7.481h7.26c1.038 0 2.014.49 2.638 1.32l1.65 2.2h7.795l-6.875-11h-5.223zm51.328 0-6.875 11h7.795l1.65-2.198a3.301 3.301 0 0 1 2.64-1.32h7.26v-7.481h-7.262zm-61.668 14.08a3.745 3.745 0 0 0-3.74 3.741 3.745 3.745 0 0 0 3.74 3.74h21.558l-5.61-7.48zm68.527 0-5.61 7.481h21.561a3.745 3.745 0 0 0 3.74-3.74h-.001a3.743 3.743 0 0 0-3.739-3.74zm-114.287 10.56a3.745 3.745 0 0 0-3.74 3.74 3.745 3.745 0 0 0 3.74 3.74 3.745 3.745 0 0 0 3.74-3.74 3.745 3.745 0 0 0-3.74-3.74zm175.996 0a3.743 3.743 0 0 0-3.738 3.74 3.743 3.743 0 0 0 3.738 3.74 3.745 3.745 0 0 0 3.74-3.74 3.745 3.745 0 0 0-3.74-3.74zm-126.937 3.521v46.2h4.554l9.24-46.2zm64.084 0 9.24 46.2h4.554v-46.2zm-113.143 35.2a3.745 3.745 0 0 0-3.74 3.74v.218h7.48v-.219a3.745 3.745 0 0 0-3.74-3.74zm175.996 0a3.743 3.743 0 0 0-3.738 3.74v.218h7.478v-.219a3.745 3.745 0 0 0-3.74-3.74zM213.596 266.34c-4.003 0-7.26 3.257-7.26 7.26s3.257 7.26 7.26 7.26h7.26v-14.52zm77.218 0v14.52h7.26c4.003 0 7.26-3.257 7.26-7.26s-3.257-7.26-7.26-7.26zm-77.152 21.119 2.969 35.64h4.224v-35.64zm77.152 0v35.64h4.223l2.97-35.64zm-78.87 42.24-6.6 11h19.031v-11h-10.787zm75.349 0v11h19.031l-6.6-11h-1.652zm-77.438 17.6v3.959h7.479v-3.96zm84.479 0v3.959h7.48v-3.96z" transform="translate(-421 153)"/><path fill="none" d="M-705.86 5.688h415.085v415.085H-705.86Z"/></svg>