<svg width="512" height="512" xml:space="preserve" xmlns="http://www.w3.org/2000/svg"><defs><filter style="color-interpolation-filters:sRGB" id="a" x="-.086" y="-.105" width="1.173" height="1.211"><feFlood flood-opacity="1" flood-color="#3A3F5E" result="flood"/><feComposite in="flood" in2="SourceGraphic" operator="out" result="composite1"/><feGaussianBlur in="composite1" stdDeviation="15" result="blur"/><feOffset result="offset"/><feComposite in="offset" in2="SourceGraphic" operator="atop" result="composite2"/></filter></defs><path d="M0 0h512v512H0Z" fill="#b90202" style="fill:#1b1f21;fill-opacity:1"/><path d="M407.926 104.238v76.015L369.92 218.26l-38.008-38.007h-189.53l-38.007 38.007-38.007-38.007v-76.015L28.36 142.246V255.76l56.758 56.757h18.75v38.514l38.007 38.007v18.75l38.007 38.007h113.515l38.008-38.007v-18.75l38.007-38.007v-38.007h18.75l56.757-56.758V142.245Zm-189.53 246.795-18.75 18.749h-38.515l-18.75-18.75v-37.499l18.75-.002h18.75l18.75 18.75h18.749zm113.515 0-18.749 18.749h-37.5l-19.765-18.75v-18.749h18.75l18.749-18.75 19.766-.001h18.749z" style="fill:#e64539;fill-opacity:1;stroke-width:.422304;filter:url(#a)" transform="translate(-17.36 -61.694) scale(1.15518)"/></svg>