<svg xmlns="http://www.w3.org/2000/svg" width="512" height="512"><defs><filter id="a" height="300%" width="300%" x="-100%" y="-100%"><feFlood flood-color="rgba(58, 63, 94, 1)" result="flood"/><feComposite in="flood" in2="SourceGraphic" operator="out" result="composite"/><feGaussianBlur in="composite" stdDeviation="15" result="blur"/><feOffset result="offset"/><feComposite in2="SourceGraphic" in="offset" operator="atop"/></filter></defs><path d="M0 0h512v512H0z" fill="#1b1f21"/><path d="M257.75 16.03A60 60 0 0 0 196 76a60 60 0 0 0 120 0 60 60 0 0 0-58.25-59.97zM250.72 166c-24.72.11-24.72 1.875-24.72 30v210h-60l90 90 90-90h-60V196c0-30 0-30-30-30-1.875 0-3.633-.007-5.28 0z" fill="#e64539" filter="url(#a)"/></svg>