<svg width="512" height="512" xml:space="preserve" xmlns="http://www.w3.org/2000/svg"><defs><filter style="color-interpolation-filters:sRGB" id="a" x="-.097" y="-.089" width="1.195" height="1.177"><feFlood flood-opacity="1" flood-color="#3A3F5E" result="flood"/><feComposite in="flood" in2="SourceGraphic" operator="out" result="composite1"/><feGaussianBlur in="composite1" stdDeviation="15" result="blur"/><feOffset result="offset"/><feComposite in="offset" in2="SourceGraphic" operator="atop" result="composite2"/></filter></defs><path d="M0 0h512v512H0Z" fill="#b90202" style="fill:#1b1f21;fill-opacity:1"/><path d="m158.175 72.15-45.627 35.42-60.753 120.407L74.18 329.81l54.111 26.936 31.238 121.14 14.388-55.587 15.622 31.36 15.74-31.36 15.617 31.36 15.622-31.36.123.24.124-.24 15.616 31.36L268 422.298l15.745 31.36 15.617-31.36 14.388 55.586 31.239-121.14L399.1 329.81l22.382-101.832L360.73 107.57l-45.627-35.42 12.175 46.493-41.077 21.646h-99.126l-41.077-21.646L158.17 72.15zm-5.657 136.028 33.823 11.803 14.019 28.41-9.225 35.666-38.615 4.429-33.82-11.68-14.02-28.413 9.713-34.19 38.127-6.022zm168.245 0 38.126 6.023 9.713 34.189-14.018 28.413-33.824 11.68-38.615-4.429-9.224-35.667 14.02-28.409 33.82-11.803zm-84.12 87.496 24.718 42.802-2.213 18.079-22.505-7.377-22.51 7.377-2.213-18.08z" style="fill:#e64539;fill-opacity:1;stroke-width:.563729;filter:url(#a)" transform="translate(-17.36 -61.694) scale(1.15518)"/></svg>