<svg xmlns="http://www.w3.org/2000/svg" width="512" height="512"><path style="fill:#fff" d="m35.546 419.957 53.033 53.033L481.023 80.546 427.99 27.513 403.24 52.26l10.607 10.607-3.536 3.535-10.606-10.606-24.75 24.749 24.75 24.748-3.536 3.536L371.42 84.08l-24.748 24.749 10.606 10.607-3.535 3.535-10.607-10.607-24.749 24.75 24.75 24.748-3.536 3.535-24.75-24.748-24.748 24.748 10.607 10.607-3.536 3.536-10.606-10.607-24.75 24.749 24.75 24.748-3.536 3.536-24.749-24.749-24.748 24.749 10.606 10.607-3.535 3.535L230 225.503l-24.749 24.748L230 275l-3.536 3.536-24.748-24.75-24.749 24.75 10.607 10.606-3.536 3.536-10.607-10.607-24.748 24.749 24.748 24.749-3.535 3.535-24.749-24.749-24.749 24.75 10.607 10.606-3.535 3.535-10.607-10.606-24.749 24.748 24.749 24.75-3.536 3.535-24.748-24.75-24.75 24.75 10.608 10.606-3.536 3.536-10.607-10.607z"/><text xml:space="preserve" style="font-style:normal;font-weight:400;font-size:40px;line-height:1.25;font-family:sans-serif;fill:#fff;fill-opacity:1;stroke:none" x="94.193" y="235.662"><tspan x="94.193" y="235.662" style="font-size:192px;fill:#fff">D</tspan></text><text xml:space="preserve" style="font-style:normal;font-weight:400;font-size:40px;line-height:1.25;font-family:sans-serif;fill:#fff;fill-opacity:1;stroke:none" x="286.919" y="432.277"><tspan x="286.919" y="432.277" style="font-size:192px;fill:#fff">V</tspan></text></svg>