<svg style="height:512px;width:512px" width="512" height="512" xmlns="http://www.w3.org/2000/svg"><defs><filter style="color-interpolation-filters:sRGB" id="a" x="-.128" y="-.138" width="1.256" height="1.275"><feFlood flood-opacity="1" flood-color="#3A3F5E" result="flood"/><feComposite in="flood" in2="SourceGraphic" operator="out" result="composite1"/><feGaussianBlur in="composite1" stdDeviation="15" result="blur"/><feOffset result="offset"/><feComposite in="offset" in2="SourceGraphic" operator="atop" result="composite2"/></filter></defs><path d="M0 0h512v512H0z" fill="#1b1f21"/><path d="M471.207 132.683H455.33v-29.684H471V25H41v78h112.33v29.684H41.207v78h131.875v29.802H298.26c-.39-.654-.676-1.377-.676-2.195v-25.316a4.37 4.37 0 0 1 8.74 0v25.316c0 .818-.284 1.54-.675 2.195h11.277c-.39-.654-.678-1.377-.678-2.195v-25.316a4.37 4.37 0 0 1 8.74 0v25.316c0 .818-.284 1.54-.675 2.195h15.148a26.752 26.752 0 0 1-4.484-14.861c0-3.484.662-6.883 1.967-10.101a26.693 26.693 0 0 1 5.898-8.89 26.693 26.693 0 0 1 8.889-5.898 26.758 26.758 0 0 1 10.101-1.968c3.485 0 6.883.663 10.102 1.968a26.701 26.701 0 0 1 8.889 5.899 26.693 26.693 0 0 1 5.898 8.889 26.754 26.754 0 0 1 1.969 10.101 26.754 26.754 0 0 1-4.486 14.861h70.878v-29.802h16.125v-78zm-.273 107.804h-86.73a26.933 26.933 0 0 1-3.381 4.127 26.693 26.693 0 0 1-8.889 5.899 26.753 26.753 0 0 1-10.102 1.967c-3.483 0-6.882-.662-10.101-1.967a26.698 26.698 0 0 1-8.889-5.899 26.923 26.923 0 0 1-3.38-4.127H324.31c-.763 1.276-2.097 2.174-3.691 2.174-1.595 0-2.93-.897-3.694-2.174h-11.28c-.762 1.276-2.098 2.174-3.692 2.174-1.595 0-2.929-.898-3.692-2.174H40.934v78h112.162v29.836H40.706v78h430v-78h-15.61v-29.836h15.838v-78zm-53.727 20.803c0 3.116-1.213 6.048-3.414 8.254l-8.322 8.342a11.612 11.612 0 0 1-8.26 3.433 11.607 11.607 0 0 1-8.267-3.414l-6.572-6.56a11.61 11.61 0 0 1-3.434-8.274c0-3.116 1.213-6.048 3.414-8.254l8.322-8.341c4.551-4.562 11.966-4.572 16.53-.02l6.57 6.56a11.61 11.61 0 0 1 3.433 8.274zm-.06-68.988v.002a4.37 4.37 0 0 1-7.463 3.08l-17.883-17.924a4.354 4.354 0 0 1-1.275-3.086 4.372 4.372 0 0 1 7.465-3.086l17.88 17.924a4.353 4.353 0 0 1 1.276 3.09zm-8.68 68.986c0-.755-.288-1.51-.865-2.086l-6.572-6.56a2.948 2.948 0 0 0-4.168.004l-8.322 8.343a2.94 2.94 0 0 0-.862 2.082c0 .756.289 1.511.865 2.086l6.575 6.56a2.946 2.946 0 0 0 4.166-.003l8.324-8.344c.574-.575.86-1.327.86-2.08v-.002zm-4.533-55.803a4.37 4.37 0 0 1-7.463 3.08l-17.88-17.923a4.356 4.356 0 0 1-1.278-3.086 4.37 4.37 0 0 1 7.463-3.086l17.883 17.924a4.357 4.357 0 0 1 1.275 3.091zm-23.984 20.14a18.06 18.06 0 0 0-5.307-12.811c-7.075-7.075-18.546-7.075-25.621 0a18.06 18.06 0 0 0-5.305 12.81 18.06 18.06 0 0 0 5.305 12.81c.782.782 1.635 1.443 2.512 2.051h20.597c.877-.608 1.73-1.269 2.512-2.05a18.06 18.06 0 0 0 5.307-12.81zm-7.82 14.862h-20.594a18.08 18.08 0 0 0 20.593 0zm-99.923-77.804v18h-48l-4-18h52zM272 54.999v18h-52l4-18h48zm-.066 215.488v18h-52l4-18h48zm-.228 107.836v18h-48l-4-18h52zm-75.499-215.64-4 18h-48v-18h52zM196 72.999h-52V55h48l4 18zm-.066 215.488h-52v-18h48l4 18zm-.228 89.836-4 18h-48v-18h52zm-83.499-215.64v18h-48v-18h48zM112 54.999v18H64V55h48zm-.066 215.488v18h-48v-18h48zm-.228 107.836v18h-48v-18h48z" style="fill:#e64539;fill-opacity:1;filter:url(#a)" transform="rotate(-90 269.136 238.798)"/></svg>