<svg width="512" height="512" version="1.1" id="svg8" xml:space="preserve" xmlns="http://www.w3.org/2000/svg"><defs id="defs12"><filter style="color-interpolation-filters:sRGB" id="filter875" x="-.313" y="-.169" width="1.609" height="1.328"><feFlood flood-opacity="1" flood-color="#3A3F5E" result="flood" id="feFlood865"/><feComposite in="flood" in2="SourceGraphic" operator="out" result="composite1" id="feComposite867"/><feGaussianBlur in="composite1" stdDeviation="15" result="blur" id="feGaussianBlur869"/><feOffset dx="0" dy="0" result="offset" id="feOffset871"/><feComposite in="offset" in2="SourceGraphic" operator="atop" result="composite2" id="feComposite873"/></filter><filter style="color-interpolation-filters:sRGB" id="filter1015" x="-.082" y="-.044" width="1.164" height="1.088"><feFlood flood-opacity="1" flood-color="#3A3F5E" result="flood" id="feFlood1005"/><feComposite in="flood" in2="SourceGraphic" operator="out" result="composite1" id="feComposite1007"/><feGaussianBlur in="composite1" stdDeviation="8.302" result="blur" id="feGaussianBlur1009"/><feOffset dx="0" dy="0" result="offset" id="feOffset1011"/><feComposite in="offset" in2="SourceGraphic" operator="atop" result="composite2" id="feComposite1013"/></filter><filter style="color-interpolation-filters:sRGB" id="filter35638" x="-.057" y="-.131" width="1.114" height="1.261"><feFlood flood-opacity="1" flood-color="#3A3F5E" result="flood" id="feFlood35628"/><feComposite in="flood" in2="SourceGraphic" operator="out" result="composite1" id="feComposite35630"/><feGaussianBlur in="composite1" stdDeviation="6" result="blur" id="feGaussianBlur35632"/><feOffset dx="0" dy="0" result="offset" id="feOffset35634"/><feComposite in="offset" in2="SourceGraphic" operator="atop" result="composite2" id="feComposite35636"/></filter><filter style="color-interpolation-filters:sRGB" id="filter35813" x="-.053" y="-.07" width="1.107" height="1.139"><feFlood flood-opacity="1" flood-color="#3A3F5E" result="flood" id="feFlood35803"/><feComposite in="flood" in2="SourceGraphic" operator="out" result="composite1" id="feComposite35805"/><feGaussianBlur in="composite1" stdDeviation="8" result="blur" id="feGaussianBlur35807"/><feOffset dx="0" dy="0" result="offset" id="feOffset35809"/><feComposite in="offset" in2="SourceGraphic" operator="atop" result="composite2" id="feComposite35811"/></filter><filter style="color-interpolation-filters:sRGB" id="filter36051" x="-.028" y="-.039" width="1.056" height="1.078"><feFlood flood-opacity="1" flood-color="#3A3F5E" result="flood" id="feFlood36041"/><feComposite in="flood" in2="SourceGraphic" operator="out" result="composite1" id="feComposite36043"/><feGaussianBlur in="composite1" stdDeviation="6" result="blur" id="feGaussianBlur36045"/><feOffset dx="0" dy="0" result="offset" id="feOffset36047"/><feComposite in="offset" in2="SourceGraphic" operator="atop" result="composite2" id="feComposite36049"/></filter><filter style="color-interpolation-filters:sRGB" id="filter36715" x="-.07" y="-.091" width="1.139" height="1.182"><feFlood flood-opacity="1" flood-color="#3A3F5E" result="flood" id="feFlood36705"/><feComposite in="flood" in2="SourceGraphic" operator="out" result="composite1" id="feComposite36707"/><feGaussianBlur in="composite1" stdDeviation="16.201" result="blur" id="feGaussianBlur36709"/><feOffset dx="0" dy="0" result="offset" id="feOffset36711"/><feComposite in="offset" in2="SourceGraphic" operator="atop" result="composite2" id="feComposite36713"/></filter><filter style="color-interpolation-filters:sRGB" id="filter37057" x="-.08" y="-.075" width="1.16" height="1.15"><feFlood flood-opacity="1" flood-color="#3A3F5E" result="flood" id="feFlood37047"/><feComposite in="flood" in2="SourceGraphic" operator="out" result="composite1" id="feComposite37049"/><feGaussianBlur in="composite1" stdDeviation=".5" result="blur" id="feGaussianBlur37051"/><feOffset dx="0" dy="0" result="offset" id="feOffset37053"/><feComposite in="offset" in2="SourceGraphic" operator="atop" result="composite2" id="feComposite37055"/></filter><filter style="color-interpolation-filters:sRGB" id="filter3381" x="-.059" y="-.112" width="1.119" height="1.223"><feFlood flood-opacity="1" flood-color="#3A3F5E" result="flood" id="feFlood3371"/><feComposite in="flood" in2="SourceGraphic" operator="out" result="composite1" id="feComposite3373"/><feGaussianBlur in="composite1" stdDeviation="15" result="blur" id="feGaussianBlur3375"/><feOffset dx="0" dy="0" result="offset" id="feOffset3377"/><feComposite in="offset" in2="SourceGraphic" operator="atop" result="composite2" id="feComposite3379"/></filter><filter style="color-interpolation-filters:sRGB" id="filter49966" x="-.056" y="-.027" width="1.113" height="1.054"><feFlood flood-opacity="1" flood-color="#3A3F5E" result="flood" id="feFlood49956"/><feComposite in="flood" in2="SourceGraphic" operator="out" result="composite1" id="feComposite49958"/><feGaussianBlur in="composite1" stdDeviation="15" result="blur" id="feGaussianBlur49960"/><feOffset dx="0" dy="0" result="offset" id="feOffset49962"/><feComposite in="offset" in2="SourceGraphic" operator="atop" result="composite2" id="feComposite49964"/></filter></defs><path d="M0 0h512v512H0z" fill="#b90202" fill-opacity="1" id="path2" style="fill:#1b1f21;fill-opacity:1"/><style type="text/css" id="style35976">.st0{fill:#000}</style><g id="g48894" transform="translate(37.768 186.516) scale(.36372)" style="fill:#e64539;fill-opacity:1;filter:url(#filter49966)"><path id="path48886" d="M343.995-477.704c-42.137 0-42.137 100.008 0 100.008h42.859v284.811h51.52v-172.413h19.938v172.413h283.37v-284.811h19.93v284.811h51.526v-284.811h42.85c42.155 0 42.155-100.008 0-100.008zm20.337 409.98c-42.155 0-42.155 100.018 0 100.018h471.329c42.156 0 42.156-100.017 0-100.017zm22.525 125.18v270.966H334.32c-29.438 0-53.136 23.697-53.136 53.135v70.85h123.8a11.795 11.795 0 0 1 8.455 3.396 11.802 11.802 0 0 1 0 16.818 11.799 11.799 0 0 1-8.455 3.401h-123.8v23.618h123.8v-.004a11.812 11.812 0 0 1 11.976 11.809 11.812 11.812 0 0 1-11.976 11.809h-123.8v23.616h123.8a11.796 11.796 0 0 1 8.455 3.399 11.795 11.795 0 0 1 3.52 8.41c0 3.16-1.266 6.187-3.52 8.406a11.796 11.796 0 0 1-8.455 3.398h-123.8v23.618h123.8a11.811 11.811 0 0 1 11.976 11.808 11.812 11.812 0 0 1-11.976 11.809h-123.8v23.617h123.8a11.796 11.796 0 0 1 8.455 3.399 11.792 11.792 0 0 1 3.52 8.406c0 3.164-1.266 6.191-3.52 8.41a11.796 11.796 0 0 1-8.455 3.398h-123.8v23.617h123.8a11.812 11.812 0 0 1 11.976 11.809 11.809 11.809 0 0 1-11.976 11.808h-123.8V735.8h123.8v-.003a11.8 11.8 0 0 1 8.455 3.401 11.802 11.802 0 0 1 0 16.816 11.796 11.796 0 0 1-8.455 3.399h-123.8v5.902c0 29.438 23.698 53.138 53.136 53.138h501.84c45.794 0 82.655-36.863 82.655-82.656V452.404c0-26.464-12.355-49.89-31.587-64.998 2.21-27.143-8.143-57.143-31.238-57.143h-42.85V57.456h-51.526v134.119h-19.929V57.456h-283.37v272.807h-19.938V57.456Z" style="fill:#e64539;fill-opacity:1"/><path d="M381.55 836.16v11.809a11.782 11.782 0 0 0 11.809 11.809h35.426a11.782 11.782 0 0 0 11.809-11.809V836.16Z" id="path48890" style="fill:#e64539;fill-opacity:1"/><path d="M759.41 836.16v11.809a11.782 11.782 0 0 0 11.809 11.809h35.426a11.782 11.782 0 0 0 11.809-11.809V836.16Z" id="path48892" style="fill:#e64539;fill-opacity:1"/></g></svg>