<svg viewBox="0 0 512 512" style="height:512px;width:512px" xmlns="http://www.w3.org/2000/svg"><defs><filter style="color-interpolation-filters:sRGB" id="a" x="-.048" y="-.049" width="1.095" height="1.098"><feFlood flood-opacity="1" flood-color="#3A3F5E" result="flood"/><feComposite in="flood" in2="SourceGraphic" operator="out" result="composite1"/><feGaussianBlur in="composite1" stdDeviation="10" result="blur"/><feOffset result="offset"/><feComposite in="offset" in2="SourceGraphic" operator="atop" result="composite2"/></filter></defs><path d="M0 0h512v512H0z" fill="#1b1f21"/><g transform="translate(4.452 12.211) scale(.96616)" style="fill:#e64539;fill-opacity:1;filter:url(#a)"><path d="M1182.3 501.94a28.135 28.135 0 0 0-26.082-22.164l-237.45-11.887 86.457-195.54a28.135 28.135 0 0 0-.152-23.047 28.13 28.13 0 0 0-40.2-12.336l-174.73 106.46-35.906-111.68a28.117 28.117 0 0 0-13.277-15.984 28.12 28.12 0 0 0-37.348 9.836l-81.863 132.77v-.004a28.147 28.147 0 0 0-.808 28.13 28.137 28.137 0 0 0 48.715 1.403l49.8-80.833 28.126 87.543v.004a28.12 28.12 0 0 0 16.96 17.746 28.116 28.116 0 0 0 24.439-2.336l128.49-78.3-66.695 150.82.004.004a28.126 28.126 0 0 0 24.375 39.468l173.83 8.699-159.8 82.199a28.131 28.131 0 0 0-14.887 20.41 28.13 28.13 0 0 0 7.496 24.12l113.85 118.39-147.24-30h-.602a28.883 28.883 0 0 0-23.152 6.762 28.894 28.894 0 0 0-9.96 21.965l3.617 91.875-74.531-58.82h.004a28.138 28.138 0 0 0-45.274 18.04 28.138 28.138 0 0 0 10.414 26.136l122.44 96.617v.004a28.12 28.12 0 0 0 19.992 5.942 28.12 28.12 0 0 0 18.59-9.457 28.145 28.145 0 0 0 6.965-19.66l-4.52-117.11 200.62 40.8a27.2 27.2 0 0 0 5.625.583c7.398 0 14.5-2.918 19.766-8.117a28.13 28.13 0 0 0 .484-39.527l-150.45-156.23 219.24-112.76a28.137 28.137 0 0 0 12.56-12.988 28.119 28.119 0 0 0 2.066-17.95z" style="fill:#e64539;fill-opacity:1" transform="rotate(-30 213.015 104) scale(.3905)"/><g style="fill:#e64539;fill-opacity:1"><path d="M790.06 258c-6.176-23.645-21.352-43.234-42.531-55.234l-263.47-147.88c-18.176-10.234-39.527-13.766-60.176-9.883l-170.29 31.941c-23.469 4.41-44.648 18.355-57.883 38.117L32.65 359.291c-19.766 29.648-19.941 67.941-.883 97.941l107.65 167.12c16.41 25.766 45.352 40.941 75.176 40.941 6.176 0 12.176-.531 18.176-1.941l355.77-75c24-4.942 45.176-19.941 57.883-40.941L780.192 327c12.527-21 16.055-45.352 9.88-69zM562.42 502.41l-336 70.941c-1.234.176-2.473.352-3.707.352-5.824 0-11.469-3-14.824-8.118l-94.414-147c-5.293-8.117-3-19.059 5.297-24.352 8.117-5.297 19.059-2.824 24.352 5.293l87.883 136.77 324.18-68.293c9.527-2.117 18.883 4.059 21 13.586 1.937 9.532-4.238 18.883-13.766 20.824z" style="fill:#e64539;fill-opacity:1" transform="rotate(30 -53.872 281.865) scale(.29294)"/><path d="M454.59 148.23c1.766 9.527-4.41 18.707-14.117 20.469l-156.53 29.473c-1.059.176-2.117.352-3.176.352-8.472 0-15.883-6-17.469-14.473-1.765-9.528 4.586-18.707 14.117-20.648l156.53-29.293c9.703-1.762 18.88 4.414 20.645 14.12zm657.01 721.95-36.176-148.06c-5.648-23.824-20.469-43.586-41.469-55.941-21.176-12.352-45.707-15.531-69.176-9l-179.29 49.941c-20.293 5.648-37.941 18.527-49.766 35.824l-60.176 88.59c-13.234 19.59-18.176 44.117-13.59 67.41l36.176 182.65c6.883 34.941 33.883 62.293 68.648 69.883l110.82 24c6.176 1.234 12.352 1.941 18.707 1.941 29.648 0 58.234-15 74.824-40.414l128.47-196.77c13.586-20.648 17.82-46.059 11.996-70.059zm-307.23 196.23c-1.059.352-2.293.352-3.352.352-8.293 0-15.707-5.825-17.293-14.117l-32.648-163.77c-1.765-9.528 4.41-18.883 13.941-20.648 9.528-2.118 18.883 4.234 20.824 13.766l32.47 163.77c1.761 9.53-4.415 18.887-13.942 20.648zm216.18-168.7-117.53 180c-3.352 5.293-9 7.941-14.824 7.941-3.352 0-6.707-.882-9.527-2.824-8.293-5.293-10.59-16.234-5.297-24.352l113.47-173.64-28.234-115.23c-2.293-9.527 3.531-19.059 13.059-21.352 9.351-2.293 18.883 3.527 21.352 13.06l29.824 122.65c1.234 4.757.355 9.698-2.293 13.757zm-559.08 13.58-57.176-126.71c-18.707-41.293-65.293-62.117-108.35-48.352l-102.35 32.469c-29.824 9.352-52.766 34.234-60 64.59l-34.59 147.53c-9.527 40.41 9.707 81.707 46.941 100.23l89.824 45c12.707 6.352 26.297 9.352 39.883 9.352 22.234 0 44.293-8.293 61.234-24.176l104.47-98.117c27.703-26.113 35.824-67.055 20.117-101.82zm-142.94-51.352-67.941 21.531-27 114.18c-1.941 8.117-9.176 13.59-17.117 13.59-1.41 0-2.648-.176-4.059-.531-9.53-2.118-15.352-11.648-13.059-21.176l29.117-123.88c1.41-6 5.825-10.941 11.824-12.707l77.473-24.707c9.352-2.824 19.234 2.293 22.234 11.473 2.82 9.351-2.296 19.234-11.473 22.234zM896.3 518.65c0 33-26.824 59.824-59.648 59.824-33 0-59.824-26.824-59.824-59.824 0-32.824 26.824-59.648 59.824-59.648 32.824 0 59.648 26.824 59.648 59.648zm208.2-90.01c-16.941 15.883-39 24.176-61.234 24.176-13.586 0-27.176-3-39.883-9.352l-19.766-10.059c-37.234-18.527-56.645-59.824-47.117-100.23l13.234-55.94c7.234-30.532 30.176-55.235 59.824-64.767l26.117-8.293c43.234-13.59 89.824 7.235 108.53 48.352l17.648 39.527c15.707 34.59 7.59 75.531-20.117 101.65zm77.9 132.18c0 34.41-28.059 62.469-62.648 62.469-34.41 0-62.469-28.059-62.469-62.469s28.059-62.473 62.469-62.473c34.59 0 62.648 28.059 62.648 62.473zM854.12 82.059c0 32.824-26.824 59.648-59.648 59.648s-59.469-26.824-59.469-59.648 26.648-59.469 59.469-59.469c32.824 0 59.648 26.645 59.648 59.469zM612.36 1059.9c0 32.824-26.648 59.648-59.469 59.648-32.648 0-59.293-26.824-59.293-59.648s26.648-59.469 59.293-59.469c32.82 0 59.469 26.645 59.469 59.469zm-.89-304.08c0 32.355-26.23 58.586-58.59 58.586-32.355 0-58.586-26.23-58.586-58.586 0-32.359 26.23-58.59 58.586-58.59 32.359 0 58.59 26.23 58.59 58.59" style="fill:#e64539;fill-opacity:1" transform="rotate(30 -53.872 281.865) scale(.29294)"/></g></g></svg>