<svg viewBox="0 0 512 512" style="height:512px;width:512px" xmlns="http://www.w3.org/2000/svg"><defs><filter style="color-interpolation-filters:sRGB" id="a" x="-.073" y="-.051" width="1.146" height="1.102"><feFlood flood-opacity="1" flood-color="#3A3F5E" result="flood"/><feComposite in="flood" in2="SourceGraphic" operator="out" result="composite1"/><feGaussianBlur in="composite1" stdDeviation="10" result="blur"/><feOffset result="offset"/><feComposite in="offset" in2="SourceGraphic" operator="atop" result="composite2"/></filter></defs><path d="M0 0h512v512H0z" fill="#1b1f21"/><path d="M417.371 278.671c-4.632 19.752-14.976 33.873-30.988 42.412 13.55-73.695-9.35-142.985-54.901-209.532 12.727 46.214 5.187 86.394-22.676 119.927-40.933-89.02-3.724-153.74 38.28-210.357C260.459 63.035 201.05 131.15 180.419 233.833c-15.936-27.53-16.596-54.478-3.907-80.932-58.743 46.445-68.678 105.638-49.443 172.465-16.294-7.23-26.86-21.309-33.312-40.31 0 0-15.304 101.549 42.845 169.686 13.656 15.996 30.273 27.923 48.434 36.137 23.91-37.5 38.899-80.108 30.005-123.697 25.252 21.288 38.752 45.783 44.821 70.66 16.304-33.074 24.778-74.087 10.052-120.63 57.752 60.288 58.604 128.997 51.596 171 24.308-11.418 46.435-28.522 62.715-49.587 49.876-64.507 33.141-159.958 33.141-159.958z" style="stroke-width:.450345;fill:#e64539;fill-opacity:1;filter:url(#a)"/></svg>