<svg viewBox="0 0 512 512" style="height:512px;width:512px" xmlns="http://www.w3.org/2000/svg"><defs><filter style="color-interpolation-filters:sRGB" id="a" x="-.04" y="-.088" width="1.08" height="1.176"><feFlood flood-opacity="1" flood-color="#3A3F5E" result="flood"/><feComposite in="flood" in2="SourceGraphic" operator="out" result="composite1"/><feGaussianBlur in="composite1" stdDeviation="8" result="blur"/><feOffset result="offset"/><feComposite in="offset" in2="SourceGraphic" operator="atop" result="composite2"/></filter></defs><path d="M.359-.21h512v512h-512Z" fill="#1b1f21"/><path d="M386.944 220.789a285.165 285.165 0 0 0 39.187 2.792l8.444 8.444a68.122 68.122 0 0 0-23.596 8.326zm-229.53 60.107c-12.889-.856-142.861-14.855-141.712-21.431C40.21 207.806 159.857 168.45 197.111 156.2c26.764-8.802 42.797-9.313 71.278-9.003 52.764 7.288 101.496 25.823 141.49 61.004-116.738-1.595.068-.113-116.95-1.635l-10.137 22.27 3.088 9.493-55.968.47zm198.788-66.055.375.339 74.43 60.58c.172.14.387.176.57.3.41.272.845.501 1.302.684a7.58 7.58 0 0 0 4.215.446c.207-.041.41.011.617-.048a23.67 23.67 0 0 1 6.013-.875 21.915 21.915 0 0 1 22.35 22.35c-.235 12.762-10.524 23.051-23.287 23.286a21.79 21.79 0 0 1-20.202-12.512 7.037 7.037 0 0 0-.67-.89 4.911 4.911 0 0 0-2.19-2.109 7.048 7.048 0 0 0-.856-.604l-117.065-52.503-10.745-23.603 8.087-16.186zm-231.506 83.573c-1.53 20.183-18.18 35.878-38.421 36.215a36.637 36.637 0 0 1-37.279-37.278 39.167 39.167 0 0 1 7.618-22.545c67.773 9.622-.23-.215 67.752 9.486.698 4 .829 8.672.33 14.122zm-38.798 66.441a65.958 65.958 0 0 1-67.131-67.13c.614-16.037 7.005-29.386 7.005-29.386l15.696 2.629s-7.117 16.657-7.295 26.195a51.458 51.458 0 0 0 52.284 52.283c26.216-.453 48.341-19.628 52.513-45.513l16.059-7.306c-1.202 37.522-31.598 67.52-69.133 68.226zm197.905-18.308-97.779-3.297-9.049-13.477s-7.975-16.795-7.16-26.413l.169-13.538 55.165-34.61 39.97-.588 112.947 49.824c-22.854 14.515-63.458 35.19-94.263 42.099zm158.606 5.586a51.25 51.25 0 0 1-37.206-15.01 50.635 50.635 0 0 1-14.142-27.344l19.686 8.634a36.51 36.51 0 0 0 5.594 7.469 37.044 37.044 0 0 0 26.625 10.84c20.782-.384 37.539-17.14 37.922-37.922a36.634 36.634 0 0 0-10.747-26.593l-.007-.006a36.667 36.667 0 0 0-26.61-10.76c-1.98.048-3.955.247-5.905.598l-14.106-11.48a53.387 53.387 0 0 1 20.578-4.523 51.251 51.251 0 0 1 52.205 52.205c-.546 29.533-24.358 53.345-53.89 53.89z" style="fill:#e64539;stroke-width:.345867;fill-opacity:1;filter:url(#a)"/></svg>