<svg width="512" height="512" viewBox="0 0 240.376 240.376" xmlns="http://www.w3.org/2000/svg"><defs><filter style="color-interpolation-filters:sRGB" id="a" x="-.036" y="-.036" width="1.071" height="1.072"><feFlood flood-opacity="1" flood-color="#3A3F5E" result="flood"/><feComposite in="flood" in2="SourceGraphic" operator="out" result="composite1"/><feGaussianBlur in="composite1" stdDeviation="15" result="blur"/><feOffset result="offset"/><feComposite in="offset" in2="SourceGraphic" operator="atop" result="composite2"/></filter></defs><path style="fill:#1b1f21;stroke:none" d="M0 0v240h240V0Z"/><path style="fill:#1b1f21;stroke:none" d="M188 96v4h4v-4z"/><path style="fill:#e64539;fill-opacity:1;stroke-width:1;filter:url(#a)" d="M570.406-212.572c-7.416-.158-14.357 2.997-19.407 8.047-6.733 6.733-10.097 16.833-10.097 26.93v94.246h-67.318v-94.245c0-10.098-3.364-20.198-10.097-26.93-6.733-6.734-16.833-6.734-26.93-6.734C187.474-177.6 2.354 37.821 2.354 286.902c0 249.081 185.124 464.498 434.201 498.16 10.098 3.365 20.198 0 26.93-6.733 6.734-6.733 10.098-16.833 10.098-26.93v-94.245h67.318v94.244c0 10.098 3.364 20.198 10.097 26.931 6.733 3.365 16.833 6.733 23.562 6.733h3.365c249.077-33.658 434.2-249.079 434.2-498.16 0-249.077-185.119-464.498-434.196-498.16a25.462 25.462 0 0 0-7.524-1.314zm-164.136 75.37v87.516c0 20.196 13.46 33.66 33.655 33.66h134.64c20.196 0 33.656-13.464 33.656-33.66v-87.516C803.445-93.447 944.813 84.953 944.813 286.906c0 201.954-141.368 380.346-336.592 424.105v-87.512c0-20.196-13.46-33.66-33.655-33.66H439.925c-16.831 0-33.655 16.833-33.655 33.66v87.512C211.045 667.256 69.678 488.86 69.678 286.906c0-201.953 141.367-380.353 336.592-424.108zm276.655 113.22c-15.327 0-29.728 5.974-40.552 16.824l-32.155 32.211c-22.315 22.369-22.269 58.71.091 81.017l40.894 40.799c10.812 10.788 25.182 16.73 40.457 16.73 15.326 0 29.727-5.98 40.551-16.83l32.155-32.21c10.813-10.84 16.753-25.23 16.734-40.53-.02-15.302-5.993-29.683-16.825-40.488L723.382-7.253c-10.813-10.788-25.183-16.73-40.457-16.73Zm-338.15.293a21.352 21.352 0 0 0-15.15 6.257l-87.86 87.647c-8.374 8.355-8.389 21.919-.034 30.295a21.35 21.35 0 0 0 15.165 6.287 21.35 21.35 0 0 0 15.13-6.253l87.854-87.65c8.375-8.355 8.394-21.916.04-30.291a21.362 21.362 0 0 0-15.144-6.292zm338.15 42.546a14.4 14.4 0 0 1 10.2 4.216L734.02 63.87c5.645 5.633 5.659 14.776.026 20.423l-32.163 32.224a14.392 14.392 0 0 1-10.223 4.242 14.403 14.403 0 0 1-10.2-4.22l-40.898-40.8c-5.646-5.632-5.655-14.776-.022-20.422l32.159-32.22a14.403 14.403 0 0 1 10.226-4.241zM409.392 41.078a21.355 21.355 0 0 0-15.156 6.253l-87.854 87.65c-8.375 8.356-8.395 21.915-.04 30.291a21.355 21.355 0 0 0 15.166 6.292 21.355 21.355 0 0 0 15.13-6.257l87.854-87.646c8.375-8.355 8.394-21.915.039-30.291a21.358 21.358 0 0 0-15.14-6.292zm98.712 74.726c-17.078 0-33.738 3.244-49.516 9.643-16.357 6.633-31.014 16.363-43.566 28.916-12.552 12.553-22.282 27.208-28.916 43.565-6.398 15.778-9.644 32.438-9.643 49.516 0 17.077 3.245 33.735 9.643 49.512 6.633 16.357 16.363 31.018 28.916 43.57 12.552 12.553 27.209 22.278 43.566 28.911 15.777 6.398 32.438 9.643 49.516 9.643 17.077 0 33.737-3.244 49.515-9.643 16.357-6.633 31.014-16.358 43.566-28.911 12.552-12.553 22.283-27.213 28.916-43.57 6.398-15.777 9.643-32.435 9.643-49.512 0-17.077-3.244-33.738-9.643-49.516-6.633-16.357-16.363-31.013-28.916-43.565-12.552-12.553-27.209-22.282-43.566-28.916-15.778-6.4-32.438-9.643-49.515-9.643zm0 42.84c22.726 0 45.452 8.67 62.79 26.01 34.679 34.677 34.679 90.901 0 125.581-17.338 17.338-40.064 26.006-62.79 26.006-22.727 0-45.452-8.668-62.792-26.006-34.679-34.68-34.679-90.904 0-125.582 17.339-17.339 40.065-26.01 62.792-26.01zm-62.009 269.394c-11.83 0-21.417 9.594-21.417 21.422 0 11.83 9.587 21.418 21.417 21.418h124.1c11.829 0 21.42-9.588 21.42-21.418 0-11.828-9.591-21.422-21.42-21.422zm0 91.486c-11.83 0-21.417 9.592-21.417 21.422s9.587 21.418 21.417 21.418h124.1c11.829 0 21.42-9.588 21.42-21.418s-9.591-21.422-21.42-21.422z" transform="translate(12.625 59.349) scale(.21206)"/><path style="fill:#fff;stroke:none" d="M184 196v12h36v-12z"/></svg>