<svg viewBox="0 0 512 512" style="height:512px;width:512px" xmlns="http://www.w3.org/2000/svg"><defs><filter style="color-interpolation-filters:sRGB" id="a" x="-.074" y="-.086" width="1.147" height="1.172"><feFlood flood-opacity="1" flood-color="#3A3F5E" result="flood"/><feComposite in="flood" in2="SourceGraphic" operator="out" result="composite1"/><feGaussianBlur in="composite1" stdDeviation="15" result="blur"/><feOffset result="offset"/><feComposite in="offset" in2="SourceGraphic" operator="atop" result="composite2"/></filter></defs><path d="M.359-.21h512v512h-512Z" fill="#1b1f21"/><path d="M140.75 400.363h113.555l.535-30.193-114.09.002v-17.06h114.4l3.164-178.5-117.56-.002v-17.064h117.86l1.66-93.663s-51.232-5.692-55.501-15.656L200.5 80.958l-75.426 24.195-9.964 14.23L16.92 392.62l-5.691 25.619 49.808 18.497 8.538-18.497 17.076-12.81 47.339-99.837 2.467 158.183L253.16 465.2l.847-47.778-113.254.002zm-58.517 2.685-56.905-23.532 7.152-19.66 57.088 27.385zm11.056-22.2-57.531-27.553 5.959-17.283 60.672 28.79zm401.8 11.774-98.195-273.237-9.958-14.23c-4.272-1.42-69.737-19.92-69.737-19.92s-48.388 32.73-52.653 48.387l-.311 23.927h102.272v17.06l-102.49-.003-2.305 178.5h104.8v17.06H261.486l-.39 30.192H366.51v17.06H260.875l-.595 46.353h109.578L372.998 295l52.352 110.422 17.076 12.81 8.538 18.497 49.808-18.497zm-86.482-27.82 60.672-28.79 5.954 17.283-57.527 27.553zm20.15 38.246-7.329-15.81 57.089-27.385 7.145 19.66zM265.973 125.074 291.586 46.8c16.385 5.682 34.351 24.991 34.351 24.991-21.965 3.414-59.966 53.283-59.966 53.283zM255.15 353.111h6.561l-.223 17.06h-6.64zm3.164-178.509.307-17.06h5.62l-.224 17.06zm2.784 225.756-.224 17.06h-6.867l.3-17.06z" style="stroke-width:.417711;fill:#e64539;fill-opacity:1;filter:url(#a)"/></svg>