<svg width="512" height="512" version="1.1" id="svg8" xml:space="preserve" xmlns="http://www.w3.org/2000/svg"><defs id="defs12"><filter style="color-interpolation-filters:sRGB" id="filter875" x="-.313" y="-.169" width="1.609" height="1.328"><feFlood flood-opacity="1" flood-color="#3A3F5E" result="flood" id="feFlood865"/><feComposite in="flood" in2="SourceGraphic" operator="out" result="composite1" id="feComposite867"/><feGaussianBlur in="composite1" stdDeviation="15" result="blur" id="feGaussianBlur869"/><feOffset dx="0" dy="0" result="offset" id="feOffset871"/><feComposite in="offset" in2="SourceGraphic" operator="atop" result="composite2" id="feComposite873"/></filter><filter style="color-interpolation-filters:sRGB" id="filter1015" x="-.082" y="-.044" width="1.164" height="1.088"><feFlood flood-opacity="1" flood-color="#3A3F5E" result="flood" id="feFlood1005"/><feComposite in="flood" in2="SourceGraphic" operator="out" result="composite1" id="feComposite1007"/><feGaussianBlur in="composite1" stdDeviation="8.302" result="blur" id="feGaussianBlur1009"/><feOffset dx="0" dy="0" result="offset" id="feOffset1011"/><feComposite in="offset" in2="SourceGraphic" operator="atop" result="composite2" id="feComposite1013"/></filter><filter style="color-interpolation-filters:sRGB" id="filter35638" x="-.057" y="-.131" width="1.114" height="1.261"><feFlood flood-opacity="1" flood-color="#3A3F5E" result="flood" id="feFlood35628"/><feComposite in="flood" in2="SourceGraphic" operator="out" result="composite1" id="feComposite35630"/><feGaussianBlur in="composite1" stdDeviation="6" result="blur" id="feGaussianBlur35632"/><feOffset dx="0" dy="0" result="offset" id="feOffset35634"/><feComposite in="offset" in2="SourceGraphic" operator="atop" result="composite2" id="feComposite35636"/></filter><filter style="color-interpolation-filters:sRGB" id="filter35813" x="-.053" y="-.07" width="1.107" height="1.139"><feFlood flood-opacity="1" flood-color="#3A3F5E" result="flood" id="feFlood35803"/><feComposite in="flood" in2="SourceGraphic" operator="out" result="composite1" id="feComposite35805"/><feGaussianBlur in="composite1" stdDeviation="8" result="blur" id="feGaussianBlur35807"/><feOffset dx="0" dy="0" result="offset" id="feOffset35809"/><feComposite in="offset" in2="SourceGraphic" operator="atop" result="composite2" id="feComposite35811"/></filter><filter style="color-interpolation-filters:sRGB" id="filter36051" x="-.028" y="-.039" width="1.056" height="1.078"><feFlood flood-opacity="1" flood-color="#3A3F5E" result="flood" id="feFlood36041"/><feComposite in="flood" in2="SourceGraphic" operator="out" result="composite1" id="feComposite36043"/><feGaussianBlur in="composite1" stdDeviation="6" result="blur" id="feGaussianBlur36045"/><feOffset dx="0" dy="0" result="offset" id="feOffset36047"/><feComposite in="offset" in2="SourceGraphic" operator="atop" result="composite2" id="feComposite36049"/></filter><filter style="color-interpolation-filters:sRGB" id="filter36715" x="-.07" y="-.091" width="1.139" height="1.182"><feFlood flood-opacity="1" flood-color="#3A3F5E" result="flood" id="feFlood36705"/><feComposite in="flood" in2="SourceGraphic" operator="out" result="composite1" id="feComposite36707"/><feGaussianBlur in="composite1" stdDeviation="16.201" result="blur" id="feGaussianBlur36709"/><feOffset dx="0" dy="0" result="offset" id="feOffset36711"/><feComposite in="offset" in2="SourceGraphic" operator="atop" result="composite2" id="feComposite36713"/></filter><filter style="color-interpolation-filters:sRGB" id="filter37057" x="-.08" y="-.075" width="1.16" height="1.15"><feFlood flood-opacity="1" flood-color="#3A3F5E" result="flood" id="feFlood37047"/><feComposite in="flood" in2="SourceGraphic" operator="out" result="composite1" id="feComposite37049"/><feGaussianBlur in="composite1" stdDeviation=".5" result="blur" id="feGaussianBlur37051"/><feOffset dx="0" dy="0" result="offset" id="feOffset37053"/><feComposite in="offset" in2="SourceGraphic" operator="atop" result="composite2" id="feComposite37055"/></filter><filter style="color-interpolation-filters:sRGB" id="filter3381" x="-.059" y="-.112" width="1.119" height="1.223"><feFlood flood-opacity="1" flood-color="#3A3F5E" result="flood" id="feFlood3371"/><feComposite in="flood" in2="SourceGraphic" operator="out" result="composite1" id="feComposite3373"/><feGaussianBlur in="composite1" stdDeviation="15" result="blur" id="feGaussianBlur3375"/><feOffset dx="0" dy="0" result="offset" id="feOffset3377"/><feComposite in="offset" in2="SourceGraphic" operator="atop" result="composite2" id="feComposite3379"/></filter><filter style="color-interpolation-filters:sRGB" id="filter49966" x="-.056" y="-.027" width="1.113" height="1.054"><feFlood flood-opacity="1" flood-color="#3A3F5E" result="flood" id="feFlood49956"/><feComposite in="flood" in2="SourceGraphic" operator="out" result="composite1" id="feComposite49958"/><feGaussianBlur in="composite1" stdDeviation="15" result="blur" id="feGaussianBlur49960"/><feOffset dx="0" dy="0" result="offset" id="feOffset49962"/><feComposite in="offset" in2="SourceGraphic" operator="atop" result="composite2" id="feComposite49964"/></filter><filter style="color-interpolation-filters:sRGB" id="filter54288" x="-.052" y="-.132" width="1.103" height="1.263"><feFlood flood-opacity="1" flood-color="#3A3F5E" result="flood" id="feFlood54278"/><feComposite in="flood" in2="SourceGraphic" operator="out" result="composite1" id="feComposite54280"/><feGaussianBlur in="composite1" stdDeviation="10" result="blur" id="feGaussianBlur54282"/><feOffset dx="0" dy="0" result="offset" id="feOffset54284"/><feComposite in="offset" in2="SourceGraphic" operator="atop" result="composite2" id="feComposite54286"/></filter><filter style="color-interpolation-filters:sRGB" id="filter55043" x="-.032" y="-.046" width="1.065" height="1.092"><feFlood flood-opacity="1" flood-color="#3A3F5E" result="flood" id="feFlood55033"/><feComposite in="flood" in2="SourceGraphic" operator="out" result="composite1" id="feComposite55035"/><feGaussianBlur in="composite1" stdDeviation="15" result="blur" id="feGaussianBlur55037"/><feOffset dx="0" dy="0" result="offset" id="feOffset55039"/><feComposite in="offset" in2="SourceGraphic" operator="atop" result="composite2" id="feComposite55041"/></filter></defs><path d="M0 0h512v512H0z" fill="#b90202" fill-opacity="1" id="path2" style="fill:#1b1f21;fill-opacity:1"/><style type="text/css" id="style35976">.st0{fill:#000}</style><g id="g54387" transform="translate(-2.592 -32.435) scale(.43099)" style="fill:#e64539;fill-opacity:1;filter:url(#filter55043)"><path id="path54385" style="fill:#e64539;fill-opacity:1" d="M138.463 276.94c-51 0-92.312 41.312-92.312 92.312V646.13h165.8c23.128 0 41.882 10.323 41.882 23.08 0 12.755-18.758 23.076-41.883 23.076H46.151v276.96c0 50.77 41.312 92.311 92.312 92.311h923.076c51 0 92.312-41.538 92.312-92.312v-276.96H988.038c-23.129 0-41.883-10.317-41.883-23.075-.004-12.754 18.754-23.08 41.883-23.08h165.813V369.251c0-51-41.312-92.312-92.312-92.312-922.94-.049.826.365-923.076 0zM394.68 404.142h271.598c12.216 0 22.091 9.898 22.092 22.093 0 5.169 1.587 22.092 22.088 22.092 21.142 0 22.093-21.872 22.093-22.092 0-12.195 9.876-22.093 22.092-22.093h50.679c32.96 0 59.783 26.824 59.783 59.806v410.596c0 32.982-26.823 59.806-59.783 59.806h-50.679c-12.216 0-22.092-9.898-22.092-22.093 0-14.67-7.446-22.092-22.093-22.092s-22.088 7.424-22.088 22.092c0 12.195-9.876 22.093-22.092 22.093H394.68c-32.96 0-59.783-26.824-59.783-59.806V602.969c0-12.195 9.876-22.092 22.093-22.092h22.092v-44.18H356.99c-12.217 0-22.093-9.897-22.093-22.093v-50.656c0-32.982 26.823-59.806 59.783-59.806z"/></g></svg>