<svg viewBox="0 0 512 512" style="height:512px;width:512px" xmlns="http://www.w3.org/2000/svg"><defs><filter style="color-interpolation-filters:sRGB" id="a" x="-.046" y="-.111" width="1.092" height="1.222"><feFlood flood-opacity="1" flood-color="#3A3F5E" result="flood"/><feComposite in="flood" in2="SourceGraphic" operator="out" result="composite1"/><feGaussianBlur in="composite1" stdDeviation="8" result="blur"/><feOffset result="offset"/><feComposite in="offset" in2="SourceGraphic" operator="atop" result="composite2"/></filter></defs><path d="M.359-.21h512v512h-512Z" fill="#1b1f21"/><g style="fill:#e64539;fill-opacity:1;filter:url(#a)" transform="translate(-37.97 -27.065) scale(1.13524)"><g style="fill:#e64539;fill-opacity:1"><path d="M1134.284 684h-12.84l-51.36-105.52c-32.121-12.84-250.71-39.138-250.71-39.138l-109.21-134.07-319.678.008-14.444 182.596-234.966 2.233-.885 49.296-12.985 75.21 21.91.766s7.31-31.91 12.668-44.884c8.803-17.211 11.72-25.998 39.227-41.261 27.508-16.779 74.216-17.137 107.197-3.851 18.531 9.474 33.287 21.95 40.848 47.725l15.414 51.587h450.26c2.172 0 4.246-3.29 6.383-3.254l25.727-62.884s12.968-21.884 36.96-32.953c37.476-5.088 54.03-11.944 109.2 5.988 0 0 19.284 6.227 32.136 44.746l33.384 41.653 64.518-.162 11.238-33.83zM539.92 528.372l-150.99-1.855 6.428-96.36 152.168 2.205zm6.57-.219 6.227-96.152h160.78l75.37 101.192zm510.747 131.85-38.543-63.395 57.816 12.434c6.422 0 19.262 50.977 19.262 50.977l-38.535-.004z" style="fill:#e64539;fill-opacity:1" transform="translate(-3.224 -5.447) scale(.41566)"/><path d="M255.899 627.985c-51.445 0-93.145 41.711-93.145 93.145 0 51.445 41.699 93.145 93.145 93.145 51.445 0 93.145-41.699 93.145-93.145 0-51.434-41.703-93.145-93.145-93.145zm-.446 156.71c-36.457 0-66-29.543-66-66s29.543-66 66-66 66 29.543 66 66-29.543 66-66 66zm676.504-150.28c-51.434 0-93.145 41.7-93.145 93.145 0 51.445 41.71 93.133 93.145 93.133 51.445 0 93.145-41.699 93.145-93.145 0-51.445-41.7-93.133-93.145-93.133zm2.676 162.28c-36.457 0-66-29.543-66-66s29.543-66 66-66 66 29.543 66 66-29.543 66-66 66z" style="fill:#e64539;fill-opacity:1" transform="translate(-3.224 -5.447) scale(.41566)"/></g><g style="fill:#e64539;fill-opacity:1"><path d="M2.05 423.77v484.66h1108.7V423.77Zm654.55 21.707h273.82v201.95H656.6zm-166.95 388.88H71.61v-38.723H53.573v-36.516h18.035l.004-174.28H55.974v-36.516H71.61v-38.723h418.04zm451.56 12.086H643.26v-174.82H941.2l-.003 174.82z" style="fill:#e64539;fill-opacity:1" transform="translate(52.079 148.15) scale(.09076)"/><path d="M793.62 493c-9.742 0-17.664 7.906-17.664 17.664h35.328c0-9.758-7.91-17.664-17.664-17.664Z" style="fill:#e64539;fill-opacity:1" transform="translate(52.079 148.15) scale(.09076)"/><path d="M666.01 454.88V638h255V454.88Zm83.867 64.609h-56.484v-43.645h56.484zm71.867 0h-56.473v-43.645h56.473zm71.895 0h-56.473v-43.645h56.473z" style="fill:#e64539;fill-opacity:1" transform="translate(52.079 148.15) scale(.09076)"/><path d="M865.39 493c-9.758 0-17.676 7.906-17.676 17.664h35.34c.012-9.758-7.894-17.664-17.664-17.664Zm-143.64 0c-9.758 0-17.676 7.906-17.676 17.664h35.34c-.004-9.758-7.91-17.664-17.664-17.664ZM931.8 681.04H652.68v156H931.8Zm-105.66 34.719h-56.438v-19.922h56.438zM91.969 528.37v292.12h382.86V528.37Zm179.07 270h-147.14v-9.898h147.14zm0-25.738h-147.14v-9.887h147.14zm0-25.73h-147.14v-9.898h147.14zm0-25.727h-147.14v-9.898h147.14zm0-25.738h-147.14v-9.902h147.14zm0-25.73h-147.14v-9.898h147.14zm192.71 22.43h-15.492v-39.828h15.492zM1112.8 215.38c-88.895 0-160.96 72.059-160.96 160.96h160.96zM951.86 387.43h161.82v26.363H951.86ZM1200 216.09l-34.609 160.25h-38.289V216.09Zm-748.96 92.67v70.066h70.066c.016-38.699-31.367-70.066-70.066-70.066Zm-.37 74.9h70.453v33.156H450.67ZM0 317.44h149.39v47.93H0Zm15.336 604.11h1082.2v63.07H15.336ZM155.53 302.48v76.355h34.105v39.395h17.266v-39.395h173.73v39.395h17.266v-39.395h44.125V302.48Z" style="fill:#e64539;fill-opacity:1" transform="translate(52.079 148.15) scale(.09076)"/></g></g></svg>