<svg width="512" height="512" version="1.1" id="svg8" xml:space="preserve" xmlns="http://www.w3.org/2000/svg"><defs id="defs12"><filter style="color-interpolation-filters:sRGB" id="filter875" x="-.313" y="-.169" width="1.609" height="1.328"><feFlood flood-opacity="1" flood-color="#3A3F5E" result="flood" id="feFlood865"/><feComposite in="flood" in2="SourceGraphic" operator="out" result="composite1" id="feComposite867"/><feGaussianBlur in="composite1" stdDeviation="15" result="blur" id="feGaussianBlur869"/><feOffset dx="0" dy="0" result="offset" id="feOffset871"/><feComposite in="offset" in2="SourceGraphic" operator="atop" result="composite2" id="feComposite873"/></filter><filter style="color-interpolation-filters:sRGB" id="filter1015" x="-.082" y="-.044" width="1.164" height="1.088"><feFlood flood-opacity="1" flood-color="#3A3F5E" result="flood" id="feFlood1005"/><feComposite in="flood" in2="SourceGraphic" operator="out" result="composite1" id="feComposite1007"/><feGaussianBlur in="composite1" stdDeviation="8.302" result="blur" id="feGaussianBlur1009"/><feOffset dx="0" dy="0" result="offset" id="feOffset1011"/><feComposite in="offset" in2="SourceGraphic" operator="atop" result="composite2" id="feComposite1013"/></filter><filter style="color-interpolation-filters:sRGB" id="filter35638" x="-.057" y="-.131" width="1.114" height="1.261"><feFlood flood-opacity="1" flood-color="#3A3F5E" result="flood" id="feFlood35628"/><feComposite in="flood" in2="SourceGraphic" operator="out" result="composite1" id="feComposite35630"/><feGaussianBlur in="composite1" stdDeviation="6" result="blur" id="feGaussianBlur35632"/><feOffset dx="0" dy="0" result="offset" id="feOffset35634"/><feComposite in="offset" in2="SourceGraphic" operator="atop" result="composite2" id="feComposite35636"/></filter><filter style="color-interpolation-filters:sRGB" id="filter35813" x="-.053" y="-.07" width="1.107" height="1.139"><feFlood flood-opacity="1" flood-color="#3A3F5E" result="flood" id="feFlood35803"/><feComposite in="flood" in2="SourceGraphic" operator="out" result="composite1" id="feComposite35805"/><feGaussianBlur in="composite1" stdDeviation="8" result="blur" id="feGaussianBlur35807"/><feOffset dx="0" dy="0" result="offset" id="feOffset35809"/><feComposite in="offset" in2="SourceGraphic" operator="atop" result="composite2" id="feComposite35811"/></filter><filter style="color-interpolation-filters:sRGB" id="filter36051" x="-.028" y="-.039" width="1.056" height="1.078"><feFlood flood-opacity="1" flood-color="#3A3F5E" result="flood" id="feFlood36041"/><feComposite in="flood" in2="SourceGraphic" operator="out" result="composite1" id="feComposite36043"/><feGaussianBlur in="composite1" stdDeviation="6" result="blur" id="feGaussianBlur36045"/><feOffset dx="0" dy="0" result="offset" id="feOffset36047"/><feComposite in="offset" in2="SourceGraphic" operator="atop" result="composite2" id="feComposite36049"/></filter><filter style="color-interpolation-filters:sRGB" id="filter36715" x="-.07" y="-.091" width="1.139" height="1.182"><feFlood flood-opacity="1" flood-color="#3A3F5E" result="flood" id="feFlood36705"/><feComposite in="flood" in2="SourceGraphic" operator="out" result="composite1" id="feComposite36707"/><feGaussianBlur in="composite1" stdDeviation="16.201" result="blur" id="feGaussianBlur36709"/><feOffset dx="0" dy="0" result="offset" id="feOffset36711"/><feComposite in="offset" in2="SourceGraphic" operator="atop" result="composite2" id="feComposite36713"/></filter><filter style="color-interpolation-filters:sRGB" id="filter37057" x="-.08" y="-.075" width="1.16" height="1.15"><feFlood flood-opacity="1" flood-color="#3A3F5E" result="flood" id="feFlood37047"/><feComposite in="flood" in2="SourceGraphic" operator="out" result="composite1" id="feComposite37049"/><feGaussianBlur in="composite1" stdDeviation=".5" result="blur" id="feGaussianBlur37051"/><feOffset dx="0" dy="0" result="offset" id="feOffset37053"/><feComposite in="offset" in2="SourceGraphic" operator="atop" result="composite2" id="feComposite37055"/></filter><filter style="color-interpolation-filters:sRGB" id="filter3381" x="-.059" y="-.112" width="1.119" height="1.223"><feFlood flood-opacity="1" flood-color="#3A3F5E" result="flood" id="feFlood3371"/><feComposite in="flood" in2="SourceGraphic" operator="out" result="composite1" id="feComposite3373"/><feGaussianBlur in="composite1" stdDeviation="15" result="blur" id="feGaussianBlur3375"/><feOffset dx="0" dy="0" result="offset" id="feOffset3377"/><feComposite in="offset" in2="SourceGraphic" operator="atop" result="composite2" id="feComposite3379"/></filter><filter style="color-interpolation-filters:sRGB" id="filter49966" x="-.056" y="-.027" width="1.113" height="1.054"><feFlood flood-opacity="1" flood-color="#3A3F5E" result="flood" id="feFlood49956"/><feComposite in="flood" in2="SourceGraphic" operator="out" result="composite1" id="feComposite49958"/><feGaussianBlur in="composite1" stdDeviation="15" result="blur" id="feGaussianBlur49960"/><feOffset dx="0" dy="0" result="offset" id="feOffset49962"/><feComposite in="offset" in2="SourceGraphic" operator="atop" result="composite2" id="feComposite49964"/></filter><filter style="color-interpolation-filters:sRGB" id="filter54288" x="-.052" y="-.132" width="1.103" height="1.263"><feFlood flood-opacity="1" flood-color="#3A3F5E" result="flood" id="feFlood54278"/><feComposite in="flood" in2="SourceGraphic" operator="out" result="composite1" id="feComposite54280"/><feGaussianBlur in="composite1" stdDeviation="10" result="blur" id="feGaussianBlur54282"/><feOffset dx="0" dy="0" result="offset" id="feOffset54284"/><feComposite in="offset" in2="SourceGraphic" operator="atop" result="composite2" id="feComposite54286"/></filter><filter style="color-interpolation-filters:sRGB" id="filter55043" x="-.032" y="-.046" width="1.065" height="1.092"><feFlood flood-opacity="1" flood-color="#3A3F5E" result="flood" id="feFlood55033"/><feComposite in="flood" in2="SourceGraphic" operator="out" result="composite1" id="feComposite55035"/><feGaussianBlur in="composite1" stdDeviation="15" result="blur" id="feGaussianBlur55037"/><feOffset dx="0" dy="0" result="offset" id="feOffset55039"/><feComposite in="offset" in2="SourceGraphic" operator="atop" result="composite2" id="feComposite55041"/></filter><filter style="color-interpolation-filters:sRGB" id="filter55842" x="-.033" y="-.033" width="1.066" height="1.066"><feFlood flood-opacity="1" flood-color="#3A3F5E" result="flood" id="feFlood55832"/><feComposite in="flood" in2="SourceGraphic" operator="out" result="composite1" id="feComposite55834"/><feGaussianBlur in="composite1" stdDeviation="15" result="blur" id="feGaussianBlur55836"/><feOffset dx="0" dy="0" result="offset" id="feOffset55838"/><feComposite in="offset" in2="SourceGraphic" operator="atop" result="composite2" id="feComposite55840"/></filter></defs><path d="M0 0h512v512H0z" fill="#b90202" fill-opacity="1" id="path2" style="fill:#1b1f21;fill-opacity:1"/><style type="text/css" id="style35976">.st0{fill:#000}</style><g id="g55305" transform="translate(9.961 9.724) scale(.41026)" style="fill:#e64539;fill-opacity:1;filter:url(#filter55842)"><path d="M754.39 365.82a56.422 56.422 0 1 0 79.8 79.782 56.435 56.435 0 0 0 0-79.782 57.795 57.795 0 0 0-39.902-15.98 57.796 57.796 0 0 0-39.898 15.98zm53.285 53.266-.004.004a19.392 19.392 0 0 1-26.762 0 18.935 18.935 0 0 1-5.54-13.383 18.927 18.927 0 0 1 32.306-13.379 18.927 18.927 0 0 1 .008 26.762z" id="path55301" style="fill:#e64539;fill-opacity:1"/><path d="M1127.2 339.19 860.81 72.79a57.781 57.781 0 0 0-39.902-15.984 57.792 57.792 0 0 0-39.902 15.984 56.398 56.398 0 0 0 0 79.778l93.305 93.312-35.812 35.812a131.313 131.313 0 0 0-73.195-4.55 131.34 131.34 0 0 0-64.219 35.405 132.81 132.81 0 0 0-13.277 15.723 259.254 259.254 0 0 0-126.32 6.606 259.208 259.208 0 0 0-108.16 65.582l-391.6 391.61a18.752 18.752 0 0 0 0 26.516l319.69 319.69a18.752 18.752 0 0 0 26.516 0l391.6-391.61a259.175 259.175 0 0 0 72.188-234.48 133.303 133.303 0 0 0 15.727-13.277 131.288 131.288 0 0 0 30.863-137.422l35.812-35.801 93.305 93.312a56.43 56.43 0 0 0 54.191 13.969 56.426 56.426 0 0 0 39.566-39.574 56.435 56.435 0 0 0-13.969-54.188zM860.92 472.37a112.28 112.28 0 0 1-33.094 21.255c-2.34.89-4.785 1.476-7.191 2.175h-.004a93.957 93.957 0 0 1-13.105 2.887c-3.79.606-7.606.98-11.438 1.125-2.57.047-5.118-.234-7.676-.394-3.09-.188-6.164-.414-9.188-.899-2.73-.437-5.437-1.062-8.117-1.738a91.43 91.43 0 0 1-8.203-2.485c-2.566-.902-5.121-1.843-7.61-2.972v.004a93.374 93.374 0 0 1-8.566-4.586c-1.988-1.16-4.031-2.207-5.941-3.524a87.932 87.932 0 0 1-24.04-24.035c-1.312-1.894-2.339-3.914-3.491-5.882a94.643 94.643 0 0 1-4.618-8.625c-1.125-2.48-2.062-5.024-2.96-7.582a93.562 93.562 0 0 1-2.489-8.223c-.68-2.688-1.3-5.383-1.742-8.113-.484-3.02-.707-6.094-.895-9.188-.156-2.562-.445-5.117-.394-7.687h-.004a95.403 95.403 0 0 1 1.113-11.355 93.474 93.474 0 0 1 2.918-13.266c.696-2.38 1.27-4.793 2.153-7.102a95.814 95.814 0 0 1 4.203-8.957 92.873 92.873 0 0 1 129.188-39.621c2.777 1.527 5.597 3 8.175 4.765v.004a86.828 86.828 0 0 1 23.738 23.734c1.747 2.543 3.188 5.332 4.707 8.063a93.06 93.06 0 0 1-15.422 112.226z" id="path55303" style="fill:#e64539;fill-opacity:1"/></g></svg>