<svg viewBox="0 0 512 512" style="height:512px;width:512px" xmlns="http://www.w3.org/2000/svg"><defs><filter style="color-interpolation-filters:sRGB" id="a" x="-.081" y="-.076" width="1.162" height="1.152"><feFlood flood-opacity="1" flood-color="#3A3F5E" result="flood"/><feComposite in="flood" in2="SourceGraphic" operator="out" result="composite1"/><feGaussianBlur in="composite1" stdDeviation="15" result="blur"/><feOffset result="offset"/><feComposite in="offset" in2="SourceGraphic" operator="atop" result="composite2"/></filter></defs><path d="M.359-.21h512v512h-512Z" fill="#1b1f21"/><path d="M477.745 452.835h-93.198c.026 10.152.114 25.286.237 39.722h74.222a18.739 18.739 0 0 0 18.738-18.739v-20.981zm-214.031 0v39.722h105.64a7274.65 7274.65 0 0 1-.238-39.722zm-15.428 39.722v-39.722H142.9c.021 10.157.036 25.276.005 39.722zM34.255 452.835v20.981a18.75 18.75 0 0 0 5.487 13.252 18.739 18.739 0 0 0 13.246 5.487h74.492c.026-14.436.01-29.57-.01-39.721H34.256Zm214.031-239.18H118.541c16.466 63.46 23.655 139.61 24.298 224.594l.04 6.849c-.004-2.288-.02-4.578-.04-6.85l-.005-.837h105.453zm149.429-15.428c4.053-13.788 8.579-26.906 13.612-39.33 1.604-3.944 6.104-5.847 10.048-4.248 3.944 1.6 5.852 6.104 4.253 10.048-5.226 12.882-9.88 26.536-14.009 40.92l.01.325c0 1.59-.484 3.066-1.312 4.293-15.228 55.17-22.874 120.638-25.09 193.584-.335 11.03-.546 22.23-.639 33.591h93.153V136.965a18.73 18.73 0 0 0-8.017-15.366c-44.433-30.834-88.858-52.045-133.296-63.638V44.949a18.66 18.66 0 0 0-2.062-8.547l-44.33 22.777a11.032 11.032 0 0 0-5.59 6.886l-20.734 75.531v56.634zm-4.263 15.428H263.715v223.754h105.449c.092-11.52.303-22.874.643-34.06 2.16-71 9.462-135.05 23.645-189.696zM34.257 437.409h93.149c-.71-87.358-8.337-165.175-26.248-229.046a7.247 7.247 0 0 1-.185-.664c-4.269-15.14-9.122-29.493-14.6-43.004-1.599-3.944.304-8.448 4.249-10.048a7.72 7.72 0 0 1 10.048 4.248c5.035 12.42 9.56 25.544 13.612 39.33H248.29v-56.638l-20.741-75.523a11.027 11.027 0 0 0-5.591-6.886l-44.271-22.75a18.652 18.652 0 0 0-2.062 8.526c-.057 6.65-.057 13.057-.057 13.057-44.434 11.612-88.854 32.815-133.271 63.596a18.727 18.727 0 0 0-8.028 15.366c-.01 42.168-.01 211.52-.01 300.433zm116.73-262.78h49.156a7.718 7.718 0 0 0 7.715-7.714c0-4.253-3.455-7.715-7.715-7.715h-49.155c-4.258 0-7.715 3.46-7.715 7.715a7.718 7.718 0 0 0 7.715 7.715zM191.86 26.37l37.144 19.09a26.447 26.447 0 0 1 13.418 16.523l13.576 49.434 13.572-49.434a26.448 26.448 0 0 1 13.417-16.524l37.237-19.134c-42.796-9.19-85.583-9.175-128.366.047z" fill-rule="evenodd" style="fill:#e64539;fill-opacity:1;stroke-width:.415691;filter:url(#a)"/></svg>