<svg width="512" height="512" version="1.1" id="svg8" xml:space="preserve" xmlns="http://www.w3.org/2000/svg"><defs id="defs12"><filter style="color-interpolation-filters:sRGB" id="filter875" x="-.313" y="-.169" width="1.609" height="1.328"><feFlood flood-opacity="1" flood-color="#3A3F5E" result="flood" id="feFlood865"/><feComposite in="flood" in2="SourceGraphic" operator="out" result="composite1" id="feComposite867"/><feGaussianBlur in="composite1" stdDeviation="15" result="blur" id="feGaussianBlur869"/><feOffset dx="0" dy="0" result="offset" id="feOffset871"/><feComposite in="offset" in2="SourceGraphic" operator="atop" result="composite2" id="feComposite873"/></filter><filter style="color-interpolation-filters:sRGB" id="filter1015" x="-.082" y="-.044" width="1.164" height="1.088"><feFlood flood-opacity="1" flood-color="#3A3F5E" result="flood" id="feFlood1005"/><feComposite in="flood" in2="SourceGraphic" operator="out" result="composite1" id="feComposite1007"/><feGaussianBlur in="composite1" stdDeviation="8.302" result="blur" id="feGaussianBlur1009"/><feOffset dx="0" dy="0" result="offset" id="feOffset1011"/><feComposite in="offset" in2="SourceGraphic" operator="atop" result="composite2" id="feComposite1013"/></filter><filter style="color-interpolation-filters:sRGB" id="filter35638" x="-.057" y="-.131" width="1.114" height="1.261"><feFlood flood-opacity="1" flood-color="#3A3F5E" result="flood" id="feFlood35628"/><feComposite in="flood" in2="SourceGraphic" operator="out" result="composite1" id="feComposite35630"/><feGaussianBlur in="composite1" stdDeviation="6" result="blur" id="feGaussianBlur35632"/><feOffset dx="0" dy="0" result="offset" id="feOffset35634"/><feComposite in="offset" in2="SourceGraphic" operator="atop" result="composite2" id="feComposite35636"/></filter><filter style="color-interpolation-filters:sRGB" id="filter35813" x="-.053" y="-.07" width="1.107" height="1.139"><feFlood flood-opacity="1" flood-color="#3A3F5E" result="flood" id="feFlood35803"/><feComposite in="flood" in2="SourceGraphic" operator="out" result="composite1" id="feComposite35805"/><feGaussianBlur in="composite1" stdDeviation="8" result="blur" id="feGaussianBlur35807"/><feOffset dx="0" dy="0" result="offset" id="feOffset35809"/><feComposite in="offset" in2="SourceGraphic" operator="atop" result="composite2" id="feComposite35811"/></filter><filter style="color-interpolation-filters:sRGB" id="filter36051" x="-.028" y="-.039" width="1.056" height="1.078"><feFlood flood-opacity="1" flood-color="#3A3F5E" result="flood" id="feFlood36041"/><feComposite in="flood" in2="SourceGraphic" operator="out" result="composite1" id="feComposite36043"/><feGaussianBlur in="composite1" stdDeviation="6" result="blur" id="feGaussianBlur36045"/><feOffset dx="0" dy="0" result="offset" id="feOffset36047"/><feComposite in="offset" in2="SourceGraphic" operator="atop" result="composite2" id="feComposite36049"/></filter><filter style="color-interpolation-filters:sRGB" id="filter36715" x="-.07" y="-.091" width="1.139" height="1.182"><feFlood flood-opacity="1" flood-color="#3A3F5E" result="flood" id="feFlood36705"/><feComposite in="flood" in2="SourceGraphic" operator="out" result="composite1" id="feComposite36707"/><feGaussianBlur in="composite1" stdDeviation="16.201" result="blur" id="feGaussianBlur36709"/><feOffset dx="0" dy="0" result="offset" id="feOffset36711"/><feComposite in="offset" in2="SourceGraphic" operator="atop" result="composite2" id="feComposite36713"/></filter><filter style="color-interpolation-filters:sRGB" id="filter37057" x="-.08" y="-.075" width="1.16" height="1.15"><feFlood flood-opacity="1" flood-color="#3A3F5E" result="flood" id="feFlood37047"/><feComposite in="flood" in2="SourceGraphic" operator="out" result="composite1" id="feComposite37049"/><feGaussianBlur in="composite1" stdDeviation=".5" result="blur" id="feGaussianBlur37051"/><feOffset dx="0" dy="0" result="offset" id="feOffset37053"/><feComposite in="offset" in2="SourceGraphic" operator="atop" result="composite2" id="feComposite37055"/></filter><filter style="color-interpolation-filters:sRGB" id="filter3381" x="-.08" y="-.165" width="1.159" height="1.33"><feFlood flood-opacity="1" flood-color="#3A3F5E" result="flood" id="feFlood3371"/><feComposite in="flood" in2="SourceGraphic" operator="out" result="composite1" id="feComposite3373"/><feGaussianBlur in="composite1" stdDeviation="15" result="blur" id="feGaussianBlur3375"/><feOffset dx="0" dy="0" result="offset" id="feOffset3377"/><feComposite in="offset" in2="SourceGraphic" operator="atop" result="composite2" id="feComposite3379"/></filter><filter style="color-interpolation-filters:sRGB" id="filter5102" x="-.031" y="-.045" width="1.062" height="1.091"><feFlood flood-opacity="1" flood-color="#3A3F5E" result="flood" id="feFlood5092"/><feComposite in="flood" in2="SourceGraphic" operator="out" result="composite1" id="feComposite5094"/><feGaussianBlur in="composite1" stdDeviation="15" result="blur" id="feGaussianBlur5096"/><feOffset dx="0" dy="0" result="offset" id="feOffset5098"/><feComposite in="offset" in2="SourceGraphic" operator="atop" result="composite2" id="feComposite5100"/></filter><filter style="color-interpolation-filters:sRGB" id="filter5801" x="-.027" y="-.388" width="1.055" height="1.776"><feFlood flood-opacity="1" flood-color="#3A3F5E" result="flood" id="feFlood5791"/><feComposite in="flood" in2="SourceGraphic" operator="out" result="composite1" id="feComposite5793"/><feGaussianBlur in="composite1" stdDeviation="5" result="blur" id="feGaussianBlur5795"/><feOffset dx="0" dy="0" result="offset" id="feOffset5797"/><feComposite in="offset" in2="SourceGraphic" operator="atop" result="composite2" id="feComposite5799"/></filter><filter style="color-interpolation-filters:sRGB" id="filter6473" x="-.027" y="-.091" width="1.054" height="1.183"><feFlood flood-opacity="1" flood-color="#3A3F5E" result="flood" id="feFlood6463"/><feComposite in="flood" in2="SourceGraphic" operator="out" result="composite1" id="feComposite6465"/><feGaussianBlur in="composite1" stdDeviation="5" result="blur" id="feGaussianBlur6467"/><feOffset dx="0" dy="0" result="offset" id="feOffset6469"/><feComposite in="offset" in2="SourceGraphic" operator="atop" result="composite2" id="feComposite6471"/></filter></defs><path d="M0 0h512v512H0z" fill="#b90202" fill-opacity="1" id="path2" style="fill:#1b1f21;fill-opacity:1"/><style type="text/css" id="style35976">.st0{fill:#000}</style><g id="g6461" style="filter:url(#filter6473)" transform="matrix(-1.0555 0 0 1.0555 540.503 -17.13)"><path d="M198.49 206.092h24.663v-2.71c4.99.865 10.008 1.946 14.5 3.312 14.952 4.538 26.338 11.288 29.509 13.273a3.15 3.15 0 0 0 2.005.447l140.566-14.829c3.69-.389 3.376-5.348-.342-5.348H223.156v-3.125h-24.663v-3.109a4.491 4.491 0 0 0-8.981 0v3.11h-24.615v3.124H-21.369c-3.717 0-4.031 4.96-.342 5.348l140.566 14.83a3.151 3.151 0 0 0 2.005-.448c3.173-1.984 14.559-8.735 29.51-13.272 4.495-1.365 9.524-2.453 14.525-3.318v2.715h24.615z" id="path5240" style="fill:#e64539;fill-opacity:1;stroke-width:.444379" transform="translate(61.677 65.47) scale(.67347)"/><g id="g5900" transform="translate(26.027 32.507) scale(.38328)" style="fill:#e64539;fill-opacity:1"><path d="M560.75 740.11H281.36a4.815 4.815 0 0 0-4.813 4.824v4.57c-12.852-.73-17.137-3.046-20.398-4.8-.574-.301-1.128-.614-1.668-.887-3.011-1.5-25.14-13.715-41.27-22.645-9.937-5.387-19.969 2.555-19.969 2.555s51.227 28.379 55.895 30.73c.446.215.875.468 1.332.707 4.403 2.386 10.934 5.902 30.18 6.422.239.047.47.07.708.07h279.41a4.81 4.81 0 0 0 4.812-4.8v-11.903a4.806 4.806 0 0 0-4.82-4.844z" id="path5890" style="fill:#e64539;fill-opacity:1"/><path d="m1220.417 486.357-210.703-1.226 1.972 27.224 84.11.426-24.281 48.149-448.93-11.879-41.148-10.285s-.059-.29-.156-.805l25.094-2.304v-28.895c-12.95 0-22.922 1.21-30.348 2.734-2.735-14.387-9.672-34.477-53.258-34.477H441.38v-23.885h-17.213v23.885h-49.31c-13.608 0-18.405 7.055-20.976 10.766-2.567 3.73-10.2 14.172-10.2 14.172h-10.966c-27.622 0-28.867 1.363-83.316 23.953-145.303 71.037-144.888 71.82-144.888 71.82s-30.887 22.152-30.887 38.82c0 44.953 166.05 58.523 208.56 58.523h59.363v36.961h11.902v-36.961h51.574c16.285 0 37.883-2.316 52.285-5.531 5.281-1.176 25.066-6.73 48.035-13.285v55.777h11.902v-59.207c37.008-10.633 77.062-22.332 77.062-22.332l178.08-17.543 8.797 14.09 21.527-2.258 1.922-14.988 253.74-31.512 14.216 9.684 50.79-1.936-.322-14.103 36.133-3.54v-11.901l-35.177-.45 11.823-60.36 79.612-.005zM113.885 599.16c140.424-68.244 140.533-68.594 140.533-68.594h5.508l-1.524 10.031-81.369 65.084s-42.167-3.886-63.148-6.52zm240.536-9.515-17.438 10.621s-34.367 1.813-69.562 3.133c-64.513 4.249-.362.157-64.592 3.974 2.688-5.148 76.499-68.96 76.499-68.96l14.102-8.509h69.987z" id="path5898" style="fill:#e64539;fill-opacity:1"/></g></g></svg>