<svg width="512" height="512" version="1.1" id="svg8" xml:space="preserve" xmlns="http://www.w3.org/2000/svg"><defs id="defs12"><filter style="color-interpolation-filters:sRGB" id="filter875" x="-.313" y="-.169" width="1.609" height="1.328"><feFlood flood-opacity="1" flood-color="#3A3F5E" result="flood" id="feFlood865"/><feComposite in="flood" in2="SourceGraphic" operator="out" result="composite1" id="feComposite867"/><feGaussianBlur in="composite1" stdDeviation="15" result="blur" id="feGaussianBlur869"/><feOffset dx="0" dy="0" result="offset" id="feOffset871"/><feComposite in="offset" in2="SourceGraphic" operator="atop" result="composite2" id="feComposite873"/></filter><filter style="color-interpolation-filters:sRGB" id="filter1015" x="-.082" y="-.044" width="1.164" height="1.088"><feFlood flood-opacity="1" flood-color="#3A3F5E" result="flood" id="feFlood1005"/><feComposite in="flood" in2="SourceGraphic" operator="out" result="composite1" id="feComposite1007"/><feGaussianBlur in="composite1" stdDeviation="8.302" result="blur" id="feGaussianBlur1009"/><feOffset dx="0" dy="0" result="offset" id="feOffset1011"/><feComposite in="offset" in2="SourceGraphic" operator="atop" result="composite2" id="feComposite1013"/></filter><filter style="color-interpolation-filters:sRGB" id="filter35638" x="-.057" y="-.131" width="1.114" height="1.261"><feFlood flood-opacity="1" flood-color="#3A3F5E" result="flood" id="feFlood35628"/><feComposite in="flood" in2="SourceGraphic" operator="out" result="composite1" id="feComposite35630"/><feGaussianBlur in="composite1" stdDeviation="6" result="blur" id="feGaussianBlur35632"/><feOffset dx="0" dy="0" result="offset" id="feOffset35634"/><feComposite in="offset" in2="SourceGraphic" operator="atop" result="composite2" id="feComposite35636"/></filter><filter style="color-interpolation-filters:sRGB" id="filter35813" x="-.053" y="-.07" width="1.107" height="1.139"><feFlood flood-opacity="1" flood-color="#3A3F5E" result="flood" id="feFlood35803"/><feComposite in="flood" in2="SourceGraphic" operator="out" result="composite1" id="feComposite35805"/><feGaussianBlur in="composite1" stdDeviation="8" result="blur" id="feGaussianBlur35807"/><feOffset dx="0" dy="0" result="offset" id="feOffset35809"/><feComposite in="offset" in2="SourceGraphic" operator="atop" result="composite2" id="feComposite35811"/></filter><filter style="color-interpolation-filters:sRGB" id="filter36051" x="-.028" y="-.039" width="1.056" height="1.078"><feFlood flood-opacity="1" flood-color="#3A3F5E" result="flood" id="feFlood36041"/><feComposite in="flood" in2="SourceGraphic" operator="out" result="composite1" id="feComposite36043"/><feGaussianBlur in="composite1" stdDeviation="6" result="blur" id="feGaussianBlur36045"/><feOffset dx="0" dy="0" result="offset" id="feOffset36047"/><feComposite in="offset" in2="SourceGraphic" operator="atop" result="composite2" id="feComposite36049"/></filter><filter style="color-interpolation-filters:sRGB" id="filter36715" x="-.07" y="-.091" width="1.139" height="1.182"><feFlood flood-opacity="1" flood-color="#3A3F5E" result="flood" id="feFlood36705"/><feComposite in="flood" in2="SourceGraphic" operator="out" result="composite1" id="feComposite36707"/><feGaussianBlur in="composite1" stdDeviation="16.201" result="blur" id="feGaussianBlur36709"/><feOffset dx="0" dy="0" result="offset" id="feOffset36711"/><feComposite in="offset" in2="SourceGraphic" operator="atop" result="composite2" id="feComposite36713"/></filter><filter style="color-interpolation-filters:sRGB" id="filter37057" x="-.08" y="-.075" width="1.16" height="1.15"><feFlood flood-opacity="1" flood-color="#3A3F5E" result="flood" id="feFlood37047"/><feComposite in="flood" in2="SourceGraphic" operator="out" result="composite1" id="feComposite37049"/><feGaussianBlur in="composite1" stdDeviation=".5" result="blur" id="feGaussianBlur37051"/><feOffset dx="0" dy="0" result="offset" id="feOffset37053"/><feComposite in="offset" in2="SourceGraphic" operator="atop" result="composite2" id="feComposite37055"/></filter></defs><path d="M0 0h512v512H0z" fill="#b90202" fill-opacity="1" id="path2" style="fill:#1b1f21;fill-opacity:1"/><style type="text/css" id="style35976">.st0{fill:#000}</style><g style="fill:#e64539;fill-opacity:1;filter:url(#filter37057)" id="g36830" transform="translate(17.068 17.068) scale(29.86656)"><path id="path36821" style="fill:#e64539;fill-opacity:1" d="M7.982-.06c-.097 0-.195.007-.293.019-1.197.257-2.123 1.171-3.2 1.714-1.12.74-2.367 1.311-3.409 2.157C.062 4.874.546 6.44.434 7.736c.088 1.228-.194 2.512.171 3.703.53 1.244 1.99 1.598 2.996 2.35 1.275.702 2.447 1.623 3.786 2.191 1.383.409 2.487-.759 3.61-1.342 1.29-.846 2.711-1.516 3.923-2.468 1.018-1.044.534-2.61.646-3.906-.088-1.228.194-2.512-.171-3.703-.53-1.244-1.99-1.598-2.996-2.35-1.273-.702-2.444-1.62-3.78-2.19a2.396 2.396 0 0 0-.637-.081ZM8 3.46c.148 0 .267.12.267.267v2.348a.267.267 0 0 1-.534 0V3.728c0-.147.12-.267.267-.267ZM9.884 4a.335.335 0 0 1 .314.459L9.392 6.17a.38.38 0 0 1-.136.182.335.335 0 0 1-.498-.401c.272-.582.547-1.162.82-1.744A.337.337 0 0 1 9.885 4Zm-3.764.067a.266.266 0 0 1 .233.153l.821 1.742a.267.267 0 1 1-.483.228l-.82-1.742a.267.267 0 0 1 .25-.381zM4.81 5.585a.432.432 0 0 1 .304.11l.947.846a.433.433 0 0 1-.577.646l-.54-.483a.139.139 0 0 0-.184.207l.113.101a.727.727 0 0 0 .2.73.726.726 0 0 0 0 1.059.726.726 0 0 0 0 1.059.726.726 0 0 0-.103.938h-.905A1.498 1.498 0 0 1 2.568 9.3V8.215c0-.35.082-.592.341-.918.099-.125.369-.414 1.603-1.578l.004-.004a.432.432 0 0 1 .295-.13Zm6.362.066c.026 0 .052.003.078.01a10.56 10.56 0 0 1 1.846 1.756c.441.627.245 1.459.24 2.175-.175.967-1.251 1.28-2.104 1.139-.104-.106.096-.592-.158-.803.022-.247.302-.695.03-1.009-.125-.234.28-.588.07-.912-.305-.306.184-.587.025-.97.377-.168-.04-.66-.264-.316-.23.278-.802.805-1.054.264-.072-.575.715-.784.998-1.193a.421.421 0 0 1 .293-.141zM6.479 6.804h.386c.28 0 .523.212.542.491a.528.528 0 0 1-.25.487h.14c.284 0 .53.22.543.504a.529.529 0 0 1-.529.554h-.119c.16.1.265.282.25.487a.538.538 0 0 1-.541.492h-.158c.16.1.264.281.25.487a.538.538 0 0 1-.542.492h-.96a.418.418 0 0 1-.334-.408c0-.144.073-.275.191-.35a.157.157 0 0 1 .085-.024h.705a.16.16 0 0 0 .16-.125.157.157 0 0 0-.154-.188h-.718a.143.143 0 0 1-.081-.025.415.415 0 0 1 0-.696.166.166 0 0 1 .088-.025h1.022a.167.167 0 0 0 .16-.11.157.157 0 0 0-.15-.203H5.433a.166.166 0 0 1-.088-.025.415.415 0 0 1 0-.696.157.157 0 0 1 .085-.025h.843c.117 0 .197-.13.133-.236a.165.165 0 0 0-.142-.077h-.138a.023.023 0 0 1-.01-.044.601.601 0 0 0 .183-.14c.136-.152.196-.41.18-.597Zm2.656 0h.385a.702.702 0 0 0 .177.533c.07.077.145.139.226.185.03.017.018.063-.017.063h-.17a.164.164 0 0 0-.142.077.156.156 0 0 0 .134.236h.841c.03 0 .06.009.086.025a.418.418 0 0 1 0 .696.18.18 0 0 1-.092.025H9.535a.156.156 0 0 0-.133.237c.03.049.085.076.142.076h1.025c.03 0 .06.009.086.025a.414.414 0 0 1 0 .696.152.152 0 0 1-.084.025h-.715a.157.157 0 0 0-.153.188.16.16 0 0 0 .159.125h.707c.03 0 .06.009.086.026a.414.414 0 0 1 .188.348.418.418 0 0 1-.333.408h-.961a.538.538 0 0 1-.542-.492.528.528 0 0 1 .25-.487H9.1a.538.538 0 0 1-.541-.492.528.528 0 0 1 .25-.487h-.12a.53.53 0 0 1-.528-.554.539.539 0 0 1 .544-.504h.14a.528.528 0 0 1-.25-.487.538.538 0 0 1 .54-.491ZM5.16 7.27l.139.124c.07.061.147.11.23.146.023.01.016.046-.01.046h-.087a.156.156 0 0 1-.085-.025.414.414 0 0 1-.187-.291Zm5.678 0a.414.414 0 0 1-.184.29.144.144 0 0 1-.082.025h-.023c-.034 0-.048-.044-.019-.062a.675.675 0 0 0 .092-.07z"/></g></svg>