<svg viewBox="0 0 512 512" style="height:512px;width:512px" xmlns="http://www.w3.org/2000/svg"><defs><filter style="color-interpolation-filters:sRGB" id="a" x="-.03" y="-.032" width="1.06" height="1.063"><feFlood flood-opacity="1" flood-color="#3A3F5E" result="flood"/><feComposite in="flood" in2="SourceGraphic" operator="out" result="composite1"/><feGaussianBlur in="composite1" stdDeviation="15" result="blur"/><feOffset result="offset"/><feComposite in="offset" in2="SourceGraphic" operator="atop" result="composite2"/></filter></defs><path d="M.359-.21h512v512h-512Z" fill="#1b1f21"/><g transform="translate(19.49 19.55) scale(.3942)" style="fill:#e64539;fill-opacity:1;filter:url(#a)"><path d="M581.05 159.54a221.48 221.48 0 0 0 25.266 2.023 240.117 240.117 0 0 0 25.262-3.41c-1.516 301.3-2.988 602.86-4.422 904.67h-58.734c4.211-299.96 8.422-601.05 12.63-903.29zm65.94 216.12a685.087 685.087 0 0 0 273.73-20.211 413.717 413.717 0 0 0 32.336 143.75c-101.05 31.957-203.75 22.23-306.06 27.41zm-393.6 118.23a411.845 411.845 0 0 0 34.988-142.86 678.679 678.679 0 0 0 272.34 25.262v150.7c-103.2-6.945-206.4.379-307.32-33.094zm26.65-278.27a93.246 93.246 0 0 0 11.871-6.063 585.155 585.155 0 0 1 169.39-78.82 27.028 27.028 0 0 1 24.125 2.145 211.383 211.383 0 0 0 73.645 21.98c2.148 0 4.293 1.262 6.95 2.02l-4.423 202.99c-36.379 0-72.125 2.652-107.37-.633-52.422-4.801-104.59-13.641-156.76-21.223-3.03 0-7.707-4.168-7.957-6.696-3.535-37.262-6.441-74.527-9.472-111.79zm367.2 139.83V156.12a105.664 105.664 0 0 1 19.578-4.672 196.54 196.54 0 0 0 65.812-19.707 24.151 24.151 0 0 1 15.535 0 603.433 603.433 0 0 1 133.89 57.602c16.547 9.98 32.59 20.844 50.527 32.211-2.777 21.348-5.938 43.832-8.465 66.441-1.64 14.527-2.652 29.051-2.906 43.707 0 7.453-2.398 10.105-9.852 11.621a886.704 886.704 0 0 1-258.32 14.02 41.512 41.512 0 0 1-5.808-1.894zM274.23 670.74c-5.18-31.832-10.863-61.516-14.652-91.453-3.031-23.367-3.914-46.988-5.937-72.504 99.789 39.664 202.99 31.453 304.8 39.156v153.09c-64.293 12.883-174.57 1.516-284.21-28.293zm372.13-128.47c37.012 0 72.883.883 108.76 0 53.18-1.64 106.61-2.652 158.27-17.43 12.633-3.535 24.125-7.832 36.758-11.875 5.05 55.453-15.914 107.24-19.328 164.21-34.359 6.316-69.852 12.633-105.47 19.199a588.39 588.39 0 0 1-162.44 4.926c-18.695-1.516-18.695-.883-18.695-18.695 0-42.695.293-85.43.883-128.21.379-2.903.758-5.809 1.265-12.125zm-2.15 176.85c100.42 17.809 195.03-2.398 289.39-32.969a300.125 300.125 0 0 1 5.684 90.062c-4.672 33.602-12.633 66.82-20.336 100.04a14.795 14.795 0 0 1-9.727 8.59c-15.535 4.043-31.453 6.82-47.117 10.609-8.336 2.02-11.621 0-13.77-8.969-10.23-43.328-21.094-86.652-32.086-129.85-4.043-15.41-10.863-18.062-26.652-14.652-12.633 2.527-13.641 8.969-11.621 19.328a6641.281 6641.281 0 0 1 24 126.32c.633 3.664 1.39 7.328 2.398 13.391l-160.16-3.164z" style="fill:#e64539;fill-opacity:1"/><path d="M346.86 894.44c-20.086-4.8-39.031-8.969-57.727-14.148-4-1.324-7.223-4.32-8.844-8.207a377.567 377.567 0 0 1-12.629-185.18c.43-1.887.977-3.742 1.64-5.559 93.095 32.336 187.45 54.57 286.99 37.895v179.24H394.48c4.169-19.199 8.337-37.895 12.634-55.328 5.937-28.547 11.496-57.223 17.305-85.77 1.894-8.843 0-14.527-10.105-17.05-14.398-3.536-22.36-2.399-26.02 6.949-3.664 9.347-5.809 17.809-8.211 26.777l-29.938 112.8a77.42 77.42 0 0 1-3.285 7.578zm208.05 20.47v149.81c-16.293 1.39-32.59 3.41-48.883 4.168-67.328 3.41-134.78 6.316-202.11 9.602-7.2 0-11.496-1.516-12.633-8.59a573.278 573.278 0 0 1-13.391-61.137 426.33 426.33 0 0 1 5.18-116.71l60.883 19.199c-3.536 16.043-7.328 32.59-10.738 49.262-4.926 23.875 9.093 37.895 32.59 30.316a21.58 21.58 0 0 0 10.738-13.391c4.422-16.547 7.832-33.473 10.738-50.527 1.515-8.59 5.304-10.105 13.516-9.98h140.59v.003a101.296 101.296 0 0 0 13.516-2.02zm87.41 149.69V916.05c32.465 1.39 63.156 3.031 94.23 3.79h61.895c8.969 0 11.746 2.905 12.633 10.737 2.777 16.672 6.191 33.094 9.602 49.641h-.004a18.318 18.318 0 0 0 23.496 16.293c12.633-1.516 22.359-9.852 21.223-21.348-1.641-14.906-5.051-29.559-7.707-44.211-.883-5.18-1.895-10.23-3.032-15.535l61.77-18.191c1.39 15.535 3.031 30.57 4.043 45.727v.004a324.342 324.342 0 0 1-10.359 118.1c-7.199 23.367-7.578 22.863-31.832 21.223-60.254-4.168-120.5-7.832-180.76-12-18.188-2.02-36.758-4.043-55.199-5.684zm-611.75-419a525.984 525.984 0 0 0 214.73 69.473 496.618 496.618 0 0 0-2.398 66.316 179.825 179.825 0 0 1-18.57 87.66 25.022 25.022 0 0 1-2.145 4.043s-1.012 1.012 0 0c-34.988-5.684-68.59-10.484-101.94-16.926-33.348-6.441-67.328-14.652-101.05-21.348-7.707-1.64-9.348-6.57-10.609-12.633l-.004.004a253.388 253.388 0 0 1 7.957-145.01c3.664-10.609 8.715-20.59 14.023-31.578zm1143.03 10.61c3.914 8.715 8.59 17.051 11.875 25.262a256.813 256.813 0 0 1 7.074 147.29 17.041 17.041 0 0 1-5.238 10.523 17.041 17.041 0 0 1-10.805 4.633c-57.223 9.347-114.44 19.328-171.66 29.18-8.465 1.515-16.672 4.168-27.535 6.949-5.559-17.051-12.633-34.105-16.168-51.789a182.67 182.67 0 0 1-2.274-36.379c0-20.211 0-40.547-1.894-60.633-1.012-9.98 1.64-12.633 10.484-12.633a536.144 536.144 0 0 0 150.32-36.379c17.938-7.074 35.113-16.293 55.832-26.02zm-925.39 49.01c-74.777-17.938-147.66-37.895-214.74-74.398-8.21-79.582 34.613-138.19 80.211-196.17a293.072 293.072 0 0 0 117.98 82.738c8.21 3.41 9.602 7.328 9.223 15.664l-.004-.004a415.604 415.604 0 0 0 10.234 103.71c2.273 11.367 15.535 19.832 6.949 34.738h-.004a149.342 149.342 0 0 0-9.852 33.727zm706.86 5.94c-4.547-14.777-9.094-29.43-13.391-44.086v.004a6.692 6.692 0 0 1 0-5.18c16.547-24.504 16.422-53.305 20.336-80.844a294.995 294.995 0 0 0 2.023-44.84 11.746 11.746 0 0 1 8.84-12.633 298.814 298.814 0 0 0 110.27-69.852l10.738-11.496c15.535 22.863 31.2 44.715 45.473 67.328a208.542 208.542 0 0 1 31.707 123.29 11.5 11.5 0 0 1-7.832 11.621 774.223 774.223 0 0 1-177.98 58.105c-9.726 2.02-19.578 5.555-30.188 8.586zM218.15 885.35a433.031 433.031 0 0 1 3.66 137.94c-1.77 9.852-4.672 14.777-15.914 14.906-15.664 0-31.328 2.906-46.988 4.672a275.322 275.322 0 0 1-97.77-9.602 55.448 55.448 0 0 1-39.535-33.094 188.7 188.7 0 0 1-16.297-133.01c3.41-15.41 6.192-16.293 21.094-11.746a591.203 591.203 0 0 0 184.55 29.938zm762.69 7.45c29.684-2.023 57.348-2.023 84.883-5.813 36.883-5.808 73.391-14.906 109.77-23.242 11.496-2.652 15.914-1.894 18.316 9.852v.004a185.44 185.44 0 0 1-11.492 121.77c-5.809 11.875-12 23.367-18.316 34.988-1.137 2.02-3.031 4.547-5.05 5.05-31.329 7.2-62.149 18.317-94.989 15.915-26.906-2.02-53.684-5.18-80.336-8.844-3.285 0-7.328-7.578-8.086-12.633l-.004.01a366.326 366.326 0 0 1 2.528-120.88c.886-5.558 1.894-10.609 2.78-16.168zM238.99 505.77a397.218 397.218 0 0 1-115.2-78.062 15.42 15.42 0 0 1-1.64-11.875 196.378 196.378 0 0 1 42.061-83.496 722.935 722.935 0 0 1 51.914-57.473c17.18-17.305 35.746-33.094 52.801-48.633a543.146 543.146 0 0 1-29.938 279.54zm725.94 6.06c-8.844-37.895-18.695-75.789-25.262-112.55a442.88 442.88 0 0 1-1.012-129.86c1.516-12.633 1.77-25.895 2.778-39.535 46.738 45.094 96.758 86.273 126.32 145.01a389.344 389.344 0 0 1 17.812 47.113 14.903 14.903 0 0 1 .468 9.738 14.896 14.896 0 0 1-5.648 7.95 424.686 424.686 0 0 1-111.16 70.987 19.419 19.419 0 0 1-4.297 1.137z" style="fill:#e64539;fill-opacity:1"/><path d="M216.25 1049.4a254.247 254.247 0 0 1-6.063 101.05c-2.398 8.336-8.21 8.59-14.273 9.348h-.003a298.953 298.953 0 0 1-101.05-4.676c-7.957-1.77-16.293-2.273-25.262-3.535a223.534 223.534 0 0 1-37.895-112.67c59.367 34.23 121.39 31.449 184.55 10.48zm763.33 5.6c63.156 21.348 124.42 25.262 186.44-7.957-1.77 11.242-3.156 20.465-4.8 29.684a211.834 211.834 0 0 1-33.099 78.062 11.476 11.476 0 0 1-6.566 5.055 7053.394 7053.394 0 0 1-93.98 7.957 85.715 85.715 0 0 1-17.938-1.262c-28.547-3.914-22.61 0-28.801-26.398h.004a256.236 256.236 0 0 1-1.266-85.137zM483.54 57.094c82.609 21.094 164.21 27.41 247.45-1.262.758 16.422 1.895 33.727 2.148 50.527 0 2.399-3.914 5.938-6.695 6.95v-.004a341.852 341.852 0 0 1-181.14 15.917c-20.086-4.168-39.664-10.609-59.242-16.672v-.003a10.986 10.986 0 0 1-5.43-8.59c.504-15.664 1.895-31.324 2.903-46.863z" style="fill:#e64539;fill-opacity:1"/><path d="M514.11 44.465c70.23-9.98 140.34-21.602 210.95-2.148a543.885 543.885 0 0 1-210.95 2.148ZM786.82 756.12l14.398-1.77 23.746 106.99c8.086 35.875 15.789 71.621 24.254 107.37 2.527 10.36-5.05 9.473-10.988 12.633zM359.5 977.56c-9.348-1.262-12.633-4.293-10.23-14.777 16.168-64.926 31.453-130.23 46.988-195.29 1.137-4.8 1.64-9.602 2.652-15.535l16.043 1.895z" style="fill:#e64539;fill-opacity:1"/></g></svg>