<svg viewBox="0 0 512 512" style="height:512px;width:512px" xmlns="http://www.w3.org/2000/svg"><defs><filter id="a" height="1.174" width="1.208" x="-.104" y="-.087"><feFlood flood-color="rgba(58, 63, 94, 1)" result="flood"/><feComposite in="flood" in2="SourceGraphic" operator="out" result="composite"/><feGaussianBlur in="composite" stdDeviation="15" result="blur"/><feOffset result="offset"/><feComposite in2="SourceGraphic" in="offset" operator="atop"/></filter></defs><path d="M0 0h512v512H0z" fill="#1b1f21"/><path d="M417.507 42.987 274.854 211.214c-3.7-1.6-7.2-2.6-10.9-2.7-1.6 2.4-1.5 3.9-.2 6.9 1.4 3.2 5.1 7.3 9.7 10.3 4.6 3 10.1 4.8 14.3 5 2.7.1 4.7-.4 6.3-1.4 0-.1-.1-.2-.1-.3-1-2.2-2.6-4.6-4.7-7L421.75 45.685ZM204.654 278.514c27.8 27.5 52 32.8 67.8 29.6 15.5-3.1 22.9-13.7 22.4-22.5-.9-3-2.3-5.8-3.9-8.7-4.7 5.2-9.9 9.9-15 14.5-6.7 6.1-15.4 4.9-22.5 2.5-7.1-2.4-14-6.5-20.4-11.5-11.3-9-26.5-24.1-21.3-38.3-1.217-8.37 10.338-10.224 10.338-10.224s-8.417-7.274-16.573-2.48c-16.664 9.793-8.722 40.944-.865 47.104zm42-57.6c-9.8 9.4-13.8 19.2-18.1 30 7.1 12.1 21.4 24.7 35.4 27.1 10.9-9.8 19.9-18.4 25.3-29.4-.7.1-1.4.1-2.1.1-8.4-.3-16.5-3.3-23.5-7.9-7-4.5-13-10.5-16.4-18.1zm-64.572 6.257-81.088 93.743c-7.83 10.7-15.87 21.2-23.78 31.7-6.06 10.1.78 22.5 5.7 30.4 8.93 14 24.64 29.8 42.34 43 17.5 13.1 37.2 23.7 53.2 28.2 9.8 2.4 24.3 5.2 30.8-3.2l91.4-122.3c-.7-4.6-1.6-9-2.6-13.1-6 4.9-13.5 8.5-22.1 10.2-67.64-5.523-85.927-26.27-96.934-76.228-1.33-6.035 3.818-19.074 3.062-22.415z" fill="#e64539" filter="url(#a)"/></svg>