<svg viewBox="0 0 512 512" style="height:512px;width:512px" xmlns="http://www.w3.org/2000/svg"><defs><filter style="color-interpolation-filters:sRGB" id="a" x="-.025" y="-.034" width="1.05" height="1.068"><feFlood flood-opacity="1" flood-color="#3A3F5E" result="flood"/><feComposite in="flood" in2="SourceGraphic" operator="out" result="composite1"/><feGaussianBlur in="composite1" stdDeviation="8" result="blur"/><feOffset result="offset"/><feComposite in="offset" in2="SourceGraphic" operator="atop" result="composite2"/></filter></defs><path d="M.359-.21h512v512h-512Z" fill="#1b1f21"/><g transform="translate(-25.826 -133) scale(.6102)" style="fill:#e64539;fill-opacity:1;filter:url(#a)"><path d="M692.689 731.25a93.77 93.77 0 0 0-66.293 27.457A93.77 93.77 0 0 0 598.939 825a93.77 93.77 0 0 0 27.457 66.293 93.77 93.77 0 0 0 66.293 27.457 93.77 93.77 0 0 0 66.293-27.457A93.77 93.77 0 0 0 786.439 825a93.868 93.868 0 0 0-93.75-93.75zm-448.939 0a93.77 93.77 0 0 0-66.293 27.457A93.77 93.77 0 0 0 150 825a93.77 93.77 0 0 0 27.457 66.293 93.77 93.77 0 0 0 66.293 27.457 93.77 93.77 0 0 0 66.293-27.457A93.77 93.77 0 0 0 337.5 825a93.868 93.868 0 0 0-93.75-93.75Zm-150-37.5A18.752 18.752 0 0 0 112.5 675v-37.5a18.752 18.752 0 0 0-18.75-18.75H75v75zm373.709-262.498H245.95l-55.263 112.5h287.76l56.25-56.25zM531.47 543.75h59.477l-29.738-29.738z" style="fill:#e64539;fill-opacity:1"/><path d="m748.939 618.75-.515-41.053-231.137-220.43s-25.54-.89-68.575-1.02h-231.58l-128.57 225h5.195a56.234 56.234 0 0 1 39.773 16.477 56.236 56.236 0 0 1 16.477 39.773v3.75l-1.078 44.305s-9.304 24.43-19.375 32.77a56.24 56.24 0 0 1-35.805 12.926H75v75h39a131.075 131.075 0 0 1 69.68-97.87 131.071 131.071 0 0 1 120.14 0 131.081 131.081 0 0 1 69.68 97.87h189.44a131.075 131.075 0 0 1 69.68-97.87 131.071 131.071 0 0 1 120.14 0 131.081 131.081 0 0 1 69.68 97.87h26.246v-93.75h-5.997a93.868 93.868 0 0 1-93.75-93.75zm-317.689 37.5h-37.5v-37.5h37.5zm112.5 0h-75v-37.5h75zm139.961-75-530.916-8.887 81.09-175.812 246.327-2.8z" style="fill:#e64539;fill-opacity:1"/><path d="M773.723 594.709v28.293a56.234 56.234 0 0 0 16.477 39.773 56.236 56.236 0 0 0 39.773 16.477h18.75z" style="fill:#e64539;fill-opacity:1"/></g></svg>