<svg viewBox="0 0 512 512" style="height:512px;width:512px" xmlns="http://www.w3.org/2000/svg"><defs><filter style="color-interpolation-filters:sRGB" id="a" x="-.039" y="-.042" width="1.079" height="1.084"><feFlood flood-opacity="1" flood-color="#3A3F5E" result="flood"/><feComposite in="flood" in2="SourceGraphic" operator="out" result="composite1"/><feGaussianBlur in="composite1" stdDeviation="15" result="blur"/><feOffset result="offset"/><feComposite in="offset" in2="SourceGraphic" operator="atop" result="composite2"/></filter></defs><path d="M.359-.21h512v512h-512Z" fill="#1b1f21"/><g transform="translate(-54.076 -54.074) scale(.51678)" style="fill:#e64539;fill-opacity:1;filter:url(#a)"><path d="m686.84 193.5 2.078-23.855h-177.84l2.078 23.855zM480 314.77l-31.883 41.797 80.496 293.07-40.68-469.3-60.422 45.816 52.801 74.398a12.006 12.006 0 0 1-.312 14.211z" style="fill:#e64539;fill-opacity:1"/><path d="m425.46 346.8 30.145-39.602-49.5-69.719c-22.801 6.613-89.41 27.086-120.14 49.895-30 22.246-95.82 360.47-143.4 671.65l70.32 15.121 116.4-520.92a12 12 0 0 1 23.508.902c0 .059.098.098.098.156l34.008 259.12-.004-.004c.148 1.074.148 2.16 0 3.23l-44.098 313.73h197.21V781.61L423.437 357.2a11.992 11.992 0 0 1 2.027-10.401zM497.003 780c0 3.184-1.266 6.234-3.516 8.484a11.998 11.998 0 0 1-8.484 3.516H418.8c-6.629 0-12-5.371-12-12s5.371-12 12-12h66.254-.004c6.61.027 11.953 5.39 11.953 12zM684.77 217.5H515.23L564 778.95c0 .191-.059.36 0 .54.059.179 0 .323 0 .515v207h72v-207c0-.18.098-.325.098-.504 0-.18-.07-.348 0-.54zm229.26 69.88c-30.758-22.801-97.285-43.297-120.14-49.895l-49.488 69.719 30.145 39.602a11.995 11.995 0 0 1 2.027 10.453l-116.57 424.36v248.75h197.21l-44.086-313.74a11.773 11.773 0 0 1 0-3.23l34.008-259.12c0-.06.086-.098.098-.157l-.004.004a12 12 0 0 1 23.508-.902l116.4 520.92 70.32-15.12c-47.59-311.17-113.43-649.41-143.42-671.64zM701.01 974.26a14.006 14.006 0 1 1 5.36-26.946 14.005 14.005 0 0 1 8.644 12.941c-.008 7.731-6.274 13.996-14.004 14.004zm0-75.254a14.005 14.005 0 1 1 5.36-26.942 14 14 0 0 1 8.644 12.938c-.008 7.73-6.274 13.996-14.004 14.004zm80.195-107h-66.203c-6.629 0-12-5.371-12-12s5.371-12 12-12h66.203c6.629 0 12 5.371 12 12s-5.371 12-12 12z" style="fill:#e64539;fill-opacity:1"/><path d="m751.85 356.58-31.848-41.805a12.01 12.01 0 0 1-.254-14.234l52.801-74.398-60.422-45.816-40.773 469.33z" style="fill:#e64539;fill-opacity:1"/></g></svg>