<svg height="512" width="512" style="enable-background:new 0 0 512 512" xml:space="preserve" xmlns="http://www.w3.org/2000/svg"><defs><filter style="color-interpolation-filters:sRGB" id="a" x="-.086" y="-.086" width="1.171" height="1.171"><feFlood flood-opacity="1" flood-color="#3A3F5E" result="flood"/><feComposite in="flood" in2="SourceGraphic" operator="out" result="composite1"/><feGaussianBlur in="composite1" stdDeviation="15" result="blur"/><feOffset result="offset"/><feComposite in="offset" in2="SourceGraphic" operator="atop" result="composite2"/></filter></defs><path d="M0 0h512v512H0Z" fill="#b90202" style="fill:#1b1f21;fill-opacity:1"/><g style="fill:#e64539;fill-opacity:1;filter:url(#a)"><g style="fill:#e64539;fill-opacity:1"><path style="fill:#e64539;fill-opacity:1;stroke-width:.820792" d="M93.26 45.877c-26.125 0-47.383 21.258-47.383 47.4v40.15c0 9.667 7.827 17.512 17.51 17.512h17.51v35.02h-17.51c-9.683 0-17.51 7.844-17.51 17.51v215.254c0 26.142 21.258 47.4 47.383 47.4h215.27c9.683 0 17.51-7.844 17.51-17.51 0-11.626 5.9-17.51 17.51-17.51 11.609 0 17.51 5.883 17.51 17.51 0 9.666 7.828 17.51 17.511 17.51h40.168c26.125 0 47.383-21.258 47.383-47.4V93.277c0-26.142-21.258-47.4-47.383-47.4h-40.168c-9.683 0-17.511 7.844-17.511 17.51 0 .175-.753 17.51-17.51 17.51-16.25 0-17.51-13.413-17.51-17.51 0-9.666-7.827-17.51-17.51-17.51H93.26zm234.996 96.195c10.183-.978 19.215 6.56 20.193 16.742.978 10.183-6.56 19.216-16.742 20.194-10.183.978-19.215-6.56-20.193-16.742h-4.026c-6.558 0-12.484 4.084-14.785 10.24l-9.953 26.75c-3.337 8.86-11.794 14.727-21.344 14.785h-3.969v-6.902h3.97c6.557 0 12.483-4.085 14.784-10.24l9.954-26.753a22.693 22.693 0 0 1 21.285-14.783h4.716c2.13-7.306 8.516-12.6 16.11-13.29zm-99.297 5.346c8.802 0 15.877 7.078 15.877 15.822v158.781c-.058 4.315-1.495 8.514-4.084 11.909-6.615 8.629-18.983 10.3-27.67 3.683 4.947-5.005 7.709-11.678 7.709-18.697a3.464 3.464 0 0 0-3.453-3.453 3.463 3.463 0 0 0-3.451 3.453c0 10.816-8.802 19.617-19.617 19.617-10.816 0-19.618-8.802-19.618-19.617v-6.904c1.669.23 3.336.345 5.004.345h.059c1.898 0 3.394-1.552 3.394-3.45a3.464 3.464 0 0 0-3.453-3.454c-15.014-.115-27.21-12.252-27.267-27.267-.06-15.13 12.137-27.441 27.267-27.498a3.464 3.464 0 0 0 3.453-3.454 3.463 3.463 0 0 0-3.453-3.45c-5.523 0-10.987 1.323-15.877 3.911-1.726-1.265-3.165-2.818-4.373-4.601-5.695-8.572-3.394-20.078 5.178-25.774.748-.517 1.554-.92 2.36-1.322.23.518.46.977.747 1.438.979 1.668 3.049 2.243 4.717 1.265 1.669-.978 2.244-3.048 1.266-4.717-5.465-9.436-4.775-21.173 1.668-29.918 8.917-12.196 26.061-14.785 38.258-5.81 1.553 1.093 3.681.805 4.832-.748 1.093-1.554.805-3.682-.748-4.832a33.726 33.726 0 0 0-2.588-1.727c-1.266-2.359-1.957-4.946-1.957-7.65-.058-8.745 7.078-15.88 15.822-15.88l-.002-.001zm133.227 34.809c8.593.081 16.25 6.198 17.962 14.957 1.956 10.01-4.603 19.731-14.613 21.687-10.01 1.956-19.731-4.601-21.687-14.611h-29.57c-6.559 0-11.852 5.292-11.852 11.793h.002c-.058 10.298-8.4 18.698-18.813 18.64H257.44v-6.904h26.176c6.559 0 11.852-5.292 11.852-11.793.057-10.355 8.398-18.697 18.754-18.697h29.627a18.985 18.985 0 0 1 5.062-9.666c2.646-2.589 5.925-4.372 9.549-5.063a18.504 18.504 0 0 1 3.727-.343zm-155.659 4.322a14.925 14.925 0 0 0-4.664.451c-1.84.46-2.991 2.417-2.531 4.258.46 1.84 2.358 2.935 4.2 2.474 1.207-.345 2.416-.345 3.624-.115a8.58 8.58 0 0 1 2.301.862c3.97 2.128 5.409 7.077 3.223 11.046-.92 1.726-.345 3.797 1.38 4.717a3.478 3.478 0 0 0 4.717-1.38c1.381-2.474 2.015-5.292 1.842-8.169a14.652 14.652 0 0 0 10.356-4.488c1.323-1.323 1.264-3.509-.059-4.832-1.38-1.38-3.567-1.38-4.89 0-2.014 2.014-4.948 2.876-7.71 2.186-.057-.115-.114-.172-.171-.288-2.676-4.012-7-6.439-11.618-6.722zm-23.834 25.41a3.492 3.492 0 0 0-1.367.066c-1.84.46-2.935 2.359-2.474 4.2a8.207 8.207 0 0 1-4.315 9.32 3.464 3.464 0 0 0-1.611 4.601c.805 1.726 2.877 2.417 4.603 1.612.23-.115.518-.287.748-.403.69 1.439 1.668 2.703 2.819 3.854 1.38 1.323 3.567 1.324 4.89-.057 1.324-1.38 1.324-3.567 0-4.89-1.15-1.093-1.899-2.531-2.244-4.084 2.129-3.51 2.819-7.708 1.783-11.678-.345-1.38-1.5-2.341-2.832-2.541zm35.178 19.79a3.46 3.46 0 0 0-2.545.755c-1.496 1.15-1.726 3.336-.517 4.832 2.588 3.222 3.22 7.651 1.609 11.506-7.421 3.279-11.735 11.045-10.7 19.1.23 1.898 1.956 3.222 3.854 2.992 1.899-.23 3.223-1.957 2.992-3.856-.23-1.668-.058-3.452.46-5.062a9.844 9.844 0 0 1 1.554-3.106c3.682-5.12 10.872-6.272 15.992-2.59 1.554 1.093 3.741.749 4.834-.804 1.093-1.554.748-3.74-.748-4.776a18.264 18.264 0 0 0-10.7-3.45c.804-5.063-.576-10.185-3.798-14.212v-.057a3.313 3.313 0 0 0-2.287-1.273zm192.04.14c4.716 0 9.433 1.8 13.028 5.394 7.192 7.19 7.192 18.87-.056 26.06-7.19 7.192-18.87 7.192-26.06 0a18.978 18.978 0 0 1-5.063-9.663H257.486v-6.905h134.332c.69-3.566 2.474-6.903 5.063-9.492a18.369 18.369 0 0 1 13.03-5.394zm-152.53 34.504h26.176c10.355 0 18.754 8.341 18.754 18.697.057 6.5 5.35 11.793 11.851 11.793h29.627c.69-3.682 2.474-7.018 5.063-9.664 2.646-2.59 5.983-4.374 9.607-5.065h.002c10.067-1.956 19.731 4.604 21.687 14.672 1.899 10.01-4.66 19.733-14.67 21.631-10.01 1.898-19.732-4.66-21.63-14.67h-29.686c-10.355 0-18.754-8.342-18.754-18.697-.057-6.501-5.35-11.795-11.851-11.795H257.38v-6.902zm-66.326 17.76c-.885 0-1.763.33-2.424.992-1.323 1.38-1.323 3.567 0 4.89a14.557 14.557 0 0 1 3.683 6.213c.058.115.056.23.114.346 1.266 4.544.173 9.434-2.819 13.058a3.45 3.45 0 0 0 .461 4.832 3.462 3.462 0 0 0 4.89-.402 21.444 21.444 0 0 0 4.89-13.117c2.934.805 5.984.921 8.918.46 3.221-.517 6.27-1.783 8.916-3.624 1.553-1.093 1.9-3.279.806-4.832-1.093-1.554-3.28-1.957-4.834-.864-4.487 3.107-10.24 3.51-15.072 1.036-1.093-2.992-2.819-5.753-5.063-7.996a3.561 3.561 0 0 0-2.466-.993zm66.498 2.318h3.968c9.493.115 18.009 6.04 21.288 14.957l9.95 26.982a15.91 15.91 0 0 0 14.786 10.412h4.027a17.532 17.532 0 0 1 5.35-11.449h.002c7.19-7.191 18.927-7.192 26.176.057 7.19 7.192 7.19 18.928-.059 26.119-7.192 7.19-18.928 7.192-26.12-.057a17.938 17.938 0 0 1-4.657-7.765h-4.72c-9.491-.058-18.005-6.042-21.284-14.96l-9.953-26.98a15.91 15.91 0 0 0-14.786-10.412h-3.968v-6.904z"/></g></g></svg>