<svg height="512" width="512" style="enable-background:new 0 0 512 512" xml:space="preserve" xmlns="http://www.w3.org/2000/svg"><defs><filter style="color-interpolation-filters:sRGB" id="a" x="-.095" y="-.081" width="1.191" height="1.163"><feFlood flood-opacity="1" flood-color="#3A3F5E" result="flood"/><feComposite in="flood" in2="SourceGraphic" operator="out" result="composite1"/><feGaussianBlur in="composite1" stdDeviation="15" result="blur"/><feOffset result="offset"/><feComposite in="offset" in2="SourceGraphic" operator="atop" result="composite2"/></filter></defs><path d="M0 0h512v512H0Z" fill="#b90202" style="fill:#1b1f21;fill-opacity:1"/><path d="M295.614 371.157c-15.661-35.007 1.843-29.48.92-44.22-1.842-14.739 1.844-28.558 16.583-18.425 31.323 23.032 15.662 56.197 14.74 77.385 0 16.583 9.212 66.33 14.739 90.283h23.954c-9.212-67.251-22.11-116.078-30.4-145.558-4.607-16.582-14.74-30.4-25.795-43.298-5.527-6.45-5.527-11.056-4.606-12.899 29.48 20.268 70.015 0 77.385-30.4 42.377 15.661 25.794 64.487 25.794 77.384-.92 22.111-.92 91.204 17.505 154.77h18.425c-11.056-47.904-11.056-210.045-7.37-233.076 4.606-34.087-7.37-54.354-17.504-66.33-15.662-16.582-34.087-6.45-58.04-44.22-14.738-25.795-66.33-53.433-108.707-72.779C215.464 44.112 174.931 34.9 134.392 34.9H110.44c-17.504 0-32.244 11.976-37.772 27.637 248.738 89.362 235.84 86.598 252.423 86.598 23.031.92 65.409 23.952 54.354 71.858-7.37 9.212 0 23.03-14.74 37.77-35.007 35.93-78.306 3.686-76.463-38.692 0-5.527-2.764-11.056-7.37-13.82-29.48-17.504-142.794-64.487-210.966-81.07l-2.764 128.976c66.33 3.686 70.936-21.188 176.88-7.37 39.614 4.607 1.843 80.15 1.843 80.15-14.742 39.613.92 124.368 6.446 150.163h66.33c-1.842-25.795-11.055-79.228-23.031-105.944zm105.023-176.88c13.819-7.37 17.504 9.213 17.504 9.213s11.056 70.936-3.685 55.275c-14.74-15.662-17.505-14.74-22.11-32.244-5.528-16.582 8.291-32.244 8.291-32.244z" style="fill:#e64539;fill-opacity:1;stroke-width:.383854;filter:url(#a)"/></svg>