<svg height="512" width="512" style="enable-background:new 0 0 512 512" xml:space="preserve" xmlns="http://www.w3.org/2000/svg"><defs><filter style="color-interpolation-filters:sRGB" id="a" x="-.032" y="-.032" width="1.064" height="1.064"><feFlood flood-opacity="1" flood-color="#3A3F5E" result="flood"/><feComposite in="flood" in2="SourceGraphic" operator="out" result="composite1"/><feGaussianBlur in="composite1" stdDeviation="15" result="blur"/><feOffset result="offset"/><feComposite in="offset" in2="SourceGraphic" operator="atop" result="composite2"/></filter></defs><path d="M0 0h512v512H0Z" fill="#b90202" style="fill:#1b1f21;fill-opacity:1"/><g transform="translate(14.165 14.182) scale(.40307)" style="fill:#e64539;fill-opacity:1;filter:url(#a)"><path d="m860 288.8 106.4-93.199a20.006 20.006 0 0 1 22.761-2.523l167.58 91.34c1.04.52 1.422.718 2.46-.621v.004a2.513 2.513 0 0 0 .767-1.946 2.511 2.511 0 0 0-.965-1.855l-169.14-172.92a23.017 23.017 0 0 0-13.895-6.906 23.028 23.028 0 0 0-15.125 3.468l-100.84 67.078zM40.641 160.52c-1.14 1.559-.559 2.121.219 2.922L210 332.962a23.756 23.756 0 0 0 14.19 6.906 23.725 23.725 0 0 0 15.388-3.508l10-6.18 81.078-50.601h.004a19.857 19.857 0 0 0 9.34-16.957v-107.2l-106.54 91.602v-.004a19.977 19.977 0 0 1-10.86 4.71 19.981 19.981 0 0 1-11.62-2.25L43.5 160c-1.02-.66-1.72-1.019-2.86.52zM460 1160h300a40.01 40.01 0 0 0 28.285-11.715A40.01 40.01 0 0 0 800 1120V760H420v360a40.01 40.01 0 0 0 11.715 28.285A40.01 40.01 0 0 0 460 1160z" style="fill:#e64539;fill-opacity:1"/><path d="m351.76 313.52-71.762 44.781V438a138.392 138.392 0 0 0 34.602 91.762l80.82 92A178.161 178.161 0 0 1 438.76 720H780v-58a315.336 315.336 0 0 1 12.398-88l16.762-59.059A275.223 275.223 0 0 0 820 438V163.4a42.39 42.39 0 0 0-10.418-29.113 42.399 42.399 0 0 0-27.422-14.285 40 40 0 0 0-42.16 40 20.003 20.003 0 0 1-10 17.32 19.993 19.993 0 0 1-20 0 20.004 20.004 0 0 1-10-17.32v-36.578a42.389 42.389 0 0 0-8.676-27.266 42.392 42.392 0 0 0-24.023-15.535 40.097 40.097 0 0 0-47.3 39.379 20.003 20.003 0 0 1-10 17.32 19.993 19.993 0 0 1-20 0 20.004 20.004 0 0 1-10-17.32v-40a39.99 39.99 0 0 0-14.383-30.832 40.008 40.008 0 0 0-32.918-8.61 42.412 42.412 0 0 0-24.05 15.57A42.386 42.386 0 0 0 500 83.444v16.559a20.003 20.003 0 0 1-10 17.32 19.993 19.993 0 0 1-20 0 20.004 20.004 0 0 1-10-17.32 40.005 40.005 0 0 0-12.452-29.062 40.02 40.02 0 0 0-29.668-10.938 42.293 42.293 0 0 0-27.47 14.242A42.28 42.28 0 0 0 380 103.38v159.24a59.657 59.657 0 0 1-28.237 50.898z" style="fill:#e64539;fill-opacity:1"/></g></svg>