<svg viewBox="0 0 512 512" style="height:512px;width:512px" xmlns="http://www.w3.org/2000/svg"><defs><filter style="color-interpolation-filters:sRGB" id="a" x="-.512" y="-.646" width="2.024" height="2.291"><feFlood flood-opacity="1" flood-color="#3A3F5E" result="flood"/><feComposite in="flood" in2="SourceGraphic" operator="out" result="composite1"/><feGaussianBlur in="composite1" stdDeviation="8" result="blur"/><feOffset result="offset"/><feComposite in="offset" in2="SourceGraphic" operator="atop" result="composite2"/></filter></defs><path d="M.359-.21h512v512h-512Z" fill="#1b1f21"/><path d="M791.018 731.25a93.77 93.77 0 0 0-66.293 27.457A93.77 93.77 0 0 0 697.268 825a93.77 93.77 0 0 0 27.457 66.293 93.77 93.77 0 0 0 66.293 27.457 93.77 93.77 0 0 0 66.293-27.457A93.77 93.77 0 0 0 884.768 825a93.868 93.868 0 0 0-93.75-93.75zm-547.268 0a93.77 93.77 0 0 0-66.293 27.457A93.77 93.77 0 0 0 150 825a93.77 93.77 0 0 0 27.457 66.293 93.77 93.77 0 0 0 66.293 27.457 93.77 93.77 0 0 0 66.293-27.457A93.77 93.77 0 0 0 337.5 825a93.868 93.868 0 0 0-93.75-93.75Zm-150-37.5A18.752 18.752 0 0 0 112.5 675v-37.5a18.752 18.752 0 0 0-18.75-18.75H75v75zm472.037-262.498h-78.959l-1.154 112.5h91.103l56.25-56.25z" style="fill:#e64539;fill-opacity:1;filter:url(#a)" transform="translate(-23.287 -92.407) scale(.54652)"/><path d="m632.76 416.284-239.906.97-60.535 119.25 302.798.9z" style="fill:#e64539;fill-opacity:1;filter:url(#a)" transform="translate(-81.512 -63.006) scale(.49639)"/><path d="M629.8 543.75h59.476l-29.738-29.738z" style="fill:#e64539;fill-opacity:1;filter:url(#a)" transform="translate(-23.287 -92.407) scale(.54652)"/><path d="m847.268 618.75-.515-41.053-231.137-220.43s-25.54-.89-68.575-1.02h-329.91l-128.57 225h5.196a56.234 56.234 0 0 1 39.773 16.477 56.236 56.236 0 0 1 16.477 39.773v3.75l-1.078 44.305s-9.304 24.43-19.375 32.77a56.24 56.24 0 0 1-35.805 12.926H75v75h39a131.075 131.075 0 0 1 69.68-97.87 131.071 131.071 0 0 1 120.14 0 131.081 131.081 0 0 1 69.68 97.87h287.768a131.075 131.075 0 0 1 69.68-97.87 131.071 131.071 0 0 1 120.14 0 131.081 131.081 0 0 1 69.68 97.87h26.247v-93.75h-5.997a93.868 93.868 0 0 1-93.75-93.75zm-317.69 37.5h-37.5v-37.5h37.5zm112.5 0h-75v-37.5h75zm139.962-75-629.245-8.887 81.09-175.812 344.655-2.8z" style="fill:#e64539;fill-opacity:1;filter:url(#a)" transform="translate(-23.287 -92.407) scale(.54652)"/><path d="M872.052 594.709v28.293a56.234 56.234 0 0 0 16.477 39.773 56.236 56.236 0 0 0 39.773 16.477h18.75z" style="fill:#e64539;fill-opacity:1;filter:url(#a)" transform="translate(-23.287 -92.407) scale(.54652)"/></svg>