<svg height="512" width="512" style="enable-background:new 0 0 512 512" xml:space="preserve" xmlns="http://www.w3.org/2000/svg"><defs><filter style="color-interpolation-filters:sRGB" id="a" x="-.116" y="-.077" width="1.233" height="1.155"><feFlood flood-opacity="1" flood-color="#3A3F5E" result="flood"/><feComposite in="flood" in2="SourceGraphic" operator="out" result="composite1"/><feGaussianBlur in="composite1" stdDeviation="15" result="blur"/><feOffset result="offset"/><feComposite in="offset" in2="SourceGraphic" operator="atop" result="composite2"/></filter></defs><path d="M0 0h512v512H0Z" fill="#b90202" style="fill:#1b1f21;fill-opacity:1"/><path style="fill:#e64539;fill-opacity:1;stroke-width:.431112;filter:url(#a)" d="M158.252 23.158c-21.625 0-39.162 19.349-39.162 43.147v61.562a45.754 45.754 0 0 0 5.433 21.625l-23.488 9.674c-.207.103-.465.208-.672.31-12.83 7.192-20.795 21.004-20.795 36.06v52.61c0 13.865 6.26 26.852 17.123 35.594.053.052.051.051.102.051l58.408 46.871c10.037 7.191 18.367 12.209 25.867 15.727-2.896 4.139-4.658 9.053-4.658 14.433V463.67c0 13.812 11.28 25.09 25.092 25.09H359.91c13.812 0 25.143-11.278 25.143-25.09V360.822c0-8.898-4.76-16.76-11.848-21.209 9.675-9.518 15.727-22.815 15.727-37.404V180.377h-.569c.31-2.277.569-4.606.569-7.037l.002-61.563c0-23.744-16.968-43.093-37.817-43.093-9.777 0-18.675 4.24-25.35 11.224-.983-22.815-17.33-41.076-37.404-41.076-10.656 0-20.28 5.172-27.109 13.45-1.915-6.003-4.966-11.538-9.106-16.245-7.345-8.17-17.537-12.879-27.986-12.879-13.812 0-26.022 7.915-33.006 19.815-1.448-2.484-3.102-4.812-5.017-6.932-7.45-8.33-17.333-12.883-27.887-12.883zm53.7 99.557c1.424.03 2.863.296 4.257.818l24.3 9.09c4.24 1.585 6.018 6.615 3.716 10.51l-19.4 32.804a82.687 82.687 0 0 1-22.622 24.84l-14.764 10.707c-2.688 1.953-6.429-.138-6.175-3.45l2.283-29.782a102.738 102.738 0 0 1 17.457-49.883 12.911 12.911 0 0 1 10.947-5.654zm47.085 19.806a10.63 10.63 0 0 1 3.748.989l17.252 8.135h.002c6.585 3.106 8.842 11.36 4.75 17.382l-20.896 30.762a6.78 6.78 0 0 1-8.889 2.125l-23.719-13.107a6.78 6.78 0 0 1-2.428-9.596l20.413-31.816a10.663 10.663 0 0 1 9.767-4.874zm41.256 24.44a11.78 11.78 0 0 1 6.924 3.148v-.002l13.918 13.045a10.662 10.662 0 0 1 1.369 13.996l-22.057 30.698a6.782 6.782 0 0 1-9.816 1.279l-20.924-17.223a6.779 6.779 0 0 1-1.299-9.045l20.899-30.761c2.557-3.765 6.837-5.545 10.986-5.135zm33.502 30.498a7.24 7.24 0 0 1 5.668 2.39l.002-.001 17.402 19.244a12.91 12.91 0 0 1 1.106 15.918 102.737 102.737 0 0 1-39.944 34.605l-26.843 13.094c-2.986 1.456-6.31-1.25-5.485-4.469l4.516-17.668a82.695 82.695 0 0 1 14.758-30.183l23.35-30.121a7.234 7.234 0 0 1 5.47-2.81z"/></svg>