<svg height="512" width="512" style="enable-background:new 0 0 512 512" xml:space="preserve" xmlns="http://www.w3.org/2000/svg"><defs><filter style="color-interpolation-filters:sRGB" id="a" x="-.064" y="-.021" width="1.128" height="1.042"><feFlood flood-opacity="1" flood-color="#3A3F5E" result="flood"/><feComposite in="flood" in2="SourceGraphic" operator="out" result="composite1"/><feGaussianBlur in="composite1" stdDeviation="10" result="blur"/><feOffset result="offset"/><feComposite in="offset" in2="SourceGraphic" operator="atop" result="composite2"/></filter></defs><path d="M0 0h512v512H0Z" fill="#b90202" style="fill:#1b1f21;fill-opacity:1"/><g style="fill:#e64539;fill-opacity:1;filter:url(#a)"><path d="M541.25 633.75h117.5v29h-117.5zm0-163.95h117.5v28.949h-117.5zm-68.5 163.95h43.5v29h-43.5zm0-163.95h43.5v28.949h-43.5zm275.1 54.4c-1.148-.05-2.25-.3-3.352-.7h-4.25c-.199 0-.3.2-.449.2h-68.5c-.148 0-.199-.148-.351-.148l-142.05.101c-.051 0-.051.05-.102.05h-73c-23.449 0-42.5 19.103-42.5 42.552 0 23.449 19.051 42.5 42.5 42.5h288.5c1-.352 2.602-.399 3.602-.45 22.148-1.55 38.898-19.647 38.898-42.05.004-22.402-16.746-40.453-38.945-42.055zm-64.1 109.55h43.5v29h-43.5zm-172.5 402.65c-2.2.102-4 1.8-4 4v49.75c0 2.25 1.852 4.102 4.102 4.102h177.25c2.25 0 4.148-1.852 4.148-4.102v-49.75c0-2.2-1.852-3.898-4.05-4zm34.9 82.8c-2.25 0-4.148 1.852-4.148 4.148v41.25c0 2.25 1.851 4.102 4.148 4.102H653.9c2.25 0 4.148-1.852 4.148-4.102v-41.25c0-2.3-1.851-4.148-4.148-4.148zm203.5-431.05c-2.5-.5-3.95-.45-5.398-.398h-288.5c-23.051 0-42.5 19.602-42.5 42.75 0 22.898 19.449 42.25 42.5 42.25h288.5c1.449 0 2.898.148 4.101-.149 22.102-2.95 38.45-21.352 38.45-42.102-.052-21.398-16-39.648-37.153-42.352zM635.7 843.05c-2.2-7.5-3.45-15.301-3.45-23.301 0-7.5 1.15-14.898 3.2-22h-70.898c2.05 7.148 3.2 14.5 3.2 22 0 8-1.25 15.801-3.45 23.301zm19.75 25c-.25 0-.45.2-.7.2-.25 0-.5-.2-.75-.2H546c-.25 0-.5.2-.75.2s-.448-.2-.698-.2h-125.85c-2.25 0-4.149 1.852-4.149 4.148v64.648c0 2.25 1.852 4.102 4.149 4.102h362.6c2.25 0 4.101-1.852 4.101-4.102v-64.648c0-2.351-1.8-4.148-4.101-4.148zm70.05 97.9h-251a4.59 4.59 0 0 0-4.602 4.602v36.25a4.59 4.59 0 0 0 4.602 4.601h36.352c.148 0 .3-.101.5-.101h177.25c.148 0 .3.101.5.101h36.352a4.59 4.59 0 0 0 4.602-4.601v-36.25c-.004-2.551-2.055-4.602-4.555-4.602zm-41.75-824.2h43.5v29h-43.5zm-142.5 0h117.5v29h-117.5zm-68.5 0h43.5v29h-43.5zm-17-25h288.5c23.051 0 42.5-19.449 42.5-42.5 0-23.352-19.449-43-42.5-43h-288.5c-23.449 0-42.5 19.301-42.5 43 0 23.449 19.051 42.5 42.5 42.5zm85.5 189h117.5v29h-117.5zm-68.5 0h43.5v29h-43.5zm-16.75 54c-23.398 0-42.5 19.199-42.5 42.699 0 23.352 19.051 42.301 42.5 42.301h290c22.148-.8 40.5-19.75 40.5-42.301 0-23.199-17.949-42-40.898-42.699zM683.75 469.8h43.5v28.949h-43.5zm60.5-274.05h-288.5c-23.449 0-42.5 19.102-42.5 42.551s19.051 42.5 42.5 42.5h288.5c23.449 0 42.5-19.051 42.5-42.5s-19.051-42.551-42.5-42.551zm-60.5 110h43.5v29h-43.5z" style="fill:#e64539;fill-opacity:1" transform="rotate(45 291.257 227.994) scale(.48726)"/></g></svg>