<svg viewBox="0 0 512 512" style="height:512px;width:512px" xmlns="http://www.w3.org/2000/svg"><defs><filter style="color-interpolation-filters:sRGB" id="a" x="-.031" y="-.069" width="1.063" height="1.137"><feFlood flood-opacity="1" flood-color="#3A3F5E" result="flood"/><feComposite in="flood" in2="SourceGraphic" operator="out" result="composite1"/><feGaussianBlur in="composite1" stdDeviation="15" result="blur"/><feOffset result="offset"/><feComposite in="offset" in2="SourceGraphic" operator="atop" result="composite2"/></filter></defs><path d="M.359-.21h512v512h-512Z" fill="#1b1f21"/><g transform="translate(8.527 -79.658) scale(.41245)" style="fill:#e64539;fill-opacity:1;filter:url(#a)"><path d="M987 881.66c-53.758 0-97.348 43.594-97.348 97.348 0 53.879 43.59 97.469 97.348 97.469 53.754 0 97.348-43.594 97.348-97.469 0-53.754-43.594-97.348-97.348-97.348zm-311.88 97.35c0-53.754-43.59-97.348-97.469-97.348-53.754 0-97.348 43.594-97.348 97.348 0 53.879 43.594 97.469 97.348 97.469 53.879 0 97.469-43.59 97.469-97.469zm-365.02 0c0-53.754-43.594-97.348-97.348-97.348-53.879 0-97.469 43.594-97.469 97.348 0 53.879 43.594 97.469 97.469 97.469 53.758 0 97.348-43.59 97.348-97.469z" style="fill:#e64539;fill-opacity:1"/><path d="m789.37 551.642-730.84-.505-34.101 42.731V979.01h66.367c0-67.102 54.734-121.84 121.96-121.84 67.223 0 121.84 54.734 121.84 121.84h121.22c0-67.102 54.609-121.84 121.84-121.84 67.227 0 121.96 54.734 121.96 121.84h89.754ZM138.8 654.65h98.449v24.488H138.8Zm0 63.918h349.47v24.488H138.8Zm112.53 88.039H138.8v-24.488h112.53zm423.79 0H296.39v-24.488h378.73zm0-63.551H530.88v-24.488h144.24zm0-63.918H296.39V654.65h378.73zm376.28 32.812-136.385-146.2H813.852v413.27h51.309c0-67.102 54.613-121.84 121.84-121.84 67.223 0 121.84 54.734 121.84 121.84h66.734V785.31Zm-131.26 94.652h-57.43v-24.488h57.43zm-69.676-72.121v-132.12h46.803l129.162 132.12z" style="fill:#e64539;fill-opacity:1"/></g></svg>