<svg viewBox="0 0 512 512" style="height:512px;width:512px" xmlns="http://www.w3.org/2000/svg"><defs><filter style="color-interpolation-filters:sRGB" id="a" x="-.035" y="-.119" width="1.07" height="1.238"><feFlood flood-opacity="1" flood-color="#3A3F5E" result="flood"/><feComposite in="flood" in2="SourceGraphic" operator="out" result="composite1"/><feGaussianBlur in="composite1" stdDeviation="5" result="blur"/><feOffset result="offset"/><feComposite in="offset" in2="SourceGraphic" operator="atop" result="composite2"/></filter></defs><path d="M.359-.21h512v512h-512Z" fill="#1b1f21"/><g transform="translate(-137.289 -125.986) scale(1.40001)" style="fill:#e64539;fill-opacity:1;filter:url(#a)"><path d="M274.703 223.023c23.712.128 34.668 5.007 34.668 5.007L321.9 250.3s44.082-1.695 63.53 12.398c19.452 14.093 17.815 25.674 17.815 25.674h4.48a2.609 2.609 0 0 1 2.613 2.611v3.858c0 1.29-.457 2.538-1.29 3.523a5.453 5.453 0 0 1-3.257 1.862l-9.392 1.592c.005-.204.011-.408.011-.612 0-.302-.005-.603-.015-.905v-.206h-.008c-.595-14.19-12.272-25.386-26.472-25.385-14.201 0-25.876 11.197-26.472 25.385h-.008v.21a27.47 27.47 0 0 0 0 1.805v7.929H195.304v-7.936a27.551 27.551 0 0 0 0-1.8v-.207h-.008c-.595-14.189-12.272-25.386-26.473-25.385-14.2 0-25.876 11.197-26.471 25.385h-.008v.21a27.47 27.47 0 0 0 0 1.805v7.929h-20.85l-.004-.003a11.88 11.88 0 0 1-6.595-2c-1.954-1.301-3.477-31.155-4.379-33.322l-1.412-3.395a3.81 3.81 0 0 1 .063-3.077c.452-.97 3.74-16.315 3.74-16.315l78.337-2.726 4.998-22.837c8.134-5.13 67.15-3.851 76.126-3.339.792-.005 1.57-.007 2.334-.003zm73.258 78.18c0 12.14 9.843 21.983 21.983 21.983 12.141 0 21.983-9.843 21.983-21.983s-9.842-21.983-21.983-21.983c-12.14 0-21.983 9.842-21.983 21.983m-201.09 0c0 12.14 9.842 21.983 21.983 21.983 12.142 0 21.983-9.843 21.983-21.983s-9.841-21.983-21.983-21.983c-12.14 0-21.983 9.842-21.983 21.983" style="fill:#e64539;fill-opacity:1;stroke-width:.588274"/><path d="M60 879.48h.84s102.12-14.762 136.2-33.961c8.52-.719 11.398-2.281 24 26.762a12.005 12.005 0 0 0 10.44 7.2h.602-.004a12.006 12.006 0 0 0 10.441-6 113.166 113.166 0 0 0 1.922-92.403c16.157-125.964 14.182-183.804 7.483-206.42-3.277-11.062-11.922-11.62-11.922-11.62h-12c-6.629 0-11.883 5.376-12 12-3.553 202.5-72.628 248.741-72.628 248.741l-83.372 55.697Zm168.002-38.159a75.925 75.925 0 0 0-36-17.879 159.639 159.639 0 0 0 29.52-37.32 101.407 101.407 0 0 1 6.48 55.199z" style="fill:#e64539;fill-opacity:1" transform="matrix(-.18361 0 0 .18361 464.042 156.019)"/><path style="fill:#e64539;fill-opacity:1;stroke:none;stroke-width:1px;stroke-linecap:butt;stroke-linejoin:miter;stroke-opacity:1" d="m421.183 280.779-77.997-27.924-3.94 11.844 81.145 22.128z"/></g></svg>