<svg viewBox="0 0 512 512" style="height:512px;width:512px" xmlns="http://www.w3.org/2000/svg"><defs><filter style="color-interpolation-filters:sRGB" id="a" x="-.02" y="-.037" width="1.041" height="1.073"><feFlood flood-opacity="1" flood-color="#3A3F5E" result="flood"/><feComposite in="flood" in2="SourceGraphic" operator="out" result="composite1"/><feGaussianBlur in="composite1" stdDeviation="10" result="blur"/><feOffset result="offset"/><feComposite in="offset" in2="SourceGraphic" operator="atop" result="composite2"/></filter></defs><path d="M.359-.21h512v512h-512Z" fill="#1b1f21"/><g transform="translate(7.625 -7.37) scale(.41254)" style="fill:#e64539;fill-opacity:1;filter:url(#a)"><path d="M1012.5 794.62a56.258 56.258 0 0 1-33 10.875 56.247 56.247 0 0 1-43.688-21 61.312 61.312 0 1 0 88.874-67.688 56.26 56.26 0 0 1 11.25 33.188 55.757 55.757 0 0 1 0 8.625 56.251 56.251 0 0 1-23.438 36zm-637.5 3c2.32 1.15-30.175 80.033-76.969 92.707-41.127 11.139-84.211 12.348-120.02-10.754a129.565 129.565 0 0 1-59.254-104.92 129.586 129.586 0 0 1 52.754-108.34 129.581 129.581 0 0 1 119.14-18.047 129.57 129.57 0 0 1 82.473 87.848 60.298 60.298 0 0 1 10.125-13.5l39.562-39.938a195.352 195.352 0 0 0-96.406-90.859 195.358 195.358 0 0 0-239.42 69.324 195.36 195.36 0 0 0-32.941 128.31 195.368 195.368 0 0 0 176.42 176.084 195.375 195.375 0 0 0 205.852-140.553h-9.562l-26.396-5.504-25.355-21.871Z" style="fill:#e64539;fill-opacity:1"/><path d="M310.12 770.62c0 33.863-27.449 61.312-61.312 61.312s-61.312-27.449-61.312-61.312 27.449-61.312 61.312-61.312 61.312 27.449 61.312 61.312m699.78-194.81a200.469 200.469 0 0 0-43.312 28.125l-15 12.75 19.875 27a129.569 129.569 0 0 1 108.69 28.98 129.554 129.554 0 0 1 45.059 103.07 129.548 129.548 0 0 1-52.535 99.461 129.55 129.55 0 0 1-110.53 20.887 129.542 129.542 0 0 1-85.207-73.434 129.553 129.553 0 0 1 4.34-112.4l-15.375-20.812-63.75 54.188a192.455 192.455 0 0 0-1.875 27.188 195.38 195.38 0 0 0 55.637 136.4 195.389 195.389 0 0 0 135.08 58.773 195.399 195.399 0 0 0 137.73-52.27 195.361 195.361 0 0 0 62.074-133.59 195.35 195.35 0 0 0-48.867-138.97 195.38 195.38 0 0 0-132.03-65.34z" style="fill:#e64539;fill-opacity:1"/><path d="m1024.124 397.83-50.625-84.561a6.005 6.005 0 0 0-5.063-2.813h-64.125a18.752 18.752 0 0 0-18.75 18.75 18.752 18.752 0 0 0 18.75 18.75h43.5a6.005 6.005 0 0 1 5.063 2.813l23.22 41.651-94.45 82.994-49.735 29.157a12.358 12.358 0 0 1-6.562 4.125l-313.31 74.062a16.868 16.868 0 0 0-12.188 12l-7.312 25.688a12.194 12.194 0 0 1-9.946 8.64 12.191 12.191 0 0 1-11.992-5.453 262.112 262.112 0 0 0-26.062-33.562l31.688-42.188a38.647 38.647 0 0 1 12.375 7.688 16.501 16.501 0 0 0 15 3.937l311.44-73.312 60.562-71.812a65.828 65.828 0 0 1-10.875-11.625c-35.25-48.375-90.75-64.312-147.38-69.188-51.375-4.5-112.5-6.375-148.31 36.375-26.625 32.25-36 89.438-90.75 75l-161.81-44.438-17.625-22.875a118.308 118.308 0 0 0-104.06-45.188l-78 7.125a17.082 17.082 0 0 0-11.395 6.02 17.08 17.08 0 0 0-3.937 12.27 17.066 17.066 0 0 0 5.77 11.523c146.466 128.858 92.062 78.75 92.062 78.75l65.625 33.75 155.44 47.812-17.062 22.688c-30.218-39.412-243.757-60.222-245.15-50.29l-6.938 45c-5.324-13.675 195.59-3.528 236.57 50.587a216.163 216.163 0 0 1 65.212 89.141l-18.75 18.75c-15.31 17.01-60.438 59.034-60.438 59.034l36.2 36.101 240.797-.636a125.817 125.817 0 0 0 81.562-30l138.19-117.75 84 116.44 45.937 5.25 3.563-44.437-85.312-116.81 40.125-33.75-49.1-70.645z" style="fill:#e64539;fill-opacity:1"/></g></svg>