<svg height="512" width="512" style="enable-background:new 0 0 512 512" xml:space="preserve" xmlns="http://www.w3.org/2000/svg"><defs><filter style="color-interpolation-filters:sRGB" id="a" x="-.063" y="-.09" width="1.126" height="1.181"><feFlood flood-opacity="1" flood-color="#3A3F5E" result="flood"/><feComposite in="flood" in2="SourceGraphic" operator="out" result="composite1"/><feGaussianBlur in="composite1" stdDeviation="13.48" result="blur"/><feOffset result="offset"/><feComposite in="offset" in2="SourceGraphic" operator="atop" result="composite2"/></filter></defs><path d="M0 0h512v512H0Z" fill="#b90202" style="fill:#1b1f21;fill-opacity:1"/><g style="fill:#e64539;fill-opacity:1;filter:url(#a)" transform="translate(36.575 58.518) scale(.85713)"><g style="fill:#e64539;fill-opacity:1"><path style="fill:#e64539;fill-opacity:1;stroke-width:.857128" d="M58.518 102.402c-12.12 0-21.942 9.824-21.942 21.944v263.308c0 12.12 9.822 21.944 21.942 21.944h394.964c12.12 0 21.942-9.824 21.942-21.944V124.346c0-12.12-9.822-21.944-21.942-21.944H58.518zm43.884 65.828h307.196v175.54H102.402V168.23zm74.797 16.844-11.625 11.623v48.711l8.627 8.207 8.627-8.207v-43.08l-5.629-17.254zm101.871.016-4.922 4.922 12.332 12.332.006.006h41.04l12.337-12.338-4.92-4.922H279.07zm-46.008.004-5.628 17.252v43.082l8.627 8.207 8.626-8.207v-48.711l-11.625-11.623zm108.59 6.705L329.32 204.13v41.293l8.625 8.207 8.627-8.207V196.72l-4.92-4.922zm-69.279.006-4.922 4.922v48.709l8.627 8.207 8.627-8.207v-41.299l-12.332-12.332zm-87.719 55.369-8.627 8.201 8.627 8.209h40.95l8.626-8.209-8.626-8.201h-40.95zm101.881.002-8.627 8.203 8.627 8.207h40.95l8.626-8.207-8.627-8.203h-40.949zm-112.48 9.81-8.627 8.207v49.973l11.623 11.623 5.629-17.252v-44.344l-8.625-8.207zm62.011.135-8.627 8.21v44.34l5.63 17.255 11.624-11.623V265.33l-8.627-8.209zm40.006.004-8.627 8.207v48.156l5.83 5.828 11.43-11.427v-42.557l-8.633-8.207z" transform="translate(-42.672 -68.272) scale(1.16669)"/></g></g></svg>