<svg viewBox="0 0 512 512" style="height:512px;width:512px" xmlns="http://www.w3.org/2000/svg"><defs><filter style="color-interpolation-filters:sRGB" id="a" x="-.053" y="-.022" width="1.107" height="1.045"><feFlood flood-opacity="1" flood-color="#3A3F5E" result="flood"/><feComposite in="flood" in2="SourceGraphic" operator="out" result="composite1"/><feGaussianBlur in="composite1" stdDeviation="10" result="blur"/><feOffset result="offset"/><feComposite in="offset" in2="SourceGraphic" operator="atop" result="composite2"/></filter></defs><path d="M.359-.21h512v512h-512Z" fill="#1b1f21"/><g style="fill:#e64539;fill-opacity:1;filter:url(#a)"><path d="M662.05 149.06H531.21c12.809 13.934 29.945 23.75 49.34 27.301h32.188c19.395-3.55 36.488-13.367 49.309-27.301zm23.52-60.115c0-7.547-1.031-14.785-2.797-21.789h-172.31c-1.754 6.988-2.797 14.242-2.797 21.789 0 1.867.168 3.688.293 5.512h177.32c.125-1.824.29-3.66.29-5.512zm-7.39-35.429c-4.453-10.23-10.734-19.492-18.5-27.285H533.59a89.1 89.1 0 0 0-18.516 27.285zm-5.83 81.884c5.11-8.297 8.938-17.484 11.082-27.285l-173.62-.004c2.156 9.816 5.984 19.004 11.082 27.285zM642.04 12.57C628.747 4.636 613.235 0 596.642 0c-16.621 0-32.117 4.637-45.426 12.57Zm-1.08 668.78h95.531v27.301H640.96Zm177.43-122.83h-68.242v27.3h68.215c0-.097.027-.195.027-.277zM477.16 394.73h218.38v27.301H477.16Zm325.58 204.72h-65.613c4.93 17.332 18.836 26.172 32.828 26.172 14.059 0 27.898-8.84 32.785-26.172zm-189.08 40.94h95.531v27.301H613.66Zm-122.85-286.6h218.38v27.285H490.81Zm245.68 163.77h68.242v27.301H736.49Zm-232.03 40.96h218.38v27.301H504.46Zm-13.65-40.96h218.38v27.301H490.81Zm0-40.94h218.38v27.301H490.81Zm0-40.94h218.38v27.301H490.81Zm122.85 450.4h95.531v27.301H613.66ZM600 1008.9h95.531v27.301H600Zm112.14 41h-97.898c1.95 10.691 7.266 20.145 14.855 27.301h68.176c7.602-7.156 12.918-16.625 14.867-27.301zm-121.82 0h-97.938c1.95 10.691 7.281 20.145 14.883 27.301h68.203c7.57-7.156 12.902-16.625 14.852-27.301zM477.16 585.54v-27.035h-68.242v27.035c0 .082 3.898.18 3.898.277h64.344v-.277Zm136.5 382.43h95.531v27.301H613.66ZM600 845.14h95.531v27.301H600Zm13.66-40.96h95.531v27.301H613.66Zm13.64-40.93h95.531v27.285H627.3Zm109.19-286.63h68.242v27.301H736.49ZM627.3 927.02h95.531v27.285H627.3Zm0-204.73h95.531v27.301H627.3Zm-136.49 81.89h95.543v27.301H490.81Zm27.3-122.83h95.543v27.301H518.11Zm-13.65 40.94h95.543v27.301H504.46Zm0 40.96h95.543v27.285H504.46Zm-13.65-122.86h95.543v27.301H490.81Zm95.55-13.64h122.83v-27.301H490.81v27.301zm150.13-191.07h68.242v27.301H736.49ZM490.81 967.97h95.543v27.301H490.81Zm-13.65 40.93h95.543v27.301H477.16Zm0-163.76h95.543v27.301H477.16Zm13.65 40.94h95.543v27.301H490.81Zm13.65 40.94h95.543v27.285H504.46ZM434.2 625.33c14.09 0 28.039-8.742 33.008-25.879h-66.016c4.969 17.164 18.902 25.879 33.008 25.879zm359.52-367.08c-4.29-9.953-9.816-19.141-16.582-27.301h-351.1c-6.668 8.047-12.18 17.234-16.469 27.301zm37.53 40.94c-.879-9.313-2.617-18.488-5.29-27.285h-393.9a136.106 136.106 0 0 0-5.081 27.285zm-67.89-81.9c-16.121-12.945-36.906-20.867-62.426-20.867l-199.36-.082c-24.406 0-45.203 7.781-61.617 20.953zM395.27 517.56h68.242v27.301H395.27Zm327.56-122.83h68.242v27.301H722.83Zm13.66-40.94h68.242v27.285H736.49Zm-341.22 81.89h68.242v27.301H395.27Zm0 40.94h68.242v27.301H395.27Zm0-122.83h68.242v27.285H395.27Zm81.89-13.66v-13.645h27.301v13.645h218.38v-13.645h27.301v13.645h68.242v-26.758c0-.18-.016-.348-.027-.559h-409.43v27.301h68.242zm-95.54 54.6h68.242v27.301H381.62Z" style="fill:#e64539;fill-opacity:1" transform="translate(-6.831 22.568) scale(.4334)"/></g></svg>