<svg height="512" width="512" style="enable-background:new 0 0 512 512" xml:space="preserve" xmlns="http://www.w3.org/2000/svg"><defs><filter style="color-interpolation-filters:sRGB" id="a" x="-.08" y="-.086" width="1.16" height="1.171"><feFlood flood-opacity="1" flood-color="#3A3F5E" result="flood"/><feComposite in="flood" in2="SourceGraphic" operator="out" result="composite1"/><feGaussianBlur in="composite1" stdDeviation="15" result="blur"/><feOffset result="offset"/><feComposite in="offset" in2="SourceGraphic" operator="atop" result="composite2"/></filter></defs><path d="M0 0h512v512H0Z" fill="#b90202" style="fill:#1b1f21;fill-opacity:1"/><path d="M480.866 261.652v187.08c0 9.715-7.94 17.672-17.67 17.672H48.785c-9.714 0-17.671-7.94-17.671-17.671V261.652c.108 3.963 3.592 6.013 7.416 7.231l219.076 69.065 215.824-69.065c3.825-1.218 7.308-3.27 7.416-7.231zM38.553 109.834H180.04c-13.816-28.943 6.938-64.238 40.614-64.238h70.696c33.661 0 54.43 35.295 40.614 64.238H473.47c4.085 0 7.416 3.331 7.416 7.417V245.4c0 4.07-3.53 6.166-7.416 7.416L257.644 321.88 38.57 252.817c-3.885-1.233-7.417-3.331-7.417-7.417V117.25c0-4.085 3.332-7.416 7.417-7.416zm167.87 130.493c8.65 0 15.682 7.015 15.682 15.681 0 8.65-7.015 15.682-15.681 15.682-8.65 0-15.682-7.015-15.682-15.682 0-8.65 7.015-15.681 15.682-15.681zm98.375 0c8.65 0 15.681 7.015 15.681 15.681 0 8.65-7.015 15.682-15.681 15.682-8.65 0-15.682-7.015-15.682-15.682 0-8.65 7.015-15.681 15.682-15.681zm-48.802-7.618c12.86 0 23.283 10.423 23.283 23.282 0 12.86-10.424 23.283-23.283 23.283-12.859 0-23.282-10.423-23.282-23.283 0-12.859 10.423-23.282 23.282-23.282zM221.333 56.82h62.957c10.361 0 18.842 8.466 18.842 18.827V91.59c0 10.361-8.48 18.827-18.842 18.827h-62.957c-10.361 0-18.827-8.466-18.827-18.827V75.647c0-10.361 8.48-18.827 18.827-18.827zm118.033 301.293H451v71.485H339.366Z" fill-rule="evenodd" style="fill:#e64539;fill-opacity:1;stroke-width:.428308;filter:url(#a)"/></svg>