<svg viewBox="0 0 512 512" style="height:512px;width:512px" xmlns="http://www.w3.org/2000/svg"><defs><filter style="color-interpolation-filters:sRGB" id="a" x="-.046" y="-.042" width="1.092" height="1.083"><feFlood flood-opacity="1" flood-color="#3A3F5E" result="flood"/><feComposite in="flood" in2="SourceGraphic" operator="out" result="composite1"/><feGaussianBlur in="composite1" stdDeviation="8" result="blur"/><feOffset result="offset"/><feComposite in="offset" in2="SourceGraphic" operator="atop" result="composite2"/></filter></defs><path d="M.359-.21h512v512h-512Z" fill="#1b1f21"/><path d="m136.991 102.511 19.172 9.737 3.347-21.178a51.182 51.182 0 0 0-22.519 11.441zm29.091 26.168a7.481 7.481 0 0 0-2.313 1.156 9.128 9.128 0 0 0-2.251 1.703 12.641 12.641 0 0 0-3.714 9.739c.004.736.087 1.47.245 2.191.06.181.122.365.182.608a12.812 12.812 0 0 0 3.287 5.781 13.024 13.024 0 0 0 5.841 3.287 8.98 8.98 0 0 0 2.496.425 12.831 12.831 0 0 0 9.98-3.712 10.143 10.143 0 0 0 1.643-2.07 7.909 7.909 0 0 0 1.158-2.251 12.813 12.813 0 0 0-1.827-12.84 1.865 1.865 0 0 1-.305-.427l-.06-.061c-.06-.06-.121-.122-.121-.182l-.488-.488a3.877 3.877 0 0 0-.546-.486.217.217 0 0 1-.062-.121c-.06 0-.06 0-.121-.062-.06-.06-.184-.121-.305-.243v.062a12.564 12.564 0 0 0-12.719-2.009zm1.887-12.963a24.826 24.826 0 0 1 13.023 2.13l4.077-25.985a46.22 46.22 0 0 0-13.024-2.009zm25.256 2.434 21.299-3.347a52.353 52.353 0 0 0-7.79-10.162 49.447 49.447 0 0 0-10.102-7.73zm-70.536 5.477 23.49 11.99a25.428 25.428 0 0 1 5.966-11.745l-23.553-11.99a51.842 51.842 0 0 0-5.903 11.745zm70.78 6.818a24.823 24.823 0 0 1 2.312 10.222 23.261 23.261 0 0 1-.243 2.801l26.047-4.14a51.125 51.125 0 0 0-2.008-13.023zm-27.387-1.765a7.48 7.48 0 0 0-2.313 1.155 9.129 9.129 0 0 0-2.25 1.704 12.641 12.641 0 0 0-3.714 9.738c.004.736.086 1.47.245 2.191.06.182.121.365.181.608a12.812 12.812 0 0 0 3.287 5.781 13.024 13.024 0 0 0 5.842 3.287 8.979 8.979 0 0 0 2.496.425 12.831 12.831 0 0 0 9.98-3.712 10.142 10.142 0 0 0 1.643-2.07 7.908 7.908 0 0 0 1.157-2.25 12.813 12.813 0 0 0-1.827-12.841 1.864 1.864 0 0 1-.304-.427l-.06-.061c-.06-.06-.122-.122-.122-.182l-.488-.488a3.878 3.878 0 0 0-.546-.486.218.218 0 0 1-.062-.121c-.06 0-.06 0-.121-.062-.06-.06-.183-.121-.305-.243v.062a12.564 12.564 0 0 0-12.719-2.008zm-46.314 12.049a51.052 51.052 0 0 0 4.198 20.144l15.215-15.215-19.11-9.736c-.19 1.596-.29 3.2-.303 4.807zm79.357 14.484 9.798 19.17a50.447 50.447 0 0 0 11.38-22.517zm-68.831 16.553a49.314 49.314 0 0 0 4.32 4.93 50.413 50.413 0 0 0 4.991 4.382l18.622-18.623a24.44 24.44 0 0 1-9.31-9.31zm45.462-6.572 11.99 23.49a49.653 49.653 0 0 0 11.744-5.964l-11.99-23.551a24.433 24.433 0 0 1-11.744 6.024zM150.5 187.408a51.497 51.497 0 0 0 24.95 3.894l-9.736-19.11zm-13.512-84.895 19.172 9.736 3.347-21.177a51.183 51.183 0 0 0-22.519 11.441zm29.091 26.168a7.48 7.48 0 0 0-2.313 1.156 9.129 9.129 0 0 0-2.251 1.703 12.641 12.641 0 0 0-3.713 9.739 10.5 10.5 0 0 0 .244 2.191c.06.181.122.365.182.608a12.812 12.812 0 0 0 3.287 5.781 13.024 13.024 0 0 0 5.841 3.287 8.979 8.979 0 0 0 2.497.425 12.831 12.831 0 0 0 9.979-3.712 10.142 10.142 0 0 0 1.644-2.07 7.908 7.908 0 0 0 1.157-2.251 12.813 12.813 0 0 0-1.827-12.84 1.865 1.865 0 0 1-.305-.427l-.06-.061c-.06-.06-.121-.122-.121-.182l-.488-.488a3.878 3.878 0 0 0-.546-.486.217.217 0 0 1-.062-.121c-.06 0-.06 0-.121-.062-.06-.06-.183-.122-.305-.243v.062a12.564 12.564 0 0 0-12.719-2.009zm1.887-12.963a24.826 24.826 0 0 1 13.023 2.13l4.077-25.986a46.22 46.22 0 0 0-13.024-2.008zm25.256 2.434 21.3-3.347a52.351 52.351 0 0 0-7.79-10.162 49.446 49.446 0 0 0-10.103-7.73zm-70.536 5.477 23.491 11.99a25.428 25.428 0 0 1 5.965-11.745l-23.553-11.99a51.844 51.844 0 0 0-5.903 11.745zm70.78 6.818a24.823 24.823 0 0 1 2.312 10.222 23.259 23.259 0 0 1-.243 2.801l26.047-4.14a51.124 51.124 0 0 0-2.008-13.023zm-27.386-1.766a7.48 7.48 0 0 0-2.313 1.156 9.129 9.129 0 0 0-2.252 1.703 12.641 12.641 0 0 0-3.713 9.739c.004.736.086 1.47.245 2.191.06.182.121.365.181.608a12.812 12.812 0 0 0 3.287 5.781 13.024 13.024 0 0 0 5.842 3.287 8.98 8.98 0 0 0 2.496.425 12.831 12.831 0 0 0 9.98-3.712 10.143 10.143 0 0 0 1.643-2.07 7.908 7.908 0 0 0 1.157-2.25 12.813 12.813 0 0 0-1.827-12.841 1.865 1.865 0 0 1-.304-.427l-.06-.061c-.06-.06-.122-.122-.122-.182l-.488-.488a3.878 3.878 0 0 0-.546-.486.217.217 0 0 1-.061-.121c-.06 0-.06 0-.122-.062-.06-.06-.183-.121-.305-.243v.062a12.564 12.564 0 0 0-12.718-2.008zm-46.315 12.05a51.058 51.058 0 0 0 4.198 20.144l15.215-15.215-19.11-9.736c-.19 1.596-.29 3.2-.303 4.807zm79.357 14.484 9.798 19.17a50.447 50.447 0 0 0 11.38-22.518zm-68.831 16.553a49.308 49.308 0 0 0 4.321 4.93 50.405 50.405 0 0 0 4.99 4.382l18.622-18.623a24.44 24.44 0 0 1-9.31-9.31zm45.462-6.572 11.99 23.49a49.653 49.653 0 0 0 11.744-5.964l-11.99-23.551a24.433 24.433 0 0 1-11.744 6.024zm-25.256 22.214a51.497 51.497 0 0 0 24.95 3.894l-9.735-19.11zm104.372 3.285-9.069 9.007 8.947 13.51a47.031 47.031 0 0 1 11.137-9.007 6.977 6.977 0 0 0 3.468-5.234 9.19 9.19 0 0 0-2.739-7.545c-.06-.121-.181-.183-.243-.304h-.06a8.209 8.209 0 0 0-11.441-.427zm-29.699 29.637a7.26 7.26 0 0 0-2.07 5.233v.245a9.362 9.362 0 0 0 2.74 6.268l1.4 1.339a9.253 9.253 0 0 0 7.12 2.799 7.225 7.225 0 0 0 5.294-2.861l7.303-9.92-9.981-14.91zm-65.665-129.26a51.182 51.182 0 0 0-22.519 11.44l19.172 9.737zm55.013 23.733a52.352 52.352 0 0 0-7.79-10.162 49.446 49.446 0 0 0-10.102-7.73l-3.407 21.24zm-46.553.913a24.825 24.825 0 0 1 13.024 2.13l4.076-25.986a46.22 46.22 0 0 0-13.024-2.008zm-45.277 7.911 23.49 11.99a25.428 25.428 0 0 1 5.966-11.745l-23.553-11.99a51.841 51.841 0 0 0-5.903 11.745zm58.12 9.069a1.865 1.865 0 0 1-.304-.427l-.06-.061c-.06-.06-.122-.122-.122-.182l-.488-.488a3.875 3.875 0 0 0-.546-.486.218.218 0 0 1-.061-.121c-.06 0-.06 0-.122-.062-.06-.06-.183-.122-.305-.243v.061a12.564 12.564 0 0 0-12.718-2.008 7.5 7.5 0 0 0-2.313 1.156 9.161 9.161 0 0 0-2.251 1.703 12.633 12.633 0 0 0-3.712 9.739c.004.736.084 1.47.243 2.191.06.181.121.365.181.608a12.828 12.828 0 0 0 3.288 5.781 13.024 13.024 0 0 0 5.84 3.287 8.98 8.98 0 0 0 2.497.425 12.835 12.835 0 0 0 9.981-3.712 10.136 10.136 0 0 0 1.642-2.07 7.91 7.91 0 0 0 1.157-2.251 12.813 12.813 0 0 0-1.826-12.84zm14.972 7.97a23.263 23.263 0 0 1-.243 2.802l26.047-4.14a51.125 51.125 0 0 0-2.008-13.023l-26.109 4.14a24.823 24.823 0 0 1 2.313 10.222zm-75.708-4.745a43.657 43.657 0 0 0-.303 4.808 51.052 51.052 0 0 0 4.198 20.143l15.215-15.214zm32.864 22.517a24.29 24.29 0 0 1-4.016-5.293l-18.624 18.621a49.31 49.31 0 0 0 4.321 4.93 50.408 50.408 0 0 0 4.99 4.382l18.622-18.623a24.3 24.3 0 0 1-5.293-4.017zm55.988 15.944a50.447 50.447 0 0 0 11.38-22.517l-21.179 3.347zm-33.168-9.188 11.99 23.49a49.65 49.65 0 0 0 11.744-5.964L187.5 159.17a24.433 24.433 0 0 1-11.744 6.024zM150.5 187.409a51.497 51.497 0 0 0 24.952 3.895l-9.737-19.11zm104.372 3.286-9.068 9.007 8.947 13.51a47.031 47.031 0 0 1 11.137-9.008 6.977 6.977 0 0 0 3.468-5.233 9.19 9.19 0 0 0-2.74-7.545c-.06-.121-.18-.183-.242-.305h-.06a8.209 8.209 0 0 0-11.442-.426zm-29.698 29.637a7.26 7.26 0 0 0-2.07 5.233v.245a9.362 9.362 0 0 0 2.74 6.268l1.4 1.339a9.253 9.253 0 0 0 7.12 2.799 7.225 7.225 0 0 0 5.293-2.861l7.304-9.92-9.981-14.91zm75.523 9.981a6.976 6.976 0 0 0-5.233 3.469 46.987 46.987 0 0 1-9.007 11.136l13.51 8.947 9.068-9.068a7.481 7.481 0 0 0 2.068-5.538 9.409 9.409 0 0 0-2.8-6.207 9.187 9.187 0 0 0-7.606-2.739zm-34.384 29.698a7.024 7.024 0 0 0-2.861 5.234v.67a8.953 8.953 0 0 0 2.8 6.45l1.338 1.4a8.38 8.38 0 0 0 11.746.67l11.807-11.806-14.91-9.921zM159.506 91.071a51.182 51.182 0 0 0-22.519 11.44l19.172 9.737zm55.013 23.733a52.351 52.351 0 0 0-7.79-10.162 49.446 49.446 0 0 0-10.102-7.73l-3.407 21.24zm-33.531 3.042 4.076-25.985a46.22 46.22 0 0 0-13.024-2.008l-4.076 25.864a24.825 24.825 0 0 1 13.024 2.13zm-58.301 5.782 23.49 11.99a25.428 25.428 0 0 1 5.965-11.745l-23.552-11.99a51.843 51.843 0 0 0-5.903 11.745zm58.12 9.068a1.864 1.864 0 0 1-.305-.426l-.06-.062c-.06-.06-.121-.121-.121-.181l-.488-.488a3.878 3.878 0 0 0-.546-.486.217.217 0 0 1-.062-.122c-.06 0-.06 0-.121-.061-.06-.06-.183-.122-.305-.243v.061a12.564 12.564 0 0 0-12.719-2.008 7.5 7.5 0 0 0-2.313 1.156 9.162 9.162 0 0 0-2.25 1.703 12.633 12.633 0 0 0-3.713 9.738c.004.737.085 1.471.244 2.192.06.181.121.364.181.607a12.828 12.828 0 0 0 3.287 5.782 13.023 13.023 0 0 0 5.842 3.287 8.98 8.98 0 0 0 2.496.425 12.835 12.835 0 0 0 9.981-3.712 10.135 10.135 0 0 0 1.642-2.07 7.908 7.908 0 0 0 1.157-2.251 12.813 12.813 0 0 0-1.827-12.84zm14.972 7.972a23.322 23.322 0 0 1-.243 2.8l26.047-4.14a51.125 51.125 0 0 0-2.008-13.023l-26.11 4.14a24.823 24.823 0 0 1 2.314 10.223zm-75.708-4.746a43.43 43.43 0 0 0-.303 4.807 51.056 51.056 0 0 0 4.197 20.144l15.215-15.214zm32.864 22.517a24.292 24.292 0 0 1-4.017-5.294l-18.623 18.622a49.31 49.31 0 0 0 4.321 4.93 50.405 50.405 0 0 0 4.99 4.382l18.622-18.623a24.3 24.3 0 0 1-5.293-4.017zm55.987 15.944a50.447 50.447 0 0 0 11.38-22.517l-21.178 3.347zm-33.167-9.189 11.99 23.491a49.652 49.652 0 0 0 11.744-5.965l-11.99-23.55a24.433 24.433 0 0 1-11.744 6.024zm-25.256 22.214a51.497 51.497 0 0 0 24.951 3.895l-9.736-19.11zm95.303 12.293 8.947 13.51a47.031 47.031 0 0 1 11.137-9.008 6.977 6.977 0 0 0 3.468-5.233 9.19 9.19 0 0 0-2.739-7.545c-.06-.122-.181-.183-.243-.305h-.06a8.209 8.209 0 0 0-11.442-.426zm-20.63 20.63a7.26 7.26 0 0 0-2.07 5.233v.245a9.362 9.362 0 0 0 2.74 6.267l1.4 1.34a9.253 9.253 0 0 0 7.12 2.798 7.225 7.225 0 0 0 5.294-2.86l7.303-9.92-9.981-14.91zm70.292 13.45a46.985 46.985 0 0 1-9.007 11.136l13.51 8.947 9.068-9.069a7.482 7.482 0 0 0 2.068-5.538 9.409 9.409 0 0 0-2.799-6.206 9.187 9.187 0 0 0-7.606-2.74 6.976 6.976 0 0 0-5.234 3.47zm-29.15 26.23a7.024 7.024 0 0 0-2.862 5.233v.67a8.953 8.953 0 0 0 2.8 6.45l1.338 1.4a8.38 8.38 0 0 0 11.747.67l11.806-11.806-14.91-9.922zm81.548 19.29a50.266 50.266 0 0 0-22.519 11.442l19.17 9.738zm21.42 26.716 4.138-25.925a49.37 49.37 0 0 0-13.023-2.068l-4.138 25.925a25.21 25.21 0 0 1 13.024 2.068zm33.532-3.042a49.457 49.457 0 0 0-7.728-10.102 54.413 54.413 0 0 0-10.163-7.79l-3.347 21.301zm-91.835 8.885 23.553 11.928a24.672 24.672 0 0 1 5.963-11.684l-23.55-11.99a48.633 48.633 0 0 0-5.966 11.746zm73.152 17.04c0 .913-.184 1.827-.245 2.74l25.987-4.079a48.51 48.51 0 0 0-1.949-13.023l-26.107 4.138a24.86 24.86 0 0 1 2.313 10.224zm-15.034-8.032c-.06-.062-.121-.184-.243-.305-.06-.06-.06-.122-.121-.182-.06-.061-.06-.061-.06-.123l-1.036-1.034c-.06 0-.06 0-.122-.06a.062.062 0 0 1-.042-.018.055.055 0 0 1-.018-.044 3.779 3.779 0 0 1-.73-.607 12.79 12.79 0 0 0-12.355-1.644c-.81.3-1.587.687-2.313 1.156a12.975 12.975 0 0 0-5.963 11.503c.02.738.121 1.473.303 2.19.062.183.123.366.183.61a11.823 11.823 0 0 0 3.287 5.72 12.575 12.575 0 0 0 5.842 3.346c.814.23 1.65.374 2.496.426a12.745 12.745 0 0 0 9.98-3.773c.6-.608 1.132-1.28 1.581-2.008a9.428 9.428 0 0 0 1.217-2.313 12.822 12.822 0 0 0-1.886-12.84zm-60.736 3.285c-.123 1.584-.305 3.166-.305 4.747a51.338 51.338 0 0 0 4.2 20.206l15.213-15.215zm88.85 38.403a50.253 50.253 0 0 0 11.44-22.519l-21.177 3.347zm-55.93-15.885a25.906 25.906 0 0 1-4.016-5.295l-18.683 18.623a57.593 57.593 0 0 0 4.382 4.93 59.566 59.566 0 0 0 4.99 4.38l18.563-18.621a25.545 25.545 0 0 1-5.236-4.017zm22.823 6.694 11.988 23.491a50.606 50.606 0 0 0 11.746-5.903L375.85 347.4a24.87 24.87 0 0 1-11.744 5.965zM338.85 375.58a50.582 50.582 0 0 0 24.889 3.955L354 360.424zM94.444 136.23c-.06 1.46-.122 2.98-.122 4.44-.052 40.389 31.43 73.797 71.754 76.133-18.77 28.16-5.975 56.398-1.74 60.708l53.75 54.897c4.298 4.245 37.85 21.961 64.775 1.118 1.835 30.55 21.75 57.048 50.59 67.298 28.835 10.252 81.848 95.45 81.848 95.45s48.44-171.208 1.724-212.43c-11.657-13.158-18.666-20.929-45.919-30.225a24.114 24.114 0 0 1-13.447-7.12l-104.552-104.43a24.58 24.58 0 0 1-7.059-13.45 76.337 76.337 0 0 0-47.46-58.996c-68.638-34.46-179.75-35.726-179.75-35.726s73.906 68.72 75.608 102.332zm282.683 132.24a42.006 42.006 0 0 1 5.477 1.947 62.69 62.69 0 0 1 34.992 35.054 42.367 42.367 0 0 1 1.887 5.357 60.797 60.797 0 0 1 2.617 16.674v1.4c0 1.34-.061 2.616-.121 3.833v.062a1.179 1.179 0 0 0-.062.488 62.752 62.752 0 0 1-18.257 40.288c-1.217 1.217-2.556 2.372-3.895 3.528-.06 0-.06.062-.121.062l-.305.304a56.4 56.4 0 0 1-4.443 3.407 62.355 62.355 0 0 1-15.031 7.609 56.675 56.675 0 0 1-5.477 1.581 63.276 63.276 0 0 1-48.989-7.73 102.87 102.87 0 0 1-4.626-3.163 76.162 76.162 0 0 1-6.45-5.599 82.857 82.857 0 0 1-5.54-6.329c-1.155-1.643-2.25-3.166-3.225-4.747a63.019 63.019 0 0 1-7.728-48.989 51.342 51.342 0 0 1 1.644-5.538 62.878 62.878 0 0 1 7.546-14.972 51.496 51.496 0 0 1 3.59-4.564 38.845 38.845 0 0 1 3.774-4.138 62.487 62.487 0 0 1 40.347-18.257c1.9-.185 3.812-.247 5.722-.181a61.166 61.166 0 0 1 16.675 2.616zm-60.25-44.06.062.062a21.374 21.374 0 0 1 6.33 14.422v.73a19.281 19.281 0 0 1-5.66 13.753l-29.7 29.699a20.426 20.426 0 0 1-28.908-.73l-1.4-1.338a21.432 21.432 0 0 1-6.267-16.676 19.298 19.298 0 0 1 7.79-14.18l16.491-12.11a33.657 33.657 0 0 0 9.312-10.345 18.961 18.961 0 0 1 14.179-9.434 21.185 21.185 0 0 1 17.77 6.147zm-41.686-41.626a21.237 21.237 0 0 1 6.39 15.031c0 .916-.062 1.83-.184 2.74a19.131 19.131 0 0 1-9.431 14.178 32.953 32.953 0 0 0-10.346 9.312l-12.173 16.492a19.27 19.27 0 0 1-14.178 7.79 21.219 21.219 0 0 1-16.616-6.268l-1.399-1.4a21.358 21.358 0 0 1-6.329-14.424 19.483 19.483 0 0 1 5.598-14.484l29.699-29.699c8.202-7.793 21.169-7.467 28.969.732zm-80.88-100.598a63.038 63.038 0 0 1 34.991 35.114c.67 1.584 1.28 3.409 1.887 5.295a63.128 63.128 0 0 1 2.556 16.676v1.46c0 1.277-.061 2.556-.121 3.833v.488a62.677 62.677 0 0 1-18.32 40.288 55.038 55.038 0 0 1-3.894 3.53l-.365.365a42.967 42.967 0 0 1-4.442 3.408 64.685 64.685 0 0 1-15.032 7.607 84.064 84.064 0 0 1-5.538 1.643 63.342 63.342 0 0 1-48.989-7.79c-1.522-.973-3.104-2.007-4.624-3.165a73.682 73.682 0 0 1-6.391-5.598c-1.97-2-3.82-4.112-5.538-6.33a55.249 55.249 0 0 1-3.286-4.747 63.24 63.24 0 0 1-7.73-48.988 46.735 46.735 0 0 1 1.644-5.477 60.25 60.25 0 0 1 7.606-15.032 41.544 41.544 0 0 1 3.53-4.564 46.101 46.101 0 0 1 3.774-4.138 62.497 62.497 0 0 1 40.409-18.259 58.614 58.614 0 0 1 5.721-.121 58.5 58.5 0 0 1 16.614 2.556 46.387 46.387 0 0 1 5.538 1.948zm71.991 177.826a7.024 7.024 0 0 0-2.86 5.233v.67a8.953 8.953 0 0 0 2.799 6.45l1.339 1.401a8.38 8.38 0 0 0 11.746.67l11.806-11.807-14.91-9.921zm34.385-29.699a6.976 6.976 0 0 0-5.234 3.469 46.986 46.986 0 0 1-9.007 11.136l13.51 8.948 9.068-9.069a7.482 7.482 0 0 0 2.068-5.538 9.409 9.409 0 0 0-2.799-6.206 9.186 9.186 0 0 0-7.606-2.74zm-75.524-9.981a7.26 7.26 0 0 0-2.07 5.233v.245a9.362 9.362 0 0 0 2.74 6.268l1.4 1.339a9.253 9.253 0 0 0 7.12 2.799 7.225 7.225 0 0 0 5.294-2.861l7.303-9.92-9.98-14.91zm29.699-29.637-9.069 9.007 8.948 13.51a47.032 47.032 0 0 1 11.136-9.007 6.977 6.977 0 0 0 3.469-5.234 9.19 9.19 0 0 0-2.74-7.545c-.06-.121-.181-.183-.243-.304h-.06a8.209 8.209 0 0 0-11.441-.427zM150.49 187.41a51.497 51.497 0 0 0 24.951 3.894l-9.736-19.11zm25.256-22.214 11.99 23.49a49.654 49.654 0 0 0 11.744-5.964l-11.99-23.551a24.433 24.433 0 0 1-11.744 6.024zm23.37-9.981 9.797 19.17a50.447 50.447 0 0 0 11.38-22.517zm-68.832 16.553a49.315 49.315 0 0 0 4.321 4.93 50.408 50.408 0 0 0 4.99 4.382l18.622-18.623a24.44 24.44 0 0 1-9.31-9.31zm-10.527-31.037a51.052 51.052 0 0 0 4.198 20.144l15.214-15.215-19.11-9.736c-.19 1.596-.29 3.2-.302 4.807zm73.697-10.284a24.823 24.823 0 0 1 2.313 10.222 23.323 23.323 0 0 1-.243 2.801l26.047-4.14a51.124 51.124 0 0 0-2.009-13.023zm-27.386-1.766a7.48 7.48 0 0 0-2.313 1.156 9.128 9.128 0 0 0-2.251 1.703 12.641 12.641 0 0 0-3.714 9.739c.004.736.086 1.47.245 2.191.06.182.121.365.181.608a12.812 12.812 0 0 0 3.288 5.781 13.024 13.024 0 0 0 5.84 3.287 8.978 8.978 0 0 0 2.497.425 12.831 12.831 0 0 0 9.98-3.712 10.142 10.142 0 0 0 1.643-2.07 7.908 7.908 0 0 0 1.157-2.25 12.813 12.813 0 0 0-1.826-12.841 1.865 1.865 0 0 1-.305-.427l-.06-.061c-.06-.06-.122-.122-.122-.182l-.488-.488a3.877 3.877 0 0 0-.546-.486.218.218 0 0 1-.061-.121c-.06 0-.06 0-.122-.062-.06-.06-.183-.121-.304-.243v.062a12.564 12.564 0 0 0-12.72-2.009zm-43.392-5.052 23.491 11.99a25.428 25.428 0 0 1 5.965-11.745l-23.553-11.99a51.843 51.843 0 0 0-5.903 11.745zm45.277-7.911a24.825 24.825 0 0 1 13.024 2.13l4.076-25.985a46.221 46.221 0 0 0-13.023-2.009zm25.256 2.434 21.3-3.347a52.352 52.352 0 0 0-7.79-10.162 49.447 49.447 0 0 0-10.103-7.73zm-56.235-15.64 19.171 9.737 3.347-21.178a51.182 51.182 0 0 0-22.518 11.442zm88.182 117.82a7.26 7.26 0 0 0-2.07 5.234v.245a9.362 9.362 0 0 0 2.74 6.267l1.4 1.34a9.253 9.253 0 0 0 7.12 2.798 7.225 7.225 0 0 0 5.293-2.86l7.304-9.92-9.981-14.91zm29.698-29.637-9.068 9.008 8.947 13.51a47.031 47.031 0 0 1 11.137-9.008 6.977 6.977 0 0 0 3.468-5.233 9.19 9.19 0 0 0-2.74-7.545c-.06-.122-.18-.183-.242-.305h-.06a8.209 8.209 0 0 0-11.442-.426zm-104.372-3.285a51.497 51.497 0 0 0 24.951 3.895l-9.736-19.11zm25.256-22.214 11.99 23.491a49.655 49.655 0 0 0 11.744-5.965l-11.99-23.55a24.433 24.433 0 0 1-11.744 6.024zm23.37-9.981 9.798 19.17a50.448 50.448 0 0 0 11.38-22.517zm-68.832 16.554a49.315 49.315 0 0 0 4.322 4.929 50.41 50.41 0 0 0 4.99 4.383l18.622-18.624a24.44 24.44 0 0 1-9.31-9.31zM119.75 140.73a51.054 51.054 0 0 0 4.198 20.144l15.215-15.215-19.11-9.736c-.19 1.596-.29 3.2-.303 4.807zm73.697-10.284a24.823 24.823 0 0 1 2.313 10.223 23.319 23.319 0 0 1-.243 2.8l26.047-4.14a51.124 51.124 0 0 0-2.008-13.023zm-27.386-1.765a7.481 7.481 0 0 0-2.313 1.156 9.128 9.128 0 0 0-2.251 1.703 12.641 12.641 0 0 0-3.714 9.738c.004.736.087 1.471.245 2.192.06.181.122.364.182.607a12.812 12.812 0 0 0 3.287 5.782 13.024 13.024 0 0 0 5.841 3.287 8.978 8.978 0 0 0 2.496.424 12.831 12.831 0 0 0 9.98-3.711 10.141 10.141 0 0 0 1.643-2.07 7.909 7.909 0 0 0 1.158-2.251 12.813 12.813 0 0 0-1.827-12.84 1.866 1.866 0 0 1-.305-.427l-.06-.062c-.06-.06-.121-.121-.121-.181l-.488-.488a3.876 3.876 0 0 0-.546-.486.218.218 0 0 1-.062-.122c-.06 0-.06 0-.121-.061-.06-.06-.184-.122-.305-.244v.062a12.564 12.564 0 0 0-12.719-2.008zm-43.391-5.052 23.49 11.99a25.429 25.429 0 0 1 5.965-11.745l-23.552-11.99a51.842 51.842 0 0 0-5.903 11.745zm45.277-7.912a24.825 24.825 0 0 1 13.023 2.13l4.076-25.985a46.22 46.22 0 0 0-13.023-2.008zm25.256 2.435 21.299-3.347a52.352 52.352 0 0 0-7.79-10.163 49.447 49.447 0 0 0-10.102-7.73zm-56.236-15.64 19.172 9.737 3.347-21.178a51.182 51.182 0 0 0-22.519 11.441zm13.511 84.895a51.497 51.497 0 0 0 24.952 3.895l-9.737-19.11zm25.256-22.214 11.99 23.491a49.653 49.653 0 0 0 11.744-5.965l-11.99-23.55a24.433 24.433 0 0 1-11.744 6.024zm-45.462 6.573a49.314 49.314 0 0 0 4.322 4.929 50.41 50.41 0 0 0 4.99 4.382l18.622-18.623a24.44 24.44 0 0 1-9.31-9.31zm68.831-16.554 9.799 19.17a50.448 50.448 0 0 0 11.38-22.517zm-79.356-14.484a51.052 51.052 0 0 0 4.198 20.144l15.214-15.215-19.11-9.736a43.43 43.43 0 0 0-.302 4.807zm46.314-12.05a7.481 7.481 0 0 0-2.313 1.156 9.128 9.128 0 0 0-2.251 1.704 12.641 12.641 0 0 0-3.714 9.738c.004.736.087 1.471.245 2.191.06.182.122.365.182.608a12.812 12.812 0 0 0 3.287 5.782 13.024 13.024 0 0 0 5.841 3.287 8.978 8.978 0 0 0 2.496.424 12.831 12.831 0 0 0 9.98-3.711 10.142 10.142 0 0 0 1.643-2.07 7.909 7.909 0 0 0 1.158-2.251 12.813 12.813 0 0 0-1.827-12.84 1.866 1.866 0 0 1-.305-.427l-.06-.062c-.06-.06-.121-.121-.121-.181l-.488-.488a3.877 3.877 0 0 0-.546-.486.218.218 0 0 1-.062-.122c-.06 0-.06 0-.121-.061-.06-.06-.184-.122-.305-.244v.062a12.564 12.564 0 0 0-12.719-2.008zm27.386 1.766a24.823 24.823 0 0 1 2.313 10.222 23.32 23.32 0 0 1-.243 2.801l26.047-4.14a51.125 51.125 0 0 0-2.008-13.023zm5.66 24.768 9.798 19.17a50.448 50.448 0 0 0 11.38-22.517zm-76.439-31.585 23.491 11.99a25.429 25.429 0 0 1 5.965-11.745l-23.553-11.99a51.841 51.841 0 0 0-5.903 11.745zm70.536-5.477 21.3-3.347a52.353 52.353 0 0 0-7.79-10.163 49.448 49.448 0 0 0-10.103-7.73zm-27.143 10.529a7.48 7.48 0 0 0-2.313 1.155 9.128 9.128 0 0 0-2.251 1.704 12.641 12.641 0 0 0-3.714 9.738c.004.736.087 1.471.245 2.192.06.181.122.364.182.607a12.812 12.812 0 0 0 3.287 5.782 13.024 13.024 0 0 0 5.841 3.287 8.978 8.978 0 0 0 2.496.424 12.831 12.831 0 0 0 9.98-3.711 10.143 10.143 0 0 0 1.643-2.07 7.909 7.909 0 0 0 1.158-2.251 12.813 12.813 0 0 0-1.827-12.84 1.866 1.866 0 0 1-.305-.427l-.06-.062c-.06-.06-.121-.121-.121-.181l-.488-.488a3.877 3.877 0 0 0-.546-.486.217.217 0 0 1-.062-.122c-.06 0-.06 0-.121-.061-.06-.06-.184-.122-.305-.243v.061a12.564 12.564 0 0 0-12.719-2.008zm1.887-12.964a24.826 24.826 0 0 1 13.023 2.13l4.077-25.985a46.221 46.221 0 0 0-13.024-2.008zm-1.887 12.964a7.48 7.48 0 0 0-2.313 1.155 9.128 9.128 0 0 0-2.251 1.704 12.641 12.641 0 0 0-3.714 9.738c.004.736.087 1.471.245 2.192.06.181.122.364.182.607a12.812 12.812 0 0 0 3.287 5.782 13.024 13.024 0 0 0 5.841 3.287 8.978 8.978 0 0 0 2.496.424 12.831 12.831 0 0 0 9.98-3.711 10.143 10.143 0 0 0 1.643-2.07 7.909 7.909 0 0 0 1.158-2.251 12.813 12.813 0 0 0-1.827-12.84 1.866 1.866 0 0 1-.305-.427l-.06-.062c-.06-.06-.121-.121-.121-.181l-.488-.488a3.877 3.877 0 0 0-.546-.486.217.217 0 0 1-.062-.122c-.06 0-.06 0-.121-.061-.06-.06-.184-.122-.305-.243v.061a12.564 12.564 0 0 0-12.719-2.008zm-29.09-26.168 19.17 9.736 3.348-21.178a51.183 51.183 0 0 0-22.519 11.442z" style="fill:#e64539;fill-opacity:1;stroke-width:.879761;filter:url(#a)"/></svg>