<svg height="512" width="512" style="enable-background:new 0 0 512 512" xml:space="preserve" xmlns="http://www.w3.org/2000/svg"><defs><filter style="color-interpolation-filters:sRGB" id="a" x="-.028" y="-.028" width="1.056" height="1.056"><feFlood flood-opacity="1" flood-color="#3A3F5E" result="flood"/><feComposite in="flood" in2="SourceGraphic" operator="out" result="composite1"/><feGaussianBlur in="composite1" stdDeviation="10" result="blur"/><feOffset result="offset"/><feComposite in="offset" in2="SourceGraphic" operator="atop" result="composite2"/></filter></defs><path d="M0 0h512v512H0Z" fill="#b90202" style="fill:#1b1f21;fill-opacity:1"/><g transform="translate(-116.44 -54.842) scale(.55172)" style="fill:#e64539;fill-opacity:1;filter:url(#a)"><path d="M637.5 281.25a318.752 318.752 0 0 0-225.39 93.359 318.733 318.733 0 0 0-93.359 225.39 318.75 318.75 0 0 0 544.139 225.39 318.733 318.733 0 0 0 93.359-225.39 319.116 319.116 0 0 0-93.465-225.29 319.103 319.103 0 0 0-225.29-93.465zm0 600a281.28 281.28 0 0 1-198.88-82.375 281.27 281.27 0 0 1 0-397.76 281.27 281.27 0 0 1 397.76 0 281.263 281.263 0 0 1 82.375 198.88 281.577 281.577 0 0 1-82.469 198.78 281.553 281.553 0 0 1-198.78 82.469z" style="fill:#e64539;fill-opacity:1"/><path d="M637.5 356.25a243.757 243.757 0 0 0-172.36 71.395 243.754 243.754 0 0 0 0 344.72 243.754 243.754 0 0 0 344.72 0 243.738 243.738 0 0 0 71.395-172.36 243.99 243.99 0 0 0-71.477-172.27 244.016 244.016 0 0 0-172.27-71.477zm0 450a206.25 206.25 0 0 1 0-412.5A206.25 206.25 0 0 1 843.75 600a206.5 206.5 0 0 1-60.48 145.77 206.506 206.506 0 0 1-145.77 60.48z" style="fill:#e64539;fill-opacity:1"/><path d="M637.5 431.25a168.728 168.728 0 0 0-119.32 49.426 168.735 168.735 0 0 0 0 238.64 168.735 168.735 0 0 0 238.64 0 168.747 168.747 0 0 0 49.426-119.32 168.937 168.937 0 0 0-168.75-168.75zm0 300a131.257 131.257 0 0 1-92.809-38.441 131.256 131.256 0 0 1 0-185.618 131.256 131.256 0 0 1 185.618 0A131.256 131.256 0 0 1 768.75 600a131.41 131.41 0 0 1-38.492 92.758A131.408 131.408 0 0 1 637.5 731.25z" style="fill:#e64539;fill-opacity:1"/><path d="M1014.019 133.071c31.017 129.64 45.989 260.542 54.78 391.93a428.847 428.847 0 0 1-76.648 245.04 392.823 392.823 0 0 0 29.32-258.3 392.81 392.81 0 0 0-138.4-220.05 392.856 392.856 0 0 0-245.52-85.439h-18.75c-124.28.14-202.43 61.433-290.3 149.313 42.364 12.477 1.006-.103 1.006-.103a393.22 393.22 0 0 0-84.582 274.71 393.197 393.197 0 0 0 124.93 258.87 393.177 393.177 0 0 0 267.69 104.7c124.28-.14 243.43-49.57 331.3-137.45 87.875-87.879 137.3-207.03 137.45-331.3-13.397-130.795-24.508-261.662-54.78-391.929zM281.3 600c0-94.484 37.535-185.1 104.34-251.91a356.234 356.234 0 0 1 251.91-104.34c94.49 0 185.1 37.535 251.91 104.34A356.234 356.234 0 0 1 993.8 600c0 94.49-37.535 185.1-104.34 251.91a356.234 356.234 0 0 1-251.91 104.34A356.646 356.646 0 0 1 281.3 600Z" style="fill:#e64539;fill-opacity:1"/></g></svg>