<svg height="512" width="512" xmlns="http://www.w3.org/2000/svg"><defs><filter style="color-interpolation-filters:sRGB" id="a" x="-.033" y="-.034" width="1.066" height="1.067"><feFlood flood-opacity="1" flood-color="#3A3F5E" result="flood"/><feComposite in="flood" in2="SourceGraphic" operator="out" result="composite1"/><feGaussianBlur in="composite1" stdDeviation="15" result="blur"/><feOffset result="offset"/><feComposite in="offset" in2="SourceGraphic" operator="atop" result="composite2"/></filter></defs><path d="M0 0h512v512H0Z" fill="#b90202" style="fill:#1b1f21;fill-opacity:1"/><g transform="translate(.872 -3.136) scale(.42525)" style="fill:#e64539;fill-opacity:1;filter:url(#a)"><path d="M412.5 168.75c0-10.352 8.398-18.75 18.75-18.75h337.5c10.352 0 18.75 8.398 18.75 18.75v112.5h75V150c0-41.418-33.582-75-75-75h-375c-41.418 0-75 33.582-75 75v131.25h75zm656.3 150H131.3v225h937.5zm-825 168.75c-31.07 0-56.25-25.18-56.25-56.25S212.73 375 243.8 375s56.25 25.18 56.25 56.25-25.18 56.25-56.25 56.25zm206.25-18.75c-20.719 0-37.5-16.781-37.5-37.5s16.781-37.5 37.5-37.5 37.5 16.781 37.5 37.5-16.781 37.5-37.5 37.5zm150 0c-20.719 0-37.5-16.781-37.5-37.5s16.781-37.5 37.5-37.5 37.5 16.781 37.5 37.5-16.781 37.5-37.5 37.5zm150 0c-20.719 0-37.5-16.781-37.5-37.5s16.781-37.5 37.5-37.5 37.5 16.781 37.5 37.5-16.781 37.5-37.5 37.5zm262.5 18.75h-112.5V375h112.5zm56.25 93.75H697.1C793.979 619.855 862.55 714.34 862.55 825s-68.57 205.14-165.45 243.75h371.7zm-37.5 450h-37.5v-37.5h37.5zm0-300h-37.5v-37.5h37.5z" style="fill:#e64539;fill-opacity:1"/><path d="M1106.2 322.2v746.55c0 20.68-16.82 37.5-37.5 37.5H131.2c-20.68 0-37.5-16.82-37.5-37.5V322.2c-21.77 7.762-37.5 28.387-37.5 52.801v712.5c0 31.012 25.238 56.25 56.25 56.25h975c31.012 0 56.25-25.238 56.25-56.25v-712.5c0-24.414-15.73-45.039-37.5-52.801z" style="fill:#e64539;fill-opacity:1"/><path d="M337.5 825c0-110.66 68.57-205.14 165.45-243.75h-371.7v487.5h371.7C406.071 1030.145 337.5 935.66 337.5 825Zm-131.25 206.25h-37.5v-37.5h37.5zm0-300h-37.5v-37.5h37.5z" style="fill:#e64539;fill-opacity:1"/><path d="M600 637.5c-103.55 0-187.5 83.945-187.5 187.5s83.945 187.5 187.5 187.5S787.5 928.555 787.5 825 703.555 637.5 600 637.5zm0 225c-20.719 0-37.5-16.781-37.5-37.5s16.781-37.5 37.5-37.5 37.5 16.781 37.5 37.5-16.781 37.5-37.5 37.5z" style="fill:#e64539;fill-opacity:1"/></g></svg>