<svg height="512" width="512" style="enable-background:new 0 0 512 512" xml:space="preserve" xmlns="http://www.w3.org/2000/svg"><defs><filter style="color-interpolation-filters:sRGB" id="a" x="-.077" y="-.077" width="1.154" height="1.154"><feFlood flood-opacity="1" flood-color="#3A3F5E" result="flood"/><feComposite in="flood" in2="SourceGraphic" operator="out" result="composite1"/><feGaussianBlur in="composite1" stdDeviation="13.48" result="blur"/><feOffset result="offset"/><feComposite in="offset" in2="SourceGraphic" operator="atop" result="composite2"/></filter></defs><path d="M0 0h512v512H0Z" fill="#b90202" style="fill:#1b1f21;fill-opacity:1"/><g style="fill:#e64539;fill-opacity:1;filter:url(#a)"><g style="fill:#e64539;fill-opacity:1"><path style="fill:#e64539;fill-opacity:1;stroke-width:.820792" d="M93.26 45.877c-26.125 0-47.383 21.258-47.383 47.4v40.15c0 9.667 7.827 17.512 17.51 17.512h17.51v35.02h-17.51c-9.683 0-17.51 7.844-17.51 17.51v215.254c0 26.142 21.258 47.4 47.383 47.4h215.27c9.683 0 17.51-7.844 17.51-17.51 0-11.626 5.9-17.51 17.51-17.51 11.61 0 17.51 5.883 17.51 17.51 0 9.666 7.828 17.51 17.511 17.51h40.168c26.125 0 47.383-21.258 47.383-47.4V93.277c0-26.142-21.258-47.4-47.383-47.4h-40.168c-9.683 0-17.511 7.844-17.511 17.51 0 .175-.753 17.51-17.51 17.51-16.25 0-17.51-13.413-17.51-17.51 0-9.666-7.827-17.51-17.51-17.51H93.26zm87.437 53.33-11.336 22.084 22.43 3.633-20.738 14.43 9.64 25.755-21.244-9.554-22.281 26.16 5.234-24.262-22.603 2.293 12.82-15.184-13.486-4.296 17.972-7.848-2.742-28.438 18.045 14.737 28.29-19.51zm-19.857 61.477 4.887 2.199c-6.922 12.567-11.265 27.791 1.884 38.207l20.184 13.806 7.615-8.695 5.512 4.824 12.01-13.709 19.52 17.096 22.122-25.256 16.647 14.58-22.12 25.254 88.628 77.617 22.119-25.255 16.648 14.578-22.119 25.26 19.525 17.095-12.007 13.713 5.511 4.824-23.556 26.9-5.512-4.824-12.01 13.707-15.795-13.832 16.916-19.314-3.726-3.266a612072.34 612072.34 0 0 1-39.037 44.577l-16.649-14.579 22.121-25.263-84.9-74.35 16.916-19.314-3.727-3.266c-13.012 14.86-26.025 29.717-39.037 44.576l-16.648-14.578 22.123-25.264-19.522-17.1h-.004l12.006-13.708-5.511-4.828 7.734-8.828-19.35-13.248c-12.52-9.728-15.173-22.157-12.695-34.725l13.297-15.611zm60.033 16.441 5.508 4.824 3.623-4.133 15.793 13.83-13.498 15.415-15.793-13.832 3.62-4.133-5.51-4.83 6.257-7.141zm49.031 35.633 81.168 71.088-13.496 15.41-81.17-71.084 13.498-15.414zm-117.252 42.27 5.508 4.824 3.621-4.133 15.793 13.83-13.496 15.414-15.795-13.832 3.623-4.133-5.513-4.83 6.26-7.14zm49.03 35.632 81.17 71.086-13.498 15.412-81.168-71.084 13.496-15.414zm173.5 14.295 15.795 13.83-3.622 4.137 5.512 4.824-6.258 7.145-5.507-4.825-3.623 4.133-15.793-13.832 13.496-15.412zm-68.223 77.902 15.795 13.83-3.623 4.137 5.512 4.824-6.258 7.145-5.508-4.824-3.621 4.133-15.799-13.834 13.502-15.41z"/></g></g></svg>