<svg height="512" width="512" style="enable-background:new 0 0 512 512" xml:space="preserve" xmlns="http://www.w3.org/2000/svg"><defs><filter style="color-interpolation-filters:sRGB" id="a" x="-.049" y="-.109" width="1.099" height="1.218"><feFlood flood-opacity="1" flood-color="#3A3F5E" result="flood"/><feComposite in="flood" in2="SourceGraphic" operator="out" result="composite1"/><feGaussianBlur in="composite1" stdDeviation="10" result="blur"/><feOffset result="offset"/><feComposite in="offset" in2="SourceGraphic" operator="atop" result="composite2"/></filter></defs><path d="M0 0h512v512H0Z" fill="#b90202" style="fill:#1b1f21;fill-opacity:1"/><path style="fill:#e64539;fill-opacity:1;stroke-width:.803381;filter:url(#a)" d="m460.614 145.71-36.845.018-16.077 36.681s-2.89 6.007-8.254 10.454c-4.183 3.47-12.902 9.876-12.902 9.876l-19.255 12.007-86.916 41.13s-55.4 32.748-158.724 55.946c-11.061 2.482-21.663 4.832-33.201 4.606-11.637-.229-22.226-5.777-32.306-5.23-5.906.319-10.974 2.641-15.13 8.488-3.903 5.492-5.839 7.196-12.442 9.186-25.62 7.72-19.092 44.001 12.328 36.369l84.844-20.609c112.522-26.327 182.191-63.634 182.191-63.634l21.467-8.877s23.966-9.552 36.054-14.049c2.87-1.067 4.117-1.45 5.387-1.534 1.27-.085 2.563.13 5.529.26 6.427.282 4.584-.606 6.872 5.903.995 2.824 2.668 8.473 2.668 8.473l2.948 22.157s-.643 7.009-1.563 10.41c-1.173 4.34 3.71 10.846 3.71 10.846l16.566 4.19s6.897-3.406 7.97-7.846c5.922-24.519 30.758-43.596 45.034-63.084 3.647-4.98 6.883-9.919 9.757-14.855l-.009.005c5.608-9.631 3.031-7.092 11.64-13.579a47.585 47.585 0 0 0 16.06-21.757c4.378-12.082-4.352-36.865-4.352-36.865l-16.445-10.557s-4.317-.96-6.451-1.148c-6.794-.597-10.152-3.38-10.152-3.38zm19.611 48.671c1.434-.08 2.847 1.623 1.682 3.115-6.167 7.899-17.339 11.527-26.672 14.06-2.448.662-3.455-3.057-1.01-3.723 8.366-2.272 19.117-5.617 24.65-12.702l.004-.001c.389-.498.869-.722 1.347-.749zM83.95 333.901c.212-.008.414.005.606.039 2.686.467 3.357 4.859.13 5.666l-8.48 1.745c-3.684.923-5.122-4.839-1.399-5.605l8.48-1.745c.23-.058.451-.09.663-.1z" transform="matrix(-1 -.30025 -.03298 .9901 520.443 79.398)"/></svg>