<svg width="512" height="512" version="1.1" id="svg8" xml:space="preserve" xmlns="http://www.w3.org/2000/svg"><defs id="defs12"><filter style="color-interpolation-filters:sRGB" id="filter875" x="-.313" y="-.169" width="1.609" height="1.328"><feFlood flood-opacity="1" flood-color="#3A3F5E" result="flood" id="feFlood865"/><feComposite in="flood" in2="SourceGraphic" operator="out" result="composite1" id="feComposite867"/><feGaussianBlur in="composite1" stdDeviation="15" result="blur" id="feGaussianBlur869"/><feOffset dx="0" dy="0" result="offset" id="feOffset871"/><feComposite in="offset" in2="SourceGraphic" operator="atop" result="composite2" id="feComposite873"/></filter><filter style="color-interpolation-filters:sRGB" id="filter1015" x="-.082" y="-.044" width="1.164" height="1.088"><feFlood flood-opacity="1" flood-color="#3A3F5E" result="flood" id="feFlood1005"/><feComposite in="flood" in2="SourceGraphic" operator="out" result="composite1" id="feComposite1007"/><feGaussianBlur in="composite1" stdDeviation="8.302" result="blur" id="feGaussianBlur1009"/><feOffset dx="0" dy="0" result="offset" id="feOffset1011"/><feComposite in="offset" in2="SourceGraphic" operator="atop" result="composite2" id="feComposite1013"/></filter><filter style="color-interpolation-filters:sRGB" id="filter35638" x="-.057" y="-.131" width="1.114" height="1.261"><feFlood flood-opacity="1" flood-color="#3A3F5E" result="flood" id="feFlood35628"/><feComposite in="flood" in2="SourceGraphic" operator="out" result="composite1" id="feComposite35630"/><feGaussianBlur in="composite1" stdDeviation="6" result="blur" id="feGaussianBlur35632"/><feOffset dx="0" dy="0" result="offset" id="feOffset35634"/><feComposite in="offset" in2="SourceGraphic" operator="atop" result="composite2" id="feComposite35636"/></filter><filter style="color-interpolation-filters:sRGB" id="filter35813" x="-.053" y="-.07" width="1.107" height="1.139"><feFlood flood-opacity="1" flood-color="#3A3F5E" result="flood" id="feFlood35803"/><feComposite in="flood" in2="SourceGraphic" operator="out" result="composite1" id="feComposite35805"/><feGaussianBlur in="composite1" stdDeviation="8" result="blur" id="feGaussianBlur35807"/><feOffset dx="0" dy="0" result="offset" id="feOffset35809"/><feComposite in="offset" in2="SourceGraphic" operator="atop" result="composite2" id="feComposite35811"/></filter><filter style="color-interpolation-filters:sRGB" id="filter36051" x="-.028" y="-.039" width="1.056" height="1.078"><feFlood flood-opacity="1" flood-color="#3A3F5E" result="flood" id="feFlood36041"/><feComposite in="flood" in2="SourceGraphic" operator="out" result="composite1" id="feComposite36043"/><feGaussianBlur in="composite1" stdDeviation="6" result="blur" id="feGaussianBlur36045"/><feOffset dx="0" dy="0" result="offset" id="feOffset36047"/><feComposite in="offset" in2="SourceGraphic" operator="atop" result="composite2" id="feComposite36049"/></filter><filter style="color-interpolation-filters:sRGB" id="filter36715" x="-.07" y="-.091" width="1.139" height="1.182"><feFlood flood-opacity="1" flood-color="#3A3F5E" result="flood" id="feFlood36705"/><feComposite in="flood" in2="SourceGraphic" operator="out" result="composite1" id="feComposite36707"/><feGaussianBlur in="composite1" stdDeviation="16.201" result="blur" id="feGaussianBlur36709"/><feOffset dx="0" dy="0" result="offset" id="feOffset36711"/><feComposite in="offset" in2="SourceGraphic" operator="atop" result="composite2" id="feComposite36713"/></filter><filter style="color-interpolation-filters:sRGB" id="filter37057" x="-.08" y="-.075" width="1.16" height="1.15"><feFlood flood-opacity="1" flood-color="#3A3F5E" result="flood" id="feFlood37047"/><feComposite in="flood" in2="SourceGraphic" operator="out" result="composite1" id="feComposite37049"/><feGaussianBlur in="composite1" stdDeviation=".5" result="blur" id="feGaussianBlur37051"/><feOffset dx="0" dy="0" result="offset" id="feOffset37053"/><feComposite in="offset" in2="SourceGraphic" operator="atop" result="composite2" id="feComposite37055"/></filter><filter style="color-interpolation-filters:sRGB" id="filter3381" x="-.059" y="-.112" width="1.119" height="1.223"><feFlood flood-opacity="1" flood-color="#3A3F5E" result="flood" id="feFlood3371"/><feComposite in="flood" in2="SourceGraphic" operator="out" result="composite1" id="feComposite3373"/><feGaussianBlur in="composite1" stdDeviation="15" result="blur" id="feGaussianBlur3375"/><feOffset dx="0" dy="0" result="offset" id="feOffset3377"/><feComposite in="offset" in2="SourceGraphic" operator="atop" result="composite2" id="feComposite3379"/></filter><filter style="color-interpolation-filters:sRGB" id="filter49966" x="-.056" y="-.027" width="1.113" height="1.054"><feFlood flood-opacity="1" flood-color="#3A3F5E" result="flood" id="feFlood49956"/><feComposite in="flood" in2="SourceGraphic" operator="out" result="composite1" id="feComposite49958"/><feGaussianBlur in="composite1" stdDeviation="15" result="blur" id="feGaussianBlur49960"/><feOffset dx="0" dy="0" result="offset" id="feOffset49962"/><feComposite in="offset" in2="SourceGraphic" operator="atop" result="composite2" id="feComposite49964"/></filter><filter style="color-interpolation-filters:sRGB" id="filter54288" x="-.052" y="-.132" width="1.103" height="1.263"><feFlood flood-opacity="1" flood-color="#3A3F5E" result="flood" id="feFlood54278"/><feComposite in="flood" in2="SourceGraphic" operator="out" result="composite1" id="feComposite54280"/><feGaussianBlur in="composite1" stdDeviation="10" result="blur" id="feGaussianBlur54282"/><feOffset dx="0" dy="0" result="offset" id="feOffset54284"/><feComposite in="offset" in2="SourceGraphic" operator="atop" result="composite2" id="feComposite54286"/></filter><filter style="color-interpolation-filters:sRGB" id="filter55043" x="-.032" y="-.046" width="1.065" height="1.092"><feFlood flood-opacity="1" flood-color="#3A3F5E" result="flood" id="feFlood55033"/><feComposite in="flood" in2="SourceGraphic" operator="out" result="composite1" id="feComposite55035"/><feGaussianBlur in="composite1" stdDeviation="15" result="blur" id="feGaussianBlur55037"/><feOffset dx="0" dy="0" result="offset" id="feOffset55039"/><feComposite in="offset" in2="SourceGraphic" operator="atop" result="composite2" id="feComposite55041"/></filter><filter style="color-interpolation-filters:sRGB" id="filter55842" x="-.033" y="-.033" width="1.066" height="1.066"><feFlood flood-opacity="1" flood-color="#3A3F5E" result="flood" id="feFlood55832"/><feComposite in="flood" in2="SourceGraphic" operator="out" result="composite1" id="feComposite55834"/><feGaussianBlur in="composite1" stdDeviation="15" result="blur" id="feGaussianBlur55836"/><feOffset dx="0" dy="0" result="offset" id="feOffset55838"/><feComposite in="offset" in2="SourceGraphic" operator="atop" result="composite2" id="feComposite55840"/></filter><filter style="color-interpolation-filters:sRGB" id="filter56598" x="-.022" y="-.026" width="1.045" height="1.052"><feFlood flood-opacity="1" flood-color="#3A3F5E" result="flood" id="feFlood56588"/><feComposite in="flood" in2="SourceGraphic" operator="out" result="composite1" id="feComposite56590"/><feGaussianBlur in="composite1" stdDeviation="15" result="blur" id="feGaussianBlur56592"/><feOffset dx="0" dy="0" result="offset" id="feOffset56594"/><feComposite in="offset" in2="SourceGraphic" operator="atop" result="composite2" id="feComposite56596"/></filter></defs><path d="M0 0h512v512H0z" fill="#b90202" fill-opacity="1" id="path2" style="fill:#1b1f21;fill-opacity:1"/><style type="text/css" id="style35976">.st0{fill:#000}</style><g id="g56586" transform="translate(161.656 149.146) scale(.30717)" style="filter:url(#filter56598)"><path d="M403.903 877.054a432.89 432.89 0 0 1-76.01-231.16v-3.65a389.065 389.065 0 0 1 41.395-177.588 126.826 126.826 0 0 0 45.984 65.12 126.816 126.816 0 0 0 75.766 24.803 120.85 120.85 0 0 0 15.484-.177 468.184 468.184 0 0 0-17.396 322.64h-2.089a137.583 137.583 0 0 0-83.136 0z" id="path55953" style="fill:#e64539;fill-opacity:1;stroke-width:1.33333"/><path d="M476.436 194.268A297.605 297.605 0 0 0 519.92 81.033a269.405 269.405 0 0 0 71.662 52.183c22.786 14.088 46.437 26.958 70.614 38.958a191.166 191.166 0 0 0-23.478 54.27 200.186 200.186 0 0 0-109.058-32.176z" id="path55955" style="fill:#e64539;fill-opacity:1;stroke-width:1.33333"/><path d="M607.236 102.254S530.706 65.9 505.658-6.276l.005-.006a163.996 163.996 0 0 1 1.911-106.62l4.35 9.568a120.367 120.367 0 0 0 77.223 66.443 126.752 126.752 0 0 0 32.006 4.349 120.185 120.185 0 0 0 97.05-191.328l-17.39-24.527 148.804 92.62-.005.006L979.415-50.426s51.634 94.92 90.3 125.543l8.521 8h.01a96.16 96.16 0 0 1 28.036 50.042c4.042 19.14-5.427 57.098-5.427 57.098l-18.61 29.396s-25.895 21.75-42.02 26.85a96.168 96.168 0 0 1-49.818 2.198c-86.964-19.131-250.28-63.484-381.267-144.72z" id="path55957" style="fill:#e64539;fill-opacity:1;stroke-width:1.33333"/><path d="M704.605-185.555a83.678 83.678 0 0 1-3.03 66.419A85.217 85.217 0 0 1 575.28-86.388L364.145-235.012a59.829 59.829 0 0 1-25.82-50.556 59.824 59.824 0 0 1 28.024-49.366 59.83 59.83 0 0 1 56.643-3.745L659.15-234.016l-.005.002a84.366 84.366 0 0 1 45.46 48.467z" id="path55959" style="fill:#e64539;fill-opacity:1;stroke-width:1.33333"/><path d="M407.383 914.52c16-10.26 40.005-11.65 71.833-3.827 2.438 0 99.318 16.177 134.8 63.661h.005a31.493 31.493 0 0 1 6.76 20.724 31.5 31.5 0 0 1-8.327 20.15c-16.35 17.391-44.355 25.397-80.88 24.527h-94.62.005a53.205 53.205 0 0 1-37.636-15.588 53.202 53.202 0 0 1-15.588-37.636v-19.478a67.125 67.125 0 0 1 19.306-50.266 23.884 23.884 0 0 1 4.344-2.26z" id="path55961" style="fill:#e64539;fill-opacity:1;stroke-width:1.33333"/><path d="M490.516 335.84a92.016 92.016 0 0 1 65.063 26.949 92.017 92.017 0 0 1 0 130.125 92.017 92.017 0 0 1-65.063 26.948 92.001 92.001 0 0 1-65.057-26.948 92 92 0 0 1-26.953-65.062 92.187 92.187 0 0 1 92.01-92.011z" id="path55965" style="fill:#e64539;fill-opacity:1;stroke-width:1.33333"/><path d="M-126.59 229.04h655.546a168.387 168.387 0 0 1 119.13 49.564 168.356 168.356 0 0 1 49.064 119.328v61.573a168.361 168.361 0 0 1-168.192 168.192h-10.782a352.91 352.91 0 0 1 36.006-90.62 126.793 126.793 0 0 0 63.136-103.183 126.782 126.782 0 0 0-52.11-109.166 126.783 126.783 0 0 0-119.926-15.792c-40.079 15.369-69.65 49.973-78.599 91.953a436.361 436.361 0 0 0-72.355 226.107h-362.48c20.527-61.396 42.964-85.23 52.178-92.88 36.984-24.194 58.682-65.918 57.245-110.088-1.437-44.167-25.803-84.396-64.281-106.131-38.479-21.735-85.51-21.833-124.083-.26-38.568 21.573-63.104 61.693-64.73 105.86-5.567 12.348-21.567 54.614-33.917 153.586a166.624 166.624 0 0 1-49.396-118.448v-60.703a168.047 168.047 0 0 1 49.088-119.557 168.051 168.051 0 0 1 119.454-49.333z" id="path55967" style="fill:#e64539;fill-opacity:1;stroke-width:1.33333"/><path d="M-182.764 909.988a374.504 374.504 0 0 1 46.792 11.65 18.644 18.644 0 0 0 10.433 4.178h1.567a163.976 163.976 0 0 1 76.006 48.005 31.479 31.479 0 0 1-1.563 40.87c-16.35 17.39-43.833 25.395-80.88 24.526h-94.62a53.224 53.224 0 0 1-53.219-53.224v-18.959a67.117 67.117 0 0 1 19.303-50.265c15.828-13.047 41.396-14.437 76.183-6.781z" id="path55969" style="fill:#e64539;fill-opacity:1;stroke-width:1.33333"/><path d="m-411.67 95.814 182.8 126.099a203.158 203.158 0 0 0-93.75 121.755l-156.533-171.32a50.984 50.984 0 0 1-12.542-46.422 50.98 50.98 0 0 1 31.662-36.188 50.952 50.952 0 0 1 47.672 6.25z" id="path55971" style="fill:#e64539;fill-opacity:1;stroke-width:1.33333"/><path d="M-177.377 427.854a92.014 92.014 0 0 1 43.973-78.338 92.014 92.014 0 0 1 89.766-3.526 92.02 92.02 0 0 1 49.984 74.65 92.016 92.016 0 0 1-37.448 81.656 49.715 49.715 0 0 0-5.391 3.651 91.822 91.822 0 0 1-62.625 13.188 91.826 91.826 0 0 1-56.031-30.922 91.818 91.818 0 0 1-22.23-60.01z" id="path55973" style="fill:#e64539;fill-opacity:1;stroke-width:1.33333"/><path d="M-85.364 554.468c3.36.182 6.724.182 10.084 0-28.178 50.964-59.312 147.84-66.266 329.426-19.13-5.041-32.874-7.307-34.786-7.65a177.214 177.214 0 0 0-52.178-5.392c2.604-206.973 19.479-321.946 32.35-380.906a126.436 126.436 0 0 0 110.797 64.526z" id="path55975" style="fill:#e64539;fill-opacity:1;stroke-width:1.33333"/></g></svg>