<svg width="512" height="512" xml:space="preserve" xmlns="http://www.w3.org/2000/svg"><defs><filter style="color-interpolation-filters:sRGB" id="a" x="-.031" y="-.033" width="1.062" height="1.066"><feFlood flood-opacity="1" flood-color="#3A3F5E" result="flood"/><feComposite in="flood" in2="SourceGraphic" operator="out" result="composite1"/><feGaussianBlur in="composite1" stdDeviation="15" result="blur"/><feOffset result="offset"/><feComposite in="offset" in2="SourceGraphic" operator="atop" result="composite2"/></filter></defs><path d="M0 0h512v512H0Z" fill="#b90202" style="fill:#1b1f21;fill-opacity:1"/><g transform="translate(6.09 15.903) scale(.42307)" style="fill:#e64539;fill-opacity:1;filter:url(#a)"><path d="m687.21 616.39-89.039 93.359c-1.441 24-11.281 47.762-29.52 66-19.199 19.441-44.879 30-72.238 30s-52.801-10.559-72.238-30c-39.84-39.84-39.84-104.64 0-144.48 18-18 41.52-28.559 66.719-29.762l92.879-88.559c-19.922-14.641-79.204-60.469-96.005-66.227 1.432 6.4-18.149-.226-15.81 5.46 19.848 48.244 29.754 119.912-83.237 122.535-54.238 122.16-199.284 206.84-250.404 222.2C87.527 812.37 5.453 853.764 5.453 853.764c262.517-35.07 505.438 122.297 114.995 182.08l-34.926 61.136c730.083 95.075 638.95-324.662 690.558-318.542 57.12-25.2-37.027-47.095-57.429-106.133-5.758-16.797-17.039-36-31.441-55.918z" style="fill:#e64539;fill-opacity:1"/><path d="M441.17 758.83c30.539 30.539 80.051 30.539 110.59 0s30.539-80.051 0-110.59-80.051-30.539-110.59 0c-30.539 30.535-30.539 80.047 0 110.59zm29.512-81.078c14.242-14.242 37.328-14.238 51.57 0 14.242 14.242 14.242 37.328 0 51.57-14.238 14.242-37.328 14.242-51.57 0-14.242-14.242-14.242-37.328 0-51.57zM1162.1 128.2l-4.106 4.106-8.175-8.176 10.367-10.367c5.07-5.07 5.07-13.363 0-18.43l-55.57-55.57c-5.07-5.07-13.363-5.07-18.43 0l-10.367 10.367-8.145-8.145 4.106-4.105-13.86-13.86-16.421 16.423 13.859 13.859 4.105-4.106 8.145 8.145-25.047 25.047-8.145-8.145 4.106-4.105-13.86-13.86-16.421 16.427 13.859 13.859 4.105-4.106 8.145 8.145-25.047 25.047-8.149-8.145 4.106-4.105-13.86-13.86-16.421 16.423 13.859 13.859 4.105-4.106 8.145 8.145-.977.976-14.102 36.59 51.605 51.605 36.496-14.195.977-.976 8.176 8.175 4.105-4.105-8.21 8.21 13.858 13.86 16.422-16.422-13.859-13.86-4.105 4.106-8.176-8.175 25.047-25.047 8.176 8.175-4.106 4.106 13.86 13.859 16.421-16.422-13.859-13.86-8.21 8.212 4.105-4.106-8.172-8.176 25.047-25.047 8.176 8.176-4.106 4.106 13.86 13.859 16.421-16.422zM522.33 604.63c17.52 4.559 33.359 13.68 46.32 26.641 13.441 13.441 22.078 29.52 26.398 46.559l426-446.64-52.559-52.32zM263.41 779.12l20.949 20.945 5.805 31.059 78.715 78.715 31.055 5.805 20.949 20.949 36.859-36.863-157.47-157.47z" style="fill:#e64539;fill-opacity:1"/></g></svg>