<svg viewBox="0 0 512 512" style="height:512px;width:512px" xmlns="http://www.w3.org/2000/svg"><defs><filter style="color-interpolation-filters:sRGB" id="a" x="-.046" y="-.04" width="1.092" height="1.08"><feFlood flood-opacity="1" flood-color="#3A3F5E" result="flood"/><feComposite in="flood" in2="SourceGraphic" operator="out" result="composite1"/><feGaussianBlur in="composite1" stdDeviation="15" result="blur"/><feOffset result="offset"/><feComposite in="offset" in2="SourceGraphic" operator="atop" result="composite2"/></filter></defs><path d="M.359-.21h512v512h-512Z" fill="#1b1f21"/><g transform="translate(-58.047 -48.194) scale(.52573)" style="fill:#e64539;fill-opacity:1;filter:url(#a)"><path d="M714.38 286.88c-3.75-9.375-16.875-16.875-31.875-22.5 1.875 30-30 80.625-52.5 110.62 31.875-16.875 63.75-46.875 76.875-61.875 7.5-11.25 11.25-18.75 7.5-26.25zm-496.88 690h-1.875l-7.5 35.625c0 3.75 1.875 9.375 5.625 11.25 1.875 1.875 24.375 9.375 88.125 0 5.625 0 9.375-5.625 7.5-11.25 0 0-1.875-22.5 7.5-37.5-13.125-7.5-56.25-24.375-99.375 1.875zm446.25-716.26c-1.875-3.75-5.625-5.625-13.125-5.625h-1.875s-13.125-1.875-37.5-1.875c-26.25 0-52.5 3.75-80.625 9.375-1.875 0-7.5 1.875-9.375 9.375-3.75 9.375-1.875 39.375 71.25 116.25 1.875 0 3.75 0 5.625-1.875 31.875-41.25 73.125-106.88 65.625-125.62zm-208.13 33.76c-3.75 11.25 11.25 26.25 22.5 37.5 0 0 37.5 33.75 78.75 48.75-43.125-50.625-61.875-88.125-56.25-112.5-20.625 3.75-41.25 13.125-45 26.25z" style="fill:#e64539;fill-opacity:1"/><path d="M369.37 311.254c-11.25 5.625-24.374 13.125-35.624 26.25-22.5 26.25-33.75 63.751-28.125 114.381-1.875 15-15 106.88-3.75 142.5-9.375 13.125-33.75 50.625-24.375 76.875-5.625 13.125-20.625 50.625-16.875 73.125 1.875 7.5-1.875 15-7.5 28.125-9.375 20.625-22.5 50.625-22.5 103.12 0 24.374-7.5 35.624-13.125 43.124-7.5 11.25-13.125 20.625-3.75 39.375 60-31.875 118.12 1.875 120 1.875l1.875 1.875c1.875 0 1.875-1.875 3.75-1.875 1.875-1.875 16.875-24.375 30-116.25 3.75-28.125 9.375-50.625 15-67.5-1.875 33.75-5.625 80.626-11.25 133.121h1.875c1.875 0 82.5 41.25 211.879 45-1.875-78.75-5.625-198.75 3.75-225 4.708-28.933 9.848-88-7.504-134.996-7.5-56.25 0-181.88 0-187.5h-3.75c-13.125 0-35.625-3.75-35.625-3.75l-20.625-5.625s-8.89-4.873-10.149-5.557L494.038 521.75l-114.235 9.635-.176-4.712 106.947-9.448 21.246-128.101c-1.26-.686-6.255-3.438-7.944-4.358l-18.448 126.485-100.446 10.252-.174-4.712 93.157-10.065 20.7-124.82c-34.84-18.984-123.754-67.563-125.294-70.652Zm120.01 52.496c-13.125-9.375-22.5-16.875-22.5-18.75-24.375-20.625-33.75-41.25-30-58.125 11.25-35.625 78.75-45 88.125-46.875 28.125-5.625 58.125-9.375 84.375-9.375 22.5 0 35.625 1.875 41.25 3.75 3.75 0 7.5 0 9.375 1.875 5.625 1.875 60 11.25 73.125 43.125 5.625 15 1.875 30-11.25 46.875-1.875 1.875-18.75 20.625-41.25 39.375 41.25-15 82.5-37.5 105-75 0-5.625-1.875-91.125-5.625-98.625-13.125-22.5-41.25-39.375-82.5-52.5-3.75-1.875-101.25-33.75-221.25 7.5-50.625 16.875-76.875 33.75-86.25 52.5-5.625 11.25-3.75 98.625 0 104.25 13.125 11.25 48.75 39.375 99.375 60z" style="fill:#e64539;fill-opacity:1"/><path d="M802.496 296.24v1.875c-16.837 30.305-63.094 57.125-97.63 73.873l-5.604 130.896 89.095 29.008-1.14 4.576-96.189-30.691 8.173-131.022c-3.655 1.724-6.881 3.158-10.137 4.615l1.337-.516-5.64 131.71 102.718 31.242-1.14 4.575-109.811-32.924 8.243-132.142c-12.66 5.549-21.025 8.675-21.025 8.675l-20.625 3.75s-20.625 5.625-30 5.625c-3.75 0-5.625 1.875-9.375 1.875v1.875c0 1.875-7.5 129.38 0 183.75v1.875c7.5 56.25 15 101.25 1.875 140.62-7.5 22.5-5.625 135-1.875 219.38 65.624 0 140.62-9.375 225-37.5h1.875c-1.875-15-3.75-43.125-9.375-78.75 1.875 9.375 7.5 20.625 15 33.75 9.375 16.875 9.375 24.375 9.375 33.75 0 13.125 0 26.25 20.625 58.125 15-9.375 56.25-30 112.5-15 0-1.875 1.875-5.625 1.875-7.5l1.875-1.875c7.5-5.625 7.5-22.5-24.375-88.125 0-16.885-1.878-106.88-39.375-166.875 0-13.125 0-56.25-20.625-82.5-1.875-15-16.875-105-13.125-166.88 0-1.875 13.124-101.25-82.5-133.12z" style="fill:#e64539;fill-opacity:1"/><path d="M605.62 975c0 13.125 1.875 26.25 1.875 35.625 60-1.875 131.25-9.375 217.5-30 3.75-1.875 7.5-5.625 7.5-9.375V937.5c-86.25 28.125-161.25 37.5-226.88 37.5zM367.5 928.12l-5.625 28.125c0 3.75 0 7.5 3.75 9.375s69.375 46.875 219.38 45c0-9.375-1.875-20.625-1.875-37.5-118.12-1.875-198.75-35.625-215.62-45zm609.38 39.38c-48.75-13.125-86.25 3.75-99.375 13.125 5.625 9.375 9.375 22.5 7.5 37.5 0 5.625 3.75 9.375 7.5 11.25 1.875 0 13.125 1.875 28.125 1.875 16.875 0 39.375-1.875 56.25-11.25 3.75-1.875 5.625-7.5 3.75-13.125 1.875 0-3.75-18.75-3.75-39.375z" style="fill:#e64539;fill-opacity:1"/></g></svg>