<svg viewBox="0 0 512 512" style="height:512px;width:512px" xmlns="http://www.w3.org/2000/svg"><defs><filter style="color-interpolation-filters:sRGB" id="a" x="-.053" y="-.033" width="1.107" height="1.067"><feFlood flood-opacity="1" flood-color="#3A3F5E" result="flood"/><feComposite in="flood" in2="SourceGraphic" operator="out" result="composite1"/><feGaussianBlur in="composite1" stdDeviation="15" result="blur"/><feOffset result="offset"/><feComposite in="offset" in2="SourceGraphic" operator="atop" result="composite2"/></filter></defs><path d="M.359-.21h512v512h-512Z" fill="#1b1f21"/><g style="fill:#e64539;fill-opacity:1;filter:url(#a)"><path d="m748.81 654.36-13.57-144.1-125.4 81.961c-.203.133-.434.168-.648.3-.985.59-2.016 1.032-3.07 1.415-.481.18-.938.406-1.43.55-.649.18-1.309.227-1.957.337l27.238 175.77 17.004 149.66 38.375-46.344zM453.02 359.77l11.219 107.15 135.76 88.738 135.76-88.727 11.219-107.16-30.359-244.79-31.668-10.176-12.312-44.809a418.991 418.991 0 0 1-145.29 0l-12.312 44.809-31.668 10.176zM595.3 594.49c-.48-.133-.938-.371-1.414-.54-1.066-.382-2.113-.839-3.098-1.429-.203-.12-.433-.156-.637-.3l-125.4-81.962-13.562 144.1 63.47 219.55 38.374 46.344 17.004-149.66 27.238-175.77c-.667-.105-1.328-.164-1.976-.332zM445.6 127.13l-51.156 16.438-131.74 420.41 60.566 18.168 95.242-236.55zm359.96 16.44-51.156-16.438 27.098 218.47 95.23 236.54 60.566-18.168zm-86.67 743.94a17.73 17.73 0 0 1-3.434 6.48l-62.855 75.898 19.324 170.11h79.078l2.04-370.67zm-234.37 6.48a18.027 18.027 0 0 1-3.434-6.48l-34.164-118.18 2.055 370.67h79.078l19.32-170.11z" style="fill:#e64539;fill-opacity:1" transform="translate(-13.139 -13.137) scale(.44856)"/></g></svg>