<svg viewBox="0 0 512 512" style="height:512px;width:512px" xmlns="http://www.w3.org/2000/svg"><defs><filter style="color-interpolation-filters:sRGB" id="a" x="-.031" y="-.039" width="1.062" height="1.079"><feFlood flood-opacity="1" flood-color="#3A3F5E" result="flood"/><feComposite in="flood" in2="SourceGraphic" operator="out" result="composite1"/><feGaussianBlur in="composite1" stdDeviation="15" result="blur"/><feOffset result="offset"/><feComposite in="offset" in2="SourceGraphic" operator="atop" result="composite2"/></filter></defs><path d="M.359-.21h512v512h-512Z" fill="#1b1f21"/><g style="fill:#e64539;fill-opacity:1;filter:url(#a)"><path d="M1162.7 697.85c-3.234-21.02-19.402-50.125-30.719-77.609-11.32-27.488-80.844-139.05-90.543-156.84-9.7-17.785-63.059-121.27-63.059-121.27l-10.926-15.527c4.863-3.98 6.57-11.879 6.57-11.879l-5.75-10.172-17.25-23.887s-28.309-25.656-33.617-26.98c-5.308-1.328-15.039-18.133-22.559-18.133-7.52 0-14.156-3.98-20.348-7.96-6.191-3.981-9.937-2.567-18.133-4.423-14.332-3.246-17.562 4.348-28.074 3.754-4.98 7.637-14.277 23.582-24.098 49.164-13.355 34.797-30.402 94.97-35.77 184.01-5.406 89.676-13.402 389.44-10.586 565.88 30.36-1.41 55.895-3.082 63.707-4.758 22.637-4.851 25.871 0 30.72-11.32 4.85-11.32 8.081-54.973 6.468-63.059-1.617-8.086-9.7-40.422-6.469-61.44 3.235-21.02-3.234-74.376-3.234-108.33V668.74c0-14.552 6.469-37.189 14.55-63.06 8.083-25.87 4.853-80.844 17.786-80.844 12.933 0 9.7 25.871 12.934 33.957 3.234 8.082 19.402 11.32 29.105 25.871 9.7 14.551 38.805 46.891 46.89 56.59 8.083 9.7 16.169 30.72 19.403 46.891 3.234 16.168 17.785 50.125 30.719 84.078 12.938 33.957 16.168 67.906 17.785 84.078 1.617 16.168 11.32 116.41 11.32 134.2 0 17.785 3.234 45.273 45.273 61.441s66.293-25.87 66.293-30.719c0-4.851 9.7-30.719 9.7-43.656 0-12.937 8.085-38.805 8.085-61.44 0-22.637 1.613-69.528 1.613-103.48 0-33.962-14.555-93.786-17.789-114.8zm-52.805 337.72c-17.137 0-42.57-21.57-42.57-27.734 0-6.164 8.96-31.844 39.211-24.652 30.246 7.191 36.969 19.516 36.969 24.652 0 5.137-1.121 27.734-33.609 27.734zM782.16 226.06l-13.191-5.055-25.852-13.629c-8.922-.402-17.672 1.407-20.211.563-4.852-1.617-11.32-6.469-12.938-17.785-1.613-11.32-24.254-16.168-24.254-16.168s-9.7-21.02-14.551-25.871c-4.852-4.852-43.656-9.5-72.758-9.5-29.102 0-67.906 4.648-72.758 9.5-4.852 4.851-14.551 25.87-14.551 25.87s-22.637 4.852-24.254 16.169c-1.613 11.32-8.082 16.168-12.938 17.785-4.852 1.617-32.336-6.469-40.422 9.699l-16.57 9.89s-.191-8.78-11.688-7.894c-11.5.887-53.965 3.54-62.367 3.54-8.406 0-11.941.44-18.137 4.421l-42.906 26.098c-5.309 1.328-33.617 26.98-33.617 26.98l-19.652 23.887-5.75 14.973s1.703 3.098 6.57 7.078l-10.926 15.527s-53.355 103.48-63.059 121.27c-9.699 17.785-79.227 129.35-90.543 156.84-11.32 27.488-27.488 56.59-30.719 77.61-3.234 21.02-17.785 80.843-17.785 114.8 0 33.956 1.617 80.843 1.617 103.48 0 22.636 8.082 48.507 8.082 61.44 0 12.938 9.7 38.805 9.7 43.656 0 4.852 24.254 46.891 66.293 30.72 42.039-16.169 45.27-43.657 45.27-61.442 0-17.785 9.699-118.03 11.32-134.2 1.617-16.168 4.851-50.125 17.785-84.078 12.938-33.957 27.488-67.906 30.719-84.078 3.234-16.168 11.32-37.188 19.402-46.89 8.082-9.7 37.188-42.04 46.89-56.59 9.7-14.552 25.872-17.786 29.106-25.872 3.234-8.082 0-33.957 12.938-33.957s9.699 54.973 17.785 80.844c8.086 25.871 14.55 48.508 14.55 63.06v108.33c0 33.956-6.468 87.311-3.234 108.33 3.235 21.02-4.851 53.354-6.469 61.44-1.617 8.082 1.618 51.738 6.47 63.06 4.85 11.32 8.081 6.468 30.718 11.32 22.637 4.85 194.03 9.698 200.49 8.081 6.47-1.617 20.211 6.469 18.594-17.785-1.617-24.254-.808-510.93-.808-528.72 0-17.79-2.914-143.5-2.914-143.5s-38.25-7.652-49.18-10.93c-10.93-3.277-15.086-15.965-15.086-24.707s3.277-33.004 4.37-39.559c1.095-6.558 11.689-16.148 18.794-13.117 33.898 14.48 27.328.59 27.328.59-15.023-13.242-36.047-26.859-41.52-32.332-8.082-8.082-7.739-43.398-2.02-49.113 13.34-13.34 41.836-16.371 65.078-16.371 23.242 0 51.742 3.035 65.082 16.371 5.719 5.719 6.063 41.027-2.02 49.113-8.085 8.086-39.21 49.031-56.59 50.125-31.671 1.988-41.554-.894-48.112-5.27-6.559-4.37-12.023 3.278-12.023 3.278s-6.305 27.359-7.399 32.824c-1.093 5.465 5.211 13.078 17.234 18.543 12.023 5.465 50.301 4.785 50.301 4.785s-1.617 141.48-1.617 159.26c0 17.785.809 504.46-.808 528.72-1.618 24.254 12.129 16.168 18.594 17.785 2.136.535 22.297.363 49.14-.281l29.095-.809c9.652-.3 10.355-1.613 20.223-1.988-2.856-177.04 4.828-475.31 10.262-565.48 7.668-127.25 52.395-234.69 52.395-234.69zm-695.41 810.5c-33.688 0-34.852-23.434-34.852-28.758 0-5.324 6.969-18.109 38.336-25.566 31.367-7.457 40.66 19.172 40.66 25.566 0 6.39-26.371 28.758-44.145 28.758z" style="fill:#e64539;fill-opacity:1" transform="translate(7.998 8.53) scale(.41443)"/></g></svg>