<svg viewBox="0 0 512 512" style="height:512px;width:512px" xmlns="http://www.w3.org/2000/svg"><defs><filter style="color-interpolation-filters:sRGB" id="a" x="-.032" y="-.031" width="1.064" height="1.062"><feFlood flood-opacity="1" flood-color="#3A3F5E" result="flood"/><feComposite in="flood" in2="SourceGraphic" operator="out" result="composite1"/><feGaussianBlur in="composite1" stdDeviation="15" result="blur"/><feOffset result="offset"/><feComposite in="offset" in2="SourceGraphic" operator="atop" result="composite2"/></filter></defs><path d="M.359-.21h512v512h-512Z" fill="#1b1f21"/><g transform="translate(29.136 26.606) scale(.37924)" style="fill:#e64539;fill-opacity:1;filter:url(#a)"><path d="M307.05 709.89c-37.141-15.969-65.012-34.547-77.082-49.645-4.16-5.203-7.84-15.676-16.984-2.613-9.145 13.066-162.07 113.59-168.6 118.82-6.531 5.226-16.984 18.289-7.84 30.05 9.145 11.759 107.16 156.89 175.1 360.7 4.13 12.396 5.227 19.599 19.598 7.84 0 0 74.504-86.261 135.91-147.67 61.402-61.406 115.95-93.32 119.54-97.332 11.105-12.414 31.355-54.219-7.187-93.414-51.207-52.078-115.02-102.04-172.45-126.73z" style="fill:#e64539;fill-opacity:1"/><path d="M918.303 28.765c-1.642.058-3.32.206-5.034.451-27.438 3.918-64.021 15.676-108.441 50.953-44.422 35.273-100.6 81.004-104.52 88.84-3.918 7.84-19.598 27.439-28.742 35.274-9.144 7.84-73.164 58.793-73.164 58.793s-32.66 15.677-43.113 26.13c-10.453 10.453-32.66 23.52-32.66 23.52s-27.437-10.454-7.839-28.743c19.598-18.289 38.276-41.961 44.421-53.566 11.758-22.211 25.367-52.77 31.355-69.246 10.453-28.742 9.993-65.61 3.919-82.31-10.453-28.742-50.954-33.968-62.712-22.21-11.758 11.758-31.355 44.422-31.355 44.422s-7.539 8.735-19.598 24.824c-8.07 10.762-13.066 13.066-22.211 23.52-9.145 10.453-30.852 39.262-57.469 77.688-21.035 30.359-44.128 61.547-44.128 61.547s-54.92 64.965-48.65 148.2c3.36 44.574-9.143 126.73-30.049 150.25-20.902 23.516-30.047 35.273-30.047 35.273s-8.64 12.012 2.613 26.785c10.453 13.72 57.484 30.704 130.65 73.817 73.164 43.113 129.34 103.21 138.49 133.26 9.145 30.05-1.305 40.498 3.918 41.807 5.226 1.305 11.105-.65 30.703-9.8 19.598-9.144 169.19-103.86 195.32-113.01C776.09 766.09 858.4 730.813 878 720.36c19.6-10.453 175.07-117.58 185.52-128.04 10.45-10.46 39.194-24.824 50.952-35.273 11.758-10.453 45.727-43.113 31.355-73.164-14.375-30.06-28.745-31.363-44.421-30.059l-.01-.003c-15.676 1.305-36.582 9.144-58.793 24.823-18.176 12.832-95.375 66.634-104.52 69.247-9.145 2.613-61.402 22.211-61.402 22.211s47.031-35.273 56.18-39.195c9.145-3.918 50.953-20.902 77.082-39.195 26.129-18.289 71.855-62.71 81.004-66.632 9.145-3.918 39.194-37.892 54.87-57.485 15.676-19.598 20.903-52.262 15.677-67.938-5.227-15.676-9.144-32.66-26.128-35.274-14.723-2.265-37.891 1.306-67.938 26.13-30.051 24.824-67.94 54.87-137.182 96.68-69.246 41.809-96.68 54.874-96.68 54.874s-2.613-9.144 5.227-18.288c7.84-9.145 33.97-35.273 54.872-45.727 20.902-10.454 83.617-54.875 96.68-67.938 13.066-13.066 53.566-47.032 67.938-57.485 14.372-10.453 43.113-35.272 49.645-41.808 6.53-6.531 15.676-33.969 1.305-60.098-8.746-15.906-20.902-28.742-40.5-27.438-19.598 1.305-39.195 13.067-71.855 35.274-32.66 22.21-54.871 39.194-69.246 44.42-14.371 5.228-22.896 7.86-47.032 23.52-24.172 15.676-37.234 26.785-60.75 48.34-23.52 21.56-38.543 47.033-64.671 61.404-26.13 14.37-44.423 16.983-32.66 3.917 11.757-13.066 44.421-37.892 58.792-60.099 14.371-22.21 57.484-69.245 79.695-86.226 22.211-16.984 81.004-65.325 87.535-73.165 6.531-7.84 23.07-33.464 15.677-57.483-4.896-15.922-21.282-35.293-45.915-34.42Zm-139.645 99.95c1.414.195 34.942 5.336 58.915 53.277a6.005 6.005 0 0 1-5.365 8.688 6.006 6.006 0 0 1-5.37-3.32c-10.988-21.974-23.98-33.52-32.95-39.34-9.652-6.262-16.843-7.415-16.913-7.43-3.257-.492-5.527-3.529-5.055-6.794a5.982 5.982 0 0 1 6.738-5.082zm-18.483 18.489c1.414.195 34.94 5.335 58.913 53.276a6.005 6.005 0 0 1-5.363 8.688c-2.2 0-4.32-1.22-5.371-3.32-10.988-21.974-23.98-33.52-32.95-39.34-9.652-6.262-16.844-7.415-16.914-7.43-3.258-.496-5.526-3.531-5.053-6.793.472-3.262 3.468-5.535 6.738-5.081zm-18.49 18.479c1.415.195 34.942 5.332 58.915 53.273a6.005 6.005 0 0 1-5.364 8.688c-2.2 0-4.32-1.22-5.37-3.32-21.172-42.353-49.536-46.715-49.821-46.754a6 6 0 0 1-5.121-6.762 5.997 5.997 0 0 1 6.762-5.125zm173.202 65.92a5.967 5.967 0 0 1 2.373.124c1.504.382 37.015 10.086 56.972 64.91a6.003 6.003 0 0 1-5.636 8.055 6.013 6.013 0 0 1-5.64-3.95c-17.816-48.948-48.376-57.316-48.681-57.395a6 6 0 0 1-4.32-7.304 6.008 6.008 0 0 1 4.932-4.439zm-23.79 16.651a5.962 5.962 0 0 1 2.374.125c1.504.383 37.015 10.086 56.972 64.91a6.001 6.001 0 0 1-5.636 8.054 6.013 6.013 0 0 1-5.64-3.95c-17.816-48.948-48.376-57.314-48.681-57.393a5.999 5.999 0 0 1 .61-11.746zm-23.786 16.651a5.928 5.928 0 0 1 2.371.126c1.504.383 37.02 10.086 56.972 64.906a6.001 6.001 0 0 1-5.636 8.054 6.013 6.013 0 0 1-5.64-3.95c-17.816-48.944-48.376-57.31-48.681-57.394a5.994 5.994 0 0 1-4.32-7.3 6.015 6.015 0 0 1 4.934-4.442zm111.33 116.85a5.998 5.998 0 0 1 2.341.361c1.297.48 31.907 12.305 44.579 62.543a5.998 5.998 0 0 1-5.822 7.47 5.998 5.998 0 0 1-5.812-4.536c-11.02-43.688-36.078-53.824-37.141-54.234-3.078-1.184-4.64-4.637-3.476-7.723a5.987 5.987 0 0 1 5.33-3.882zm-21.086 17.556a5.982 5.982 0 0 1 2.353.364c1.297.48 31.906 12.31 44.578 62.543a5.998 5.998 0 1 1-11.632 2.934c-11.141-44.168-36.846-54.121-37.104-54.215a6.01 6.01 0 0 1-3.55-7.71 6.003 6.003 0 0 1 5.355-3.916zm-21.057 17.562a6 6 0 0 1 2.344.36c1.297.48 31.906 12.306 44.578 62.54a5.998 5.998 0 1 1-11.632 2.933c-11.02-43.684-36.079-53.82-37.142-54.23-3.074-1.188-4.641-4.637-3.477-7.723h.001a5.991 5.991 0 0 1 5.328-3.88zm-400.073-8.545h34.537v34.535h34.535v-34.535h34.535v34.535h25.902a25.902 25.902 0 0 1 25.901 25.903v25.901h34.537v34.535h-34.537v34.535h34.537v34.537h-34.537v25.901a25.9 25.9 0 0 1-25.901 25.902h-25.902v34.535h-34.535v-34.535h-34.535v34.535h-34.537v-34.535h-25.901a25.9 25.9 0 0 1-25.901-25.902v-25.901h-34.536v-34.537h34.536v-34.535h-34.536v-34.535h34.536v-25.901a25.9 25.9 0 0 1 25.9-25.903h25.902zm-17.267 69.071v138.143H657.3V477.399Zm479.949 55.334a5.99 5.99 0 0 1 2.354.365c1.023.379 25.148 9.694 35.039 48.905a5.992 5.992 0 0 1-4.348 7.286 5.994 5.994 0 0 1-7.286-4.352c-8.36-33.145-27.37-40.512-27.56-40.582a6 6 0 0 1 1.802-11.622zm-20.301 15.647a5.99 5.99 0 0 1 2.354.365c1.023.379 25.148 9.696 35.039 48.907a5.993 5.993 0 0 1-4.348 7.285 5.985 5.985 0 0 1-1.472.184 6.001 6.001 0 0 1-5.813-4.535c-8.359-33.145-27.371-40.512-27.562-40.582a6 6 0 0 1 1.802-11.624zm-425.113-36.445h69.072v69.071h-69.072zm404.813 52.093a5.984 5.984 0 0 1 2.352.366c1.024.379 25.148 9.695 35.04 48.905a5.996 5.996 0 0 1-5.82 7.47 6.001 6.001 0 0 1-5.813-4.536c-8.36-33.145-27.371-40.512-27.562-40.582a6.002 6.002 0 0 1-3.551-7.706 6.004 6.004 0 0 1 5.354-3.917z" style="fill:#e64539;fill-opacity:1"/></g></svg>