<svg viewBox="0 0 512 512" style="height:512px;width:512px" xmlns="http://www.w3.org/2000/svg"><defs><filter style="color-interpolation-filters:sRGB" id="a" x="-.031" y="-.03" width="1.061" height="1.06"><feFlood flood-opacity="1" flood-color="#3A3F5E" result="flood"/><feComposite in="flood" in2="SourceGraphic" operator="out" result="composite1"/><feGaussianBlur in="composite1" stdDeviation="15" result="blur"/><feOffset result="offset"/><feComposite in="offset" in2="SourceGraphic" operator="atop" result="composite2"/></filter></defs><path d="M.359-.21h512v512h-512Z" fill="#1b1f21"/><g transform="matrix(-.36343 0 0 .36343 474.064 37.94)" style="fill:#e64539;fill-opacity:1;filter:url(#a)"><path d="M119.48 432.42a36.21 36.21 0 0 0 28.496 8.691l253.9-32.602c.004-8.828-.07-17.652-.254-26.477-.266-12.82-6.031-24.953-15.812-33.289-9.852-8.394-22.87-12.18-35.73-10.39l-242.72 33.886c-.078 11.297-.07 22.63-.05 33.418.015 10.227 4.452 19.984 12.171 26.762z" style="fill:#e64539;fill-opacity:1"/><path d="M32.008 807.16a66.374 66.374 0 0 0 24.676 13.848v-20.219c0-28.836 19.551-54.117 47.543-61.484l270.61-71.215c2.95-13.965 5.684-27.953 8.14-41.926 11.423-64.98 17.704-131.32 18.759-197.8l-251.26 32.258c-15.918 2.04-31.945-2.848-43.984-13.422-11.961-10.504-18.832-25.633-18.86-41.516-.015-9.832-.027-20.117.032-30.434-9.406 3.437-16.543 11.652-18.273 21.996l-58.613 349.98c-3.754 22.406 4.183 44.816 21.23 59.938z" style="fill:#e64539;fill-opacity:1"/><path d="m378.38 737.91 119.28-35.027c66.895-19.641 113.61-81.82 113.61-151.21v-145.52c0-26.145-11.344-51.012-31.129-68.227-19.945-17.359-46.434-25.211-72.68-21.547l-111.2 15.523a61.71 61.71 0 0 1 2.309 1.863c14.059 11.977 22.34 29.418 22.723 47.852 1.73 83.191-4.645 166.61-18.941 247.95-6.375 36.262-14.43 72.625-23.977 108.35zm137.81-353.36c28.973 0 52.457 23.371 52.457 52.203 0 28.832-23.488 52.203-52.457 52.203-28.973 0-52.457-23.371-52.457-52.203 0-28.832 23.484-52.203 52.457-52.203zm24.37-86.82 5.418-.945 168.69-29.195c62.195-10.762 116.75-50.434 145.95-106.12l39.91-76.117c7.7-14.684 7.875-31.613.48-46.441-7.457-14.957-21.234-25.098-37.809-27.824C751.96-7.21 582.15-11.877 404.9 69.83c-93.39 43.047-176.45 104.18-246.87 181.7-25.922 28.535-42.664 63.105-48.922 100.61l395.63-55.23a111.278 111.278 0 0 1 35.82.828zm73.62 715.97c-149.18 26.359-296.21 68.523-436.99 125.32-10.992 4.434-22.469 6.648-33.922 6.648-.68 0-1.356-.039-2.031-.055 1.695 9.036 5.265 19.668 12.469 30.113.59.86 1.191 1.692 1.8 2.504 15.735 20.98 44.868 27.762 69.27 16.117 119.85-57.19 246.57-99.945 376.64-127.08 122.98-25.652 249.08-37.324 374.77-34.71 28.497.57 53.079-20.192 57.189-48.345l.496-3.402c-140.51-2.54-281.65 8.496-419.69 32.887z" style="fill:#e64539;fill-opacity:1"/><path d="M1089.1 225.45c-44.652-56.5-101.72-101.52-169.65-133.97-.473 1.008-.945 2.016-1.469 3.008l-39.91 76.117c-32.02 61.066-91.84 104.57-160.02 116.37l-141.18 24.438c5.7 3.383 11.137 7.258 16.211 11.676 24.078 20.953 37.891 51.227 37.891 83.066v145.52c0 38.574-12.27 75.297-35.477 106.2-23.199 30.883-55.105 52.977-92.266 63.887L100.4 840.052a86.81 86.81 0 0 1-24.492 3.539 85.308 85.308 0 0 1-23.53-3.317L41.63 854.52c-19.129 25.355-24.172 58.32-13.492 88.184l48.871 136.68c6.473 18.102 19.727 32.422 37.328 40.32 17.742 7.965 37.461 8.34 55.52 1.055 142.05-57.309 290.39-99.852 440.93-126.45 141.41-24.984 286.03-36.117 429.94-33.102 51.02-61.727 134.73-187.66 146.84-360.24 4.418-63.03 16.168-230.47-98.469-375.52zm-26.906 417.76c-42.312 63.324-118.44 152.13-240.8 215.62-113.07 58.664-221.57 73.152-301.11 73.152a639.23 639.23 0 0 1-33.027-.84 9.834 9.834 0 0 1-8.414-5.676 9.842 9.842 0 0 1 1.078-10.09c30.566-40.309 57.684-83.512 80.594-128.41a858.711 858.711 0 0 0 42.57-98.145c1.844-5.109 7.48-7.754 12.594-5.906 5.11 1.844 7.754 7.485 5.91 12.594a877.68 877.68 0 0 1-43.55 100.4c-20.603 40.371-44.528 79.406-71.25 116.26 78.116 1.66 189.33-10.508 305.54-70.8 118.66-61.56 192.48-147.68 233.51-209.09 3.015-4.516 9.124-5.731 13.64-2.716 4.52 3.02 5.735 9.13 2.719 13.645z" style="fill:#e64539;fill-opacity:1"/><path d="M76.355 800.79v23.078a66.99 66.99 0 0 0 18.473-2.7l261.37-76.75a1254.18 1254.18 0 0 0 13.887-54.741l-260.86 68.656c-19.359 5.094-32.875 22.55-32.875 42.457z" style="fill:#e64539;fill-opacity:1"/></g></svg>