<svg viewBox="0 0 512 512" style="height:512px;width:512px" xmlns="http://www.w3.org/2000/svg"><defs><filter style="color-interpolation-filters:sRGB" id="a" x="-.048" y="-.112" width="1.097" height="1.224"><feFlood flood-opacity="1" flood-color="#3A3F5E" result="flood"/><feComposite in="flood" in2="SourceGraphic" operator="out" result="composite1"/><feGaussianBlur in="composite1" stdDeviation="10" result="blur"/><feOffset result="offset"/><feComposite in="offset" in2="SourceGraphic" operator="atop" result="composite2"/></filter></defs><path d="M0 0h512v512H0z" fill="#1b1f21"/><g style="filter:url(#a)"><g style="fill:#e64539;fill-opacity:1;stroke:none;stroke-opacity:1"><path d="M653.094 450.8h202.521v170.93c0 8.508-6.887 15.395-15.395 15.395H653.08s.014-139.047.014-186.325zM855.62 649.99l-202.75.498-.13 51.526s5.066 4.86 9.757 4.86c7.5 0 14.293-4.403 17.363-11.259l11.184-24.96h164.59V649.99zm137.22 60.62c0 6.563-5.316 11.879-11.879 11.879h-123.7c-6.563 0-11.879-5.316-11.879-11.879v-18.66h147.46z" style="fill:#e64539;fill-opacity:1;stroke:none;stroke-opacity:1" transform="translate(-457.07 -138.482) scale(.71249)"/><path d="M796.88 697.62c9.215 0 16.703 7.523 16.703 16.754 0 9.203-7.488 16.691-16.703 16.691-9.191 0-16.668-7.488-16.668-16.691.012-9.23 7.488-16.754 16.668-16.754m0-18.098c-19.211 0-34.777 15.562-34.777 34.836 0 19.211 15.574 34.801 34.777 34.801 19.246 0 34.812-15.602 34.812-34.801.012-19.27-15.562-34.836-34.812-34.836z" style="fill:#e64539;fill-opacity:1;stroke:none;stroke-opacity:1" transform="translate(-457.07 -138.482) scale(.71249)"/><path d="M728.63 697.62c9.215 0 16.727 7.523 16.727 16.754 0 9.203-7.512 16.691-16.727 16.691-9.191 0-16.668-7.488-16.668-16.691 0-9.23 7.477-16.754 16.668-16.754m0-18.098c-19.211 0-34.754 15.562-34.754 34.836 0 19.211 15.551 34.801 34.754 34.801 19.273 0 34.824-15.602 34.824-34.801 0-19.27-15.555-34.836-34.824-34.836zm334.27 18.148c9.215 0 16.703 7.5 16.703 16.727s-7.488 16.703-16.703 16.703c-9.18 0-16.668-7.477-16.668-16.703 0-9.227 7.5-16.727 16.668-16.727m0-18.098c-19.211 0-34.777 15.562-34.777 34.812 0 19.211 15.574 34.801 34.777 34.801 19.246 0 34.812-15.602 34.812-34.801.012-19.246-15.551-34.812-34.812-34.812z" style="fill:#e64539;fill-opacity:1;stroke:none;stroke-opacity:1" transform="translate(-457.07 -138.482) scale(.71249)"/><path style="fill:#e64539;fill-opacity:1;stroke:none;stroke-opacity:1" d="m911.472 479.537-8.21.003c-2.629 0-4.777 1.958-5.101 4.548l-1.645 13.188c-1.957 16.234-2.966 17.194-2.966 33.526v148.862h114.771v34.726h13.594c0-27.48 17.063-46.68 41.509-46.68 24.469 0 41.555 19.2 41.555 46.68v2.941h13.964c11.664 0 21.085-11.315 21.085-21.085.01-9.762-.027-9.01-.027-16.736 0-3.607-2.773-17.542-5.677-31.258l-52.314-22.54 3.169-6.008 48.279 24.405c-2.98-13.865-5.973-27.026-5.973-27.026-1.402-8.183-84.313-21.623-84.313-21.623l-17.257-49.79h11.473l-1.38-3.84c-1.968-5.34-6.381-9.432-11.877-10.905-2.149-.59-3.887-1.067-3.887-1.118 0 0-2.954-7.802-6.36-15.302a16.225 16.225 0 0 0-5.787-6.793c-30.602-20.508-90.718-28.475-96.624-28.174zm49.105 66.364h52.6l16.271 48.144-60.952-8.868c-3.433-.492-6-3.335-6.203-6.792zm-13.926 32.388c1.223 0 2.259 1.028 2.259 2.267v55.513a2.273 2.273 0 0 1-2.259 2.259 2.273 2.273 0 0 1-2.28-2.259v-55.513a2.284 2.284 0 0 1 2.28-2.267zm148.824 89.532h24.926c3.707 0 6.74 3.025 6.74 6.744l.01 4.945h-8.149a22.323 22.323 0 0 1-12.939-4.14z" transform="translate(-457.07 -138.482) scale(.71249)"/></g><path style="fill:#e64539;fill-opacity:1;stroke:none;stroke-width:.737996px;stroke-linecap:butt;stroke-linejoin:miter;stroke-opacity:1" d="m328.602 278.262-12.748 24.87.251-.07 185.471 93.75 3.18.15zm-14.002 27.32-41.254 80.49 228.222 10.74z"/></g></svg>