<svg height="512" width="512" style="enable-background:new 0 0 512 512" xml:space="preserve" xmlns="http://www.w3.org/2000/svg"><defs><filter style="color-interpolation-filters:sRGB" id="a" x="-.078" y="-.077" width="1.156" height="1.153"><feFlood flood-opacity="1" flood-color="#3A3F5E" result="flood"/><feComposite in="flood" in2="SourceGraphic" operator="out" result="composite1"/><feGaussianBlur in="composite1" stdDeviation="15" result="blur"/><feOffset result="offset"/><feComposite in="offset" in2="SourceGraphic" operator="atop" result="composite2"/></filter></defs><path d="M0 0h512v512H0Z" fill="#b90202" style="fill:#1b1f21;fill-opacity:1"/><path d="m243.549 59.875-172.59 172.59c-60.564 60.563-60.548 159.112 0 219.66 51.918 51.919 136.362 51.919 188.28 0l188.28-188.28c51.919-51.918 51.919-136.362 0-188.28l-15.69-15.69c-51.918-51.919-136.362-51.919-188.28 0zm41.845 152.334a2111.011 2111.011 0 0 1-7.97 40.135c46.145-11.72 91.71-29.042 129.757-60.219l-69.491-69.49c-4.315-4.316-4.315-11.376 0-15.69 4.315-4.316 11.375-4.316 15.69 0l70.605 70.604c4.315-4.315 11.375-4.314 15.69 0 4.315 4.315 4.315 11.375 0 15.69-47.588 47.588-107.916 69.319-167.632 83.408-14.122 59.685-35.82 120.045-83.408 167.633-4.331 4.33-11.376 4.314-15.69 0-4.315-4.315-4.331-11.36 0-15.69 16.442-16.443 29.371-34.864 40.115-54.34-.279-.214-.608-.294-.89-.575l-31.38-31.38c-4.315-4.315-4.331-11.36 0-15.69 4.33-4.331 11.375-4.315 15.69 0l27.065 27.065c10.476-23.036 18.04-47.294 24.222-71.645a3152.812 3152.812 0 0 1-40.135 8.002c-44.462 8.446-83.876 16.133-110.627 31.242l52.405 52.405c4.314 4.315 4.33 11.36 0 15.69-4.331 4.33-11.376 4.315-15.69 0l-54.916-54.915c-4.33 4.33-11.375 4.315-15.69 0-4.314-4.315-4.33-11.36 0-15.69 29.435-29.435 80.836-39.225 140.332-50.553 16.318-3.106 33.152-6.387 50.017-10.14 3.723-16.895 6.998-33.725 10.14-50.017 11.325-59.494 21.119-110.897 50.553-140.332 4.315-4.315 11.375-4.315 15.69 0 4.315 4.315 4.315 11.375 0 15.69-18.518 18.518-28.304 50.46-36.558 88.963l28.713 28.712c4.315 4.315 4.315 11.376 0 15.69-4.315 4.315-11.375 4.315-15.69 0l-18.263-18.262c-.86 4.529-1.757 9.036-2.652 13.697z" style="fill:#e64539;fill-opacity:1;stroke-width:.44378;filter:url(#a)"/></svg>