<svg viewBox="0 0 512 512" style="height:512px;width:512px" xmlns="http://www.w3.org/2000/svg"><defs><filter style="color-interpolation-filters:sRGB" id="a" x="-.067" y="-.051" width="1.134" height="1.102"><feFlood flood-opacity="1" flood-color="#3A3F5E" result="flood"/><feComposite in="flood" in2="SourceGraphic" operator="out" result="composite1"/><feGaussianBlur in="composite1" stdDeviation="10" result="blur"/><feOffset result="offset"/><feComposite in="offset" in2="SourceGraphic" operator="atop" result="composite2"/></filter></defs><path d="M.359-.21h512v512h-512Z" fill="#1b1f21"/><path d="M145.394 449.559h96.78v41.477h-96.78zM76.266 235.261l60.141 48.39h105.767V159.22H76.266Zm193.56 48.39h105.766l60.141-48.39V159.22H269.825Zm0 207.385h96.779v-41.477h-96.78Zm-124.432-69.128h96.78V380.43h-96.78zm124.431 0h96.78V380.43h-96.78Zm-124.43-69.129h96.779v-41.477h-96.78zm124.43 0h96.78v-41.477h-96.78Zm-193.56 83.646c0 4.147 2.075 8.294 5.532 11.06l35.945 29.032v-172.13l-41.477-33.182Zm317.991 39.404 35.946-29.033c3.456-2.765 5.531-6.913 5.531-11.06V271.205l-41.477 33.183zm-26.96-454.865c-5.531 0-10.37 2.766-12.445 8.294-18.663 38.02-56.684 60.833-98.853 60.833-42.168 0-80.19-23.504-98.854-60.833-2.075-4.838-6.913-8.294-12.444-8.294h-22.12L76.267 67.279v64.29h359.468v-64.29L389.42 20.964Z" style="fill:#e64539;fill-opacity:1;stroke-width:.576069;filter:url(#a)"/></svg>