<svg height="512" width="512" style="enable-background:new 0 0 512 512" xml:space="preserve" xmlns="http://www.w3.org/2000/svg"><defs><filter style="color-interpolation-filters:sRGB" id="a" x="-.034" y="-.034" width="1.069" height="1.067"><feFlood flood-opacity="1" flood-color="#3A3F5E" result="flood"/><feComposite in="flood" in2="SourceGraphic" operator="out" result="composite1"/><feGaussianBlur in="composite1" stdDeviation="15" result="blur"/><feOffset result="offset"/><feComposite in="offset" in2="SourceGraphic" operator="atop" result="composite2"/></filter></defs><path d="M0 0h512v512H0Z" fill="#b90202" style="fill:#1b1f21;fill-opacity:1"/><g style="fill:#e64539;fill-opacity:1;filter:url(#a)"><path d="m249.72 536.4-40.797 61.922 85.68 65.758 48.238-70.559zm108.48 66.48-49.199 72.121 76.801 58.922 57.48-78.723zM146.52 473.16a30.67 30.67 0 0 0-15.961-4.559 29.641 29.641 0 0 0-7.32.84 30.843 30.843 0 0 0-23.488 34.89 30.865 30.865 0 0 0 11.488 19.47l83.402 64.198 39.719-60zm155.64 31.92 59.879-73.438-119.4-86.879-51.48 62.758zM177.6 396l50.398-61.922-90.84-66.121v.004a34.915 34.915 0 0 0-48 7.2 34.803 34.803 0 0 0 4.68 46.918zm277.56 243.6 70.559-88.801-149.16-108.6-60.84 74.762zM605.76 450l-172.8-138.72-59.52 76.918 164.04 147.72zM285.72 193.2l-54.48 66.84L360 376.08l58.922-76.078ZM184.2 111.72a39.356 39.356 0 0 0-54.43 4.5 39.354 39.354 0 0 0-9.77 27.781 39.112 39.112 0 0 0 13.078 28.2l84 76.32 53.88-66zM372 76.922a33.112 33.112 0 0 0-31.766-6.941 33.118 33.118 0 0 0-13.836 54.94l57.12 60.72 55.923-50.52zm80.64 69.718-57.359 51.84 108.96 115.68 66.363-66.359zm224.52 213.48 9.719-12.48-102.6-88.082-67.68 67.68 101.28 107.52zm238.2 78.96-37.32-28.922v.004a9 9 0 0 1 10.921-14.16l24 18.48-11.039-108-6.84-24-106.2-27.359v8.16h-.003a57.465 57.465 0 0 1-16.078 43.438l69.598 53.281c3.937 3.02 4.691 8.657 1.68 12.602a9.117 9.117 0 0 1-7.2 3.477 8.277 8.277 0 0 1-5.398-1.918l-72.961-56.281L732 336.003l188.4 152.28zm-26.04-177L860.64 160.2a39.241 39.241 0 0 0-25.402-27.066 39.233 39.233 0 0 0-36.594 6.21 39.24 39.24 0 0 0-15.043 33.939l3.96 62.64zM730.2 1003.7l267.24-267.36a47.975 47.975 0 0 1 15.84-10.199l-65.281-192-234.84-190.92-311.88 400.8zm5.64 19.7a27.841 27.841 0 0 0 0 39.36l22.082 22.082a27.831 27.831 0 0 0 19.738 8.207 27.83 27.83 0 0 0 19.738-8.207l67.199-67.078h.004a8.873 8.873 0 0 1 6.36-2.68 8.88 8.88 0 0 1 6.359 2.68 9.007 9.007 0 0 1 0 12.723l-41.762 41.762 67.8 67.797 223.44-223.44-67.8-67.801-117.72 117.6a9.002 9.002 0 0 1-12.723-12.719l143.04-143.04a27.97 27.97 0 0 0 8.156-19.742 27.96 27.96 0 0 0-8.156-19.738l-22.082-22.082a27.96 27.96 0 0 0-39.36 0z" style="fill:#e64539;fill-opacity:1" transform="translate(8.177 8.26) scale(.40997)"/></g></svg>