<svg height="512" width="512" style="enable-background:new 0 0 512 512" xml:space="preserve" xmlns="http://www.w3.org/2000/svg"><defs><filter style="color-interpolation-filters:sRGB" id="a" x="-.074" y="-.087" width="1.148" height="1.173"><feFlood flood-opacity="1" flood-color="#3A3F5E" result="flood"/><feComposite in="flood" in2="SourceGraphic" operator="out" result="composite1"/><feGaussianBlur in="composite1" stdDeviation="15" result="blur"/><feOffset result="offset"/><feComposite in="offset" in2="SourceGraphic" operator="atop" result="composite2"/></filter></defs><path d="M0 0h512v512H0Z" fill="#b90202" style="fill:#1b1f21;fill-opacity:1"/><path d="M256 393.693c19.438 0 35.637 12.42 41.037 29.698l201.95 40.498-133.914-147.413c-3.779 1.081-7.558 1.62-11.878 1.62-23.76 0-43.198-19.438-43.198-43.197 0-11.879 4.86-22.678 12.96-30.778L256 48.111l-66.957 196.01c8.1 8.1 12.96 18.9 12.96 30.778 0 23.76-19.439 43.198-43.198 43.198-4.32 0-8.1-.54-11.878-1.62L13.013 463.888l201.95-40.498c5.4-17.278 21.6-29.698 41.038-29.698zm0-97.196c15.12 0 26.998 11.879 26.998 26.999s-11.879 26.999-26.999 26.999-26.999-11.879-26.999-27c0-15.12 11.879-26.998 27-26.998z" style="fill:#e64539;fill-opacity:1;stroke-width:.449977;filter:url(#a)"/></svg>