<svg viewBox="0 0 512 512" style="height:512px;width:512px" xmlns="http://www.w3.org/2000/svg"><defs><filter style="color-interpolation-filters:sRGB" id="a" x="-.032" y="-.032" width="1.064" height="1.064"><feFlood flood-opacity="1" flood-color="#3A3F5E" result="flood"/><feComposite in="flood" in2="SourceGraphic" operator="out" result="composite1"/><feGaussianBlur in="composite1" stdDeviation="15" result="blur"/><feOffset result="offset"/><feComposite in="offset" in2="SourceGraphic" operator="atop" result="composite2"/></filter></defs><path d="M0 0h512v512H0z" fill="#1b1f21"/><g transform="translate(17.932 17.932) scale(.39678)" style="fill:#e64539;fill-opacity:1;filter:url(#a)"><path d="m1140 417.89-500-55.555v517.66h500zM940 780a60.002 60.002 0 0 1-90 51.961A60.002 60.002 0 0 1 820 780V680a60.002 60.002 0 0 1 90-51.961A60.002 60.002 0 0 1 940 680zm160 0a60.002 60.002 0 0 1-90 51.961A60.002 60.002 0 0 1 980 780V680a60.002 60.002 0 0 1 90-51.961A60.002 60.002 0 0 1 1100 680zM560 80h40.02L600 40H80v40z" style="fill:#e64539;fill-opacity:1"/><path d="M1040 660a20.022 20.022 0 0 0-14.133 5.867A20.021 20.021 0 0 0 1020 680v100a20.003 20.003 0 0 0 10 17.32 19.993 19.993 0 0 0 20 0 20.004 20.004 0 0 0 10-17.32V680a20.03 20.03 0 0 0-20-20zm100-306.3a39.944 39.944 0 0 0-10.184-26.688 39.92 39.92 0 0 0-25.402-13.059l-464.41-51.613v59.762l500 55.555zM1020 220a20.03 20.03 0 0 0-20-20H780a20.022 20.022 0 0 0-14.133 5.867A20.021 20.021 0 0 0 760 220v15.438l260 28.891zm-460-60v-40H120v40zm320 500a20.022 20.022 0 0 0-14.133 5.867A20.021 20.021 0 0 0 860 680v100a20.003 20.003 0 0 0 10 17.32 19.993 19.993 0 0 0 20 0A20.004 20.004 0 0 0 900 780V680a20.022 20.022 0 0 0-5.867-14.133A20.021 20.021 0 0 0 880 660zM280 360h120v440H280ZM80 1160h1040a40.043 40.043 0 0 0 28.273-11.727A40.046 40.046 0 0 0 1160 1120H40a40.042 40.042 0 0 0 40 40zm60-360h100V360a39.865 39.865 0 0 1 20-34.438v-125.56H100a20.022 20.022 0 0 0-14.133 5.867A20.021 20.021 0 0 0 80 220.002v631.72l45.859-45.859a20 20 0 0 1 14.14-5.86zm160-600h80v120h-80zm320 720H40v160h1120V920Zm-471.72-80-40 40h463.44l-40-40zM600 240v-20a20.022 20.022 0 0 0-5.867-14.133A20.021 20.021 0 0 0 580 200H420v125.56a39.865 39.865 0 0 1 20 34.438v440h100a20 20 0 0 1 14.14 5.86L600 851.715z" style="fill:#e64539;fill-opacity:1"/></g></svg>