<svg width="512" height="512" version="1.1" id="svg8" xml:space="preserve" xmlns="http://www.w3.org/2000/svg"><defs id="defs12"><filter style="color-interpolation-filters:sRGB" id="filter875" x="-.313" y="-.169" width="1.609" height="1.328"><feFlood flood-opacity="1" flood-color="#3A3F5E" result="flood" id="feFlood865"/><feComposite in="flood" in2="SourceGraphic" operator="out" result="composite1" id="feComposite867"/><feGaussianBlur in="composite1" stdDeviation="15" result="blur" id="feGaussianBlur869"/><feOffset dx="0" dy="0" result="offset" id="feOffset871"/><feComposite in="offset" in2="SourceGraphic" operator="atop" result="composite2" id="feComposite873"/></filter><filter style="color-interpolation-filters:sRGB" id="filter1015" x="-.082" y="-.044" width="1.164" height="1.088"><feFlood flood-opacity="1" flood-color="#3A3F5E" result="flood" id="feFlood1005"/><feComposite in="flood" in2="SourceGraphic" operator="out" result="composite1" id="feComposite1007"/><feGaussianBlur in="composite1" stdDeviation="8.302" result="blur" id="feGaussianBlur1009"/><feOffset dx="0" dy="0" result="offset" id="feOffset1011"/><feComposite in="offset" in2="SourceGraphic" operator="atop" result="composite2" id="feComposite1013"/></filter><filter style="color-interpolation-filters:sRGB" id="filter35638" x="-.057" y="-.131" width="1.114" height="1.261"><feFlood flood-opacity="1" flood-color="#3A3F5E" result="flood" id="feFlood35628"/><feComposite in="flood" in2="SourceGraphic" operator="out" result="composite1" id="feComposite35630"/><feGaussianBlur in="composite1" stdDeviation="6" result="blur" id="feGaussianBlur35632"/><feOffset dx="0" dy="0" result="offset" id="feOffset35634"/><feComposite in="offset" in2="SourceGraphic" operator="atop" result="composite2" id="feComposite35636"/></filter><filter style="color-interpolation-filters:sRGB" id="filter35813" x="-.053" y="-.07" width="1.107" height="1.139"><feFlood flood-opacity="1" flood-color="#3A3F5E" result="flood" id="feFlood35803"/><feComposite in="flood" in2="SourceGraphic" operator="out" result="composite1" id="feComposite35805"/><feGaussianBlur in="composite1" stdDeviation="8" result="blur" id="feGaussianBlur35807"/><feOffset dx="0" dy="0" result="offset" id="feOffset35809"/><feComposite in="offset" in2="SourceGraphic" operator="atop" result="composite2" id="feComposite35811"/></filter><filter style="color-interpolation-filters:sRGB" id="filter36051" x="-.028" y="-.039" width="1.056" height="1.078"><feFlood flood-opacity="1" flood-color="#3A3F5E" result="flood" id="feFlood36041"/><feComposite in="flood" in2="SourceGraphic" operator="out" result="composite1" id="feComposite36043"/><feGaussianBlur in="composite1" stdDeviation="6" result="blur" id="feGaussianBlur36045"/><feOffset dx="0" dy="0" result="offset" id="feOffset36047"/><feComposite in="offset" in2="SourceGraphic" operator="atop" result="composite2" id="feComposite36049"/></filter><filter style="color-interpolation-filters:sRGB" id="filter36715" x="-.07" y="-.091" width="1.139" height="1.182"><feFlood flood-opacity="1" flood-color="#3A3F5E" result="flood" id="feFlood36705"/><feComposite in="flood" in2="SourceGraphic" operator="out" result="composite1" id="feComposite36707"/><feGaussianBlur in="composite1" stdDeviation="16.201" result="blur" id="feGaussianBlur36709"/><feOffset dx="0" dy="0" result="offset" id="feOffset36711"/><feComposite in="offset" in2="SourceGraphic" operator="atop" result="composite2" id="feComposite36713"/></filter><filter style="color-interpolation-filters:sRGB" id="filter37057" x="-.08" y="-.075" width="1.16" height="1.15"><feFlood flood-opacity="1" flood-color="#3A3F5E" result="flood" id="feFlood37047"/><feComposite in="flood" in2="SourceGraphic" operator="out" result="composite1" id="feComposite37049"/><feGaussianBlur in="composite1" stdDeviation=".5" result="blur" id="feGaussianBlur37051"/><feOffset dx="0" dy="0" result="offset" id="feOffset37053"/><feComposite in="offset" in2="SourceGraphic" operator="atop" result="composite2" id="feComposite37055"/></filter></defs><path d="M0 0h512v512H0z" fill="#b90202" fill-opacity="1" id="path2" style="fill:#1b1f21;fill-opacity:1"/><style type="text/css" id="style35976">.st0{fill:#000}</style><g style="fill:#e64539;fill-opacity:1;filter:url(#filter37057)" id="g36830" transform="translate(17.068 17.068) scale(29.86656)"><path id="path36821" style="fill:#e64539;fill-opacity:1" d="M7.982-.06c-.097 0-.195.007-.293.019-1.197.257-2.123 1.171-3.2 1.714-1.12.74-2.367 1.311-3.409 2.157C.062 4.874.546 6.44.434 7.736c.088 1.228-.194 2.512.171 3.703.53 1.244 1.99 1.598 2.996 2.35 1.275.702 2.447 1.623 3.786 2.191 1.383.409 2.487-.759 3.61-1.342 1.29-.846 2.711-1.516 3.923-2.468 1.018-1.044.534-2.61.646-3.906-.088-1.228.194-2.512-.171-3.703-.53-1.244-1.99-1.598-2.996-2.35-1.273-.702-2.444-1.62-3.78-2.19a2.396 2.396 0 0 0-.637-.081zm.054 2.491c.057 0 .113.026.156.077 0 0 1.557 1.849 3.038 1.849.164 0 .511.01.511.01.133.005.222.117.222.25v4.728c0 .133.01.35 0 .482 0 0 .005.17-.059.37-.063.197-.154.39-.266.577-.126.21-.28.414-.45.608-.12.135-.247.266-.38.393-.264.25-.55.48-.834.687-.544.398-1.033.712-1.385.911-.142.08-.348.196-.551.196-.204 0-.41-.12-.552-.198a12.721 12.721 0 0 1-1.694-1.125 6.766 6.766 0 0 1-1.034-.98 3.402 3.402 0 0 1-.569-.927 2.386 2.386 0 0 1-.123-.499 5.61 5.61 0 0 1-.034-.482V4.607c0-.133.117-.244.25-.245 0 0 .37-.005.53-.005 1.48 0 3.068-1.85 3.068-1.85.044-.05.1-.076.156-.076zm.002 3.848L7.47 7.394l-1.236.195.885.885-.196 1.236 1.115-.569 1.114.568-.196-1.235.885-.885-1.236-.195-.567-1.115z"/></g></svg>