<svg viewBox="0 0 512 512" style="height:512px;width:512px" xmlns="http://www.w3.org/2000/svg"><defs><filter style="color-interpolation-filters:sRGB" id="a" x="-.076" y="-.097" width="1.153" height="1.195"><feFlood flood-opacity="1" flood-color="#3A3F5E" result="flood"/><feComposite in="flood" in2="SourceGraphic" operator="out" result="composite1"/><feGaussianBlur in="composite1" stdDeviation="15" result="blur"/><feOffset result="offset"/><feComposite in="offset" in2="SourceGraphic" operator="atop" result="composite2"/></filter></defs><path d="M0 0h512v512H0z" fill="#1b1f21"/><path d="M381.735 142.617c-7.878 13.646-3.2 31.064 10.446 38.943 13.627 7.867 31.056 3.213 38.934-10.433 7.879-13.646 3.208-31.076-10.425-38.948-13.644-7.877-31.076-3.208-38.955 10.438zm99.825 55.1c-.35.64-.699 1.283-1.063 1.915l1.095-1.897zm-214.018 190.8c-3.895-2.248-8.888-.91-11.137 2.985-2.248 3.894-.91 8.888 2.984 11.136 3.895 2.249 8.888.91 11.137-2.984 2.248-3.894.91-8.888-2.984-11.136zm153.147-256.336c13.627 7.868 18.304 25.302 10.425 38.948-7.878 13.646-25.302 18.303-38.935 10.432-13.646-7.878-18.324-25.296-10.445-38.942 7.878-13.646 25.31-18.316 38.955-10.438zM20.468 91.23l19.511 72.83a12.441 12.441 0 0 0 3.173 5.555 13.649 13.649 0 0 0 3.795 3.262l66.715 38.516.007-.013c.061.035.1.08.161.116a29.976 29.976 0 0 0 5.857 2.58l24.395 37.423 11.167 53.66 50.137 76.92-20.975-101.354-54.963-84.32a11.103 11.103 0 0 1-6.322-1.49c-5.401-3.118-7.256-10.032-4.136-15.435 3.12-5.405 10.032-7.256 15.435-4.136 5.405 3.12 7.256 10.032 4.136 15.435-.33.57-.713 1.094-1.125 1.593l55.353 84.894 25.925 125.237.118.192c2.159 12.937 9.872 24.818 22.111 31.885 21.733 12.547 49.51 5.103 62.057-16.629a45.493 45.493 0 0 0 5.433-14.934l75.833-36.73 76.274-132.11a94.996 94.996 0 0 1-48.778 16.897l-36.643 63.468-.013-.007-82.891 40.158-15.746 27.273c6.123 5.86 7.74 15.358 3.312 23.028-5.197 9.001-16.735 12.093-25.736 6.896-9.001-5.197-12.093-16.735-6.896-25.736 4.428-7.67 13.445-11.029 21.599-8.646l82.963-143.692a93.403 93.403 0 0 1-23.288-23.795c-20.474 6.086-41.128 22.83-55.12 47.064-14.846 25.716-18.65 53.69-12.221 74.998l-5.293 9.167-97.284-149.217c2.914-12.642-2.571-26.2-14.38-33.018-8.475-4.892-18.305-5.194-26.693-1.748l-25.254-14.58c.307-3.88-1.571-7.762-5.15-9.828-4.971-2.87-11.328-1.166-14.198 3.804-2.87 4.971-1.167 11.329 3.804 14.199 3.583 2.068 7.89 1.733 11.086-.454l21.132 12.2c-2.346 2.106-4.443 4.594-6.11 7.482a29.178 29.178 0 0 0-1.26 2.464l-39.25-22.662-17.485-65.186c-1.794-6.698-8.692-10.68-15.388-8.885-6.697 1.794-10.68 8.692-8.892 15.401zm28.254 66.78a5.897 5.897 0 0 1 8.061-2.161 5.897 5.897 0 0 1 2.16 8.062c-1.622 2.81-5.223 3.776-8.051 2.143-2.829-1.633-3.793-5.235-2.17-8.045zM32.026 99.947a11.948 11.948 0 0 0 7.081-1.924l13.188 49.27a13.804 13.804 0 0 0-6.845 2.758zm360.157 81.607c-13.646-7.879-18.324-25.296-10.446-38.942 7.879-13.646 25.31-18.317 38.955-10.438 13.628 7.867 18.304 25.301 10.426 38.947-7.883 13.644-25.306 18.302-38.935 10.433zm87.11 20.08.032.018 1.168-2.024c.365-.632.713-1.275 1.063-1.915 22.103-40.603 7.912-91.667-32.356-114.915-40.92-23.625-93.226-9.598-116.842 31.307-23.617 40.905-9.61 93.219 31.307 116.843l-63.508 110 68.634-33.251 37.702-65.302c28.772-.038 56.755-14.61 72.803-40.767zM438.83 175.58c-10.32 17.874-33.245 24.003-51.102 13.693-17.874-10.32-24.03-33.239-13.711-51.112 10.32-17.874 33.245-24.002 51.12-13.682 17.857 10.305 24.014 33.224 13.693 51.101z" style="fill:#e64539;fill-opacity:1;stroke-width:.422474;filter:url(#a)"/></svg>