<svg height="512" width="512" style="enable-background:new 0 0 512 512" xml:space="preserve" xmlns="http://www.w3.org/2000/svg"><defs><filter style="color-interpolation-filters:sRGB" id="a" x="-.095" y="-.033" width="1.191" height="1.067"><feFlood flood-opacity="1" flood-color="#3A3F5E" result="flood"/><feComposite in="flood" in2="SourceGraphic" operator="out" result="composite1"/><feGaussianBlur in="composite1" stdDeviation="15" result="blur"/><feOffset result="offset"/><feComposite in="offset" in2="SourceGraphic" operator="atop" result="composite2"/></filter></defs><path d="M0 0h512v512H0Z" fill="#b90202" style="fill:#1b1f21;fill-opacity:1"/><g style="fill:#e64539;fill-opacity:1;filter:url(#a)"><path d="M416.25 162.38v112.31c-6.316-.336-12.242-4.434-18.75-3.746l-74.625-.004c-6.781-.695-12.484 3.418-18.75 3.75V162.38c5.484 3.137 91.492.816 99.562 1.5a54.878 54.878 0 0 0 12.562-1.5zm-112.13-19.5a140.745 140.745 0 0 0 37.5 2.25h62.062a37.833 37.833 0 0 0 26.418-11.082 37.833 37.833 0 0 0 11.082-26.418V79.88a37.596 37.596 0 0 0-11.016-26.484 37.604 37.604 0 0 0-26.484-11.016h-87a37.596 37.596 0 0 0-26.484 11.016 37.604 37.604 0 0 0-11.016 26.484v27.75a37.626 37.626 0 0 0 24.937 35.25zm163.5 183.18c-16.812-8.813-44.359-25.211-60.938-33.938-2.477-5-78.363-1.398-83.812-2.438-6.262-.699-13.48 5.313-18.75 7.688-11.641 6.043-39.457 22.406-51.375 28.688a141.834 141.834 0 0 0-70.312 124.5v594.94a77.285 77.285 0 0 0 20.906 55.148A77.306 77.306 0 0 0 257.058 1125h206.06a77.342 77.342 0 0 0 53.832-24.293 77.339 77.339 0 0 0 20.98-55.207V450.56a141.866 141.866 0 0 0-18.32-71.758 141.863 141.863 0 0 0-51.992-52.742zM238.68 838.5a18.792 18.792 0 0 1 11.312-13.328 18.793 18.793 0 1 1-8.215 28.426 18.813 18.813 0 0 1-3.097-15.098zm18.375-34.312a18.565 18.565 0 0 1-11.898-4.18 18.584 18.584 0 0 1-6.477-10.82v-213.38a18.582 18.582 0 0 1 6.477-10.82 18.566 18.566 0 0 1 11.898-4.18 18.812 18.812 0 0 1 13.242 5.508 18.812 18.812 0 0 1 5.508 13.242v205.88a18.812 18.812 0 0 1-5.508 13.242 18.812 18.812 0 0 1-13.242 5.508zM238.5 274.69h46.875v-82.688H238.5c-50.191-.215-50.223 82.777 0 82.688zM472.12 192h-37.125c.008 22.43-.004 60.262 0 82.688h36.938a75.443 75.443 0 0 1-12.238-41.371 75.449 75.449 0 0 1 12.426-41.316zm47.26-14.62c-19.863.246-23.113 10.984-32.977 28.23a56.065 56.065 0 0 0 .004 55.664c9.86 17.246 13.109 27.984 32.973 28.23 19.867-.246 23.117-10.984 32.977-28.23a56.075 56.075 0 0 0 0-55.664c-9.863-17.246-13.113-27.984-32.977-28.23z" style="fill:#e64539;fill-opacity:1" transform="rotate(45 294.876 373.23) scale(.51223)"/></g></svg>