<svg height="512" width="512" style="enable-background:new 0 0 512 512" xml:space="preserve" xmlns="http://www.w3.org/2000/svg"><defs><filter style="color-interpolation-filters:sRGB" id="a" x="-.05" y="-.07" width="1.101" height="1.14"><feFlood flood-opacity="1" flood-color="#3A3F5E" result="flood"/><feComposite in="flood" in2="SourceGraphic" operator="out" result="composite1"/><feGaussianBlur in="composite1" stdDeviation="10" result="blur"/><feOffset result="offset"/><feComposite in="offset" in2="SourceGraphic" operator="atop" result="composite2"/></filter></defs><path d="M0 0h512v512H0Z" fill="#b90202" style="fill:#1b1f21;fill-opacity:1"/><path style="fill:#e64539;fill-opacity:1;stroke-width:.437639;filter:url(#a)" d="M256.054 85.135c-2.819 0-5.625.095-8.43.227l8.544 20.493 8.384-20.484c-2.818-.141-5.65-.236-8.498-.236zm-22.657 1.477c-26.664 3.451-52.396 13.01-76.343 28.151h88.078zm45.311.027-11.775 28.792h88.493c-23.75-15.25-49.581-25.208-76.718-28.792Zm-132.73 45.954 49.925 120.376 49.249-120.376zm121.274.671 49.875 119.16 49.2-119.16zm-132.414 7.987L85.646 262.575h99.505Zm242.83.181-50.014 121.145h100.485zm-121.605.383-49.402 120.768h99.954zm-137.628 3.78c-11.083 10.885-21.566 23.164-31.357 36.77v-.002c-9.212 12.816-17.575 26.525-25.057 40.97l12.616 30.28zm276.53 1.932 43.378 104.122 11.398-27.85c-15.2-29.355-33.717-55.135-54.777-76.272Zm-340.909 92.09c-20.527 45-32.91 96.273-36.112 150.227L67.3 271.4Zm403.652.585-12.825 31.352 49.173 118.036c-3.452-54.597-16.324-105.466-36.348-149.388Zm-252.087 40.193 50.397 119.866 49.49-119.866zm-121.488.007 50.66 119.92 49.737-119.92zm242.962 0 50.143 119.804 49.239-119.804zm110.418 8.876-49.22 119.773h99.126zm-121.212.612-49.2 119.16h99.074zm-121.23.604L145.898 409.05h99.029zm-121.217.603L24.706 409.042h98.973ZM24.607 426.865h99.322z"/></svg>