<svg height="512" width="512" style="enable-background:new 0 0 512 512" xml:space="preserve" xmlns="http://www.w3.org/2000/svg"><defs><filter style="color-interpolation-filters:sRGB" id="a" x="-.029" y="-.02" width="1.058" height="1.04"><feFlood flood-opacity="1" flood-color="#3A3F5E" result="flood"/><feComposite in="flood" in2="SourceGraphic" operator="out" result="composite1"/><feGaussianBlur in="composite1" stdDeviation="10" result="blur"/><feOffset result="offset"/><feComposite in="offset" in2="SourceGraphic" operator="atop" result="composite2"/></filter></defs><path d="M0 0h512v512H0Z" fill="#b90202" style="fill:#1b1f21;fill-opacity:1"/><g transform="translate(23.483 23.531) scale(.38745)" style="fill:#e64539;fill-opacity:1;filter:url(#a)"><path d="M537.93 455.17H186.21v662.07c0 22.816 18.562 41.379 41.379 41.379h138.62c-84.492-68.328-138.62-172.78-138.62-289.66 0-205.35 167.06-372.41 372.41-372.41 205.35 0 372.41 167.06 372.41 372.41 0 116.88-54.133 221.33-138.62 289.66h138.62c22.816 0 41.379-18.562 41.379-41.379V455.17Z" style="fill:#e64539;fill-opacity:1"/><path d="m537.96 868.96-.027-124.14h-41.38v124.14h41.38zM972.41 0H227.58c-22.816 0-41.379 18.562-41.379 41.379h827.59C1013.791 18.563 995.229 0 972.412 0Zm-393.1 993.1v41.379h41.406l-.023-41.379Z" style="fill:#e64539;fill-opacity:1"/><path d="M600 620.69c-136.9 0-248.28 111.38-248.28 248.28S463.1 1117.25 600 1117.25s248.28-111.38 248.28-248.28S736.9 620.69 600 620.69ZM455.17 868.96V744.82c0-22.816 18.562-41.379 41.379-41.379h41.379c22.816 0 41.379 18.562 41.379 41.379v124.14c0 22.816-18.562 41.379-41.379 41.379h-41.379c-22.816 0-41.379-18.562-41.379-41.379zm206.9 165.52c0 22.816-18.562 41.379-41.379 41.379h-41.379c-22.816 0-41.379-18.562-41.379-41.379v-41.379c0-22.816 18.562-41.379 41.379-41.379h41.379c22.816 0 41.379 18.562 41.379 41.379zm82.758-165.52c0 22.816-18.562 41.379-41.379 41.379H662.07c-22.816 0-41.379-18.562-41.379-41.379V744.82c0-22.816 18.562-41.379 41.379-41.379h41.379c22.816 0 41.379 18.562 41.379 41.379zm268.568-786.401L186.2 82.75v331.04l827.85.387zm-613.21 35.926 1.456 29.518 25.29-9.607-12.793 27.225 25.272 20.817-27.591 2.793-7.4 40.24-9.048-28.134-21.94 15.82 4.18-23.288-16.464 3.6 13.862-18.793-19.757-27.687 27.377 4.451zm129.718 48.766 25.842 5.123-7.77 39.208 137.583 27.268 7.773-39.206 25.846 5.12-7.77 39.212 30.31 6.003-4.221 21.287 8.556 1.693-8.275 41.76-8.555-1.694L725 334.308l-24.52-4.86 5.945-29.984-5.786-1.149c-4.571 23.068-9.142 46.136-13.714 69.2l-25.846-5.12 7.77-39.218-131.798-26.12 5.943-29.984-5.787-1.148c-4.57 23.068-9.143 46.133-13.713 69.199l-25.846-5.121 7.77-39.217-30.305-6.01h-.003l4.217-21.279-8.558-1.698 2.72-13.708-27.837-2.14c-18.7-2.576-28.835-13.814-33.762-28.248l4.418-24.012 6.349-.64c.344 17.078 4.927 35.362 24.685 38.274l29.032 2.219 2.673-13.5 8.556 1.693 4.222-21.282 30.303 6.005zm-32.085 2.936 24.517 4.856-4.74 23.93-24.52-4.86 1.274-6.42-8.559-1.696 2.202-11.089 8.552 1.695zm61.943 12.274 126.007 24.976-4.742 23.925-126.007-24.973zm163.434 32.39 24.517 4.857-1.272 6.421 8.556 1.694-2.2 11.092-8.552-1.697-1.274 6.42-24.517-4.861zm-249.345 76.27 24.518 4.857-4.74 23.93-24.52-4.861 1.274-6.418-8.558-1.697 2.202-11.09 8.55 1.696zm61.943 12.275 126.009 24.977-4.744 23.925-126.005-24.974zm163.432 32.393 24.518 4.856-1.272 6.42 8.555 1.694-2.199 11.092-8.552-1.695-1.274 6.417-24.523-4.859z" style="fill:#e64539;fill-opacity:1"/><path d="M662.07 744.83v124.14h41.406l-.027-124.14Z" style="fill:#e64539;fill-opacity:1"/><path d="M931.04 868.96c0-182.53-148.5-331.04-331.04-331.04-182.54 0-331.04 148.5-331.04 331.04C268.96 1051.5 417.46 1200 600 1200c182.54 0 331.04-148.5 331.04-331.04zM600 1158.62c-159.71 0-289.66-129.94-289.66-289.66 0-159.71 129.94-289.66 289.66-289.66 159.71 0 289.66 129.94 289.66 289.66 0 159.72-129.94 289.66-289.66 289.66z" style="fill:#e64539;fill-opacity:1"/></g></svg>