<svg viewBox="0 0 512 512" style="height:512px;width:512px" xmlns="http://www.w3.org/2000/svg"><defs><filter style="color-interpolation-filters:sRGB" id="a" x="-.05" y="-.173" width="1.099" height="1.345"><feFlood flood-opacity="1" flood-color="#3A3F5E" result="flood"/><feComposite in="flood" in2="SourceGraphic" operator="out" result="composite1"/><feGaussianBlur in="composite1" stdDeviation="10" result="blur"/><feOffset result="offset"/><feComposite in="offset" in2="SourceGraphic" operator="atop" result="composite2"/></filter></defs><path d="M.359-.21h512v512h-512Z" fill="#1b1f21"/><g style="fill:#e64539;fill-opacity:1;filter:url(#a)"><path style="fill:#e64539;stroke-width:.423897;fill-opacity:1" d="M235.016 184.615c-9.167-.172-44.975 1.412-44.975 1.412l-150.844 37.66-10.974 3.016 2.056 7.768s.598.317.881.42c-.6 2.159-1.547 3.766-2.623 5.447-1.485 2.32-2.988 4.443-4.344 6.142-.919 1.148-1.81 2.157-2.937 3.432-.63.71-1.33 1.509-2.115 2.416-3.41 1.723-2.975 8.678-2.975 8.678l1.697 5.408-.064 3.73-.983 3.96s-.758 1.569-1.293 2.16c-.856.937-1.373 5.632-1.373 5.632l1.483 3.606s2.357 5.115 3.031 6.662c.422.97.746 1.716 1.041 2.318.927 1.903 1.73 2.697 3.574 3.54 1.332.609 3.418 1.359 6.575 2.359 2.425.77 4.324 1.316 6.277 1.662.894.157 1.896.299 2.894.299.992 0 1.975-.155 2.846-.549.427.07.878.14 1.387.21 1.513.211 3.507.449 5.986.747 1.982.237 4.273.512 6.881.838l4.525.576c5.458.699 12.93 1.656 26.41 3.264l4.17.908a39.22 39.22 0 0 1-3.457-13.856c-.013-.085-.058-.158-.062-.246-.005-.09.033-.169.037-.257-.032-.653-.098-1.295-.098-1.956 0-9.387 3.309-18.007 8.805-24.785.03-.045.04-.102.074-.144.024-.027.06-.04.082-.067.385-.468.81-.9 1.217-1.35.026-.045.034-.097.065-.142.112-.155.262-.26.404-.375a39.579 39.579 0 0 1 12.29-8.902c.108-.053.198-.136.315-.174.021-.008.044-.004.067-.008a36.573 36.573 0 0 1 1.693-.713c.053-.027.09-.07.147-.094.07-.026.14-.018.21-.037 4.373-1.677 9.101-2.636 14.057-2.636 4.959 0 9.685.96 14.06 2.636.07.023.143.01.21.037.056.022.093.067.146.094a38.43 38.43 0 0 1 1.697.713c.022.008.04 0 .063.008.115.037.201.12.309.174a39.546 39.546 0 0 1 12.287 8.894c.144.118.299.225.414.383.032.046.036.1.066.145.404.449.826.877 1.211 1.345.027.027.063.038.086.069.035.045.048.102.078.15 5.494 6.777 8.8 15.395 8.797 24.78 0 .657-.07 1.299-.1 1.949.008.09.043.172.04.263-.006.092-.05.165-.065.25a39.123 39.123 0 0 1-4.926 16.772h6.617c34.18-.189 58.85-.227 79.999-.129 9.998.046 18.395.115 26.027.182 6.1.05 11.713.1 17.262.127 4.831.023 9.617.032 14.242.039 7.328.013 14.251.024 20.33.095 7 .083 12.863.247 17.57.377 1.95.053 3.692.102 5.219.135a282 282 0 0 0 6.326.078c1.303 0 2.34-.011 3.229-.021l.562-.006c1.83-.02 3.692-.06 4.598-1.252 1.558-.091 3.6-.17 5.498-.252a39.133 39.133 0 0 1-4.912-16.746c-.014-.086-.057-.158-.06-.246-.006-.091.032-.168.036-.256-.032-.653-.098-1.295-.098-1.955 0-9.388 3.307-18.008 8.803-24.785.03-.046.042-.102.076-.145.024-.027.06-.04.082-.066.386-.468.81-.903 1.217-1.352.026-.045.034-.095.065-.14.112-.156.262-.26.404-.376a39.585 39.585 0 0 1 12.291-8.904c.107-.053.197-.136.314-.174.021-.008.044-.004.067-.008a36.537 36.537 0 0 1 1.693-.71c.054-.028.09-.072.147-.094.07-.027.14-.02.21-.04 4.373-1.676 9.101-2.636 14.057-2.636 4.959 0 9.685.96 14.06 2.637.07.022.143.012.21.039.056.021.093.067.146.093.573.225 1.139.46 1.698.711.02.008.04 0 .062.008.115.038.202.12.309.174a39.544 39.544 0 0 1 12.285 8.897c.144.117.3.223.416.38.032.046.036.1.066.145.404.45.826.878 1.211 1.346.027.026.063.04.086.07.035.045.048.1.078.148v.002c5.494 6.777 8.8 15.395 8.797 24.78 0 .658-.069 1.3-.1 1.949.009.091.044.17.04.262-.006.09-.05.166-.065.252a39.4 39.4 0 0 1-1.887 9.816l1.916-.234c.048.826.09 1.596.12 2.252 0 .005.004.01.004.017v.014c.007.096.047.18.072.27.021.072.025.152.056.218.045.095.116.169.18.248.042.052.067.114.115.158.081.077.182.127.278.18.05.028.09.068.142.09a1.367 1.367 0 0 0 .57.098l.007-.002c.008 0 .017 0 .025-.002 40.328-2.748 46.802-3.496 49.977-4.028 2.222-.372 3.6-.663 3.886-1.9.267-1.111-.714-1.815-1.035-2.045h-.008c-.435-.313-1.03-.663-1.717-1.067-1.023-.6-2.182-1.281-2.966-1.937-1.03-.858-1.433-1.644-1.721-3.361-.308-1.832-.41-4.146-.274-6.198 1.997-.372 5.977.377 5.977.377l1.408-5.578.297-5.008-.633-4.295-.521-23.86-3.047-1.944-10.451-5.63s-17.446-6.429-28.803-9.376c-9.511-2.469-19.804-4.389-29.766-5.55-8.115-.948-14.629-1.243-25.424-1.73l-3.019-.136c-12.11-.551-28.677-1.3-55.945-1.186-6.86-3.861-17.393-9.364-26.475-13.984-14.42-7.336-25.884-12.772-37.977-17.049a1.656 1.656 0 0 0-.546-.717c-.447-.336-1.011-.548-4.141-1.404-3.22-.882-7.652-2.011-13.361-2.924-6.756-1.08-14.465-1.708-22.916-1.867zm-3.53 12.389c5.453.084 10.814.35 15.598.789 8.277.758 14.098 1.968 21.477 4.463 8.093 2.739 16.457 6.452 24.859 11.039 7.087 3.866 14.77 8.648 19.357 11.61-1.71.054-3.373.097-5.03.142a7.007 7.007 0 0 0-1.147-2.904c-.893-1.297-2.318-2.428-4.356-3.46-2.338-1.182-4.994-1.995-7.682-2.349-1.85-.245-6.455-.61-9.242 1.22-1.86 1.226-2.889 3.344-3.14 6.475-.04.497-.062 1-.043 1.494-21.899.217-37.4-.15-50.23-.513a2767.71 2767.71 0 0 1-33.16-1.123l-5.85-.225c-8.907-.34-18.118-.691-25.79-1.215-8.272-.563-14.883-1.332-19.12-2.226-3.998-.845-5.72-1.751-7.204-2.942-1.647-1.323-2.663-2.684-2.94-3.449-.057-.159-.058-.23-.062-.23.022-.047.224-.403 1.752-1.092 2.398-1.08 6.84-2.451 13.977-4.313 4.502-1.175 16.362-4.174 29.238-6.656 12.084-2.33 22.437-3.675 32.582-4.234a232.167 232.167 0 0 1 16.156-.301zm205.135 50.832c.924-.232 3.144-.157 6.664.047 4.395.256 11.014.773 33.863 3.656-.563 1.015-1.08 1.983-1.55 2.858-.512.952-.962 1.794-1.348 2.466-.851 1.486-1.234 1.868-1.723 2.123-.637.333-1.607.506-2.877.514-1.412-.015-3.086-.171-6.21-.516-2.849-.314-7.154-.788-10.286-1.423-2.868-.58-4.846-1.3-7.056-2.561-1.69-.965-3.715-2.357-6.022-4.14-1.432-1.108-2.45-1.96-3.111-2.606a7.254 7.254 0 0 1-.39-.404c.014-.003.03-.01.046-.014zm42.065 32.377c-.067 9.78-.284 12.174-.635 12.873-.113.227-.133.268-1.244.37-1.22.108-2.999.24-5.94.273-.828.01-1.745.01-2.785.013a392.5 392.5 0 0 0-8.637.092c1.184-1.802 2.762-4.086 4.34-6.348 1.65-2.366 2.952-4.234 4.195-5.377.994-.91 2.044-1.494 4.473-1.775 1.573-.182 3.595-.222 6.233-.121z"/><path d="M428.77 270.672c-.026-.04-.033-.086-.064-.124-.02-.024-.048-.035-.07-.057-.317-.386-.665-.738-1-1.108-.025-.037-.026-.082-.055-.119-.095-.13-.22-.218-.342-.315a32.57 32.57 0 0 0-10.119-7.326c-.088-.044-.158-.112-.253-.143-.018-.007-.035 0-.053-.007-.46-.207-.925-.401-1.396-.586-.044-.022-.075-.06-.122-.077-.055-.022-.114-.013-.17-.031-3.603-1.381-7.495-2.172-11.579-2.172-4.081 0-7.976.79-11.58 2.172-.056.015-.116.009-.171.03-.046.018-.077.056-.121.078a29.95 29.95 0 0 0-1.394.586c-.018.005-.038 0-.056.007-.096.03-.17.099-.257.143a32.574 32.574 0 0 0-10.124 7.335c-.117.095-.24.178-.332.306-.027.038-.031.08-.053.117-.335.37-.685.727-1.002 1.112-.02.022-.049.033-.069.055-.028.036-.037.082-.061.12-4.527 5.581-7.251 12.68-7.251 20.412 0 .544.055 1.072.081 1.61-.005.073-.035.136-.03.211.004.073.039.132.05.203a32.23 32.23 0 0 0 4.112 13.919c.033.057.042.119.08.174.013.02.037.027.052.044.24.416.492.826.75 1.231.03.062.035.13.074.19.042.066.1.117.148.174a32.544 32.544 0 0 0 18.712 13.562c.055.02.097.062.154.077.097.027.192.029.289.037 2.564.655 5.233 1.038 7.998 1.038 2.764 0 5.434-.386 7.998-1.038.095-.009.192-.013.286-.037.058-.015.1-.055.155-.077a32.563 32.563 0 0 0 18.712-13.562c.048-.058.105-.108.147-.174.038-.06.044-.128.075-.19.258-.405.509-.815.75-1.231.014-.018.036-.024.052-.044.04-.053.048-.117.08-.174a32.208 32.208 0 0 0 4.112-13.919c.013-.07.046-.13.05-.203.006-.075-.026-.138-.03-.211.026-.538.081-1.066.081-1.61.007-7.73-2.718-14.827-7.243-20.408zm-276.317.153c-.026-.04-.033-.086-.064-.123-.02-.024-.048-.035-.07-.057-.318-.386-.666-.738-1-1.108-.025-.038-.027-.082-.055-.12-.095-.13-.22-.217-.342-.314a32.57 32.57 0 0 0-10.119-7.326c-.088-.044-.158-.113-.253-.143-.018-.007-.036 0-.053-.007-.46-.207-.925-.401-1.397-.586-.044-.022-.074-.06-.12-.077-.056-.022-.115-.014-.17-.031-3.604-1.381-7.496-2.172-11.58-2.172-4.081 0-7.976.79-11.58 2.172-.057.015-.116.009-.171.03-.046.018-.077.056-.121.078a29.95 29.95 0 0 0-1.395.586c-.017.005-.037 0-.055.007-.097.03-.17.099-.257.143a32.574 32.574 0 0 0-10.124 7.335c-.117.095-.24.178-.333.306-.026.037-.03.08-.052.117-.335.37-.685.727-1.003 1.112-.02.022-.048.033-.068.055-.029.036-.037.082-.062.12-4.526 5.58-7.25 12.68-7.25 20.411 0 .545.054 1.073.08 1.61-.004.073-.034.137-.03.212.005.073.04.132.05.203a32.23 32.23 0 0 0 4.113 13.919c.033.057.042.119.08.174.013.02.037.026.052.044.24.416.491.826.75 1.231.03.062.034.13.074.19.042.066.1.116.148.174a32.544 32.544 0 0 0 18.712 13.562c.055.02.097.061.154.077.097.026.192.029.288.037 2.564.654 5.234 1.038 7.999 1.038 2.764 0 5.434-.386 7.998-1.038.095-.009.191-.013.286-.037.058-.016.1-.055.154-.077a32.563 32.563 0 0 0 18.713-13.562c.048-.058.105-.108.147-.174.037-.06.044-.128.075-.19.258-.405.509-.815.749-1.231.015-.018.037-.024.053-.044.04-.053.048-.117.08-.174a32.208 32.208 0 0 0 4.112-13.92c.013-.07.046-.13.05-.202.006-.075-.026-.139-.03-.211.026-.538.08-1.066.08-1.61.008-7.73-2.717-14.827-7.242-20.408z" style="fill:#e64539;stroke-width:.563889;fill-opacity:1"/></g></svg>