<svg width="512" height="512" xml:space="preserve" xmlns="http://www.w3.org/2000/svg"><defs><filter style="color-interpolation-filters:sRGB" id="a" x="-.058" y="-.058" width="1.116" height="1.117"><feFlood flood-opacity="1" flood-color="#3A3F5E" result="flood"/><feComposite in="flood" in2="SourceGraphic" operator="out" result="composite1"/><feGaussianBlur in="composite1" stdDeviation="9.788" result="blur"/><feOffset result="offset"/><feComposite in="offset" in2="SourceGraphic" operator="atop" result="composite2"/></filter></defs><path d="M0 0h512v512H0Z" fill="#b90202" style="fill:#1b1f21;fill-opacity:1"/><g style="fill:#e64539;fill-opacity:1;filter:url(#a)" transform="translate(-17.36 -61.694) scale(1.15518)"><path style="fill:#e64539;fill-opacity:1;stroke-width:1.15518" d="M204.219 19.078c5.15 27.231 33.526 45.413 46.699 51.492 20.859 9.627 80.455 24.335 102.064-13.408 5.765 14.769 1.875 137.62-32.189 168.854-17.26-16.457-42.176-26.79-69.875-26.79-22.744 0-43.602 6.967-59.895 18.567-21.508-34.521-62.201-57.83-108.9-57.83-22.39 0-43.392 5.382-61.58 14.766v12.068a1.668 1.668 0 0 0-.066-.014v296.49s86.415 4.47 93.328-95.353a.057.057 0 0 1-.004-.018c21.022 30.528 88 53.765 129.273 52.395 64.83-2.15 150.975-4.992 223.95-74.95 6.743-6.71 12.153-14.636 15.828-23.404v-.004c26.883-55.924-30.57-239.756-64.12-322.86H204.22zM362.633 225.43l4.744 8.218-15.846 9.149-4.744-8.219 15.846-9.148zm-18.834 9.093 8.314 14.405-72.021 41.582-8.317-14.405 72.024-41.582zm-6.276 10.34a2.712 2.712 0 1 0 .669 5.384 2.712 2.712 0 0 0-.669-5.384zm-8.578 4.953a2.712 2.712 0 1 0 .67 5.381 2.712 2.712 0 0 0-.67-5.38zm-8.578 4.952a2.712 2.712 0 1 0 .671 5.387 2.712 2.712 0 0 0-.67-5.387zm23.801 4.439 9.857 17.072-8.787 5.075-7.191-12.454-3.424 1.977 7.19 12.455-2.579 1.488-7.19-12.453-3.425 1.977 7.19 12.453-2.577 1.488-7.191-12.453-3.424 1.979 7.19 12.453-2.577 1.486-7.19-12.453-3.425 1.978 7.19 12.454-9.149 5.28-9.857-17.072 39.369-22.73zm-32.738.72a2.712 2.712 0 1 0 1.691 5.041 2.713 2.713 0 0 0-1.691-5.04zm39.974.083 4.621 8.002-3.695 2.134-4.62-8.003 3.694-2.133zm-48.552 4.87c-.35.044-.695.157-1.02.345a2.713 2.713 0 1 0 1.02-.344zm-8.577 4.952a2.714 2.714 0 0 0-2.016 4.049 2.713 2.713 0 1 0 2.016-4.049zm-8.578 4.953a2.712 2.712 0 1 0 .67 5.385 2.712 2.712 0 0 0-.67-5.385zm-15.527 2.25 18.482 32.01-111.771 64.53-14.451-10.862s7.175-27.617 33.85-43.018l73.89-42.66zm35.394 9.442 4.62 8.002-20.85 12.039-4.621-8.004 20.851-12.037zm-94.578 34.847a5.69 5.69 0 0 0-2.146.723l-12.27 7.084a5.698 5.698 0 1 0 5.698 9.869l12.271-7.084a5.7 5.7 0 0 0-3.553-10.592zm-5.49 7.004a2.194 2.194 0 0 1 1.156 4.096 2.195 2.195 0 1 1-1.156-4.096zm-6.277 3.625a2.195 2.195 0 1 1 .116 4.39 2.195 2.195 0 0 1-.116-4.39zm52.07 4.904c5.627.35 10.952 3.739 13.4 9.477 3.134 7.34-.224 15.877-7.136 19.867l-16.494 9.524c-7.337 4.235-16.727 1.797-21.094-5.418-.065-.108-.22-.09-.254.03l-4.076 14.253a.146.146 0 0 0 .015.113l18.233 31.58c.045.078.023.173-.06.205-.992.387-7.174 2.78-22.647 8.479-17.012 6.265-22.25-12.051-22.25-12.051l-9.803-37.25a.146.146 0 0 1 .068-.164l63.377-36.592a15.476 15.476 0 0 1 8.721-2.053zm-.394 7.705a7.804 7.804 0 0 0-4.47 1.03l-9.218 5.322 2.902 3.283a4.391 4.391 0 0 0 4.51 1.303l1.319-.389.968 3.293-1.32.389a7.835 7.835 0 0 1-8.049-2.32l-3.363-3.807-4.82 2.783c-3.748 2.164-5.037 6.972-2.874 10.719 2.164 3.747 6.971 5.037 10.72 2.873l17.073-9.857c3.748-2.164 5.036-6.972 2.872-10.721a7.843 7.843 0 0 0-6.25-3.9z" transform="translate(15.028 53.407) scale(.86567)"/></g></svg>