<svg width="512" height="512" xml:space="preserve" xmlns="http://www.w3.org/2000/svg"><defs><filter style="color-interpolation-filters:sRGB" id="a" x="-.058" y="-.058" width="1.116" height="1.117"><feFlood flood-opacity="1" flood-color="#3A3F5E" result="flood"/><feComposite in="flood" in2="SourceGraphic" operator="out" result="composite1"/><feGaussianBlur in="composite1" stdDeviation="9.788" result="blur"/><feOffset result="offset"/><feComposite in="offset" in2="SourceGraphic" operator="atop" result="composite2"/></filter></defs><path d="M0 0h512v512H0Z" fill="#b90202" style="fill:#1b1f21;fill-opacity:1"/><g style="fill:#e64539;fill-opacity:1;filter:url(#a)" transform="translate(-17.36 -61.694) scale(1.15518)"><path style="fill:#e64539;fill-opacity:1;stroke-width:1.15518" d="M204.219 19.078c5.15 27.231 33.526 45.413 46.699 51.492 20.859 9.627 80.455 24.335 102.064-13.408 5.765 14.769 1.875 137.62-32.189 168.854-17.26-16.457-42.176-26.79-69.875-26.79-22.744 0-43.602 6.967-59.895 18.567-21.508-34.521-62.201-57.83-108.9-57.83-22.39 0-43.392 5.382-61.58 14.766v12.068a1.668 1.668 0 0 0-.066-.014v296.49s86.415 4.47 93.328-95.353a.057.057 0 0 1-.004-.018c21.022 30.528 88 53.765 129.273 52.395 64.83-2.15 150.975-4.992 223.95-74.95 6.743-6.71 12.153-14.636 15.828-23.404v-.004c26.883-55.923-30.57-239.756-64.12-322.86H204.22zm22.845 222.705c14.783.195 31.736 6.766 46.446 15.559 9.414 6.873 20.63 10.192 30.412 10.02 9.598-.17 17.504-3.626 21.623-9.815-.331-1.13-.553-2.336-.553-3.586 0-6.594 5.369-11.936 11.951-11.936 6.583 0 11.952 5.342 11.952 11.936 0 6.597-5.37 11.941-11.952 11.941a11.95 11.95 0 0 1-7.244-2.435c-1.728 2.11-3.824 3.898-6.14 5.377-4.634 8.568-9.305 15.997-10.997 22.763-1.58 6.362-1.065 12.099 4.635 19.416 2.648-.698 5.368-1.654 8.237-2.941a11.705 11.705 0 0 1-.221-2.281c0-6.436 5.26-11.656 11.695-11.656 6.436 0 11.656 5.22 11.656 11.656 0 6.472-5.22 11.695-11.656 11.695-3.2 0-6.105-1.289-8.238-3.385-3.457 1.582-6.803 2.76-10.076 3.569-9.01 11.62-14.268 25.778-13.9 43.834a162.588 162.588 0 0 1 7.28 7.023 10.766 10.766 0 0 1 6.731-2.353c6.03 0 10.885 4.89 10.885 10.884a10.86 10.86 0 0 1-10.885 10.885c-5.994 0-10.885-4.854-10.885-10.885 0-.882.11-1.765.293-2.574-2.464-2.61-5-5.111-7.574-7.465-7.612.22-16.695.626-24.785 2.207-7.392 1.434-13.755 3.934-17.506 7.575a93.232 93.232 0 0 1 5.113 11.988c5.884.478 10.479 5.406 10.479 11.4 0 6.288-5.11 11.399-11.436 11.399-6.288 0-11.4-5.11-11.4-11.399a11.4 11.4 0 0 1 5.627-9.855 90.2 90.2 0 0 0-5.037-11.438c-7.576-2.721-14.196-3.75-19.602-2.978-4.89.662-8.826 2.684-12.209 6.656.331 3.42.333 6.95-.035 10.701 4.192 1.802 7.133 5.921 7.133 10.776 0 6.435-5.221 11.693-11.694 11.693-6.435 0-11.667-5.258-11.667-11.693 0-5.7 4.055-10.409 9.46-11.475 1.03-10.48-1.176-18.202-5.736-27.652-5.667-10.922-14.643-21.294-21.94-34.385-10.45-18.828-13.694-35.302-11.492-48.908 2.207-13.65 9.941-24.252 20.54-30.963 9.27-5.873 20.688-8.895 32.712-8.895zm17.211 9.194.184.668c6.325 3.272 13.46 8.43 19.969 13.294l-.037-5.425c-6.472-3.957-13.276-6.78-20.116-8.537zm-22.726 1.183c-3.678-.125-7.354.549-11.29 1.358 4.56 1.007 8.863 2.533 12.981 4.445l-1.691-5.803zm7.428 1 2.757 9.447c3.64 2.262 7.098 4.784 10.48 7.457l-3.603-13.584c-2.868-1.312-6.288-2.559-9.634-3.32zm-23.094 6.54c4.633 3.905 9.855 8.84 15.004 13.741l3.972-6.859c-5.92-3.324-12.173-5.769-18.976-6.883zm41.004 1.226 4.486 16.928c4.523 4.045 8.899 8.2 13.201 12.097l-.111-16.217c-1.95-1.548-3.897-3.1-5.846-4.615-3.861-2.945-7.759-5.748-11.73-8.193zm24.416 3.256.037 6.25c5.148 4.148 10.114 8.158 14.894 11.357l-.257-10.393a59.878 59.878 0 0 1-14.674-7.214zm-70.711.066c2.486 7.605 6.579 15.959 11.58 24.27l5.111-8.79c-5.442-5.442-10.958-10.688-16.691-15.48zm30.113 5.965-4.78 8.266c4.524 4.523 8.973 9.119 13.46 13.605 1.434-2.28 5.184-8.089 5.92-10.332-4.744-4.192-9.562-8.127-14.6-11.54zm82.63 2.896c-6.471 1.508-13.423 1.399-20.446.112l.295 12.722c4.45 2.244 8.715 3.494 12.834 3.42 1.507-5.626 4.303-10.885 7.318-16.254zm-126.099 2.942c-1.478 5.884-2.387 12.871-2.515 20.41l5.974 1.25c-2.092-6.472-3.348-13.644-3.459-21.66zm11.907 3.199c.147 4.854 1.264 10.372 3.007 15.998l4.985-2.133a98.991 98.991 0 0 1-7.992-13.865zm72.234.037.111 16.733c5.038 4.265 10.112 8.015 15.297 10.81l-.367-16.805c-5.185-3.015-9.782-6.73-15.041-10.738zm-49.092 5.516-5.664 9.746c3.935 4.927 8.238 9.34 12.871 13.422l6.031-9.71c-4.486-4.449-8.862-9.009-13.238-13.458zm28.572 1.914-6.435 10.332c4.376 4.302 8.863 8.457 13.533 12.355l6.287-10.515c-4.192-3.678-8.604-7.87-13.385-12.172zm42.51 6.875.367 16.402c5.002 1.802 10.187 2.5 16.034 2.28-3.42-5.48-4.816-10.849-4.743-16.034-3.971-.11-7.87-1.067-11.658-2.648zm-82.004 5.185-6.326 2.686c2.464 4.486 5.811 8.53 9.746 12.869l8.348-2.941c-4.192-3.862-8.127-8.017-11.768-12.614zm29.198 4.412-5.737 9.194c4.266 3.383 9.745 7.281 14.893 10.738l4.56-7.611c-4.78-3.898-9.304-8.055-13.716-12.32zm29.013.186c-2.06 3.457-4.153 6.912-6.213 10.37 5.149 3.97 10.59 7.612 16.4 10.775l5.995-10.48c-5.7-2.796-11.034-6.51-16.182-10.665zm-84.037.293c.953 4.854 2.662 9.157 4.883 13.092l10.125.699c-2.596-3.788-4.925-7.797-6.885-12.1l-8.123-1.691zm43.588 12.908-8.68 3.053c3.788 3.236 8.348 6.618 12.797 9.67l8.938-3.016c-4.487-3.052-8.863-6.25-13.055-9.707zm62.992.147c-2.06 3.64-4.155 7.281-6.215 10.922a101.208 101.208 0 0 0 16.366 5.884c1.801-5.148 4.191-9.929 6.986-14.379-5.185.221-11.62-.552-17.137-2.427zm-32.396 3.09c-1.398 2.353-2.833 4.707-4.23 7.06 5.478 3.53 11.143 7.024 16.843 10.664l3.97-6.951c-5.883-3.2-11.361-6.839-16.583-10.774zm-46.703 2.425c2.5 3.09 6.252 7.099 9.671 10.592l2.463-.809c-3.677-3.125-8.163-5.885-12.134-9.783zm-17.725 1.729c2.592 3.31 6.115 6.876 9.523 10.443 3.016-.11 6.73-.184 9.414-.441-2.537-2.685-5.478-5.993-8.273-9.266-3.56-.184-7.108-.516-10.664-.736zm54.094 7.172-8.936 2.978c5.075 3.31 11.363 7.501 16.916 11.656l8.824-3.97c-5.626-3.604-11.251-7.097-16.804-10.664zm33.058 2.537c-1.434 2.537-2.903 5.074-4.338 7.611 6.693 4.413 13.384 9.121 19.893 14.453a80.834 80.834 0 0 1 2.244-15.629 109.463 109.463 0 0 1-17.799-6.435zm-50.232 3.199-4.154 1.396c4.56 4.634 9.23 9.378 13.68 14.526l8.42-3.787c-5.443-3.935-11.658-7.87-17.946-12.135zm-11.473 3.824c-2.978 0-5.957.294-8.935.33 4.229 4.009 8.53 8.129 12.465 12.762h9.12c-4.118-4.523-8.384-8.79-12.65-13.092zm-18.703.7c-.548 0-1.103.037-1.654.037 2.846 4.118 5.684 8.2 8.332 12.355h6.105c-4.082-4.229-8.458-8.237-12.783-12.393zm71.068 4.853c-3.31 1.47-6.62 2.941-9.892 4.45 3.971 3.64 7.282 7.61 9.525 12.134 6.289-1.25 12.834-1.91 20.116-2.389-6.436-5.148-13.056-9.782-19.749-14.195zm-16.804 7.539-10.004 4.486c3.015 3.862 5.92 7.943 8.568 12.393 3.09-2.648 6.913-4.56 11.069-5.957-2.17-3.825-5.478-7.429-9.633-10.922zm-43.541 6.877c2.243 4.155 4.045 8.715 5.553 13.863 2.684-2.133 5.663-3.641 8.863-4.597-1.802-3.31-3.935-6.36-6.252-9.266h-8.164zm16.806 0c1.582 2.317 3.235 5.257 4.743 8.162 3.86-.147 7.906.369 12.171 1.399-2.243-3.347-4.632-6.509-7.132-9.561h-9.782z" transform="translate(15.028 53.407) scale(.86567)"/></g></svg>