<svg viewBox="0 0 512 512" style="height:512px;width:512px" xmlns="http://www.w3.org/2000/svg"><defs><filter style="color-interpolation-filters:sRGB" id="a" x="-.037" y="-.03" width="1.073" height="1.06"><feFlood flood-opacity="1" flood-color="#3A3F5E" result="flood"/><feComposite in="flood" in2="SourceGraphic" operator="out" result="composite1"/><feGaussianBlur in="composite1" stdDeviation="15" result="blur"/><feOffset result="offset"/><feComposite in="offset" in2="SourceGraphic" operator="atop" result="composite2"/></filter></defs><path d="M0 0h512v512H0z" fill="#1b1f21"/><g transform="translate(23.45 15.992) scale(.39873)" style="fill:#e64539;fill-opacity:1;filter:url(#a)"><path d="M369.186 3.863c-110.969-1.646-227.68 160.693-268.274 245.464-6.086 12.73-18.121 32.605-4.454 43.176 32.855 25.44 57.552 66.562 80.353 100.23 42.887 63.348 47.902 124.07 55.945 198.79 6.266 58.344-.469 139.38 26.652 193.13 33.949 67.272 81.707 129.43 124.84 191.22 37.414 53.605 72.875 111.93 115.29 162.01 21.383 25.246 76.777 51.046 95.398 8.16 16.066-37.008 2.902-87.422-5.977-124.59-8.316-34.766-17.09-75.191-37.453-105.53-21.828-32.566-74.461-75.562-69.395-118.49 10.789-91.535 125.33 67.993 134.48 82.2 46.957 72.719 85.934 149.76 126.94 225.73 24.84 45.983 59.953 86.663 115.6 93.948 62.902 8.27 84.156-60.191 65.965-103.18-25.738-60.805-54.254-111.36-77.41-169.95-3.422-8.64-39.77-91.246-9.253-85.859 26.426 4.668 48.253 37.657 61.476 57.446 33.672 50.449 54.505 108.879 69.07 167.039 90.371-6.336 79.992-141.5 75.145-200.26-3.566-5.874-7.488-14.656-11.02-20.441v.034c-25.559-41.508-49.055-84.707-68.953-129.11 29.797 38.137 57.18 86.543 82.896 127.39 6.672-37.332 20.879-124.99 24.926-151.48-34.453-56.241-68.7-112.78-95.641-172.91 29.64 37.945 74.257 120.36 99.925 160.96-2.82-5.27-13.847-103.48-17.52-137.03-4.3-39.035-60.052-76.284-82.482-104.4-15.616-34.952-16.74-51.07-36.369-83.3-26.734-42.974-68.665-63.097-111.96-88.991-49.739-26.867-89.233-90.672-368.674-216.151-28.374-31.476-58.995-44.794-90.066-45.255ZM587.588 274.16h94.348a6.292 6.292 0 0 1 5.654 9.044l-79.571 163.41 36.266.516a6.287 6.287 0 0 1 5.455 9.263L533.376 673.397a6.287 6.287 0 0 1-5.543 3.316h-28.305a6.286 6.286 0 0 1-5.876-8.534l62.785-164.436h-34.894a6.287 6.287 0 0 1-6.016-8.12l66.045-217.003a6.296 6.296 0 0 1 2.27-3.224 6.298 6.298 0 0 1 3.746-1.235z" style="fill:#e64539;fill-opacity:1"/><path d="M835.36 848.63c-.445 0-.816.047-1.188.121-5.28 7.379 16.066 73.441 92.832 232.84 2.305-16.309 19.883-15.816 33.07-16.309-39.671-158.23-107.69-216.65-124.71-216.65z" style="fill:#e64539;fill-opacity:1"/></g></svg>