<svg version="1.2" viewBox="-421 153 512 512" xml:space="preserve" width="512" height="512" xmlns="http://www.w3.org/2000/svg"><defs><filter style="color-interpolation-filters:sRGB" id="a" x="-.059" y="-.048" width="1.119" height="1.096"><feFlood flood-opacity="1" flood-color="#3A3F5E" result="flood"/><feComposite in="flood" in2="SourceGraphic" operator="out" result="composite1"/><feGaussianBlur in="composite1" stdDeviation="9.788" result="blur"/><feOffset result="offset"/><feComposite in="offset" in2="SourceGraphic" operator="atop" result="composite2"/></filter></defs><path d="M0 0h512v512H0Z" fill="#b90202" style="fill:#1b1f21;fill-opacity:1" transform="translate(-421 153)"/><path style="fill:#e64539;fill-opacity:1;stroke-width:3.85001;filter:url(#a)" d="m333.43 7.186-80.207.068h-.002l-77.637-.065s11.345 80.403 77.82 80.403c68.162 0 80.026-80.406 80.026-80.406zm-176.758 99.45a98.261 98.261 0 0 0-98.563 98.561v241.01c0 18.865 15.016 34.65 34.65 34.65 19.636 0 34.651-15.015 34.651-34.65V224.832c0-5.39 4.622-10.01 10.012-10.01 5.39 0 10.008 4.62 10.008 10.01v273.4h98.56v-16.605c0-5.39 4.622-10.01 10.012-10.01 5.39 0 10.008 4.62 10.008 10.01v16.605h98.558v-273.4c0-5.39 4.622-10.01 10.012-10.01 5.39 0 10.01 4.62 10.01 10.01v221.76c0 18.865 15.015 34.65 34.65 34.65 19.635 0 34.65-15.015 34.65-34.65V205.197c-1.54-54.67-46.584-98.56-100.099-98.56h-197.12zm120.662 31.106c.428-.057.77.401.77.858-.609 2.436 0 6.089 7.306 10.351 10.96 6.09-9.132 18.268-23.137 18.268h-12.787c-13.395-.609-33.489-12.179-23.748-18.268 7.307-4.262 7.915-7.915 7.307-10.351 0-.457.343-.913.771-.856.143.02.296.094.448.246 3.653 2.435 10.959 5.481 21.31 3.655 10.352 1.827 17.66-1.219 21.313-3.655.152-.152.304-.229.447-.248zm-43.518 35.926c.143.019.296.096.448.248 3.653 2.435 10.96 5.479 21.312 3.652 10.352 1.828 17.658-1.216 21.31-3.652.61-.61 1.22 0 1.22.61-.609 2.435 0 6.086 7.306 10.349 10.959 6.089-9.135 17.658-23.75 18.268h-12.785c-14.004-.609-34.099-12.18-23.139-18.268 7.307-4.263 7.915-7.914 7.307-10.35 0-.456.343-.914.771-.857zm.608 35.926c.143.019.295.096.447.248 3.653 2.435 10.961 5.479 21.313 3.652 10.351 1.828 17.657-1.216 21.31-3.652.61-.61 1.219-.001 1.219.607-.609 2.436 0 6.09 7.307 10.352 10.96 6.089-9.135 17.659-23.14 18.267h-12.784c-14.005-.608-34.099-12.178-23.139-18.267 6.698-3.653 7.916-7.306 6.697-10.352 0-.456.342-.912.77-.855zm-.608 36.533c.143.019.296.096.448.248 3.653 2.435 10.959 5.479 21.31 3.652 10.352 1.828 17.66-1.216 21.313-3.652.61-.61 1.217-.001 1.217.607-.609 2.437 0 6.09 7.306 10.352 10.96 6.089-9.132 18.268-23.137 18.268h-12.787c-13.395-.609-33.489-12.179-23.748-18.268 7.307-4.263 7.915-7.916 7.307-10.352 0-.456.343-.912.771-.855zm44.125 35.924c.429-.057.772.4.772.857-.609 2.436 0 6.09 7.307 10.352 10.96 6.089-9.135 17.659-23.14 18.267h-12.784c-14.005-.608-34.099-12.178-23.139-18.267 6.698-4.263 7.916-7.307 6.697-10.352 0-.456.342-.912.77-.855.143.019.295.094.447.246 3.653 2.435 10.961 5.48 21.313 3.654 10.351 1.828 17.657-1.218 21.31-3.654.153-.153.305-.23.447-.248zm-64.38 23.387c12.786 24.964 72.46 24.355 85.246 0 1.826 3.652 3.045 7.915 4.263 12.177h-.002c4.263 16.44 12.178 19.486 6.09 26.793-28.618 39.579-14.612 55.408-35.924 57.844 0 0-1.827 1.218-1.218 3.654.608 1.827 1.218 4.262 0 6.088-3.045 6.697-4.262 15.832-16.44 18.268-12.178-2.436-13.397-12.179-16.441-18.268-1.827-3.653 1.826-7.306-1.219-9.742-21.31-2.436-6.697-18.265-35.924-57.844-1.826-3.044-1.826-7.307 0-10.351 7.307-11.57 6.088-17.66 11.569-28.62zm12.18 19.486c-3.654 0-6.698 3.044-6.698 6.697 0 4.871 4.871 8.524 9.742 6.088 10.96 10.96 43.232 10.96 54.192 0 4.87 2.436 10.35-1.217 9.742-6.088 0-3.653-3.045-6.697-6.698-6.697-5.48 0-9.133 6.088-5.48 10.959-9.742 5.48-38.969 5.48-49.32 0 3.653-4.871 0-10.96-5.48-10.96zm57.843 23.137c-4.87 0-8.524 5.48-4.871 10.351-9.742 4.871-36.534 4.871-46.276 0 .61-1.217 1.217-2.436 1.217-3.654 0-8.525-12.785-8.525-12.785 0 0 4.262 4.871 7.916 9.742 5.48 10.352 10.352 40.186 10.352 50.537 0 4.872 2.436 9.744-1.217 9.133-5.48 0-3.653-3.044-6.697-6.697-6.697zm-1.676 23.662c-4.156-.381-9.056 3.28-5.63 8.609-7.916 3.653-31.054 3.653-39.579 0 2.436-4.262-.608-8.525-4.87-8.525-9.743 0-6.09 15.222 2.435 10.351 9.133 9.134 34.706 9.134 43.84 0h.001c3.655 2.436 7.916-.608 8.524-4.87 0-3.654-2.227-5.337-4.72-5.565z" transform="translate(-421 153)"/></svg>