<svg viewBox="0 0 512 512" style="height:512px;width:512px" xmlns="http://www.w3.org/2000/svg"><defs><filter style="color-interpolation-filters:sRGB" id="a" x="-.04" y="-.073" width="1.08" height="1.147"><feFlood flood-opacity="1" flood-color="#3A3F5E" result="flood"/><feComposite in="flood" in2="SourceGraphic" operator="out" result="composite1"/><feGaussianBlur in="composite1" stdDeviation="8" result="blur"/><feOffset result="offset"/><feComposite in="offset" in2="SourceGraphic" operator="atop" result="composite2"/></filter></defs><path d="M.359-.21h512v512h-512Z" fill="#1b1f21"/><path d="M477.674 280.876c8.438 1.505 12.347-3.492 12.347-4.347 0-.998-3.994-7.989-7.99-7.322-3.994.666-12.648-4.992-15.975-6.657-3.15-1.575-30.169-14.168-60.43 2.283-.808-1.324-1.228-2.14-1.145-2.283 1.165-1.997-.666-4.66-.666-4.66l-19.388-28.708-.345.1c-.227-.656-.324-1.37.428-1.181 1.332.332 4.826 3.163 8.487 2.663 3.662-.5 10.152-6.49 10.152-18.807 0-12.315-2.663-18.473-5.824-18.473-2.117 0-7.214.755-12.15 3.343-4.01-9.32-10.854-24.276-16.493-36.368-16.689-35.79-16.684-35.794-19.153-34.974-2.796.933-4.815 2.738-6 5.369-3.82 8.47 2.437 23.197 5.445 30.275l.219.514c5.84 13.775 11.168 27.326 15.286 38.131a8.185 8.185 0 0 0-1.77 1.032c-2.684 2.03-3.992 3.012-3.992 3.012s-21.919-37.787-23.882-41.386c-3.433-6.294-9.367-6.813-13.065-5.227l-2.331.998s-2.33-2.495-3.495-1.83c-1.165.666-5.326 2.995-5.326 2.995s-.998 1.83-.5 2.33c.5.5-7.388 3.881-7.388 3.881s-2.486-.63-3.55 0c-1.065.63-1.597 3.987-.354 6.085 1.242 2.099 4.26 2.519 5.148.838.887-1.679 7.977-4.814 7.977-4.814s1.83 2.495 2.829 2.495c.998 0 3.327-1.664 4.66-1.83 1.33-.167 3.995-3.164 3.995-3.164s-.316-1.872 1.498-2.163c2.706-.433 3.524.058 5.65 3.33 8.36 12.862 23.882 41.222 23.882 41.222s-3.57 1.714-2.74 3.71c.833 1.997 1.165 6.325 1.165 6.325s-3.163 4.16-4.327 4.328c-1.165.166-17.475-28.125-17.973-28.625-.5-.5-1.997-1.997-3.828-.833-1.83 1.165-11.982 6.823-11.982 6.823s-2.83 1.499-2.163 2.663c.666 1.165 1.996 1.997 1.498 2.83-.5.832-1.165 1.498-1.997.666-.832-.833-2.163-2.331-3.661-1.665-1.499.666-11.817 6.656-11.817 6.656s-1.997.667-1.498 1.997c.5 1.33 2.495 2.83 0 4.16-2.496 1.33-24.798 2.33-40.274 21.969-1.773 2.249-1.33-.167-2.663-.5-1.332-.333-9.153-1.165-17.308 1.996-8.155 3.163-12.315 6.159-15.476 6.99-3.163.833-3.26 2.58-7.656-1.331-12.425-11.056-22.501-13.395-24.164-13.395-1.665 0 4.493-3.495 1.996-9.818-2.495-6.325-8.82-7.489-16.476-7.157-7.655.332-22.176 1.22-33.118.332-6.159-.5-4.326-.832-6.325-.5-1.997.333-2.663-6.158-2.663-6.656 0-.5 1.499.166 3.328-2.663 1.83-2.83 3.993-17.706 2.995-23.864-.998-6.159-5.107-14.857-11.815-13.414-2.933.63-10.484 3.163-11.648 4.493-1.165 1.33-2.331 4.66-1.831 8.155.172 1.2.679 3.286 1.335 5.644l-46.4.002a2.208 2.208 0 0 0 0 4.415h23.798c-7.71 1.34-15.634 3.615-21.666 7.476-16.975 10.862-20.47 23.352-20.47 27.153 0 3.544 4.348 17.473 25.987 19.339-24.327 12.648-35.526 32.134-43.463 64.532-3.308 13.505-14.812 23.3-14.812 23.3s-1.33 1.664.833 1.664c.573 0 12.356.092 29.41.23 5.833 29.48 31.825 51.711 63.016 51.711 30.833 0 56.578-21.722 62.802-50.693 6.657.053 10.727.083 11.058.083 2.164 0 12.315-.166 12.315-.166s3.827-1.665 3.827-.166c0 1.498-1.332 3.163-.666 5.158.666 1.997 2.83 3.661 7.821 3.661 4.992 0 102.185 1.83 108.343 1.83 6.16 0 22.135-2.828 26.96-24.797 4.827-21.968 13.814-65.902 13.814-65.902s2.83-1.83 2.83-2.995-.833-5.824.831-6.49c.785-.315 6.37-3.878 12.06-7.56 6.356 8.879 19.473 27.19 20.227 28.195.998 1.333 3.661 1.665 3.661 1.665l1.347 1.893c-28.387 21.17-25.604 54.14-24.646 65.007.998 11.316-3.662 9.32-3.995 11.316-.333 1.997 2.33 5.658 11.982 6.325 5.267.362 8.246-2.048 9.873-4.317 9.442 17.818 28.166 29.962 49.736 29.962 31.072 0 56.26-25.189 56.26-56.259 0-16.476-7.088-31.299-18.38-41.59zm-368.064 78.85c-16.093 0-29.802-10.203-35.011-24.494 4.7.038 9.52.078 14.396.116 4.297 6.863 11.922 11.43 20.615 11.43 8.553 0 16.07-4.42 20.403-11.098l14.39.117c-5.364 13.99-18.915 23.928-34.792 23.928zm239.286-101.674s-10.65 49.095-11.483 53.59c-.832 4.493-1.997 6.158-4.328 5.99-2.33-.167-2.829-6.991-2.829-8.654 0-1.664-3.827-.5-3.827-.5s7.156-10.318 10.65-15.311c3.495-4.992 4.16-13.481 4.16-13.481s-.166-5.326 2.163-9.486c2.33-4.16.832-6.823.832-6.823l-12.314-5.492s2.33-.666 3.827.166c1.498.832 12.481-2.163 12.481-2.163 1.666-.164.668 2.165.668 2.165zm4.142-98.65c-2.328-5.479-8.51-20.027-5.486-26.733.427-.942 1.029-1.683 1.823-2.233 4.575 8.682 24.454 51.148 32.029 68.818a21.159 21.159 0 0 0-3.053 2.885c-5.99 6.991-5.824 2.331-5.824 2.331s-.5-5.326-1.997-5.158c-.406.045-.925-.009-1.526-.062-4.185-11.012-9.693-25.055-15.746-39.328zm86.754 199.686c-20.223 0-36.62-16.395-36.62-36.619 0-10.572 4.486-20.09 11.649-26.775l9.492 13.337c-3.13 3.6-5.038 8.29-5.038 13.438 0 11.33 9.185 20.514 20.514 20.514 11.331 0 20.515-9.185 20.515-20.514 0-11.331-9.186-20.515-20.515-20.515-2.648 0-5.172.52-7.497 1.433-2.949-4.14-6.23-8.76-9.474-13.366a36.463 36.463 0 0 1 16.971-4.171c20.224 0 36.62 16.395 36.62 36.619 0 20.223-16.393 36.618-36.617 36.618z" style="fill:#e64539;fill-opacity:1;stroke-width:.40895;filter:url(#a)"/></svg>