<svg viewBox="0 0 512 512" style="height:512px;width:512px" xmlns="http://www.w3.org/2000/svg"><defs><filter style="color-interpolation-filters:sRGB" id="a" x="-.03" y="-.043" width="1.06" height="1.087"><feFlood flood-opacity="1" flood-color="#3A3F5E" result="flood"/><feComposite in="flood" in2="SourceGraphic" operator="out" result="composite1"/><feGaussianBlur in="composite1" stdDeviation="15" result="blur"/><feOffset result="offset"/><feComposite in="offset" in2="SourceGraphic" operator="atop" result="composite2"/></filter></defs><path d="M0 0h512v512H0z" fill="#1b1f21"/><g transform="rotate(30 219.324 302.964) scale(.42684)" style="fill:#e64539;fill-opacity:1;filter:url(#a)"><path d="M431.78 393.62a191.48 191.48 0 0 1 14.969-24.945l-105.36-175.59-142.93 190.57 168.8 139.01zm-121.44 20.172c-11.426 0-20.691-9.266-20.691-20.691 0-11.426 9.266-20.691 20.691-20.691 11.425 0 20.691 9.266 20.691 20.691 0 11.43-9.266 20.691-20.691 20.691zm41.379-82.758c-11.426 0-20.691-9.266-20.691-20.691 0-11.425 9.266-20.691 20.691-20.691 11.426 0 20.691 9.266 20.691 20.691 0 11.425-9.266 20.691-20.691 20.691zM144.83 620.69c-34.223 0-62.07 27.844-62.07 62.07 0 34.223 27.844 62.07 62.07 62.07 34.223 0 62.07-27.844 62.07-62.07 0-34.227-27.848-62.07-62.07-62.07zm0 82.758c-11.426 0-20.691-9.266-20.691-20.691 0-11.426 9.266-20.691 20.691-20.691 11.425 0 20.691 9.266 20.691 20.691-.004 11.426-9.266 20.691-20.691 20.691zM348.28 560.63 173.62 416.79l-24.852 33.129 180.54 148.68zm161.35-248.01L395.01 121.6l-26.805 35.742 107.46 179.09a185.912 185.912 0 0 1 33.965-23.812zm152.44-167.79c0-34.223-27.844-62.07-62.07-62.07-34.223 0-62.07 27.844-62.07 62.07 0 34.223 27.844 62.07 62.07 62.07 34.223 0 62.07-27.848 62.07-62.07zm-82.762 0c0-11.426 9.266-20.691 20.691-20.691 11.425 0 20.691 9.266 20.691 20.691 0 11.425-9.266 20.691-20.691 20.691-11.426-.004-20.691-9.266-20.691-20.691z" style="fill:#e64539;fill-opacity:1"/><path d="M600 289.66c17.781 0 35.113 2.457 51.617 7.121l126.5-210.84C735.199 32.011 669.097.003 599.997.003c-69.1 0-135.2 32.008-178.12 85.938l126.5 210.84c16.508-4.664 33.84-7.121 51.621-7.121zM496.55 144.83c0-57.043 46.406-103.45 103.45-103.45 57.044 0 103.45 46.406 103.45 103.45 0 57.044-46.406 103.45-103.45 103.45-57.044 0-103.45-46.41-103.45-103.45zM123.91 483.06 23.34 617.15C8.285 637.224-.004 662.091-.004 687.177c0 50.312 32.07 94.805 79.797 110.71l80.168 26.723a58.26 58.26 0 0 0 18.449 2.969h.613c22.066 0 41.906-12.258 51.777-31.988l79.512-159.03zm20.914 303.15c-57.043 0-103.45-46.406-103.45-103.45 0-57.043 46.406-103.45 103.45-103.45 57.044 0 103.45 46.406 103.45 103.45 0 57.043-46.41 103.45-103.45 103.45zM768.22 393.62l64.52 129.04 168.79-139.01L858.6 193.08 753.24 368.67a191.562 191.562 0 0 1 14.969 24.945zm121.44-21.203c11.426 0 20.691 9.266 20.691 20.691 0 11.425-9.266 20.691-20.691 20.691-11.425 0-20.691-9.266-20.691-20.691 0-11.43 9.266-20.691 20.691-20.691zm-41.379-82.758c11.426 0 20.691 9.266 20.691 20.691 0 11.426-9.266 20.691-20.691 20.691-11.426 0-20.691-9.266-20.691-20.691 0-11.43 9.266-20.691 20.691-20.691zM1055.2 620.69c-34.223 0-62.07 27.844-62.07 62.07 0 34.223 27.844 62.07 62.07 62.07 34.223 0 62.07-27.844 62.07-62.07 0-34.227-27.848-62.07-62.07-62.07zm0 82.758c-11.426 0-20.691-9.266-20.691-20.691 0-11.426 9.266-20.691 20.691-20.691 11.425 0 20.691 9.266 20.691 20.691 0 11.426-9.266 20.691-20.691 20.691z" style="fill:#e64539;fill-opacity:1"/><path d="m1176.7 617.16-100.57-134.09-186.39 153.5 79.242 158.49c10.035 20.07 30.207 32.535 52.641 32.535a58.824 58.824 0 0 0 18.617-3.02l80.008-26.672a116.566 116.566 0 0 0 79.797-110.72c0-25.086-8.29-49.953-23.34-70.023zm-121.49 169.05c-57.043 0-103.45-46.406-103.45-103.45 0-57.043 46.406-103.45 103.45-103.45 57.044 0 103.45 46.406 103.45 103.45 0 57.043-46.406 103.45-103.45 103.45zM870.7 598.59l180.53-148.68-24.852-33.129-174.66 143.84zM724.34 336.43 831.8 157.34l-26.805-35.742-114.62 191.02a186.367 186.367 0 0 1 33.965 23.812z" style="fill:#e64539;fill-opacity:1"/></g></svg>