<svg height="512" width="512" style="enable-background:new 0 0 512 512" xml:space="preserve" xmlns="http://www.w3.org/2000/svg"><defs><filter style="color-interpolation-filters:sRGB" id="a" x="-.04" y="-.044" width="1.081" height="1.089"><feFlood flood-opacity="1" flood-color="#3A3F5E" result="flood"/><feComposite in="flood" in2="SourceGraphic" operator="out" result="composite1"/><feGaussianBlur in="composite1" stdDeviation="20" result="blur"/><feOffset result="offset"/><feComposite in="offset" in2="SourceGraphic" operator="atop" result="composite2"/></filter></defs><path d="M0 0h512v512H0Z" fill="#b90202" style="fill:#1b1f21;fill-opacity:1"/><g transform="translate(13.385 5.6) scale(.40273)" style="fill:#e64539;fill-opacity:1;filter:url(#a)"><path d="M920.37 96.133c-82.266 36.504-137.16 64.828-182.56 79.695-98.359 32.203-246.54-42.762-323.68-79.145-113.34-53.457-147.39 51.09-153.17 95.898-12.281 95.176-2.04 287.92 0 383.86 2.07 97.438 57.805 124.88 96.961 143.2 111.22 52.051 134.2 124.71 139.22 181.72 4.523 51.332-5.742 155.17 1.988 206.12 9.344 61.59 61.02 53.703 87.762 53.988 49.898.535 149.7 0 199.6 0 71.602 0 90.5-49.125 129.89-65.633 17.402-7.293 31.164-3.457 31.844-11.934V93.692c-10.703-1.059-22.176-.086-27.867 2.438zm-78.895 426.02c0 15.844-12.844 28.688-28.684 28.688h-339.45c-15.844 0-28.688-12.844-28.688-28.688v-102.79c0-15.844 12.844-28.684 28.688-28.684h133c59.965-23.062 205.25-59.762 205.25-59.762 15.844 0 28.684 12.844 28.684 28.684v51.602a28.596 28.596 0 0 1 1.195 8.164z" style="fill:#e64539;fill-opacity:1"/><path d="M808.81 432.25v-48.742c0-10.559-8.563-19.125-19.125-19.125 0 0-133.52 38.805-173.49 54.184h-117.35c-10.562 0-19.125 8.563-19.125 19.125v68.527c0 10.562 8.562 19.125 19.125 19.125h291.63c10.559 0 19.125-8.563 19.125-19.125v-68.527a18.814 18.814 0 0 0-.79-5.441zm176.04-186.89h-93.121c-7.953 0-14.398 3.738-14.398 8.344v169.37c0 4.61 6.445 8.344 14.398 8.344h93.121c7.953 0 14.398-3.735 14.398-8.344v-169.37c0-4.606-6.445-8.344-14.398-8.344zm-11.898 154.47c0 3.344-4.676 6.05-10.445 6.05h-67.559c-5.766 0-10.445-2.706-10.445-6.05V276.95c0-3.344 4.676-6.055 10.445-6.055h67.559c5.766 0 10.445 2.711 10.445 6.055z" style="fill:#e64539;fill-opacity:1"/><path d="M972.95 277.43h222.31v121.91H972.95ZM220.01 431.41h93.121c7.95 0 14.395-3.734 14.395-8.344v-169.37c0-4.61-6.445-8.344-14.395-8.344H220.01c-7.95 0-14.398 3.735-14.398 8.344v169.37c.004 4.61 6.45 8.344 14.398 8.344zm11.898-154.46c0-3.344 4.676-6.05 10.445-6.05h67.559c5.77.003 10.445 2.71 10.445 6.05l-.004 122.88c0 3.344-4.676 6.055-10.445 6.055l-67.559.004c-5.766-.004-10.445-2.711-10.445-6.055z" style="fill:#e64539;fill-opacity:1"/><path d="M9.602 277.43h222.31v121.91H9.602Z" style="fill:#e64539;fill-opacity:1"/></g></svg>