<svg viewBox="0 0 512 512" style="height:512px;width:512px" xmlns="http://www.w3.org/2000/svg"><defs><filter style="color-interpolation-filters:sRGB" id="a" x="-.05" y="-.051" width="1.1" height="1.102"><feFlood flood-opacity="1" flood-color="#3A3F5E" result="flood"/><feComposite in="flood" in2="SourceGraphic" operator="out" result="composite1"/><feGaussianBlur in="composite1" stdDeviation="10" result="blur"/><feOffset result="offset"/><feComposite in="offset" in2="SourceGraphic" operator="atop" result="composite2"/></filter></defs><path d="M0 0h512v512H0z" fill="#1b1f21"/><path style="fill:#e64539;fill-opacity:1;stroke-width:.428148;filter:url(#a)" d="M345.69 20.998c-6.672 0-12.102 5.376-12.102 11.98 0 5.264 3.385 9.74 8.088 11.399v46.014l-24.057 24.11-.898.837h-19.766l16.463-16.42a3.93 3.93 0 0 0 .727-.781l9.757-9.7a4.018 4.018 0 0 0 1.184-2.847v-6.451c4.701-1.644 8.084-6.076 8.084-11.284 0-6.64-5.426-12.039-12.098-12.039-6.64 0-12.04 5.4-12.04 12.04 0 5.2 3.359 9.626 8.027 11.275v4.789l-6.239 6.201-13.734-13.736v-17.35c4.668-1.657 8.025-6.104 8.025-11.33 0-6.636-5.4-12.039-12.039-12.039-6.638 0-12.04 5.401-12.04 12.04 0 5.225 3.359 9.674 8.027 11.33V78.05c0 1.065.423 2.085 1.175 2.838l14.926 14.93-19.574 19.52H261.16l16.348-16.35a4.015 4.015 0 0 0 1.176-2.839l.002-35.838a4.015 4.015 0 0 0-8.03 0v34.176l-9.709 9.713-.002-56.443c4.666-1.66 8.02-6.108 8.02-11.336 0-6.64-5.399-12.043-12.035-12.043-6.64 0-12.04 5.403-12.04 12.043 0 5.23 3.358 9.677 8.026 11.336v57.072l-10.314-10.338V60.314a4.015 4.015 0 0 0-8.03 0V96.15a4.02 4.02 0 0 0 1.172 2.834l16.297 16.358h-24.432l-19.54-19.508 14.898-14.95a4.007 4.007 0 0 0 1.17-2.833V59.043c4.7-1.652 8.084-6.105 8.084-11.338 0-6.636-5.427-12.037-12.098-12.037-6.638 0-12.039 5.4-12.039 12.037 0 5.226 3.36 9.676 8.025 11.332v17.358l-13.724 13.771-6.244-6.234v-4.795c4.667-1.65 8.023-6.075 8.023-11.276 0-6.64-5.401-12.04-12.039-12.04-6.64 0-12.04 5.4-12.04 12.04 0 5.201 3.359 9.626 8.026 11.276v6.459c0 1.065.424 2.085 1.176 2.838l10.18 10.162c.03.032.05.068.082.101.032.032.07.052.103.082l16.594 16.565h-19.71l-.897-.836-24.059-24.113.004-46.022c4.668-1.666 8.025-6.136 8.025-11.393 0-6.606-5.403-11.978-12.04-11.978-6.639 0-12.04 5.374-12.04 11.978 0 5.255 3.358 9.726 8.026 11.393v47.68a4.01 4.01 0 0 0 1.174 2.832l20.404 20.457h-52.08c-5.856 0-11.383 2.303-15.54 6.459-4.199 4.12-6.511 9.679-6.511 15.656v48.578l-21.975-21.972a4.015 4.015 0 0 0-2.838-1.176H38.46c-1.65-4.67-6.076-8.028-11.277-8.028-6.672 0-12.098 5.402-12.098 12.041 0 6.602 5.426 11.973 12.098 11.973 5.194 0 9.615-3.328 11.271-7.959H84.53l25.858 25.852a4 4 0 0 0 .619.507v19.836l-18.23-18.234c-.003-.002-.003-.002-.003-.004-.002-.002-.001-.002-.003-.002l-10.256-10.258a4.015 4.015 0 0 0-2.838-1.175h-6.4c-1.65-4.665-6.076-8.022-11.278-8.022-6.67 0-12.1 5.4-12.1 12.035 0 6.64 5.429 12.041 12.1 12.041 5.203 0 9.628-3.36 11.277-8.027h4.737l6.244 6.248-13.727 13.728-17.351.002c-1.658-4.667-6.106-8.025-11.334-8.025-6.672 0-12.102 5.4-12.102 12.04 0 6.635 5.429 12.038 12.102 12.038 5.228 0 9.676-3.36 11.334-8.025H72.19a4.012 4.012 0 0 0 2.838-1.176l14.9-14.904 20.45 20.453c.194.194.402.364.621.51v23.832h-.71l-17.163-17.112a4.02 4.02 0 0 0-2.834-1.17l-35.84-.002a4.015 4.015 0 0 0 0 8.028h34.182l10.287 10.254-57.026.002c-1.659-4.666-6.107-8.026-11.335-8.026-6.638 0-12.04 5.401-12.04 12.04 0 6.67 5.402 12.097 12.04 12.097 5.236 0 9.691-3.383 11.343-8.084h56.44l-9.711 9.71-34.178-.001a4.015 4.015 0 0 0 0 8.027h35.84a4.012 4.012 0 0 0 2.838-1.176l16.564-16.562h1.309v22.832a3.976 3.976 0 0 0-1.623.969l-19.951 19.947-14.4-14.396a4.015 4.015 0 0 0-2.839-1.176H53.18c-1.658-4.668-6.104-8.026-11.332-8.026-6.672 0-12.104 5.4-12.104 12.04 0 6.64 5.43 12.04 12.104 12.04 5.228 0 9.676-3.36 11.332-8.027h17.35l13.748 13.746-6.26 6.22h-4.744c-1.649-4.667-6.075-8.026-11.277-8.026-6.67 0-12.1 5.4-12.1 12.04 0 6.64 5.429 12.04 12.1 12.04 5.203 0 9.628-3.358 11.277-8.026h6.399c1.06 0 2.077-.42 2.828-1.168l10.26-10.193a3.977 3.977 0 0 0 1.119-2.191l17.123-17.12v20.836a4.02 4.02 0 0 0-.621.506l-25.856 25.86-46.064.003c-1.65-4.667-6.076-8.025-11.277-8.025-6.672 0-12.1 5.401-12.1 12.041 0 6.64 5.428 12.04 12.1 12.04 5.202 0 9.628-3.358 11.277-8.026h47.73a4.012 4.012 0 0 0 2.838-1.176l21.975-21.979V375c0 5.863 2.273 11.407 6.45 15.658 4.204 4.128 9.746 6.4 15.603 6.4h51.359l-19.986 19.99a4.015 4.015 0 0 0-1.176 2.839v47.68c-4.668 1.657-8.027 6.106-8.027 11.335 0 6.672 5.4 12.1 12.04 12.1 6.637 0 12.038-5.428 12.038-12.1 0-5.23-3.356-9.677-8.024-11.336v-46.013l24.15-24.157.325-.335h19.69l-26.462 26.507a4.02 4.02 0 0 0-1.175 2.84v6.344c-4.668 1.666-8.026 6.136-8.026 11.393 0 6.636 5.403 12.039 12.041 12.039 6.636 0 12.033-5.402 12.033-12.04 0-5.254-3.355-9.725-8.02-11.392v-4.682l6.241-6.254 13.787 13.745v17.334c-4.7 1.652-8.086 6.105-8.086 11.341 0 6.64 5.428 12.041 12.1 12.041 6.638 0 12.037-5.401 12.037-12.04 0-5.229-3.357-9.678-8.023-11.337v-19.007c0-1.067-.426-2.09-1.182-2.844l-14.967-14.916 15.754-15.787 3.285-3.284h24.549l-15.89 15.887a4.02 4.02 0 0 0-1.176 2.84v35.78a4.015 4.015 0 0 0 8.027 0l.004-34.124 10.316-10.314v56.992c-4.667 1.668-8.027 6.138-8.027 11.393 0 6.64 5.403 12.039 12.04 12.039 6.639 0 12.04-5.4 12.04-12.04 0-5.254-3.36-9.725-8.025-11.392v-56.389l9.712 9.713v34.12a4.015 4.015 0 0 0 8.028 0v-35.782a4.012 4.012 0 0 0-1.176-2.838l-15.889-15.888h24.547L304.9 416.13l-14.96 14.914a4.017 4.017 0 0 0-1.182 2.844v19.007c-4.668 1.658-8.024 6.108-8.024 11.336 0 6.64 5.4 12.041 12.037 12.041 6.672 0 12.102-5.4 12.102-12.04 0-5.237-3.383-9.692-8.086-11.344v-17.334l13.785-13.74 6.244 6.251v4.676c-4.7 1.661-8.084 6.137-8.084 11.399 0 6.636 5.427 12.039 12.098 12.039 6.64 0 12.04-5.401 12.04-12.04 0-5.254-3.358-9.725-8.026-11.392v-6.344a4.012 4.012 0 0 0-1.176-2.838l-26.459-26.507h19.63l.37.38 24.164 24.114v46.008c-4.668 1.657-8.023 6.108-8.023 11.337 0 6.672 5.399 12.1 12.037 12.1 6.64 0 12.04-5.428 12.04-12.1 0-5.23-3.357-9.68-8.025-11.337v-47.678c0-1.067-.425-2.09-1.18-2.842l-20.04-19.988h52.02c5.898 0 11.428-2.28 15.591-6.45 4.168-4.24 6.463-9.782 6.463-15.605v-47.924l20.715 20.715a4.015 4.015 0 0 0 2.838 1.176h47.728c1.658 4.668 6.109 8.027 11.338 8.027 6.638 0 12.04-5.401 12.04-12.04 0-6.64-5.398-12.04-12.036-12.04l-.002.004c-5.23 0-9.68 3.358-11.338 8.025h-46.068l-25.213-25.214v-19.72l16.717 16.716c.148.182.315.347.494.5l10.017 10.013a4.015 4.015 0 0 0 2.838 1.176h6.403c1.657 4.668 6.108 8.026 11.337 8.026 6.638 0 12.038-5.402 12.038-12.042s-5.4-12.039-12.038-12.039c-5.23 0-9.68 3.358-11.337 8.026h-4.74l-6.247-6.244 13.727-13.725h17.351c1.658 4.668 6.108 8.025 11.336 8.025 6.672 0 12.1-5.399 12.1-12.039s-5.428-12.04-12.1-12.04c-5.23 0-9.678 3.359-11.336 8.027h-19.013a4.012 4.012 0 0 0-2.838 1.175l-14.904 14.899-19.81-19.807v-24.441h.046l16.564 16.56a4.015 4.015 0 0 0 2.838 1.176h35.842a4.015 4.015 0 0 0 0-8.03h-34.178l-9.709-9.708h56.442c1.652 4.703 6.105 8.084 11.341 8.084 6.64 0 12.04-5.426 12.04-12.098 0-6.636-5.4-12.039-12.04-12.039-5.226 0-9.674 3.36-11.332 8.026h-57.035l10.287-10.254h34.182a4.015 4.015 0 0 0 0-8.03h-35.84a4.02 4.02 0 0 0-2.834 1.172l-16.611 16.56v-24.43l19.808-19.811 14.9 14.902a4.023 4.023 0 0 0 2.84 1.176h19.014c1.66 4.666 6.108 8.025 11.336 8.025 6.672 0 12.098-5.4 12.098-12.039 0-6.64-5.426-12.039-12.098-12.039-5.23 0-9.678 3.358-11.336 8.025h-17.351l-13.727-13.728 6.244-6.248h4.74c1.658 4.668 6.11 8.027 11.339 8.027 6.637 0 12.037-5.401 12.037-12.04 0-6.637-5.4-12.036-12.038-12.036-5.23 0-9.678 3.357-11.337 8.022h-6.403a4.012 4.012 0 0 0-2.838 1.175l-10.252 10.254-.005.006-.006.006-16.965 16.967v-19.721l25.215-25.209h46.076c1.664 4.63 6.109 7.959 11.332 7.959 6.638 0 12.037-5.373 12.037-11.975 0-6.64-5.4-12.04-12.037-12.04-5.23 0-9.68 3.357-11.338 8.027l-47.734.002a4.012 4.012 0 0 0-2.838 1.175l-20.713 20.711v-47.318c0-5.859-2.273-11.403-6.422-15.629-4.176-4.183-9.727-6.486-15.633-6.486h-52.076l20.406-20.455a4.012 4.012 0 0 0 1.172-2.834V44.37c4.666-1.667 8.022-6.136 8.022-11.392 0-6.607-5.4-11.981-12.036-11.981zM140.54 129.521c6.171-.002 11.195 5.05 11.195 11.256 0 6.17-5.022 11.19-11.195 11.19-6.206 0-11.254-5.02-11.254-11.19 0-6.206 5.048-11.256 11.254-11.256zm232.182 0c6.204 0 11.252 5.05 11.252 11.256-.002 6.168-5.05 11.188-11.252 11.188-6.173 0-11.194-5.018-11.194-11.188 0-6.206 5.02-11.256 11.194-11.256zm-242.68 43.961c30.245 51.616 73.267 20.011 114.896 49.555 2.421-9.288 2.888-21.433-28.449-39.455 54.041-.292 94.195 18.486 108.254 53.053h-130.45l12.186 16.422 29.433 39.662-16.023 21.592c-22.92-11.666-36.61-35.743-84.422-31.338 12.132-14.574 21.394-23.016 53.111-20.467-6.301-16.57-61.775-15.582-58.535-89.024zm84.7 73.442h33.984l33.986 45.795-33.986 45.799h-33.985l33.985-45.8-33.985-45.794zm49.687 0h33.984l33.986 45.795-33.986 45.799H264.43l33.984-45.8-33.984-45.794zm49.691 0h33.986l33.987 45.795-33.987 45.799H314.12l33.986-45.8-33.986-45.794zm58.602 113.506c6.204 0 11.252 5.024 11.252 11.197 0 6.206-5.048 11.256-11.252 11.256-6.173 0-11.194-5.05-11.194-11.256 0-6.173 5.02-11.197 11.194-11.197zm-232.184.004c6.173 0 11.193 5.024 11.193 11.197 0 6.206-5.02 11.254-11.193 11.254-6.206 0-11.256-5.048-11.256-11.254 0-6.173 5.05-11.197 11.256-11.197z"/></svg>