<svg viewBox="0 0 512 512" style="height:512px;width:512px" xmlns="http://www.w3.org/2000/svg"><defs><filter style="color-interpolation-filters:sRGB" id="a" x="-.031" y="-.036" width="1.062" height="1.073"><feFlood flood-opacity="1" flood-color="#3A3F5E" result="flood"/><feComposite in="flood" in2="SourceGraphic" operator="out" result="composite1"/><feGaussianBlur in="composite1" stdDeviation="15" result="blur"/><feOffset result="offset"/><feComposite in="offset" in2="SourceGraphic" operator="atop" result="composite2"/></filter></defs><path d="M0 0h512v512H0z" fill="#1b1f21"/><g style="filter:url(#a)"><g style="fill:#e64539;fill-opacity:1"><path style="stroke-width:1.57477" d="M-429.08-107.308a13.684 13.684 0 0 0 .814 10.166c93.688 181.006 96.503 400.294 9.048 651.476-2.449 6.911 1.136 14.513 8.03 17.008L16.965 724.26c333.96 119.278 727.516 17.254 1079.413-280.279a12.777 12.777 0 0 0 4.47-12.515 1400.036 1400.036 0 0 0-229.5-567.393 954.155 954.155 0 0 0-143.122-161.11c-16.189-14.808-33.642-28.695-50.285-41.974l-13.666-10.803a1268.183 1268.183 0 0 0-165.26-96.93c-27.677-16.09-437.41-159.052-484.006-175.413a13.064 13.064 0 0 0-10.352.54 13.604 13.604 0 0 0-6.675 7.872c-69.086 215.085-220.234 394.22-420.632 498.51a13.697 13.697 0 0 0-6.43 7.926zm305.468 455.948 31.807-89.054c23.678-8.446 47.306-17.03 108.1-39.809 73.42-28.093 109.408-42.59 141.424-56.492 35.824-15.551 66.342-29.977 87.677-43.087l.19.691 11.616 43.51-.003.007c-68.83 55.584-130.414 93.263-230.618 136.547-73.709 27.316-110.69 37.716-150.193 47.688zm44.191-123.729L-9.643 29.544A599.182 599.182 0 0 1 7.722 18.223c48.69-30.552 104.96-55.639 155.906-66.188-27.62 21.824-56.5 43.773-81.273 71.173-18.077 19.99-33.698 43.146-44.534 70.944-10.307 26.436-16.264 57.085-15.88 93.197-6.691 2.555-13.37 5.09-20.006 7.59a6190.69 6190.69 0 0 1-81.356 29.972zM61.411 111.4c9.382-27.381 24.17-49.305 42.066-69.101 27.904-30.863 64.064-55.818 98.54-84.568l22.866 85.655 12.791 47.89c-17.515 11.765-51.22 28.498-91.293 45.895-29.384 12.758-62.406 26.123-95.904 39.171.624-24.909 4.514-46.204 10.934-64.942zM228.144-54.77l87.867-5.448 50.355 32.77-88.349 159.428-49.873-186.75zm67.363 213.911 19.998-36.088c24.498-.849 47.004-16.331 55.791-40.933 6.356-17.795 4.127-36.45-4.554-51.536l19.12-34.488.363-.161s33.252 76.293 66.067 153.913c16.406 38.812 32.701 77.947 44.723 108.164 3.222 8.078 6.37 16.18 9.452 24.312 2.612.175 5.212.71 7.732 1.61 16.18 5.78 25.021 25.357 17.987 45.05-7.033 19.692-26.279 29.248-42.46 23.47-9.042-3.23-15.795-10.777-18.762-20.239l-27.691-16.464c-28.457-22.526-61.47-37.633-88.756-63.572-24.613-23.394-46.038-52.576-59.01-93.038zm219.385 221.274c9.597-2.662 18.559-7.71 26.093-14.633 21.024 38.865 52.228 70.805 83.034 95.01L585.2 569.484l-48.522-47.573 11.262-92.44-33.047-49.056zM560.645 298l42.92.912 3.937-8.365c6.337-13.472 12.6-27.872 25.394-58.71 20.006-49.176 33.514-83.405 47.582-114.641 11.843-26.3 24.439-50.135 37.05-69.29l47.854 17.091-61.852 173.177-69.356 194.186c-29.72-24.765-58.487-57.053-75.056-94.164 4.704-13.405 5-27.468 1.527-40.196zM740.543 25.89l54.902-45.064-20.486 57.357-34.416-12.293z" transform="rotate(70.345 31.552 262.987) scale(.29907)"/></g></g></svg>