<svg viewBox="0 0 512 512" style="height:512px;width:512px" xmlns="http://www.w3.org/2000/svg"><defs><filter style="color-interpolation-filters:sRGB" id="a" x="-.031" y="-.036" width="1.062" height="1.073"><feFlood flood-opacity="1" flood-color="#3A3F5E" result="flood"/><feComposite in="flood" in2="SourceGraphic" operator="out" result="composite1"/><feGaussianBlur in="composite1" stdDeviation="15" result="blur"/><feOffset result="offset"/><feComposite in="offset" in2="SourceGraphic" operator="atop" result="composite2"/></filter></defs><path d="M0 0h512v512H0z" fill="#1b1f21"/><g style="filter:url(#a)"><g style="fill:#e64539;fill-opacity:1"><path style="stroke-width:1.57477" d="M-429.08-107.308a13.684 13.684 0 0 0 .814 10.166c93.688 181.006 96.503 400.294 9.048 651.476-2.449 6.911 1.136 14.513 8.03 17.008L16.965 724.26c333.96 119.278 727.517 17.254 1079.413-280.279a12.777 12.777 0 0 0 4.47-12.515 1400.038 1400.038 0 0 0-229.5-567.393 954.157 954.157 0 0 0-143.122-161.11c-16.189-14.808-33.642-28.695-50.285-41.974l-13.666-10.803a1268.185 1268.185 0 0 0-165.26-96.93c-27.677-16.09-437.41-159.052-484.006-175.413a13.064 13.064 0 0 0-10.352.54 13.604 13.604 0 0 0-6.675 7.872c-69.086 215.085-220.234 394.22-420.632 498.51a13.697 13.697 0 0 0-6.43 7.926zm271.857 413.112c8.67-24.275 34.852-59.335 79.526-108.106 20.295-22.157 51.89-29.99 80.187-19.883l45.738 16.336a74.68 74.68 0 0 1 49.02 61.342l11.053 91.2c57.466 12.34 148.565-9.998 271.556-68.673-46.483-34.696-73.222-90.988-69.749-149.779C217.481 85.542 171.181-21.62 206.144-119.512c36.994-103.577 150.95-157.554 254.527-120.56 97.577 34.85 151.138 138.004 126.085 236.437 82.778 54.513 133.009 167.497 131.738 280.121-36.847-7.1-74.112 3.03-102.074 25.79L455.645 8.76c8.702-8.784 15.659-19.57 20.092-31.984 16.185-45.315-7.43-95.17-52.744-111.355-45.315-16.184-95.17 7.43-111.355 52.745-16.185 45.315 7.43 95.17 52.745 111.355 15.852 5.662 32.263 6.454 47.591 3.149l170.953 312.102a125.86 125.86 0 0 0-5.048 12.115c-13.003 36.406-8.022 74.861 10.34 105.661-43.92 16.564-97.16 30.716-153.701 41.552L395 406.173c-5.146-12.749-19.658-18.911-32.406-13.766-12.75 5.146-18.91 19.651-13.764 32.4l35.48 87.914a1371.405 1371.405 0 0 1-67.26 8.543l-29.152-73.886c-5.045-12.788-19.498-19.067-32.287-14.02-12.789 5.045-19.069 19.504-14.023 32.292l23.614 59.856c-91.137 5.582-175.818.54-229.863-18.764-141.064-50.382-215.58-136.495-192.563-200.938zm515.75-370.89c6.936-19.421 28.3-29.546 47.72-22.61 19.421 6.937 29.544 28.307 22.607 47.727-6.936 19.42-28.304 29.537-47.724 22.6-19.42-6.936-29.54-28.297-22.603-47.718zM624.762 373.63c13.188-36.924 52.462-57.036 89.675-47.013-3.152 20.574-8.169 40.832-15.16 60.41a24.645 24.645 0 0 1-1.218 2.845c-9.436 18.695-31.999 36.403-63.582 52.512-13.831-19.248-18.29-44.744-9.715-68.754z" transform="rotate(70.345 31.552 262.987) scale(.29907)"/></g></g></svg>