<svg height="512" width="512" xmlns="http://www.w3.org/2000/svg"><defs><filter style="color-interpolation-filters:sRGB" id="a" x="-.078" y="-.08" width="1.156" height="1.16"><feFlood flood-opacity="1" flood-color="#3A3F5E" result="flood"/><feComposite in="flood" in2="SourceGraphic" operator="out" result="composite1"/><feGaussianBlur in="composite1" stdDeviation="15" result="blur"/><feOffset result="offset"/><feComposite in="offset" in2="SourceGraphic" operator="atop" result="composite2"/></filter></defs><path d="M0 0h512v512H0Z" fill="#b90202" style="fill:#1b1f21;fill-opacity:1"/><path d="M121.148 345.193c1.954-1.954 5.21-2.606 9.118-1.954 1.303 0 2.606 0 3.257-1.302l197.351-197.352s78.812-93.138 153.712-113.33c1.954-.653 3.256 1.953 1.954 3.255-12.376 13.678-9.62 44.654-5.063 90.897 0 1.302-1.302 2.606-2.606 2.606-10.421-1.303-46.21 30.949-120.461 108.456L192.02 405.25c-.651.652-1.301 1.955-1.301 3.257.652 3.908 0 6.514-2.606 8.468-1.954 1.302-38.306-32.049-46.122-35.305-1.302-.652-2.606 0-3.908.652l-82.067 82.716c-.652.652-1.302 1.954-1.302 3.256.652 2.606 0 8.468-5.862 10.422 0 0-13.678 5.21-19.54-.652-.652-.65-1.302-1.302-1.302-1.954-6.514-5.862-.652-19.54-.652-19.54 1.954-5.862 7.816-6.514 10.422-5.862 1.302 0 2.606 0 3.256-1.302l82.72-82.067c1.302-1.302 1.302-2.606.652-3.908-4.56-8.468-4.56-17.586-3.258-18.238z" style="fill:#e64539;fill-opacity:1;stroke-width:.390795;filter:url(#a)"/></svg>