<svg width="512" height="512" version="1.1" id="svg8" xml:space="preserve" xmlns="http://www.w3.org/2000/svg"><defs id="defs12"><filter style="color-interpolation-filters:sRGB" id="filter875" x="-.313" y="-.169" width="1.609" height="1.328"><feFlood flood-opacity="1" flood-color="#3A3F5E" result="flood" id="feFlood865"/><feComposite in="flood" in2="SourceGraphic" operator="out" result="composite1" id="feComposite867"/><feGaussianBlur in="composite1" stdDeviation="15" result="blur" id="feGaussianBlur869"/><feOffset dx="0" dy="0" result="offset" id="feOffset871"/><feComposite in="offset" in2="SourceGraphic" operator="atop" result="composite2" id="feComposite873"/></filter><filter style="color-interpolation-filters:sRGB" id="filter1015" x="-.082" y="-.044" width="1.164" height="1.088"><feFlood flood-opacity="1" flood-color="#3A3F5E" result="flood" id="feFlood1005"/><feComposite in="flood" in2="SourceGraphic" operator="out" result="composite1" id="feComposite1007"/><feGaussianBlur in="composite1" stdDeviation="8.302" result="blur" id="feGaussianBlur1009"/><feOffset dx="0" dy="0" result="offset" id="feOffset1011"/><feComposite in="offset" in2="SourceGraphic" operator="atop" result="composite2" id="feComposite1013"/></filter><filter style="color-interpolation-filters:sRGB" id="filter35638" x="-.057" y="-.131" width="1.114" height="1.261"><feFlood flood-opacity="1" flood-color="#3A3F5E" result="flood" id="feFlood35628"/><feComposite in="flood" in2="SourceGraphic" operator="out" result="composite1" id="feComposite35630"/><feGaussianBlur in="composite1" stdDeviation="6" result="blur" id="feGaussianBlur35632"/><feOffset dx="0" dy="0" result="offset" id="feOffset35634"/><feComposite in="offset" in2="SourceGraphic" operator="atop" result="composite2" id="feComposite35636"/></filter><filter style="color-interpolation-filters:sRGB" id="filter35813" x="-.053" y="-.07" width="1.107" height="1.139"><feFlood flood-opacity="1" flood-color="#3A3F5E" result="flood" id="feFlood35803"/><feComposite in="flood" in2="SourceGraphic" operator="out" result="composite1" id="feComposite35805"/><feGaussianBlur in="composite1" stdDeviation="8" result="blur" id="feGaussianBlur35807"/><feOffset dx="0" dy="0" result="offset" id="feOffset35809"/><feComposite in="offset" in2="SourceGraphic" operator="atop" result="composite2" id="feComposite35811"/></filter><filter style="color-interpolation-filters:sRGB" id="filter36051" x="-.028" y="-.039" width="1.056" height="1.078"><feFlood flood-opacity="1" flood-color="#3A3F5E" result="flood" id="feFlood36041"/><feComposite in="flood" in2="SourceGraphic" operator="out" result="composite1" id="feComposite36043"/><feGaussianBlur in="composite1" stdDeviation="6" result="blur" id="feGaussianBlur36045"/><feOffset dx="0" dy="0" result="offset" id="feOffset36047"/><feComposite in="offset" in2="SourceGraphic" operator="atop" result="composite2" id="feComposite36049"/></filter><filter style="color-interpolation-filters:sRGB" id="filter36715" x="-.07" y="-.091" width="1.139" height="1.182"><feFlood flood-opacity="1" flood-color="#3A3F5E" result="flood" id="feFlood36705"/><feComposite in="flood" in2="SourceGraphic" operator="out" result="composite1" id="feComposite36707"/><feGaussianBlur in="composite1" stdDeviation="16.201" result="blur" id="feGaussianBlur36709"/><feOffset dx="0" dy="0" result="offset" id="feOffset36711"/><feComposite in="offset" in2="SourceGraphic" operator="atop" result="composite2" id="feComposite36713"/></filter><filter style="color-interpolation-filters:sRGB" id="filter37057" x="-.08" y="-.075" width="1.16" height="1.15"><feFlood flood-opacity="1" flood-color="#3A3F5E" result="flood" id="feFlood37047"/><feComposite in="flood" in2="SourceGraphic" operator="out" result="composite1" id="feComposite37049"/><feGaussianBlur in="composite1" stdDeviation=".5" result="blur" id="feGaussianBlur37051"/><feOffset dx="0" dy="0" result="offset" id="feOffset37053"/><feComposite in="offset" in2="SourceGraphic" operator="atop" result="composite2" id="feComposite37055"/></filter><filter style="color-interpolation-filters:sRGB" id="filter3381" x="-.08" y="-.165" width="1.159" height="1.33"><feFlood flood-opacity="1" flood-color="#3A3F5E" result="flood" id="feFlood3371"/><feComposite in="flood" in2="SourceGraphic" operator="out" result="composite1" id="feComposite3373"/><feGaussianBlur in="composite1" stdDeviation="15" result="blur" id="feGaussianBlur3375"/><feOffset dx="0" dy="0" result="offset" id="feOffset3377"/><feComposite in="offset" in2="SourceGraphic" operator="atop" result="composite2" id="feComposite3379"/></filter><filter style="color-interpolation-filters:sRGB" id="filter5102" x="-.031" y="-.045" width="1.062" height="1.091"><feFlood flood-opacity="1" flood-color="#3A3F5E" result="flood" id="feFlood5092"/><feComposite in="flood" in2="SourceGraphic" operator="out" result="composite1" id="feComposite5094"/><feGaussianBlur in="composite1" stdDeviation="15" result="blur" id="feGaussianBlur5096"/><feOffset dx="0" dy="0" result="offset" id="feOffset5098"/><feComposite in="offset" in2="SourceGraphic" operator="atop" result="composite2" id="feComposite5100"/></filter><filter style="color-interpolation-filters:sRGB" id="filter5801" x="-.026" y="-.077" width="1.052" height="1.154"><feFlood flood-opacity="1" flood-color="#3A3F5E" result="flood" id="feFlood5791"/><feComposite in="flood" in2="SourceGraphic" operator="out" result="composite1" id="feComposite5793"/><feGaussianBlur in="composite1" stdDeviation="5" result="blur" id="feGaussianBlur5795"/><feOffset dx="0" dy="0" result="offset" id="feOffset5797"/><feComposite in="offset" in2="SourceGraphic" operator="atop" result="composite2" id="feComposite5799"/></filter></defs><path d="M0 0h512v512H0z" fill="#b90202" fill-opacity="1" id="path2" style="fill:#1b1f21;fill-opacity:1"/><style type="text/css" id="style35976">.st0{fill:#000}</style><path d="M485.709 239.749a6.655 6.655 0 0 0-8.676-3.663l-15.967 6.478c-7.582 3.078-14.777 7.029-21.484 11.71l-.448-1.22 10.691-19.117H434.57l-20.584 15.768-126.87-.002v-8.905l-38.497-2.864v-43.151h24.663v-2.71c4.99.864 10.009 1.946 14.5 3.312 14.952 4.537 26.338 11.288 29.51 13.272.591.368 1.29.523 2.004.448l140.567-14.83c3.69-.388 3.376-5.347-.342-5.347H273.284v-3.125h-24.663v-3.109a4.491 4.491 0 0 0-8.98 0v3.109h-24.615v3.125H28.759c-3.716 0-4.03 4.959-.342 5.348l140.567 14.83a3.151 3.151 0 0 0 2.005-.448c3.173-1.985 14.558-8.735 29.51-13.273 4.495-1.364 9.524-2.453 14.525-3.317v2.715h24.615v42.49l-9.685-.72-6.64-18.857-3.327.15c-49.74 2.207-95.004 24.694-124.204 61.706a5.883 5.883 0 0 0-.533 6.431c1.153 2.144 3.45 3.354 6.015 3.14l2.565-.213 2.427 8.388c1.621 5.61 6.83 9.525 12.67 9.525h15.645l30.598.09-9.337 17.907h-13.988a28.85 28.85 0 0 1-16.708-5.301l-7.6-5.36-5.172 7.333 7.6 5.359a37.753 37.753 0 0 0 21.883 6.943l113.78.002v-8.974h-24.54l9.218-17.688h.428c15.565 0 29.339-9.332 35.11-23.804l9.822-24.648h127.266l2.944 4.996c-7.743 1.333-15.33 3.451-22.61 6.404L377.3 276.56a6.655 6.655 0 0 0-3.663 8.675 6.655 6.655 0 0 0 8.676 3.663l15.967-6.478c7.651-3.109 14.914-7.098 21.677-11.839l27.27 46.256h15.257l-20.242-55.308c8.169-1.312 16.168-3.513 23.842-6.627l15.966-6.478a6.667 6.667 0 0 0 3.654-8.675zM118.93 297.846a4.236 4.236 0 0 1-4.049-3.04l-1.92-6.644 5.446-.448a9.802 9.802 0 0 1 10.478 7.934l.432 2.203H118.93zm.591-30.54c22.857-20.717 52.126-34.282 84.13-38.884l-.815 20.334-26.918 14.75a67.288 67.288 0 0 1-56.397 3.8zm101.448 57.511h-55.005l9.321-17.879 54.921.16z" id="path5240" style="fill:#e64539;fill-opacity:1;stroke-width:.444379;filter:url(#filter5801)" transform="matrix(-1 0 0 1 512 0)"/></svg>