<svg width="512" height="512" xml:space="preserve" xmlns="http://www.w3.org/2000/svg"><defs><filter style="color-interpolation-filters:sRGB" id="a" x="-.044" y="-.033" width="1.089" height="1.067"><feFlood flood-opacity="1" flood-color="#3A3F5E" result="flood"/><feComposite in="flood" in2="SourceGraphic" operator="out" result="composite1"/><feGaussianBlur in="composite1" stdDeviation="15" result="blur"/><feOffset result="offset"/><feComposite in="offset" in2="SourceGraphic" operator="atop" result="composite2"/></filter></defs><path d="M0 0h512v512H0Z" fill="#b90202" style="fill:#1b1f21;fill-opacity:1"/><g transform="translate(-1.796 -1.787) scale(.42965)" style="fill:#e64539;fill-opacity:1;filter:url(#a)"><path d="m342.17 624.37 104-45.367c8.945-3.902 13.047-14.352 9.145-23.293l-7.72-17.695c-2.902-6.648-9.417-10.621-16.245-10.621-2.36 0-4.754.477-7.051 1.473l-110.591 47.727 5.212 34.346-.512 23.006zm107.57 248.24c4.703.3 9.266-1.262 12.812-4.387a17.592 17.592 0 0 0 5.96-12.164l1.212-19.266a17.573 17.573 0 0 0-4.387-12.812 17.58 17.58 0 0 0-12.164-5.957l-140.359-9.729-3.68 45.29-.465 10.386zm24.08-151.95a17.6 17.6 0 0 0 10.977-7.938 17.566 17.566 0 0 0 2.148-13.37l-4.464-18.785c-2.254-9.493-11.81-15.38-21.31-13.121l-143.656 35.75-.74 54.93zm-51.01-419.14h56.074c9.758 0 17.695-7.941 17.695-17.699v-155.52c-22.461-13.516-39.621-31.32-48.844-51.66-6.156-13.574-21.215-19.953-34.723-14.941a185.515 185.515 0 0 1-7.898 2.746v219.38c-.004 9.758 7.937 17.7 17.695 17.7zm-88.77-41.31c5.7 4.356 7.375 12.406 4.012 18.906-3.89 7.516-7.88 16.012-11.742 25.184 17.355-9.656 36.473-18.453 57.203-26.25V68.2c-28.36 1.176-64.04-8.266-94.156-3-35.844 6.27-76.47 37.605-80.051 62.676-2.536 17.738-10.453 63.184-14.871 88.254-1.536 8.723 4.98 16.695 13.43 16.371 22.367-.852 62.27-1.117 86.109 6.102 14.844 4.503 28.883 13.062 40.066 21.605zm550.13 315.97L775.7 528.864a17.595 17.595 0 0 0-7.05-1.473c-6.829 0-13.349 3.973-16.247 10.621l-7.719 17.695c-3.898 8.942.2 19.391 9.145 23.293l125.084 52.012 1.282-22.464 9.702-30.588zm-149.51 247.8a17.58 17.58 0 0 0-4.387 12.812l1.211 19.266a17.576 17.576 0 0 0 5.961 12.164 17.586 17.586 0 0 0 12.812 4.387l139.68-8.988-1.232-9.693-6.054-45.756-135.817 9.851a17.589 17.589 0 0 0-12.168 5.957zm-17.14-143.41-4.465 18.785a17.566 17.566 0 0 0 2.149 13.371 17.588 17.588 0 0 0 10.977 7.938l151.609 34.434c.39-19.738-2.5-43.827-.315-60.194l-138.643-27.456c-9.503-2.257-19.059 3.63-21.312 13.121zm3.6-379.05h56.074c9.758 0 17.699-7.941 17.699-17.699V64.441c-2.45-.785-5.09-1.703-7.898-2.746-13.512-5.012-28.566 1.367-34.723 14.94-9.227 20.34-26.383 38.146-48.844 51.66v155.52c-.004 9.759 7.933 17.7 17.69 17.7zm284.48-85.38c-4.414-25.07-12.332-70.52-14.871-88.254-3.586-25.07-44.207-56.41-80.051-62.676-30.117-5.266-65.797 4.176-94.156 3v209.85c20.73 7.797 39.848 16.598 57.203 26.25-3.863-9.172-7.852-17.668-11.742-25.184-3.363-6.5-1.691-14.555 4.012-18.906 11.184-8.543 25.223-17.102 40.07-21.598 23.84-7.223 63.742-6.953 86.109-6.102 8.449.317 14.965-7.656 13.426-16.379z" style="fill:#e64539;fill-opacity:1"/><path d="m916.8 423.02-16.562-5.066c-.543-.246-1.813-.891-3.512-1.95.739-9.57.528-19.98-.925-31.41-2.168-17.062-5.903-33.137-10.422-48.023-20.672-13.746-44.926-26.113-72.336-36.715-6.149 13.695-19.887 23.273-35.848 23.273H721.12c-21.668 0-39.297-17.629-39.297-39.3v-15.927c-26.734-3.312-54.176-5.086-81.82-5.086-27.644 0-55.086 1.774-81.816 5.086v15.926c0 21.672-17.63 39.301-39.297 39.301h-56.074c-15.961 0-29.703-9.578-35.848-23.273-27.41 10.602-51.664 22.973-72.336 36.715-4.52 14.887-8.254 30.961-10.422 48.023-1.454 11.43-1.665 21.84-.926 31.41-1.7 1.059-2.965 1.7-3.512 1.95l-16.562 5.066-1.41 21.465c-.344 5.242-.238 22 8.191 64.293 3.254 16.336 9.09 32.191 16.32 48l109.35-47.703c19.867-8.672 43.066.445 51.734 20.309l7.719 17.695c4.2 9.621 4.395 20.301.563 30.074-3.836 9.77-11.246 17.465-20.867 21.66l-137.794 52.384.131 13.824.372 15.098 138.65-33.685c21.09-5.004 42.312 8.062 47.324 29.145l4.465 18.785c5.012 21.078-8.058 42.309-29.14 47.324l-162.462 32.996.722 9.147-2.116 6.732 139.558 5.91c10.477.657 20.07 5.356 27.012 13.23 6.946 7.875 10.402 17.98 9.742 28.457l-1.21 19.266c-1.309 20.79-18.645 36.836-39.191 36.836-.829 0-1.66-.027-2.497-.078l-141.91-8.922c-9.812 38.105-12.07 83.277-12.449 109.57-.187 12.898 7.707 24.363 19.402 28.36 30.676 10.476 90.945 32.827 128.85 58.437 4.93 3.328 10.32 7.367 16.043 11.95 38.66 30.944 90.168 46.421 141.68 46.421s103.02-15.477 141.67-46.426c5.723-4.582 11.113-8.617 16.043-11.949 37.906-25.609 98.176-47.96 128.85-58.438 11.695-3.996 19.59-15.457 19.402-28.359-.378-26.297-2.636-71.469-12.449-109.57L751.6 894.18a41.15 41.15 0 0 1-2.496.078c-20.547 0-37.887-16.043-39.19-36.836l-1.212-19.266c-.66-10.477 2.801-20.582 9.743-28.457 6.941-7.875 16.535-12.574 27.012-13.23l136.63-4.55-2.418-7.825-1.11-12.008-157.4-30.402c-21.081-5.016-34.151-26.246-29.14-47.324l4.465-18.785c5.011-21.078 26.234-34.148 47.324-29.145l133.58 32.603.823-17.03-.075-9.534-132.959-53.664c-9.62-4.195-17.03-11.887-20.867-21.66-3.836-9.773-3.636-20.449.563-30.074l7.719-17.695c8.668-19.863 31.87-28.98 51.734-20.309l109.35 47.703c7.23-15.809 13.066-31.66 16.32-48 8.43-42.293 8.535-59.051 8.191-64.293zM681.82 246.14V139.23c-23.945 10.129-51.891 16.008-81.816 16.008-29.925 0-57.871-5.879-81.816-16.008v106.91c26.777-3.203 54.203-4.926 81.816-4.926s55.043 1.719 81.816 4.926z" style="fill:#e64539;fill-opacity:1"/></g></svg>