<svg height="512" width="512" xmlns="http://www.w3.org/2000/svg"><defs><filter style="color-interpolation-filters:sRGB" id="a" x="-.072" y="-.032" width="1.144" height="1.064"><feFlood flood-opacity="1" flood-color="#3A3F5E" result="flood"/><feComposite in="flood" in2="SourceGraphic" operator="out" result="composite1"/><feGaussianBlur in="composite1" stdDeviation="15" result="blur"/><feOffset result="offset"/><feComposite in="offset" in2="SourceGraphic" operator="atop" result="composite2"/></filter></defs><path d="M0 0h512v512H0Z" fill="#b90202" style="fill:#1b1f21;fill-opacity:1"/><g style="fill:#e64539;fill-opacity:1;filter:url(#a)"><path d="M180 360h440a20.003 20.003 0 0 0 17.32-10 19.993 19.993 0 0 0 0-20A20.004 20.004 0 0 0 620 320H180a20.003 20.003 0 0 0-17.32 10 19.993 19.993 0 0 0 0 20A20.004 20.004 0 0 0 180 360zm60 800h320a40.01 40.01 0 0 0 28.285-11.715A40.01 40.01 0 0 0 600 1120V400H200v720a40.01 40.01 0 0 0 11.715 28.285A40.01 40.01 0 0 0 240 1160zm20-440h220a39.996 39.996 0 0 0 39.715-35.496 40 40 0 0 0-59-39.566 39.994 39.994 0 0 0-18.453 21.723 20.01 20.01 0 0 1-10.125 11.992 20.004 20.004 0 0 1-27.559-25.313 80.016 80.016 0 0 1 36.918-43.46 79.994 79.994 0 0 1 103.832 23.933 80.006 80.006 0 0 1-12.05 105.871A80.003 80.003 0 0 1 480 760H260a20.003 20.003 0 0 1-17.32-10 19.993 19.993 0 0 1 0-20A20.004 20.004 0 0 1 260 720zm0 200h220a39.996 39.996 0 0 0 39.715-35.496 40 40 0 0 0-59-39.566 39.994 39.994 0 0 0-18.453 21.723 20.01 20.01 0 0 1-10.125 11.992 20.004 20.004 0 0 1-27.559-25.313 80.016 80.016 0 0 1 36.918-43.46 79.994 79.994 0 0 1 103.832 23.933 80.006 80.006 0 0 1-12.05 105.871A80.003 80.003 0 0 1 480 960H260a20.003 20.003 0 0 1-17.32-10 19.993 19.993 0 0 1 0-20A20.004 20.004 0 0 1 260 920zM580 60h80v80h-80zM260 200h280V40H340a80.012 80.012 0 0 0-56.57 23.43A80.015 80.015 0 0 0 260 120Zm335.78 80a64 64 0 0 0-39.223-40h-313.12a64.002 64.002 0 0 0-39.223 40z" style="fill:#e64539;fill-opacity:1" transform="translate(87.107 8.84) scale(.41193)"/></g></svg>