<svg viewBox="0 0 512 512" style="height:512px;width:512px" xmlns="http://www.w3.org/2000/svg"><defs><filter style="color-interpolation-filters:sRGB" id="a" x="-.059" y="-.038" width="1.117" height="1.075"><feFlood flood-opacity="1" flood-color="#3A3F5E" result="flood"/><feComposite in="flood" in2="SourceGraphic" operator="out" result="composite1"/><feGaussianBlur in="composite1" stdDeviation="15" result="blur"/><feOffset result="offset"/><feComposite in="offset" in2="SourceGraphic" operator="atop" result="composite2"/></filter></defs><path d="M.359-.21h512v512h-512Z" fill="#1b1f21"/><g transform="translate(-33.225 -34.439) scale(.48166)" style="fill:#e64539;fill-opacity:1;filter:url(#a)"><path d="M554.88 470.16a4.112 4.112 0 0 1 0-1.2l21.121-68.28-46.32-54.48a6.364 6.364 0 0 1-1.078-5.64l13.078-45.122-36-22.44V273a5.868 5.868 0 0 1-2.879-5.039v-110.88c-39.359 12.602-99 33.238-116.04 48-26.762 22.922-93.961 390.84-93.961 390.84L345.36 612s87.719-285.84 96-315.6c0 0 22.199 226.32 14.641 247.32-7.558 21-81.359 475.08-81.359 487.44a1193.038 1193.038 0 0 0 180 45.121v-605.52a5.35 5.35 0 0 1 .238-.602z" style="fill:#e64539;fill-opacity:1"/><path d="m855.6 612 52.559-15.719s-66.602-368.28-92.879-391.2c-16.801-14.398-74.16-34.559-113.52-47.16v110.04a5.88 5.88 0 0 1-2.883 5.04l-36 22.44 12.961 45.121v-.004a6.364 6.364 0 0 1-1.199 5.64l-108 126.72v604.92a280.137 280.137 0 0 0 33.359 2.16h.719c81.84 0 225.48-48.84 225.48-48.84 0-12-74.16-466.68-81.84-487.8-7.68-21.12 14.64-247.32 14.64-247.32 9 29.763 96.603 315.96 96.603 315.96zM593.76 287.28l8.04 27 57-188.28h-114l48.718 160.68z" style="fill:#e64539;fill-opacity:1"/><path d="M649.56 294.36a6.123 6.123 0 0 1 2.64-6.84l37.56-22.922.004-106.56-20.398-25.44-94.56 312 88.079-103.92zm-54 40.56-13.441-44.641v-.602l-48-157.08-20.398 25.441v106.56l38.281 23.398a5.88 5.88 0 0 1 2.64 6.84l-14.038 45.961 39.12 46.2z" style="fill:#e64539;fill-opacity:1"/></g></svg>