<svg viewBox="0 0 512 512" style="height:512px;width:512px" xmlns="http://www.w3.org/2000/svg"><defs><filter style="color-interpolation-filters:sRGB" id="a" x="-.036" y="-.029" width="1.071" height="1.058"><feFlood flood-opacity="1" flood-color="#3A3F5E" result="flood"/><feComposite in="flood" in2="SourceGraphic" operator="out" result="composite1"/><feGaussianBlur in="composite1" stdDeviation="10" result="blur"/><feOffset result="offset"/><feComposite in="offset" in2="SourceGraphic" operator="atop" result="composite2"/></filter></defs><path d="M.359-.21h512v512h-512Z" fill="#1b1f21"/><g transform="translate(-90.836 -155.913) scale(.57807)" style="fill:#e64539;fill-opacity:1;filter:url(#a)"><path d="m431.25 1018.6 150 60v-34.609l-150-60zm337.5-34.65-150 60v34.609l150-60zm-337.5-115.4 150 60v-34.609l-150-60zm187.5 60 150-60v-34.609l-150 60zm-187.5-210 150 60v-34.609l-150-60z" style="fill:#e64539;fill-opacity:1"/><path d="m863.62 593.59 72.242-198.75-47.453-94.836h-151.16l-126.36 90.242a18.756 18.756 0 0 1-10.895 3.492 18.757 18.757 0 0 1-10.895-3.492l-126.36-90.242h-151.16l-47.457 94.914 72.242 198.75h.004a18.748 18.748 0 0 1-.844 14.793l-72.188 144.38 68.023 357.04a18.738 18.738 0 0 0 6.465 10.938 18.765 18.765 0 0 0 11.95 4.309h250.22a37.488 37.488 0 0 1-6.978-1.332l-187.5-75a18.775 18.775 0 0 1-8.59-6.95 18.765 18.765 0 0 1-3.183-10.582v-75a18.745 18.745 0 0 1 8.238-15.539 18.747 18.747 0 0 1 17.488-1.879l180.52 72.224 180.52-72.228v.004a18.746 18.746 0 0 1 17.488 1.88 18.746 18.746 0 0 1 8.239 15.538v75a18.759 18.759 0 0 1-3.215 10.516 18.77 18.77 0 0 1-8.559 6.903l-187.5 75a36.845 36.845 0 0 1-6.976 1.332h250.22a18.72 18.72 0 0 0 11.949-4.309 18.736 18.736 0 0 0 6.464-10.934l68.023-357.04-72.188-144.38a18.762 18.762 0 0 1-.843-14.758zM337.87 960l-37.5-187.5a18.737 18.737 0 0 1 1.594-12.055l37.5-75 33.562 16.762-34.633 69.262 36.227 181.03zm468.38-78.75a18.759 18.759 0 0 1-3.215 10.516 18.77 18.77 0 0 1-8.558 6.902l-187.5 75A36.847 36.847 0 0 1 600 975a36.855 36.855 0 0 1-6.977-1.332l-187.5-75a18.77 18.77 0 0 1-8.558-6.902 18.756 18.756 0 0 1-3.215-10.516v-75a18.745 18.745 0 0 1 8.238-15.539 18.747 18.747 0 0 1 17.488-1.879l180.52 72.223 180.52-72.227v.004a18.746 18.746 0 0 1 17.488 1.879 18.746 18.746 0 0 1 8.239 15.539zm0-150a18.759 18.759 0 0 1-3.215 10.516 18.77 18.77 0 0 1-8.558 6.902l-187.5 75A36.847 36.847 0 0 1 600 825a36.855 36.855 0 0 1-6.977-1.332l-187.5-75a18.77 18.77 0 0 1-8.558-6.902 18.756 18.756 0 0 1-3.215-10.516v-75a18.745 18.745 0 0 1 8.238-15.539 18.747 18.747 0 0 1 17.488-1.879l180.52 72.223 180.52-72.227v.004a18.746 18.746 0 0 1 17.488 1.879 18.746 18.746 0 0 1 8.239 15.539zm6.414-132.39-206.25 75a18.53 18.53 0 0 1-12.828 0l-206.25-75a18.748 18.748 0 0 1-11.004-10.648l-75-187.5a18.75 18.75 0 0 1 .637-15.34l18.75-37.5a18.76 18.76 0 0 1 16.781-10.367H450c4.059 0 8.004 1.316 11.25 3.75L600 445.315l138.75-104.06a18.751 18.751 0 0 1 11.25-3.75h112.5a18.745 18.745 0 0 1 16.875 10.367l18.75 37.5a18.75 18.75 0 0 1 .637 15.34l-75 187.5a18.739 18.739 0 0 1-11.098 10.648zm86.961 173.64-37.5 187.5-36.75-7.5 36.227-181.18-34.633-69.262 33.562-16.762 37.5 75v-.004a18.736 18.736 0 0 1 1.594 12.207z" style="fill:#e64539;fill-opacity:1"/><path d="m349.09 375-9.71 19.613 68.757 171.88 173.12 62.98v-151.35l-137.49-103.12zm201.64 170.08-13.949 34.836-93.75-37.5a18.752 18.752 0 0 1-10.441-10.461l-37.5-93.75 34.836-13.914 34.52 86.25zM756.24 375 618.75 478.12v151.35l173.21-62.98 68.758-171.88-9.805-19.613zm11.25 156.96a18.743 18.743 0 0 1-10.441 10.461l-93.75 37.5-13.949-34.836 86.25-34.52 34.52-86.25 34.836 13.914zM618.75 778.55l150-60v-34.609l-150 60z" style="fill:#e64539;fill-opacity:1"/></g></svg>