<svg height="512" width="512" xmlns="http://www.w3.org/2000/svg"><defs><filter style="color-interpolation-filters:sRGB" id="a" x="-.091" y="-.038" width="1.183" height="1.077"><feFlood flood-opacity="1" flood-color="#3A3F5E" result="flood"/><feComposite in="flood" in2="SourceGraphic" operator="out" result="composite1"/><feGaussianBlur in="composite1" stdDeviation="15" result="blur"/><feOffset result="offset"/><feComposite in="offset" in2="SourceGraphic" operator="atop" result="composite2"/></filter></defs><path d="M0 0h512v512H0Z" fill="#b90202" style="fill:#1b1f21;fill-opacity:1"/><g transform="translate(153.24 242.176) scale(.50854)" style="fill:#e64539;fill-opacity:1;filter:url(#a)"><g style="fill:#e64539;fill-opacity:1"><path d="M846 665.88v-132h-81.84A176.312 176.312 0 0 1 777 600.001c0 23.281-4.559 45.602-12.84 65.879zM600 445.56c-85.199 0-154.08 69.238-154.08 154.44 0 84.84 68.879 154.08 154.08 154.08 84.84 0 154.08-69.238 154.08-154.08 0-85.199-69.238-154.44-154.08-154.44zm0 255.24c-35.879 0-65.281-29.16-65.281-65.281 0-31.559 49.68-120.72 55.078-130.44 4.32-7.32 15.961-7.32 20.16 0 5.52 9.84 55.078 99 55.078 130.44.246 36.121-29.156 65.281-65.035 65.281Z" style="fill:#e64539;fill-opacity:1" transform="translate(-278.806 -399.912) scale(.80146)"/><path d="M557.76 635.52c0 23.281 18.961 42.238 42.238 42.238 23.281 0 42.238-18.961 42.238-42.238 0-16.199-22.922-64.68-42.238-101.04-19.32 36.48-42.238 84.84-42.238 101.04zM354 665.88h81.84c-8.281-20.16-12.84-42.602-12.84-65.879 0-23.281 4.559-45.602 12.84-66.121H354Zm0-155.04h93.121c30.602-52.68 87.602-88.199 152.88-88.199 65.281 0 122.28 35.52 152.88 88.199h93.121V80.471h-492zm0 608.689h492V688.8h-93.121c-30.602 52.68-87.602 88.199-152.88 88.199-65.281 0-122.28-35.52-152.88-88.199h-93.121z" style="fill:#e64539;fill-opacity:1" transform="translate(-278.806 -399.912) scale(.80146)"/></g><path d="M290.123-366.813v-52.98c0-16.004-12.98-28.977-28.977-28.977h-118.14c-16.004 0-28.977 12.973-28.977 28.977v52.98zm-33.746-53.325a7.3 7.3 0 1 1 14.598 0v30.883a7.299 7.299 0 1 1-14.598 0zm-30.809 0a7.302 7.302 0 0 1 14.602 0v30.883c0 4.03-3.274 7.3-7.301 7.3a7.3 7.3 0 0 1-7.3-7.3zm-30.805 0a7.304 7.304 0 0 1 7.3-7.301 7.3 7.3 0 0 1 7.302 7.3v30.884a7.302 7.302 0 0 1-14.602 0zm-30.805 0c0-4.032 3.274-7.301 7.309-7.301a7.299 7.299 0 0 1 7.297 7.3v30.884c0 4.03-3.266 7.3-7.297 7.3-4.035 0-7.309-3.27-7.309-7.3zm-30.8 0a7.302 7.302 0 0 1 14.602 0v30.883a7.306 7.306 0 0 1-7.302 7.3 7.3 7.3 0 0 1-7.3-7.3z" style="fill:#e64539;fill-opacity:1" transform="translate(-20.374 51.04) scale(1.10082)"/></g></svg>