<svg viewBox="0 0 512 512" style="height:512px;width:512px" xmlns="http://www.w3.org/2000/svg"><defs><filter style="color-interpolation-filters:sRGB" id="a" x="-.032" y="-.083" width="1.064" height="1.167"><feFlood flood-opacity="1" flood-color="#3A3F5E" result="flood"/><feComposite in="flood" in2="SourceGraphic" operator="out" result="composite1"/><feGaussianBlur in="composite1" stdDeviation="15" result="blur"/><feOffset result="offset"/><feComposite in="offset" in2="SourceGraphic" operator="atop" result="composite2"/></filter></defs><path d="M.359-.21h512v512h-512Z" fill="#1b1f21"/><g transform="matrix(-.42394 0 0 .42394 506.723 -36.29)" style="fill:#e64539;fill-opacity:1;filter:url(#a)"><path d="M25.945 711h22.367v46.5H25.945ZM1149 613.99c-9.816-25.078-36-31.094-36-31.078 0 0-216-75.91-271.5-93.91-55.5-18.004-61.5-15.004-61.5-15.004l74.508 139.99M311.7 802.5c0 56.676-45.938 102.6-102.6 102.6-56.664 0-102.6-45.926-102.6-102.6 0-56.674 45.938-102.61 102.6-102.61 56.668 0 102.6 45.938 102.6 102.61zm-102.6-48c-26.508 0-48 21.492-48 48s21.492 48 48 48 48-21.492 48-48-21.492-48-48-48zm858 48c0 56.676-45.938 102.6-102.6 102.6-56.676 0-102.61-45.926-102.61-102.6 0-56.674 45.938-102.61 102.61-102.61 56.664 0 102.6 45.938 102.6 102.61zm-102.6-48c-26.508 0-48 21.492-48 48s21.492 48 48 48 48-21.492 48-48-21.492-48-48-48z" style="fill:#e64539;fill-opacity:1"/><path d="M969.3 771.3c0 6.398-9.602 6.398-9.602 0 0-6.402 9.602-6.402 9.602 0m-1.85 62.4c0 6.402-9.602 6.402-9.602 0 0-6.398 9.602-6.398 9.602 0m-29.35-31.94c0 6.398-9.602 6.398-9.602 0 0-6.402 9.602-6.402 9.602 0m62.4 1.86c0 6.398-9.602 6.398-9.602 0 0-6.402 9.602-6.402 9.602 0m-53.39-23.66c0 6.398-9.602 6.398-9.602 0 0-6.402 9.602-6.402 9.602 0m42.8 45.45c0 6.402-9.598 6.402-9.598 0 0-6.398 9.598-6.398 9.598 0m-43.32-1.86c0 6.402-9.602 6.402-9.602 0 0-6.398 9.602-6.398 9.602 0m45.45-42.81c0 6.418-9.625 6.418-9.625 0 0-6.414 9.625-6.414 9.625 0m-778.13-9.44c0 6.398-9.598 6.398-9.598 0 0-6.402 9.598-6.402 9.598 0m-1.86 62.4c0 6.402-9.598 6.402-9.598 0 0-6.398 9.598-6.398 9.598 0m-29.34-31.94c0 6.398-9.598 6.398-9.598 0 0-6.402 9.598-6.402 9.598 0m62.39 1.86c0 6.398-9.602 6.398-9.602 0 0-6.402 9.602-6.402 9.602 0m-53.39-23.66c0 6.398-9.598 6.398-9.598 0 0-6.402 9.598-6.402 9.598 0m42.82 45.45c0 6.402-9.598 6.402-9.598 0 0-6.398 9.598-6.398 9.598 0m-43.35-1.86c0 6.402-9.598 6.402-9.598 0 0-6.398 9.598-6.398 9.598 0m45.46-42.81c0 6.418-9.625 6.418-9.625 0 0-6.414 9.625-6.414 9.625 0" style="fill:#e64539;fill-opacity:1"/><path d="m844.75 626.89 306.49.266c4.106.047 5.629 4.87 5.629 10.332v120l-76.992-.204c-7.57-56.82-56.734-93.55-115.64-93.55-64.164 0-113.75 40.245-129.49 109.03 0 0-17.258 41.964-83.258 41.964l-348.36-.004c-66 0-69-36.469-69-36.469 0-64.14-65.34-109.03-129.49-109.03-50.711 0-95.305 28.945-111.25 72.742h-32.88v-27.719h11.954l.047-79.273s-7.5-14.988 155.5-33l132 .004 24-97.98s7.5-30 27-30l353.26-.19zM563 502H417.99v117h145V502Zm185 .012H602.99v117H748Zm-308.15 164.15-5.195 5.82 48.48 39.742-48.48 39.348 5.195 6.562 50.566-40.105 49.574 40.121 5.844-6.925-48.121-38.988 48.12-39.383-5.472-6.192-49.945 40.094zm187.07 0-5.207 5.82 48.492 39.742-48.492 39.348 5.207 6.562 50.578-40.105 49.57 40.105 5.82-6.925-48.109-38.988 48.11-39.383-5.462-6.192-49.934 40.094z" style="fill:#e64539;fill-opacity:1"/></g></svg>