<svg viewBox="0 0 512 512" style="height:512px;width:512px" xmlns="http://www.w3.org/2000/svg"><defs><filter style="color-interpolation-filters:sRGB" id="a" x="-.027" y="-.034" width="1.053" height="1.069"><feFlood flood-opacity="1" flood-color="#3A3F5E" result="flood"/><feComposite in="flood" in2="SourceGraphic" operator="out" result="composite1"/><feGaussianBlur in="composite1" stdDeviation="15" result="blur"/><feOffset result="offset"/><feComposite in="offset" in2="SourceGraphic" operator="atop" result="composite2"/></filter></defs><path d="M.359-.21h512v512h-512Z" fill="#1b1f21"/><g transform="translate(40.668 39.906) scale(.36016)" style="fill:#e64539;fill-opacity:1;filter:url(#a)"><g style="fill:#e64539;fill-opacity:1"><path d="m390.88 712.5-12.488 75h30.711l-12.488-75zm115.37-255.86L300 520.089v35.777l206.25-63.449z" style="fill:#e64539;fill-opacity:1"/><path d="M487.5 607.27 300 669.766v455.23h187.5zm93.75-353.49L420.84 146.9a18.747 18.747 0 0 1-8.344-15.656v-50.98l-37.5 9.375v69.375l206.25 142.78zM706.82 150H493.18L600 221.211ZM557.06 330.58 345.58 184.16a18.764 18.764 0 0 1-8.082-15.414v-25.914l-143.59 71.793 97.105 194.21zM450 75h300v37.5H450Zm375 14.645-37.5-9.375v50.98c0 6.27-3.129 12.121-8.344 15.602l-160.41 106.93v47.926l206.25-142.78zM112.5 975h150v37.5h-150zm150-539.32-94.855-189.7-55.145 96.508v595.013h150V435.68z" style="fill:#e64539;fill-opacity:1"/><path d="M581.25 1125V362.55L300 445.273v35.625l219.49-67.5a18.761 18.761 0 0 1 16.625 2.82 18.755 18.755 0 0 1 7.637 15.031v75a18.75 18.75 0 0 1-3.668 11.141 18.746 18.746 0 0 1-9.57 6.786l-230.51 70.93v35.137l200.32-66.77v.004a18.578 18.578 0 0 1 16.874 2.546A18.762 18.762 0 0 1 525 581.25V1125zM937.5 975h150v37.5h-150zm-75-806.25a18.764 18.764 0 0 1-8.082 15.414l-211.48 146.42 266.04 78.262 97.105-194.21-143.59-71.797zM803.38 712.5l-12.488 75h30.711l-12.488-75zm284.12-370.01-55.145-96.508-94.855 189.7v501.82h150V342.49z" style="fill:#e64539;fill-opacity:1"/><path d="m900 445.27-281.25-82.723v762.45H675v-543.75a18.766 18.766 0 0 1 7.781-15.227 18.555 18.555 0 0 1 16.875-2.547l200.34 66.766v-35.137l-230.51-70.93a18.746 18.746 0 0 1-9.57-6.785 18.749 18.749 0 0 1-3.668-11.141v-75c0-5.95 2.824-11.547 7.61-15.086a18.746 18.746 0 0 1 16.651-2.84L900 480.86z" style="fill:#e64539;fill-opacity:1"/><path d="M900 555.86v-35.777l-206.25-63.449v35.777zm0 113.91-187.5-62.496v517.73H900Z" style="fill:#e64539;fill-opacity:1"/></g><g style="fill:#e64539;fill-opacity:1"><path style="fill:#e64539;fill-opacity:1;stroke-width:.335868" d="M683.305 719.391c6.297-8.015 12.595-16.03 18.892-23.473 4.008 1.717 8.015 2.289 12.596 2.289 15.456-.572 28.051-14.313 27.48-30.343 0-4.58-1.146-9.158-3.436-13.166 79.577-88.166 155.148-149.996 211.255-151.141L774.857 712.17l-.097-.491-81.307 16.131-10.148-8.417zm44.202 36.668 12.581-2.496-6.403 7.622z" transform="scale(1 -1) rotate(-78.778 -379.83 456.34)" fill-rule="evenodd"/></g><g style="fill:#e64539;fill-opacity:1"><path style="fill:#e64539;fill-opacity:1;stroke-width:.335868" d="M683.305 719.391c6.297-8.015 12.595-16.03 18.892-23.473 4.008 1.717 8.015 2.289 12.596 2.289 15.456-.572 28.051-14.313 27.48-30.343 0-4.58-1.146-9.158-3.436-13.166 79.577-88.166 155.148-149.996 211.255-151.141L774.857 712.17l-.097-.491-81.307 16.131-10.148-8.417zm44.202 36.668 12.581-2.496-6.403 7.622z" transform="rotate(101.222 972.57 802.804)" fill-rule="evenodd"/></g></g></svg>