<svg height="512" width="512" xmlns="http://www.w3.org/2000/svg"><defs><filter style="color-interpolation-filters:sRGB" id="a" x="-.03" y="-.036" width="1.06" height="1.072"><feFlood flood-opacity="1" flood-color="#3A3F5E" result="flood"/><feComposite in="flood" in2="SourceGraphic" operator="out" result="composite1"/><feGaussianBlur in="composite1" stdDeviation="15" result="blur"/><feOffset result="offset"/><feComposite in="offset" in2="SourceGraphic" operator="atop" result="composite2"/></filter></defs><path d="M0 0h512v512H0Z" fill="#b90202" style="fill:#1b1f21;fill-opacity:1"/><g transform="translate(15.8 15.8) scale(.40033)" style="fill:#e64539;fill-opacity:1;filter:url(#a)"><path d="M775 300H425c-13.801 0-25-11.199-25-25V175c0-41.352 33.648-75 75-75h250c41.352 0 75 33.648 75 75v100c0 13.801-11.199 25-25 25zm-325-50h300v-75c0-13.801-11.199-25-25-25H475c-13.801 0-25 11.199-25 25z" style="fill:#e64539;fill-opacity:1"/><path d="M1125 250H75L0 325v225h1200V325ZM950 600v100H850V600H350v100H250V600H0v425l75 75h1050l75-75V600Z" style="fill:#e64539;fill-opacity:1"/></g></svg>