<svg width="512" height="512" version="1.1" id="svg8" xml:space="preserve" xmlns="http://www.w3.org/2000/svg"><defs id="defs12"><filter style="color-interpolation-filters:sRGB" id="filter875" x="-.313" y="-.169" width="1.609" height="1.328"><feFlood flood-opacity="1" flood-color="#3A3F5E" result="flood" id="feFlood865"/><feComposite in="flood" in2="SourceGraphic" operator="out" result="composite1" id="feComposite867"/><feGaussianBlur in="composite1" stdDeviation="15" result="blur" id="feGaussianBlur869"/><feOffset dx="0" dy="0" result="offset" id="feOffset871"/><feComposite in="offset" in2="SourceGraphic" operator="atop" result="composite2" id="feComposite873"/></filter><filter style="color-interpolation-filters:sRGB" id="filter1015" x="-.082" y="-.044" width="1.164" height="1.088"><feFlood flood-opacity="1" flood-color="#3A3F5E" result="flood" id="feFlood1005"/><feComposite in="flood" in2="SourceGraphic" operator="out" result="composite1" id="feComposite1007"/><feGaussianBlur in="composite1" stdDeviation="8.302" result="blur" id="feGaussianBlur1009"/><feOffset dx="0" dy="0" result="offset" id="feOffset1011"/><feComposite in="offset" in2="SourceGraphic" operator="atop" result="composite2" id="feComposite1013"/></filter><filter style="color-interpolation-filters:sRGB" id="filter35638" x="-.057" y="-.131" width="1.114" height="1.261"><feFlood flood-opacity="1" flood-color="#3A3F5E" result="flood" id="feFlood35628"/><feComposite in="flood" in2="SourceGraphic" operator="out" result="composite1" id="feComposite35630"/><feGaussianBlur in="composite1" stdDeviation="6" result="blur" id="feGaussianBlur35632"/><feOffset dx="0" dy="0" result="offset" id="feOffset35634"/><feComposite in="offset" in2="SourceGraphic" operator="atop" result="composite2" id="feComposite35636"/></filter><filter style="color-interpolation-filters:sRGB" id="filter35813" x="-.053" y="-.07" width="1.107" height="1.139"><feFlood flood-opacity="1" flood-color="#3A3F5E" result="flood" id="feFlood35803"/><feComposite in="flood" in2="SourceGraphic" operator="out" result="composite1" id="feComposite35805"/><feGaussianBlur in="composite1" stdDeviation="8" result="blur" id="feGaussianBlur35807"/><feOffset dx="0" dy="0" result="offset" id="feOffset35809"/><feComposite in="offset" in2="SourceGraphic" operator="atop" result="composite2" id="feComposite35811"/></filter><filter style="color-interpolation-filters:sRGB" id="filter36051" x="-.028" y="-.039" width="1.056" height="1.078"><feFlood flood-opacity="1" flood-color="#3A3F5E" result="flood" id="feFlood36041"/><feComposite in="flood" in2="SourceGraphic" operator="out" result="composite1" id="feComposite36043"/><feGaussianBlur in="composite1" stdDeviation="6" result="blur" id="feGaussianBlur36045"/><feOffset dx="0" dy="0" result="offset" id="feOffset36047"/><feComposite in="offset" in2="SourceGraphic" operator="atop" result="composite2" id="feComposite36049"/></filter><filter style="color-interpolation-filters:sRGB" id="filter36715" x="-.07" y="-.091" width="1.139" height="1.182"><feFlood flood-opacity="1" flood-color="#3A3F5E" result="flood" id="feFlood36705"/><feComposite in="flood" in2="SourceGraphic" operator="out" result="composite1" id="feComposite36707"/><feGaussianBlur in="composite1" stdDeviation="16.201" result="blur" id="feGaussianBlur36709"/><feOffset dx="0" dy="0" result="offset" id="feOffset36711"/><feComposite in="offset" in2="SourceGraphic" operator="atop" result="composite2" id="feComposite36713"/></filter><filter style="color-interpolation-filters:sRGB" id="filter37057" x="-.08" y="-.075" width="1.16" height="1.15"><feFlood flood-opacity="1" flood-color="#3A3F5E" result="flood" id="feFlood37047"/><feComposite in="flood" in2="SourceGraphic" operator="out" result="composite1" id="feComposite37049"/><feGaussianBlur in="composite1" stdDeviation=".5" result="blur" id="feGaussianBlur37051"/><feOffset dx="0" dy="0" result="offset" id="feOffset37053"/><feComposite in="offset" in2="SourceGraphic" operator="atop" result="composite2" id="feComposite37055"/></filter><filter style="color-interpolation-filters:sRGB" id="filter3381" x="-.08" y="-.165" width="1.159" height="1.33"><feFlood flood-opacity="1" flood-color="#3A3F5E" result="flood" id="feFlood3371"/><feComposite in="flood" in2="SourceGraphic" operator="out" result="composite1" id="feComposite3373"/><feGaussianBlur in="composite1" stdDeviation="15" result="blur" id="feGaussianBlur3375"/><feOffset dx="0" dy="0" result="offset" id="feOffset3377"/><feComposite in="offset" in2="SourceGraphic" operator="atop" result="composite2" id="feComposite3379"/></filter><filter style="color-interpolation-filters:sRGB" id="filter5102" x="-.031" y="-.045" width="1.062" height="1.091"><feFlood flood-opacity="1" flood-color="#3A3F5E" result="flood" id="feFlood5092"/><feComposite in="flood" in2="SourceGraphic" operator="out" result="composite1" id="feComposite5094"/><feGaussianBlur in="composite1" stdDeviation="15" result="blur" id="feGaussianBlur5096"/><feOffset dx="0" dy="0" result="offset" id="feOffset5098"/><feComposite in="offset" in2="SourceGraphic" operator="atop" result="composite2" id="feComposite5100"/></filter><filter style="color-interpolation-filters:sRGB" id="filter5801" x="-.027" y="-.388" width="1.055" height="1.776"><feFlood flood-opacity="1" flood-color="#3A3F5E" result="flood" id="feFlood5791"/><feComposite in="flood" in2="SourceGraphic" operator="out" result="composite1" id="feComposite5793"/><feGaussianBlur in="composite1" stdDeviation="5" result="blur" id="feGaussianBlur5795"/><feOffset dx="0" dy="0" result="offset" id="feOffset5797"/><feComposite in="offset" in2="SourceGraphic" operator="atop" result="composite2" id="feComposite5799"/></filter></defs><path d="M0 0h512v512H0z" fill="#b90202" fill-opacity="1" id="path2" style="fill:#1b1f21;fill-opacity:1"/><style type="text/css" id="style35976">.st0{fill:#000}</style><g id="g3996" transform="matrix(-.39043 0 0 .39043 484.83 -5.412)" style="fill:#e64539;fill-opacity:1;filter:url(#filter5102)"><path id="path3988" style="fill:#e64539;fill-opacity:1" d="M598.6 260.637c6.353 0 11.501 5.152 11.501 11.5v7.965h63.173v8.004h477.003c9.524 0 10.328 12.701.876 13.697l-360.034 37.98c-1.832.19-3.617-.204-5.133-1.146-8.122-5.082-37.286-22.37-75.583-33.992-11.503-3.5-24.358-6.27-37.14-8.485v6.939h-53.427v221.373c.832 4.57-1.03 11.989 4.853 14.297l114.358.29-.365 32.697 149.491-6.168 39.81 95.499-34.847 171.637-157.37.24c-.11 9.899-.003.004-.12 10.63 30 22.583 49.52 58.391 49.52 98.746 0 68.22-55.499 123.723-123.708 123.723-68.21 0-123.714-55.504-123.714-123.723 0-14.473 2.625-28.33 7.234-41.256H165.574c24.772 14.05 41.554 40.62 41.561 71.082 0 45.046-36.647 81.706-81.706 81.706-45.06 0-81.707-36.66-81.707-81.706 0-30.462 16.787-57.033 41.561-71.082h-20.99v-62.562l26.248-.06-27.944-59.88 30.255-18.005 36.439 79.716 210.857-.88c7.825-12.785 18.79-25.986 29.866-34.568 22.356-13.97 154.705 2.333 204.394-15.058v-234.92l-39.325-37.254c-8.446-7.994-11.441-23.161-6.608-33.797l17.724-38.97c4.618-10.165 16.962-18.357 28.209-19.11V303.104h-50.36v-6.954c-12.81 2.214-25.69 5-37.205 8.495-38.293 11.622-67.456 28.91-75.583 33.992-1.516.942-3.301 1.342-5.133 1.15L46.093 301.804c-9.448-.996-8.643-13.697.876-13.697h477.083v-8.004H587.1v-7.964c0-6.353 5.151-11.5 11.5-11.5z"/></g></svg>