<svg viewBox="0 0 512 512" style="height:512px;width:512px" xmlns="http://www.w3.org/2000/svg"><defs><filter style="color-interpolation-filters:sRGB" id="a" x="-.021" y="-.076" width="1.042" height="1.151"><feFlood flood-opacity="1" flood-color="#3A3F5E" result="flood"/><feComposite in="flood" in2="SourceGraphic" operator="out" result="composite1"/><feGaussianBlur in="composite1" stdDeviation="10" result="blur"/><feOffset result="offset"/><feComposite in="offset" in2="SourceGraphic" operator="atop" result="composite2"/></filter></defs><path d="M.359-.21h512v512h-512Z" fill="#1b1f21"/><g transform="translate(.69 1.143) scale(.42509)" style="fill:#e64539;fill-opacity:1;filter:url(#a)"><path d="M955.2 627.6c-39.602 0-72 32.398-72 72s32.398 72 72 72 72-32.398 72-72-32.398-72-72-72zm-649.2 0c-39.602 0-72 32.398-72 72s32.398 72 72 72 72-32.398 72-72-32.398-72-72-72zm477.6-89.18h10.797l-63.598-56.402h-10.801z" style="fill:#e64539;fill-opacity:1"/><path d="m1156.704 640.7.302-48.297-354.684-49.182-394.32-8.402-13.2-10.801s38.399-22.801 84-37.2c37.2-12 139.2-12 139.2-12h106.8l-52.8-20.397c-103.096 1.476-207.054-7.914-308.398 15.602l-186 64.797-137.998 28.796s0 20.398 1.199 34.8l-13.104.826v30l14.303-.821-1.087 55.475 184.66 11.598c-6.266-.368 14.284-65.956 46.289-77.018 22.858-7.901 50.805-12.044 73.199 0 28.841 23.126 39.455 32.767 46.135 69.94l12.213 19.087 466.312-.048s4.623-28.823 11.075-43.039c0 0 21.57-37.056 42.491-42.417 22.232-5.697 45.17-4.153 68.35-.12 21.283 3.702 36.748 20.407 40.692 42.526l7.666 43.214 105.843-.453 8.459-36.469 12.79-.256 6.208-29.617z" style="fill:#e64539;fill-opacity:1"/></g></svg>