<svg height="512" width="512" xmlns="http://www.w3.org/2000/svg"><defs><filter style="color-interpolation-filters:sRGB" id="a" x="-.075" y="-.038" width="1.15" height="1.077"><feFlood flood-opacity="1" flood-color="#3A3F5E" result="flood"/><feComposite in="flood" in2="SourceGraphic" operator="out" result="composite1"/><feGaussianBlur in="composite1" stdDeviation="15" result="blur"/><feOffset result="offset"/><feComposite in="offset" in2="SourceGraphic" operator="atop" result="composite2"/></filter></defs><path d="M0 0h512v512H0Z" fill="#b90202" style="fill:#1b1f21;fill-opacity:1"/><g style="fill:#e64539;fill-opacity:1;filter:url(#a)"><path style="fill:#e64539;fill-opacity:1" d="m990.001 301.2-480 .002-.003 803.998H990ZM861.5 536.345l-90.397 198.352 62.31-208.007Zm-37.3-34.669a9.307 9.307 0 0 1 0 13.164c-3.635 3.635-9.53 3.638-13.166.003-3.635-3.635-3.632-9.531.003-13.166a9.307 9.307 0 0 1 13.164 0zm-66.7-30.716c4.362 4.363 4.36 11.436-.003 15.798-4.363 4.363-11.433 4.362-15.795 0-4.362-4.363-4.365-11.435-.003-15.798 4.363-4.362 11.438-4.362 15.8 0zm40.811 44.32-52.664 215.027 13.166-220.292zm73.723 78.991c4.363 4.364 4.362 11.439 0 15.8-4.363 4.364-11.435 4.361-15.798-.002-4.362-4.362-4.363-11.432 0-15.795 4.363-4.362 11.436-4.365 15.798-.003zM722.824 467l-5.27 242.237-30.279-240.043Zm76.803 105.768a6.207 6.207 0 1 1-8.779 8.778 6.207 6.207 0 0 1 8.78-8.778zm76.354 76.354-71.968 103.564 45.639-117.607ZM675.863 489.377c3.636 3.636 3.636 9.534 0 13.17-3.635 3.635-9.53 3.632-13.166-.004a9.308 9.308 0 0 1 0-13.163c3.636-3.635 9.532-3.637 13.166-.003zM882.565 703.98c5.09 5.089 5.087 13.34-.003 18.429-5.089 5.089-13.34 5.092-18.429.003-5.09-5.09-5.089-13.343 0-18.432 5.09-5.09 13.342-5.09 18.432 0zM657.01 513.528l36.858 222.05-72.842-212.393Zm84.251 84.257a6.204 6.204 0 1 1-8.774 8.774 6.204 6.204 0 1 1 8.775-8.774zm-53.977-31.16a6.203 6.203 0 0 1 .003 8.775 6.206 6.206 0 1 1-8.778-8.778 6.204 6.204 0 0 1 8.775.003zm94.788 96.543a7.447 7.447 0 0 1 0 10.532 7.447 7.447 0 1 1 0-10.532zM805.332 711c3.635 3.635 3.632 9.53-.003 13.166a9.307 9.307 0 0 1-13.164 0 9.307 9.307 0 0 1 0-13.163c3.636-3.635 9.531-3.638 13.166-.003zm28.083 28.966s26.768 26.767 26.768 28.523c8.338 38.177-2.193 79.43-32.034 109.27-47.392 47.392-123.75 47.395-171.145 0-47.394-47.394-46.514-123.752-.877-170.268l26.765 50.466 41.256-37.741 21.063 51.782 32.47-28.961 14.923 43.881zm-96.979-43.448a7.45 7.45 0 0 1-.003 10.535 7.443 7.443 0 0 1-10.529-.003 7.443 7.443 0 0 1-.003-10.53 7.45 7.45 0 0 1 10.535-.002zm-32.913-15.359a6.206 6.206 0 1 1-8.778 8.777 6.206 6.206 0 1 1 8.778-8.777zm-53.98-19.748c5.089 5.09 5.09 13.342 0 18.432-5.09 5.09-13.34 5.087-18.43-.003-5.089-5.09-5.092-13.34-.003-18.429 5.09-5.09 13.343-5.09 18.432 0zM570 1178.4h360l49.199-49.199h-458.4zm300-937.2H630l-120 36h480z" transform="rotate(-45 204.518 442.985) scale(.49752)"/></g></svg>