<svg width="512" height="512" xml:space="preserve" xmlns="http://www.w3.org/2000/svg"><defs><filter style="color-interpolation-filters:sRGB" id="a" x="-.072" y="-.039" width="1.145" height="1.077"><feFlood flood-opacity="1" flood-color="#3A3F5E" result="flood"/><feComposite in="flood" in2="SourceGraphic" operator="out" result="composite1"/><feGaussianBlur in="composite1" stdDeviation="15" result="blur"/><feOffset result="offset"/><feComposite in="offset" in2="SourceGraphic" operator="atop" result="composite2"/></filter></defs><path d="M0 0h512v512H0Z" fill="#b90202" style="fill:#1b1f21;fill-opacity:1"/><g style="fill:#e64539;fill-opacity:1;filter:url(#a)"><path d="M799.32 234.52h1.402c6.168 0 11.184-5.004 11.184-11.184v-5.809c0-6.18-5.004-11.184-11.184-11.184h-401.45c-6.168 0-11.184 5.004-11.184 11.184v5.809c0 6.168 5.004 11.184 11.184 11.184h1.403c-5.293 29.82-49.703 67.199-49.703 114.46v713.72c0 31.859 17.172 42.227 30.59 49.391 3.422 1.824 13.414 10.02 17.71 27.91h401.45c4.298-17.891 14.282-26.09 17.712-27.91 13.414-7.152 30.59-17.531 30.59-49.391V348.98c-.004-47.258-44.414-84.637-49.707-114.46z" style="fill:#e64539;fill-opacity:1" transform="translate(-39.462 -75.496) scale(.49244)"/></g></svg>