<svg width="512" height="512" xml:space="preserve" xmlns="http://www.w3.org/2000/svg"><defs><filter style="color-interpolation-filters:sRGB" id="a" x="-.042" y="-.035" width="1.085" height="1.069"><feFlood flood-opacity="1" flood-color="#3A3F5E" result="flood"/><feComposite in="flood" in2="SourceGraphic" operator="out" result="composite1"/><feGaussianBlur in="composite1" stdDeviation="15" result="blur"/><feOffset result="offset"/><feComposite in="offset" in2="SourceGraphic" operator="atop" result="composite2"/></filter></defs><path d="M0 0h512v512H0Z" fill="#b90202" style="fill:#1b1f21;fill-opacity:1"/><g transform="translate(-16.581 -16.576) scale(.45429)" style="fill:#e64539;fill-opacity:1;filter:url(#a)"><path d="M441.19 982.29c2.473 34.344 28.98 61.848 62.219 66.613l16.344 46.176c5.387 15.215 19.738 24.984 35.316 24.984 2.52 0 5.063-.254 7.61-.77 18.335-3.78 31.093-20.53 29.843-39.227l-6.492-97.465c.254-3.503.348-7.043.098-10.645l-15.805-230.71-145.66-.004zm44.34-16.812c0-15.527 12.59-28.129 28.129-28.129 15.516 0 28.129 12.602 28.129 28.129 0 15.527-12.613 28.129-28.129 28.129-15.539 0-28.129-12.602-28.129-28.129z" style="fill:#e64539;fill-opacity:1"/><path d="m1025.3 270.38-28.945-14.867c-9.144-4.703-226.32-115.49-440.89-152.28-121.33-20.805-138.89-22.941-140.47-23.109l-.012.07c-4.21-.457-8.52-.3-12.78.73l-163.39 38.942c-20.149 4.8-32.579 25.03-27.77 45.18 4.812 20.148 25.02 32.578 45.167 27.78l140.36-33.468 53.461 66.215c-89.328 43.824-166.92 130.97-216.74 242.57-57.672 124.96-74.398 275.09-42.758 409.15 7.489 31.754 17.88 62.844 31.523 92.496 11.22 24.406 24.121 61.332 56.016 61.332 25.008-.602 33.72-22.234 41.785-42.121 13.691-33.742 24.54-68.641 32.555-104.17 29.953-132.64 22.871-281.03-42.758-402.38 34.105-69.781 80.555-127.38 132.97-165.02l-11.258 68.52c-16.547 100.84-19.57 171.96-11.832 280.3h145.67l-.539-7.895c-7.14-98.328-4.691-158.8 10.094-248.84l23.965-145.84 93.516-38.71-6.949 37.354 153.62 28.57-8.652 36.422 158.73 37.691 3.168 1.106zM282.52 852.95a608.263 608.263 0 0 1-9.445 40.297c-31.031-99.266-29.258-209.1-1.621-308.96 27.3 86.242 28.609 180.37 11.066 268.67-2.711 13.582 18.648-93.77 0 0zm335.69-644.64c-15.527 0-28.117-12.602-28.117-28.129 0-15.527 12.59-28.129 28.117-28.129 15.527 0 28.129 12.602 28.129 28.129 0 15.527-12.602 28.129-28.129 28.129z" style="fill:#e64539;fill-opacity:1"/></g></svg>