<svg viewBox="0 0 512 512" style="height:512px;width:512px" xmlns="http://www.w3.org/2000/svg"><defs><filter style="color-interpolation-filters:sRGB" id="a" x="-.054" y="-.054" width="1.108" height="1.108"><feFlood flood-opacity="1" flood-color="#3A3F5E" result="flood"/><feComposite in="flood" in2="SourceGraphic" operator="out" result="composite1"/><feGaussianBlur in="composite1" stdDeviation="10" result="blur"/><feOffset result="offset"/><feComposite in="offset" in2="SourceGraphic" operator="atop" result="composite2"/></filter></defs><path d="M.359-.21h512v512h-512Z" fill="#1b1f21"/><path d="M213.146 34.401h85.721a3.183 3.183 0 0 1 3.177 3.177c0 .836-.338 1.657-.929 2.247l-9.92 9.922h-70.377l-9.914-9.914a3.209 3.209 0 0 1-.935-2.256 3.183 3.183 0 0 1 3.176-3.176zm35.187 61.382V87.62c1.672.214 3.33.49 5.041.49h5.264c1.71 0 3.376-.276 5.042-.49l-.001 8.163zm26.586-29.754c-4.351 4.341-10.128 6.736-16.282 6.736h-5.264c-6.154 0-11.939-2.394-16.282-6.736l-.927-.937h39.69zM93.572 123.282c29.656-29.425 64.059-52.956 102.28-69.955l4.748-2.11 25.643 25.65c2.056 2.065 4.343 3.777 6.744 5.295v21.292a7.67 7.67 0 0 0 7.672 7.673h7.673v15.345h15.346v-15.345h7.672a7.67 7.67 0 0 0 7.673-7.673V82.162c2.401-1.512 4.688-3.23 6.744-5.286l25.65-25.65 4.74 2.103c38.219 16.995 72.624 40.528 102.28 69.954l58.304 123.898c-5.387 4.557-10.413 9.468-14.94 14.778-3.1-26.41-11.693-51.962-25.457-74.903l-40.466-67.442c-3.136-5.233-8.876-8.486-14.983-8.486-9.637 0-17.47 7.834-17.47 17.471v8.763a82.243 82.243 0 0 0 4.173 25.85l-103.92 71.44v-92.835h-15.345v103.384l-107.419 73.85v-134.41a67.19 67.19 0 0 1 3.437-21.215 82.28 82.28 0 0 0 4.236-26.064v-8.763c0-9.636-7.834-17.47-17.471-17.47-6.108 0-11.846 3.253-14.978 8.478l-40.466 67.451c-13.765 22.933-22.35 48.492-25.458 74.894-4.526-5.31-9.552-10.213-14.94-14.778ZM371.096 413.68c-17.617 7.848-36.952 12.03-56.234 12.03h-51.184v-64.766l107.418-74.08Zm-230.182-76.007 107.419-73.851v50.431l-107.419 73.851zm0 69.054 107.419-73.85v20.01l-95.114 65.592a135.565 135.565 0 0 1-12.306-4.803zm122.764-84.4 107.418-73.85v19.749l-107.418 74.08zm-15.345 49.204v54.176h-51.185c-8.103 0-16.212-.76-24.207-2.187zm122.763-141.678-107.418 73.85v-50.43L370.695 179.7c.123 1.65.4 3.283.4 4.941zm-337.6 95.167v-58.526c16.113 16.581 26.94 37.58 30.73 60.24l7.196 71.965a42.231 42.231 0 0 0 2.77 11.309l5.01 12.537c4.373 10.926 12.95 19.089 23.41 23.202l-28.105 9.369c-14.633-36.43-26.962-73.929-36.484-111.969Zm50.247 152.579c-1.19-2.732-2.233-5.525-3.398-8.27l34.059-11.356 2.071 8.708zm6.79-219.792a90.318 90.318 0 0 0-11.002 43.135c0 7.036.822 14.049 2.447 20.861l26.104 109.628c-6.538-2.616-11.893-7.75-14.633-14.594L88.44 404.3a26.564 26.564 0 0 1-1.756-7.158l-7.259-72.439c-2.524-15.153-7.733-29.54-15.176-42.652.33-30.683 8.777-60.76 24.575-87.093L129.29 127.5c.982-1.64 3.952-.819 3.952 1.1v8.762a67.19 67.19 0 0 1-3.437 21.216 82.263 82.263 0 0 0-4.236 26.063v8.93zm247.177 198.59H174.295l-24.744-19.787c-1.672-1.343-3.047-2.932-4.267-4.626 16.604 5.938 34.26 9.068 51.86 9.068h117.714c17.6 0 35.248-3.13 51.86-9.076-1.22 1.696-2.587 3.283-4.267 4.626zm92.319-134.585a90.065 90.065 0 0 0 2.447-20.87 90.373 90.373 0 0 0-11.002-43.144l-35.034-64.23v-8.93c0-8.87-1.428-17.64-4.237-26.065a67.19 67.19 0 0 1-3.436-21.215v-8.763c0-1.918 2.97-2.74 3.951-1.09l40.466 67.45c15.806 26.348 24.254 56.443 24.575 87.142a130.92 130.92 0 0 0-15.246 43.098l-7.197 71.932a26.078 26.078 0 0 1-1.756 7.174l-5.01 12.537c-2.74 6.845-8.095 11.977-14.633 14.594zm-1.765 155.787-32.74-10.911 2.071-8.709 34.06 11.356c-1.158 2.74-2.202 5.534-3.391 8.264zm45.721-134.463c-9.506 37.996-21.82 75.446-36.492 111.968l-28.104-9.369c10.465-4.113 19.036-12.276 23.41-23.202l5.01-12.537a41.659 41.659 0 0 0 2.77-11.325l7.127-71.448c3.844-23.065 14.677-44.134 30.798-60.732v58.526z" style="fill:#e64539;fill-opacity:1;stroke-width:.409211;filter:url(#a)"/></svg>