<svg viewBox="0 0 512 512" style="height:512px;width:512px" xmlns="http://www.w3.org/2000/svg"><defs><filter style="color-interpolation-filters:sRGB" id="a" x="-.035" y="-.098" width="1.069" height="1.196"><feFlood flood-opacity="1" flood-color="#3A3F5E" result="flood"/><feComposite in="flood" in2="SourceGraphic" operator="out" result="composite1"/><feGaussianBlur in="composite1" stdDeviation="7" result="blur"/><feOffset result="offset"/><feComposite in="offset" in2="SourceGraphic" operator="atop" result="composite2"/></filter></defs><path d="M.359-.21h512v512h-512Z" fill="#1b1f21"/><g transform="matrix(-1 0 0 1 532 0)" style="fill:#e64539;fill-opacity:1;filter:url(#a)"><path style="fill:#e64539;stroke-width:.431624;fill-opacity:1" d="M194.902 161.324c-2.849 0-7.008 1.445-9.24 3.217l-38.898 36.912c-2.233 1.767-6.382 3.455-9.215 3.75l-87.227 9.078c-2.832.295-7.286 1.47-9.898 2.615l-2.32 1.016c-2.548 1.12-4.61 4.258-4.708 7.055l-.058.002c-2.85 0-5.178 2.33-5.178 5.18v34.96c-2.85 0-5.18 2.336-5.18 5.18v16.326c0 3.367 2.606 5.137 5.18 5.836l25.217-.002c3.018-20.195 20.438-35.652 41.432-35.652h.2c20.95.088 38.238 15.55 41.249 35.648l181.205-.01c3.024-20.188 20.443-35.638 41.432-35.638h.199c20.943.088 38.23 15.544 41.246 35.634h11.922c3.025-20.186 20.44-35.634 41.427-35.634h.202c20.941.088 38.227 15.54 41.246 35.629h9c2.822-.393 4.883-2.45 4.883-5.3v-16.74c0-2.849-.921-3.568-2.346-3.568l-.004-.006c-1.425 0-2.832-2.325-2.832-5.18v-31.51c0-5.406-5.247-10.488-10.426-10.488l-159.537.002-8.623-53.226c-.528-2.797-3.295-5.086-6.143-5.086zm4.284 6.977h46.642v42.203h-31.025c-2.85 0-6.5 1.923-8.121 4.264l-4.942 7.164c-1.615 2.347-5.272 4.261-8.12 4.261h-35.895c-2.85 0-5.18-2.33-5.18-5.18V210.19c0-2.849 1.808-6.655 4.01-8.453l33.443-30.162c2.207-1.802 6.343-3.273 9.188-3.273zm56.79.002h48.864c2.85 0 5.527 2.304 5.957 5.12l5.049 31.962c.43 2.817-1.555 5.12-4.403 5.12h-55.466zM312.8 295.025v.006h.002zm0 .006H142.162c.078 1.193.171 7.204.166 8.416-.005 1.15.547 3.409 3.246 3.409H307.62c2.85 0 5.18-2.167 5.18-4.819z"/><path d="M453.855 264.403h-.164c-18.87 0-34.217 15.255-34.294 34.15-.083 18.954 15.204 34.37 34.142 34.449h.16c18.865 0 34.217-15.26 34.298-34.154.08-18.936-15.206-34.365-34.142-34.445zm-94.795 0h-.165c-18.87 0-34.217 15.255-34.294 34.15-.083 18.954 15.205 34.37 34.142 34.449h.16c18.865 0 34.217-15.26 34.298-34.154.08-18.936-15.206-34.365-34.142-34.445zm-264.085 0h-.164c-18.87 0-34.217 15.255-34.294 34.15-.084 18.954 15.204 34.37 34.142 34.449h.16c18.865 0 34.217-15.26 34.298-34.154.079-18.936-15.206-34.365-34.142-34.445z" style="fill:#e64539;stroke-width:.350214;fill-opacity:1"/></g></svg>