<svg width="512" height="512" xml:space="preserve" xmlns="http://www.w3.org/2000/svg"><defs><filter style="color-interpolation-filters:sRGB" id="a" x="-.046" y="-.036" width="1.091" height="1.072"><feFlood flood-opacity="1" flood-color="#3A3F5E" result="flood"/><feComposite in="flood" in2="SourceGraphic" operator="out" result="composite1"/><feGaussianBlur in="composite1" stdDeviation="15" result="blur"/><feOffset result="offset"/><feComposite in="offset" in2="SourceGraphic" operator="atop" result="composite2"/></filter></defs><path d="M0 0h512v512H0Z" fill="#b90202" style="fill:#1b1f21;fill-opacity:1"/><g transform="translate(-22.657 -51.859) scale(.46443)" style="fill:#e64539;fill-opacity:1;filter:url(#a)"><path d="M357.57 1054c-30.84 0-55.938 25.094-55.938 55.945 0 30.84 25.094 55.938 55.938 55.938 30.852 0 55.945-25.094 55.945-55.938-.012-30.852-25.094-55.945-55.945-55.945Zm0 96.938c-22.605 0-40.992-18.387-40.992-40.992 0-22.605 18.387-40.992 40.992-40.992 22.605 0 40.992 18.395 40.992 40.992 0 22.594-18.387 40.992-40.992 40.992z" style="fill:#e64539;fill-opacity:1"/><path d="M357.57 1088.6c-11.754 0-21.316 9.563-21.316 21.316 0 11.754 9.563 21.316 21.316 21.316 11.754 0 21.316-9.563 21.316-21.316 0-11.754-9.563-21.316-21.316-21.316zm72.39-.4 28.863-17.637v-34.027l-44.316 23.816c6.973 7.996 12.312 17.434 15.453 27.848zM407.8 952.63c0 15.188 12.355 27.555 27.555 27.555h23.473v-37.168c-17.609-6.414-34.617-14.047-51.027-22.684zm192.2-4.47c217.33 0 394.15-176.82 394.15-394.15 0-217.32-176.81-394.14-394.15-394.14-217.34 0-394.15 176.82-394.15 394.15 0 217.33 176.82 394.14 394.15 394.14zM345.83 541.25h134.44c2.106-25.766 12.305-49.227 28.137-67.848l-95.078-95.09a9.824 9.824 0 0 1 0-13.91 9.824 9.824 0 0 1 13.91 0l95.078 95.09c18.621-15.82 42.094-26.031 67.848-28.137v-134.44c0-5.43 4.406-9.836 9.836-9.836 5.43 0 9.836 4.406 9.836 9.836v134.44c25.766 2.105 49.227 12.305 67.848 28.137l95.078-95.09a9.824 9.824 0 0 1 13.91 0 9.824 9.824 0 0 1 0 13.91l-95.066 95.09c15.82 18.621 26.03 42.094 28.137 67.848h134.44c5.43 0 9.836 4.406 9.836 9.836 0 5.43-4.406 9.836-9.836 9.836l-134.45.004c-2.106 25.754-12.316 49.227-28.137 67.848l95.078 95.09a9.824 9.824 0 0 1 0 13.91 9.812 9.812 0 0 1-6.953 2.883 9.805 9.805 0 0 1-6.953-2.883l-95.078-95.09c-18.621 15.82-42.094 26.03-67.848 28.137v134.45c0 5.43-4.407 9.836-9.836 9.836-5.43 0-9.836-4.406-9.836-9.836l-.004-134.45c-25.766-2.106-49.227-12.305-67.848-28.137l-95.078 95.09a9.812 9.812 0 0 1-6.953 2.883 9.805 9.805 0 0 1-6.953-2.883 9.824 9.824 0 0 1 0-13.91l95.078-95.09c-15.82-18.621-26.031-42.086-28.137-67.848h-134.44c-5.43 0-9.836-4.406-9.836-9.836-.004-5.43 4.402-9.84 9.836-9.84z" style="fill:#e64539;fill-opacity:1"/><path d="M600 651.65c55.445 0 100.56-45.105 100.56-100.55S655.455 450.54 600 450.54c-55.455 0-100.56 45.105-100.56 100.56.012 55.43 45.113 100.55 100.56 100.55zm164.66 328.53c15.188 0 27.555-12.355 27.555-27.555V920.32c-16.41 8.648-33.418 16.281-51.027 22.684v37.176zm-23.47 90.32 28.863 17.637c3.137-10.406 8.48-19.852 15.453-27.852l-44.316-23.816zm101.26-16.5c-30.852 0-55.945 25.094-55.945 55.945 0 30.84 25.094 55.938 55.945 55.938 30.84 0 55.938-25.094 55.938-55.938-.004-30.852-25.098-55.945-55.938-55.945Zm0 96.938c-22.605 0-40.992-18.387-40.992-40.992 0-22.605 18.387-40.992 40.992-40.992 22.605 0 40.992 18.395 40.992 40.992 0 22.594-18.387 40.992-40.992 40.992z" style="fill:#e64539;fill-opacity:1"/><path d="M842.45 1088.6c-11.754 0-21.316 9.563-21.316 21.316 0 11.754 9.563 21.316 21.316 21.316 11.754 0 21.316-9.563 21.316-21.316 0-11.754-9.562-21.316-21.316-21.316zm-310.47-69.1v.992c0 4.781 3.894 8.668 8.668 8.668h121.34c4.781 0 8.668-3.887 8.668-8.668v-.992c0-4.781-3.894-8.668-8.668-8.668h-121.34c-4.781 0-8.668 3.883-8.668 8.664z" style="fill:#e64539;fill-opacity:1"/><path d="M478.5 949.61v119.98c16.016 6.621 64.496 24.484 121.51 24.484 57.02 0 105.49-17.855 121.51-24.484l.004-119.98c-38.445 11.836-79.242 18.23-121.51 18.23-42.273-.004-83.078-6.398-121.52-18.23zm211.85 69.922v.992c0 15.621-12.711 28.34-28.34 28.34H540.65c-15.633 0-28.34-12.71-28.34-28.34v-.992c0-15.621 12.711-28.34 28.34-28.34h121.34c15.633-.004 28.352 12.715 28.352 28.336zM549.27 1109.6v22.676c0 5.5 4.477 9.977 9.977 9.977h81.578c5.5 0 9.976-4.477 9.976-9.977v-22.684c-15.633 2.488-32.738 4.14-50.789 4.14-18.035 0-35.12-1.644-50.742-4.132z" style="fill:#e64539;fill-opacity:1"/></g></svg>