<svg viewBox="0 0 512 512" style="height:512px;width:512px" xmlns="http://www.w3.org/2000/svg"><defs><filter style="color-interpolation-filters:sRGB" id="a" x="-.056" y="-.1" width="1.111" height="1.201"><feFlood flood-opacity="1" flood-color="#3A3F5E" result="flood"/><feComposite in="flood" in2="SourceGraphic" operator="out" result="composite1"/><feGaussianBlur in="composite1" stdDeviation="5" result="blur"/><feOffset result="offset"/><feComposite in="offset" in2="SourceGraphic" operator="atop" result="composite2"/></filter></defs><path d="M.359-.21h512v512h-512Z" fill="#1b1f21"/><path style="fill:#e64539;fill-opacity:1;fill-rule:evenodd;stroke-width:.169681;filter:url(#a)" d="M328.843 1171.441c10.582-.19 12.57 3.586 12.57 12.574a2.526 2.526 0 0 1-2.514 2.515h-87.311c-7.265 0-18.455-2.283-16.522-6.41 1.755-3.753 5.694-6.166 12.187-6.166zm3.774 17.603v47.779h-5.031v-6.286h-75.44v6.286h-5.03v-47.78h5.03v36.464h75.44v-36.463zm-178.679 16.162a6.797 6.797 0 0 1 1.78.158 14.964 14.964 0 0 1 14.092 9.976h8.355a2.495 2.495 0 0 1 0 4.989h-7.482a4.988 4.988 0 0 1-3.217 4.639c-5.886 13.243-4.465 25.415 2.045 35.266h16.685l3.916-15.688a7.633 7.633 0 0 1 2.694-14.54c30.827-1.92 31.45-2.868 34.917.499a8.48 8.48 0 0 1 1.995 9.776 14.965 14.965 0 0 1 14.516 13.32l.948 8.579a4.99 4.99 0 0 1-4.989 5.537c-1.147 0 .325 0 .325 4.988a17.465 17.465 0 0 1-10.111 15.887 17.457 17.457 0 0 1-24.158-20.551c-6.385 1.77-4.664 7.158-8.13 7.158h-37.612a17.46 17.46 0 0 1-34.504.681 17.459 17.459 0 0 1 1.083-9.71 2.492 2.492 0 0 1-.973-3.442 19.952 19.952 0 0 1 16.76-9.976 58.187 58.187 0 0 1 6.037-21.898c4.39-8.804 2.918-4.09.324-7.607l-.624.15a8.33 8.33 0 0 1-7.133-14.64 8.206 8.206 0 0 1 7.757-1.373 6.808 6.808 0 0 1 4.704-2.178zm164.905 1.82c.518.01 1.043.074 1.565.213 3.34.894 5.339 4.36 4.445 7.698l-2.159 8.056h-13.017l3.03-11.31c.756-2.817 3.34-4.68 6.136-4.657zm-163.124 3.326h-2.495v9.977h12.47a9.976 9.976 0 0 0-9.975-9.977zm-9.064 1.642a3.345 3.345 0 0 0-3.414 3.35 3.343 3.343 0 0 0 1.304 2.64 3.367 3.367 0 0 0 2.868.599l.823-.2v-6.085l-.823-.2a3.323 3.323 0 0 0-.758-.104zm173.346 21.057-1.012 3.77h-13.015l1.01-3.77zm-98.045.221c-2.788-.075-9.606.522-28.826 1.722a2.645 2.645 0 0 0 .15 5.288h28.732a3.543 3.543 0 0 0 2.42-6.136c-.581-.542-.803-.829-2.476-.874zm110.652 6.067v25.145c0 4.15-3.396 7.544-7.544 7.544h-13.832c0-11.803-9.567-21.373-21.373-21.373-11.805 0-21.373 9.57-21.373 21.373h-18.862a2.521 2.521 0 0 1-2.515-2.513v-30.176zm-104.56 13.413h-9.977a2.495 2.495 0 0 0 0 4.988h9.976a2.495 2.495 0 0 0 0-4.988zm61.817.416c10.415 0 18.862 8.445 18.862 18.862 0 10.418-8.444 18.862-18.862 18.862-10.417 0-18.861-8.442-18.861-18.862 0-10.417 8.444-18.862 18.861-18.862zm-146.42 4.521a14.965 14.965 0 0 0-11.196 5.04c7.857 0 14.042-1.198 18.058 4.863 2.02 3.018 4.888 2.619 7.906 2.619a14.964 14.964 0 0 0-14.768-12.522zm146.42 4.281c-5.556 0-10.059 4.504-10.059 10.058 0 5.556 4.504 10.059 10.06 10.059 5.554 0 10.058-4.504 10.058-10.06 0-5.552-4.506-10.057-10.059-10.057zm-55.383 5.746h-5.886a7.48 7.48 0 0 1-5.536 12.515 7.483 7.483 0 0 1-5.537-12.514h-5.886a12.472 12.472 0 0 0 11.422 17.458 12.491 12.491 0 0 0 10.43-5.642 12.47 12.47 0 0 0 .993-11.816zm-96.771 0h-5.886a12.472 12.472 0 0 0 11.423 17.46 12.475 12.475 0 0 0 12.221-9.977 10.875 10.875 0 0 1-4.988-1.047 7.482 7.482 0 0 1-4.001 5.43 7.497 7.497 0 0 1-6.744.01 7.482 7.482 0 0 1-2.025-11.87zm85.348 2.495a2.493 2.493 0 1 0 0 4.986 2.493 2.493 0 0 0 0-4.986zm-79.811 0a2.495 2.495 0 1 0 .001 4.99 2.495 2.495 0 0 0-.001-4.99z" transform="matrix(-2.26778 0 0 2.26778 785.706 -2536.006)"/></svg>