<svg viewBox="0 0 512 512" style="height:512px;width:512px" xmlns="http://www.w3.org/2000/svg"><defs><filter style="color-interpolation-filters:sRGB" id="a" x="-.038" y="-.082" width="1.077" height="1.164"><feFlood flood-opacity="1" flood-color="#3A3F5E" result="flood"/><feComposite in="flood" in2="SourceGraphic" operator="out" result="composite1"/><feGaussianBlur in="composite1" stdDeviation="15" result="blur"/><feOffset result="offset"/><feComposite in="offset" in2="SourceGraphic" operator="atop" result="composite2"/></filter></defs><path d="M.359-.21h512v512h-512Z" fill="#1b1f21"/><g transform="translate(158.674 143.734) scale(.52378)" style="fill:#e64539;fill-opacity:1;filter:url(#a)"><g style="fill:#e64539;fill-opacity:1"><path d="M933.77 596.5h-.469c-53.879 0-97.703 43.559-97.922 97.512-.238 54.121 43.414 98.137 97.488 98.363h.457c53.867 0 97.703-43.57 97.934-97.523.227-54.07-43.418-98.125-97.488-98.352zm-679.59 3.8h-.434c-53.89 0-97.68 43.547-97.922 97.523-.238 54.121 43.402 98.137 97.512 98.363h.434c53.879 0 97.68-43.57 97.934-97.523.23-54.059-43.438-98.125-97.523-98.363z" style="fill:#e64539;fill-opacity:1" transform="matrix(-.7821 0 0 .7821 703.293 -188.957)"/><path d="M768.72 690.42v16.246c0 6.144-5.398 11.16-12 11.16H381.29c-6.254 0-7.535-5.23-7.523-7.895.011-2.808-.204-16.738-.383-19.5h395.34zm365.76-65.367c-3.3 0-6.563-5.387-6.563-12v-96.168c0-12.527-12.155-24.301-24.155-24.301l-323.28.004-19.98-76.98c-1.223-6.48-7.633-11.785-14.23-11.785h-287.77c-6.602 0-16.234 3.348-21.406 7.453l-90.121 62.352c-5.172 4.094-14.785 8.004-21.348 8.688l-202.09 21.035c-6.563.683-16.883 3.406-22.934 6.058l-5.375 2.352c-5.903 2.594-10.68 9.863-10.906 16.344l-.133.004c-6.602 0-12 5.398-12 12v81c-6.602 0-12 5.41-12 12v37.824c0 7.8 6.035 11.902 12 13.523h62.027s.84-4.106 1.511-7.801c10.234-55.848 59.352-98.398 118.02-98.398 61.801.254 112.27 46.715 119.14 106.18h395.84v-.07l45.133.07c5.137-61.453 56.797-109.99 119.46-109.99 63.086.277 114.38 48.695 119.53 109.95 4.61-.3 9.278.492 12.758 0h63c6.54-.91 11.316-5.676 11.316-12.277v-38.785c0-6.602-2.136-8.27-5.437-8.27zm-395.77-133.05c.996 6.527-3.602 11.867-10.199 11.867h-128.51v-83.879h113.21c6.602 0 12.805 5.34 13.801 11.867zm-291.57-64.43c5.113-4.176 14.699-7.586 21.289-7.586h108.06v83.88H504.61c-6.602 0-15.059 4.452-18.816 9.874l-11.449 16.598c-3.742 5.438-12.215 9.875-18.816 9.875h-83.16c-6.602 0-12-5.398-12-12v-25.078c0-6.602 4.188-15.422 9.29-19.586z" style="fill:#e64539;fill-opacity:1" transform="matrix(-.7821 0 0 .7821 703.293 -188.957)"/></g><path style="fill:#e64539;fill-opacity:1;stroke-width:.712639" d="m76.082-5.071 317.018.947-37.71 123.247H105.099L86.635 187.56l-344.202-.008-.847-97.713h-19.625c-3.497 0-6.55-3.07-6.55-6.55V57.335c0-29.99 24.319-54.337 54.336-54.337L26.468 2.99c8.722 0 8.722 13.083 0 13.083l-86.606.003v13.042l64.916-.007ZM-73.215 16.07h-60.396v13.076l60.396-.033zm-73.476.008h-83.556c-22.799 0-41.253 18.47-41.253 41.252l.017 19.413h13.074V57.33c0-15.547 12.606-28.18 28.16-28.177h83.559zM349.316 31.46H142.113v37.287h192.238ZM-91.367 54.813h-71.505l-61.71 29.703.75 45.52h132.465Zm153.621.241h-116.76v74.977h116.76Z"/></g></svg>