<svg width="512" height="512" version="1.1" id="svg8" xml:space="preserve" xmlns="http://www.w3.org/2000/svg"><defs id="defs12"><filter style="color-interpolation-filters:sRGB" id="filter875" x="-.313" y="-.169" width="1.609" height="1.328"><feFlood flood-opacity="1" flood-color="#3A3F5E" result="flood" id="feFlood865"/><feComposite in="flood" in2="SourceGraphic" operator="out" result="composite1" id="feComposite867"/><feGaussianBlur in="composite1" stdDeviation="15" result="blur" id="feGaussianBlur869"/><feOffset dx="0" dy="0" result="offset" id="feOffset871"/><feComposite in="offset" in2="SourceGraphic" operator="atop" result="composite2" id="feComposite873"/></filter><filter style="color-interpolation-filters:sRGB" id="filter1015" x="-.082" y="-.044" width="1.164" height="1.088"><feFlood flood-opacity="1" flood-color="#3A3F5E" result="flood" id="feFlood1005"/><feComposite in="flood" in2="SourceGraphic" operator="out" result="composite1" id="feComposite1007"/><feGaussianBlur in="composite1" stdDeviation="8.302" result="blur" id="feGaussianBlur1009"/><feOffset dx="0" dy="0" result="offset" id="feOffset1011"/><feComposite in="offset" in2="SourceGraphic" operator="atop" result="composite2" id="feComposite1013"/></filter><filter style="color-interpolation-filters:sRGB" id="filter35638" x="-.057" y="-.131" width="1.114" height="1.261"><feFlood flood-opacity="1" flood-color="#3A3F5E" result="flood" id="feFlood35628"/><feComposite in="flood" in2="SourceGraphic" operator="out" result="composite1" id="feComposite35630"/><feGaussianBlur in="composite1" stdDeviation="6" result="blur" id="feGaussianBlur35632"/><feOffset dx="0" dy="0" result="offset" id="feOffset35634"/><feComposite in="offset" in2="SourceGraphic" operator="atop" result="composite2" id="feComposite35636"/></filter><filter style="color-interpolation-filters:sRGB" id="filter35813" x="-.053" y="-.07" width="1.107" height="1.139"><feFlood flood-opacity="1" flood-color="#3A3F5E" result="flood" id="feFlood35803"/><feComposite in="flood" in2="SourceGraphic" operator="out" result="composite1" id="feComposite35805"/><feGaussianBlur in="composite1" stdDeviation="8" result="blur" id="feGaussianBlur35807"/><feOffset dx="0" dy="0" result="offset" id="feOffset35809"/><feComposite in="offset" in2="SourceGraphic" operator="atop" result="composite2" id="feComposite35811"/></filter><filter style="color-interpolation-filters:sRGB" id="filter36051" x="-.028" y="-.039" width="1.056" height="1.078"><feFlood flood-opacity="1" flood-color="#3A3F5E" result="flood" id="feFlood36041"/><feComposite in="flood" in2="SourceGraphic" operator="out" result="composite1" id="feComposite36043"/><feGaussianBlur in="composite1" stdDeviation="6" result="blur" id="feGaussianBlur36045"/><feOffset dx="0" dy="0" result="offset" id="feOffset36047"/><feComposite in="offset" in2="SourceGraphic" operator="atop" result="composite2" id="feComposite36049"/></filter><filter style="color-interpolation-filters:sRGB" id="filter36715" x="-.07" y="-.091" width="1.139" height="1.182"><feFlood flood-opacity="1" flood-color="#3A3F5E" result="flood" id="feFlood36705"/><feComposite in="flood" in2="SourceGraphic" operator="out" result="composite1" id="feComposite36707"/><feGaussianBlur in="composite1" stdDeviation="16.201" result="blur" id="feGaussianBlur36709"/><feOffset dx="0" dy="0" result="offset" id="feOffset36711"/><feComposite in="offset" in2="SourceGraphic" operator="atop" result="composite2" id="feComposite36713"/></filter><filter style="color-interpolation-filters:sRGB" id="filter37057" x="-.08" y="-.075" width="1.16" height="1.15"><feFlood flood-opacity="1" flood-color="#3A3F5E" result="flood" id="feFlood37047"/><feComposite in="flood" in2="SourceGraphic" operator="out" result="composite1" id="feComposite37049"/><feGaussianBlur in="composite1" stdDeviation=".5" result="blur" id="feGaussianBlur37051"/><feOffset dx="0" dy="0" result="offset" id="feOffset37053"/><feComposite in="offset" in2="SourceGraphic" operator="atop" result="composite2" id="feComposite37055"/></filter><filter style="color-interpolation-filters:sRGB" id="filter3381" x="-.08" y="-.165" width="1.159" height="1.33"><feFlood flood-opacity="1" flood-color="#3A3F5E" result="flood" id="feFlood3371"/><feComposite in="flood" in2="SourceGraphic" operator="out" result="composite1" id="feComposite3373"/><feGaussianBlur in="composite1" stdDeviation="15" result="blur" id="feGaussianBlur3375"/><feOffset dx="0" dy="0" result="offset" id="feOffset3377"/><feComposite in="offset" in2="SourceGraphic" operator="atop" result="composite2" id="feComposite3379"/></filter></defs><path d="M0 0h512v512H0z" fill="#b90202" fill-opacity="1" id="path2" style="fill:#1b1f21;fill-opacity:1"/><style type="text/css" id="style35976">.st0{fill:#000}</style><path id="path2056" style="fill:#e64539;fill-opacity:1;stroke-width:.37734;filter:url(#filter3381)" d="m199.46 158.603-.04-.002-.041.002h-7.055c-27.885 0-100.927 35.538-114.865 42.451H43.746a7.07 7.07 0 0 0-7.076 7.074v18.297l-5.002 5.002a7.046 7.046 0 0 0-2.073 5.002v11.525c0 1.883.744 3.68 2.075 5.004l21.224 21.225a7.027 7.027 0 0 0 3.842 1.963c.342.057.69.093 1.047.1.052 0 .103.007.154.007h42.281V318.7c0 .488.05.963.143 1.423v.004c0 .004.003.008.004.011.094.457.231.899.408 1.319a7.05 7.05 0 0 0 1.516 2.248 7.097 7.097 0 0 0 3.566 1.925l.01.002h.006c.46.094.935.143 1.422.143h7.197c1.375 42.608 1.192 50.752 21.254 50.752 20.063 0 19.88-8.143 21.254-50.752h7.198a7.019 7.019 0 0 0 3.957-1.207 7.096 7.096 0 0 0 2.562-3.111c.16-.38.284-.78.377-1.19.01-.046.026-.092.035-.138v-.002c.006-.03.008-.062.014-.092.082-.433.129-.877.129-1.334v-42.448h176.578V318.7c0 .488.05.963.144 1.423v.004l.002.011a7.039 7.039 0 0 0 .426 1.35 7.04 7.04 0 0 0 5.076 4.144c.461.094.939.143 1.428.143h7.197c1.374 42.608 1.19 50.752 21.252 50.752 20.062 0 19.88-8.142 21.254-50.752h7.197a7.019 7.019 0 0 0 3.959-1.207 7.097 7.097 0 0 0 1.91-1.91 7.036 7.036 0 0 0 .663-1.235c.17-.41.306-.84.398-1.285l.002-.015c.094-.46.145-.934.145-1.422v-42.447h56.431l-.002.004a7.07 7.07 0 0 0 7.075-7.077V250.58a7.096 7.096 0 0 0-.743-3.162l-4.775-9.551 3.402-3.361a7.08 7.08 0 0 0 1.975-6.432 7.05 7.05 0 0 0-4.29-5.172c-1.478-.594-36.911-14.539-127.407-21.67-15.415-11.49-58.589-42.629-73.34-42.629-77.78-.01-12.312 0-77.766 0zm7.036 14.15h70.73c5.532 0 27.065 13.096 48.85 28.299l-119.58-.002zm-14.15 8.024v18.996l-18.999-3.166zm25.396 29.683h14.15c3.912 0 7.076-.837 7.076 3.074 0 3.912-3.164 3.077-7.076 3.077h-14.15c-3.912 0-7.074.835-7.074-3.077 0-3.911 3.162-3.074 7.074-3.074zm-81.998 37.342c19.506 0 21.377 1.868 21.377 21.373v14.149h-42.752v-14.149c0-19.505 1.87-21.373 21.375-21.373zm247.629 0c19.454 0 21.289 1.785 21.373 21.22-.001.053-.016.102-.016.155 0 .067.01.13.02.195v13.952h-42.752v-14.149c0-19.505 1.869-21.373 21.375-21.373zm-254.727 77.973h14.197c-1.305 36.974 1.28 36.601-7.1 36.601-8.38 0-5.792.372-7.097-36.601zm247.63 0h14.196c-1.305 36.974 1.28 36.601-7.1 36.601-8.38 0-5.955-.017-7.097-36.601z"/></svg>