<svg width="512" height="512" version="1.1" id="svg8" xml:space="preserve" xmlns="http://www.w3.org/2000/svg"><defs id="defs12"><filter style="color-interpolation-filters:sRGB" id="filter875" x="-.313" y="-.169" width="1.609" height="1.328"><feFlood flood-opacity="1" flood-color="#3A3F5E" result="flood" id="feFlood865"/><feComposite in="flood" in2="SourceGraphic" operator="out" result="composite1" id="feComposite867"/><feGaussianBlur in="composite1" stdDeviation="15" result="blur" id="feGaussianBlur869"/><feOffset dx="0" dy="0" result="offset" id="feOffset871"/><feComposite in="offset" in2="SourceGraphic" operator="atop" result="composite2" id="feComposite873"/></filter><filter style="color-interpolation-filters:sRGB" id="filter1015" x="-.082" y="-.044" width="1.164" height="1.088"><feFlood flood-opacity="1" flood-color="#3A3F5E" result="flood" id="feFlood1005"/><feComposite in="flood" in2="SourceGraphic" operator="out" result="composite1" id="feComposite1007"/><feGaussianBlur in="composite1" stdDeviation="8.302" result="blur" id="feGaussianBlur1009"/><feOffset dx="0" dy="0" result="offset" id="feOffset1011"/><feComposite in="offset" in2="SourceGraphic" operator="atop" result="composite2" id="feComposite1013"/></filter><filter style="color-interpolation-filters:sRGB" id="filter35638" x="-.057" y="-.131" width="1.114" height="1.261"><feFlood flood-opacity="1" flood-color="#3A3F5E" result="flood" id="feFlood35628"/><feComposite in="flood" in2="SourceGraphic" operator="out" result="composite1" id="feComposite35630"/><feGaussianBlur in="composite1" stdDeviation="6" result="blur" id="feGaussianBlur35632"/><feOffset dx="0" dy="0" result="offset" id="feOffset35634"/><feComposite in="offset" in2="SourceGraphic" operator="atop" result="composite2" id="feComposite35636"/></filter><filter style="color-interpolation-filters:sRGB" id="filter35813" x="-.053" y="-.07" width="1.107" height="1.139"><feFlood flood-opacity="1" flood-color="#3A3F5E" result="flood" id="feFlood35803"/><feComposite in="flood" in2="SourceGraphic" operator="out" result="composite1" id="feComposite35805"/><feGaussianBlur in="composite1" stdDeviation="8" result="blur" id="feGaussianBlur35807"/><feOffset dx="0" dy="0" result="offset" id="feOffset35809"/><feComposite in="offset" in2="SourceGraphic" operator="atop" result="composite2" id="feComposite35811"/></filter><filter style="color-interpolation-filters:sRGB" id="filter36051" x="-.028" y="-.039" width="1.056" height="1.078"><feFlood flood-opacity="1" flood-color="#3A3F5E" result="flood" id="feFlood36041"/><feComposite in="flood" in2="SourceGraphic" operator="out" result="composite1" id="feComposite36043"/><feGaussianBlur in="composite1" stdDeviation="6" result="blur" id="feGaussianBlur36045"/><feOffset dx="0" dy="0" result="offset" id="feOffset36047"/><feComposite in="offset" in2="SourceGraphic" operator="atop" result="composite2" id="feComposite36049"/></filter><filter style="color-interpolation-filters:sRGB" id="filter36715" x="-.07" y="-.091" width="1.139" height="1.182"><feFlood flood-opacity="1" flood-color="#3A3F5E" result="flood" id="feFlood36705"/><feComposite in="flood" in2="SourceGraphic" operator="out" result="composite1" id="feComposite36707"/><feGaussianBlur in="composite1" stdDeviation="16.201" result="blur" id="feGaussianBlur36709"/><feOffset dx="0" dy="0" result="offset" id="feOffset36711"/><feComposite in="offset" in2="SourceGraphic" operator="atop" result="composite2" id="feComposite36713"/></filter><filter style="color-interpolation-filters:sRGB" id="filter37057" x="-.08" y="-.075" width="1.16" height="1.15"><feFlood flood-opacity="1" flood-color="#3A3F5E" result="flood" id="feFlood37047"/><feComposite in="flood" in2="SourceGraphic" operator="out" result="composite1" id="feComposite37049"/><feGaussianBlur in="composite1" stdDeviation=".5" result="blur" id="feGaussianBlur37051"/><feOffset dx="0" dy="0" result="offset" id="feOffset37053"/><feComposite in="offset" in2="SourceGraphic" operator="atop" result="composite2" id="feComposite37055"/></filter><filter style="color-interpolation-filters:sRGB" id="filter3381" x="-.059" y="-.112" width="1.119" height="1.223"><feFlood flood-opacity="1" flood-color="#3A3F5E" result="flood" id="feFlood3371"/><feComposite in="flood" in2="SourceGraphic" operator="out" result="composite1" id="feComposite3373"/><feGaussianBlur in="composite1" stdDeviation="15" result="blur" id="feGaussianBlur3375"/><feOffset dx="0" dy="0" result="offset" id="feOffset3377"/><feComposite in="offset" in2="SourceGraphic" operator="atop" result="composite2" id="feComposite3379"/></filter></defs><path d="M0 0h512v512H0z" fill="#b90202" fill-opacity="1" id="path2" style="fill:#1b1f21;fill-opacity:1"/><style type="text/css" id="style35976">.st0{fill:#000}</style><path id="path2056" style="fill:#e64539;fill-opacity:1;stroke-width:.37734;filter:url(#filter3381)" d="M369.186 42.209v5.373l-55.569-.002v16.414h60.703V51.258l-2.94-3.676-.241-5.373zm11.01 10.152v9.176h20.806v-9.176zm28.396 1.68v5.813h56.789V54.04zM250.117 73.893l-6.978 16.863v12.789h133.437v-12.64L369.6 73.892ZM-41.596 88.727l-13.955 16.277v69.326h74.862v7.23h-74.862v32.46h37.504l14.826 52.748 12.252.412 87.65-1.375v41.333c0 .488.05.963.143 1.423v.004l.004.011c.094.457.231.899.408 1.319a7.05 7.05 0 0 0 1.516 2.248 7.097 7.097 0 0 0 3.566 1.925l.01.002h.006c.46.094.935.143 1.422.143h7.197c1.375 42.608 1.192 50.752 21.254 50.752s19.88-8.143 21.254-50.752h7.198a7.019 7.019 0 0 0 3.957-1.207 7.096 7.096 0 0 0 2.562-3.111c.16-.38.284-.78.377-1.19.01-.046.026-.091.035-.138v-.002c.006-.03.008-.062.014-.092.082-.433.129-.877.129-1.334V264.69H344.31v42.447c0 .488.051.963.145 1.423v.004a7.039 7.039 0 0 0 .428 1.361 7.04 7.04 0 0 0 5.076 4.144c.46.095.938.143 1.427.143h7.198c1.374 42.608 1.19 50.752 21.252 50.752 20.062 0 19.88-8.143 21.253-50.752h7.198a7.019 7.019 0 0 0 3.959-1.207 7.097 7.097 0 0 0 1.91-1.91 7.036 7.036 0 0 0 .662-1.235c.17-.41.307-.84.398-1.285l.002-.015c.094-.46.145-.934.145-1.422v-42.447h56.432l-.002.004c3.138 0 5.763-2.05 6.691-4.875l5.553-.088h22.865l32.668-40.615 8.043-31.394 2.425-69.343-40.81-29.654H384.32v22.095H235.086l-.266-22.095Zm479.471 14.826h57.285s18.608 14.101 18.608 21.95c0 0 .432 3.776-6.977 3.638-7.411-.141-11.63-.002-11.63-.002h-57.286ZM25.066 132.945h190.075v19.3H25.066Zm61.041 31.569h163.479v16.819H86.107Zm52.27 29.388h161.742v15.205H138.377Zm262.836 67.13v10.73H358.46v-10.06zm-247.629 3.882v6.848h-42.752v-6.178zm-28.475 49.299h14.198c-1.306 36.974 1.28 36.601-7.1 36.601-8.38 0-5.792.372-7.098-36.601zm247.63 0h14.197c-1.306 36.974 1.28 36.601-7.1 36.601-8.38 0-5.956-.018-7.098-36.601z" transform="translate(64.2 118.068) scale(.77575)"/></svg>