<svg viewBox="0 0 512 512" style="height:512px;width:512px" xmlns="http://www.w3.org/2000/svg"><defs><filter style="color-interpolation-filters:sRGB" id="a" x="-.04" y="-.034" width="1.08" height="1.069"><feFlood flood-opacity="1" flood-color="#3A3F5E" result="flood"/><feComposite in="flood" in2="SourceGraphic" operator="out" result="composite1"/><feGaussianBlur in="composite1" stdDeviation="15" result="blur"/><feOffset result="offset"/><feComposite in="offset" in2="SourceGraphic" operator="atop" result="composite2"/></filter></defs><path d="M0 0h512v512H0z" fill="#1b1f21"/><g transform="translate(1.65 1.631) scale(.42395)" style="fill:#e64539;fill-opacity:1;filter:url(#a)"><path d="M618.75 442.5V375h-37.5v67.5L600 461.25ZM431.25 720l150 90V648.75l-150-90zm337.5 0V558.75l-150 90V810Z" style="fill:#e64539;fill-opacity:1"/><path d="m393.75 513.75 150-90V375H525c-31.875 0-56.25-24.375-56.25-56.25v-37.5H262.5v511.88l131.25-73.125z" style="fill:#e64539;fill-opacity:1"/><path d="M600 513.75 549.375 465l-101.25 60 151.88 90 151.88-90-101.25-60zm82.5 573.75H515.62c-9.375 0-16.875 5.625-18.75 15l-3.75 22.5h213.75l-5.625-22.5c-1.875-9.375-9.375-15-18.75-15z" style="fill:#e64539;fill-opacity:1"/><path d="M1031.2 75H168.7c-11.25 0-18.75 7.5-18.75 18.75v1012.5c0 11.25 7.5 18.75 18.75 18.75h285l7.5-31.875c5.625-24.375 28.125-43.125 54.375-43.125h166.88c26.25 0 48.75 16.875 54.375 43.125l7.5 31.875h286.88c11.25 0 18.75-7.5 18.75-18.75V93.75c0-11.25-7.5-18.75-18.75-18.75Zm-693.75 937.5H281.2V975h56.25zm487.5 0H768.7V975h56.25zm93.75 0h-56.25V975h56.25zm56.25-131.25c0 31.875-24.375 56.25-56.25 56.25H281.2c-31.875 0-56.25-24.375-56.25-56.25v-675c0-31.875 24.375-56.25 56.25-56.25h637.5c31.875 0 56.25 24.375 56.25 56.25z" style="fill:#e64539;fill-opacity:1"/><path d="M918.75 187.5h-637.5c-11.25 0-18.75 7.5-18.75 18.75v37.5h206.25V225h262.5v18.75H937.5v-37.5c0-11.25-7.5-18.75-18.75-18.75Zm-187.5 131.25c0 31.875-24.375 56.25-56.25 56.25h-18.75v48.75l150 90V720l131.25 73.125v-511.88H731.25Z" style="fill:#e64539;fill-opacity:1"/><path d="M693.75 318.75V262.5h-187.5v56.25c0 11.25 7.5 18.75 18.75 18.75h150c11.25 0 18.75-7.5 18.75-18.75zM600 866.25l-187.5-112.5-150 82.5v45c0 11.25 7.5 18.75 18.75 18.75h637.5c11.25 0 18.75-7.5 18.75-18.75v-45l-150-82.5z" style="fill:#e64539;fill-opacity:1"/></g></svg>