<svg viewBox="0 0 512 512" style="height:512px;width:512px" xmlns="http://www.w3.org/2000/svg"><defs><filter style="color-interpolation-filters:sRGB" id="a" x="-.041" y="-.02" width="1.083" height="1.04"><feFlood flood-opacity="1" flood-color="#3A3F5E" result="flood"/><feComposite in="flood" in2="SourceGraphic" operator="out" result="composite1"/><feGaussianBlur in="composite1" stdDeviation="15" result="blur"/><feOffset result="offset"/><feComposite in="offset" in2="SourceGraphic" operator="atop" result="composite2"/></filter></defs><path d="M0 0h512v512H0z" fill="#1b1f21"/><g style="fill:#e64539;fill-opacity:1"><g style="filter:url(#a)" transform="rotate(70.345 31.551 262.99) scale(.29907)"><g style="fill:#e64539;fill-opacity:1"><path d="M659.88 459.48c-15.602-60.238-65.039-108-128.76-95.039-63.719 12.961-94.441 21-121.92 46.68 0 0-15.359 13.32-8.762 33.48 0 0 17.641-36.961 60.121 6.96 33.238 34.442 53.52 76.56 75.72 138.96 0 0 12.601 36.962 13.558 45.48 0 0 60.121 3.72 72.72-12.84 12.487-16.444 52.808-103.32 37.327-163.68zm-279.24 36.48c-51.602-25.68-80.762 41.039-102.72 76.922-21.602 35.52-150.6 141-237.72 210.24-30.48 24.238-37.922 68.641-14.641 99.961 47.16 63.359 14.762 143.88 61.078 195.36 15.719 17.398 100.56 30.121 156.24 26.398 28.32-1.8 53.641-18.359 66.602-43.559 48.48-93.961 172.8-297.6 189.12-323.04 19.441-30.238 18.238-75.121 18.238-75.121-12.359-105.12-111.6-154.92-136.2-167.16zm-125.4 542.16c-32.16 10.441-66.602-7.2-77.039-39.359-10.441-32.16 7.2-66.602 39.359-77.039 32.16-10.441 66.602 7.2 77.039 39.359 10.441 32.039-7.2 66.598-39.359 77.039z" style="fill:#e64539;fill-opacity:1" transform="rotate(102.481 825.11 250.028) scale(1.14112)"/><path d="M224.28 942.48c-2.398.719-4.559 1.8-6.719 2.879l51.121 56.64c6.602-9.718 8.88-22.198 5.04-34.32-6.602-20.52-28.802-31.8-49.442-25.198zm-25.2 49.44c6.719 20.641 28.801 31.922 49.441 25.32 2.52-.84 4.8-1.8 6.96-3l-51.237-56.762c-6.844 9.598-9.121 22.32-5.164 34.441z" style="fill:#e64539;fill-opacity:1" transform="rotate(102.481 825.11 250.028) scale(1.14112)"/></g><path d="m806.166 183.725-421.295 1.523c-7.636.028-13.715 6-13.637 13.637l2.54 249.242c.077 7.637 6.013 13.17 13.636 13.637l34.953 2.144c21.05 1.291 38 17.09 38 38.18v64.727c0 7.637 6.184 13.637 13.637 13.637h251.82c7.453 0 13.637-6 13.637-13.637v-64.727c0-21.09 17.054-35.722 38-38.18l31.248-3.667c7.585-.89 13.637-6 13.637-13.637L819.8 197.352c0-7.637-5.996-13.633-13.637-13.633zM462.79 358.364h-27.273l-2.539-65.442h27.273zm70.703-65.442h27.273l2.539 65.442h-27.273Zm66.512 209.722c-32.363 0-58.543-26.184-58.543-58.543 0-32.184 26.184-58.363 58.543-58.363 32.184 0 58.363 26.184 58.363 58.363 0 32.359-26.18 58.543-58.363 58.543zm63.797-144.28h-27.273l-2.539-65.442h27.273zm100.5 0h-27.273l-2.535-65.442h27.273zM695.64 607.73v170.18c0 7.637-6.18 13.637-13.637 13.637h-164c-7.637 0-13.637-6-13.637-13.637V607.73Zm-48.91 211.09v237.27c0 2.184-.543 4.363-1.453 6.363l-35.094 67.09c-2.363 4.547-7.09 7.274-12.18 7.274h-.184c-5.273 0-9.816-3.09-12.18-7.817l-31.273-67.09c-.91-1.82-1.273-3.82-1.273-5.816v-237.28z" style="fill:#e64539;fill-opacity:1" transform="translate(5.341 -26.49)"/></g></g></svg>