<svg width="512" height="512" version="1.1" id="svg8" xml:space="preserve" xmlns="http://www.w3.org/2000/svg"><defs id="defs12"><filter style="color-interpolation-filters:sRGB" id="filter875" x="-.313" y="-.169" width="1.609" height="1.328"><feFlood flood-opacity="1" flood-color="#3A3F5E" result="flood" id="feFlood865"/><feComposite in="flood" in2="SourceGraphic" operator="out" result="composite1" id="feComposite867"/><feGaussianBlur in="composite1" stdDeviation="15" result="blur" id="feGaussianBlur869"/><feOffset dx="0" dy="0" result="offset" id="feOffset871"/><feComposite in="offset" in2="SourceGraphic" operator="atop" result="composite2" id="feComposite873"/></filter><filter style="color-interpolation-filters:sRGB" id="filter1015" x="-.082" y="-.044" width="1.164" height="1.088"><feFlood flood-opacity="1" flood-color="#3A3F5E" result="flood" id="feFlood1005"/><feComposite in="flood" in2="SourceGraphic" operator="out" result="composite1" id="feComposite1007"/><feGaussianBlur in="composite1" stdDeviation="8.302" result="blur" id="feGaussianBlur1009"/><feOffset dx="0" dy="0" result="offset" id="feOffset1011"/><feComposite in="offset" in2="SourceGraphic" operator="atop" result="composite2" id="feComposite1013"/></filter><filter style="color-interpolation-filters:sRGB" id="filter35638" x="-.057" y="-.131" width="1.114" height="1.261"><feFlood flood-opacity="1" flood-color="#3A3F5E" result="flood" id="feFlood35628"/><feComposite in="flood" in2="SourceGraphic" operator="out" result="composite1" id="feComposite35630"/><feGaussianBlur in="composite1" stdDeviation="6" result="blur" id="feGaussianBlur35632"/><feOffset dx="0" dy="0" result="offset" id="feOffset35634"/><feComposite in="offset" in2="SourceGraphic" operator="atop" result="composite2" id="feComposite35636"/></filter><filter style="color-interpolation-filters:sRGB" id="filter35813" x="-.053" y="-.07" width="1.107" height="1.139"><feFlood flood-opacity="1" flood-color="#3A3F5E" result="flood" id="feFlood35803"/><feComposite in="flood" in2="SourceGraphic" operator="out" result="composite1" id="feComposite35805"/><feGaussianBlur in="composite1" stdDeviation="8" result="blur" id="feGaussianBlur35807"/><feOffset dx="0" dy="0" result="offset" id="feOffset35809"/><feComposite in="offset" in2="SourceGraphic" operator="atop" result="composite2" id="feComposite35811"/></filter><filter style="color-interpolation-filters:sRGB" id="filter36051" x="-.028" y="-.039" width="1.056" height="1.078"><feFlood flood-opacity="1" flood-color="#3A3F5E" result="flood" id="feFlood36041"/><feComposite in="flood" in2="SourceGraphic" operator="out" result="composite1" id="feComposite36043"/><feGaussianBlur in="composite1" stdDeviation="6" result="blur" id="feGaussianBlur36045"/><feOffset dx="0" dy="0" result="offset" id="feOffset36047"/><feComposite in="offset" in2="SourceGraphic" operator="atop" result="composite2" id="feComposite36049"/></filter><filter style="color-interpolation-filters:sRGB" id="filter36715" x="-.07" y="-.091" width="1.139" height="1.182"><feFlood flood-opacity="1" flood-color="#3A3F5E" result="flood" id="feFlood36705"/><feComposite in="flood" in2="SourceGraphic" operator="out" result="composite1" id="feComposite36707"/><feGaussianBlur in="composite1" stdDeviation="16.201" result="blur" id="feGaussianBlur36709"/><feOffset dx="0" dy="0" result="offset" id="feOffset36711"/><feComposite in="offset" in2="SourceGraphic" operator="atop" result="composite2" id="feComposite36713"/></filter><filter style="color-interpolation-filters:sRGB" id="filter37057" x="-.08" y="-.075" width="1.16" height="1.15"><feFlood flood-opacity="1" flood-color="#3A3F5E" result="flood" id="feFlood37047"/><feComposite in="flood" in2="SourceGraphic" operator="out" result="composite1" id="feComposite37049"/><feGaussianBlur in="composite1" stdDeviation=".5" result="blur" id="feGaussianBlur37051"/><feOffset dx="0" dy="0" result="offset" id="feOffset37053"/><feComposite in="offset" in2="SourceGraphic" operator="atop" result="composite2" id="feComposite37055"/></filter></defs><path d="M0 0h512v512H0z" fill="#b90202" fill-opacity="1" id="path2" style="fill:#1b1f21;fill-opacity:1"/><style type="text/css" id="style35976">.st0{fill:#000}</style><g style="fill:#e64539;fill-opacity:1;filter:url(#filter37057)" id="g36830" transform="translate(17.068 17.068) scale(29.86656)"><path id="path36821" style="fill:#e64539;fill-opacity:1" d="M8 .004A2.25 2.25 0 0 0 6.834.33l-5.25 3.182A2.25 2.25 0 0 0 .5 5.436v5.128a2.25 2.25 0 0 0 1.084 1.924l5.25 3.182a2.25 2.25 0 0 0 2.332 0l5.25-3.182a2.25 2.25 0 0 0 1.084-1.924V5.436a2.25 2.25 0 0 0-1.084-1.924L9.166.33A2.25 2.25 0 0 0 8 .004zM5.23 3.863h2.546v1.273h-1.06v2.546H5.23v-3.82zm.636.424v.424h.425v-.424h-.425zm.85 0v.424h.423v-.424h-.424zm-.85.849v.424h.425v-.424h-.425zm1.273.424h2.759v1.273H8.625v4.031H7.139V5.56zm-1.273.424v.425h.425v-.425h-.425zm1.91 0v.425H8.2v-.425h-.424zm1.06 0v.425h.425v-.425h-.424zm-2.97.849v.424h.425v-.424h-.425zm1.91 0v.424H8.2v-.424h-.424zm1.273.424h2.546v3.607H9.05V7.257zm-1.273.425v.424H8.2v-.424h-.424zm1.91 0v.424h.424v-.424h-.424zm.848 0v.424h.425v-.424h-.425zm-6.153.424h2.334v2.758H4.381V8.106zm.637.424v.425h.424V8.53h-.424zm.848 0v.425h.425V8.53h-.425zm1.91 0v.425H8.2V8.53h-.424zm1.91 0v.425h.424V8.53h-.424zm.848 0v.425h.425V8.53h-.425zm-6.577.62v2.139h8.063V9.345l1.302 2.792H2.678L3.957 9.15zm1.06.23v.424h.425v-.425h-.424zm.85 0v.424h.424v-.425h-.425zm1.909 0v.424H8.2v-.425h-.424zm1.91 0v.424h.424v-.425h-.424zm.848 0v.424h.425v-.425h-.425z"/></g></svg>