<svg viewBox="0 0 512 512" style="height:512px;width:512px" xmlns="http://www.w3.org/2000/svg"><defs><filter style="color-interpolation-filters:sRGB" id="a" x="-.049" y="-.096" width="1.098" height="1.192"><feFlood flood-opacity="1" flood-color="#3A3F5E" result="flood"/><feComposite in="flood" in2="SourceGraphic" operator="out" result="composite1"/><feGaussianBlur in="composite1" stdDeviation="10" result="blur"/><feOffset result="offset"/><feComposite in="offset" in2="SourceGraphic" operator="atop" result="composite2"/></filter></defs><path d="M.359-.21h512v512h-512Z" fill="#1b1f21"/><g style="fill:#e64539;fill-opacity:1;filter:url(#a)"><path d="M76.796 251.07c-35.816 0-64.858 29.033-64.858 64.858 0 35.817 29.034 64.858 64.858 64.858 35.825 0 64.859-29.033 64.859-64.858 0-35.817-29.044-64.858-64.859-64.858zm0 109.584c-24.66 0-44.725-20.064-44.725-44.726 0-24.66 20.064-44.726 44.725-44.726 24.662 0 44.726 20.064 44.726 44.726 0 24.66-20.064 44.726-44.726 44.726z" style="fill:#e64539;stroke-width:.433893;fill-opacity:1"/><path d="M76.796 278.323c-20.735 0-37.606 16.87-37.606 37.606 0 20.735 16.871 37.606 37.606 37.606 20.736 0 37.607-16.87 37.607-37.606 0-20.735-16.871-37.606-37.607-37.606zm214.649-147.057a13.83 13.83 0 0 0-6.558 1.037l-14.278 6.05c-2.023.855-3.326 2.755-3.408 4.952-.081 2.196 1.088 4.18 3.051 5.187l29.33 14.969v39.355l-52.668 4.125-40.443-1.597-21.201.623a13.665 13.665 0 0 0-12.711-8.543h-5.371c-3.641 0-6.61-2.97-6.61-6.61v-19.779c0-3.498-1.718-6.784-4.596-8.777a10.687 10.687 0 0 0-9.834-1.22L56.77 194.636c-4.912 1.85-7.688 6.742-6.752 11.908.935 5.166 5.258 8.768 10.505 8.768h45.467v12.67a13.76 13.76 0 0 0 5.787 11.197l2.979 2.115-3.711 4.18a3.565 3.565 0 0 0 .295 5.023 3.559 3.559 0 0 0 5.023-.305l4.23-4.76 32.919 23.348a6.643 6.643 0 0 1 2.787 5.39v8.94l-7.912 4.31c-1.73.936-2.36 3.104-1.424 4.833a3.553 3.553 0 0 0 4.83 1.424l4.506-2.451v30.935c0 7.566 6.162 13.729 13.728 13.729h131.774c1.525 0 3.03-.256 4.474-.754l34.067-11.735a13.76 13.76 0 0 0 7.496-6.244l12.447-22.107 11.166 9.191a64.812 64.812 0 0 0-1.058 11.666c0 35.817 29.034 64.858 64.859 64.858 35.826 0 64.81-29.013 64.81-64.84 0-35.438-28.436-64.198-63.738-64.803l21.358-17.035c2.674-2.085 4.18-5.217 4.119-8.604-.061-3.386-1.659-6.467-4.405-8.46l-43.666-31.72c-.02-.02-.04-.02-.07-.04a.276.276 0 0 1-.062-.051l-36.141-23.908c-25.637-16.963-55.383-27.355-86.012-30.04zm43.239 16.646a178.259 178.259 0 0 1 38.847 19.332l26.264 17.38h-32.59c2.146-3 2.39-7.302-.387-10.587a111.945 111.945 0 0 0-32.134-26.125zm41.164 62.672h39.539a7.63 7.63 0 0 1 7.627 7.627v8.389a7.63 7.63 0 0 1-7.627 7.627h-39.54a7.63 7.63 0 0 1-7.626-7.627v-8.39a7.63 7.63 0 0 1 7.627-7.626zm0 7.107a.502.502 0 0 0-.508.508v8.39c0 .286.223.509.508.509h6.142a13.674 13.674 0 0 1 4.496-9.407h-10.638zm-32.018 23.79c2.156 0 4.342.519 6.356 1.607l97.943 52.89c5.97 3.224 10.199 8.603 11.928 15.163 1.728 6.559.702 13.332-2.909 19.078a24.277 24.277 0 0 1-16.668 11.064 24.23 24.23 0 0 1-19.31-5.226l-85.912-70.791c-5.186-4.282-6.408-11.796-2.838-17.5 2.532-4.038 6.915-6.286 11.41-6.286zm91.371 29.722c24.66 0 44.725 20.065 44.725 44.727 0 24.66-20.063 44.724-44.725 44.724v-.002c-23.237 0-42.375-17.806-44.521-40.494l8.683 7.16c4.83 15.183 19.069 26.217 35.838 26.217 20.735 0 37.606-16.872 37.606-37.607s-16.87-37.606-37.606-37.606c-1.454 0-2.88.101-4.293.264l-9.568-5.166a44.316 44.316 0 0 1 13.861-2.217zm-257.668 2.373c.462-.034.939.022 1.406.18l62.428 21.111a24.714 24.714 0 0 0 7.973 1.301h76.982c1.23 0 2.399-.65 3.04-1.707l3.488-5.746a3.568 3.568 0 0 1 4.892-1.19c1.678 1.017 2.207 3.213 1.19 4.891l-3.489 5.746c-1.921 3.163-5.42 5.135-9.12 5.135H249.34c-3.498 0-6.945-.569-10.26-1.688l-62.43-21.111a3.562 3.562 0 0 1 .883-6.922zm257.668 27.18c-8.37 0-15.174 6.802-15.174 15.172 0 8.37 6.805 15.174 15.174 15.174 8.37 0 15.172-6.805 15.172-15.174 0-8.37-6.802-15.172-15.172-15.172zm0 7.119a8.04 8.04 0 0 1 5.36 2.055c-6.214.132-11.227 5.133-11.36 11.357a8.036 8.036 0 0 1-2.055-5.36c0-4.443 3.611-8.052 8.055-8.052z" style="fill:#e64539;stroke-width:.433893;fill-opacity:1"/></g></svg>