<svg viewBox="0 0 512 512" style="height:512px;width:512px" xmlns="http://www.w3.org/2000/svg"><defs><filter style="color-interpolation-filters:sRGB" id="a" x="-.036" y="-.062" width="1.071" height="1.125"><feFlood flood-opacity="1" flood-color="#3A3F5E" result="flood"/><feComposite in="flood" in2="SourceGraphic" operator="out" result="composite1"/><feGaussianBlur in="composite1" stdDeviation="15" result="blur"/><feOffset result="offset"/><feComposite in="offset" in2="SourceGraphic" operator="atop" result="composite2"/></filter></defs><path d="M.359-.21h512v512h-512Z" fill="#1b1f21"/><g transform="matrix(.477 0 0 .477 -41.651 -41.648)" style="fill:#e64539;fill-opacity:1;filter:url(#a)"><path d="M972 600c-24 0-48 6-68.398 15.602L888 592.801C909.602 582 934.801 576 960 576v-48c-36 0-70.801 9.602-100.8 25.199l-19.199-27.602c7.2 1.2 15.602 2.398 22.801 2.398 13.199 0 24-26.398 24-57.602 0-32.398-10.801-57.602-24-57.602-34.801 0-64.801 14.398-78 36l-70.801-102c-4.8-6-12-10.8-19.199-10.8h-72c-13.199 0-24 10.8-24 24 0 13.198 10.801 24 24 24h60l33.602 48c-117.6 1.206-212.4 60.007-212.4 132.01 0 7.199 4.8 12 12 12h132c-13.199 0-24 10.8-24 24h-12c-7.2 0-12 4.8-12 12 0 7.199 4.8 12 12 12h12v24h-12c-7.2 0-12 4.8-12 12 0 7.199 4.8 12 12 12h12v24c0 13.198 10.801 24 24 24v12c0 7.199 4.8 12 12 12h24c7.2 0 12-4.801 12-12v-12c13.199 0 24-10.802 24-24v-24h12c1.2 0 2.398 0 3.602-1.2l-43.203 97.2h-261.6c0-3.602 1.199-8.4 1.199-12 0-86.399-69.602-156-156-156s-156 69.601-156 156c0 86.397 69.602 156 156 156 64.8 0 120-39.603 144-96h288c9.601 0 18-6 21.602-14.399L756.002 744h36c0-49.199 21.602-93.602 55.199-124.8l16.8 24c-30 28.801-48 68.398-48 112.8 0 86.398 69.603 156 156 156 86.399 0 156-69.602 156-156s-69.601-156-156-156zM276 864c-60 0-108-48-108-108s48-108 108-108 108 48 108 108c0 3.602 0 8.398-1.2 12h-48c1.2-3.602 1.2-8.398 1.2-12 0-33.602-26.398-60-60-60-33.602 0-60 26.398-60 60 0 3.602 0 8.398 1.2 12H192v48h174c-19.199 28.801-52.8 48-90 48zm432-408c26.398 0 48 21.602 48 48s-21.602 48-48 48-48-21.602-48-48 21.602-48 48-48zm24 192h-12v-24h12c7.2 0 12-4.8 12-12s-4.8-12-12-12h-12c0-13.199-10.801-24-24-24h24c30 0 55.199-18 66-44.398l7.2 10.801-50.399 112.8c-1.199-3.602-6-7.203-10.8-7.203zm240 216c-60 0-108-48-108-108 0-27.602 10.801-52.801 27.602-72l28.801 40.801c-4.8 9.598-8.402 19.199-8.402 31.199 0 33.602 26.398 60 60 60 33.602 0 60-26.398 60-60 0-33.602-26.398-60-60-60-3.602 0-8.399 0-12 1.2L931.2 656.397c12-4.8 26.398-8.398 40.8-8.398 60 0 108 48 108 108s-48 108-108 108z" style="fill:#e64539;fill-opacity:1"/><path d="M612 708c0-33.602-26.398-60-60-60-19.199 0-37.199 9.602-48 24h-36c-20.398 0-36 15.602-36 36s15.602 36 36 36h36c10.801 14.398 27.602 24 48 24 33.602 0 60-26.398 60-60zM252 576h192c26.398 0 48-21.602 48-48s-21.602-48-48-48H252c-26.398 0-48 21.602-48 48s21.602 48 48 48zm180 24c-13.199 0-24 10.801-24 24s10.801 24 24 24h48c13.199 0 24-10.801 24-24s-10.801-24-24-24zm300-96c0 13.254-10.746 24-24 24s-24-10.746-24-24 10.746-24 24-24 24 10.746 24 24" style="fill:#e64539;fill-opacity:1"/></g></svg>