<svg viewBox="0 0 512 512" style="height:512px;width:512px" xmlns="http://www.w3.org/2000/svg"><defs><filter style="color-interpolation-filters:sRGB" id="a" x="-.035" y="-.064" width="1.07" height="1.129"><feFlood flood-opacity="1" flood-color="#3A3F5E" result="flood"/><feComposite in="flood" in2="SourceGraphic" operator="out" result="composite1"/><feGaussianBlur in="composite1" stdDeviation="20" result="blur"/><feOffset result="offset"/><feComposite in="offset" in2="SourceGraphic" operator="atop" result="composite2"/></filter></defs><path d="M.359-.21h512v512h-512Z" fill="#1b1f21"/><g transform="translate(41.876 27.085) scale(.35544)" style="fill:#e64539;fill-opacity:1;filter:url(#a)"><path d="M111.723 725.802c-52.49-.065-95.249 42.586-95.308 95.076-.064 52.49 42.586 95.249 95.077 95.308 52.49.065 95.248-42.586 95.307-95.076.065-52.49-42.585-95.243-95.076-95.308zm-.21 169.817c-41.138-.048-74.572-33.563-74.519-74.7.049-41.139 33.563-74.574 74.701-74.52 41.138.049 74.573 33.563 74.52 74.701-.05 41.133-33.564 74.567-74.702 74.519z" style="fill:#e64539;fill-opacity:1"/><path d="M160.482 820.993c0 26.999-21.888 48.88-48.88 48.88-27 0-48.88-21.882-48.88-48.88 0-27 21.882-48.88 48.88-48.88 26.994 0 48.88 21.882 48.88 48.88M1093.564 726c-52.455-.064-95.184 42.558-95.243 95.013-.065 52.455 42.557 95.184 95.012 95.243 52.455.065 95.178-42.557 95.243-95.012.065-52.455-42.557-95.178-95.012-95.243zm-.204 169.703c-41.11-.049-74.522-33.54-74.469-74.65.048-41.11 33.54-74.522 74.65-74.469 41.111.049 74.523 33.54 74.47 74.65-.055 41.105-33.54 74.517-74.651 74.469z" style="fill:#e64539;fill-opacity:1"/><path d="M1142.29 821.127c0 26.981-21.867 48.847-48.847 48.847-26.975 0-48.847-21.867-48.847-48.847 0-26.981 21.873-48.847 48.847-48.847 26.981 0 48.847 21.867 48.847 48.847" style="fill:#e64539;fill-opacity:1"/><path d="M1278.559 837.48c.113-1.28.21-2.56.295-3.845l-.076-.441c.619-9.259.597-18.577-.183-27.9l10.039-1.753-5.603-32.078-10 1.747c-2.183-8.194-4.985-16.292-8.35-24.265l-1.162-6.92 7.329-4.216-16.238-28.233v.006l-.037-.07-8.824 5.08a184.988 184.988 0 0 0-20.63-24.7l6.538-7.764-.059-.048v-.005l-12.415-10.442-12.441-10.474v.006l-.06-.048-6.559 7.802a184.966 184.966 0 0 0-13.566-8.63 183.76 183.76 0 0 0-14.275-7.5l3.5-9.571-.075-.027v-.006l-15.222-5.565-7.85-2.871-7.77-3.509-19.43-7.243s-7.8-11.398-8.399-13.199c-.601-1.8-4.199-31.801-5.398-37.199-1.2-5.398-4.8-9-12.602-13.199-7.8-4.2-14.398-6-14.398-6s-9 0-10.199-2.398c-7.453-14.91-124.2-43.2-130.2-46.2-6-3-11.398-3-13.8-3-2.4 0-62.399-1.8-62.399-1.8s-4.871-1.192-10.477-3.192l2.281-1.511c-12.906-19.484-129.19-137.68-129.19-137.68l-25.57-15.5s-176.63-63.652-187.01-66.48c-3.02-.824-18.8-1.965-33.223-2.727-10.973-.578-109.586-2.41-113.605-2.41-.242 0-35.814.352-50.142 30.699-6.785 14.37-11.965 27.57-26.312 61.12-6.574 15.384-12.789 29.91-13.492 31.388-2.477 4.957-7.973 24.223-3.766 42.453.946 4.098 3.493 13.14 6.754 24.32l.424-.457c-1.47-3.156-.575-4.422-4.059-4.422h-13.199c-3 0-4.2 1.2-5.398 3-.125.188-.375.637-.684 1.223l-37.266-.301c-.16-.34-.316-.656-.45-.918-2.398-4.8-3.6-4.2-3.6-4.2s-11.399-.6-15 0c-3.602.602-4.802 0-5.4 3-.6 3-13.8 22.802-13.8 22.802s-18 1.8-18 0c0-1.801-5.399-4.2-9-4.2h-13.2c-3.6 0-4.8 2.399-7.198 6.602-2.399 4.2-17.398 24-17.398 24h-16.801c-7.2 0-6 3.602-7.2 8.399-1.199 4.8-21.602 45.602-27.602 48-6 2.398-12 4.8-12 4.8s1.184 13.887 12.625 14.355l14.273 83.438h7.172l6.235-38.87c6.488 15.827 27.129 18.804 36.832 9.734 8.453-7.903 17.898-10.312 50.059 12.945 20.629 14.914 24 15.602 24 20.398 0 4.8-70.164-127.718-76.777-72.623-1 8.329-6.348 18.056-12.993 27.3l-7.167-.011-16.093-.027v.006h-.08l-.012 10.19a185.175 185.175 0 0 0-31.728 5.52l-3.46-9.555-.075.027-.005-.006-16.497 5.983-14.064 5.095.005.006-.075.027 3.475 9.582c-4.82 2.25-9.598 4.67-14.295 7.366-4.72 2.712-9.233 5.639-13.618 8.69l-6.537-7.818-.06.048-.005-.006-13.865 11.606-11.073 9.26.006.005-.06.049 6.527 7.796a184.554 184.554 0 0 0-20.709 24.658l-8.824-5.111-.037.064-.006-.006-8.189 14.15-8.108 13.983.006.006-.038.07 8.824 5.112a184.62 184.62 0 0 0-11.09 30.232l-10.007-1.781-.01.075h-.006l-2.572 14.49-3.115 17.519h.005l-.01.075 10.034 1.781c-.468 5.321-.758 10.696-.764 16.136-.005 5.413.27 10.761.721 16.066l-10.045 1.754.01.075h-.005l2.534 14.457 3.067 17.573h.006l.01.08 10.008-1.753c.032.118.075.236.102.355a174.342 174.342 0 0 0 2.163 7.43c.07.226.15.441.226.667.742 2.335 1.528 4.66 2.373 6.978.14.393.306.78.452 1.168 1.71 4.595 3.583 9.157 5.681 13.66l-8.834 5.08.037.07-.005.006 8.038 13.962 8.178 14.215.006-.006.037.065 8.835-5.085a184.628 184.628 0 0 0 20.644 24.717l-6.548 7.775.06.048-.006.006 12.3 10.341 12.58 10.59.004-.007.06.049 6.57-7.807a183.404 183.404 0 0 0 13.66 8.678 185.35 185.35 0 0 0 14.2 7.452l-3.509 9.583.076.026h-.006l15.301 5.59 15.233 5.574h.005l.076.026 3.486-9.545a185.541 185.541 0 0 0 31.712 5.612l-.017 10.19h.081l14.99.022 17.52.033h.08l.01-10.19c5.026-.43 9.987-1.087 14.889-1.905.339-.054.683-.096 1.022-.156 2.513-.435 5.004-.93 7.479-1.463.15-.032.296-.054.446-.085a183.31 183.31 0 0 0 7.894-1.91l3.46 9.555.074-.026h.006l15.007-5.44 15.566-5.638h-.006l.075-.027-3.476-9.583a216.587 216.587 0 0 0 3.412-1.63l.193-.156c8.485-4.191 16.625-8.98 24.325-14.366l6.585 7.866 24.993-20.92-6.57-7.85c5.946-5.934 11.455-12.3 16.551-19.003l5.79-4.773 7.284 4.219 11.31-19.532.006-.006 4.982-8.592-.006-.006.038-.07-8.824-5.112a184.62 184.62 0 0 0 11.09-30.232l10.007 1.781.01-.075h.007l2.873-16.179 2.814-15.829h-.006l.01-.075-10.034-1.78c.075-.873.14-1.739.2-2.61l33.889 50.852 212.4-51.602s266.4-8.398 271.2-8.398c4.8 0 24-1.2 26.398-7.2 2.398-6 13.622-82.847 38.398-86.148 24.776-3.301 8.259-16.518 8.259-16.518h40.895l-4.366 7.539-8.102 13.973.005.006-.038.07 8.818 5.108a184.495 184.495 0 0 0-11.082 30.212l-10-1.78-.012.075h-.006l-2.57 14.48-3.113 17.508h.006l-.01.075 10.027 1.78c-.468 5.317-.758 10.689-.764 16.125-.006 5.409.27 10.753.72 16.055l-10.038 1.752.011.076h-.006l2.533 14.447 3.065 17.56h.005l.01.081 10.001-1.753c.033.119.07.237.103.355a174.22 174.22 0 0 0 2.161 7.426c.07.225.15.44.226.666a177.436 177.436 0 0 0 2.371 6.974c.14.392.306.78.452 1.167 1.71 4.591 3.58 9.15 5.672 13.651l-8.829 5.076.038.07-.005.006 8.033 13.953 8.172 14.205.006-.006.038.064 8.829-5.08a185.343 185.343 0 0 0 20.63 24.7l-6.543 7.77.059.048-.006.005 12.291 10.334 12.57 10.581.007-.005.059.049 6.56-7.802a183.61 183.61 0 0 0 13.651 8.673 186.214 186.214 0 0 0 14.19 7.446l-3.5 9.576.075.027 15.285 5.586 15.222 5.57h.01l.075.026 3.484-9.538a185.415 185.415 0 0 0 31.69 5.608l-.016 10.183h.081l14.98.022 17.513.032h.076l.014-10.183c5.021-.43 9.979-1.086 14.882-1.903.338-.054.683-.096 1.021-.156 2.511-.436 5-.93 7.474-1.463.145-.032.296-.054.441-.085 2.65-.58 5.28-1.215 7.888-1.909l3.457 9.55.076-.026 14.996-5.436 15.555-5.635.076-.028-3.473-9.576c1.14-.532 2.274-1.075 3.41-1.629l.193-.156c8.479-4.188 16.613-8.973 24.308-14.356l6.58 7.86 24.976-20.905-6.565-7.844c5.942-5.931 11.453-12.292 16.54-18.991l5.785-4.77 7.28 4.216 11.302-19.518v-.006l4.98-8.587v-.005l.036-.07-8.823-5.107a184.485 184.485 0 0 0 11.081-30.212l10.001 1.78.014-.076 2.871-16.167 2.818-15.819.014-.075zM309.92 403.29c.684-1.371 3.973-9.047 13.969-32.422 14.293-33.422 19.387-46.422 26.023-60.473 8.64-18.301 21.352-19.695 21.32-19.699.191 0 .574.008 1.129.023-9.242 8.54-14.23 18.406-16.676 24.7-1.527 3.925-5.809 14.315-10.758 26.343-8.691 21.102-3.008 9.863-7.582 22.066-2.875 7.665-3.352 16-2.707 23.72-4.89-.5-9.09.16-11.703 1.851-10.2 6.602 5.398 52.199 7.2 57.602 1.8 5.398 9.636 33.973 9.636 33.973s-7.613-.055-18.277-.125c-6.352-21.211-12.312-41.547-13.805-48.008-2.899-12.539.949-26.848 2.23-29.551zm-53.99 68.285a2438.593 2438.593 0 0 0-5.894 12.023l-16.2-1.2s-2.331-5.378-4.835-11.038zm-40.636 351.422c-.006.274-.011.548-.022.828a104.553 104.553 0 0 1-12.783 47.153c-.372.678-.77 1.34-1.157 2.002-.388.672-.77 1.35-1.168 2.018a104.621 104.621 0 0 1-34.584 34.579l-.625.382a94.23 94.23 0 0 1-3.432 1.969c-.425.237-.856.468-1.286.7a97.035 97.035 0 0 1-4.751 2.372c-.947.447-1.91.877-2.868 1.297-.646.28-1.291.543-1.937.807a98.6 98.6 0 0 1-2.75 1.081c-.704.264-1.42.517-2.13.77-.877.306-1.76.613-2.652.898-.764.242-1.534.474-2.303.7-.856.252-1.706.5-2.567.726-.817.22-1.64.414-2.464.613-.818.194-1.636.388-2.464.57-.877.189-1.754.356-2.637.517-.78.145-1.56.285-2.345.414a121.19 121.19 0 0 1-5.01.695 94.71 94.71 0 0 1-3.029.295c-.65.054-1.307.108-1.958.151-1.114.07-2.233.124-3.347.162-.522.016-1.05.032-1.571.037a102.22 102.22 0 0 1-3.852 0c-.28-.006-.56-.016-.845-.021a104.5 104.5 0 0 1-47.122-12.773c-.79-.436-1.565-.899-2.345-1.356-.56-.323-1.125-.64-1.68-.974a104.597 104.597 0 0 1-34.584-34.575c-.14-.226-.274-.452-.414-.673a109.415 109.415 0 0 1-1.937-3.373 104.687 104.687 0 0 1-3.115-6.123c-.43-.92-.85-1.845-1.254-2.782-.29-.678-.57-1.36-.85-2.039-.355-.877-.705-1.754-1.038-2.642-.28-.747-.55-1.5-.813-2.254a99.401 99.401 0 0 1-.855-2.523 85.085 85.085 0 0 1-.743-2.454 94.013 94.013 0 0 1-.683-2.405 93.765 93.765 0 0 1-.657-2.63c-.183-.765-.365-1.524-.527-2.293-.199-.936-.382-1.872-.554-2.809a69.732 69.732 0 0 1-.382-2.162 115.142 115.142 0 0 1-.441-2.997 92.946 92.946 0 0 1-.565-5.224c-.049-.587-.092-1.179-.135-1.765a110.962 110.962 0 0 1-.172-3.535c-.01-.458-.027-.915-.032-1.372a101.41 101.41 0 0 1 0-4.046l.016-.635a104.487 104.487 0 0 1 12.79-47.257c.376-.683.774-1.35 1.167-2.023.382-.667.758-1.34 1.162-2.001a104.621 104.621 0 0 1 34.585-34.58c.21-.128.42-.258.63-.381a102.023 102.023 0 0 1 4.723-2.67 95.465 95.465 0 0 1 4.762-2.372 88.017 88.017 0 0 1 4.826-2.109c.888-.366 1.786-.716 2.685-1.06a130.117 130.117 0 0 1 4.778-1.663c.801-.258 1.608-.494 2.415-.731a96.824 96.824 0 0 1 2.443-.689 86.89 86.89 0 0 1 2.593-.645c.775-.183 1.55-.366 2.33-.539.925-.199 1.851-.376 2.776-.548a97.665 97.665 0 0 1 2.19-.388c.99-.161 1.985-.306 2.975-.436a91.817 91.817 0 0 1 5.235-.565c.587-.048 1.173-.09 1.76-.134 1.178-.075 2.362-.135 3.545-.172l1.362-.032a99.714 99.714 0 0 1 4.056 0l.62.016a104.534 104.534 0 0 1 47.293 12.805c.57.312 1.13.651 1.695.98.775.446 1.56.887 2.33 1.35a104.545 104.545 0 0 1 34.579 34.606c.118.194.236.382.35.57a100.913 100.913 0 0 1 2 3.487c.227.41.447.813.663 1.222a85.784 85.784 0 0 1 1.598 3.13c.263.539.522 1.082.774 1.626a95.338 95.338 0 0 1 2.104 4.81c.382.93.748 1.862 1.103 2.803.258.689.5 1.383.748 2.077.312.898.624 1.797.915 2.706.236.748.462 1.507.683 2.26.253.866.506 1.732.743 2.61.215.806.408 1.614.602 2.42.2.835.398 1.668.581 2.508.183.866.35 1.732.511 2.598.151.791.29 1.582.425 2.379a99.1 99.1 0 0 1 .41 2.781c.096.737.193 1.48.28 2.217.112 1.006.209 2.012.295 3.018.054.657.108 1.308.15 1.97.07 1.119.124 2.233.162 3.346.016.517.032 1.044.038 1.56.006 1.26.006 2.551-.022 3.837zm39.522-342.572c-4.8 0 15.316 3.773 15.316 3.773s-2.367-6.394-4.722-12.34l33.504.446c.812 2.746 1.652 5.562 2.5 8.41-21.34-.14-44.11-.29-46.598-.29zm78.617 386.57-1.2-38.398 10.802-3.602 16.8 34.801zm45-14.398-1.2-38.398 10.802-3.602 16.8 34.801zm39.602-10.801-1.2-38.398 10.802-3.602 16.8 34.801zm388.2-354.6c-5.398-.602-16.199-6-21-5.398-4.8.601-10.199 10.8-10.199 10.8s-14.75 24.317-26.297 44.442l-20.953-10.957 3.453-7.082-16.977-23.465 19.617-34.148a7.206 7.206 0 0 0-2.656-9.832 7.202 7.202 0 0 0-9.832 2.656l-64.801 112.8a7.206 7.206 0 0 0 2.656 9.832 7.13 7.13 0 0 0 3.578.957 7.197 7.197 0 0 0 6.25-3.613l17.316-30.141 33.445-1.653 3.188-6.543 20.367 10.754c-4.5 8.301-7.094 12.516-8.555 17.391-5.398 18 13.801 12.602 13.801 12.602l29.398 110.4h-106.2c-7.2 0-4.8-5.398-4.8-13.8 0-8.4-1.2-17.399-6-27-4.802-9.602-37.2-21.603-77.399-21.603s-77.398 27.602-81.602 34.801c-4.199 7.2-9 6.602-11.398 3-2.398-3.601 4.527-40.938-16.398-111.2-22.398-75.199-87.64-67.602-90.64-69.402-3-1.8 7.2-24 1.2-57-2.461-13.55-9.684-23.047-18.043-29.086-1.828-7.926-2.801-17.598.03-25.145 4.47-11.914-1.276-.52 7.356-21.496 5.2-12.62 9.305-22.594 10.906-26.71 23.103-18.178 65.33-19.47 89.94-18.215 3.774.153 6.871.29 8.84.395 9.668.508 21.758.05 29.176 2.074 1.527.414 187.99 65.219 187.99 65.219l14.016 9.383c15.947 13.783 101.896 99.04 95.357 102.366-3.594 4.214 1.267 4.214-4.132 3.613zm280.2 87c3.602 0 14.398 40.801 14.398 40.801l-18-12-16.801-2.398-3.602-30.602s20.406 4.199 24.004 4.199zm-88.371 58.051-4.234-11.578c.43-.402.78-.82 1.03-1.254 6.75 12.227 20.306 36.688 34.056 61.055 2.387 4.227.504 26.86-.281 44.574-.567-.742-1.653-1.484-3.77-1.336-1.266.09-2.953.457-5.164 1.13-4.434 1.35-8.258 2.66-11.578 3.913l-.68-2.238c9.633-3.016 13.164-4.422 15.387-5.305a83.02 83.02 0 0 1 1.192-.469c3.101-1.175 2.27-3.644 2.168-3.925-.97-2.567-3.414-1.965-6.801-1.13-2.457.606-5.012 1.38-7.008 2.134-.078.027-2.91 1.109-6.773 2.656l-.532-1.754a709.856 709.856 0 0 1 9.465-3.043c6.024-1.832 8.871-4.09 8.695-6.895-.09-1.43-1.117-3.117-3.726-3.562-.863-.145-8.766-.067-18.512.098l-1.5-4.934 9.484-3.008c6.012-1.828 8.864-4.086 8.684-6.89-.09-1.43-1.117-3.118-3.727-3.563-.863-.144-8.765-.066-18.508.098l-1.488-4.883c4.156-1.316 7.809-2.492 9.527-3.074 6.172-2.098 8.828-4.254 8.61-6.98-.055-.673-.48-2.903-3.707-3.454-.5-.086-3.395-.094-7.633-.055l-2.418-7.945c5.691-1.808 8.383-4.015 8.21-6.738-.09-1.43-1.116-3.117-3.726-3.563-.5-.086-3.39-.093-7.633-.054l-1.359-4.47c.34-.128.637-.218.844-.218 1.36 0 2.719-3.074 3.64-5.746 1.871-1.262 2.774-2.664 2.672-4.25-.105-1.254-.922-2.715-2.906-3.344zm-6.324-18.48c-.031-.004-.055-.016-.09-.023a3.686 3.686 0 0 0-.371-.032l-.848-2.316c.004 0 .461.836 1.309 2.371zm-85.902 19.832L927.44 605.4l20.75-2.398 2.054 6.753c-5.402 1.688-7.902 3.481-8.328 5.977-.296 1.754.637 3.137 1.528 3.79.5.366 1.11.558 1.734.546 2.555-.055 5.305-.113 8.152-.172l2.485 8.156c-5.403 1.688-7.903 3.48-8.328 5.977-.297 1.754.636 3.137 1.527 3.79.5.366 1.11.558 1.734.546 2.551-.055 5.305-.113 8.153-.172l2.484 8.156c-5.402 1.684-7.906 3.48-8.328 5.977-.078.465-.062.898.008 1.308-8.238-2.164-29.406-2.628-35.223-2.628-6.605-.008-12.004-17.406-12.004-17.406zm291.177 189.523c0 .274-.014.548-.022.828a104.483 104.483 0 0 1-12.775 47.12c-.371.678-.769 1.34-1.156 2.001-.387.672-.77 1.35-1.167 2.016a104.55 104.55 0 0 1-34.561 34.556l-.624.382a94.214 94.214 0 0 1-3.43 1.968c-.425.236-.855.467-1.285.699a97.12 97.12 0 0 1-4.748 2.37c-.952.447-1.909.877-2.871 1.296-.645.28-1.29.543-1.936.807-.908.37-1.822.737-2.747 1.08-.705.264-1.42.517-2.13.77-.876.306-1.758.612-2.65.897-.764.242-1.527.474-2.302.7-.854.252-1.71.5-2.564.725-.818.22-1.64.414-2.463.613-.817.194-1.64.387-2.462.57-.877.188-1.753.355-2.635.516-.78.145-1.56.285-2.344.414a121.149 121.149 0 0 1-5.006.694c-1.006.118-2.016.21-3.027.296-.656.053-1.307.107-1.957.15-1.119.07-2.232.124-3.345.161-.521.017-1.048.033-1.57.038-1.285.022-2.565.027-3.85 0-.28-.006-.559-.016-.844-.021a104.429 104.429 0 0 1-47.09-12.765c-.79-.435-1.564-.898-2.344-1.355-.559-.322-1.123-.64-1.677-.973a104.46 104.46 0 0 1-34.556-34.551c-.14-.226-.274-.452-.414-.673a99.308 99.308 0 0 1-1.93-3.37c-.247-.452-.495-.904-.737-1.361a92.24 92.24 0 0 1-1.527-2.995c-.285-.586-.57-1.177-.844-1.763-.43-.92-.85-1.845-1.253-2.78-.29-.678-.57-1.36-.85-2.038-.354-.876-.704-1.753-1.037-2.64-.28-.747-.548-1.5-.812-2.253a99.377 99.377 0 0 1-.855-2.522 85.052 85.052 0 0 1-.742-2.451 93.89 93.89 0 0 1-.683-2.404 117.02 117.02 0 0 1-.655-2.629c-.183-.763-.36-1.522-.527-2.29-.2-.936-.382-1.872-.554-2.807a90.156 90.156 0 0 1-.823-5.157 93.012 93.012 0 0 1-.565-5.22c-.048-.586-.09-1.178-.134-1.764a96.835 96.835 0 0 1-.167-3.532l-.032-1.371c-.021-1.35-.027-2.694 0-4.044l.016-.634a104.415 104.415 0 0 1 12.781-47.225c.376-.682.774-1.35 1.167-2.021.387-.667.758-1.34 1.161-2a104.55 104.55 0 0 1 34.561-34.556 101.917 101.917 0 0 1 5.35-3.049 95.42 95.42 0 0 1 4.759-2.37 96.377 96.377 0 0 1 2.833-1.28c.661-.286 1.323-.56 1.99-.829.887-.365 1.78-.715 2.682-1.059a130.203 130.203 0 0 1 4.775-1.661 94.232 94.232 0 0 1 2.414-.731 96.832 96.832 0 0 1 2.441-.689c.86-.23 1.726-.44 2.592-.645.774-.183 1.548-.366 2.328-.538.925-.198 1.85-.376 2.774-.548a97.507 97.507 0 0 1 2.189-.387 97.373 97.373 0 0 1 2.967-.436 91.743 91.743 0 0 1 5.231-.565c.587-.048 1.173-.09 1.76-.134 1.177-.075 2.36-.134 3.542-.172l1.36-.032c1.356-.021 2.705-.032 4.055 0l.618.016c16.523.457 32.76 4.85 47.262 12.797.57.312 1.129.65 1.693.978.775.447 1.56.888 2.329 1.35a104.512 104.512 0 0 1 34.555 34.583c.119.194.237.382.35.57a100.763 100.763 0 0 1 2 3.484c.22.409.44.812.661 1.22a85.931 85.931 0 0 1 1.597 3.13c.264.538.522 1.08.774 1.624.457.968.898 1.94 1.318 2.925.269.623.527 1.252.785 1.882.382.93.747 1.86 1.102 2.8.258.69.5 1.383.747 2.076.312.898.624 1.796.914 2.705.242.747.463 1.505.683 2.258.253.866.506 1.731.742 2.608.215.806.414 1.613.602 2.42.2.833.398 1.666.576 2.505.183.865.35 1.731.51 2.597.151.79.29 1.58.425 2.376.15.925.285 1.855.409 2.78.096.737.199 1.479.28 2.215.112 1.006.21 2.011.29 3.017.054.656.107 1.306.15 1.967.07 1.119.124 2.232.156 3.345.017.516.033 1.043.037 1.56 0 1.257.014 2.548-.016 3.833z" style="fill:#e64539;fill-opacity:1"/><path d="m930.32 490.32-.227.07c.04-.011.079-.023.114-.03a.566.566 0 0 1 .113-.04z" style="fill:#e64539;fill-opacity:1"/></g></svg>