<svg width="512" height="512" xmlns="http://www.w3.org/2000/svg"><defs><filter style="color-interpolation-filters:sRGB" id="a" x="-.072" y="-.064" width="1.143" height="1.127"><feFlood flood-opacity="1" flood-color="#3A3F5E" result="flood"/><feComposite in="flood" in2="SourceGraphic" operator="out" result="composite1"/><feGaussianBlur in="composite1" stdDeviation="12.382" result="blur"/><feOffset result="offset"/><feComposite in="offset" in2="SourceGraphic" operator="atop" result="composite2"/></filter></defs><g style="fill:#000"><path d="M91.228 149.26h512v512h-512Z" fill="#b90202" style="fill:#1b1f21;fill-opacity:1" transform="translate(-91.228 -149.26)"/><path style="fill:#e64539;fill-opacity:1;stroke:none;stroke-width:78.1762;stroke-linejoin:round;stroke-miterlimit:4;stroke-dasharray:none;stroke-opacity:1;paint-order:markers stroke fill;filter:url(#a)" d="m300.055 22.236-73.64 1.448 44.65 98.739zm65.242 2.183-35.84 109.725 92.793-60.725zm-193.645 4.325-63.61 9.337 99.06 97.281zm3.645 117.937-.791 64.033 53.514 31.872-16.064 7.256-53.764-18.137-9.457 18.137 13.726 10.367-4.403 15.536-25.905-8.798-18.137 32.116 42.62 30.578 31.48-12.367 11.766-36.349 12.074 5.192v11.4l64.256-4.148 10.363-29.014v-32.107l-49.744-15.579 16.58-23.559 20.211-31.883-31.492-13.987zm122.677 2.559-38.867 58.629 45.348 14.195-2.333 46.43 17.644 6.574 26.94-40.424 3.09-77.037zm-141.337 8.751L82.932 186.63 67.9 212.53l49.752 21.765H54.428c-3.118-.001-6.224 51.822-6.224 51.822h60.106l32.14-62.18-34.214-20.569 50.4-.677zM378.82 182.48l-14.512 13.737 2.065 35.488-16.578 21.239v27.981h29.025l51.802-43.53zm53.878 77.73-58.048 42.482-54.914-16.575-54.926 32.124-62.18-2.073-3.116 27.986 41.455 16.063-4.139 16.07-32.124-10.371-51.824-21.762-20.73 11.4v35.237l32.129 21.762h99.494l18.649-41.45-21.24-26.554 59.588 2.715-26.553 25.26 30.703 1.166 39.386-15.026 27.838 23.965 61.552-.364 5.257-57.947-66.661 2.212-5.196 16.575 23.847 11.411-34.2-4.15 12.438-32.125 74.612-5.175zM49.56 299.062l64.783 53.674 36.272-14.512-57.013-39.162zm242.32 85.118-11.006 27.989 31.088 27.974 70.08-15.677V384.18zm-18.879 37.699s-32.134 9.325-39.385 9.325l56.11 58.56 31.097-14.501z"/></g></svg>