<svg width="512" height="512" xmlns="http://www.w3.org/2000/svg"><defs><filter style="color-interpolation-filters:sRGB" id="a" x="-.06" y="-.071" width="1.121" height="1.142"><feFlood flood-opacity="1" flood-color="#3A3F5E" result="flood"/><feComposite in="flood" in2="SourceGraphic" operator="out" result="composite1"/><feGaussianBlur in="composite1" stdDeviation="11.723" result="blur"/><feOffset result="offset"/><feComposite in="offset" in2="SourceGraphic" operator="atop" result="composite2"/></filter></defs><g style="fill:#000;fill-opacity:1;stroke:#fff;stroke-width:100;stroke-miterlimit:4;stroke-dasharray:none;stroke-opacity:1;paint-order:markers stroke fill" stroke="none"><path d="M0 0h512v512H0Z" fill="#b90202" style="fill:#1b1f21;fill-opacity:1;stroke:none"/><path style="mix-blend-mode:normal;fill:#e64539;fill-opacity:1;stroke:none;stroke-width:70.5077;stroke-linecap:butt;stroke-linejoin:round;stroke-miterlimit:4;stroke-dasharray:none;stroke-opacity:1;paint-order:markers stroke fill;filter:url(#a)" d="M120.585 68.202a49.633 49.633 0 0 0-6.926.445c-38.963 8.679-52.954 47.211-50.862 59.4 3.458 15.523 15.918 35.294 34.252 40.932 18.781 37.05 101.464 84.593 119.931 86.726 0 0-.805 43.806 5.006 53.89 3.953 5.904 53.283 24.31 87.58 24.735 2.935.036 60.944 30.785 85.19 41.61.094 11.265 3.092 21.076 6.8 30.53-7.09 20.28 5.007 24.61 8.544 45.456 2.266 7.466 14.545 3.98 14.303-8.109-6.437-16.401-5.443-32.037 1.856-31.55l22.728 19.75 34.204 30.867c3.953 2.549 15.39-2.473 10.705-9.67l-30.083-34.233 1.76-1.85 50.324 34.14c4.074 2.687 13.403-7.553 8.902-11.457l-47.169-32.087 1.835-1.512 41.799 16.075c4.803 1.991 11.212-8.432 4.755-11.197l-41.201-20.088 26.678 6.7c3.623.402 5.674-7.206 1.644-8.02l-31.862-11.615c-17.08-8.475-39.193-24.469-59.39-24.198-23.7-22.824-58.444-62.518-70.75-68.783l-81.22-3.412 2.712-80.724c-35.366-52.342-64.524-67.072-102.974-96.71-11.355-27.485-32.237-35.955-49.07-36.04Zm198.305 51.473-16.57 95.234c.756.185 61.322-69.306 60.946-69.927-.327-.54-44.376-25.307-44.376-25.307zm99.052 83.225-68.702 52.802 81.65-3.725c.818-.496-12.013-49.13-12.948-49.077zM235.126 347.83 157.36 393.6l36.041 31.714z" transform="translate(-39.671 -9.879)"/></g></svg>