<svg width="512" height="512" xmlns="http://www.w3.org/2000/svg"><defs><filter style="color-interpolation-filters:sRGB" id="a" x="-.082" y="-.067" width="1.164" height="1.134"><feFlood flood-opacity="1" flood-color="#3A3F5E" result="flood"/><feComposite in="flood" in2="SourceGraphic" operator="out" result="composite1"/><feGaussianBlur in="composite1" stdDeviation="6.783" result="blur"/><feOffset result="offset"/><feComposite in="offset" in2="SourceGraphic" operator="atop" result="composite2"/></filter></defs><g style="fill:#000"><g style="stroke:none"><path d="M321.002 432.496h512v512h-512z" fill="#b90202" style="fill:#1b1f21;fill-opacity:1" transform="translate(-321.002 -432.496)"/><g style="fill:#e64539;fill-opacity:1;stroke:none;filter:url(#a)"><path style="fill:#e64539;fill-opacity:1;stroke:none;stroke-width:22.6204;stroke-linejoin:round;stroke-miterlimit:4;stroke-dasharray:none;stroke-opacity:1;paint-order:markers stroke fill" d="M986.895 222.917c9.355 5.261 16.31 12.17 19.988 19.887 13.546 28.428-22.534 61.057-80.594 73.307a81.382 81.382 0 0 1-3.953.725c-2.82-5.38-5.958-8.666-9.238-8.666v121.8c3.414 0 6.65-.866 9.557-2.726 16.198 23.951 35.722 35.562 51.856 37.655 9.864 1.279 18.875-1.06 24.195-7.437 3.742-4.485 5.047-10.596 3.82-17.28a25.868 25.868 0 0 0 6.158-3.584l.05.067c7.524-6.104 12.153-13.273 13.512-20.678.834-4.551.326-9.12-1.33-13.308a31.044 31.044 0 0 0 4.527-3.937 38.43 38.43 0 0 0 3.564-3.355l-10.5.454-1.344-3.612c-17.188 10.098-48.2 7.709-81.232-5.368a174.715 174.715 0 0 0-.471-11.828c33.127 4.263 62.296 2.318 81.07-5.655l.997-2.086-5.154-1.81 2.765-3.622-4.271-3.615c-18.19 6.878-45.798 8.122-76.754 3.664a240.517 240.517 0 0 0-1.278-8.58c27.768-1.587 52.702-6.777 71.799-14.358l7.19-11.682 1.544-6.68c-18.487 11.051-48.341 18.736-82.907 20.555-.901-3.95-1.9-7.74-2.977-11.239 1.65-.287 3.296-.581 4.93-.926 45.147-9.526 77.985-30.709 87.373-53.285 8.01 4.9 12.49 13.407 13.074 22.276-1.017 5.306-4.183 10.345-9.145 14.988l9.873-.11 9.084-7.4c.18-1.11.284-2.228.284-3.354 0-.375-.015-.753-.034-1.128.275-14.206-7.012-28.449-20.543-35.332.535-5.49-.388-10.973-2.928-16.303-5.306-11.142-16.88-20.163-32.556-26.433zm76.14 89.615-11.006 4.019-9.365-3.13c-3.59 1.598-7.708 2.871-12.275 3.822l-3.648 5.807-10.618 8.683c8.818-.39 16.768-1.547 23.58-3.468 3.153 5.324 3.06 9.787.698 13.811-.868 1.479-2.164 2.943-3.883 4.318-5.302 3.547-12.399 5.356-20.817 5.591l2.851 4.815-3.798 2.517 4.278 3.398-1.626 1.645c2.554-.174 4.99-.483 7.284-.948v.001c2.22 6.08 1.254 11.246-2.335 15.627-2.212 2.703-5.595 5.098-10.153 6.738a32.59 32.59 0 0 1-1.68.38l.087 3.852 10.07 3.01c3.788-2.001 6.984-4.552 9.472-7.591 5.656-6.908 7.24-16.284 4.103-25.2a27.953 27.953 0 0 0 5.056-3.233c.362-.294.705-.597 1.042-.904 3.746-2.455 6.694-5.438 8.737-8.921 3.94-6.714 3.821-14.91.102-22.437 4.692-2.26 8.49-5.059 11.252-8.368l.2.14a38.3 38.3 0 0 0 1.2-1.971c.018-.028.03-.062.048-.09.418-.62.793-1.26 1.145-1.913zm43.936 10.462-53.14 33.56 58.194-2.281zm-59.391 48.235 49.22 27.943 7.03-24.974zm-4.458 21.711 13.665 47.89 28.102-14.074zm-107.916 7.582c30.249 11.156 58.429 13.763 76.79 6.815.68 2.152.78 4.43.337 6.847-.69 3.76-2.879 7.964-7.084 12.114-15.717 8.388-42.918.55-71.17-18.961a72.716 72.716 0 0 0 1.127-6.816zm-5.485 19.165c23.622 16.013 46.37 24.353 63.112 22.798.687 3.877-.226 6.583-1.85 8.53-2.423 2.903-7.63 4.883-15.177 3.904-12.694-1.646-30.837-11.855-46.085-35.232z" transform="translate(-1685.079 -403.593) scale(1.917)"/></g></g></g></svg>