<svg width="512" height="512" xmlns="http://www.w3.org/2000/svg"><defs><filter style="color-interpolation-filters:sRGB" id="a" x="-.065" y="-.061" width="1.131" height="1.121"><feFlood flood-opacity="1" flood-color="#3A3F5E" result="flood"/><feComposite in="flood" in2="SourceGraphic" operator="out" result="composite1"/><feGaussianBlur in="composite1" stdDeviation="11.723" result="blur"/><feOffset result="offset"/><feComposite in="offset" in2="SourceGraphic" operator="atop" result="composite2"/></filter></defs><g style="fill:#000"><path d="M0 0h512v512H0Z" fill="#b90202" style="fill:#1b1f21;fill-opacity:1"/><path style="fill:#e64539;fill-opacity:1;stroke:none;stroke-width:85.1904;stroke-linejoin:round;stroke-miterlimit:4;stroke-dasharray:none;stroke-opacity:1;paint-order:markers stroke fill;filter:url(#a)" d="M161.248 24.217c-5.53-.27-11.771 1.837-16.941 2.755-9.175 1.58-29.917 10.304-39.652 16.678C94.5 50.268 84.776 57.524 76.221 67.213 52.128 94.137 40.33 124.39 40.453 158.925c.03 8.121.2 15.533.378 16.47 1.2 5.83 3.875 9.506 9.909 9.513 6.408-.3 10.161-5.915 10.246-7.68.034-.695.013-7.4-.044-14.897-.254-33.608 11.107-61.83 34.11-84.741 8.186-8.153 20.763-17.401 27.985-20.577 10.226-4.53 17.302-7.226 30.815-10.63 8.29-1.232 9.503-1.513 12.726-2.94 6.587-2.916 6.52-14.485-.105-18.03-1.619-.75-3.382-1.105-5.225-1.196zm25.664 47.154c-4.248-.452-10.789.515-19.215 2.864-4.928 1.459-9.707 3.355-15.903 6.235-2.223.437-14.192 8.297-19.486 12.796-23.756 20.19-38.373 54.007-35.713 82.625.791 8.512 2.721 12.628 6.706 14.302 3.717 1.562 8.715.323 11.7-2.898 2.44-2.632 2.617-3.648 2.222-12.775-1.252-28.965 12.95-56.043 37.38-71.269 9.897-6.169 19.32-9.654 31.212-11.538 5.889-.932 8.981-3.471 9.846-8.084.905-4.824-1.107-9.144-5.28-11.332-.891-.466-2.054-.776-3.47-.926zm88.576 49.502c-9.244 0-16.76 7.52-16.76 16.768v194.925c0 .216-.14.431-.14.67 0 .869.14 1.724.14 2.565v44.845h.008c.3 15.677 12.2 26.329 26.806 26.329 14.25 0 25.94-11.14 26.78-25.18a35.24 35.24 0 0 0 6.755.68c19.726 0 35.77-16.04 35.77-35.762 0-3.03-.394-6.014-1.137-8.914 21.235-6.314 36.77-26 36.77-49.258 0-14.247-5.834-27.158-15.238-36.478a55.973 55.973 0 0 0 6.509-26.145c0-24.45-15.988-46.099-39.136-53.391a41.88 41.88 0 0 0 1.036-9.176c0-23.416-19.052-42.468-42.47-42.468zm-46.96.492-25.695.009c-23.413 0-42.463 19.047-42.463 42.463 0 3.03.348 6.108 1.036 9.178-23.148 7.295-39.131 28.94-39.131 53.39a56.056 56.056 0 0 0 6.502 26.152c-9.4 9.315-15.236 22.225-15.236 36.475 0 23.258 15.535 42.944 36.772 49.255a35.746 35.746 0 0 0-1.142 8.92c0 19.725 16.047 35.77 35.77 35.77 2.241 0 4.501-.224 6.758-.662.84 14.04 12.523 25.206 26.773 25.206 14.709 0 26.82-11.897 26.82-26.569V138.128c-.002-9.245-7.517-16.764-16.763-16.764zm178.27 205.953c-8.816.042-10.491 6.934-11.18 16.227-2.724 38.37-33.548 70.098-71.172 73.257-11.768.988-13.52 1.568-15.33 5.07-3.07 5.936-1.34 12.463 4.096 15.445 4.44 2.435 26.498-.054 35.655-4.023 19.4-8.409 24.619-11.688 36.177-22.728 13.341-12.742 20.789-24.31 26.152-40.614 2.15-6.715 11.904-41.986-4.398-42.634zm57.407 14.397c-8.374-1.238-12.89 7.951-14.05 19.395-2.494 26.184-10.872 45.882-28.374 66.713-5.843 6.955-18.825 17.611-27.478 22.553-17.459 9.974-28.867 13.437-50.548 15.348-12.874 1.134-17.036 4.023-17.036 11.824.282 16.793 30.3 8.475 41.154 6.074.557-.344 2.632-.882 4.611-1.194 7.293-1.149 31.009-11.973 38.024-17.353 18.97-14.552 29.752-25.23 36.86-36.506 1.028-1.63 2.543-3.675 3.367-4.544 2.435-2.567 9.93-18.572 13.435-28.69 3.771-10.882 8.08-25.691 7.281-39.08-.306-5.124.115-9.31-3.42-13.347-1.355-.626-2.63-1.017-3.826-1.193z" transform="matrix(.9993 0 0 1.00066 .181 -.17)"/></g></svg>