<svg width="512" height="512" xmlns="http://www.w3.org/2000/svg"><defs><filter style="color-interpolation-filters:sRGB" id="a" x="-.076" y="-.063" width="1.151" height="1.126"><feFlood flood-opacity="1" flood-color="#3A3F5E" result="flood"/><feComposite in="flood" in2="SourceGraphic" operator="out" result="composite1"/><feGaussianBlur in="composite1" stdDeviation="11.723" result="blur"/><feOffset result="offset"/><feComposite in="offset" in2="SourceGraphic" operator="atop" result="composite2"/></filter></defs><path d="M554.589 0h512v512h-512z" fill="#b90202" style="fill:#1b1f21;fill-opacity:1" transform="translate(-554.589)"/><g style="fill:#e64539;fill-opacity:1;stroke:none;stroke-width:60;stroke-linejoin:round;stroke-miterlimit:4;stroke-dasharray:none;stroke-opacity:1;paint-order:markers stroke fill"><g style="fill:#e64539;fill-opacity:1;stroke:none"><g style="fill:#e64539;fill-opacity:1;stroke:none;filter:url(#a)" transform="translate(-12.421 .9) scale(1.03084)"><g style="fill:#e64539;fill-opacity:1;stroke:none"><path d="M226.063 24.188 222 58.718l32.688 25.626 23.75-50.03c-18.145-9.142-35.272-9.715-52.375-10.127ZM166.75 61.093c-24.248 2.93-42.95 15.897-58.875 33.812h.03l96.407 62.594zM300.875 88.75l18.656 85.5-91.092-23.875L269 233.938l-140.594-89.375c-3.966 4.875-7.7 9.97-11.22 15.28-28.794 43.465-42.052 101.104-42.905 156.72 40.122 19.627 63.843 40.14 74.032 61.562 9.157 19.25 5.475 39.06-6.343 54.25 25.214 23.382 68.638 37.63 113.155 38.344 44.813.717 89.973-12.083 118.625-38.783-6.033-6.937-10.412-14.346-12.5-22.437-2.8-10.85-.952-22.554 5.188-33.28 11.757-20.542 37.646-39.263 80.062-59.69-.88-52.663-13.855-110.235-42.5-154.405-23.4-36.085-56.548-63.412-103.125-73.375Zm-119.28 168.844c27.75 0 50.25 22.5 50.25 50.25s-22.5 50.25-50.25 50.25c-27.752 0-50.25-22.5-50.25-50.25s22.498-50.25 50.25-50.25zm149.468 0c27.75 0 50.25 22.5 50.25 50.25s-22.5 50.25-50.25 50.25-50.25-22.5-50.25-50.25 22.5-50.25 50.25-50.25zm-74.75 86.125c13.74 29.005 24.652 58.023 30.062 87.03-14.777 12.895-41.26 14.766-60.125 0 7.315-29.007 16.12-58.025 30.063-87.03z" fill="#000" style="fill:#e64539;fill-opacity:1;stroke:none;stroke-width:60;stroke-linejoin:round;stroke-miterlimit:4;stroke-dasharray:none;stroke-opacity:1;paint-order:markers stroke fill"/><ellipse style="fill:#e64539;fill-opacity:1;stroke:none;stroke-width:60;stroke-linecap:round;stroke-linejoin:round;stroke-miterlimit:4;stroke-dasharray:none;stroke-opacity:1;paint-order:markers stroke fill" cx="182.649" cy="309.057" rx="24.237" ry="24.372"/></g><ellipse style="fill:#e64539;fill-opacity:1;stroke:none;stroke-width:60;stroke-linecap:round;stroke-linejoin:round;stroke-miterlimit:4;stroke-dasharray:none;stroke-opacity:1;paint-order:markers stroke fill" cx="329.446" cy="308.332" rx="22.402" ry="22.922"/></g></g></g></svg>