<svg width="512" height="512" xmlns="http://www.w3.org/2000/svg"><defs><filter style="color-interpolation-filters:sRGB" id="a" x="-.064" y="-.076" width="1.129" height="1.152"><feFlood flood-opacity="1" flood-color="#3A3F5E" result="flood"/><feComposite in="flood" in2="SourceGraphic" operator="out" result="composite1"/><feGaussianBlur in="composite1" stdDeviation="12.382" result="blur"/><feOffset result="offset"/><feComposite in="offset" in2="SourceGraphic" operator="atop" result="composite2"/></filter></defs><g style="fill:#000"><path d="M0 0h512v512H0Z" fill="#b90202" style="fill:#1b1f21;fill-opacity:1"/><path style="fill:#e64539;fill-opacity:1;stroke:none;stroke-width:99.6517;stroke-linejoin:round;stroke-miterlimit:4;stroke-dasharray:none;stroke-opacity:1;paint-order:markers stroke fill;filter:url(#a)" d="M25.212 326.92c66.124-71.874 154.954-123.524 232.25-124.445 78.97 0 171.691 50.552 229.326 124.446-64.63 85.059-148.184 124.942-229.5 124.942-105.532 0-185.03-71.812-232.076-124.942zm317.249 8.162c.81-6.85.192-17.978-1.59-28.584-6.298-24.043-20.252-42.238-41.303-54.761-16.435-9.487-34.616-12.863-55.932-10.385-19.435 1.495-32.966 11.57-47.353 21.873L183.12 248.33c-46.33 14.35-85.809 48.835-115.226 78.582 26.45 28.309 66.389 60.031 110.91 77.642 2.865 2.226 1.095-.74-3.892-6.521-21.362-24.76-29.446-60.913-24.31-93.94l20.051 3.314c-.686 69.744 38.69 103.6 86.351 107.588 50.542-3.927 80.975-42.248 85.457-79.914zM198.189 318.3c.7-6.328 2.17-7.341 2.17-7.341l40.632 5.135-26.059-30.42c14.389-16.401 43.078-18.989 59.96-13.57 18.7 7.017 30.836 21.123 36.328 36.53 11.395 42.528-18.961 75.757-55.22 76.35-41.994.164-57.811-37.324-57.811-66.684zm245.917 8.613c-50.108-50.588-83.927-66.008-112.245-76.994 6.32 8.303 14.541 18.178 18.02 24.57 3.964 7.285 9.473 20.589 10.291 24.849 4.317 22.49 4.554 29.446 1.596 46.748-3.257 19.056-11.781 36.997-24.68 51.948-4.987 5.781-6.757 8.747-3.892 6.52 37.064-13.894 87.155-52.81 110.91-77.64zm-54.033-110.64 44.464-91.303 38.315 39.244zM268.469 66.6l63.367-6.463-62.762 118.732Zm110.279 7.23 36.987 31.226-84.483 73.76z"/></g></svg>