<svg width="512" height="512" xmlns="http://www.w3.org/2000/svg"><defs><filter style="color-interpolation-filters:sRGB" id="a" x="-.049" y="-.044" width="1.098" height="1.088"><feFlood flood-opacity="1" flood-color="#3A3F5E" result="flood"/><feComposite in="flood" in2="SourceGraphic" operator="out" result="composite1"/><feGaussianBlur in="composite1" stdDeviation="12.382" result="blur"/><feOffset result="offset"/><feComposite in="offset" in2="SourceGraphic" operator="atop" result="composite2"/></filter></defs><g style="fill:#000"><path d="M0 0h512v512H0Z" fill="#b90202" style="fill:#1b1f21;fill-opacity:1"/><g style="fill:#e64539;fill-opacity:1;stroke:none;stroke-width:1.00071;stroke-miterlimit:4;stroke-dasharray:none"><path style="fill:#e64539;fill-opacity:1;stroke:none;stroke-width:1.18217;stroke-linejoin:round;stroke-miterlimit:4;stroke-dasharray:none;stroke-opacity:1;paint-order:markers stroke fill;filter:url(#a)" d="M711.535 553.674c1.957-7.085 10.63-14.913 18.07-16.309 11.558-2.168 24.124 6.04 26.84 17.533 2.355 9.96 12.244 26.059 20.824 33.9 16.305 14.903 34.488 21.37 55.947 19.9 10.614-.728 14.713-1.897 25.634-7.308 17.034-8.441 25.392-16.763 33.727-33.584 6.414-12.944 6.747-14.342 8.11-34.046 1.783-25.745 6.788-45.822 15.982-64.106 13.693-27.23 28.27-43.58 73.461-82.393 48.215-41.41 61.054-55.079 77.615-82.634 14.749-24.54 22.257-50.619 24.768-86.032 2.736-38.593-1.984-64.957-17.074-95.373-26.994-54.41-74.741-87.4-135.529-93.638-27.112-2.782-60.316 2.231-83.05 12.539-53.253 24.146-88.183 67.779-99.767 124.627-1.81 8.884-4.41 18.045-5.776 20.357-7.856 13.3-30.094 12.974-38.348-.564-9.71-15.923 5.36-68.634 30.761-107.604 11.645-17.864 38.468-45.264 56.205-57.412C824.693 4.57 855.087-8.261 884.34-14.104c18.635-3.723 60.413-3.735 79.135-.024 43.713 8.665 81.318 28.894 113.385 60.996 25.066 25.092 41.957 52.716 52.469 85.804 8.123 25.574 9.746 37.213 9.662 69.305-.152 57.587-11.268 96.715-39.533 139.16-15.389 23.106-36.03 44.5-73.766 76.454-35.297 29.89-50.054 44.502-59.905 59.32-12.74 19.164-16.983 33.1-18.848 61.914-1.712 26.45-8.248 45.66-22.856 67.168-14.169 20.863-40.865 39.013-67.347 45.786-57.025 21.467-155.941-33.182-145.2-98.105zm366.49-39.464 127.57 76.399-49.68 51.547zm63.858-90.3 139.958 30.178-18.528 53.698zm-323.318-11.193c-3.673-1.343-9.523-7.115-11.963-11.804-4.881-9.382-1.057-22.728 8.263-28.835 2.266-1.484 9.03-3.316 15.032-4.07 14.13-1.773 23.087-5.84 31.588-14.342 10.392-10.392 14.47-20.062 14.483-34.343.013-14.817-4.173-24.907-14.568-35.118-9.084-8.922-18.275-13.039-32.303-14.466-8.803-.896-11.701-1.943-16.125-5.827-8.255-7.248-9.01-12.056-8.261-52.621.635-34.427.866-36.672 5.017-48.692 14.494-41.977 43.76-69.31 86.33-80.63 13.5-3.59 42.616-3.53 56.392.115 51.426 13.61 89.235 60.283 90.314 111.488.277 13.119-1.577 17.33-10.59 24.059-5.941 4.435-18.048 4.435-23.989 0-8.127-6.068-10.108-10.326-11.62-24.987-4.098-39.715-33.647-67.06-72.467-67.06-31.884 0-57.945 18.165-69.285 48.293-2.692 7.153-3.653 13.927-4.32 30.463l-.859 21.264 12.785 5.223c16.315 6.664 28.921 15.975 39.315 29.037 15.523 19.509 21.636 38.542 20.355 63.387-1.42 27.527-10.423 46.733-30.71 65.51-12.493 11.563-26.17 19.04-41.395 22.628-9.926 2.34-26.71 3.05-31.419 1.328zm349.675-94.95 145.896-40.291-6.058 77.327z" transform="translate(-438.795 36.447) scale(.68651)"/></g></g></svg>