<svg width="512" height="512" xmlns="http://www.w3.org/2000/svg"><defs><filter style="color-interpolation-filters:sRGB" id="a" x="-.047" y="-.034" width="1.095" height="1.068"><feFlood flood-opacity="1" flood-color="#3A3F5E" result="flood"/><feComposite in="flood" in2="SourceGraphic" operator="out" result="composite1"/><feGaussianBlur in="composite1" stdDeviation="15" result="blur"/><feOffset result="offset"/><feComposite in="offset" in2="SourceGraphic" operator="atop" result="composite2"/></filter></defs><path d="M85.333 85.333h512v512h-512z" fill="#b90202" style="fill:#1b1f21;fill-opacity:1" transform="translate(-85.333 -85.333)"/><path style="fill:#e64539;fill-opacity:1;stroke:none;stroke-width:80;stroke-linejoin:round;stroke-miterlimit:4;stroke-dasharray:none;stroke-opacity:1;paint-order:markers stroke fill;filter:url(#a)" d="M-352.486 6.291s-27.403 65.828-21.36 114.924c4.451 36.546 13.035 114.558 21.772 145.365 4.564 15.94 1.864 56.149 5.521 66.19 1.649 4.363.785 8.38-2.76 18.261-12.297 34.568-10.731 58.916 20.2 150.637 0 0 9.52 20.323 4.709 56.838 0 0-19.763 40.657-7.106 41.47 0 0 .99 2.696 5.272.563 0 0 6.835 7.056 14.222 3.229 0 0 6.843 5.46 12.69.597 0 0 4.687 5.396 11.523 1.037 0 0 8.975 6.053 14.307-.506 0 0 9.474 2.104-7.393-40.625 0 0-6.46-45.3-10.02-54.207-6.79-16.871-1.994-63.113-.546-73.025 2.334-16.568 1.082-44.793-3.184-66.63-3.122-15.652 5.333-45.203 8.455-63.368 6.414-38.24 18.984-135.864 17.413-154.338l5.193 1.822c3.72.01 6.068-1.806 6.068-1.806-1.566 18.443 10.952 116.06 17.412 154.338 3.076 18.134 11.51 47.68 8.475 63.367a185.984 185.984 0 0 0-.68 3.654l5.078-7.756 6.123-45.299 12.16 56.196 2.924-46.856 12.616 3.942 2.672-18.649 13.056-2.855c.553-15.82.492-35.965 3.389-46.205 8.716-30.802 17.315-108.917 21.797-145.366C-146.466 72.135-173.82 6.307-173.82 6.307ZM4.279 109.115c-9.485.346-17.111 38.012-17.111 38.012-18.414 31.886-38.26 42.295-38.26 42.295-80.285 54.08-96.318 72.463-107.492 107.433-3.294 10.043-4.994 13.715-8.898 16.184-3.235 2.043-8.212 7.736-13.834 14.58l12.107 5.662 13.45-13.191 7.626 10.795 30.783-35.448-24.472 52.028 32.379-32.266 8.744-3.076c15.924-14.612 32.586-34.758 40.254-48.498 4.881-8.861 29.146-48.395 44.779-57.688 8.191-4.878 40.9-36.96 40.9-36.96 39.397-23.665 30.534-27.797 30.534-27.797-.257-8.29-10.985-9.035-10.985-9.035-2.783-7.615-9.82-6.204-9.82-6.204-1.71-7.423-10.461-7.246-10.461-7.246-3.531-7.518-13.248-6.064-13.248-6.064-2.069-4.267-4.527-2.754-4.527-2.754-.828-.552-1.644-.791-2.448-.762zM-140.875 370.16l39.463 61.375 17.107-22.295zm-39.932 13.774 21.11 74.127 25.238-20.131zm-37.69 2.004-15.233 66.244 22.011 9.072z" transform="translate(376.32 23.663) scale(.7565)"/></svg>