<svg width="512" height="512" xmlns="http://www.w3.org/2000/svg"><defs><filter style="color-interpolation-filters:sRGB" id="a" x="-.346" y="-.269" width="1.691" height="1.538"><feFlood flood-opacity="1" flood-color="#3A3F5E" result="flood"/><feComposite in="flood" in2="SourceGraphic" operator="out" result="composite1"/><feGaussianBlur in="composite1" stdDeviation="5" result="blur"/><feOffset result="offset"/><feComposite in="offset" in2="SourceGraphic" operator="atop" result="composite2"/></filter></defs><path d="M0 0h512v512H0Z" fill="#b90202" style="fill:#1b1f21;fill-opacity:1"/><path style="fill:#e64539;fill-opacity:1;stroke:none;stroke-width:18.1613;stroke-linejoin:round;stroke-miterlimit:4;stroke-dasharray:none;stroke-opacity:1;paint-order:markers stroke fill;filter:url(#a)" d="M194.96 3.916s-12.177.7-10.482 14.407c0 0 .228.835-.787.807-1.25-.033-1.367 3.013 1.338 5.095 0 0 .629 3.528 2.264 4.86 0 0 1.127 5.435-.844 8.27 0 0-.289 3.404-9.595 4.79l-.048 60.327 38.175.003c-1.28-5.724.596-26.117.596-26.117 2.62 4.078 2.52 11.277 2.52 11.277-.056 1.037.02 2.15.19 3.297l2.175-4.154 3.243 4.942 3.497-4.18.006-4.887 1.482 1.658c-1.743-5.52-2.133-11.672-2.133-11.672l-.16-18.31c-1.274-12.49-10.478-12.58-10.478-12.58-9.302-1.385-10.596-4.39-10.596-4.39-1.97-2.836-.844-8.271-.844-8.271 1.634-1.33 2.265-4.86 2.265-4.86 2.714-2.081 2.581-5.127 1.327-5.094-1.006.026-.778-.807-.778-.807 1.698-13.71-10.474-14.41-10.474-14.41Zm58.742 37.04c-.951.09-2.305 3.036-2.617 3.787-2.21 5.32-3.432 6.745-3.432 6.745 1.477-5.246-.01-6.362-.01-6.362-2.28-1.053-3.627 7.057-3.919 11.266-.147 2.146-.393 4.975-.926 6.3-.927 2.223-5.39 8.01-5.39 8.01-5.622 6.505-6.577 10.692-6.577 10.692-.308 1.665-.957 3.433-1.758 5.153l-.027 2.224 3.304-3.6 5.402-.72-.945 5.835 4.41-1.595c4.081-6.032 6.307-15.637 6.307-15.637.912-5.63 3.094-9.767 3.32-10.015.928-1.013 3.395-3.263 3.395-3.263l1.868-2.217c.458-.58 1.868-2.733 2.746-3.593 5.462-5.24 3.618-5.001 3.618-5.001-.747-.684-5.673 3.046-5.673 3.046 1.058-1.156 4.51-4.358 5.082-6.234.68-2.24-1.54-.919-1.884-.562-6.693 6.912-5.418 4.664-5.418 4.664 4.855-6.134 5.536-7.9 4.21-8.288-.995-.303-6.383 6.85-6.383 6.85 2.39-4.99 2.061-6.436 2.061-6.436-.174-.792-.447-1.08-.764-1.05zm-19.436 53.826 7.536 14.74c.332-.081 4.626-4.383 4.542-4.551zm-10.395 2.343-7.085 14.835 6.158 2.332zm5.594 1.396.49 15.545 6.602-2.286z" transform="translate(-661.642 9.234) scale(4.17512)"/></svg>