<svg width="512" height="512" xmlns="http://www.w3.org/2000/svg"><defs><filter style="color-interpolation-filters:sRGB" id="a" x="-.038" y="-.029" width="1.075" height="1.057"><feFlood flood-opacity="1" flood-color="#3A3F5E" result="flood"/><feComposite in="flood" in2="SourceGraphic" operator="out" result="composite1"/><feGaussianBlur in="composite1" stdDeviation="15" result="blur"/><feOffset result="offset"/><feComposite in="offset" in2="SourceGraphic" operator="atop" result="composite2"/></filter></defs><path d="M0 0h512v512H0Z" fill="#b90202" style="fill:#1b1f21;fill-opacity:1"/><path style="fill:#e64539;fill-opacity:1;stroke:none;stroke-width:58.2892;stroke-linejoin:round;stroke-miterlimit:4;stroke-dasharray:none;stroke-opacity:1;paint-order:markers stroke fill;filter:url(#a)" d="M251.572 48.885s-51.047 2.933-43.941 60.394c-.018-.074.671 2.66-3.299 3.383-5.242-.138-5.732 12.63 5.606 21.356 0 0 2.639 14.792 9.496 20.37 0 0 4.72 22.786-3.54 34.673 0 0-5.406 12.595-44.42 18.4 0 0-38.644.379-43.9 52.736l-.728 76.758s-2.811 45.464-18.098 69.836c0 0-9.241 20.306-10.266 56.324h47.36c7.707-16.977 17.565-44.241 16.506-63.3 0 0-.38-30.178 10.607-47.274 0 0 7.42 86.576 2.137 110.574h160.633c-5.367-23.994 2.271-110.558 2.271-110.558 10.987 17.095 10.566 47.271 10.566 47.271-1.095 19.875 9.27 46.344 17.131 63.287h47.825c-1.039-36.023-11.403-56.31-11.403-56.31-15.227-24.373-18.092-69.836-18.092-69.836l-.673-76.758c-5.34-52.358-43.918-52.736-43.918-52.736-38.995-5.805-44.422-18.4-44.422-18.4-8.26-11.887-3.54-34.673-3.54-34.673 6.853-5.574 9.497-20.37 9.497-20.37 11.378-8.726 10.822-21.495 5.566-21.356-4.18.053-2.422-4.666-3.263-3.383 7.115-57.475-43.909-60.408-43.909-60.408zm3.444 192.617c14.206 0 25.594 3.745 34.164 11.234 8.647 7.49 12.97 17.371 12.97 29.647 0 5.867-1.39 11.466-4.17 16.793-2.779 5.25-7.643 11.194-14.591 17.834l-10.192 9.96c-3.628 3.63-6.215 6.484-7.76 8.57-1.466 2.006-2.507 3.975-3.124 5.905-.464 1.622-.812 3.592-1.043 5.909-.232 2.316-.348 5.48-.348 9.496v14.244h-22.12V353.26c0-7.798 1.081-14.206 3.243-19.225 2.162-5.018 6.717-10.848 13.666-17.488l10.422-10.307c4.4-4.092 7.566-7.951 9.496-11.58 2.007-3.629 3.012-7.336 3.012-11.119 0-6.871-2.547-12.43-7.643-16.676-5.018-4.246-11.697-6.369-20.035-6.369-6.1 0-12.624 1.35-19.572 4.053-6.872 2.702-14.052 6.64-21.541 11.812V254.59c7.257-4.4 14.592-7.682 22.004-9.844 7.489-2.162 15.21-3.244 23.162-3.244zm-16.909 146.615h23.51v29.416h-23.51z" transform="translate(-35.346 -35.346) scale(1.13807)"/></svg>