<svg width="512" height="512" xmlns="http://www.w3.org/2000/svg"><defs><filter style="color-interpolation-filters:sRGB" id="a" x="-.02" y="-.016" width="1.04" height="1.031"><feFlood flood-opacity="1" flood-color="#3A3F5E" result="flood"/><feComposite in="flood" in2="SourceGraphic" operator="out" result="composite1"/><feGaussianBlur in="composite1" stdDeviation="15" result="blur"/><feOffset result="offset"/><feComposite in="offset" in2="SourceGraphic" operator="atop" result="composite2"/></filter></defs><path d="M0 0h512v512H0Z" fill="#b90202" style="fill:#1b1f21;fill-opacity:1"/><path style="fill:#e64539;fill-opacity:1;stroke:none;stroke-width:12.2364;stroke-linejoin:round;stroke-miterlimit:4;stroke-dasharray:none;stroke-opacity:1;paint-order:markers stroke fill;filter:url(#a)" d="M729.02 62.95s-137.655 7.913-118.493 162.863c0 0 2.576 9.432-8.896 9.12-14.135-.373-15.455 34.055 15.117 57.585 0 0 7.118 39.892 25.607 54.935 0 0 12.73 61.442-9.542 93.494 0 0-7.93 18.469-54.272 34.446l322.568.265c-46.921-16.028-54.953-34.674-54.953-34.674-22.272-32.052-9.545-93.494-9.545-93.494 18.478-15.03 25.608-54.935 25.608-54.935 30.684-23.53 29.178-57.958 15.006-57.584-11.373.298-8.797-9.121-8.797-9.121C887.614 70.862 750.02 62.95 750.02 62.95Zm9.207 63.364c23.078 0 41.579 6.084 55.502 18.25 14.047 12.167 21.07 28.221 21.07 48.165 0 9.532-2.256 18.626-6.772 27.28-4.515 8.53-12.418 18.189-23.707 28.975l-16.556 16.18c-5.895 5.895-10.097 10.535-12.606 13.922-2.383 3.261-4.076 6.46-5.08 9.596-.752 2.634-1.317 5.832-1.693 9.595-.377 3.763-.565 8.906-.565 15.428v23.14h-35.933v-28.972c0-12.668 1.755-23.08 5.267-31.232 3.512-8.153 10.913-17.624 22.201-28.41l16.932-16.745c7.15-6.647 12.292-12.919 15.428-18.814 3.261-5.895 4.892-11.915 4.892-18.06 0-11.164-4.14-20.196-12.418-27.094-8.152-6.899-19.002-10.348-32.548-10.348-9.91 0-20.509 2.196-31.797 6.586-11.163 4.39-22.828 10.786-34.994 19.19v-35.372c11.79-7.15 23.707-12.478 35.748-15.99 12.166-3.512 24.71-5.27 37.629-5.27zm-27.47 238.19h38.192v47.787h-38.191z" transform="translate(-574.882 -46.45) scale(1.12308)"/></svg>