<svg width="512" height="512" xmlns="http://www.w3.org/2000/svg"><defs><filter style="color-interpolation-filters:sRGB" id="a" x="-.045" y="-.043" width="1.09" height="1.086"><feFlood flood-opacity="1" flood-color="#3A3F5E" result="flood"/><feComposite in="flood" in2="SourceGraphic" operator="out" result="composite1"/><feGaussianBlur in="composite1" stdDeviation="12.382" result="blur"/><feOffset result="offset"/><feComposite in="offset" in2="SourceGraphic" operator="atop" result="composite2"/></filter></defs><path d="M0 0h512v512H0Z" fill="#b90202" style="fill:#1b1f21;fill-opacity:1"/><g style="fill:#e64539;fill-opacity:1;stroke:none;stroke-opacity:1;filter:url(#a)"><path style="fill:#e64539;fill-opacity:1;stroke:none;stroke-width:100;stroke-linejoin:round;stroke-miterlimit:4;stroke-dasharray:none;stroke-opacity:1;paint-order:markers stroke fill" d="m338.11 594.574-22.35-153.75L424 564.68Zm49.93-190.105s119.282 70.896 119.348 71.93c.069 1.085-47.675 56.727-47.675 56.727zm-251.213 30.843c-29.017-12.638-59.02-30.527-84.95-50.65-12.493-9.695-43.119-39.914-51.531-50.847l-5.938-7.716 3.334-3.961c26.549-31.546 48.726-51.805 79.036-72.195 35.866-24.13 74.087-40.506 110-47.13 16.079-2.967 56.92-5.184 54.666-2.969-1.847 1.815-44.568 29.712-46.831 30.58-3.86 1.481-1.545 4.024 5.76 6.326l7.596 2.395c-14.109 5.23-28.073 13.578-37.935 21.073l-13.992-15.032c-38.233 16.221-77.441 41.89-103.931 67.243l-14.667 14.264 9.372 9.096c18.194 17.658 42.28 36.537 62.58 49.052 10.357 6.386 43.543 22.285 44.505 21.323.266-.266-3.206-4.865-7.714-10.221-24.071-30.755-26.711-60.936-22.398-94.777 8.18 1.214 18.63 9.075 18.63 9.075-9.727 49.618 19.078 83.332 64.06 102.844l6.37 2.088-4.295 3.169c-2.362 1.742-4.778 3.168-5.369 3.168-.59 0-1.074.786-1.074 1.748l44.908 30.543c-34.512 3.986-78.175-4.917-110.192-18.49zm37.476-93.052 101.084 21.948c-32.864 35.212-88.322 30.729-101.084-21.948zm209.141 8.952 8.383-15.533c18.453-9.813 31.449-23.775 40.61-43.63 9.994-21.659 9.849-51.585-.35-72.54-37.043-60.709-123.272-81.575-152.746-22-1.225 0-4.704.874-7.73 1.942-3.025 1.067-5.5 1.606-5.5 1.197 0-.409 4.86-13.132 10.8-28.274 6.66-16.981 11.897-28.417 13.666-29.843 33.719-21.494 72.849-30.682 109.76-35.652 20.651-2.781 65.219-2.18 90.57 1.221 7.981 1.79 51.521 8.49 51.994 12.839 3.242 1.245-2.654 40.341-5.624 51.237-19.376 71.082-41.394 120.193-82.14 161.494l-13.97 14.16-13.195.88c-15.799 1.055-26.526 1.915-36.861 2.956-4.338.437-7.667.24-7.667-.454zm124.768-204.556c-13.948-.91-87.436-10.153-140.44-.146 13.076 3.682 32.189 11.224 43.816 18.424 7.342 4.635 23.013 19.745 28.252 27.242 16.405 23.474 24.345 58.451 18.692 82.334 25.241-25.849 47.21-76.786 49.68-127.854zM174.372 309.32l37.033 6.423-38.294 17.763c-2.48-8.28-.418-16.355 1.262-24.186zm15.708-25.81c13.741-11.9 35.549-17.774 50.573-15.715 15.922 3.92 25.577 9.025 36.241 19.947l-58.717 25.768zm118.39 15 57.815-99.487c23.77 7.437 40.732 30.257 42.805 52.782zM102.846 60.063s76.77-41.492 77.494-40.768c.72.72 33.042 132.881 33.042 132.881z" transform="translate(41.034 10.84) scale(.79875)"/></g></svg>