<svg width="512" height="512" xmlns="http://www.w3.org/2000/svg"><defs><filter style="color-interpolation-filters:sRGB" id="a" x="-.047" y="-.047" width="1.094" height="1.095"><feFlood flood-opacity="1" flood-color="#3A3F5E" result="flood"/><feComposite in="flood" in2="SourceGraphic" operator="out" result="composite1"/><feGaussianBlur in="composite1" stdDeviation="12.382" result="blur"/><feOffset result="offset"/><feComposite in="offset" in2="SourceGraphic" operator="atop" result="composite2"/></filter></defs><path d="M0 0h512v512H0Z" fill="#b90202" style="fill:#1b1f21;fill-opacity:1"/><g style="fill:#e64539;fill-opacity:1;stroke-width:1.00001062;stroke-miterlimit:4;stroke-dasharray:none;stroke:none"><g style="fill:#e64539;fill-opacity:1;stroke:none;stroke-width:1.00001;stroke-miterlimit:4;stroke-dasharray:none"><path style="fill:#e64539;fill-opacity:1;stroke:none;stroke-width:1.21583;stroke-linejoin:round;stroke-miterlimit:4;stroke-dasharray:none;stroke-opacity:1;paint-order:markers stroke fill;filter:url(#a)" d="M116.476 582.044c-38.696-10.053-65.358-35.127-77.742-73.113-8.17-25.06-5.429-62.497 5.187-70.847 12.956-10.191 33.092-2.21 33.384 13.233.055 2.894-.56 10.003-1.368 15.798-.807 5.795-.91 14.767-.227 19.936 4.648 35.221 40.59 62.316 75.082 56.6 22.171-3.674 36.954-14.18 51.912-36.892 25.645-38.943 58.702-57.674 121.487-68.84 39.397-7.006 67.727-13.185 78.847-17.196 6.276-2.264 11.654-3.872 11.952-3.574.298.298 2.71 9.124 5.362 19.614 4.47 17.688 4.618 19.18 2.04 20.559-5.27 2.82-39.9 11.293-63.347 15.5-84.114 15.09-99.999 23.027-126.94 63.427-17.691 26.528-42.746 42.47-74.756 47.57-14.653 2.333-27.149 1.791-40.873-1.775zM503.761 412.64l132.43 72.669-60.009 83.003zm-290.21-24.794c-7.356-2.56-15.259-5.89-17.562-7.4-4.431-2.903-8.78-11.417-8.78-17.19 0-6.5 5.16-14.567 11.333-17.716 7.127-3.635 13.342-3.165 22.952 1.738 3.977 2.028 11.337 3.9 17.18 4.37 9.274.744 11.308.29 21.932-4.898 11.447-5.59 12.247-5.735 35.621-6.474 13.152-.415 23.905-.314 23.896.224-.055 3.563-11.764 20.301-19.594 28.011-22.594 22.246-56.782 29.846-86.978 19.335zM8.172 235.542l121.006 48.548-123.06 44.741Zm553.114 48.182-13.774-14.93 6.875-10.669c9.644-14.964 14.384-24.855 19.132-39.92 5.987-18.996 7.775-30.906 8.351-55.645.823-35.29-2.338-50.657-16.244-78.98-20.51-41.77-63.672-74.244-109.604-82.462-17.952-3.212-49.574-2.162-66.498 2.208-56.711 14.644-102.132 62.852-113.248 120.198-3.737 19.275-5.976 23.19-15.306 26.753-8.758 3.344-16.515 1.291-22.644-5.992-5.974-7.1-5.993-14.575-.097-38.868C259.073 19.541 338.67-42.357 427.99-42.149c53.61.125 102.223 20.667 139.603 58.993 32.708 33.535 49 67.964 54.98 116.185 3.751 30.252.01 66.309-10.193 98.217-6.422 20.083-11.895 31.71-23.342 49.586-8.9 16.98-13.782 15.21-27.751 2.892zm-218.452-65.542c-11.181-1.403-18.652-5.81-20.931-12.349-2.695-7.73-2.26-61.992.606-75.615 6.638-31.556 28.038-59.096 56.864-73.179 16.864-8.239 30.21-11.36 48.568-11.36 47.058 0 86.874 28.437 102.445 73.169 5.6 16.087 6.991 36.975 2.96 44.46-6.112 11.349-22.746 13.552-32.053 4.245-4.021-4.022-4.977-6.63-6.131-16.737-3.734-32.678-20.317-53.221-50.088-62.048-24.297-7.203-52.359 2.034-69.177 22.77-10.333 12.74-13.77 23.677-14.816 47.148l-.885 19.843c22.356 9.196 44.791 24.626 55.117 42.237 4.269 7.517 10.598 22.176 10.197 27.678L384.172 275.6c3.507-31.505-11.96-53.263-41.338-57.418zM30.774 127.14l60.79-94.39L197.23 202.752Z" transform="matrix(.753 0 0 .753 14.173 51.533)"/></g></g></svg>