<svg width="512" height="512" xmlns="http://www.w3.org/2000/svg"><defs><filter style="color-interpolation-filters:sRGB" id="a" x="-.068" y="-.05" width="1.136" height="1.101"><feFlood flood-opacity="1" flood-color="#3A3F5E" result="flood"/><feComposite in="flood" in2="SourceGraphic" operator="out" result="composite1"/><feGaussianBlur in="composite1" stdDeviation="12.382" result="blur"/><feOffset result="offset"/><feComposite in="offset" in2="SourceGraphic" operator="atop" result="composite2"/></filter></defs><path d="M0 0h512v512H0Z" fill="#b90202" style="fill:#1b1f21;fill-opacity:1"/><g style="fill:#e64539;fill-opacity:1;stroke:none;stroke-width:50;stroke-linecap:round;stroke-linejoin:round;stroke-miterlimit:4;stroke-dasharray:none;stroke-dashoffset:0;stroke-opacity:1;paint-order:markers stroke fill;filter:url(#a)" transform="translate(-12.754 -10.578) scale(.78664)"><path style="fill:#e64539;fill-opacity:1;stroke:none;stroke-width:59.5238;stroke-linecap:round;stroke-linejoin:round;stroke-miterlimit:4;stroke-dasharray:none;stroke-dashoffset:0;stroke-opacity:1;paint-order:markers stroke fill" d="M200.349 44.568a3.736 3.736 0 0 0-2.95 2.391l-7.168 19.24a3.736 3.736 0 0 0 .29 3.213 3.748 3.748 0 0 0 2.688 1.792c.075.01 7.643 1.097 16.805 3.573 12.225 3.302 21.414 7.429 26.818 12.02-3.588 7.094-11.298 24.006-8 32.497.963 2.477 2.75 4.23 5.17 5.073.877.305 1.847.603 2.882.882 3.818 1.032 8.245 1.76 12.523 2.464 4.087.671 8.313 1.368 11.751 2.297 1.815.49 3.306 1.017 4.458 1.574l-10.242 21.713a3.732 3.732 0 0 0 2.855 5.29c.285.041 28.837 4.132 58.827 12.234 19.653 5.309 35.494 11.114 47.082 17.255.246.13.515.236.784.309.57.154 14.058 3.55 21.37-16.01 1.659-4.438 3.155-8.624 4.604-12.673 3.976-11.11 7.732-21.604 13.72-34.094a299.353 299.353 0 0 1 3.173-6.38c3.53-6.944 5.66-11.135 4.13-15.498-1.375-3.919-5.281-6.335-11.565-9.186-1.152-.522-2.509-.99-4.146-1.433-6.103-1.649-15.354-2.685-26.065-3.883-14.515-1.626-30.968-3.469-45.364-7.358-11.109-3.001-19.15-6.716-24.573-11.356-.549-.58-1.692-1.581-3.382-2.038-1.85-.5-3.741-.195-5.471.88-2.384 1.48-5.804 5.023-8.893 18.366-3.927-1.589-10.129-5.065-14.356-12.127-.246-.41-.484-.82-.723-1.232-4.284-7.371-8.713-14.994-43.867-24.49-6.375-1.723-13.716-3.493-21.82-5.26a3.723 3.723 0 0 0-1.345-.045Zm-38.949 99.36a3.736 3.736 0 0 0-2.987 2.344l-7.474 19.123a3.738 3.738 0 0 0 2.897 5.052c.076.011 7.624 1.22 16.745 3.842 12.17 3.497 21.293 7.77 26.623 12.446-3.701 7.036-11.679 23.822-8.517 32.365.923 2.492 2.68 4.274 5.087 5.155.874.32 1.839.633 2.868.929 3.803 1.093 8.214 1.892 12.48 2.664 4.077.737 8.292 1.499 11.716 2.483 1.807.519 3.287 1.07 4.43 1.646l-10.586 21.546a3.73 3.73 0 0 0 .037 3.367 3.746 3.746 0 0 0 2.733 1.969c.285.045 28.788 4.596 58.624 13.17 19.566 5.623 35.311 11.68 46.8 18.005.243.134.51.244.779.321.567.163 13.998 3.774 21.621-15.666a926.131 926.131 0 0 0 4.81-12.603c4.153-11.043 8.075-21.474 14.261-33.865a298.038 298.038 0 0 1 3.274-6.326c3.64-6.888 5.838-11.046 4.378-15.432-1.312-3.94-5.18-6.42-11.418-9.37-1.143-.54-2.491-1.031-4.122-1.5-6.075-1.746-15.309-2.93-26-4.298-14.487-1.857-30.908-3.962-45.24-8.081-11.06-3.178-19.042-7.022-24.389-11.747-.54-.59-1.667-1.608-3.35-2.091-1.84-.53-3.736-.255-5.482.791-2.408 1.444-5.884 4.93-9.185 18.221-3.901-1.651-10.046-5.226-14.161-12.355-.239-.413-.471-.828-.704-1.243-4.165-7.439-8.472-15.13-43.47-25.187-6.346-1.824-13.658-3.71-21.732-5.607a3.73 3.73 0 0 0-1.346-.067zm342.977 33.549-99.036 117.091 137.496-57.108zm-176.66 120.282c-1.981.01-4.229.235-6.792.588-1.252.172-2.65.498-4.273.997-6.041 1.86-14.419 5.918-24.118 10.616-13.145 6.367-28.044 13.584-42.296 17.972-10.999 3.387-19.783 4.532-26.844 3.499-.774-.199-2.275-.435-3.949.08-1.83.564-3.268 1.83-4.157 3.66-1.227 2.526-2.231 7.347 2.272 20.28-4.17.75-11.269 1.118-18.612-2.6-.426-.216-.847-.438-1.269-.658-7.554-3.95-15.367-8.036-50.169 2.68-6.31 1.943-13.464 4.36-21.261 7.187a3.736 3.736 0 0 0-2.383 4.277l4.197 20.097a3.734 3.734 0 0 0 1.96 2.563 3.724 3.724 0 0 0 3.228.084c.069-.03 7.023-3.137 16.122-5.94 12.102-3.726 22.075-5.136 29.095-4.135.748 7.915 3.246 26.333 10.564 31.756 2.135 1.582 4.584 2.113 7.08 1.534.906-.21 1.884-.476 2.908-.79 3.781-1.165 7.912-2.908 11.907-4.595 3.816-1.61 7.76-3.278 11.166-4.326 1.797-.553 3.338-.904 4.61-1.047l2.917 23.83a3.735 3.735 0 0 0 5.236 2.953c.263-.118 26.619-11.891 56.288-21.027 19.456-5.991 35.95-9.528 49.029-10.513.277-.021.563-.076.829-.158.564-.174 13.785-4.495 9.538-24.94-.964-4.641-1.93-8.984-2.865-13.185-2.562-11.516-4.981-22.394-6.577-36.15-.306-2.64-.524-5.001-.717-7.087-.719-7.757-1.153-12.44-4.775-15.313-2.033-1.613-4.589-2.203-7.89-2.188zm217.722 15.653-144.433 27.226 158.503 31.139zm-142.82 88.404 109.8 122.568 28.214-67.163zm-56.486 3.45c-1.98-.036-4.233.14-6.803.435-6.18.709-16.096 5.236-28.649 10.97-21.376 9.763-50.622 23.121-69.619 19.9-.898-.247-2.879-.593-4.932.364-6.684 3.113-4.51 14.075-1.433 23.525-4.13.646-11.262.87-18.544-3.026-.422-.227-.838-.456-1.255-.687-8.79-4.854-17.88-9.872-71.633 8.254a3.736 3.736 0 0 0-2.48 4.22l3.743 20.186a3.735 3.735 0 0 0 5.125 2.76c.297-.124 28.51-11.9 45.43-9.055.569 7.928 2.652 26.403 9.848 31.991 2.098 1.63 4.532 2.215 7.042 1.694 4.577-.95 9.842-3.035 14.933-5.05 5.582-2.21 11.767-4.658 15.893-5.023l2.38 23.898a3.736 3.736 0 0 0 5.169 3.073c.638-.27 64.344-26.96 106-29.153.26-.013.518-.055.769-.122.2-.054.752-.217 1.524-.577 2.828-1.317 11.808-6.951 8.637-24.157-.858-4.66-1.724-9.022-2.563-13.24-2.302-11.573-4.475-22.504-5.76-36.296a293.711 293.711 0 0 1-.558-7.102c-.542-7.77-.87-12.462-4.425-15.416-1.997-1.659-4.539-2.305-7.839-2.365zm17.056 108.39c-6.22.146-16.504 3.756-29.524 8.33-22.173 7.785-52.51 18.44-71.135 13.51-.873-.327-2.815-.852-4.946-.086-6.939 2.495-5.769 13.61-3.56 23.3-4.172.27-11.294-.153-18.193-4.694-.399-.264-.793-.53-1.188-.799-8.314-5.63-16.91-11.453-72.086 1.727a3.736 3.736 0 0 0-2.851 3.98l1.898 20.442a3.735 3.735 0 0 0 4.854 3.214c.307-.098 29.47-9.269 46.064-4.901-.152 7.946.248 26.534 6.908 32.751 1.942 1.814 4.314 2.618 6.86 2.326 4.645-.532 10.075-2.131 15.328-3.677 5.76-1.695 12.14-3.573 16.283-3.562l.205 24.015a3.736 3.736 0 0 0 4.869 3.528c.66-.21 66.522-21.017 108.205-19.427a3.9 3.9 0 0 0 .778-.051 9.63 9.63 0 0 0 1.57-.436c2.936-1.056 12.388-5.855 10.79-23.277-.432-4.717-.9-9.14-1.353-13.416-1.243-11.735-2.417-22.817-2.446-36.669-.005-2.657.042-5.029.087-7.122.164-7.788.263-12.49-3.009-15.755-2.94-2.933-7.51-3.413-14.408-3.251z"/></g></svg>