<svg width="512" height="512" xmlns="http://www.w3.org/2000/svg"><defs><filter style="color-interpolation-filters:sRGB" id="a" x="-.022" y="-.03" width="1.045" height="1.06"><feFlood flood-opacity="1" flood-color="#3A3F5E" result="flood"/><feComposite in="flood" in2="SourceGraphic" operator="out" result="composite1"/><feGaussianBlur in="composite1" stdDeviation="15" result="blur"/><feOffset result="offset"/><feComposite in="offset" in2="SourceGraphic" operator="atop" result="composite2"/></filter></defs><path d="M0 0h512v512H0Z" fill="#b90202" style="fill:#1b1f21;fill-opacity:1;stroke:none;stroke-width:7.383;stroke-linejoin:round;stroke-miterlimit:4;stroke-dasharray:none;stroke-opacity:1;paint-order:markers stroke fill"/><path style="fill:#e64539;fill-opacity:1;stroke:none;stroke-width:60;stroke-linejoin:round;stroke-miterlimit:4;stroke-dasharray:none;stroke-opacity:1;paint-order:markers stroke fill;filter:url(#a)" d="M710.797 391.35c.294-.008.584-.03.867-.063a8.38 8.38 0 0 0 .834-.14 19.105 19.105 0 0 1 1.717-.303 28.357 28.357 0 0 1 1.865-.188c.642-.044 1.3-.07 1.973-.08a43.32 43.32 0 0 1 2.049.022 51.284 51.284 0 0 1 6.215.605c.671.108 1.33.227 1.972.358-17.824 2.053-49.72 31.507-65.403 26.029.022-.118.028-.235.017-.352a1.374 1.374 0 0 0-.078-.348c-.042-.115-.1-.23-.172-.343a2.492 2.492 0 0 0-.258-.338 3.623 3.623 0 0 0-.342-.332 5.31 5.31 0 0 0-.418-.324 7.261 7.261 0 0 0-.492-.316 10.192 10.192 0 0 0-.562-.307 15.064 15.064 0 0 0-1.31-.586 23.122 23.122 0 0 0-1.532-.537 31.935 31.935 0 0 0-1.715-.484 40.316 40.316 0 0 0-1.863-.426 50.696 50.696 0 0 0-8.188-.963c-.69-.024-1.376-.03-2.049-.022a36.9 36.9 0 0 0-1.972.08c-.642.045-1.267.107-1.866.188a20.206 20.206 0 0 0-1.716.303c-.272.06-.55.107-.834.14a9.707 9.707 0 0 1-.867.063c-.294.008-.592.004-.895-.012-.303-.016-.61-.042-.92-.08a18.34 18.34 0 0 1-2.87-.604 24.735 24.735 0 0 1-.98-.306 32.573 32.573 0 0 1-1.975-.742 38.876 38.876 0 0 1-1.964-.88 47.912 47.912 0 0 1-1.924-.982c-.631-.34-1.25-.687-1.853-1.04a65.613 65.613 0 0 1-1.752-1.065 72.797 72.797 0 0 1-3.074-2.043 81.85 81.85 0 0 1-1.26-.9 70.503 70.503 0 0 1-1.81-1.364 28.312 28.312 0 0 1-.659-.525l20.335-14.26c23.559 8.724 48.87 7.258 69.72 5.448 1.877-.555 4.688-1.556 6.009-1.981zm-95.668-31.636-6.02-.265 1.34-9.39c24.383-9.43 47.732-23.191 73.176-28.984-24.162 10.69-46.341 24.44-68.496 38.64zm35.758.857-18.564-.41c19.782-13.76 29.76-20.978 51.306-31.563l-.393 9.515 1.439.102-.681 3.243c-12.563 11.2-20.228 13.873-33.107 19.113zm54.07-21.503 40.863 1.797-56.959 39.942s.233.193.659.525a78.821 78.821 0 0 0 4.525 3.258c.514.342 1.056.694 1.62 1.049-17.323 2.793-37.052-3.68-49.178-5.763l20.455-14.344 1.067-.748c10.233-13.704 19.332-13.583 28.999-20.375zm-95.314-3.05.07-3.084a138.187 138.187 0 0 0-12.195 12.867 138.16 138.16 0 0 0-11.033 15.21c-16.462-44.96-57.009-97.571-63.59-120.083-6.571-22.536 43.018-34.484 44.678-60.04 1.486-22.147-27.422-40.27-48.361-40.075-4.346.04-8.35.87-11.666 2.617-19.287 10.148-34.845 36.8-38.344 69.37-1.27 11.84 2.205 16.494 6.898 23.72-.495.962-1.01 2.023-1.445 3.331-8.588 26.01-1.451 119.298 13.387 164.672 9.27 28.31 21.837 52.968 35.377 71.41.817 4.756.907 10.512 4.767 13.508 27.346 21.233 90.229 3.976 142.71-32.935l-.436-.48c-.935-1.042-1.84-2.06-2.703-3.038 9.398.847 34.72-2.882 51.054-11.587 13.613-5.688 15.282-7.276 20.626-12.547a336.2 336.2 0 0 0 2.448 2.798 525.44 525.44 0 0 0 2.703 3.037c.14.156.294.324.435.48 34.974-24.597 65.328-57.923 77.463-94.41 36.438 1.222 77.8-6.254 103.287-20.49l16.963 3.12c24.42-111.689-35.97-116.067-115.783-148.168-28.55-4.666-58.715 5.321-78.596 29.164-19.172 22.993-24.006 53.14-15.615 79.71-16.577 4.064-33.734 13.449-48.9 27.503l-.045 1.945c-24.995 6.546-49.512 14.736-74.154 22.475zm51.903 109.654a28.447 28.447 0 0 1-1.137-1.536 7.901 7.901 0 0 1-.342-.548 2.12 2.12 0 0 1-.178-.385c-.03-.1-.057-.215-.08-.344a5.52 5.52 0 0 1-.056-.428c-.03-.313-.044-.68-.045-1.091-.002-.412.01-.868.033-1.364.023-.495.059-1.03.104-1.593.044-.565.099-1.16.162-1.778.063-.618.135-1.258.213-1.916.155-1.315.337-2.695.533-4.078 12.235-2.745 26.734-5.804 38.587-14.086 11.963-8.358 23.862-20.174 36.639-21.759 1.196.334-.361-.694.544.107.217.188.294.466.43.682.119 1.995-.578 4.24-.848 5.843a347.733 347.733 0 0 0-.613 3.776 279.558 279.558 0 0 0-.611 4.101 184.745 184.745 0 0 0-.533 4.079c-.078.657-.15 1.297-.213 1.916a80.307 80.307 0 0 0-.162 1.777 51.41 51.41 0 0 0-.104 1.594c-.023.495-.035.951-.033 1.363-23.838 5.922-48.03 24.655-72.29 25.668z" transform="translate(-434.4 -55.536) scale(.97434)"/></svg>