<svg width="512" height="512" xmlns="http://www.w3.org/2000/svg"><defs><filter style="color-interpolation-filters:sRGB" id="a" x="-.166" y="-.201" width="1.324" height="1.39"><feFlood flood-opacity="1" flood-color="#3A3F5E" result="flood"/><feComposite in="flood" in2="SourceGraphic" operator="out" result="composite1"/><feGaussianBlur in="composite1" stdDeviation="15" result="blur"/><feOffset result="offset"/><feComposite in="offset" in2="SourceGraphic" operator="atop" result="composite2"/></filter></defs><g style="fill:#000"><path d="M0 0h512v512H0Z" fill="#b90202" style="fill:#1b1f21;fill-opacity:1"/><path style="fill:#e64539;fill-opacity:1;stroke:none;stroke-width:78.3386;stroke-linejoin:round;stroke-miterlimit:4;stroke-dasharray:none;stroke-opacity:1;paint-order:markers stroke fill;filter:url(#a)" d="m145.817 445.211-3.035-.346.696-22.4c.592-19.043.47-22.488-.816-22.981-.832-.32-6.33 1.808-12.218 4.729-11.046 5.478-13.253 6.046-16.58 4.266-1.776-.95-13.878-22.095-16.065-28.067-1.126-3.077-14.566-28.09-16.593-30.882-1.444-1.99-1.713-1.977-17.276.837-16.82 3.041-19.447-3.45-21.947-7.866-2.796-4.941-.322-9.508-.12-42.521l.284-46.613-2.687-6.267c-6.102-14.23-11.185-37.947-11.976-55.882-.671-15.218.835-25.108 6.65-43.647 3.13-9.982 4.97-13.698 11.993-24.229 12.322-18.476 30.116-33.983 49.016-42.72 127.365-48.271 230.034 32.894 171.65 154.466.85 10.054 1.811 24.624 2.137 32.38.862 20.583 2.354 30.956 7.058 49.092 2.31 8.905 4.623 19.01 5.14 22.457.515 3.447 2.759 13.318 4.985 21.935 4.043 15.655 6.078 24.387 7.06 30.29.286 1.724 3.279 14.179 6.65 27.678 3.372 13.499 5.734 24.94 5.25 25.424-.816.815-152.473 1.641-159.256.867zm172.095-37.778 70.925-12.716-15.855-35.743c-.39-.413 111.682 22.024 111.682 22.024l-71.795 15.28 21.361 37.79zm26.787-73.097 54.315-49.549-31.59-20.81 108.701-45.831-56.22 54.886c9.459 6.042 36.22 18.61 36.22 18.61zM299.785 294.3l27.157-76.23-36.558-1.305 68.76-91.71-19.667 70.998 41.164-2.95z"/></g></svg>