<svg xml:space="preserve" width="512" height="512" xmlns="http://www.w3.org/2000/svg"><defs><filter style="color-interpolation-filters:sRGB" id="a" x="-.192" y="-.121" width="1.383" height="1.243"><feFlood flood-opacity="1" flood-color="#3A3F5E" result="flood"/><feComposite in="flood" in2="SourceGraphic" operator="out" result="composite1"/><feGaussianBlur in="composite1" stdDeviation="22.995" result="blur"/><feOffset result="offset"/><feComposite in="offset" in2="SourceGraphic" operator="atop" result="composite2"/></filter></defs><path d="M0 0h512v512H0Z" fill="#1b1f21"/><path style="fill:#e64539;fill-opacity:1;stroke-width:1.2567;filter:url(#a)" d="M256.006 28.531c-39.273 0-37.957 23.563-37.957 23.563 0 13.091-32.723 18.326-32.723 18.326-22.251 1.302-32.724 19.63-32.724 19.63l-40.577 82.47c7.853 22.246 37.956 24.866 37.956 24.866l32.723-45.81 13.088 102.095 1.156-.612c.15.273 6.243 11.71 15.154 24.74 3.903-39.4 6.65-72.167 6.382-83.871-.762-32.483-16.195-89.408-20.031-103.092-11.545 18.343-15.713 38.423-15.778 38.747l-.201 1.016-1.038.032c-29.38.837-54.445 56.258-54.694 56.817l-2.398-1.065c1.034-2.318 25.45-56.265 55.977-58.32 1.636-7.335 12.407-50.248 43.678-64.919-4.814-2.675-7.474-5.059-7.714-5.289l1.772-1.922c.056.057 3.256 2.9 9.096 5.859l.008-.005.02.017c6.419 3.25 16.043 6.65 28.386 6.65 23.587 0 37.375-12.403 37.512-12.521l1.772 1.917c-.24.226-2.775 2.487-7.341 5.078 31.65 14.46 42.533 57.765 44.169 65.138 30.537 2.05 54.95 56 55.972 58.312l-2.388 1.065c-.249-.56-25.32-55.98-54.691-56.817l-1.04-.032-.212-1.016c-.06-.334-4.378-21.072-16.364-39.66-3.34 11.832-19.504 70.734-20.284 104.002-.268 11.766 2.514 44.831 6.445 84.51 9.334-13.294 15.793-25.11 15.947-25.388l1.144.624 13.088-102.09 32.723 45.81s30.113-2.62 37.956-24.866l-40.568-82.47s-10.472-18.323-32.724-19.63c0 0-32.72-5.235-32.72-18.326 0 0 1.311-23.563-37.957-23.563zm-.435 2.187a29.324 11.191 0 0 1 29.324 11.193 29.324 11.191 0 0 1-29.324 11.19 29.324 11.191 0 0 1-29.324-11.19 29.324 11.191 0 0 1 29.324-11.193zm28.978 33.796c-6.678 3.293-16.45 6.563-28.978 6.563-12.278 0-21.912-3.14-28.57-6.367-11.352 4.77-20.08 13.578-26.644 23.227 2.286 8.04 19.93 70.924 20.748 105.932.273 12.084-2.638 46.37-6.705 87.238 11.784 16.646 27.586 34.528 41.171 34.528 13.426 0 29.278-17.477 41.246-33.963-4.11-41.117-7.049-75.666-6.762-87.803.874-37.227 20.76-105.98 21-106.78-6.596-9.442-15.262-17.99-26.506-22.575Zm32.127 190.95c-1.35 2.463-7.715 13.903-17.164 27.013 8.46 84.669 21.748 196.692 21.95 198.36l-2.599.302c-.197-1.645-13.176-111.118-21.653-195.506-12.095 16.204-27.765 32.616-41.641 32.616-14.036 0-29.647-16.75-41.567-33.119-8.48 84.462-21.508 194.354-21.71 196.014l-2.602-.3c.202-1.678 13.547-114.194 21.997-198.93-9.028-12.862-15.046-23.954-16.371-26.422C170.8 344.46 160.449 473.58 160.449 473.58c45.81 22.25 77.232 0 77.232 0 0-60.161 18.296-73.28 18.32-73.3.028.02 18.318 13.137 18.318 73.3 0 0 31.42 22.25 77.23 0 0 0-10.352-129.147-34.873-218.115z"/></svg>