<svg width="512" height="512" style="enable-background:new 0 0 512 512" xml:space="preserve" xmlns="http://www.w3.org/2000/svg"><defs><filter style="color-interpolation-filters:sRGB" id="a" x="-.178" y="-.122" width="1.355" height="1.245"><feFlood flood-opacity="1" flood-color="#3A3F5E" result="flood"/><feComposite in="flood" in2="SourceGraphic" operator="out" result="composite1"/><feGaussianBlur in="composite1" stdDeviation="22.995" result="blur"/><feOffset result="offset"/><feComposite in="offset" in2="SourceGraphic" operator="atop" result="composite2"/></filter></defs><path d="M0 0h512v512H0Z" fill="#1b1f21" style="enable-background:new 0 0 512 512"/><g style="filter:url(#a)"><path style="fill:#e64539;fill-opacity:1;stroke-width:.880472" d="M131.371 30.598c-16.912 0-30.67 13.76-30.67 30.672v389.46c0 16.912 13.759 30.672 30.67 30.672H380.63c16.911 0 30.67-13.76 30.67-30.672V61.27c-.001-16.912-13.758-30.672-30.67-30.672H131.37zm47.252 54.537 154.746.002v76.894l-154.75.002.004-76.898zm31.688 11.13 39.478 53.34 23.832.079-39.074-53.41-24.236-.008zm109.793.003-59.006.125 36.66 53.36 22.338.02.008-53.505zm-126.79.021.114 53.195 41.842.35-41.956-53.545z"/></g></svg>