<svg width="512" height="512" version="1.1" id="svg8" xml:space="preserve" xmlns="http://www.w3.org/2000/svg"><defs id="defs12"><filter style="color-interpolation-filters:sRGB" id="filter875" x="-.313" y="-.169" width="1.609" height="1.328"><feFlood flood-opacity="1" flood-color="#3A3F5E" result="flood" id="feFlood865"/><feComposite in="flood" in2="SourceGraphic" operator="out" result="composite1" id="feComposite867"/><feGaussianBlur in="composite1" stdDeviation="15" result="blur" id="feGaussianBlur869"/><feOffset dx="0" dy="0" result="offset" id="feOffset871"/><feComposite in="offset" in2="SourceGraphic" operator="atop" result="composite2" id="feComposite873"/></filter><filter style="color-interpolation-filters:sRGB" id="filter1015" x="-.082" y="-.044" width="1.164" height="1.088"><feFlood flood-opacity="1" flood-color="#3A3F5E" result="flood" id="feFlood1005"/><feComposite in="flood" in2="SourceGraphic" operator="out" result="composite1" id="feComposite1007"/><feGaussianBlur in="composite1" stdDeviation="8.302" result="blur" id="feGaussianBlur1009"/><feOffset dx="0" dy="0" result="offset" id="feOffset1011"/><feComposite in="offset" in2="SourceGraphic" operator="atop" result="composite2" id="feComposite1013"/></filter><filter style="color-interpolation-filters:sRGB" id="filter35638" x="-.057" y="-.131" width="1.114" height="1.261"><feFlood flood-opacity="1" flood-color="#3A3F5E" result="flood" id="feFlood35628"/><feComposite in="flood" in2="SourceGraphic" operator="out" result="composite1" id="feComposite35630"/><feGaussianBlur in="composite1" stdDeviation="6" result="blur" id="feGaussianBlur35632"/><feOffset dx="0" dy="0" result="offset" id="feOffset35634"/><feComposite in="offset" in2="SourceGraphic" operator="atop" result="composite2" id="feComposite35636"/></filter><filter style="color-interpolation-filters:sRGB" id="filter35813" x="-.053" y="-.07" width="1.107" height="1.139"><feFlood flood-opacity="1" flood-color="#3A3F5E" result="flood" id="feFlood35803"/><feComposite in="flood" in2="SourceGraphic" operator="out" result="composite1" id="feComposite35805"/><feGaussianBlur in="composite1" stdDeviation="8" result="blur" id="feGaussianBlur35807"/><feOffset dx="0" dy="0" result="offset" id="feOffset35809"/><feComposite in="offset" in2="SourceGraphic" operator="atop" result="composite2" id="feComposite35811"/></filter><filter style="color-interpolation-filters:sRGB" id="filter36051" x="-.028" y="-.039" width="1.056" height="1.078"><feFlood flood-opacity="1" flood-color="#3A3F5E" result="flood" id="feFlood36041"/><feComposite in="flood" in2="SourceGraphic" operator="out" result="composite1" id="feComposite36043"/><feGaussianBlur in="composite1" stdDeviation="6" result="blur" id="feGaussianBlur36045"/><feOffset dx="0" dy="0" result="offset" id="feOffset36047"/><feComposite in="offset" in2="SourceGraphic" operator="atop" result="composite2" id="feComposite36049"/></filter><filter style="color-interpolation-filters:sRGB" id="filter36337" x="-.031" y="-.031" width="1.062" height="1.062"><feFlood flood-opacity="1" flood-color="#3A3F5E" result="flood" id="feFlood36327"/><feComposite in="flood" in2="SourceGraphic" operator="out" result="composite1" id="feComposite36329"/><feGaussianBlur in="composite1" stdDeviation="6" result="blur" id="feGaussianBlur36331"/><feOffset dx="0" dy="0" result="offset" id="feOffset36333"/><feComposite in="offset" in2="SourceGraphic" operator="atop" result="composite2" id="feComposite36335"/></filter><filter style="color-interpolation-filters:sRGB" id="filter1651" x="-.065" y="-.053" width="1.131" height="1.106"><feFlood flood-opacity="1" flood-color="#3A3F5E" result="flood" id="feFlood1641"/><feComposite in="flood" in2="SourceGraphic" operator="out" result="composite1" id="feComposite1643"/><feGaussianBlur in="composite1" stdDeviation="23.919" result="blur" id="feGaussianBlur1645"/><feOffset dx="0" dy="0" result="offset" id="feOffset1647"/><feComposite in="offset" in2="SourceGraphic" operator="atop" result="composite2" id="feComposite1649"/></filter><filter style="color-interpolation-filters:sRGB" id="filter2460" x="-.055" y="-.048" width="1.11" height="1.096"><feFlood flood-opacity="1" flood-color="#3A3F5E" result="flood" id="feFlood2450"/><feComposite in="flood" in2="SourceGraphic" operator="out" result="composite1" id="feComposite2452"/><feGaussianBlur in="composite1" stdDeviation="23.919" result="blur" id="feGaussianBlur2454"/><feOffset dx="0" dy="0" result="offset" id="feOffset2456"/><feComposite in="offset" in2="SourceGraphic" operator="atop" result="composite2" id="feComposite2458"/></filter><filter style="color-interpolation-filters:sRGB" id="filter3393" x="-.044" y="-.048" width="1.087" height="1.096"><feFlood flood-opacity="1" flood-color="#3A3F5E" result="flood" id="feFlood3383"/><feComposite in="flood" in2="SourceGraphic" operator="out" result="composite1" id="feComposite3385"/><feGaussianBlur in="composite1" stdDeviation="20.325" result="blur" id="feGaussianBlur3387"/><feOffset dx="0" dy="0" result="offset" id="feOffset3389"/><feComposite in="offset" in2="SourceGraphic" operator="atop" result="composite2" id="feComposite3391"/></filter></defs><path d="M0 0h512v512H0z" fill="#b90202" fill-opacity="1" id="path2" style="fill:#1b1f21;fill-opacity:1"/><style type="text/css" id="style35976">.st0{fill:#000}</style><g id="g2749" transform="matrix(-.39382 0 0 .39382 493.37 19.708)" style="fill:#e64539;fill-opacity:1;filter:url(#filter3393)"><path d="M634.57 997.78c-1.688 10.219 5.227 19.875 15.445 21.562l19.594 3.234c-.773 2.133-1.547 4.29-2.344 6.47a598.443 598.443 0 0 1-10.359 26.226l-25.805-4.265c-10.219-1.711-19.875 5.226-21.562 15.422-1.687 10.219 5.227 19.875 15.445 21.562l15.398 2.554c-.89 1.735-1.758 3.492-2.672 5.203-5.343 10.125-16.57 15.797-27.938 14.062-8.507-1.265-15.727-6.351-19.805-13.898-4.054-7.523-4.36-16.289-.797-24.047a614.895 614.895 0 0 0 9.235-21.164c21.352-52.125 32.836-91.219 38.602-114.19 17.086 6.727 35.25 12.281 54.562 16.266a980.753 980.753 0 0 1-9.914 33.797l-25.523-4.242c-10.22-1.687-19.852 5.227-21.562 15.445z" id="path2733" style="fill:#e64539;fill-opacity:1"/><path d="M544.1 903.52a415.26 415.26 0 0 1-2.344 6.469 544.811 544.811 0 0 1-10.359 26.227l-25.805-4.266c-10.219-1.687-19.875 5.227-21.562 15.445-1.687 10.219 5.227 19.852 15.445 21.54l15.422 2.554c-.89 1.734-1.781 3.492-2.695 5.203-5.344 10.125-16.547 15.797-27.938 14.062-8.484-1.266-15.703-6.352-19.805-13.898-4.055-7.523-4.36-16.289-.797-24.047 3.54-7.71 6.656-14.836 9.234-21.164 13.641-33.258 23.25-61.289 29.977-83.344a626.9 626.9 0 0 0 17.906 16.031c-5.953 2.32-10.57 7.617-11.695 14.391-1.687 10.219 5.227 19.875 15.445 21.562z" id="path2735" style="fill:#e64539;fill-opacity:1"/><path d="M1148.6 776.55c-30.773 41.953-83.438 80.953-144.49 106.99-80.789 34.43-173.09 46.922-274.27 37.148-117.77-11.391-195.7-92.273-242.25-140.6l-2.742-2.836c-55.523-57.609-135.7-123.87-263.95-124.92H43.288l9.844-38.53 168.23 1.03c160.27 1.336 254.86 99.445 290.48 136.38l2.742 2.86c45.75 47.46 114.87 119.23 218.86 129.28 20.648 1.992 41.227 3.023 61.195 3.023 79.172 0 150.94-15.422 213.3-45.797 45.727-22.266 83.812-51.938 110.11-85.805 17.906-23.062 31.055-43.617 40.664-61.008 5.226 30.562 6.469 60.164-10.125 82.781z" id="path2737" style="fill:#e64539;fill-opacity:1"/><path d="M958.85 632.41c-23.648-59.578-80.344-98.086-144.47-98.086H571.26c-45.961 0-89.719 19.852-120 54.422l-34.5 39.375c60.773 33.539 100.95 75.188 122.04 97.078l2.742 2.836c41.93 43.523 105.28 109.27 195.47 118.01 19.453 1.875 38.812 2.836 57.562 2.836 73.453 0 139.69-14.133 196.92-42 10.5-5.133 20.531-10.664 30.023-16.57zM733.92 753.28c-31.008 0-56.25-25.242-56.25-56.25s25.242-56.25 56.25-56.25 56.25 25.242 56.25 56.25-25.219 56.25-56.25 56.25z" id="path2739" style="fill:#e64539;fill-opacity:1"/><path d="M1144.9 607.97c0-38.133-5.344-172.2-74.086-295.43-82.406-147.75-223.38-222.66-418.99-222.66-112.76 0-209.41 18.445-287.25 54.844-62.836 29.367-113.91 70.641-151.78 122.62-71.25 97.828-73.312 202.78-73.312 214.43v69.422a18.77 18.77 0 0 1-9.938 16.57l-16.71 8.883 108.75.68c62.601.515 115.88 14.296 160.31 33.655l41.132-46.945c37.43-42.703 91.453-67.219 148.22-67.219h243.12c79.57 0 149.98 47.79 179.32 121.76l59.25 149.27c13.642-11.25 25.548-23.344 35.439-36.07 42.516-54.773 55.195-93.07 58.008-103.17-.915-7.078-1.477-13.945-1.477-20.648zm-782.37-54.281c-31.008 0-56.25-25.242-56.25-56.25s25.242-56.25 56.25-56.25 56.25 25.242 56.25 56.25-25.219 56.25-56.25 56.25zm687.21 37.5c-31.008 0-56.25-25.242-56.25-56.25s25.242-56.25 56.25-56.25 56.25 25.242 56.25 56.25-25.219 56.25-56.25 56.25z" id="path2741" style="fill:#e64539;fill-opacity:1"/><path d="M381.3 497.44c0 10.355-8.395 18.75-18.75 18.75s-18.75-8.395-18.75-18.75 8.395-18.75 18.75-18.75 18.75 8.395 18.75 18.75" id="path2743" style="fill:#e64539;fill-opacity:1"/><path d="M752.67 697.03c0 10.355-8.395 18.75-18.75 18.75s-18.75-8.395-18.75-18.75 8.395-18.75 18.75-18.75 18.75 8.395 18.75 18.75" id="path2745" style="fill:#e64539;fill-opacity:1"/><path d="M1068.5 534.94c0 10.355-8.395 18.75-18.75 18.75s-18.75-8.395-18.75-18.75 8.395-18.75 18.75-18.75 18.75 8.395 18.75 18.75" id="path2747" style="fill:#e64539;fill-opacity:1"/></g></svg>