<svg width="512" height="512" version="1.1" id="svg8" xml:space="preserve" xmlns="http://www.w3.org/2000/svg"><defs id="defs12"><filter style="color-interpolation-filters:sRGB" id="filter875" x="-.313" y="-.169" width="1.609" height="1.328"><feFlood flood-opacity="1" flood-color="#3A3F5E" result="flood" id="feFlood865"/><feComposite in="flood" in2="SourceGraphic" operator="out" result="composite1" id="feComposite867"/><feGaussianBlur in="composite1" stdDeviation="15" result="blur" id="feGaussianBlur869"/><feOffset dx="0" dy="0" result="offset" id="feOffset871"/><feComposite in="offset" in2="SourceGraphic" operator="atop" result="composite2" id="feComposite873"/></filter><filter style="color-interpolation-filters:sRGB" id="filter1015" x="-.082" y="-.044" width="1.164" height="1.088"><feFlood flood-opacity="1" flood-color="#3A3F5E" result="flood" id="feFlood1005"/><feComposite in="flood" in2="SourceGraphic" operator="out" result="composite1" id="feComposite1007"/><feGaussianBlur in="composite1" stdDeviation="8.302" result="blur" id="feGaussianBlur1009"/><feOffset dx="0" dy="0" result="offset" id="feOffset1011"/><feComposite in="offset" in2="SourceGraphic" operator="atop" result="composite2" id="feComposite1013"/></filter><filter style="color-interpolation-filters:sRGB" id="filter35638" x="-.057" y="-.131" width="1.114" height="1.261"><feFlood flood-opacity="1" flood-color="#3A3F5E" result="flood" id="feFlood35628"/><feComposite in="flood" in2="SourceGraphic" operator="out" result="composite1" id="feComposite35630"/><feGaussianBlur in="composite1" stdDeviation="6" result="blur" id="feGaussianBlur35632"/><feOffset dx="0" dy="0" result="offset" id="feOffset35634"/><feComposite in="offset" in2="SourceGraphic" operator="atop" result="composite2" id="feComposite35636"/></filter><filter style="color-interpolation-filters:sRGB" id="filter35813" x="-.053" y="-.07" width="1.107" height="1.139"><feFlood flood-opacity="1" flood-color="#3A3F5E" result="flood" id="feFlood35803"/><feComposite in="flood" in2="SourceGraphic" operator="out" result="composite1" id="feComposite35805"/><feGaussianBlur in="composite1" stdDeviation="8" result="blur" id="feGaussianBlur35807"/><feOffset dx="0" dy="0" result="offset" id="feOffset35809"/><feComposite in="offset" in2="SourceGraphic" operator="atop" result="composite2" id="feComposite35811"/></filter><filter style="color-interpolation-filters:sRGB" id="filter36051" x="-.028" y="-.039" width="1.056" height="1.078"><feFlood flood-opacity="1" flood-color="#3A3F5E" result="flood" id="feFlood36041"/><feComposite in="flood" in2="SourceGraphic" operator="out" result="composite1" id="feComposite36043"/><feGaussianBlur in="composite1" stdDeviation="6" result="blur" id="feGaussianBlur36045"/><feOffset dx="0" dy="0" result="offset" id="feOffset36047"/><feComposite in="offset" in2="SourceGraphic" operator="atop" result="composite2" id="feComposite36049"/></filter><filter style="color-interpolation-filters:sRGB" id="filter36337" x="-.031" y="-.031" width="1.062" height="1.062"><feFlood flood-opacity="1" flood-color="#3A3F5E" result="flood" id="feFlood36327"/><feComposite in="flood" in2="SourceGraphic" operator="out" result="composite1" id="feComposite36329"/><feGaussianBlur in="composite1" stdDeviation="6" result="blur" id="feGaussianBlur36331"/><feOffset dx="0" dy="0" result="offset" id="feOffset36333"/><feComposite in="offset" in2="SourceGraphic" operator="atop" result="composite2" id="feComposite36335"/></filter><filter style="color-interpolation-filters:sRGB" id="filter1651" x="-.065" y="-.053" width="1.131" height="1.106"><feFlood flood-opacity="1" flood-color="#3A3F5E" result="flood" id="feFlood1641"/><feComposite in="flood" in2="SourceGraphic" operator="out" result="composite1" id="feComposite1643"/><feGaussianBlur in="composite1" stdDeviation="23.919" result="blur" id="feGaussianBlur1645"/><feOffset dx="0" dy="0" result="offset" id="feOffset1647"/><feComposite in="offset" in2="SourceGraphic" operator="atop" result="composite2" id="feComposite1649"/></filter><filter style="color-interpolation-filters:sRGB" id="filter2460" x="-.055" y="-.048" width="1.11" height="1.096"><feFlood flood-opacity="1" flood-color="#3A3F5E" result="flood" id="feFlood2450"/><feComposite in="flood" in2="SourceGraphic" operator="out" result="composite1" id="feComposite2452"/><feGaussianBlur in="composite1" stdDeviation="23.919" result="blur" id="feGaussianBlur2454"/><feOffset dx="0" dy="0" result="offset" id="feOffset2456"/><feComposite in="offset" in2="SourceGraphic" operator="atop" result="composite2" id="feComposite2458"/></filter><filter style="color-interpolation-filters:sRGB" id="filter3393" x="-.044" y="-.048" width="1.087" height="1.096"><feFlood flood-opacity="1" flood-color="#3A3F5E" result="flood" id="feFlood3383"/><feComposite in="flood" in2="SourceGraphic" operator="out" result="composite1" id="feComposite3385"/><feGaussianBlur in="composite1" stdDeviation="20.325" result="blur" id="feGaussianBlur3387"/><feOffset dx="0" dy="0" result="offset" id="feOffset3389"/><feComposite in="offset" in2="SourceGraphic" operator="atop" result="composite2" id="feComposite3391"/></filter><filter style="color-interpolation-filters:sRGB" id="filter4405" x="-.046" y="-.046" width="1.093" height="1.093"><feFlood flood-opacity="1" flood-color="#3A3F5E" result="flood" id="feFlood4395"/><feComposite in="flood" in2="SourceGraphic" operator="out" result="composite1" id="feComposite4397"/><feGaussianBlur in="composite1" stdDeviation="20.325" result="blur" id="feGaussianBlur4399"/><feOffset dx="0" dy="0" result="offset" id="feOffset4401"/><feComposite in="offset" in2="SourceGraphic" operator="atop" result="composite2" id="feComposite4403"/></filter></defs><path d="M0 0h512v512H0z" fill="#b90202" fill-opacity="1" id="path2" style="fill:#1b1f21;fill-opacity:1"/><style type="text/css" id="style35976">.st0{fill:#000}</style><g id="g3795" transform="translate(-15.895 -15.895) scale(.45316)" style="fill:#e64539;fill-opacity:1;filter:url(#filter4405)"><path d="M441.7 187.5 399.512 75h-162.92l56.25 112.5z" id="path3759" style="fill:#e64539;fill-opacity:1"/><path d="M881.25 750h-562.5a18.78 18.78 0 0 0-13.254 5.496A18.779 18.779 0 0 0 300 768.75V1125h600V768.75a18.78 18.78 0 0 0-5.496-13.254A18.779 18.779 0 0 0 881.25 750zm-18.75 318.75a18.752 18.752 0 0 1-18.75 18.75h-487.5a18.752 18.752 0 0 1-18.75-18.75v-75A18.752 18.752 0 0 1 356.25 975h487.5a18.752 18.752 0 0 1 18.75 18.75zm0-150a18.752 18.752 0 0 1-18.75 18.75h-487.5a18.752 18.752 0 0 1-18.75-18.75v-75A18.752 18.752 0 0 1 356.25 825h487.5a18.752 18.752 0 0 1 18.75 18.75z" id="path3761" style="fill:#e64539;fill-opacity:1"/><path d="M334.63 300h93.234l-12.5-75H322.13Z" id="path3763" style="fill:#e64539;fill-opacity:1"/><path d="m734.12 300 12.5-75h-8.203c-18.664 15.441-46.77 26.391-83.77 32.559h-.004a366.951 366.951 0 0 1-54.641 4.941 367.083 367.083 0 0 1-54.645-4.941c-37.004-6.168-65.105-17.109-83.77-32.559h-8.203l12.5 75z" id="path3765" style="fill:#e64539;fill-opacity:1"/><path d="m865.37 300 12.5-75h-93.234l-12.5 75z" id="path3767" style="fill:#e64539;fill-opacity:1"/><path d="M75 862.5h112.5V900H75Z" id="path3769" style="fill:#e64539;fill-opacity:1"/><path d="M918.75 225h-2.867l-12.5 75h15.367c5.472 0 10.672 2.39 14.234 6.547 1.875 2.187 20.312 24.277 42.016 69.766v-240.64l-39.48 78.96a18.728 18.728 0 0 1-6.914 7.563 18.733 18.733 0 0 1-9.856 2.801z" id="path3771" style="fill:#e64539;fill-opacity:1"/><path d="M375 1012.5h450v37.5H375Z" id="path3773" style="fill:#e64539;fill-opacity:1"/><path d="M75 806.25V825h131.25A18.752 18.752 0 0 1 225 843.75v75a18.752 18.752 0 0 1-18.75 18.75H75V975h131.25A18.752 18.752 0 0 1 225 993.75v75a18.752 18.752 0 0 1-18.75 18.75H75v37.5h187.5V787.5H93.75a18.78 18.78 0 0 0-13.254 5.497A18.779 18.779 0 0 0 75 806.25z" id="path3775" style="fill:#e64539;fill-opacity:1"/><path d="M281.25 300h15.367l-12.5-75h-2.867c-3.48 0-6.895-.969-9.856-2.8a18.729 18.729 0 0 1-6.914-7.563L225 135.676v240.64c21.703-45.488 40.141-67.578 42.016-69.766a18.746 18.746 0 0 1 14.234-6.547z" id="path3777" style="fill:#e64539;fill-opacity:1"/><path d="M963.41 75H800.49l-42.188 112.5h148.86z" id="path3779" style="fill:#e64539;fill-opacity:1"/><path d="M375 862.5h450V900H375Z" id="path3781" style="fill:#e64539;fill-opacity:1"/><path d="M1106.2 787.5H937.45V1125h187.5v-37.5H993.7a18.752 18.752 0 0 1-18.75-18.75v-75A18.752 18.752 0 0 1 993.7 975h131.25v-37.5H993.7a18.752 18.752 0 0 1-18.75-18.75v-75A18.752 18.752 0 0 1 993.7 825h131.25v-18.75a18.763 18.763 0 0 0-18.75-18.75z" id="path3783" style="fill:#e64539;fill-opacity:1"/><path d="M1012.5 862.5H1125V900h-112.5z" id="path3785" style="fill:#e64539;fill-opacity:1"/><path d="M1012.5 1012.5H1125v37.5h-112.5z" id="path3787" style="fill:#e64539;fill-opacity:1"/><path d="M958.41 433.32c-19.863-51.934-39.895-83.141-48.957-95.816h-618.91c-9.027 12.656-29.082 43.859-48.953 95.816-23.699 61.969-51.746 166.45-53.938 316.68h78.074a56.346 56.346 0 0 1 20.562-27.16 56.378 56.378 0 0 1 32.461-10.34h562.5a56.373 56.373 0 0 1 32.461 10.34A56.34 56.34 0 0 1 934.272 750h78.074c-2.191-150.23-30.238-254.71-53.938-316.68ZM806.25 581.25A18.752 18.752 0 0 1 787.5 600h-375a18.752 18.752 0 0 1-18.75-18.75v-150a18.752 18.752 0 0 1 18.75-18.75h375a18.752 18.752 0 0 1 18.75 18.75z" id="path3789" style="fill:#e64539;fill-opacity:1"/><path d="M431.25 450h337.5v112.5h-337.5z" id="path3791" style="fill:#e64539;fill-opacity:1"/><path d="M75 1012.5h112.5v37.5H75Z" id="path3793" style="fill:#e64539;fill-opacity:1"/></g></svg>