<svg width="512" height="512" version="1.1" id="svg8" xml:space="preserve" xmlns="http://www.w3.org/2000/svg"><defs id="defs12"><filter style="color-interpolation-filters:sRGB" id="filter875" x="-.313" y="-.169" width="1.609" height="1.328"><feFlood flood-opacity="1" flood-color="#3A3F5E" result="flood" id="feFlood865"/><feComposite in="flood" in2="SourceGraphic" operator="out" result="composite1" id="feComposite867"/><feGaussianBlur in="composite1" stdDeviation="15" result="blur" id="feGaussianBlur869"/><feOffset dx="0" dy="0" result="offset" id="feOffset871"/><feComposite in="offset" in2="SourceGraphic" operator="atop" result="composite2" id="feComposite873"/></filter><filter style="color-interpolation-filters:sRGB" id="filter1015" x="-.082" y="-.044" width="1.164" height="1.088"><feFlood flood-opacity="1" flood-color="#3A3F5E" result="flood" id="feFlood1005"/><feComposite in="flood" in2="SourceGraphic" operator="out" result="composite1" id="feComposite1007"/><feGaussianBlur in="composite1" stdDeviation="8.302" result="blur" id="feGaussianBlur1009"/><feOffset dx="0" dy="0" result="offset" id="feOffset1011"/><feComposite in="offset" in2="SourceGraphic" operator="atop" result="composite2" id="feComposite1013"/></filter><filter style="color-interpolation-filters:sRGB" id="filter35638" x="-.057" y="-.131" width="1.114" height="1.261"><feFlood flood-opacity="1" flood-color="#3A3F5E" result="flood" id="feFlood35628"/><feComposite in="flood" in2="SourceGraphic" operator="out" result="composite1" id="feComposite35630"/><feGaussianBlur in="composite1" stdDeviation="6" result="blur" id="feGaussianBlur35632"/><feOffset dx="0" dy="0" result="offset" id="feOffset35634"/><feComposite in="offset" in2="SourceGraphic" operator="atop" result="composite2" id="feComposite35636"/></filter><filter style="color-interpolation-filters:sRGB" id="filter35813" x="-.053" y="-.07" width="1.107" height="1.139"><feFlood flood-opacity="1" flood-color="#3A3F5E" result="flood" id="feFlood35803"/><feComposite in="flood" in2="SourceGraphic" operator="out" result="composite1" id="feComposite35805"/><feGaussianBlur in="composite1" stdDeviation="8" result="blur" id="feGaussianBlur35807"/><feOffset dx="0" dy="0" result="offset" id="feOffset35809"/><feComposite in="offset" in2="SourceGraphic" operator="atop" result="composite2" id="feComposite35811"/></filter><filter style="color-interpolation-filters:sRGB" id="filter36051" x="-.028" y="-.039" width="1.056" height="1.078"><feFlood flood-opacity="1" flood-color="#3A3F5E" result="flood" id="feFlood36041"/><feComposite in="flood" in2="SourceGraphic" operator="out" result="composite1" id="feComposite36043"/><feGaussianBlur in="composite1" stdDeviation="6" result="blur" id="feGaussianBlur36045"/><feOffset dx="0" dy="0" result="offset" id="feOffset36047"/><feComposite in="offset" in2="SourceGraphic" operator="atop" result="composite2" id="feComposite36049"/></filter><filter style="color-interpolation-filters:sRGB" id="filter36337" x="-.031" y="-.031" width="1.062" height="1.062"><feFlood flood-opacity="1" flood-color="#3A3F5E" result="flood" id="feFlood36327"/><feComposite in="flood" in2="SourceGraphic" operator="out" result="composite1" id="feComposite36329"/><feGaussianBlur in="composite1" stdDeviation="6" result="blur" id="feGaussianBlur36331"/><feOffset dx="0" dy="0" result="offset" id="feOffset36333"/><feComposite in="offset" in2="SourceGraphic" operator="atop" result="composite2" id="feComposite36335"/></filter><filter style="color-interpolation-filters:sRGB" id="filter1651" x="-.065" y="-.053" width="1.131" height="1.106"><feFlood flood-opacity="1" flood-color="#3A3F5E" result="flood" id="feFlood1641"/><feComposite in="flood" in2="SourceGraphic" operator="out" result="composite1" id="feComposite1643"/><feGaussianBlur in="composite1" stdDeviation="23.919" result="blur" id="feGaussianBlur1645"/><feOffset dx="0" dy="0" result="offset" id="feOffset1647"/><feComposite in="offset" in2="SourceGraphic" operator="atop" result="composite2" id="feComposite1649"/></filter><filter style="color-interpolation-filters:sRGB" id="filter2460" x="-.055" y="-.048" width="1.11" height="1.096"><feFlood flood-opacity="1" flood-color="#3A3F5E" result="flood" id="feFlood2450"/><feComposite in="flood" in2="SourceGraphic" operator="out" result="composite1" id="feComposite2452"/><feGaussianBlur in="composite1" stdDeviation="23.919" result="blur" id="feGaussianBlur2454"/><feOffset dx="0" dy="0" result="offset" id="feOffset2456"/><feComposite in="offset" in2="SourceGraphic" operator="atop" result="composite2" id="feComposite2458"/></filter><filter style="color-interpolation-filters:sRGB" id="filter3393" x="-.044" y="-.048" width="1.087" height="1.096"><feFlood flood-opacity="1" flood-color="#3A3F5E" result="flood" id="feFlood3383"/><feComposite in="flood" in2="SourceGraphic" operator="out" result="composite1" id="feComposite3385"/><feGaussianBlur in="composite1" stdDeviation="20.325" result="blur" id="feGaussianBlur3387"/><feOffset dx="0" dy="0" result="offset" id="feOffset3389"/><feComposite in="offset" in2="SourceGraphic" operator="atop" result="composite2" id="feComposite3391"/></filter><filter style="color-interpolation-filters:sRGB" id="filter4405" x="-.046" y="-.046" width="1.093" height="1.093"><feFlood flood-opacity="1" flood-color="#3A3F5E" result="flood" id="feFlood4395"/><feComposite in="flood" in2="SourceGraphic" operator="out" result="composite1" id="feComposite4397"/><feGaussianBlur in="composite1" stdDeviation="20.325" result="blur" id="feGaussianBlur4399"/><feOffset dx="0" dy="0" result="offset" id="feOffset4401"/><feComposite in="offset" in2="SourceGraphic" operator="atop" result="composite2" id="feComposite4403"/></filter><filter style="color-interpolation-filters:sRGB" id="filter6546" x="-.045" y="-.041" width="1.09" height="1.083"><feFlood flood-opacity="1" flood-color="#3A3F5E" result="flood" id="feFlood6536"/><feComposite in="flood" in2="SourceGraphic" operator="out" result="composite1" id="feComposite6538"/><feGaussianBlur in="composite1" stdDeviation="18.8" result="blur" id="feGaussianBlur6540"/><feOffset dx="0" dy="0" result="offset" id="feOffset6542"/><feComposite in="offset" in2="SourceGraphic" operator="atop" result="composite2" id="feComposite6544"/></filter><filter style="color-interpolation-filters:sRGB" id="filter7837" x="-.047" y="-.052" width="1.094" height="1.105"><feFlood flood-opacity="1" flood-color="#3A3F5E" result="flood" id="feFlood7827"/><feComposite in="flood" in2="SourceGraphic" operator="out" result="composite1" id="feComposite7829"/><feGaussianBlur in="composite1" stdDeviation="18.8" result="blur" id="feGaussianBlur7831"/><feOffset dx="0" dy="0" result="offset" id="feOffset7833"/><feComposite in="offset" in2="SourceGraphic" operator="atop" result="composite2" id="feComposite7835"/></filter><filter style="color-interpolation-filters:sRGB" id="filter9439" x="-.089" y="-.081" width="1.177" height="1.162"><feFlood flood-opacity="1" flood-color="#3A3F5E" result="flood" id="feFlood9429"/><feComposite in="flood" in2="SourceGraphic" operator="out" result="composite1" id="feComposite9431"/><feGaussianBlur in="composite1" stdDeviation="14.9" result="blur" id="feGaussianBlur9433"/><feOffset dx="0" dy="0" result="offset" id="feOffset9435"/><feComposite in="offset" in2="SourceGraphic" operator="atop" result="composite2" id="feComposite9437"/></filter><filter style="color-interpolation-filters:sRGB" id="filter10197" x="-.042" y="-.042" width="1.085" height="1.085"><feFlood flood-opacity="1" flood-color="#3A3F5E" result="flood" id="feFlood10187"/><feComposite in="flood" in2="SourceGraphic" operator="out" result="composite1" id="feComposite10189"/><feGaussianBlur in="composite1" stdDeviation="19.2" result="blur" id="feGaussianBlur10191"/><feOffset dx="0" dy="0" result="offset" id="feOffset10193"/><feComposite in="offset" in2="SourceGraphic" operator="atop" result="composite2" id="feComposite10195"/></filter></defs><path d="M0 0h512v512H0z" fill="#b90202" fill-opacity="1" id="path2" style="fill:#1b1f21;fill-opacity:1"/><style type="text/css" id="style35976">.st0{fill:#000}</style><g id="g9613" transform="translate(14.389 14.379) scale(.4027)" style="fill:#e64539;fill-opacity:1;filter:url(#filter10197)"><path d="M900 506.25H300c-10.332 0-18.75 8.398-18.75 18.75v56.25h225v37.5h-225v75h225v37.5h-225v75h225v37.5h-225v75h225v37.5h-225V1050c0 10.352 8.418 18.75 18.75 18.75h600c10.332 0 18.75-8.398 18.75-18.75v-93.75h-225v-37.5h225v-75h-225v-37.5h225v-75h-225v-37.5h225v-75h-225v-37.5h225V525c0-10.352-8.418-18.75-18.75-18.75z" id="path9597" style="fill:#e64539;fill-opacity:1"/><path d="M56.25 768.75h112.5v112.5H56.25Z" id="path9599" style="fill:#e64539;fill-opacity:1"/><path d="M843.75 56.25h112.5v37.5h-112.5z" id="path9601" style="fill:#e64539;fill-opacity:1"/><path d="M243.75 56.25h112.5v37.5h-112.5z" id="path9603" style="fill:#e64539;fill-opacity:1"/><path d="M56.25 506.25h112.5v112.5H56.25Z" id="path9605" style="fill:#e64539;fill-opacity:1"/><path d="M1031.2 506.25h112.5v112.5h-112.5z" id="path9607" style="fill:#e64539;fill-opacity:1"/><path d="M1031.2 768.75h112.5v112.5h-112.5z" id="path9609" style="fill:#e64539;fill-opacity:1"/><path d="M993.75 900V750c0-10.367 8.398-18.75 18.75-18.75h56.25v-75h-56.25c-10.352 0-18.75-8.383-18.75-18.75v-150c0-10.367 8.398-18.75 18.75-18.75h56.25v-76.332c-63.523-9.113-112.5-63.898-112.5-129.92v-131.25H842.79c-9.637 125.64-114.71 225-242.79 225-128.08 0-233.16-99.355-242.79-225H243.75v131.25c0 66.02-48.977 120.79-112.5 129.92v76.332h56.25c10.352 0 18.75 8.383 18.75 18.75v150c0 10.367-8.398 18.75-18.75 18.75h-56.25v75h56.25c10.352 0 18.75 8.383 18.75 18.75v150c0 10.367-8.398 18.75-18.75 18.75h-56.25V1050c0 51.695 42.055 93.75 93.75 93.75h750c51.695 0 93.75-42.055 93.75-93.75V918.75h-56.25c-10.352 0-18.75-8.383-18.75-18.75zm-37.5 150c0 31.012-25.238 56.25-56.25 56.25H300c-31.012 0-56.25-25.238-56.25-56.25V525c0-31.012 25.238-56.25 56.25-56.25h600c31.012 0 56.25 25.238 56.25 56.25z" id="path9611" style="fill:#e64539;fill-opacity:1"/></g></svg>