<svg style="enable-background:new 0 0 512 512" width="512" height="512" xml:space="preserve" xmlns="http://www.w3.org/2000/svg"><defs><filter style="color-interpolation-filters:sRGB" id="a" x="-.077" y="-.083" width="1.154" height="1.166"><feFlood flood-opacity="1" flood-color="#3A3F5E" result="flood"/><feComposite in="flood" in2="SourceGraphic" operator="out" result="composite1"/><feGaussianBlur in="composite1" stdDeviation="15" result="blur"/><feOffset result="offset"/><feComposite in="offset" in2="SourceGraphic" operator="atop" result="composite2"/></filter></defs><path d="M-22 0h512v512H-22Z" fill="#1b1f21" style="enable-background:new 0 0 512 512" transform="translate(22)"/><path d="M471.251 258.39c-1.435-57.869-24.648-112.064-65.732-153.148C363.087 62.81 306.67 39.44 246.661 39.44s-116.427 23.369-158.86 65.802C45.369 147.675 22 204.092 22 264.101v110.725h142.961v97.734h74.701V331.588l250.338-18ZM209.232 442.13h-13.841v-78.144l13.841-22.081zm30.431-140.971h-40.8l-27.106 43.237h-58.384c17.799-16.89 30.01-39.615 33.525-65.08l274.212-18 18.724 21.842-200.171 18z" style="fill:#e64539;fill-opacity:1;stroke-width:1.00157;stroke-dasharray:none;filter:url(#a)"/></svg>