<svg width="512" height="512" version="1.1" id="svg8" xml:space="preserve" xmlns="http://www.w3.org/2000/svg"><defs id="defs12"><filter style="color-interpolation-filters:sRGB" id="filter875" x="-.313" y="-.169" width="1.609" height="1.328"><feFlood flood-opacity="1" flood-color="#3A3F5E" result="flood" id="feFlood865"/><feComposite in="flood" in2="SourceGraphic" operator="out" result="composite1" id="feComposite867"/><feGaussianBlur in="composite1" stdDeviation="15" result="blur" id="feGaussianBlur869"/><feOffset dx="0" dy="0" result="offset" id="feOffset871"/><feComposite in="offset" in2="SourceGraphic" operator="atop" result="composite2" id="feComposite873"/></filter><filter style="color-interpolation-filters:sRGB" id="filter1015" x="-.082" y="-.044" width="1.164" height="1.088"><feFlood flood-opacity="1" flood-color="#3A3F5E" result="flood" id="feFlood1005"/><feComposite in="flood" in2="SourceGraphic" operator="out" result="composite1" id="feComposite1007"/><feGaussianBlur in="composite1" stdDeviation="8.302" result="blur" id="feGaussianBlur1009"/><feOffset dx="0" dy="0" result="offset" id="feOffset1011"/><feComposite in="offset" in2="SourceGraphic" operator="atop" result="composite2" id="feComposite1013"/></filter><filter style="color-interpolation-filters:sRGB" id="filter35638" x="-.057" y="-.131" width="1.114" height="1.261"><feFlood flood-opacity="1" flood-color="#3A3F5E" result="flood" id="feFlood35628"/><feComposite in="flood" in2="SourceGraphic" operator="out" result="composite1" id="feComposite35630"/><feGaussianBlur in="composite1" stdDeviation="6" result="blur" id="feGaussianBlur35632"/><feOffset dx="0" dy="0" result="offset" id="feOffset35634"/><feComposite in="offset" in2="SourceGraphic" operator="atop" result="composite2" id="feComposite35636"/></filter><filter style="color-interpolation-filters:sRGB" id="filter35813" x="-.053" y="-.07" width="1.107" height="1.139"><feFlood flood-opacity="1" flood-color="#3A3F5E" result="flood" id="feFlood35803"/><feComposite in="flood" in2="SourceGraphic" operator="out" result="composite1" id="feComposite35805"/><feGaussianBlur in="composite1" stdDeviation="8" result="blur" id="feGaussianBlur35807"/><feOffset dx="0" dy="0" result="offset" id="feOffset35809"/><feComposite in="offset" in2="SourceGraphic" operator="atop" result="composite2" id="feComposite35811"/></filter><filter style="color-interpolation-filters:sRGB" id="filter36051" x="-.028" y="-.039" width="1.056" height="1.078"><feFlood flood-opacity="1" flood-color="#3A3F5E" result="flood" id="feFlood36041"/><feComposite in="flood" in2="SourceGraphic" operator="out" result="composite1" id="feComposite36043"/><feGaussianBlur in="composite1" stdDeviation="6" result="blur" id="feGaussianBlur36045"/><feOffset dx="0" dy="0" result="offset" id="feOffset36047"/><feComposite in="offset" in2="SourceGraphic" operator="atop" result="composite2" id="feComposite36049"/></filter><filter style="color-interpolation-filters:sRGB" id="filter36337" x="-.031" y="-.031" width="1.062" height="1.062"><feFlood flood-opacity="1" flood-color="#3A3F5E" result="flood" id="feFlood36327"/><feComposite in="flood" in2="SourceGraphic" operator="out" result="composite1" id="feComposite36329"/><feGaussianBlur in="composite1" stdDeviation="6" result="blur" id="feGaussianBlur36331"/><feOffset dx="0" dy="0" result="offset" id="feOffset36333"/><feComposite in="offset" in2="SourceGraphic" operator="atop" result="composite2" id="feComposite36335"/></filter><filter style="color-interpolation-filters:sRGB" id="filter1651" x="-.065" y="-.053" width="1.131" height="1.106"><feFlood flood-opacity="1" flood-color="#3A3F5E" result="flood" id="feFlood1641"/><feComposite in="flood" in2="SourceGraphic" operator="out" result="composite1" id="feComposite1643"/><feGaussianBlur in="composite1" stdDeviation="23.919" result="blur" id="feGaussianBlur1645"/><feOffset dx="0" dy="0" result="offset" id="feOffset1647"/><feComposite in="offset" in2="SourceGraphic" operator="atop" result="composite2" id="feComposite1649"/></filter><filter style="color-interpolation-filters:sRGB" id="filter2460" x="-.055" y="-.048" width="1.11" height="1.096"><feFlood flood-opacity="1" flood-color="#3A3F5E" result="flood" id="feFlood2450"/><feComposite in="flood" in2="SourceGraphic" operator="out" result="composite1" id="feComposite2452"/><feGaussianBlur in="composite1" stdDeviation="23.919" result="blur" id="feGaussianBlur2454"/><feOffset dx="0" dy="0" result="offset" id="feOffset2456"/><feComposite in="offset" in2="SourceGraphic" operator="atop" result="composite2" id="feComposite2458"/></filter><filter style="color-interpolation-filters:sRGB" id="filter3393" x="-.044" y="-.048" width="1.087" height="1.096"><feFlood flood-opacity="1" flood-color="#3A3F5E" result="flood" id="feFlood3383"/><feComposite in="flood" in2="SourceGraphic" operator="out" result="composite1" id="feComposite3385"/><feGaussianBlur in="composite1" stdDeviation="20.325" result="blur" id="feGaussianBlur3387"/><feOffset dx="0" dy="0" result="offset" id="feOffset3389"/><feComposite in="offset" in2="SourceGraphic" operator="atop" result="composite2" id="feComposite3391"/></filter><filter style="color-interpolation-filters:sRGB" id="filter4405" x="-.046" y="-.046" width="1.093" height="1.093"><feFlood flood-opacity="1" flood-color="#3A3F5E" result="flood" id="feFlood4395"/><feComposite in="flood" in2="SourceGraphic" operator="out" result="composite1" id="feComposite4397"/><feGaussianBlur in="composite1" stdDeviation="20.325" result="blur" id="feGaussianBlur4399"/><feOffset dx="0" dy="0" result="offset" id="feOffset4401"/><feComposite in="offset" in2="SourceGraphic" operator="atop" result="composite2" id="feComposite4403"/></filter><filter style="color-interpolation-filters:sRGB" id="filter6546" x="-.045" y="-.041" width="1.09" height="1.083"><feFlood flood-opacity="1" flood-color="#3A3F5E" result="flood" id="feFlood6536"/><feComposite in="flood" in2="SourceGraphic" operator="out" result="composite1" id="feComposite6538"/><feGaussianBlur in="composite1" stdDeviation="18.8" result="blur" id="feGaussianBlur6540"/><feOffset dx="0" dy="0" result="offset" id="feOffset6542"/><feComposite in="offset" in2="SourceGraphic" operator="atop" result="composite2" id="feComposite6544"/></filter></defs><path d="M0 0h512v512H0z" fill="#b90202" fill-opacity="1" id="path2" style="fill:#1b1f21;fill-opacity:1"/><style type="text/css" id="style35976">.st0{fill:#000}</style><g id="g5952" transform="translate(1.095 1.102) scale(.42483)" style="fill:#e64539;fill-opacity:1;filter:url(#filter6546)"><path d="m375 959.64-175.09 29.176 8.344 38.359 166.74-30.336z" id="path5932" style="fill:#e64539;fill-opacity:1"/><path d="m337.5 659.64-201.84 33.637 7.762 35.68 194.08-32.344z" id="path5934" style="fill:#e64539;fill-opacity:1"/><path d="m356.25 809.64-188.46 31.406 8.383 38.551 180.07-32.758z" id="path5936" style="fill:#e64539;fill-opacity:1"/><path d="m931.82 293.48 129.17-193.77-61.559-36.938-129.17 193.77Z" id="path5938" style="fill:#e64539;fill-opacity:1"/><path d="M329.74 256.54 200.57 62.77l-61.559 36.938 129.17 193.77z" id="path5940" style="fill:#e64539;fill-opacity:1"/><path d="m862.5 696.62 194.08 32.344 7.762-35.68-201.84-33.637z" id="path5942" style="fill:#e64539;fill-opacity:1"/><path d="m825 996.84 166.74 30.336 8.344-38.359-175.09-29.176z" id="path5944" style="fill:#e64539;fill-opacity:1"/><path d="M525 450h150v562.5H525Z" id="path5946" style="fill:#e64539;fill-opacity:1"/><path d="M825 712.5v-75a18.71 18.71 0 0 1 6.637-14.305 18.774 18.774 0 0 1 15.207-4.2l195.96 32.665-54.957-64.125a131.358 131.358 0 0 1-31.594-85.41V495.3c0-20.27 4.78-40.574 13.855-58.688l130.26-260.53-32.551-18.996-114.71 172.05c-3.602 5.418-9.547 8.363-15.621 8.363a18.65 18.65 0 0 1-9.637-2.68l-93.75-56.25a18.789 18.789 0 0 1-8.645-11.96 18.735 18.735 0 0 1 2.7-14.513l112.71-169.05L907.79 63.75a54.927 54.927 0 0 0-27.73-7.5h-4.688c-27.77 0-50.363 22.594-50.363 50.383 0 45.074-17.55 87.45-49.426 119.32l-5.867 5.867c-31.875 31.875-74.25 49.426-119.32 49.426h-100.74c-45.074 0-87.449-17.55-119.32-49.426l-5.867-5.867c-31.898-31.875-49.45-74.27-49.45-119.32 0-27.789-22.593-50.383-50.382-50.383h-4.688a54.926 54.926 0 0 0-27.73 7.5l-33.074 19.293 112.71 169.05a18.721 18.721 0 0 1 2.7 14.512 18.73 18.73 0 0 1-8.645 11.961l-93.75 56.25c-3 1.82-6.336 2.684-9.617 2.684-6.074 0-12.02-2.945-15.617-8.344l-114.71-172.07-32.551 18.996 130.26 260.53c9.074 18.129 13.855 38.418 13.855 58.707v6.824c0 31.312-11.23 61.648-31.594 85.426l-54.957 64.125 195.96-32.664a18.776 18.776 0 0 1 15.207 4.2c4.219 3.527 6.636 8.757 6.636 14.27v75c0 9.167-6.636 16.987-15.656 18.487l-207.94 34.648 8.418 38.7 212.1-35.345c5.418-.882 10.988.618 15.207 4.2a18.768 18.768 0 0 1 6.618 14.309v75c0 9.054-6.489 16.82-15.395 18.43l-194.21 35.328 7.8 35.867 198.73-33.113a18.757 18.757 0 0 1 15.207 4.199 18.698 18.698 0 0 1 6.618 14.289v75c0 9.055-6.489 16.82-15.395 18.43l-180.88 32.887 6 27.602c119.4 34.746 242.72 52.332 366.9 52.332h21.73c124.26 0 247.65-17.586 366.92-52.332l6-27.602-180.88-32.887c-8.903-1.61-15.391-9.375-15.391-18.43v-75a18.71 18.71 0 0 1 6.636-14.305c4.2-3.563 9.75-5.082 15.207-4.2l198.73 33.114 7.801-35.867-194.21-35.305c-8.926-1.618-15.414-9.383-15.414-18.438v-75a18.71 18.71 0 0 1 6.637-14.305 18.861 18.861 0 0 1 15.207-4.2l212.1 35.344 8.418-38.699-207.94-34.648c-9.04-1.503-15.676-9.324-15.676-18.492zm-112.5 318.75c0 10.367-8.398 18.75-18.75 18.75h-187.5c-10.352 0-18.75-8.383-18.75-18.75v-600c0-10.352 8.398-18.75 18.75-18.75h187.5c10.352 0 18.75 8.398 18.75 18.75z" id="path5948" style="fill:#e64539;fill-opacity:1"/><path d="m843.75 846.84 180.07 32.758 8.383-38.551-188.46-31.406z" id="path5950" style="fill:#e64539;fill-opacity:1"/></g></svg>