<svg width="512" height="512" version="1.1" id="svg8" xml:space="preserve" xmlns="http://www.w3.org/2000/svg"><defs id="defs12"><filter style="color-interpolation-filters:sRGB" id="filter875" x="-.313" y="-.169" width="1.609" height="1.328"><feFlood flood-opacity="1" flood-color="#3A3F5E" result="flood" id="feFlood865"/><feComposite in="flood" in2="SourceGraphic" operator="out" result="composite1" id="feComposite867"/><feGaussianBlur in="composite1" stdDeviation="15" result="blur" id="feGaussianBlur869"/><feOffset dx="0" dy="0" result="offset" id="feOffset871"/><feComposite in="offset" in2="SourceGraphic" operator="atop" result="composite2" id="feComposite873"/></filter><filter style="color-interpolation-filters:sRGB" id="filter1015" x="-.082" y="-.044" width="1.164" height="1.088"><feFlood flood-opacity="1" flood-color="#3A3F5E" result="flood" id="feFlood1005"/><feComposite in="flood" in2="SourceGraphic" operator="out" result="composite1" id="feComposite1007"/><feGaussianBlur in="composite1" stdDeviation="8.302" result="blur" id="feGaussianBlur1009"/><feOffset dx="0" dy="0" result="offset" id="feOffset1011"/><feComposite in="offset" in2="SourceGraphic" operator="atop" result="composite2" id="feComposite1013"/></filter><filter style="color-interpolation-filters:sRGB" id="filter35638" x="-.057" y="-.131" width="1.114" height="1.261"><feFlood flood-opacity="1" flood-color="#3A3F5E" result="flood" id="feFlood35628"/><feComposite in="flood" in2="SourceGraphic" operator="out" result="composite1" id="feComposite35630"/><feGaussianBlur in="composite1" stdDeviation="6" result="blur" id="feGaussianBlur35632"/><feOffset dx="0" dy="0" result="offset" id="feOffset35634"/><feComposite in="offset" in2="SourceGraphic" operator="atop" result="composite2" id="feComposite35636"/></filter><filter style="color-interpolation-filters:sRGB" id="filter35813" x="-.053" y="-.07" width="1.107" height="1.139"><feFlood flood-opacity="1" flood-color="#3A3F5E" result="flood" id="feFlood35803"/><feComposite in="flood" in2="SourceGraphic" operator="out" result="composite1" id="feComposite35805"/><feGaussianBlur in="composite1" stdDeviation="8" result="blur" id="feGaussianBlur35807"/><feOffset dx="0" dy="0" result="offset" id="feOffset35809"/><feComposite in="offset" in2="SourceGraphic" operator="atop" result="composite2" id="feComposite35811"/></filter><filter style="color-interpolation-filters:sRGB" id="filter36051" x="-.028" y="-.039" width="1.056" height="1.078"><feFlood flood-opacity="1" flood-color="#3A3F5E" result="flood" id="feFlood36041"/><feComposite in="flood" in2="SourceGraphic" operator="out" result="composite1" id="feComposite36043"/><feGaussianBlur in="composite1" stdDeviation="6" result="blur" id="feGaussianBlur36045"/><feOffset dx="0" dy="0" result="offset" id="feOffset36047"/><feComposite in="offset" in2="SourceGraphic" operator="atop" result="composite2" id="feComposite36049"/></filter><filter style="color-interpolation-filters:sRGB" id="filter36337" x="-.031" y="-.031" width="1.062" height="1.062"><feFlood flood-opacity="1" flood-color="#3A3F5E" result="flood" id="feFlood36327"/><feComposite in="flood" in2="SourceGraphic" operator="out" result="composite1" id="feComposite36329"/><feGaussianBlur in="composite1" stdDeviation="6" result="blur" id="feGaussianBlur36331"/><feOffset dx="0" dy="0" result="offset" id="feOffset36333"/><feComposite in="offset" in2="SourceGraphic" operator="atop" result="composite2" id="feComposite36335"/></filter><filter style="color-interpolation-filters:sRGB" id="filter1651" x="-.065" y="-.053" width="1.131" height="1.106"><feFlood flood-opacity="1" flood-color="#3A3F5E" result="flood" id="feFlood1641"/><feComposite in="flood" in2="SourceGraphic" operator="out" result="composite1" id="feComposite1643"/><feGaussianBlur in="composite1" stdDeviation="23.919" result="blur" id="feGaussianBlur1645"/><feOffset dx="0" dy="0" result="offset" id="feOffset1647"/><feComposite in="offset" in2="SourceGraphic" operator="atop" result="composite2" id="feComposite1649"/></filter></defs><path d="M0 0h512v512H0z" fill="#b90202" fill-opacity="1" id="path2" style="fill:#1b1f21;fill-opacity:1"/><style type="text/css" id="style35976">.st0{fill:#000}</style><g id="g862" transform="matrix(-.49965 0 0 .39478 555.666 19.133)" style="fill:#e64539;fill-opacity:1;filter:url(#filter1651)"><path d="M816 727.2c33.602 1.2 61.199-9.602 80.398-30 37.199-38.398 38.398-104.4 37.199-122.4-68.398-9.602-158.4-22.801-225.6-34.801-4.8 21.602-15.602 100.8 20.398 148.8 18 24 48 37.199 87.602 38.398z" id="path850" style="fill:#e64539;fill-opacity:1"/><path d="M954 577.2c0 24-2.398 91.199-43.199 133.2-22.801 24-52.801 36-91.199 36h-4.8c-45.603-1.2-80.399-16.801-103.2-46.801-42-54-28.802-139.2-24-163.2-16.802-3.602-31.2-6-44.399-8.398l-58.8-13.2c-4.802 108-12 348 2.398 433.2 13.199 75.603 76.8 92.399 154.8 92.399h16.8c61.2-1.2 103.2-44.398 110.4-86.398 4.801-30 10.802-108 15.603-141.6 2.398-19.2 14.398-36 31.199-45.602 15.602-8.399 36-15.602 62.398-19.2 21.602-2.398 38.398-19.198 40.8-39.601l12-102c0-6 0-12-1.199-18A2102.768 2102.768 0 0 1 954 577.202z" id="path852" style="fill:#e64539;fill-opacity:1"/><path d="M469.2 572.4c-16.801-7.2-33.602-19.199-52.801-32.398-32.398-22.801-69.598-48-116.4-57.602-7.2-1.2-14.398-3.602-20.398-4.8-13.199 122.4-38.398 372-40.801 423.6-2.398 69.601 60 126 136.8 138 39.602 7.198 84 7.198 122.4-1.2-49.199-100.8-38.398-343.2-28.801-465.6Z" id="path854" style="fill:#e64539;fill-opacity:1"/><path d="M428.4 524.4c32.398 22.801 60 42 84 36 45.602-10.801 39.602-46.801 38.398-50.398v-2.398c-2.398-164.4-132-344.4-248.4-344.4-112.8 0-138 117.6-139.2 118.8-18 129.6 56.398 164.4 140.4 181.2 51.602 9.597 90.004 37.195 124.8 61.195z" id="path856" style="fill:#e64539;fill-opacity:1"/><path d="M980.4 768c-20.398 2.398-38.398 8.398-55.199 16.801-10.801 6-19.199 16.801-20.398 30-2.398 14.398-3.602 37.199-6 62.398-3.602 31.199-6 63.602-9.602 80.398-8.398 48-55.199 100.8-128.4 103.2h-16.8c-66 0-157.2-10.801-174-109.2-13.2-79.199-8.399-278.4-3.602-408-7.2 15.602-21.602 30-49.2 36-4.8 1.2-9.6 1.2-14.397 1.2h-7.2c-8.398 127.2-19.198 382.8 33.603 460.8 62.398 91.198 169.2 97.198 194.4 97.198h6s9.601 1.2 24 1.2c50.398 0 162-16.802 189.6-163.2l8.398-81.603c2.398-10.8 8.398-44.398 16.801-50.398 18-14.398 32.398-10.8 39.602-32.398 8.398-26.398 13.199-33.602 3.602-56.398-8.407 6-19.207 9.602-31.207 12z" id="path858" style="fill:#e64539;fill-opacity:1"/><path d="M927.6 153.6c-132-84-270-93.602-324-93.602-15.602 0-24 1.2-24 1.2-91.199 12-154.8 60-196.8 106.8 36 20.397 70.801 54 99.602 93.601 3.602-4.8 9.602-10.8 16.801-16.8 3.602-3.602 8.398-3.602 12 0 3.602 3.6 3.602 8.398 0 12-8.398 8.398-14.398 15.601-19.199 19.198 42 63.602 72 141.6 76.801 217.2l44.398 8.399c9.602 2.398 20.398 4.8 33.602 7.199 76.801 18 264 44.398 345.6 55.199v-3.602c2.398-8.398 4.8-19.199 6-33.602 0-4.8 4.8-8.398 9.602-7.199 4.8 0 8.398 4.8 7.199 9.602-1.2 14.398-3.602 26.398-6 36v1.199c14.398 2.398 24 3.601 24 3.601-.01.004 43.19-321.6-105.61-416.39zm-354 46.797c-8.398 6-18 14.398-26.398 21.602-1.2 1.2-3.602 2.398-6 2.398s-4.8-1.199-7.2-3.601c-3.6-3.602-2.398-9.602 1.2-12 9.602-8.399 19.199-15.602 27.602-22.801 3.602-2.399 9.602-2.399 12 1.199 3.594 4.805 2.394 10.805-1.203 13.203zm262.8 103.2c0 10.801 1.2 22.801 1.2 34.801 0 4.8-3.602 8.398-8.4 9.602-4.8 0-8.398-3.602-8.398-8.399 0-12-1.199-24-1.199-34.8 0-4.802 3.602-8.4 8.399-9.602 3.601-.004 8.398 3.597 8.398 8.398zm-192-139.2c-9.602 2.398-19.199 6-31.199 12-1.2 1.2-2.398 1.2-3.602 1.2-3.601 0-6-1.2-8.398-4.802-2.398-4.8 0-9.601 3.602-12 12-6 24-10.8 34.8-13.199 4.801-1.199 9.602 2.399 10.802 7.2 1.199 3.601-1.203 8.402-6.004 9.601zm81.602 3.602c-13.199-1.2-24-2.399-36-3.602-4.8 0-8.398-4.8-8.398-9.602 0-4.8 4.8-8.398 9.601-8.398 12 1.2 22.801 2.398 34.801 3.602 4.801 1.199 8.399 4.8 7.2 9.601 1.195 6-2.403 8.399-7.204 8.399zm81.602 13.199c-10.801-2.399-22.801-4.801-34.801-6-4.8-1.2-8.398-4.801-7.2-9.602 1.2-4.8 4.802-8.398 9.602-7.2 12 2.4 24 3.602 34.801 6 4.801 1.2 8.399 6 7.2 10.802-1.2 3.601-4.801 7.199-8.399 7.199-.004 0-.004 0-1.203-1.2zm13.199 30c4.8 0 9.602 2.398 9.602 7.199 0 0 1.199 13.199 3.601 34.8 0 4.802-3.601 9.602-8.398 9.602h-1.2c-4.8 0-8.398-3.601-8.398-8.398-1.199-21.602-3.601-34.801-3.601-34.801-.008-3.602 3.593-7.203 8.394-8.402zm9.598 297.6c-1.2 4.8-4.801 7.199-8.399 7.199h-1.199c-4.8-1.2-8.398-4.801-7.2-9.602 1.2-10.8 3.603-21.602 4.802-33.602 0-4.8 4.8-8.398 9.601-8.398 4.801 0 8.399 4.8 8.399 9.601-2.403 12-3.602 24-6.004 34.801zm7.203-85.2c0 4.801-3.602 8.399-8.399 8.399-4.8 0-8.398-3.602-8.398-9.602v-34.8c0-4.801 3.602-8.399 8.398-8.399 4.801 0 8.399 3.602 8.399 8.398 1.199 13.203 1.199 25.203 0 36.004zm61.199-225.6c-1.2 3.602-4.801 6-8.399 6h-2.398c-9.602-3.601-21.602-7.199-32.398-9.601-4.8-1.2-7.2-6-6-10.801 1.2-4.8 6-7.2 10.801-6 12 3.602 24 7.2 33.602 10.801 4.793 0 7.191 4.8 4.793 9.602zm70.8 43.2c-1.198 1.199-3.6 2.398-6 2.398-2.398 0-4.8-1.2-7.198-3.602-2.399-3.601-6-6-8.399-8.398-4.8-3.602-10.8-7.2-16.8-10.801-4.802-2.398-6-7.2-3.602-12s7.199-6 12-3.602c7.199 3.602 13.199 8.399 19.199 12 3.601 2.399 8.398 7.2 12 10.801 2.398 4.805 2.398 10.805-1.2 13.203zm18 73.199c-2.398-12-6-22.801-9.6-32.398-1.2-4.801 1.198-9.602 4.8-10.801 4.8-1.2 9.602 1.199 10.801 4.8 3.602 10.801 7.2 21.602 9.602 34.801 1.199 4.801-2.399 9.602-6 10.801h-2.399c-2.406-1.203-6.004-3.601-7.203-7.203zm8.4 46.8c-1.2-4.8 2.398-9.601 7.198-9.601 4.801-1.2 9.602 2.398 9.602 7.2 1.2 10.8 2.398 22.8 3.602 34.8 0 4.801-3.602 9.602-8.399 9.602h-1.199c-4.8 0-8.398-3.602-8.398-8.399-.008-10.8-1.207-22.8-2.407-33.602zm24 118.8c0 4.801-3.602 8.399-8.4 8.399-4.8 0-8.398-3.602-8.398-8.398v-34.801c0-4.801 3.602-8.399 8.399-8.399 4.8 0 8.398 3.602 8.398 8.399v18z" id="path860" style="fill:#e64539;fill-opacity:1"/></g></svg>