<svg width="512" height="512" version="1.1" id="svg8" xml:space="preserve" xmlns="http://www.w3.org/2000/svg"><defs id="defs12"><filter style="color-interpolation-filters:sRGB" id="filter875" x="-.313" y="-.169" width="1.609" height="1.328"><feFlood flood-opacity="1" flood-color="#3A3F5E" result="flood" id="feFlood865"/><feComposite in="flood" in2="SourceGraphic" operator="out" result="composite1" id="feComposite867"/><feGaussianBlur in="composite1" stdDeviation="15" result="blur" id="feGaussianBlur869"/><feOffset dx="0" dy="0" result="offset" id="feOffset871"/><feComposite in="offset" in2="SourceGraphic" operator="atop" result="composite2" id="feComposite873"/></filter><filter style="color-interpolation-filters:sRGB" id="filter1015" x="-.082" y="-.044" width="1.164" height="1.088"><feFlood flood-opacity="1" flood-color="#3A3F5E" result="flood" id="feFlood1005"/><feComposite in="flood" in2="SourceGraphic" operator="out" result="composite1" id="feComposite1007"/><feGaussianBlur in="composite1" stdDeviation="8.302" result="blur" id="feGaussianBlur1009"/><feOffset dx="0" dy="0" result="offset" id="feOffset1011"/><feComposite in="offset" in2="SourceGraphic" operator="atop" result="composite2" id="feComposite1013"/></filter><filter style="color-interpolation-filters:sRGB" id="filter35638" x="-.057" y="-.131" width="1.114" height="1.261"><feFlood flood-opacity="1" flood-color="#3A3F5E" result="flood" id="feFlood35628"/><feComposite in="flood" in2="SourceGraphic" operator="out" result="composite1" id="feComposite35630"/><feGaussianBlur in="composite1" stdDeviation="6" result="blur" id="feGaussianBlur35632"/><feOffset dx="0" dy="0" result="offset" id="feOffset35634"/><feComposite in="offset" in2="SourceGraphic" operator="atop" result="composite2" id="feComposite35636"/></filter><filter style="color-interpolation-filters:sRGB" id="filter35813" x="-.053" y="-.07" width="1.107" height="1.139"><feFlood flood-opacity="1" flood-color="#3A3F5E" result="flood" id="feFlood35803"/><feComposite in="flood" in2="SourceGraphic" operator="out" result="composite1" id="feComposite35805"/><feGaussianBlur in="composite1" stdDeviation="8" result="blur" id="feGaussianBlur35807"/><feOffset dx="0" dy="0" result="offset" id="feOffset35809"/><feComposite in="offset" in2="SourceGraphic" operator="atop" result="composite2" id="feComposite35811"/></filter><filter style="color-interpolation-filters:sRGB" id="filter36051" x="-.028" y="-.039" width="1.056" height="1.078"><feFlood flood-opacity="1" flood-color="#3A3F5E" result="flood" id="feFlood36041"/><feComposite in="flood" in2="SourceGraphic" operator="out" result="composite1" id="feComposite36043"/><feGaussianBlur in="composite1" stdDeviation="6" result="blur" id="feGaussianBlur36045"/><feOffset dx="0" dy="0" result="offset" id="feOffset36047"/><feComposite in="offset" in2="SourceGraphic" operator="atop" result="composite2" id="feComposite36049"/></filter><filter style="color-interpolation-filters:sRGB" id="filter36337" x="-.031" y="-.031" width="1.062" height="1.062"><feFlood flood-opacity="1" flood-color="#3A3F5E" result="flood" id="feFlood36327"/><feComposite in="flood" in2="SourceGraphic" operator="out" result="composite1" id="feComposite36329"/><feGaussianBlur in="composite1" stdDeviation="6" result="blur" id="feGaussianBlur36331"/><feOffset dx="0" dy="0" result="offset" id="feOffset36333"/><feComposite in="offset" in2="SourceGraphic" operator="atop" result="composite2" id="feComposite36335"/></filter><filter style="color-interpolation-filters:sRGB" id="filter1651" x="-.065" y="-.053" width="1.131" height="1.106"><feFlood flood-opacity="1" flood-color="#3A3F5E" result="flood" id="feFlood1641"/><feComposite in="flood" in2="SourceGraphic" operator="out" result="composite1" id="feComposite1643"/><feGaussianBlur in="composite1" stdDeviation="23.919" result="blur" id="feGaussianBlur1645"/><feOffset dx="0" dy="0" result="offset" id="feOffset1647"/><feComposite in="offset" in2="SourceGraphic" operator="atop" result="composite2" id="feComposite1649"/></filter><filter style="color-interpolation-filters:sRGB" id="filter2460" x="-.055" y="-.048" width="1.11" height="1.096"><feFlood flood-opacity="1" flood-color="#3A3F5E" result="flood" id="feFlood2450"/><feComposite in="flood" in2="SourceGraphic" operator="out" result="composite1" id="feComposite2452"/><feGaussianBlur in="composite1" stdDeviation="23.919" result="blur" id="feGaussianBlur2454"/><feOffset dx="0" dy="0" result="offset" id="feOffset2456"/><feComposite in="offset" in2="SourceGraphic" operator="atop" result="composite2" id="feComposite2458"/></filter></defs><path d="M0 0h512v512H0z" fill="#b90202" fill-opacity="1" id="path2" style="fill:#1b1f21;fill-opacity:1"/><style type="text/css" id="style35976">.st0{fill:#000}</style><g id="g1885" transform="translate(37.252 37.255) scale(.36457)" style="fill:#e64539;fill-opacity:1;filter:url(#filter2460)"><path d="M600 745.01a56.75 56.75 0 0 1-18.117-2.953c-87.176-29.285-153.92-79.402-198.37-121.4v149.61c42.312 42.738 111.39 98.945 204.64 130.28 7.637 2.566 16.051 2.566 23.695 0 93.246-31.336 162.33-87.555 204.64-130.29v-149.59c-44.449 42-111.21 92.117-198.38 121.4a56.82 56.82 0 0 1-18.113 2.95z" id="path1863" style="fill:#e64539;fill-opacity:1"/><path d="M111.47 17.918c19.965 60.254 79.777 262.58 11.582 336.41-3.375 3.664-5.234 8.328-5.234 13.148v165.82l120.05 6.004c20.969 1.043 37.395 18.312 37.395 39.312v52.086c0 20.988-16.422 38.258-37.395 39.312l-120.05 5.992v64.414c21.895 8.188 92.37 37.441 135.48 89.184 3.484 4.172 2.914 10.383-1.258 13.855a9.792 9.792 0 0 1-6.297 2.281 9.833 9.833 0 0 1-7.567-3.543c-35.895-43.07-94.555-70.16-120.36-80.602v58.066c16.738 7.715 64.473 31.785 96.062 68.902 3.524 4.133 3.02 10.352-1.12 13.875a9.794 9.794 0 0 1-6.368 2.344 9.834 9.834 0 0 1-7.5-3.465c-24.668-28.977-61.402-49.879-81.074-59.758v227.8c7.559 11.582 59.004 79.207 246.01 112.34l-.004-1101.7c-35.03-36.359-56.355-67.684-64.195-79.992z" id="path1865" style="fill:#e64539;fill-opacity:1"/><path d="M600 548.2a56.75 56.75 0 0 1-18.117-2.953c-87.176-29.285-153.92-79.402-198.37-121.4v169.29c42.312 42.738 111.39 98.945 204.64 130.28 7.637 2.566 16.051 2.566 23.695 0 93.246-31.332 162.33-87.551 204.64-130.29v-169.27c-44.449 42-111.21 92.117-198.38 121.4a56.82 56.82 0 0 1-18.113 2.95z" id="path1867" style="fill:#e64539;fill-opacity:1"/><path d="M600 371.07a56.75 56.75 0 0 1-18.117-2.953c-87.176-29.285-153.92-79.402-198.37-121.4v149.61c42.312 42.738 111.39 98.945 204.64 130.28 7.637 2.566 16.051 2.566 23.695 0 93.246-31.332 162.33-87.551 204.64-130.29v-149.59c-44.449 42-111.21 92.117-198.38 121.4a56.713 56.713 0 0 1-18.113 2.953z" id="path1869" style="fill:#e64539;fill-opacity:1"/><path d="M600 922.14a56.75 56.75 0 0 1-18.117-2.953c-87.176-29.285-153.92-79.402-198.37-121.4v179.12c42.312 42.738 111.39 98.945 204.64 130.28 7.637 2.566 16.051 2.566 23.695 0 93.246-31.332 162.33-87.547 204.64-130.29v-179.12c-44.449 42-111.21 92.117-198.38 121.4a56.713 56.713 0 0 1-18.113 2.953z" id="path1871" style="fill:#e64539;fill-opacity:1"/><path d="M600 1128.8a56.75 56.75 0 0 1-18.117-2.953c-87.176-29.285-153.92-79.402-198.37-121.4v180.51c58.895 9.2 130.16 15.055 216.49 15.055 86.33 0 157.59-5.856 216.49-15.055v-180.51c-44.449 42-111.21 92.117-198.38 121.4A56.713 56.713 0 0 1 600 1128.8z" id="path1873" style="fill:#e64539;fill-opacity:1"/><path d="M1118.5 554.25c-1.977-1.879-4.488-2.824-7.281-2.695l-148.09 7.402c-10.48.531-18.695 9.16-18.695 19.66v52.086c0 10.488 8.207 19.129 18.695 19.66l148.1 7.398c2.773.04 5.305-.828 7.281-2.695a9.762 9.762 0 0 0 3.059-7.133v-86.547c-.01-2.734-1.09-5.265-3.07-7.136zm-115.02 78.488c0 5.434-4.41 9.84-9.84 9.84-5.433 0-9.84-4.41-9.84-9.84v-56.582c0-5.434 4.41-9.84 9.84-9.84 5.434 0 9.84 4.41 9.84 9.84zm39.363 0c0 5.434-4.41 9.84-9.84 9.84-5.433 0-9.84-4.41-9.84-9.84v-56.582c0-5.434 4.41-9.84 9.84-9.84 5.434 0 9.84 4.41 9.84 9.84zm39.359 3.277c0 5.434-4.41 9.84-9.84 9.84-5.433 0-9.84-4.41-9.84-9.84v-61.914c0-5.433 4.41-9.84 9.84-9.84 5.434 0 9.84 4.41 9.84 9.84z" id="path1875" style="fill:#e64539;fill-opacity:1"/><path d="M600 223.46a57.12 57.12 0 0 1-18.117-2.941c-85.551-28.742-151.47-76.676-198.38-121.04v119.71c42.312 42.738 111.39 98.945 204.64 130.28 7.637 2.566 16.051 2.566 23.695 0 93.25-31.328 162.33-87.547 204.64-130.29V99.469c-46.898 44.359-112.82 92.293-198.38 121.04a56.82 56.82 0 0 1-18.113 2.949z" id="path1877" style="fill:#e64539;fill-opacity:1"/><path d="M236.89 650.35c10.488-.531 18.695-9.16 18.695-19.66v-52.086c0-10.488-8.207-19.129-18.695-19.66l-148.1-7.398c-.176 0-.344-.012-.512-.012a9.773 9.773 0 0 0-6.77 2.707 9.768 9.768 0 0 0-3.05 7.133v86.547a9.738 9.738 0 0 0 3.059 7.132c1.976 1.88 4.507 2.766 7.28 2.696zm-99.387-14.336c0 5.434-4.41 9.84-9.84 9.84-5.433 0-9.84-4.41-9.84-9.84V574.1c0-5.434 4.41-9.84 9.84-9.84 5.434 0 9.84 4.41 9.84 9.84zm39.363-3.277c0 5.433-4.41 9.84-9.84 9.84-5.433 0-9.84-4.41-9.84-9.84v-56.582c0-5.434 4.41-9.84 9.84-9.84 5.434 0 9.84 4.41 9.84 9.84zm39.359 0c0 5.433-4.41 9.84-9.84 9.84-5.433 0-9.84-4.41-9.84-9.84v-56.582c0-5.434 4.41-9.84 9.84-9.84 5.434 0 9.84 4.41 9.84 9.84z" id="path1879" style="fill:#e64539;fill-opacity:1"/><path d="M588.15 201.87a37.424 37.424 0 0 0 23.695 0c109.06-36.648 186.02-107.25 230.27-158.05-48.316 29.098-127.03 61.16-241.88 63.883-115.07-2.727-193.89-34.766-242.27-63.863 44.293 50.816 121.29 121.44 230.19 158.03z" id="path1881" style="fill:#e64539;fill-opacity:1"/><path d="M962.13 670c-20.969-1.043-37.395-18.312-37.395-39.312v-52.086c0-20.988 16.422-38.258 37.395-39.312l120.05-6.004v-165.81c0-4.82-1.86-9.484-5.234-13.137-68.203-73.832-8.383-276.16 11.574-336.41L900.366 0c-7.84 12.31-29.164 43.633-64.195 79.992v1101.7c186.76-33.094 238.34-100.59 246.01-112.35v-227.8c-19.672 9.879-56.406 30.781-81.066 59.762a9.847 9.847 0 0 1-7.5 3.465 9.773 9.773 0 0 1-6.368-2.344c-4.144-3.523-4.644-9.73-1.12-13.875 31.585-37.117 79.311-61.188 96.061-68.902v-58.066c-25.812 10.441-84.469 37.531-120.37 80.602a9.834 9.834 0 0 1-7.566 3.543 9.793 9.793 0 0 1-6.297-2.281c-4.172-3.485-4.734-9.684-1.258-13.855 43.11-51.73 113.59-80.988 135.48-89.184v-64.414z" id="path1883" style="fill:#e64539;fill-opacity:1"/></g></svg>