<svg width="512" height="512" version="1.1" id="svg8" xml:space="preserve" xmlns="http://www.w3.org/2000/svg"><defs id="defs12"><filter style="color-interpolation-filters:sRGB" id="filter875" x="-.313" y="-.169" width="1.609" height="1.328"><feFlood flood-opacity="1" flood-color="#3A3F5E" result="flood" id="feFlood865"/><feComposite in="flood" in2="SourceGraphic" operator="out" result="composite1" id="feComposite867"/><feGaussianBlur in="composite1" stdDeviation="15" result="blur" id="feGaussianBlur869"/><feOffset dx="0" dy="0" result="offset" id="feOffset871"/><feComposite in="offset" in2="SourceGraphic" operator="atop" result="composite2" id="feComposite873"/></filter><filter style="color-interpolation-filters:sRGB" id="filter1015" x="-.082" y="-.044" width="1.164" height="1.088"><feFlood flood-opacity="1" flood-color="#3A3F5E" result="flood" id="feFlood1005"/><feComposite in="flood" in2="SourceGraphic" operator="out" result="composite1" id="feComposite1007"/><feGaussianBlur in="composite1" stdDeviation="8.302" result="blur" id="feGaussianBlur1009"/><feOffset dx="0" dy="0" result="offset" id="feOffset1011"/><feComposite in="offset" in2="SourceGraphic" operator="atop" result="composite2" id="feComposite1013"/></filter><filter style="color-interpolation-filters:sRGB" id="filter35638" x="-.057" y="-.131" width="1.114" height="1.261"><feFlood flood-opacity="1" flood-color="#3A3F5E" result="flood" id="feFlood35628"/><feComposite in="flood" in2="SourceGraphic" operator="out" result="composite1" id="feComposite35630"/><feGaussianBlur in="composite1" stdDeviation="6" result="blur" id="feGaussianBlur35632"/><feOffset dx="0" dy="0" result="offset" id="feOffset35634"/><feComposite in="offset" in2="SourceGraphic" operator="atop" result="composite2" id="feComposite35636"/></filter><filter style="color-interpolation-filters:sRGB" id="filter35813" x="-.053" y="-.07" width="1.107" height="1.139"><feFlood flood-opacity="1" flood-color="#3A3F5E" result="flood" id="feFlood35803"/><feComposite in="flood" in2="SourceGraphic" operator="out" result="composite1" id="feComposite35805"/><feGaussianBlur in="composite1" stdDeviation="8" result="blur" id="feGaussianBlur35807"/><feOffset dx="0" dy="0" result="offset" id="feOffset35809"/><feComposite in="offset" in2="SourceGraphic" operator="atop" result="composite2" id="feComposite35811"/></filter><filter style="color-interpolation-filters:sRGB" id="filter36051" x="-.028" y="-.039" width="1.056" height="1.078"><feFlood flood-opacity="1" flood-color="#3A3F5E" result="flood" id="feFlood36041"/><feComposite in="flood" in2="SourceGraphic" operator="out" result="composite1" id="feComposite36043"/><feGaussianBlur in="composite1" stdDeviation="6" result="blur" id="feGaussianBlur36045"/><feOffset dx="0" dy="0" result="offset" id="feOffset36047"/><feComposite in="offset" in2="SourceGraphic" operator="atop" result="composite2" id="feComposite36049"/></filter><filter style="color-interpolation-filters:sRGB" id="filter36337" x="-.031" y="-.031" width="1.062" height="1.062"><feFlood flood-opacity="1" flood-color="#3A3F5E" result="flood" id="feFlood36327"/><feComposite in="flood" in2="SourceGraphic" operator="out" result="composite1" id="feComposite36329"/><feGaussianBlur in="composite1" stdDeviation="6" result="blur" id="feGaussianBlur36331"/><feOffset dx="0" dy="0" result="offset" id="feOffset36333"/><feComposite in="offset" in2="SourceGraphic" operator="atop" result="composite2" id="feComposite36335"/></filter><filter style="color-interpolation-filters:sRGB" id="filter1651" x="-.065" y="-.053" width="1.131" height="1.106"><feFlood flood-opacity="1" flood-color="#3A3F5E" result="flood" id="feFlood1641"/><feComposite in="flood" in2="SourceGraphic" operator="out" result="composite1" id="feComposite1643"/><feGaussianBlur in="composite1" stdDeviation="23.919" result="blur" id="feGaussianBlur1645"/><feOffset dx="0" dy="0" result="offset" id="feOffset1647"/><feComposite in="offset" in2="SourceGraphic" operator="atop" result="composite2" id="feComposite1649"/></filter><filter style="color-interpolation-filters:sRGB" id="filter2460" x="-.055" y="-.048" width="1.11" height="1.096"><feFlood flood-opacity="1" flood-color="#3A3F5E" result="flood" id="feFlood2450"/><feComposite in="flood" in2="SourceGraphic" operator="out" result="composite1" id="feComposite2452"/><feGaussianBlur in="composite1" stdDeviation="23.919" result="blur" id="feGaussianBlur2454"/><feOffset dx="0" dy="0" result="offset" id="feOffset2456"/><feComposite in="offset" in2="SourceGraphic" operator="atop" result="composite2" id="feComposite2458"/></filter><filter style="color-interpolation-filters:sRGB" id="filter3393" x="-.044" y="-.048" width="1.087" height="1.096"><feFlood flood-opacity="1" flood-color="#3A3F5E" result="flood" id="feFlood3383"/><feComposite in="flood" in2="SourceGraphic" operator="out" result="composite1" id="feComposite3385"/><feGaussianBlur in="composite1" stdDeviation="20.325" result="blur" id="feGaussianBlur3387"/><feOffset dx="0" dy="0" result="offset" id="feOffset3389"/><feComposite in="offset" in2="SourceGraphic" operator="atop" result="composite2" id="feComposite3391"/></filter><filter style="color-interpolation-filters:sRGB" id="filter4405" x="-.046" y="-.046" width="1.093" height="1.093"><feFlood flood-opacity="1" flood-color="#3A3F5E" result="flood" id="feFlood4395"/><feComposite in="flood" in2="SourceGraphic" operator="out" result="composite1" id="feComposite4397"/><feGaussianBlur in="composite1" stdDeviation="20.325" result="blur" id="feGaussianBlur4399"/><feOffset dx="0" dy="0" result="offset" id="feOffset4401"/><feComposite in="offset" in2="SourceGraphic" operator="atop" result="composite2" id="feComposite4403"/></filter><filter style="color-interpolation-filters:sRGB" id="filter6546" x="-.045" y="-.041" width="1.09" height="1.083"><feFlood flood-opacity="1" flood-color="#3A3F5E" result="flood" id="feFlood6536"/><feComposite in="flood" in2="SourceGraphic" operator="out" result="composite1" id="feComposite6538"/><feGaussianBlur in="composite1" stdDeviation="18.8" result="blur" id="feGaussianBlur6540"/><feOffset dx="0" dy="0" result="offset" id="feOffset6542"/><feComposite in="offset" in2="SourceGraphic" operator="atop" result="composite2" id="feComposite6544"/></filter><filter style="color-interpolation-filters:sRGB" id="filter7837" x="-.047" y="-.052" width="1.094" height="1.105"><feFlood flood-opacity="1" flood-color="#3A3F5E" result="flood" id="feFlood7827"/><feComposite in="flood" in2="SourceGraphic" operator="out" result="composite1" id="feComposite7829"/><feGaussianBlur in="composite1" stdDeviation="18.8" result="blur" id="feGaussianBlur7831"/><feOffset dx="0" dy="0" result="offset" id="feOffset7833"/><feComposite in="offset" in2="SourceGraphic" operator="atop" result="composite2" id="feComposite7835"/></filter><filter style="color-interpolation-filters:sRGB" id="filter9439" x="-.089" y="-.081" width="1.177" height="1.162"><feFlood flood-opacity="1" flood-color="#3A3F5E" result="flood" id="feFlood9429"/><feComposite in="flood" in2="SourceGraphic" operator="out" result="composite1" id="feComposite9431"/><feGaussianBlur in="composite1" stdDeviation="14.9" result="blur" id="feGaussianBlur9433"/><feOffset dx="0" dy="0" result="offset" id="feOffset9435"/><feComposite in="offset" in2="SourceGraphic" operator="atop" result="composite2" id="feComposite9437"/></filter><filter style="color-interpolation-filters:sRGB" id="filter10197" x="-.042" y="-.042" width="1.085" height="1.085"><feFlood flood-opacity="1" flood-color="#3A3F5E" result="flood" id="feFlood10187"/><feComposite in="flood" in2="SourceGraphic" operator="out" result="composite1" id="feComposite10189"/><feGaussianBlur in="composite1" stdDeviation="19.2" result="blur" id="feGaussianBlur10191"/><feOffset dx="0" dy="0" result="offset" id="feOffset10193"/><feComposite in="offset" in2="SourceGraphic" operator="atop" result="composite2" id="feComposite10195"/></filter><filter style="color-interpolation-filters:sRGB" id="filter11402" x="-.059" y="-.044" width="1.117" height="1.088"><feFlood flood-opacity="1" flood-color="#3A3F5E" result="flood" id="feFlood11392"/><feComposite in="flood" in2="SourceGraphic" operator="out" result="composite1" id="feComposite11394"/><feGaussianBlur in="composite1" stdDeviation="19.2" result="blur" id="feGaussianBlur11396"/><feOffset dx="0" dy="0" result="offset" id="feOffset11398"/><feComposite in="offset" in2="SourceGraphic" operator="atop" result="composite2" id="feComposite11400"/></filter><filter style="color-interpolation-filters:sRGB" id="filter12788" x="-.043" y="-.046" width="1.087" height="1.092"><feFlood flood-opacity="1" flood-color="#3A3F5E" result="flood" id="feFlood12778"/><feComposite in="flood" in2="SourceGraphic" operator="out" result="composite1" id="feComposite12780"/><feGaussianBlur in="composite1" stdDeviation="19.2" result="blur" id="feGaussianBlur12782"/><feOffset dx="0" dy="0" result="offset" id="feOffset12784"/><feComposite in="offset" in2="SourceGraphic" operator="atop" result="composite2" id="feComposite12786"/></filter><filter style="color-interpolation-filters:sRGB" id="filter13592" x="-.049" y="-.042" width="1.097" height="1.084"><feFlood flood-opacity="1" flood-color="#3A3F5E" result="flood" id="feFlood13582"/><feComposite in="flood" in2="SourceGraphic" operator="out" result="composite1" id="feComposite13584"/><feGaussianBlur in="composite1" stdDeviation="19.2" result="blur" id="feGaussianBlur13586"/><feOffset dx="0" dy="0" result="offset" id="feOffset13588"/><feComposite in="offset" in2="SourceGraphic" operator="atop" result="composite2" id="feComposite13590"/></filter></defs><path d="M0 0h512v512H0z" fill="#b90202" fill-opacity="1" id="path2" style="fill:#1b1f21;fill-opacity:1"/><style type="text/css" id="style35976">.st0{fill:#000}</style><g id="g13007" transform="translate(5.915 5.903) scale(.41682)" style="fill:#e64539;fill-opacity:1;filter:url(#filter13592)"><path d="M482.18 890.62h-12.992.004a59.18 59.18 0 0 1-48.215-24.348l-13.16-18.117v222.93h135.94v-222.93l-13.262 18.121a59.364 59.364 0 0 1-48.312 24.344z" id="path12981" style="fill:#e64539;fill-opacity:1"/><path d="M730.81 890.62h-12.992.004a59.36 59.36 0 0 1-48.312-24.344l-13.262-18.121v222.93h135.94v-222.93l-13.16 18.121a59.19 59.19 0 0 1-48.215 24.344z" id="path12983" style="fill:#e64539;fill-opacity:1"/><path d="M717.82 867.19h12.992-.004a36.707 36.707 0 0 0 29.516-15.219l21.156-29.312H667.15l21.156 29.312a36.705 36.705 0 0 0 29.516 15.219z" id="path12985" style="fill:#e64539;fill-opacity:1"/><path d="M234.38 1048.7a10.331 10.331 0 0 1-3.129 7.816 10.315 10.315 0 0 1-7.906 2.895H159.38v89.062h147.66v-126.56h-72.656z" id="path12987" style="fill:#e64539;fill-opacity:1"/><path d="M851.95 684.38H348.04c-9.043 0-17.578 7.36-17.578 16.406v447.66h536.72v-447.66c0-9.047-6.191-16.406-15.234-16.406z" id="path12989" style="fill:#e64539;fill-opacity:1"/><path d="M210.94 864.84h-81.262a3.307 3.307 0 0 0-3.113 2.953v166.45c0 1.492 1.62 1.695 3.113 1.695h81.262z" id="path12991" style="fill:#e64539;fill-opacity:1"/><path d="M234.38 907.03h72.656v91.406H234.38Z" id="path12993" style="fill:#e64539;fill-opacity:1"/><path d="M469.19 867.19h12.992-.004a36.707 36.707 0 0 0 29.516-15.219l21.156-29.312H418.52l21.156 29.312a36.705 36.705 0 0 0 29.516 15.219z" id="path12995" style="fill:#e64539;fill-opacity:1"/><path d="M389.06 489.84h419.53c9.062 0 16.406 9.063 16.406 16.406v67.969c0 9.062-7.344 16.406-16.406 16.406H389.06c-9.063 0-16.406-9.063-16.406-16.406v-67.969c0-9.063 7.344-16.406 16.406-16.406z" id="path12997" style="fill:#e64539;fill-opacity:1"/><path d="M890.62 907.03h75v91.406h-75z" id="path12999" style="fill:#e64539;fill-opacity:1"/><path d="M890.62 883.59h75v-30.219a11.382 11.382 0 0 1 2.996-8.313 11.381 11.381 0 0 1 8.04-3.656h63.964v-251.47a95.21 95.21 0 0 0-27.582-67.363 413.928 413.928 0 0 1-120.07-292.65V67.97a16.404 16.404 0 0 0-4.812-11.594 16.402 16.402 0 0 0-11.594-4.812h-100.26a16.874 16.874 0 0 0-16.926 16.406v103.2c0 56.94-30.375 109.55-79.688 138.02-49.313 28.47-110.06 28.469-159.38 0-49.32-28.47-79.688-81.082-79.688-138.02V67.97a16.873 16.873 0 0 0-16.926-16.406h-100.26a16.403 16.403 0 0 0-11.595 4.812 16.402 16.402 0 0 0-4.812 11.594v161.95a413.98 413.98 0 0 1-120.07 292.65 95.21 95.21 0 0 0-27.582 67.363v251.47h63.965a11.381 11.381 0 0 1 8.04 3.656 11.382 11.382 0 0 1 2.995 8.313v30.219h72.656V700.78c0-21.969 19.047-39.844 41.016-39.844h503.91c21.97 0 38.672 17.875 38.672 39.844zm-651.56-76.031c0 6.473-5.246 11.719-11.719 11.719-6.473 0-11.719-5.246-11.719-11.719v-117.14c0-6.473 5.246-11.719 11.719-11.719 6.473 0 11.719 5.246 11.719 11.719zm0-171.65c0 6.473-5.246 11.719-11.719 11.719-6.473 0-11.719-5.246-11.719-11.719v-16.188c0-6.473 5.246-11.719 11.719-11.719 6.473 0 11.719 5.246 11.719 11.719zm609.38-61.691c0 10.566-4.2 20.703-11.672 28.172a39.834 39.834 0 0 1-28.172 11.672h-419.53a39.835 39.835 0 0 1-28.172-11.672 39.834 39.834 0 0 1-11.672-28.172v-67.969c0-10.566 4.2-20.703 11.672-28.172a39.834 39.834 0 0 1 28.172-11.672h419.53c10.566 0 20.703 4.2 28.172 11.672a39.834 39.834 0 0 1 11.672 28.172z" id="path13001" style="fill:#e64539;fill-opacity:1"/><path d="M1070.3 864.84h-81.262v171.09h81.262c1.492 0 3.113-.203 3.113-1.695v-166.45a3.307 3.307 0 0 0-3.113-2.953z" id="path13003" style="fill:#e64539;fill-opacity:1"/><path d="M965.62 1048.7v-26.789h-75v126.56h150v-89.062h-63.965a10.331 10.331 0 0 1-11.035-10.71z" id="path13005" style="fill:#e64539;fill-opacity:1"/></g></svg>