<svg width="512" height="512" version="1.1" id="svg8" xml:space="preserve" xmlns="http://www.w3.org/2000/svg"><defs id="defs12"><filter style="color-interpolation-filters:sRGB" id="filter875" x="-.313" y="-.169" width="1.609" height="1.328"><feFlood flood-opacity="1" flood-color="#3A3F5E" result="flood" id="feFlood865"/><feComposite in="flood" in2="SourceGraphic" operator="out" result="composite1" id="feComposite867"/><feGaussianBlur in="composite1" stdDeviation="15" result="blur" id="feGaussianBlur869"/><feOffset dx="0" dy="0" result="offset" id="feOffset871"/><feComposite in="offset" in2="SourceGraphic" operator="atop" result="composite2" id="feComposite873"/></filter><filter style="color-interpolation-filters:sRGB" id="filter1015" x="-.082" y="-.044" width="1.164" height="1.088"><feFlood flood-opacity="1" flood-color="#3A3F5E" result="flood" id="feFlood1005"/><feComposite in="flood" in2="SourceGraphic" operator="out" result="composite1" id="feComposite1007"/><feGaussianBlur in="composite1" stdDeviation="8.302" result="blur" id="feGaussianBlur1009"/><feOffset dx="0" dy="0" result="offset" id="feOffset1011"/><feComposite in="offset" in2="SourceGraphic" operator="atop" result="composite2" id="feComposite1013"/></filter><filter style="color-interpolation-filters:sRGB" id="filter35638" x="-.057" y="-.131" width="1.114" height="1.261"><feFlood flood-opacity="1" flood-color="#3A3F5E" result="flood" id="feFlood35628"/><feComposite in="flood" in2="SourceGraphic" operator="out" result="composite1" id="feComposite35630"/><feGaussianBlur in="composite1" stdDeviation="6" result="blur" id="feGaussianBlur35632"/><feOffset dx="0" dy="0" result="offset" id="feOffset35634"/><feComposite in="offset" in2="SourceGraphic" operator="atop" result="composite2" id="feComposite35636"/></filter><filter style="color-interpolation-filters:sRGB" id="filter35813" x="-.053" y="-.07" width="1.107" height="1.139"><feFlood flood-opacity="1" flood-color="#3A3F5E" result="flood" id="feFlood35803"/><feComposite in="flood" in2="SourceGraphic" operator="out" result="composite1" id="feComposite35805"/><feGaussianBlur in="composite1" stdDeviation="8" result="blur" id="feGaussianBlur35807"/><feOffset dx="0" dy="0" result="offset" id="feOffset35809"/><feComposite in="offset" in2="SourceGraphic" operator="atop" result="composite2" id="feComposite35811"/></filter><filter style="color-interpolation-filters:sRGB" id="filter36051" x="-.028" y="-.039" width="1.056" height="1.078"><feFlood flood-opacity="1" flood-color="#3A3F5E" result="flood" id="feFlood36041"/><feComposite in="flood" in2="SourceGraphic" operator="out" result="composite1" id="feComposite36043"/><feGaussianBlur in="composite1" stdDeviation="6" result="blur" id="feGaussianBlur36045"/><feOffset dx="0" dy="0" result="offset" id="feOffset36047"/><feComposite in="offset" in2="SourceGraphic" operator="atop" result="composite2" id="feComposite36049"/></filter><filter style="color-interpolation-filters:sRGB" id="filter36337" x="-.031" y="-.031" width="1.062" height="1.062"><feFlood flood-opacity="1" flood-color="#3A3F5E" result="flood" id="feFlood36327"/><feComposite in="flood" in2="SourceGraphic" operator="out" result="composite1" id="feComposite36329"/><feGaussianBlur in="composite1" stdDeviation="6" result="blur" id="feGaussianBlur36331"/><feOffset dx="0" dy="0" result="offset" id="feOffset36333"/><feComposite in="offset" in2="SourceGraphic" operator="atop" result="composite2" id="feComposite36335"/></filter><filter style="color-interpolation-filters:sRGB" id="filter1651" x="-.065" y="-.053" width="1.131" height="1.106"><feFlood flood-opacity="1" flood-color="#3A3F5E" result="flood" id="feFlood1641"/><feComposite in="flood" in2="SourceGraphic" operator="out" result="composite1" id="feComposite1643"/><feGaussianBlur in="composite1" stdDeviation="23.919" result="blur" id="feGaussianBlur1645"/><feOffset dx="0" dy="0" result="offset" id="feOffset1647"/><feComposite in="offset" in2="SourceGraphic" operator="atop" result="composite2" id="feComposite1649"/></filter><filter style="color-interpolation-filters:sRGB" id="filter2460" x="-.055" y="-.048" width="1.11" height="1.096"><feFlood flood-opacity="1" flood-color="#3A3F5E" result="flood" id="feFlood2450"/><feComposite in="flood" in2="SourceGraphic" operator="out" result="composite1" id="feComposite2452"/><feGaussianBlur in="composite1" stdDeviation="23.919" result="blur" id="feGaussianBlur2454"/><feOffset dx="0" dy="0" result="offset" id="feOffset2456"/><feComposite in="offset" in2="SourceGraphic" operator="atop" result="composite2" id="feComposite2458"/></filter><filter style="color-interpolation-filters:sRGB" id="filter3393" x="-.044" y="-.048" width="1.087" height="1.096"><feFlood flood-opacity="1" flood-color="#3A3F5E" result="flood" id="feFlood3383"/><feComposite in="flood" in2="SourceGraphic" operator="out" result="composite1" id="feComposite3385"/><feGaussianBlur in="composite1" stdDeviation="20.325" result="blur" id="feGaussianBlur3387"/><feOffset dx="0" dy="0" result="offset" id="feOffset3389"/><feComposite in="offset" in2="SourceGraphic" operator="atop" result="composite2" id="feComposite3391"/></filter><filter style="color-interpolation-filters:sRGB" id="filter4405" x="-.046" y="-.046" width="1.093" height="1.093"><feFlood flood-opacity="1" flood-color="#3A3F5E" result="flood" id="feFlood4395"/><feComposite in="flood" in2="SourceGraphic" operator="out" result="composite1" id="feComposite4397"/><feGaussianBlur in="composite1" stdDeviation="20.325" result="blur" id="feGaussianBlur4399"/><feOffset dx="0" dy="0" result="offset" id="feOffset4401"/><feComposite in="offset" in2="SourceGraphic" operator="atop" result="composite2" id="feComposite4403"/></filter><filter style="color-interpolation-filters:sRGB" id="filter6546" x="-.045" y="-.041" width="1.09" height="1.083"><feFlood flood-opacity="1" flood-color="#3A3F5E" result="flood" id="feFlood6536"/><feComposite in="flood" in2="SourceGraphic" operator="out" result="composite1" id="feComposite6538"/><feGaussianBlur in="composite1" stdDeviation="18.8" result="blur" id="feGaussianBlur6540"/><feOffset dx="0" dy="0" result="offset" id="feOffset6542"/><feComposite in="offset" in2="SourceGraphic" operator="atop" result="composite2" id="feComposite6544"/></filter><filter style="color-interpolation-filters:sRGB" id="filter7837" x="-.047" y="-.052" width="1.094" height="1.105"><feFlood flood-opacity="1" flood-color="#3A3F5E" result="flood" id="feFlood7827"/><feComposite in="flood" in2="SourceGraphic" operator="out" result="composite1" id="feComposite7829"/><feGaussianBlur in="composite1" stdDeviation="18.8" result="blur" id="feGaussianBlur7831"/><feOffset dx="0" dy="0" result="offset" id="feOffset7833"/><feComposite in="offset" in2="SourceGraphic" operator="atop" result="composite2" id="feComposite7835"/></filter><filter style="color-interpolation-filters:sRGB" id="filter9439" x="-.089" y="-.081" width="1.177" height="1.162"><feFlood flood-opacity="1" flood-color="#3A3F5E" result="flood" id="feFlood9429"/><feComposite in="flood" in2="SourceGraphic" operator="out" result="composite1" id="feComposite9431"/><feGaussianBlur in="composite1" stdDeviation="14.9" result="blur" id="feGaussianBlur9433"/><feOffset dx="0" dy="0" result="offset" id="feOffset9435"/><feComposite in="offset" in2="SourceGraphic" operator="atop" result="composite2" id="feComposite9437"/></filter><filter style="color-interpolation-filters:sRGB" id="filter10197" x="-.042" y="-.042" width="1.085" height="1.085"><feFlood flood-opacity="1" flood-color="#3A3F5E" result="flood" id="feFlood10187"/><feComposite in="flood" in2="SourceGraphic" operator="out" result="composite1" id="feComposite10189"/><feGaussianBlur in="composite1" stdDeviation="19.2" result="blur" id="feGaussianBlur10191"/><feOffset dx="0" dy="0" result="offset" id="feOffset10193"/><feComposite in="offset" in2="SourceGraphic" operator="atop" result="composite2" id="feComposite10195"/></filter><filter style="color-interpolation-filters:sRGB" id="filter11402" x="-.059" y="-.044" width="1.117" height="1.088"><feFlood flood-opacity="1" flood-color="#3A3F5E" result="flood" id="feFlood11392"/><feComposite in="flood" in2="SourceGraphic" operator="out" result="composite1" id="feComposite11394"/><feGaussianBlur in="composite1" stdDeviation="19.2" result="blur" id="feGaussianBlur11396"/><feOffset dx="0" dy="0" result="offset" id="feOffset11398"/><feComposite in="offset" in2="SourceGraphic" operator="atop" result="composite2" id="feComposite11400"/></filter></defs><path d="M0 0h512v512H0z" fill="#b90202" fill-opacity="1" id="path2" style="fill:#1b1f21;fill-opacity:1"/><style type="text/css" id="style35976">.st0{fill:#000}</style><g id="g10817" transform="translate(6.802 6.802) scale(.41533)" style="fill:#e64539;fill-opacity:1;filter:url(#filter11402)"><path d="m356.25 539.3 225-48.203v-149.16l-225 48.223z" id="path10791" style="fill:#e64539;fill-opacity:1"/><path d="M618.75 1125h225V952.67l-225-48.223z" id="path10793" style="fill:#e64539;fill-opacity:1"/><path d="m618.75 866.08 225 48.223v-149.14l-225-48.223z" id="path10795" style="fill:#e64539;fill-opacity:1"/><path d="m356.25 726.8 225-48.223v-149.14l-225 48.223z" id="path10797" style="fill:#e64539;fill-opacity:1"/><path d="M206.25 975h75v37.5h-75v37.5h75v37.5h-75v37.5h112.5V762.99l-112.5-42.188zm37.5-150h37.5v37.5h-37.5zm0 75h37.5v37.5h-37.5z" id="path10799" style="fill:#e64539;fill-opacity:1"/><path d="M206.25 75h225v37.5h-225z" id="path10801" style="fill:#e64539;fill-opacity:1"/><path d="m618.75 491.08 225 48.223v-149.14l-225-48.223z" id="path10803" style="fill:#e64539;fill-opacity:1"/><path d="m356.25 914.3 225-48.223v-149.14l-225 48.223z" id="path10805" style="fill:#e64539;fill-opacity:1"/><path d="M356.25 1125h225V904.45l-225 48.223z" id="path10807" style="fill:#e64539;fill-opacity:1"/><path d="m618.75 678.58 225 48.223v-149.14l-225-48.223z" id="path10809" style="fill:#e64539;fill-opacity:1"/><path d="M881.25 1125h112.5v-37.5h-75V1050h75v-37.5h-75V975h75V720.8l-112.5 42.188zm37.5-300h37.5v37.5h-37.5zm0 75h37.5v37.5h-37.5z" id="path10811" style="fill:#e64539;fill-opacity:1"/><path d="M768.75 75h225v37.5h-225z" id="path10813" style="fill:#e64539;fill-opacity:1"/><path d="M768.75 206.25c0 4.184-1.402 8.246-3.977 11.539a18.745 18.745 0 0 1-10.234 6.648l-150 37.5c-2.976.77-6.101.77-9.078 0l-150-37.5a18.742 18.742 0 0 1-10.234-6.648 18.74 18.74 0 0 1-3.976-11.539V150h-225v41.25c49.312 20.477 75 121.41 75 221.25s-25.688 200.77-75 221.25v47.008l112.5 42.188v-347.95c0-4.29 1.469-8.45 4.164-11.789a18.735 18.735 0 0 1 10.648-6.547l262.5-56.25c2.617-.3 5.258-.3 7.875 0l262.5 56.25a18.732 18.732 0 0 1 10.648 6.547 18.77 18.77 0 0 1 4.164 11.789v347.95l112.5-42.188V633.75c-49.312-20.477-75-121.41-75-221.25s25.688-200.77 75-221.25V150h-225zm-412.5-18.75h37.5V225h-37.5zm-75 0h37.5V225h-37.5zm40.574 130.99-6.148-36.977 112.5-18.75 6.148 36.977zm559.43-130.99h37.5V225h-37.5zm-75 0h37.5V225h-37.5zm78.074 94.012-6.148 36.977-112.5-18.75 6.148-36.977z" id="path10815" style="fill:#e64539;fill-opacity:1"/></g></svg>