<svg width="512" height="512" version="1.1" id="svg8" xml:space="preserve" xmlns="http://www.w3.org/2000/svg"><defs id="defs12"><filter style="color-interpolation-filters:sRGB" id="filter875" x="-.313" y="-.169" width="1.609" height="1.328"><feFlood flood-opacity="1" flood-color="#3A3F5E" result="flood" id="feFlood865"/><feComposite in="flood" in2="SourceGraphic" operator="out" result="composite1" id="feComposite867"/><feGaussianBlur in="composite1" stdDeviation="15" result="blur" id="feGaussianBlur869"/><feOffset dx="0" dy="0" result="offset" id="feOffset871"/><feComposite in="offset" in2="SourceGraphic" operator="atop" result="composite2" id="feComposite873"/></filter><filter style="color-interpolation-filters:sRGB" id="filter1015" x="-.082" y="-.044" width="1.164" height="1.088"><feFlood flood-opacity="1" flood-color="#3A3F5E" result="flood" id="feFlood1005"/><feComposite in="flood" in2="SourceGraphic" operator="out" result="composite1" id="feComposite1007"/><feGaussianBlur in="composite1" stdDeviation="8.302" result="blur" id="feGaussianBlur1009"/><feOffset dx="0" dy="0" result="offset" id="feOffset1011"/><feComposite in="offset" in2="SourceGraphic" operator="atop" result="composite2" id="feComposite1013"/></filter><filter style="color-interpolation-filters:sRGB" id="filter35638" x="-.057" y="-.131" width="1.114" height="1.261"><feFlood flood-opacity="1" flood-color="#3A3F5E" result="flood" id="feFlood35628"/><feComposite in="flood" in2="SourceGraphic" operator="out" result="composite1" id="feComposite35630"/><feGaussianBlur in="composite1" stdDeviation="6" result="blur" id="feGaussianBlur35632"/><feOffset dx="0" dy="0" result="offset" id="feOffset35634"/><feComposite in="offset" in2="SourceGraphic" operator="atop" result="composite2" id="feComposite35636"/></filter><filter style="color-interpolation-filters:sRGB" id="filter35813" x="-.053" y="-.07" width="1.107" height="1.139"><feFlood flood-opacity="1" flood-color="#3A3F5E" result="flood" id="feFlood35803"/><feComposite in="flood" in2="SourceGraphic" operator="out" result="composite1" id="feComposite35805"/><feGaussianBlur in="composite1" stdDeviation="8" result="blur" id="feGaussianBlur35807"/><feOffset dx="0" dy="0" result="offset" id="feOffset35809"/><feComposite in="offset" in2="SourceGraphic" operator="atop" result="composite2" id="feComposite35811"/></filter><filter style="color-interpolation-filters:sRGB" id="filter36051" x="-.028" y="-.039" width="1.056" height="1.078"><feFlood flood-opacity="1" flood-color="#3A3F5E" result="flood" id="feFlood36041"/><feComposite in="flood" in2="SourceGraphic" operator="out" result="composite1" id="feComposite36043"/><feGaussianBlur in="composite1" stdDeviation="6" result="blur" id="feGaussianBlur36045"/><feOffset dx="0" dy="0" result="offset" id="feOffset36047"/><feComposite in="offset" in2="SourceGraphic" operator="atop" result="composite2" id="feComposite36049"/></filter><filter style="color-interpolation-filters:sRGB" id="filter36337" x="-.031" y="-.031" width="1.062" height="1.062"><feFlood flood-opacity="1" flood-color="#3A3F5E" result="flood" id="feFlood36327"/><feComposite in="flood" in2="SourceGraphic" operator="out" result="composite1" id="feComposite36329"/><feGaussianBlur in="composite1" stdDeviation="6" result="blur" id="feGaussianBlur36331"/><feOffset dx="0" dy="0" result="offset" id="feOffset36333"/><feComposite in="offset" in2="SourceGraphic" operator="atop" result="composite2" id="feComposite36335"/></filter><filter style="color-interpolation-filters:sRGB" id="filter1651" x="-.065" y="-.053" width="1.131" height="1.106"><feFlood flood-opacity="1" flood-color="#3A3F5E" result="flood" id="feFlood1641"/><feComposite in="flood" in2="SourceGraphic" operator="out" result="composite1" id="feComposite1643"/><feGaussianBlur in="composite1" stdDeviation="23.919" result="blur" id="feGaussianBlur1645"/><feOffset dx="0" dy="0" result="offset" id="feOffset1647"/><feComposite in="offset" in2="SourceGraphic" operator="atop" result="composite2" id="feComposite1649"/></filter><filter style="color-interpolation-filters:sRGB" id="filter2460" x="-.055" y="-.048" width="1.11" height="1.096"><feFlood flood-opacity="1" flood-color="#3A3F5E" result="flood" id="feFlood2450"/><feComposite in="flood" in2="SourceGraphic" operator="out" result="composite1" id="feComposite2452"/><feGaussianBlur in="composite1" stdDeviation="23.919" result="blur" id="feGaussianBlur2454"/><feOffset dx="0" dy="0" result="offset" id="feOffset2456"/><feComposite in="offset" in2="SourceGraphic" operator="atop" result="composite2" id="feComposite2458"/></filter><filter style="color-interpolation-filters:sRGB" id="filter3393" x="-.044" y="-.048" width="1.087" height="1.096"><feFlood flood-opacity="1" flood-color="#3A3F5E" result="flood" id="feFlood3383"/><feComposite in="flood" in2="SourceGraphic" operator="out" result="composite1" id="feComposite3385"/><feGaussianBlur in="composite1" stdDeviation="20.325" result="blur" id="feGaussianBlur3387"/><feOffset dx="0" dy="0" result="offset" id="feOffset3389"/><feComposite in="offset" in2="SourceGraphic" operator="atop" result="composite2" id="feComposite3391"/></filter><filter style="color-interpolation-filters:sRGB" id="filter4405" x="-.046" y="-.046" width="1.093" height="1.093"><feFlood flood-opacity="1" flood-color="#3A3F5E" result="flood" id="feFlood4395"/><feComposite in="flood" in2="SourceGraphic" operator="out" result="composite1" id="feComposite4397"/><feGaussianBlur in="composite1" stdDeviation="20.325" result="blur" id="feGaussianBlur4399"/><feOffset dx="0" dy="0" result="offset" id="feOffset4401"/><feComposite in="offset" in2="SourceGraphic" operator="atop" result="composite2" id="feComposite4403"/></filter><filter style="color-interpolation-filters:sRGB" id="filter6546" x="-.045" y="-.041" width="1.09" height="1.083"><feFlood flood-opacity="1" flood-color="#3A3F5E" result="flood" id="feFlood6536"/><feComposite in="flood" in2="SourceGraphic" operator="out" result="composite1" id="feComposite6538"/><feGaussianBlur in="composite1" stdDeviation="18.8" result="blur" id="feGaussianBlur6540"/><feOffset dx="0" dy="0" result="offset" id="feOffset6542"/><feComposite in="offset" in2="SourceGraphic" operator="atop" result="composite2" id="feComposite6544"/></filter><filter style="color-interpolation-filters:sRGB" id="filter7837" x="-.047" y="-.052" width="1.094" height="1.105"><feFlood flood-opacity="1" flood-color="#3A3F5E" result="flood" id="feFlood7827"/><feComposite in="flood" in2="SourceGraphic" operator="out" result="composite1" id="feComposite7829"/><feGaussianBlur in="composite1" stdDeviation="18.8" result="blur" id="feGaussianBlur7831"/><feOffset dx="0" dy="0" result="offset" id="feOffset7833"/><feComposite in="offset" in2="SourceGraphic" operator="atop" result="composite2" id="feComposite7835"/></filter><filter style="color-interpolation-filters:sRGB" id="filter9439" x="-.089" y="-.081" width="1.177" height="1.162"><feFlood flood-opacity="1" flood-color="#3A3F5E" result="flood" id="feFlood9429"/><feComposite in="flood" in2="SourceGraphic" operator="out" result="composite1" id="feComposite9431"/><feGaussianBlur in="composite1" stdDeviation="14.9" result="blur" id="feGaussianBlur9433"/><feOffset dx="0" dy="0" result="offset" id="feOffset9435"/><feComposite in="offset" in2="SourceGraphic" operator="atop" result="composite2" id="feComposite9437"/></filter><filter style="color-interpolation-filters:sRGB" id="filter10197" x="-.042" y="-.042" width="1.085" height="1.085"><feFlood flood-opacity="1" flood-color="#3A3F5E" result="flood" id="feFlood10187"/><feComposite in="flood" in2="SourceGraphic" operator="out" result="composite1" id="feComposite10189"/><feGaussianBlur in="composite1" stdDeviation="19.2" result="blur" id="feGaussianBlur10191"/><feOffset dx="0" dy="0" result="offset" id="feOffset10193"/><feComposite in="offset" in2="SourceGraphic" operator="atop" result="composite2" id="feComposite10195"/></filter><filter style="color-interpolation-filters:sRGB" id="filter11402" x="-.059" y="-.044" width="1.117" height="1.088"><feFlood flood-opacity="1" flood-color="#3A3F5E" result="flood" id="feFlood11392"/><feComposite in="flood" in2="SourceGraphic" operator="out" result="composite1" id="feComposite11394"/><feGaussianBlur in="composite1" stdDeviation="19.2" result="blur" id="feGaussianBlur11396"/><feOffset dx="0" dy="0" result="offset" id="feOffset11398"/><feComposite in="offset" in2="SourceGraphic" operator="atop" result="composite2" id="feComposite11400"/></filter><filter style="color-interpolation-filters:sRGB" id="filter12788" x="-.043" y="-.046" width="1.087" height="1.092"><feFlood flood-opacity="1" flood-color="#3A3F5E" result="flood" id="feFlood12778"/><feComposite in="flood" in2="SourceGraphic" operator="out" result="composite1" id="feComposite12780"/><feGaussianBlur in="composite1" stdDeviation="19.2" result="blur" id="feGaussianBlur12782"/><feOffset dx="0" dy="0" result="offset" id="feOffset12784"/><feComposite in="offset" in2="SourceGraphic" operator="atop" result="composite2" id="feComposite12786"/></filter></defs><path d="M0 0h512v512H0z" fill="#b90202" fill-opacity="1" id="path2" style="fill:#1b1f21;fill-opacity:1"/><style type="text/css" id="style35976">.st0{fill:#000}</style><g id="g12233" transform="matrix(-.41828 0 0 .41828 506.96 5.045)" style="fill:#e64539;fill-opacity:1;filter:url(#filter12788)"><path d="M128.45 410.4c-5.45 18.402-15.5 61.5-14.449 120.3 117.3-34.852 275.5.898 313 10.449l97.051-58.398-53.652-119.6z" id="path12219" style="fill:#e64539;fill-opacity:1"/><path d="M194.05 793.5a18.612 18.612 0 0 1 12.75 9.75l28.75 56.148 77.602-4.352a27 27 0 0 0 16.75-7.101l212.85-194.45c2.898-2.602 6.5-4.301 10.398-4.75l196.5-23.801c-15.648-28.602-25.148-61.602-25.551-97.25l-171.9-18.2-112.7 67.75c-4.398 2.65-9.7 3.302-14.648 2-1.5-.398-96.898-26.147-195-26.147-54.75 0-110.3 8-150.8 33-4.45 2.75-7.45 7.949-8.2 14.352-3.648 31.199-8.85 110.05 13.2 197.15 23.844-6.2 65.695-13.7 110-4.098z" id="path12221" style="fill:#e64539;fill-opacity:1"/><path d="M900.2 682.15c76.551 0 138.85-70.301 138.85-156.8 0-86.499-62.301-156.8-138.85-156.8-76.549 0-138.8 70.301-138.8 156.8 0 86.504 62.25 156.8 138.8 156.8z" id="path12223" style="fill:#e64539;fill-opacity:1"/><path d="m498.85 335 61.801 137.75 166.45 17.602c6-35.949 21.148-68.102 42.449-94.25C728.851 384 662.35 353.5 631.9 277.002c-3.648-9.2.398-19.602 9.3-23.852l77.353-37-38.45-92.648c-.05-.102 0-.148-.05-.25-.05-.102-.102-.102-.148-.2l-6.602-17.198c-378.6-44.352-524 185.6-563.95 269.35l369.8-51.051c8.148-1.649 16.246 3.203 19.699 10.852z" id="path12225" style="fill:#e64539;fill-opacity:1"/><path d="m727.4 139.75 32.551 78.449c3.852 9.2-.2 19.801-9.2 24.051l-76.647 36.648c34.602 64.102 104.75 82.148 126.5 86.352 28.398-21.5 62.648-34.199 99.602-34.199 97.25 0 176.35 87.148 176.35 194.3 0 95.102-62.398 174.1-144.45 190.75v36.398c0 8.25-5.399 15.551-13.25 17.898-94.5 28.898-145 154.7-145.5 155.95-2.75 6.95-9.399 11.602-16.852 11.852l-195.6 6.2-68.5 57.601 576.05-75.102c33.852-73.148 50.8-171.3 59.102-242.1 6.601-55.949 6.449-105.05-.551-149.9-47.203-304.4-308.25-378.4-399.61-395.15z" id="path12227" style="fill:#e64539;fill-opacity:1"/><path d="M81.898 1051.2c2.7 16.102 6.25 32.352 10.852 48.5l67.852-9.852-35.051-41.648z" id="path12229" style="fill:#e64539;fill-opacity:1"/><path d="m553.2 907.15 190.25-6c15.25-33.25 65.148-128.05 151.15-161.9v-20.199c-47.551-1.7-90.301-23.852-121.15-59.199L563.6 685.301l-208.35 190.4c-10.898 10-25.148 16-40 16.801l-89.746 5.05c-.352.052-.7.052-1.05.052-7 0-13.5-3.899-16.7-10.2l-30.148-58.851c-38.199-6-74.352 2.449-90.75 7.3-2.25 11.051-5.851 30.852-8.601 56.75h81.949c5.898 0 11.449 2.801 15 7.45l55 73.3h105.5c10.352 0 18.75 8.399 18.75 18.75 0 10.353-8.399 18.75-18.75 18.75h-114.9c-5.899 0-11.45-2.8-15-7.449l-55-73.3H75.402c-1.2 25.397-1 53.897 1.75 83.851l55.352-3.8c5.699-.801 11.8 2.05 15.648 6.648l56.102 66.801 160.75-23.301 53.55-45.051c.45-.45.95-.852 1.45-1.25l121.75-102.45c3.199-2.7 7.25-4.25 11.449-4.402z" id="path12231" style="fill:#e64539;fill-opacity:1"/></g></svg>