<svg width="512" height="512" xmlns="http://www.w3.org/2000/svg"><defs><filter style="color-interpolation-filters:sRGB" id="a" x="-.157" y="-.212" width="1.313" height="1.423"><feFlood flood-opacity="1" flood-color="#3A3F5E" result="flood"/><feComposite in="flood" in2="SourceGraphic" operator="out" result="composite1"/><feGaussianBlur in="composite1" stdDeviation="15" result="blur"/><feOffset result="offset"/><feComposite in="offset" in2="SourceGraphic" operator="atop" result="composite2"/></filter></defs><path d="M.005.005h512v512h-512Z" fill="#1b1f21"/><g style="fill:#e64539;fill-opacity:1;filter:url(#a)"><path style="fill:#e64539;fill-opacity:1;stroke-width:1.2041" d="M455.485 94.563h-42.1v21.432h42.1zm-48.741-5.134-250.68.11 67.322 59 183.357-.11zm-46.856 13.067a6.022 6.022 0 0 1-3.368 11.014l-123.309.11a6.021 6.021 0 1 1-.012-12.041l123.322-.11c1.247 0 2.406.378 3.367 1.027zm47.45 52.773-187.783.548-89.404-78.268c-25.88 28.851-19.662 61.213-26.949 104.757l304.135-.546zm-47.452-28.69a6.022 6.022 0 0 1-3.365 11.014l-123.31.109a6.02 6.02 0 1 1-.012-12.042l123.322-.11a5.99 5.99 0 0 1 3.365 1.029zm-14.844 64.918h-19.267v22.685c-.104 8.062-6.627 14.564-14.69 14.642H267.98v19.265h43.108c18.696-.092 33.836-15.21 33.955-33.907zm-61.41 0h-13.244s5.117 16.485 17.001 24.986c-7.296-14.377-3.757-24.986-3.757-24.986zm-34.918 0h-84.106c8.127 10.837 12.054 27.272 1.662 48.56-9.632 19.736-16.498 98.34-16.498 98.34h98.942z" transform="matrix(1.27172 .00567 -.00567 1.27172 -89.562 -1.74)"/></g></svg>