<svg xmlns="http://www.w3.org/2000/svg" width="240" height="240"><path style="fill:#1b1f21;stroke:none" d="M0 0v240h240V0H0z"/><path style="fill:#e64539;stroke:none" d="M84 36v4h8v4h16v-4h-8v-4H84z"/><path style="fill:#3a3f5e;stroke:none" d="M84 40v8h24v-4H92v-4h-8z"/><path style="fill:#e64539;stroke:none" d="M108 48v4H80v4h-4v4h-4v8h4v8H60v4h136V60h-4v-4h-4v-4h-32v-4h-48z"/><path style="fill:#1b1f21;stroke:none" d="M80 56v4h20v-4H80m32 0v4h-4v4h-4v4h-4v8h88v-4h4V60h-4v-4h-76z"/><path style="fill:#3a3f5e;stroke:none" d="M80 60v4h20v-4H80z"/><path style="fill:#e64539;stroke:none" d="M56 64v4h8v-4h-8z"/><path style="fill:#3a3f5e;stroke:none" d="M56 68v4h8v-4h-8m12 0v4h-4v4h12v-8h-8z"/><path style="fill:#e64539;stroke:none" d="M200 68v16h12V72h-4v-4h-8m16 0v16h4V68h-4m12 0v16h4V68h-4M8 80v8h16v4H8v4h32V80H8m36 0v20h8V80h-8z"/><path style="fill:#3a3f5e;stroke:none" d="M104 80v4h20v8h4v-8h60v8h8V80h-92z"/><path style="fill:#1b1f21;stroke:none" d="M24 84v4h4v-4h-4z"/><path style="fill:#e64539;stroke:none" d="M56 84v8h48v-8H56z"/><path style="fill:#1b1f21;stroke:none" d="M104 84v8h4v-8h-4z"/><path style="fill:#e64539;stroke:none" d="M108 84v8h12v-8h-12z"/><path style="fill:#1b1f21;stroke:none" d="M128 84v8h60v-8h-60z"/><path style="fill:#3a3f5e;stroke:none" d="M200 84v24h8v-4h4V84h-12m16 0v24h4V92h8v16h4V84h-16m-112 8v4h16v-4h-16z"/><path style="fill:#e64539;stroke:none" d="M124 92v4h24v8h4v-8h4v8h4v-8h24v8h4v-8h8v-4h-72z"/><path style="fill:#3a3f5e;stroke:none" d="M24 96v4H8v4h32v-8H24z"/><path style="fill:#e64539;stroke:none" d="M56 96v20h8v4h4v4h52v-20H68v-4h-4v-4h-8z"/><path style="fill:#3a3f5e;stroke:none" d="M64 96v4h4v4h48v-4H72v-4h-8z"/><path style="fill:#e64539;stroke:none" d="M72 96v4h44v-4H72z"/><path style="fill:#3a3f5e;stroke:none" d="M124 96v8h24v-8h-24m28 0v8h4v-8h-4m8 0v8h24v-8h-24m28 0v8h8v-8h-8m-144 4v4h8v-4h-8m-36 8v4h32v-4H8m68 0v8h8v-8h-8m48 0v12h12v-12h-4v8h-4v-8h-4z"/><path style="fill:#e64539;stroke:none" d="M136 108v12h-12v4h16v-16h-4z"/><path style="fill:#3a3f5e;stroke:none" d="M144 108v16h-4v4h-4v4h8v-4h4v-12h32v-4h4v-4h-40z"/><path style="fill:#1b1f21;stroke:none" d="M112 112v4h4v-4h-4z"/><path style="fill:#3a3f5e;stroke:none" d="M8 116v8h4v-4h4v-4H8z"/><path style="fill:#1b1f21;stroke:none" d="M96 116v4h4v-4h-4z"/><path style="fill:#e64539;stroke:none" d="M148 116v12h-4v4h-8v12h20v-4h20v-24h-28z"/><path style="fill:#3a3f5e;stroke:none" d="M68 128v8h-4v8h-4v4h4v-4h4v-4h12v-4h-8v-8h-4z"/><path style="fill:#e64539;stroke:none" d="M72 128v8h8v4H68v4h-4v4h4v4h8v4h4v4h4v-8h12v-20h-4v-4H72z"/><path style="fill:#3a3f5e;stroke:none" d="M100 128v20h4v4h8v-4h-4v-4h-4v-12h4v-4h-8m12 0v4h4v-4h-4m12 0v4h4v16h-4v4h4v-4h4v-20h-8z"/><path style="fill:#e64539;stroke:none" d="M112 132v8h4v-8h-4m4 8v4h4v-4h-4z"/><path style="fill:#3a3f5e;stroke:none" d="M156 144v4h20v-4h-20z"/><path style="fill:#e64539;stroke:none" d="M100 148v4h4v-4h-4z"/><path style="fill:#3a3f5e;stroke:none" d="M136 148v4h20v-4h-20m-80 4v8h-4v8h-4v8h-4v4h4v4h8v4h8v-8h4v-8h4v-8h4v-8h-8v-4H56z"/><path style="fill:#1b1f21;stroke:none" d="M68 152v4h8v-4h-8z"/><path style="fill:#3a3f5e;stroke:none" d="M84 152v8h-4v8h-4v8h-4v12h-4v8h-4v4h8v4h4v-12h4v-12h4v-16h4v-4h4v-8h-8z"/><path style="fill:#1b1f21;stroke:none" d="M76 156v8h-4v8h-4v8h-4v8h-8v-4h-8v4h8v4h8v-4h4v-8h4v-8h4v-8h4v-8h-4z"/><path style="fill:#e64539;stroke:none" d="M88 160v4h-4v4h8v-8h-4m-12 4v4h4v-4h-4m-4 8v4h4v-4h-4m-4 8v8h4v-8h-4m-28 4v4h-4v4h8v4h8v4h8v4h8v4h8v-4h-4v-4h-8v-4h4v-8h-4v4h-8v-4h-8v-4h-8z"/><path style="fill:#fff;stroke:none" d="M196 184v12h-12v12h12v12h12v-12h12v-12h-12v-12h-12z"/></svg>