<svg xmlns="http://www.w3.org/2000/svg" width="240" height="240"><path style="fill:#1b1f21;stroke:none" d="M0 0v240h240V0H0z"/><path style="fill:#e64539;stroke:none" d="M60 8v68h-4v4H16v4h40v-4h16v4h52v-4H72v-4h-4V16h4V8h-4v8h-4V8h-4m56 0v8h4v4h4v8h4v60h8v-8h16v8h16v-8h-4v-4h-4V28h4V16h4V8h-36v4h-8V8h-8z"/><path style="fill:#3a3f5e;stroke:none" d="M124 8v4h8V8h-8z"/><path style="fill:#1b1f21;stroke:none" d="M132 16v12h4v4h16V16h-20m8 24v8h12v-8h-12z"/><path style="fill:#3a3f5e;stroke:none" d="M160 44v28h8v-8h4V52h-4v-4h-4v-4h-4m-20 12v4h-4v8h4v4h8v-4h4v-8h-4v-4h-8z"/><path style="fill:#e64539;stroke:none" d="M176 60v4h-4v12h20V60h-16z"/><path style="fill:#3a3f5e;stroke:none" d="M172 76v12h4v4h16V76h-20M56 80v4H16v4h40v4h4v-4h8v4h4v-4h52v-4H72v-4H56z"/><path style="fill:#1b1f21;stroke:none" d="M136 80v8h16v-8h-16z"/><path style="fill:#e64539;stroke:none" d="M60 88v88h4v-16h4v-48h-4V96h4v-8h-8z"/><path style="fill:#3a3f5e;stroke:none" d="M132 88v4h32v32H68v4h92v4h-4v4h4v-4h4v-4h28v4h-4v4h-8v4h12v-4h8v-4h8v-4h-12v-4h-28V88h-36z"/><path style="fill:#e64539;stroke:none" d="M100 92v12h12V92h-12m36 0v16h-4v8h-4v4h-4v4h40V92h-28z"/><path style="fill:#1b1f21;stroke:none" d="M140 96v8h12v-8h-12z"/><path style="fill:#3a3f5e;stroke:none" d="M116 100v12h12v-8h-4v-4h-8z"/><path style="fill:#e64539;stroke:none" d="M124 100v4h8v-4h-8z"/><path style="fill:#3a3f5e;stroke:none" d="M100 104v16h12v-16h-12z"/><path style="fill:#1b1f21;stroke:none" d="M140 112v8h12v-8h-12z"/><path style="fill:#e64539;stroke:none" d="M180 112v4h8v4h4v4h4v4h20v-4h-8v-4h-8v-4h-8v-4h-12z"/><path style="fill:#3a3f5e;stroke:none" d="M8 124v4h52v-4H8z"/><path style="fill:#e64539;stroke:none" d="M152 128v40h4v-36h4v-4h-8m-48 4v8h44v-8h-44z"/><path style="fill:#3a3f5e;stroke:none" d="M108 140v4h8v4h4v4h20v24h-4v24h-4v8h-20v4h32v-44h4v-28h-40z"/><path style="fill:#e64539;stroke:none" d="M120 152v24h-4v24h-4v8h20v-8h4v-24h4v-24h-20m-52 8v48h4v-48h-4m80 8v48h-32v12h4v4h16v-4h20v4h24v-4h-20v-4h-4v-4h-4v-52h-4m-92 8v56h4v-56h-4m16 32v24h4v-24h-4z"/><path style="fill:#3a3f5e;stroke:none" d="M124 220v8h8v-8h-8z"/></svg>