<svg xmlns="http://www.w3.org/2000/svg" width="240" height="240"><path style="fill:#1b1f21;stroke:none" d="M0 0v240h240V0H0z"/><path style="fill:#e64539;stroke:none" d="M28 20v8h4v-8h-4m12 0v8h16v-8H40M8 28v20h8V28H8m56 0v20h12V28H64m-44 4v12h40V32H20m208 8v4h-32v4h-28v4h-12v8h76V40h-4M20 48v8h-8v4h60v-4H60v-8H20m120 4v8h4v-8h-4m8 0v8h4v-8h-4M12 64v12h32V64H12z"/><path style="fill:#3a3f5e;stroke:none" d="M48 68v4h184v-4H48z"/><path style="fill:#e64539;stroke:none" d="M8 80v28h12v40h4v4H8v8h20v4h4v4h4v4h4v4h4v4h4v4h20v-8H56v-4h-4v-4h-4v-4h-4v-4h8v-8h-4v-8h4v-8h4v-4h4v-4h16v-4h4v-8h4v-4H56v8h-4v8h-4v8h-4v8h-4v8h-4v-4h-4v-4h-4v-44h8v-4h100v-4H16v-4h120v-8H8m132 0v8h4v-8h-4m8 0v8h4v-8h-4m8 0v8h12v4h28v4h32v4h4V80h-76z"/><path style="fill:#3a3f5e;stroke:none" d="M36 96v4h140v4h4v8h4v8h8v8h-4v8h-4v8h-4v8h-4v8h-4v12h4v4h56v-8h-48v-4h4v-8h4v-8h4v-8h4v-8h4v-12h-4v-8h-4v-8h-4v-8H36m0 8v4h96v12h-4v8h-4v4h-8v4H92v-4h-4v4h4v4h24v-4h8v-4h4v-4h4v-8h4v-12h12v-4H36m48 8v4h-4v8h-4v4h-8v4h8v4h-4v8h-4v8h-4v8h-8v-4h-4v4h-4v4h4v4h4v4h12v-8h4v-12h4v-8h4v-8h4v-8h4v-16h-4m8 0v12h4v4h4v4h8v-4h-4v-8h-4v-8h-8z"/><path style="fill:#1b1f21;stroke:none" d="M68 116v8h8v-8h-8z"/><path style="fill:#e64539;stroke:none" d="M188 120v8h4v-8h-4z"/><path style="fill:#1b1f21;stroke:none" d="M60 128v4h-4v4h-4v8h-4v8h4v4h4v4h8v-8h4v-8h4v-8h4v-4h-8v-4h-8z"/><path style="fill:#e64539;stroke:none" d="M184 128v8h4v-8h-4m-4 8v8h4v-8h-4m-4 8v8h4v-8h-4z"/><path style="fill:#1b1f21;stroke:none" d="M40 152v8h4v-8h-4z"/><path style="fill:#e64539;stroke:none" d="M172 152v8h4v-8h-4z"/><path style="fill:#1b1f21;stroke:none" d="M44 160v4h4v-4h-4z"/><path style="fill:#e64539;stroke:none" d="M168 160v12h4v-12h-4z"/><path style="fill:#1b1f21;stroke:none" d="M48 164v4h4v-4h-4z"/><path style="fill:#e64539;stroke:none" d="M184 164v4h48v-4h-48z"/><path style="fill:#1b1f21;stroke:none" d="M52 168v4h4v-4h-4z"/><path style="fill:#e64539;stroke:none" d="M172 172v4h4v-4h-4z"/><path style="fill:#fff;stroke:none" d="M184 196v12h36v-12h-36z"/></svg>