<svg xmlns="http://www.w3.org/2000/svg" width="240" height="240"><path style="fill:#1b1f21;stroke:none" d="M0 0v240h240V0H0z"/><path style="fill:#e64539;stroke:none" d="M28 20v8h4v-8h-4m12 0v8h16v-8H40M8 28v8h8v-8H8m56 0v8h12v-8H64m-44 4v4h40v-4H20z"/><path style="fill:#3a3f5e;stroke:none" d="M8 36v12h8V36H8m12 0v8h40v-8H20m44 0v12h12V36H64z"/><path style="fill:#e64539;stroke:none" d="M228 40v4h-32v4h-28v4h-12v4h76V40h-4M20 48v4h36v4H12v4h60v-4H60v-8H20z"/><path style="fill:#3a3f5e;stroke:none" d="M20 52v4h36v-4H20z"/><path style="fill:#e64539;stroke:none" d="M140 52v8h4v-8h-4m8 0v4h4v-4h-4z"/><path style="fill:#3a3f5e;stroke:none" d="M148 56v4h4v-4h-4m8 0v4h76v-4h-76z"/><path style="fill:#e64539;stroke:none" d="M12 64v12h32V64H12z"/><path style="fill:#1b1f21;stroke:none" d="M16 68v4h4v-4h-4z"/><path style="fill:#3a3f5e;stroke:none" d="M20 68v4h4v-4h-4z"/><path style="fill:#1b1f21;stroke:none" d="M24 68v4h4v-4h-4z"/><path style="fill:#3a3f5e;stroke:none" d="M28 68v4h4v-4h-4z"/><path style="fill:#1b1f21;stroke:none" d="M32 68v4h4v-4h-4z"/><path style="fill:#3a3f5e;stroke:none" d="M36 68v4h4v-4h-4m12 0v4h184v-4H48z"/><path style="fill:#e64539;stroke:none" d="M8 80v16h4V84h124v-4H8m132 0v8h4v-8h-4z"/><path style="fill:#3a3f5e;stroke:none" d="M148 80v4h4v-4h-4m8 0v4h76v-4h-76M12 84v12H8v12h12v-8h24v-4H16v-8h120v-4H12z"/><path style="fill:#e64539;stroke:none" d="M148 84v4h4v-4h-4m8 0v4h12v4h28v4h32v4h4V84h-76M16 92v4h28v4h108v-8H16z"/><path style="fill:#3a3f5e;stroke:none" d="M152 92v8h28v4h4v8h4v8h4v8h-4v8h-4v8h-4v8h-4v8h-4v12h4v4h56v-8h-48v-4h4v-8h4v-8h4v-8h4v-8h4v-12h-4v-8h-4v-8h-4v-4h4v-4h-28v-4h-16z"/><path style="fill:#1b1f21;stroke:none" d="M168 92v4h28v-4h-28z"/><path style="fill:#e64539;stroke:none" d="M20 100v48h4v4H8v4h20v4h4v4h4v4h4v4h4v4h4v4h20v-4H56v-4h-4v-4h-4v-4h-4v-4h8v-8h-4v-8h4v-8h4v-4h4v-4h16v-4h4v-8h4v-4H56v8h-4v8h-4v8h-4v8h-4v8h-4v-4h-4v-4h-4v-44h-8m156 0v4h4v-4h-4z"/><path style="fill:#3a3f5e;stroke:none" d="M44 104v4h88v12h-4v8h-4v4h-8v4H92v-4h-4v4h4v4h24v-4h8v-4h4v-4h4v-8h4v-12h12v-4H44z"/><path style="fill:#e64539;stroke:none" d="M180 104v8h4v-8h-4z"/><path style="fill:#3a3f5e;stroke:none" d="M84 112v4h-4v8h-4v4h-8v4h8v4h-4v8h-4v8h-4v8h-8v-4h-4v4h-4v4h4v4h4v4h12v-8h4v-12h4v-8h4v-8h4v-8h4v-16h-4m8 0v12h4v4h4v4h8v-4h-4v-8h-4v-8h-8z"/><path style="fill:#e64539;stroke:none" d="M184 112v8h4v-8h-4z"/><path style="fill:#1b1f21;stroke:none" d="M68 116v8h8v-8h-8z"/><path style="fill:#e64539;stroke:none" d="M188 120v8h4v-8h-4z"/><path style="fill:#1b1f21;stroke:none" d="M60 128v4h-4v4h-4v8h-4v8h4v4h4v4h8v-8h4v-8h4v-8h4v-4h-8v-4h-8z"/><path style="fill:#e64539;stroke:none" d="M184 128v8h4v-8h-4m-4 8v8h4v-8h-4m-4 8v8h4v-8h-4z"/><path style="fill:#1b1f21;stroke:none" d="M40 152v8h4v-8h-4z"/><path style="fill:#e64539;stroke:none" d="M172 152v8h4v-8h-4z"/><path style="fill:#3a3f5e;stroke:none" d="M8 156v4h20v-4H8m20 4v4h4v-4h-4z"/><path style="fill:#1b1f21;stroke:none" d="M44 160v4h4v-4h-4z"/><path style="fill:#e64539;stroke:none" d="M168 160v12h4v-12h-4z"/><path style="fill:#3a3f5e;stroke:none" d="M32 164v4h4v-4h-4z"/><path style="fill:#1b1f21;stroke:none" d="M48 164v4h4v-4h-4z"/><path style="fill:#e64539;stroke:none" d="M184 164v4h48v-4h-48z"/><path style="fill:#3a3f5e;stroke:none" d="M36 168v4h4v-4h-4z"/><path style="fill:#1b1f21;stroke:none" d="M52 168v4h4v-4h-4z"/><path style="fill:#3a3f5e;stroke:none" d="M40 172v4h4v-4h-4z"/><path style="fill:#e64539;stroke:none" d="M172 172v4h4v-4h-4z"/><path style="fill:#3a3f5e;stroke:none" d="M44 176v4h4v-4h-4m4 4v4h20v-4H48z"/><path style="fill:#fff;stroke:none" d="M196 184v12h-12v12h12v12h12v-12h12v-12h-12v-12h-12z"/></svg>