<svg width="512" height="512" xmlns="http://www.w3.org/2000/svg"><defs><filter style="color-interpolation-filters:sRGB" id="a" x="-.117" y="-.161" width="1.234" height="1.322"><feFlood flood-opacity="1" flood-color="#3A3F5E" result="flood"/><feComposite in="flood" in2="SourceGraphic" operator="out" result="composite1"/><feGaussianBlur in="composite1" stdDeviation="15" result="blur"/><feOffset result="offset"/><feComposite in="offset" in2="SourceGraphic" operator="atop" result="composite2"/></filter></defs><path d="M.008.006h512v512h-512Z" fill="#1b1f21"/><g style="fill:#e64539;fill-opacity:1;filter:url(#a)"><path d="M406.125 85.418v14.957h-285.25L68.312 153.5v76.97L22 403.312l94.438 25.312-6.875-33.976-18.188-21.024 26.844-59h148.936v.094l32.38-96.417 115.815-22.313 26.337-95.615h-16.875V85.417h-18.688zm39.266 42.113-14.39 52.814h63.53V127.53l-49.14.001zm-114.618 8.064h77.006v32.97H298.97ZM152.75 238.78h25.438l23.43 8.323 10.757 33.022 6.125-41.344h48.656v57.157H126.75l26-57.156z" fill="#fff" style="fill:#e64539;fill-opacity:1"/></g></svg>