<svg xmlns="http://www.w3.org/2000/svg" width="240" height="240"><path style="fill:#1b1f21;stroke:none" d="M0 0v240h240V0H0z"/><path style="fill:#3a3f5e;stroke:none" d="M140 8v4h80V8h-80z"/><path style="fill:#e64539;stroke:none" d="M140 12v4h80v-4h-80m8 8v4h64v-4h-64m-24 8v8h-12v8H28v4h84v-4h112v4h4v4h4V28H124M8 44v4h16v-4H8z"/><path style="fill:#3a3f5e;stroke:none" d="M112 44v4H28v16h76v-4h8v-4h12v92h4V52h4v-4h88v4h4v8h8v-8h-4v-4h-4v-4H112M8 48v32h8v-4h8V48H8z"/><path style="fill:#e64539;stroke:none" d="M12 52v12h8V52h-8m20 0v8h4v-8h-4m8 0v8h4v-8h-4m8 0v8h4v-8h-4m8 0v8h4v-8h-4m60 8v4h-8v4H96v4H84v4H72v4H60v4H48v4H36v4h-4v12h4v4h4v4h80V60h-4m92 0v52h12V60h-12m16 0v52h8V60h-8z"/><path style="fill:#3a3f5e;stroke:none" d="M220 64v48h-12v60h-72v4h76v-4h8v-4h12v-56h-8V64h-4z"/><path style="fill:#e64539;stroke:none" d="M132 68v8h72v-8h-72z"/><path style="fill:#3a3f5e;stroke:none" d="M132 76v4h72v-4h-72z"/><path style="fill:#e64539;stroke:none" d="M132 84v12h72V84h-72z"/><path style="fill:#3a3f5e;stroke:none" d="M48 96v8h8v-8h-8m84 0v12h72V96h-72z"/><path style="fill:#e64539;stroke:none" d="M40 116v8h-4v8h-4v8h-4v8h-4v8h-4v8h-4v8h-4v4H8v4h8v4h8v4h8v4h8v4h8v-4h-4v-4h-8v-4h4v-8h4v-12h4v-8h4v-8h4v-8h12v-20h-4v-4H40z"/><path style="fill:#3a3f5e;stroke:none" d="M72 116v28h4v-28h-4m12 0v8h4v8h4v4h8v-4h-4v-8h-4v-8h-8m28 0v28H76v4h32v4h8v12h4v-48h-8z"/><path style="fill:#e64539;stroke:none" d="M132 120v12h72v-12h-72z"/><path style="fill:#3a3f5e;stroke:none" d="M132 132v12h72v-12h-72m-76 8v8h-4v8h-4v8h-4v12h-4v8h-4v4h8v4h4v-12h4v-12h4v-8h4v-8h4v-12h-8z"/><path style="fill:#e64539;stroke:none" d="M132 152v8h72v-8h-72z"/><path style="fill:#3a3f5e;stroke:none" d="M132 160v4h72v-4h-72m-12 4v4h8v-4h-8m8 4v4h8v-4h-8z"/><path style="fill:#fff;stroke:none" d="M196 184v12h-12v12h12v12h12v-12h12v-12h-12v-12h-12z"/></svg>