<svg xmlns="http://www.w3.org/2000/svg" width="240" height="240"><path style="fill:#1b1f21;stroke:none" d="M0 0v240h240V0H0z"/><path style="fill:#e64539;stroke:none" d="M44 72v8h-4v-4H24v8h4v4h4v12h60v-4h4v-4h4v-4h4v-4h4v-4h4v-4H96v4h-4v4h-4v4h-4v4h-4v4H68v-4h4v-4h4v-4h4v-4h4v-4h4v-4H44m80 0v4h-4v4h76v4h16V72h-88z"/><path style="fill:#3a3f5e;stroke:none" d="M92 76v4h4v-4h-4z"/><path style="fill:#1b1f21;stroke:none" d="M36 80v4h-4v4h4v-4h4v-4h-4z"/><path style="fill:#3a3f5e;stroke:none" d="M52 80v4h-4v4h-4v4h4v-4h4v-4h4v-4h-4z"/><path style="fill:#1b1f21;stroke:none" d="M56 80v4h-4v4h4v-4h4v-4h-4z"/><path style="fill:#3a3f5e;stroke:none" d="M64 80v4h-4v4h-4v4h4v-4h4v-4h4v-4h-4z"/><path style="fill:#1b1f21;stroke:none" d="M68 80v4h4v-4h-4z"/><path style="fill:#3a3f5e;stroke:none" d="M88 80v4h4v-4h-4z"/><path style="fill:#e64539;stroke:none" d="M56 84v4h4v-4h-4z"/><path style="fill:#1b1f21;stroke:none" d="M64 84v4h4v-4h-4z"/><path style="fill:#3a3f5e;stroke:none" d="M84 84v4h4v-4h-4m20 0v4h-4v4h-4v4h-4v4H32v4h132v4H36v4h4v4h120v4H52v4h60v16h-4v4h4v4h80v-4h4v-4h4v-24h8v-4h4v-4h-40v-4h-4v-4h-68v-4h4v-4h4v-4h104v-4H104z"/><path style="fill:#1b1f21;stroke:none" d="M48 88v4h4v-4h-4m12 0v4h4v-4h-4z"/><path style="fill:#3a3f5e;stroke:none" d="M80 88v4h4v-4h-4z"/><path style="fill:#e64539;stroke:none" d="M108 88v4h-4v4h-4v4h68v4h4v4h40V88H108z"/><path style="fill:#3a3f5e;stroke:none" d="M68 92v4h12v-4H68z"/><path style="fill:#1b1f21;stroke:none" d="M164 108v4h4v4h32v-4h-32v-4h-4z"/><path style="fill:#3a3f5e;stroke:none" d="M48 128v4h20v12h-8v4h-4v4h8v4H52v4h8v4H48v4h8v4H44v4h4v4h8v4h4v-4h4v-12h4v-8h4v-8h4v-8h4v-16H48m36 0v8h4v4h8v-4h-4v-8h-8z"/><path style="fill:#1b1f21;stroke:none" d="M116 128v12h-4v4h4v-4h4v-4h4v-8h-8m12 0v12h-4v4h4v-4h4v-4h4v-8h-8m12 0v12h-4v4h4v-4h4v-4h4v-8h-8m12 0v12h-4v4h4v-4h4v-4h4v-8h-8m12 0v12h-4v4h4v-4h4v-4h4v-8h-8m12 0v12h-4v4h4v-4h4v-4h4v-8h-8m12 0v12h-4v4h4v-4h4v-4h4v-8h-8z"/><path style="fill:#e64539;stroke:none" d="M48 132v4h-4v8h-4v8h-4v8h-4v8h-4v8h4v4h4v4h8v4h8v4h12v-4h4v-8h-4v4h-4v4h-4v-4h-8v-4h-8v-4h4v-4h4v-4h-8v-4h12v-4h-8v-4h12v-4h-8v-4h12v-4h-4v-8h8v8h4v-12H48z"/><path style="fill:#1b1f21;stroke:none" d="M56 136v8h8v-8h-8m-12 8v4h4v-4h-4z"/><path style="fill:#3a3f5e;stroke:none" d="M84 144v4h24v-4H84z"/><path style="fill:#1b1f21;stroke:none" d="M48 148v4h8v-4h-8m-8 4v4h4v-4h-4m16 0v4h8v-4h-8m-12 4v4h8v-4h-8m-8 4v4h4v-4h-4m16 0v4h8v-4h-8m-12 4v4h8v-4h-8m-8 4v4h4v4h4v-4h-4v-4h-4m16 0v4h8v-4h-8m-8 8v4h8v-4h-8m8 4v4h8v-4h-8m12 0v4h4v-4h-4m-4 4v4h4v-4h-4z"/><path style="fill:#fff;stroke:none" d="M196 184v12h-12v12h12v12h12v-12h12v-12h-12v-12h-12z"/></svg>