<svg xmlns="http://www.w3.org/2000/svg" width="240" height="240"><path style="fill:#1b1f21;stroke:none" d="M0 0v240h240V0H0z"/><path style="fill:#e64539;stroke:none" d="M32 52v4h40v-4H32m56 0v8h12v-8H88z"/><path style="fill:#3a3f5e;stroke:none" d="M28 56v4h44v-4H28z"/><path style="fill:#e64539;stroke:none" d="M24 60v4h48v-4H24z"/><path style="fill:#3a3f5e;stroke:none" d="M76 64v12h4V64h-4z"/><path style="fill:#e64539;stroke:none" d="M84 64v12H68v-8H24v24h32v-8h4v8h4v-8h4v8h4v-8h4v8h4v-8h4v8h4v-4h68v4h4V76h-4V64H84m76 0v8h4v4h48V64h-52m56 0v12h4V64h-4z"/><path style="fill:#3a3f5e;stroke:none" d="M68 68v8h4v-8h-4z"/><path style="fill:#e64539;stroke:none" d="M224 68v8h4v-8h-4z"/><path style="fill:#3a3f5e;stroke:none" d="M164 76v24h8V76h-8m40 0v24h8V76h-8m12 0v16h4V76h-4m8 0v12h4V76h-4z"/><path style="fill:#e64539;stroke:none" d="M176 80v40h24V80h-24z"/><path style="fill:#1b1f21;stroke:none" d="M56 84v8h4v-8h-4m8 0v8h4v-8h-4m8 0v8h4v-8h-4m8 0v8h4v-8h-4z"/><path style="fill:#3a3f5e;stroke:none" d="M24 92v4h40v4h4v4h20V92H24z"/><path style="fill:#e64539;stroke:none" d="M92 92v4h60v-4H92z"/><path style="fill:#3a3f5e;stroke:none" d="M156 92v8h4v-8h-4m-64 4v8h60v-8h-12v4h-4v-4h-4v4h-28v-4h-4v4h-4v-4h-4z"/><path style="fill:#1b1f21;stroke:none" d="M96 96v4h4v-4h-4m8 0v4h28v-4h-28m32 0v4h4v-4h-4z"/><path style="fill:#3a3f5e;stroke:none" d="M216 96v28h4v-4h4v-4h4v-4h4V96h-16z"/><path style="fill:#e64539;stroke:none" d="M16 100v4h-4v4H8v24h4v-4h8v-4h4v-4h4v-4h12v-4h12v-4h4v-4h4v-4H16z"/><path style="fill:#3a3f5e;stroke:none" d="M56 104v4h4v-4h-4m-4 4v4h4v-4h-4m32 0v4h4v4h20v4h4v16h-4v8h-4v8h-4v12H76v4h4v4h4v4h4v4h16v-16h4v-12h4v-8h4v-8h4v-4h4v-4h16v-4h4v-4h4v-12h-4v12h-4v4h-16v4h-4v-4h-4v-16H84m40 0v8h4v4h8v-4h-4v-8h-8m-84 4v4h8v-4h-8z"/><path style="fill:#e64539;stroke:none" d="M204 112v12h4v-12h-4z"/><path style="fill:#3a3f5e;stroke:none" d="M28 116v4h8v-4h-8z"/><path style="fill:#e64539;stroke:none" d="M92 116v12h-4v8h-4v8h-4v8h-4v12h24v-12h4v-8h4v-8h4v-16h-4v-4H92z"/><path style="fill:#3a3f5e;stroke:none" d="M24 120v4h4v-4h-4m152 0v56h24v-56h-24m-156 4v4h4v-4h-4m184 0v16h4v-16h-4m-192 4v4H8v8h4v-4h4v-4h4v-4h-8z"/><path style="fill:#fff;stroke:none" d="M184 196v12h36v-12h-36z"/></svg>