<svg height="512" width="512" style="enable-background:new 0 0 512 512" xml:space="preserve" xmlns="http://www.w3.org/2000/svg"><defs><filter style="color-interpolation-filters:sRGB" id="a" x="-.098" y="-.063" width="1.196" height="1.125"><feFlood flood-opacity="1" flood-color="#3A3F5E" result="flood"/><feComposite in="flood" in2="SourceGraphic" operator="out" result="composite1"/><feGaussianBlur in="composite1" stdDeviation="12.382" result="blur"/><feOffset result="offset"/><feComposite in="offset" in2="SourceGraphic" operator="atop" result="composite2"/></filter></defs><path d="M372.751-42.731h512v512h-512z" fill="#b90202" style="fill:#1b1f21;fill-opacity:1" transform="translate(-372.751 42.731)"/><g style="fill:#e64539;fill-opacity:1;filter:url(#a)"><g style="fill:#e64539;fill-opacity:1"><path style="fill:#e64539;stroke-width:1.45176;fill-opacity:1" d="M192.836 16.045a42.992 42.992 0 0 0-42.994 42.992 42.992 42.992 0 0 0 42.994 42.992 42.992 42.992 0 0 0 42.992-42.992 42.992 42.992 0 0 0-42.992-42.992ZM66.7 81.223v17.922l-22.443-8.56c-9.849-2.052-19.49 4.255-21.535 14.095-2.062 9.831 4.245 19.49 14.093 21.535l29.885 10.43v17.308l89 35.11c3.035 20.746 5.846 42.34 8.4 64.455l100.48-1.164a2139.94 2139.94 0 0 0-3.01-26.198l-22.592 7.112c-9.32 3.793-19.934-.676-23.727-9.979-3.794-9.312.685-19.933 9.988-23.726l27.408-11.167 8.922 37.76c15.705-9.234 31.063-20.035 46.82-32.926 6.1-4.98 9.606-12.614 9.919-21.484.338-9.72-3.282-19.091-9.659-25.068-24.48-22.964-53.75-30.077-84.736-37.621l-2.123-.52a8.547 8.547 0 0 0-2.787-.459c-23.902 24.926-21.216 4.628-41.608 3.621a7.779 7.779 0 0 0-3.994 1.092c-4.998 3.023-9.276 1.723-12.757 6.055zm197.88 171.13 3.638 13.577-102.393 2.957c-29.504 7.501-58.506 19.532-86.252 35.8-8.315 4.868-13.418 12.225-14.414 20.792a32.754 32.754 0 0 0-2.01 8.082l-12.16 99.695 8.186 1.55-3.594 21.092c-2.149 12.578 6.307 24.506 18.885 26.655 12.578 2.14 24.522-6.314 26.662-18.9l3.457-20.255 8.314 1.586 11.4-93.242c27.028-14.102 70.297-32.13 79.704-36.002 4.374.684 8.904.815 13.469.39l50.398 141.364 5.535-2.312 8.395 20.416c4.85 11.798 18.346 17.437 30.144 12.578 11.805-4.835 17.437-18.331 12.594-30.137l-8.49-20.668 3.76-1.568-1.516-4.444c-15.56-45.673-31.54-99.221-42.629-137.654l-2.225-8.299c3.04 5.63 6.412 11.133 9.8 16.555 3.871 6.193 10.333-5.17 7.267-10.057-5.016-8.02-3.681-20.26-1.317-15.236.876 1.845 1.96 2.677 3.995 2.72 2.954.08 6.359-.831 7.986-3.585.85-1.413 1.63-2.747 2.01-4.366.13-.484.216-.97.277-1.464.061-.33.12-.563.18-.762 1.732-2.252 2.357-5.5 1.318-8.15-1.083-2.763-4.15-3.613-6.394-1.534-1.507 1.387-2.599 3.004-3.291 4.875-2.296-3.655-5.214-6.738-9.442-8.48-4.8-1.975-10.042-2.123-14.562-4.842-1.213-.727-2.348-.744-3.387-.355-1.11-.105-2.277.572-3.299 1.629z" transform="translate(81.696 3.017)"/></g></g></svg>