<svg xmlns="http://www.w3.org/2000/svg" width="240" height="240"><path style="fill:#1b1f21;stroke:none" d="M0 0v240h240V0H0z"/><path style="fill:#e64539;stroke:none" d="M56 76v4h-4v24h8v-4h132v-4h4V76h-88v4h4v4h-4v4h-4v4H80v-4h-4v-8h4v-4H56z"/><path style="fill:#1b1f21;stroke:none" d="M76 80v8h4v4h24v-4h4v-4h4v-4h-4v4h-4v4H80v-8h-4z"/><path style="fill:#3a3f5e;stroke:none" d="M80 80v8h24v-4h4v-4H80z"/><path style="fill:#1b1f21;stroke:none" d="M160 80v8h4v-8h-4m8 0v8h4v-8h-4m8 0v8h4v-8h-4m8 0v4h4v-4h-4z"/><path style="fill:#3a3f5e;stroke:none" d="M196 80v12h4V80h-4z"/><path style="fill:#1b1f21;stroke:none" d="M120 84v4h-4v4h4v-4h4v4h4v-4h4v4h4v-4h4v-4h-4v4h-4v-4h-4v4h-4v-4h-4z"/><path style="fill:#3a3f5e;stroke:none" d="M184 84v4h4v-4h-4z"/><path style="fill:#e64539;stroke:none" d="M120 88v4h4v-4h-4m8 0v4h4v-4h-4z"/><path style="fill:#3a3f5e;stroke:none" d="M160 88v4h4v-4h-4m8 0v4h4v-4h-4m8 0v4h4v-4h-4m-64 4v4h4v-4h-4m8 0v4h4v-4h-4m8 0v4h4v-4h-4m64 4v4h4v-4h-4m-132 4v4h132v-4H60z"/><path style="fill:#e64539;stroke:none" d="M60 108v8h4v-4h4v-4h-8z"/><path style="fill:#3a3f5e;stroke:none" d="M68 108v4h-4v4h120v-4h4v-4H68m-4 12v4h60v-4H64z"/><path style="fill:#e64539;stroke:none" d="M124 120v20h4v-8h4v-4h4v-4h4v-4h-16z"/><path style="fill:#3a3f5e;stroke:none" d="M140 120v4h16v-4h-16z"/><path style="fill:#e64539;stroke:none" d="M64 128v8h-4v8h-4v8h-4v8h-4v8h-4v12h4v4h4v4h4v4h4v4h16v-4H64v-4h-4v-4h-4v-4h-4v-4h8v-8h4v-8h4v-8h4v-8h12v-4h4v-8h4v-4H64z"/><path style="fill:#3a3f5e;stroke:none" d="M92 128v4h-4v8h-4v4h-8v4h-4v8h-4v8h-4v8h-4v4h-4v4h4v4h4v4h12v-8h4v-12h4v-8h4v-8h4v-8h4v-16h-4m8 0v8h4v4h8v-4h-4v-8h-8z"/><path style="fill:#1b1f21;stroke:none" d="M76 132v8h8v-8h-8m-12 4v4h4v4h4v-4h-4v-4h-4z"/><path style="fill:#e64539;stroke:none" d="M120 140v4h4v-4h-4z"/><path style="fill:#1b1f21;stroke:none" d="M60 144v4h4v4h4v-4h-4v-4h-4m12 0v4h4v-4h-4z"/><path style="fill:#e64539;stroke:none" d="M100 144v4h20v-4h-20z"/><path style="fill:#1b1f21;stroke:none" d="M76 148v4h8v-4h-8m-20 4v4h4v4h4v-4h-4v-4h-4m12 0v4h4v-4h-4m4 4v4h8v-4h-8m-20 4v4h4v4h4v-4h-4v-4h-4m12 0v4h4v-4h-4m4 4v4h8v-4h-8m-20 4v8h4v-8h-4m12 0v4h4v-4h-4m4 4v4h8v-4h-8m-12 4v4h4v-4h-4m4 4v4h4v-4h-4m4 4v4h4v-4h-4z"/><path style="fill:#fff;stroke:none" d="M184 196v12h36v-12h-36z"/></svg>