<svg width="512" height="512" xmlns="http://www.w3.org/2000/svg"><defs><filter style="color-interpolation-filters:sRGB" id="a" x="-.196" y="-.163" width="1.393" height="1.327"><feFlood flood-opacity="1" flood-color="#3A3F5E" result="flood"/><feComposite in="flood" in2="SourceGraphic" operator="out" result="composite1"/><feGaussianBlur in="composite1" stdDeviation="15" result="blur"/><feOffset result="offset"/><feComposite in="offset" in2="SourceGraphic" operator="atop" result="composite2"/></filter></defs><path d="M.005.004h512v512h-512Z" fill="#1b1f21"/><path style="fill:#e64539;fill-opacity:1;stroke-width:.948919;filter:url(#a)" d="m48.13 285.342 5.613 7.235 8.144-.879 36.374-3.207 177.23-137.46 56.22-43.606 9.671 12.469 9.52 12.274 88.48-68.626c-33.707-16.038-33.724-16.041-39.546-50.986L254.514 125.269ZM347.366 64.716c1.116-.702 2.49-1.054 4.013-.862 5.418.685 7.306 7.578 2.99 10.925a6.13 6.13 0 0 1-8.595-1.08l-.006-.006c-2.092-2.698-1.494-6.134.572-8.165a6.13 6.13 0 0 1 1.026-.812zm19.825-15.362c1.115-.702 2.489-1.054 4.013-.861 5.418.684 7.304 7.576 2.988 10.923a6.129 6.129 0 0 1-8.607-1.081l.007-.006c-2.092-2.697-1.493-6.132.573-8.162.31-.305.654-.579 1.026-.813zm-39.615 30.737c1.115-.702 2.49-1.055 4.014-.862 5.418.684 7.304 7.579 2.989 10.926a6.132 6.132 0 0 1-8.624-1.083l.022-.006c-2.092-2.697-1.492-6.132.573-8.163h.002c.31-.305.653-.578 1.024-.812zm59.438-46.1c1.115-.703 2.489-1.054 4.013-.862 5.418.685 7.305 7.578 2.99 10.925a6.13 6.13 0 0 1-8.615-1.09l.013.002c-2.092-2.698-1.493-6.132.573-8.163a6.13 6.13 0 0 1 1.026-.812zM52.578 298.52l-3.832 9.548 31.855 41.07c3.905 5.34 11.436 6.428 16.693 2.412l20.512-15.909c8.43-6.538 35.81-.192 35.96 26.897.16 23.19 13.483 82.349 20.19 110.782 1.878 7.926 10.817 11.854 17.923 7.875l59.974-33.219a12.126 12.126 0 0 0 5.581-14.797l-30.322-89.408 70.855-54.955 7.812-16.837 41.412 18.046 6-13.653-41.135-17.927 2.469-5.316 43.702 19.04 2.696 1.17-1.188 2.696-6.726 15.313 12.032 5.267 24.512-56.041-5.643-2.468-6.422 14.678c-1.462 3.342-4.492 5.564-7.742 6.98-3.25 1.416-6.855 2.153-10.173.702l-27.059-11.835c-3.104-1.358-5.502-4.05-6.911-7.288-1.409-3.237-1.786-7.181-.176-10.861l6.448-14.75 10.104-21.778 3.783-28.963 13.15-10.97-28.62-36.9-228.418 177.164zM368.686 92.205c1.115-.702 2.489-1.054 4.013-.861 5.418.685 7.305 7.578 2.99 10.925a6.13 6.13 0 0 1-8.59-1.073l-.011-.014c-2.092-2.697-1.495-6.134.571-8.164.31-.305.654-.579 1.026-.813zm19.824-15.362c1.115-.702 2.49-1.053 4.013-.86 5.418.684 7.304 7.575 2.989 10.922a6.128 6.128 0 0 1-8.601-1.072v-.013c-2.091-2.697-1.494-6.133.573-8.164.31-.305.654-.578 1.025-.813zm-39.615 30.738c1.115-.703 2.49-1.056 4.015-.863 5.417.685 7.302 7.577 2.986 10.925a6.129 6.129 0 0 1-8.615-1.073l.016-.013c-2.091-2.696-1.493-6.133.572-8.164h.002c.31-.305.653-.578 1.024-.812zm59.438-46.101c1.115-.703 2.49-1.054 4.013-.861 5.418.684 7.304 7.576 2.988 10.923a6.127 6.127 0 0 1-8.606-1.08l.007-.006c-2.092-2.697-1.494-6.133.572-8.164.31-.305.654-.578 1.026-.813zM204.735 276.93l52.456-40.685 29.527 38.07-65.817 51.048zm21.649 2.081.007.01.018-.015zm.007.01-2.702 2.095.593 5.216s14.047 9.428 23.426 4.114c-15.18-1.91-21.3-11.398-21.317-11.426zm119.064-79.6-2.481 5.684-.041-.016-12.134 27.744c-.85 1.945-.689 4.162.187 6.175.876 2.013 2.5 3.65 3.878 4.254l27.059 11.834c.799.35 3.223.282 5.476-.7s4.186-2.745 4.718-3.96l2.39-5.465.072.031 12.064-27.568-.001-.002-5.372-2.35-2.483 5.675-30.441-13.303 2.484-5.684zm.494 15.957a4.837 4.837 0 0 1 7.445 3.261c.02.12.038.238.05.36V219c.08.85-.058 1.745-.439 2.615-1.16 2.65-4.06 3.793-6.533 2.711-2.474-1.082-3.608-3.99-2.449-6.64a5.248 5.248 0 0 1 1.925-2.308zm-6.44 14.728a4.83 4.83 0 0 1 4.604-.406l.01-.002a4.83 4.83 0 0 1 2.835 3.659c.02.12.04.239.05.36a5.319 5.319 0 0 1-.436 2.625c-1.16 2.65-4.062 3.783-6.536 2.701-2.473-1.082-3.606-3.98-2.446-6.63a5.254 5.254 0 0 1 1.92-2.307zm17.721-3.443a9.172 9.172 0 0 1 8.638-.646 9.195 9.195 0 0 1 5.397 6.787c.039.218.068.438.092.66a9.224 9.224 0 0 1-.728 4.71 9.188 9.188 0 0 1-12.155 4.76 9.186 9.186 0 0 1-4.75-12.157 9.236 9.236 0 0 1 3.506-4.114zm35.646 20.961-20.772 47.482c12.176 2.955 25.089-3.156 30.284-15.031a26.207 26.207 0 0 0 2.093-13.157l-.001-.002c-.03-.29-.066-.578-.105-.866-.99-7.362-5.08-14.16-11.498-18.426z" transform="rotate(37.194 229.542 221.554)"/></svg>