<svg xmlns="http://www.w3.org/2000/svg" width="240" height="240"><path style="fill:#1b1f21;stroke:none" d="M0 0v240h240V0H0z"/><path style="fill:#e64539;stroke:none" d="M100 8v4H88v8h40v-8h-20V8h-8m-24 4v8h8v-8h-8m56 0v8h12v-8h-12z"/><path style="fill:#3a3f5e;stroke:none" d="M76 20v8h8v-8h-8m12 0v4h40v-4H88m44 0v8h12v-8h-12z"/><path style="fill:#e64539;stroke:none" d="M68 32v4h-8v4h172v-4h-4v-4h-4v4h-8v-4h-4v4h-8v-4h-4v4h-8v-4h-4v4h-8v-4h-4v4h-8v-4h-4v4h-8v-4h-4v4h-8v-4h-4v4h-8v-4h-4v4h-8v-4h-4v4h-8v-4h-4v4h-8v-4h-4v4h-8v-4h-4v4h-8v-4h-4z"/><path style="fill:#3a3f5e;stroke:none" d="M60 40v4h172v-4H60z"/><path style="fill:#e64539;stroke:none" d="M16 48v28h28V48H16z"/><path style="fill:#3a3f5e;stroke:none" d="M44 48v28H16v24h180v-4h8V76h-60V48h-4v4h-4v24H52V52h-4v-4h-4z"/><path style="fill:#e64539;stroke:none" d="M144 48v28h60V52h-8v-4h-52M8 52v24h4V52H8m44 0v24h84V52H52m156 4v20h24V56h-24z"/><path style="fill:#3a3f5e;stroke:none" d="M8 76v20h4V76H8m200 0v16h24V76h-24z"/><path style="fill:#e64539;stroke:none" d="M24 104v4H8v4h24v4h4v4h20v-8h160v4h4v4h4v8h4v-16h-4v-4h-12v-4H24z"/><path style="fill:#1b1f21;stroke:none" d="M40 108v8h4v-8h-4m8 0v8h4v-8h-4z"/><path style="fill:#3a3f5e;stroke:none" d="M8 112v4h24v-4H8m120 0v12h84v-8h4v-4h-12v8h-60v-8h-4v8h-4v-8h-8z"/><path style="fill:#1b1f21;stroke:none" d="M136 112v8h4v-8h-4m8 0v8h60v-8h-60z"/><path style="fill:#3a3f5e;stroke:none" d="M32 116v4h4v-4h-4z"/><path style="fill:#e64539;stroke:none" d="M60 116v8h4v-4h60v-4H60z"/><path style="fill:#3a3f5e;stroke:none" d="M216 116v4h4v-4h-4m-180 4v16h4v-16h-4z"/><path style="fill:#1b1f21;stroke:none" d="M64 120v4h4v-4h-4z"/><path style="fill:#3a3f5e;stroke:none" d="M68 120v4h-8v4h64v-8h-8v4h-4v-4h-4v4H72v-4h-4z"/><path style="fill:#1b1f21;stroke:none" d="M72 120v4h36v-4H72m40 0v4h4v-4h-4z"/><path style="fill:#3a3f5e;stroke:none" d="M220 120v8h4v-8h-4M64 132v4h4v16h16v4h4v32h4v4h-8v4h8v4h-8v4h8v4h-8v4h-4v4h-8v4h28v-4h-4v-56h4v4h20v-4h8v-4h4v-24h-4v24h-8v4h-20v-4h-4v-8h4v4h8v-4h-4v-8h-8v-4h4v-4H64z"/><path style="fill:#e64539;stroke:none" d="M216 132v4h4v8h-4v4h4v8h-4v4h4v8h-4v4h4v12h8v-52h-12z"/><path style="fill:#3a3f5e;stroke:none" d="M228 132v52h-8v-4h-4v8h16v-56h-4m-196 4v4h4v-4h-4m184 0v4h4v-4h-4M8 140v4h24v-4H8m208 8v4h4v-4h-4z"/><path style="fill:#e64539;stroke:none" d="M68 152v64h12v-4h4v-4h-8v-4h8v-4h-8v-4h8v-4h-8v-4h12v-32h-4v-4H68z"/><path style="fill:#3a3f5e;stroke:none" d="M216 160v4h4v-4h-4m0 12v4h4v-4h-4z"/><path style="fill:#1b1f21;stroke:none" d="M76 188v4h16v-4H76m0 8v4h16v-4H76z"/><path style="fill:#fff;stroke:none" d="M184 196v12h36v-12h-36z"/><path style="fill:#1b1f21;stroke:none" d="M76 204v4h16v-4H76z"/></svg>