<svg width="512" height="512" xmlns="http://www.w3.org/2000/svg"><defs><filter style="color-interpolation-filters:sRGB" id="a" x="-.276" y="-.392" width="1.553" height="1.784"><feFlood flood-opacity="1" flood-color="#3A3F5E" result="flood"/><feComposite in="flood" in2="SourceGraphic" operator="out" result="composite1"/><feGaussianBlur in="composite1" stdDeviation="15" result="blur"/><feOffset result="offset"/><feComposite in="offset" in2="SourceGraphic" operator="atop" result="fbSourceGraphic"/><feColorMatrix result="fbSourceGraphicAlpha" in="fbSourceGraphic" values="0 0 0 -1 0 0 0 0 -1 0 0 0 0 -1 0 0 0 0 1 0"/><feFlood flood-opacity="1" flood-color="#3A3F5E" result="flood"/><feComposite in2="fbSourceGraphic" in="flood" operator="out" result="composite1"/><feGaussianBlur in="composite1" stdDeviation="15" result="blur"/><feOffset result="offset"/><feComposite in2="fbSourceGraphic" in="offset" operator="atop" result="composite2"/></filter></defs><path d="M.006.002h512v512h-512Z" fill="#1b1f21"/><g style="fill:#e64539;fill-opacity:1;filter:url(#a)"><path d="M20.951 399.363s6.41-91.63 23.58-127.08c5.91-12.21-4.21-33.92-14-40.92h106.11v42.22c7 8.67 20.56 14.44 35.45 14.44 23.23 0 42.11-13.76 42.11-31 0-10.78-7.42-20.67-18.66-25.67h14.1a32.81 32.81 0 0 1 12.54 25.67c0 21.64-22.49 39.11-50.13 39.11-15.64 0-29.63-5.7-38.83-14.52-11.59 4.1-21.33 23.37-21.33 35.67 0 10.57 1.66 82.06 1.66 82.06h-92.62ZM413.258 162.5v-16h7v16zm-4.696 11h-12v-39h10.54a6.88 6.88 0 0 1 1.46 4.41zm-382.982 50h203.743l.257 29.648c95.969-.713 91.441-36.98 99.113-52.289 1.456-26.08 25.967-24.249 59.367-24.249 1.25 0 2.91-.11 3.91-.09V134.5l-2.73-5-322.945 1.553-17.272-13.395c5.769 12.817-5.012 13.65-17.069 13.56C25.58 223.5 55.55 194.55 25.58 223.5Zm119.39-61.52c0-4.42 4-7.48 8.38-7.48h146.09c11.887.22 9.635 16.115 0 16H153.35a8.81 8.81 0 0 1-8.38-8.54zm21.611 69.383h-13s-3.63 32.5 18.49 44.18c-17.49-19.05-5.49-44.18-5.49-44.18z" fill="#fff" style="fill:#e64539;fill-opacity:1" transform="rotate(-.338 -303.091 -5135.487) scale(1.06355)"/></g></svg>