<svg xmlns="http://www.w3.org/2000/svg" width="240" height="240"><path style="fill:#1b1f21;stroke:none" d="M0 0v240h240V0H0z"/><path style="fill:#e64539;stroke:none" d="M144 40v8h12v-8h-12M28 44v4h-4v8h24v-8h-4v-4H28m152 0v4h-4v4H52v4h140v-8h-4v-4h-8z"/><path style="fill:#1b1f21;stroke:none" d="M32 48v4h8v-4h-8z"/><path style="fill:#3a3f5e;stroke:none" d="M8 56v8h12v-8H8m16 0v4h108v4H68v4h64v4H68v4h68v-4h8v-4h8V56H24z"/><path style="fill:#e64539;stroke:none" d="M24 60v12h4v4h8v-4h24v4h8v-4h64v-4H68v-4h64v-4H24z"/><path style="fill:#1b1f21;stroke:none" d="M140 60v4h-4v4h4v-4h8v-4h-8z"/><path style="fill:#e64539;stroke:none" d="M156 60v8h-4v4h-8v4h-8v4h8v-4h4v4h4v-8h4v8h4V64h4v16h4V64h4v16h4V64h4v16h4V64h4v16h4V60h-36m40 0v8h12v-8h-12z"/><path style="fill:#3a3f5e;stroke:none" d="M36 64v4h24v-4H36z"/><path style="fill:#1b1f21;stroke:none" d="M160 64v20h4V64h-4m8 0v20h4V64h-4m8 0v20h4V64h-4m8 0v16h4V64h-4z"/><path style="fill:#e64539;stroke:none" d="M212 64v4h20v-4h-20M8 68v12h8v4h36v4H12v-4H8v44h4v4h4V92h44v-4h-4v-4h8v-4H24v-4h-4v-8H8z"/><path style="fill:#1b1f21;stroke:none" d="M144 68v4h8v-4h-8z"/><path style="fill:#3a3f5e;stroke:none" d="M196 68v8h12v-8h-12m16 0v4h20v-4h-20z"/><path style="fill:#1b1f21;stroke:none" d="M12 72v4h4v-4h-4z"/><path style="fill:#3a3f5e;stroke:none" d="M36 72v4h24v-4H36z"/><path style="fill:#1b1f21;stroke:none" d="M136 72v4h8v-4h-8m16 0v12h4V72h-4m-8 4v8h4v-8h-4z"/><path style="fill:#e64539;stroke:none" d="M68 80v8h4v-4h60v-4H68z"/><path style="fill:#3a3f5e;stroke:none" d="M136 80v8h52v-4h4v-4h-12v4h-4v-4h-4v4h-4v-4h-4v4h-4v-4h-4v4h-4v-4h-4v4h-4v-4h-8M28 84v4h24v-4H28z"/><path style="fill:#1b1f21;stroke:none" d="M56 84v4h4v-4h-4z"/><path style="fill:#3a3f5e;stroke:none" d="M60 84v8h4v-8h-4z"/><path style="fill:#1b1f21;stroke:none" d="M72 84v4h4v-4h-4z"/><path style="fill:#3a3f5e;stroke:none" d="M76 84v4h-8v4h64v-8h-8v4h-4v-4h-4v4H80v-4h-4z"/><path style="fill:#1b1f21;stroke:none" d="M80 84v4h36v-4H80m40 0v4h4v-4h-4M16 92v16h4v-4h4v-4h4v-8H16z"/><path style="fill:#3a3f5e;stroke:none" d="M28 92v8h-4v4h-4v4h-4v12h4v-8h4v-4h4v-4h4v-4h12v-4h16v-4H28m44 4v4h4v24h4v-20h16v4h4v28h-8v4h8v4h-8v4h8v4h-8v4h-4v4h-8v4h28v-4h-4v-48h4v4h24V96h-4v16h-20v-4h-4V96H72m36 0v8h4v4h8v-4h-4v-8h-8z"/><path style="fill:#e64539;stroke:none" d="M80 104v20h-4v4h-4v28h4v4h12v-4h4v-4h-8v-4h8v-4h-8v-4h8v-4h-8v-4h16v-24h-4v-4H80z"/><path style="fill:#1b1f21;stroke:none" d="M84 132v4h16v-4H84m0 8v4h16v-4H84m0 8v4h16v-4H84z"/><path style="fill:#e64539;stroke:none" d="M84 168v32h12v-32H84z"/><path style="fill:#3a3f5e;stroke:none" d="M96 168v32H84v4h16v-36h-4z"/><path style="fill:#fff;stroke:none" d="M196 184v12h-12v12h12v12h12v-12h12v-12h-12v-12h-12z"/></svg>