<svg xmlns="http://www.w3.org/2000/svg" width="240" height="240"><path style="fill:#1b1f21;stroke:none" d="M0 0v240h240V0H0z"/><path style="fill:#e64539;stroke:none" d="M104 52v4h4v-4h-4z"/><path style="fill:#3a3f5e;stroke:none" d="M108 52v4h4v-4h-4z"/><path style="fill:#e64539;stroke:none" d="M112 52v4h4v-4h-4z"/><path style="fill:#3a3f5e;stroke:none" d="M116 52v4h4v-4h-4z"/><path style="fill:#e64539;stroke:none" d="M120 52v4h4v-4h-4m-12 8v8h12v-8h-12m88 0v20h20v-4h-16v-4h16v-4h-16v-4h16v-4h-20m24 0v16h4V60h-4M16 64v12h4V64h-4m8 0v20h12v-4h8v-4h8v-4h-8v-4h-8v-4H24m160 0v4h-16v4h-16v4h16v4h16v4h8V64h-8M56 68v12h4v-4h4v4h4V68h-4v4h-4v-4h-4m16 4v4h12v-4H72m16 0v8h16v-4h4v4h8v-8h-4v4h-4v-4H88m32 0v4h4v4h8v-8h-12m16 0v4h12v-4h-12z"/><path style="fill:#3a3f5e;stroke:none" d="M16 76v16h4V76h-4m28 0v4h-8v4H24v8h12v-4h8v-4h8v-8h-8z"/><path style="fill:#1b1f21;stroke:none" d="M60 76v4h4v-4h-4m44 0v4h4v-4h-4z"/><path style="fill:#3a3f5e;stroke:none" d="M116 76v4h4v4h12v-4h-12v-4h-4z"/><path style="fill:#1b1f21;stroke:none" d="M120 76v4h4v-4h-4z"/><path style="fill:#3a3f5e;stroke:none" d="M152 76v8h16v4h16v4h8v-8h-8v-4h-16v-4h-16m68 0v20h4V76h-4M56 80v8h4v-4h4v4h4v-8H56m16 0v4h12v-4H72m16 0v4h20v-4H88m24 0v4h4v-4h-4m24 0v4h12v-4h-12m60 0v16h20v-4h-16v-4h16v-4h-16v-4h-4z"/><path style="fill:#e64539;stroke:none" d="M72 88v4h12v-4H72m64 0v4h12v-4h-12z"/><path style="fill:#3a3f5e;stroke:none" d="M72 92v8h-4v4h100v-4h-4v-4h-4v4h-4v-4h-4v4h-4v-8h-12v8h-4v-4h-4v4h-4v-4h-4v4h-4v-4h-4v4h-4v-4h-4v4h-4v-4h-4v4h-4v-4h-4v4h-4v-8H72z"/><path style="fill:#1b1f21;stroke:none" d="M76 96v4h4v-4h-4m64 0v4h4v-4h-4z"/><path style="fill:#e64539;stroke:none" d="M52 104v4H40v4h-8v4h-8v4h-4v4h-4v4h-4v4H8v20h4v-4h4v-4h4v-4h4v-4h4v-4h4v-4h4v-4h8v-4h12v4h4v4h4v4h4v4h100v-4h8v-4h56v-12h-76v4h-4v4H64v-4h-8v-4h-4v-8h4v4h4v4h8v4h28v-4h4v-4h4v-4h48v4h16v-8H52m120 0v8h60v-8h-60z"/><path style="fill:#3a3f5e;stroke:none" d="M52 108v8h4v4h8v4h88v-4h4v-4h12v-4h-16v-4h-48v4h-4v4h-4v4H68v-4h-8v-4h-4v-4h-4z"/><path style="fill:#1b1f21;stroke:none" d="M80 108v4h4v-4h-4m8 0v4h8v-4h-8z"/><path style="fill:#3a3f5e;stroke:none" d="M80 112v4h4v-4h-4m8 0v4h8v-4h-8z"/><path style="fill:#1b1f21;stroke:none" d="M104 112v4h4v4h40v-4h4v-4h-48z"/><path style="fill:#3a3f5e;stroke:none" d="M172 112v4h60v-4h-60m-128 8v4h-8v4h-4v4h-4v4h-4v4h-4v4h-4v4h-4v4H8v24h4v-8h4v-8h4v-4h4v-4h4v-4h8v-4h8v-4h16v16h4v4h24v-4h4v-4h4v-4h4v-4h4v-4h80v-4h48v-8h-56v4h-8v4H68v-4h-4v-4h-4v-4h-4v-4H44z"/><path style="fill:#1b1f21;stroke:none" d="M64 140v16h24v-4h4v-4h-4v-4h-4v-4h-8v8h4v4h-8v-4h-4v-8h-4z"/><path style="fill:#e64539;stroke:none" d="M92 140v4h8v-4h-8z"/></svg>