<svg width="512" height="512" xmlns="http://www.w3.org/2000/svg"><defs><filter style="color-interpolation-filters:sRGB" id="a" x="-.127" y="-.215" width="1.255" height="1.43"><feFlood flood-opacity="1" flood-color="#3A3F5E" result="flood"/><feComposite in="flood" in2="SourceGraphic" operator="out" result="composite1"/><feGaussianBlur in="composite1" stdDeviation="15" result="blur"/><feOffset result="offset"/><feComposite in="offset" in2="SourceGraphic" operator="atop" result="composite2"/></filter></defs><path d="M.004.002h512v512h-512Z" fill="#1b1f21"/><g style="fill:#e64539;fill-opacity:1;filter:url(#a)"><path d="M109.59 98.125H54.98v-12.32zM28.12 333l59.06 9.16a10.57 10.57 0 0 0 11.75-7.21l26.88-77.79h40.492l37.678 6h81v-47.83l18.372-18.46v-40.71H65.98l-36.22-23.42-7.74 4.53v45.31c-.163 5.765 4.443 10.537 10.21 10.58h22.63c9.3 0 24.77 19 10.4 37.74-12.28 16.06-34.71 63.93-45.28 87.1-2.942 6.463 1.118 13.944 8.14 15zm103.25-91.84 14.74-42h57.87v42zM38.33 126.35l-7.35-4.53v-16.66h227.19l.83 41.548H70.69Zm273.778 30.44v42.856l-18.89 17.994-.185 45.54 43.499-.769 115.448-66.487v-29.811l-60.654.45-.141-26.154 60.795-10.359v-24.89H258.17l.83 41.548h53.108zM159.93 212.17h-3l-2.38 3.91s4.64 14 13.94 15.35c-9.45-9.44-8.58-19.27-8.58-19.27z" fill="#fff" style="fill:#e64539;fill-opacity:1" transform="rotate(-.29 6694.859 846.838) scale(1.08837)"/></g></svg>