<svg xmlns="http://www.w3.org/2000/svg" width="240" height="240"><path style="fill:#1b1f21;stroke:none" d="M0 0v240h240V0H0z"/><path style="fill:#e64539;stroke:none" d="M104 60v8h28v8h96V60h-8v4H116v-4h-12m-60 4v12h4v4h4v4h4v4h-4v4h-8v4h-4v8h8v-4h8v-4h4v-4h4v-4h12V72h4v-4h12v-4H76v4h-4v4h-4v-4h-8v4h-8v-4h-4v-4h-4z"/><path style="fill:#3a3f5e;stroke:none" d="M72 64v4h4v-4h-4z"/><path style="fill:#1b1f21;stroke:none" d="M64 72v4h-4v4h-4v4h4v-4h4v-4h4v-4h-4z"/><path style="fill:#3a3f5e;stroke:none" d="M84 72v4h8v-4h-8m36 0v4h8v-4h-8z"/><path style="fill:#e64539;stroke:none" d="M80 76v4h4v4h-4v8h4v4h4v-4h32v4h8V76H80z"/><path style="fill:#3a3f5e;stroke:none" d="M132 76v4h96v-4h-96m-44 4v4h4v4h28v-4H92v-4h-4z"/><path style="fill:#1b1f21;stroke:none" d="M92 80v4h28v-4H92z"/><path style="fill:#e64539;stroke:none" d="M136 80v20h-4v4h4v-4h4v-8h76v-4h12v-8h-12v8h-72v-8h-8z"/><path style="fill:#1b1f21;stroke:none" d="M144 80v8h72v-8h-72z"/><path style="fill:#3a3f5e;stroke:none" d="M128 84v12h4V84h-4m-64 4v4h-4v4h-4v4h-8v4h28V88H64m152 0v4h-76v8h-4v4h88v-8h4v-8h-12M88 92v4h-8v8h4v4h8v-4h28v4h8V96H92v-4h-4z"/><path style="fill:#1b1f21;stroke:none" d="M92 92v4h28v-4H92z"/><path style="fill:#3a3f5e;stroke:none" d="M40 108v4h40v-4H40m92 0v4h-4v8h-4v4h12v-4h4v-4h44v-4h12v-4h-64z"/><path style="fill:#e64539;stroke:none" d="M36 112v4h-4v4h44v-4h28v8h4v-8h8v4h8v-8H36z"/><path style="fill:#3a3f5e;stroke:none" d="M76 116v4h12v4h4v12h4v-4h4v-4h20v-8h-4v4h-12v-8H76z"/><path style="fill:#1b1f21;stroke:none" d="M108 116v8h8v-8h-8z"/><path style="fill:#e64539;stroke:none" d="M28 124v8h-4v8h-4v8h-4v8h-4v16h4v4h4v4h8v4h12v4h8v-4h4v-8h-4v4h-4v4h-4v-4h-8v-4h4v-4h-4v4h-8v-4h4v-4h4v-4h-8v-4h12v-4h-8v-4h12v-4h-8v-4h12v-4h-4v-8h8v-4H36v-4h-8z"/><path style="fill:#3a3f5e;stroke:none" d="M36 124v4h12v12h-4v4h-4v4h8v4H36v4h8v4H32v4h8v4H28v4h8v4h4v4h8v-16h4v-8h4v-8h4v-8h4v-16H36m32 0v8h4v4h8v-4h-4v-8h-8z"/><path style="fill:#1b1f21;stroke:none" d="M40 132v8h8v-8h-8z"/><path style="fill:#3a3f5e;stroke:none" d="M88 136v4h4v-4h-4z"/><path style="fill:#1b1f21;stroke:none" d="M28 140v4h4v-4h-4z"/><path style="fill:#e64539;stroke:none" d="M68 140v4h12v-4H68z"/><path style="fill:#1b1f21;stroke:none" d="M32 144v4h8v-4h-8m-8 4v4h4v-4h-4m16 0v4h8v-4h-8m-12 4v4h8v-4h-8m-8 4v4h4v-4h-4m16 0v4h8v-4h-8m-12 4v4h8v-4h-8m-8 4v4h4v4h4v-4h-4v-4h-4m16 0v4h8v-4h-8z"/><path style="fill:#3a3f5e;stroke:none" d="M12 172v4h4v-4h-4z"/><path style="fill:#1b1f21;stroke:none" d="M24 172v4h8v-4h-8z"/><path style="fill:#3a3f5e;stroke:none" d="M16 176v4h4v-4h-4z"/><path style="fill:#1b1f21;stroke:none" d="M32 176v4h8v-4h-8z"/><path style="fill:#3a3f5e;stroke:none" d="M20 180v4h8v-4h-8z"/><path style="fill:#1b1f21;stroke:none" d="M40 180v4h4v-4h-4z"/><path style="fill:#3a3f5e;stroke:none" d="M28 184v4h12v-4H28z"/><path style="fill:#fff;stroke:none" d="M184 196v12h36v-12h-36z"/></svg>